<?xml version="1.0" standalone="no"?><!DOCTYPE svg PUBLIC "-//W3C//DTD SVG 1.1//EN" "http://www.w3.org/Graphics/SVG/1.1/DTD/svg11.dtd" ><svg version="1.1" xmlns="http://www.w3.org/2000/svg"><defs><font horiz-adv-x="0" id="font"><font-face ascent="750" bbox="-210 -352 1163 968" cap-height="700" descent="-250" font-family="Fresh Stencil" font-stretch="normal" font-style="normal" font-weight="700" units-per-em="1000" x-height="493" /><missing-glyph d="M585 0H85V700H585ZM516 661H153L335 385ZM129 73 311 350 129 627ZM539 624 358 350 539 76ZM517 38 335 314 153 38Z" horiz-adv-x="670" /><glyph glyph-name=".null" horiz-adv-x="0" /><glyph d="M430 722 567 341H398L287 669L298 700H319Q349 700 379 706Q409 712 428 722ZM294 543 233 341H172L269 616ZM578 309 637 145Q655 94 670.5 73Q686 52 719 40L746 30V0H404V30L438 39Q469 48 477.5 62.5Q486 77 477 105L422 268H211L178 157Q160 97 168.5 74Q177 51 221 40L261 30V0H-6V30L21 40Q54 52 69.5 73Q85 94 103 145L161 309Z" glyph-name="A" horiz-adv-x="736" unicode="A" /><glyph d="M773 659 646 662V700H709Q771 700 829.5 702Q888 704 942 708L939 524H905L891 553Q860 617 836.5 637.5Q813 658 773 659ZM235 30V0H-32V30L-3 39Q24 48 42.5 63Q61 78 77 104L202 309H450V594Q450 601 449.5 607Q449 613 447 618L284 341H222L415 655Q413 656 409.5 657.5Q406 659 404 659L375 670V700H612V386L703 389Q727 390 740 402.5Q753 415 765 453L779 498H812V234H779L765 279Q753 317 740 329.5Q727 342 703 343L612 346V0H375V30L404 41Q430 51 440 65Q450 79 450 106V268H243L163 117Q145 85 151.5 66.5Q158 48 189 41ZM959 0H646V39H746Q809 39 845 66Q881 93 913 175L933 226H969Z" glyph-name="AE" horiz-adv-x="1003" unicode="&#198;" /><glyph d="M430 722 567 341H398L287 669L298 700H319Q349 700 379 706Q409 712 428 722ZM294 543 233 341H172L269 616ZM578 309 637 145Q655 94 670.5 73Q686 52 719 40L746 30V0H404V30L438 39Q469 48 477.5 62.5Q486 77 477 105L422 268H211L178 157Q160 97 168.5 74Q177 51 221 40L261 30V0H-6V30L21 40Q54 52 69.5 73Q85 94 103 145L161 309ZM384 765H335L350 918H505Z" glyph-name="Aacute" horiz-adv-x="736" unicode="&#193;" /><glyph d="M430 722 567 341H398L287 669L298 700H319Q349 700 379 706Q409 712 428 722ZM294 543 233 341H172L269 616ZM578 309 637 145Q655 94 670.5 73Q686 52 719 40L746 30V0H404V30L438 39Q469 48 477.5 62.5Q486 77 477 105L422 268H211L178 157Q160 97 168.5 74Q177 51 221 40L261 30V0H-6V30L21 40Q54 52 69.5 73Q85 94 103 145L161 309ZM360 764Q293 764 256.5 800.5Q220 837 220 900V928H270V922Q270 891 292.5 875.5Q315 860 360 860Q405 860 427.5 875.5Q450 891 450 922V928H500V900Q500 837 463.5 800.5Q427 764 360 764Z" glyph-name="Abreve" horiz-adv-x="736" unicode="&#258;" /><glyph d="M430 722 567 341H398L287 669L298 700H319Q349 700 379 706Q409 712 428 722ZM294 543 233 341H172L269 616ZM578 309 637 145Q655 94 670.5 73Q686 52 719 40L746 30V0H404V30L438 39Q469 48 477.5 62.5Q486 77 477 105L422 268H211L178 157Q160 97 168.5 74Q177 51 221 40L261 30V0H-6V30L21 40Q54 52 69.5 73Q85 94 103 145L161 309ZM274 765H215L324 918H396L505 765H446L360 824Z" glyph-name="Acircumflex" horiz-adv-x="736" unicode="&#194;" /><glyph d="M430 722 567 341H398L287 669L298 700H319Q349 700 379 706Q409 712 428 722ZM294 543 233 341H172L269 616ZM578 309 637 145Q655 94 670.5 73Q686 52 719 40L746 30V0H404V30L438 39Q469 48 477.5 62.5Q486 77 477 105L422 268H211L178 157Q160 97 168.5 74Q177 51 221 40L261 30V0H-6V30L21 40Q54 52 69.5 73Q85 94 103 145L161 309ZM532 849Q532 819 511 797.5Q490 776 460 776Q430 776 409 797.5Q388 819 388 849Q388 879 409 900.5Q430 922 460 922Q490 922 511 900.5Q532 879 532 849ZM342 849Q342 819 321 797.5Q300 776 270 776Q240 776 219 797.5Q198 819 198 849Q198 879 219 900.5Q240 922 270 922Q300 922 321 900.5Q342 879 342 849Z" glyph-name="Adieresis" horiz-adv-x="736" unicode="&#196;" /><glyph d="M430 722 567 341H398L287 669L298 700H319Q349 700 379 706Q409 712 428 722ZM294 543 233 341H172L269 616ZM578 309 637 145Q655 94 670.5 73Q686 52 719 40L746 30V0H404V30L438 39Q469 48 477.5 62.5Q486 77 477 105L422 268H211L178 157Q160 97 168.5 74Q177 51 221 40L261 30V0H-6V30L21 40Q54 52 69.5 73Q85 94 103 145L161 309ZM385 765H336L215 918H370Z" glyph-name="Agrave" horiz-adv-x="736" unicode="&#192;" /><glyph d="M430 722 567 341H398L287 669L298 700H319Q349 700 379 706Q409 712 428 722ZM294 543 233 341H172L269 616ZM578 309 637 145Q655 94 670.5 73Q686 52 719 40L746 30V0H404V30L438 39Q469 48 477.5 62.5Q486 77 477 105L422 268H211L178 157Q160 97 168.5 74Q177 51 221 40L261 30V0H-6V30L21 40Q54 52 69.5 73Q85 94 103 145L161 309ZM503 782H218V857H503Z" glyph-name="Amacron" horiz-adv-x="736" unicode="&#256;" /><glyph d="M430 722 567 341H398L287 669L298 700H319Q349 700 379 706Q409 712 428 722ZM294 543 233 341H172L269 616ZM724 -160 714 -195Q694 -202 674.5 -206Q655 -210 638 -210Q591 -210 561.5 -186Q532 -162 532 -124Q532 -91 556.5 -58.5Q581 -26 624 0H404V30L438 39Q469 48 477.5 62.5Q486 77 477 105L422 268H211L178 157Q160 97 168.5 74Q177 51 221 40L261 30V0H-6V30L21 40Q54 52 69.5 73Q85 94 103 145L161 309H578L637 145Q655 94 670.5 73Q686 52 719 40L746 30V0H677Q658 -29 646.5 -58Q635 -87 635 -107Q635 -132 654 -146.5Q673 -161 705 -161Q712 -161 714.5 -161Q717 -161 724 -160Z" glyph-name="Aogonek" horiz-adv-x="736" unicode="&#260;" /><glyph d="M430 722 567 341H398L287 669L298 700H319Q349 700 379 706Q409 712 428 722ZM294 543 233 341H172L269 616ZM578 309 637 145Q655 94 670.5 73Q686 52 719 40L746 30V0H404V30L438 39Q469 48 477.5 62.5Q486 77 477 105L422 268H211L178 157Q160 97 168.5 74Q177 51 221 40L261 30V0H-6V30L21 40Q54 52 69.5 73Q85 94 103 145L161 309ZM359 921Q337 921 320 907Q303 893 298 871H246Q252 913 284.5 940.5Q317 968 359 968Q401 968 433.5 940.5Q466 913 472 871H420Q415 893 397.5 907Q380 921 359 921ZM359 742Q316 742 284 769.5Q252 797 246 839H298Q303 817 320 803.5Q337 790 359 790Q380 790 397.5 804Q415 818 420 839H472Q466 797 434 769.5Q402 742 359 742Z" glyph-name="Aring" horiz-adv-x="736" unicode="&#197;" /><glyph d="M430 722 567 341H398L287 669L298 700H319Q349 700 379 706Q409 712 428 722ZM294 543 233 341H172L269 616ZM578 309 637 145Q655 94 670.5 73Q686 52 719 40L746 30V0H404V30L438 39Q469 48 477.5 62.5Q486 77 477 105L422 268H211L178 157Q160 97 168.5 74Q177 51 221 40L261 30V0H-6V30L21 40Q54 52 69.5 73Q85 94 103 145L161 309ZM284 802Q268 802 259 794.5Q250 787 243 767L206 778Q209 837 233.5 867Q258 897 302 897Q315 897 331 893Q347 889 380 877Q406 868 417.5 865Q429 862 437 862Q453 862 462 869.5Q471 877 478 897L515 886Q512 827 487.5 797Q463 767 419 767Q406 767 390 771Q374 775 341 787Q315 796 303.5 799Q292 802 284 802Z" glyph-name="Atilde" horiz-adv-x="736" unicode="&#195;" /><glyph d="M413 407Q433 425 444 455.5Q455 486 455 523Q455 584 415.5 624.5Q376 665 316 665H307V700H364Q476 700 544.5 656.5Q613 613 613 541Q613 492 568 451.5Q523 411 460 401Q445 403 433.5 404.5Q422 406 413 407ZM273 0H36V30L65 41Q91 51 101 65Q111 79 111 106V594Q111 621 101 635Q91 649 65 659L36 670V700H273ZM405 0H307V36H337Q401 36 434.5 75Q468 114 468 185Q468 255 424.5 298Q381 341 312 341H307V377H361Q486 377 564 322Q642 267 642 185Q642 104 577 52Q512 0 405 0Z" glyph-name="B" horiz-adv-x="671" unicode="B" /><glyph d="M33 340Q33 505 132.5 606.5Q232 708 401 715V671Q313 657 265 569.5Q217 482 217 341Q217 215 267.5 130Q318 45 401 29V-15Q235 -10 134 90.5Q33 191 33 340ZM549 636Q527 654 498.5 663.5Q470 673 435 674V715Q483 714 543 707Q603 700 665 688L662 504H623L612 533Q593 580 579.5 600.5Q566 621 549 636ZM436 -15V26Q500 26 542 58Q584 90 622 178L643 226H680L670 31Q606 9 548.5 -2Q491 -13 436 -15Z" glyph-name="C" horiz-adv-x="713" unicode="C" /><glyph glyph-name="CR" horiz-adv-x="0" /><glyph d="M33 340Q33 505 132.5 606.5Q232 708 401 715V671Q313 657 265 569.5Q217 482 217 341Q217 215 267.5 130Q318 45 401 29V-15Q235 -10 134 90.5Q33 191 33 340ZM549 636Q527 654 498.5 663.5Q470 673 435 674V715Q483 714 543 707Q603 700 665 688L662 504H623L612 533Q593 580 579.5 600.5Q566 621 549 636ZM436 -15V26Q500 26 542 58Q584 90 622 178L643 226H680L670 31Q606 9 548.5 -2Q491 -13 436 -15ZM422 765H373L388 918H543Z" glyph-name="Cacute" horiz-adv-x="713" unicode="&#262;" /><glyph d="M33 340Q33 505 132.5 606.5Q232 708 401 715V671Q313 657 265 569.5Q217 482 217 341Q217 215 267.5 130Q318 45 401 29V-15Q235 -10 134 90.5Q33 191 33 340ZM549 636Q527 654 498.5 663.5Q470 673 435 674V715Q483 714 543 707Q603 700 665 688L662 504H623L612 533Q593 580 579.5 600.5Q566 621 549 636ZM436 -15V26Q500 26 542 58Q584 90 622 178L643 226H680L670 31Q606 9 548.5 -2Q491 -13 436 -15ZM362 765 253 918H312L398 859L484 918H543L434 765Z" glyph-name="Ccaron" horiz-adv-x="713" unicode="&#268;" /><glyph d="M549 636Q527 654 498.5 663.5Q470 673 435 674V715Q483 714 543 707Q603 700 665 688L662 504H623L612 533Q593 580 579.5 600.5Q566 621 549 636ZM436 -15V26Q500 26 542 58Q584 90 622 178L643 226H680L670 31Q606 9 548.5 -2Q491 -13 436 -15ZM504 -147Q504 -188 468 -215.5Q432 -243 373 -243Q340 -243 307.5 -232.5Q275 -222 257 -207L274 -175Q289 -181 303 -183.5Q317 -186 330 -186Q361 -186 378 -174Q395 -162 395 -141Q395 -120 369.5 -104Q344 -88 306 -87L304 -79L365 -13Q214 3 123.5 101.5Q33 200 33 340Q33 505 132.5 606.5Q232 708 401 715V671Q313 657 265 569.5Q217 482 217 341Q217 215 267.5 130Q318 45 401 29V-53Q445 -60 474.5 -85.5Q504 -111 504 -147Z" glyph-name="Ccedilla" horiz-adv-x="713" unicode="&#199;" /><glyph d="M33 340Q33 505 132.5 606.5Q232 708 401 715V671Q313 657 265 569.5Q217 482 217 341Q217 215 267.5 130Q318 45 401 29V-15Q235 -10 134 90.5Q33 191 33 340ZM549 636Q527 654 498.5 663.5Q470 673 435 674V715Q483 714 543 707Q603 700 665 688L662 504H623L612 533Q593 580 579.5 600.5Q566 621 549 636ZM436 -15V26Q500 26 542 58Q584 90 622 178L643 226H680L670 31Q606 9 548.5 -2Q491 -13 436 -15ZM312 765H253L362 918H434L543 765H484L398 824Z" glyph-name="Ccircumflex" horiz-adv-x="713" unicode="&#264;" /><glyph d="M33 340Q33 505 132.5 606.5Q232 708 401 715V671Q313 657 265 569.5Q217 482 217 341Q217 215 267.5 130Q318 45 401 29V-15Q235 -10 134 90.5Q33 191 33 340ZM549 636Q527 654 498.5 663.5Q470 673 435 674V715Q483 714 543 707Q603 700 665 688L662 504H623L612 533Q593 580 579.5 600.5Q566 621 549 636ZM436 -15V26Q500 26 542 58Q584 90 622 178L643 226H680L670 31Q606 9 548.5 -2Q491 -13 436 -15ZM477 851Q477 818 454 794.5Q431 771 398 771Q365 771 342 794.5Q319 818 319 851Q319 884 342 907.5Q365 931 398 931Q431 931 454 907.5Q477 884 477 851Z" glyph-name="Cdotaccent" horiz-adv-x="713" unicode="&#266;" /><glyph d="M579 349Q579 500 512.5 582Q446 664 327 664H307V700H356Q532 700 645 604.5Q758 509 758 352Q758 193 645.5 96.5Q533 0 358 0H307V36H327Q447 36 513 117Q579 198 579 349ZM273 700V0H36V30L65 41Q91 51 101 65Q111 79 111 106V594Q111 621 101 635Q91 649 65 659L36 670V700Z" glyph-name="D" horiz-adv-x="791" unicode="D" /><glyph d="M579 349Q579 500 512.5 582Q446 664 327 664H307V700H356Q532 700 645 604.5Q758 509 758 352Q758 193 645.5 96.5Q533 0 358 0H307V36H327Q447 36 513 117Q579 198 579 349ZM273 700V0H36V30L65 41Q91 51 101 65Q111 79 111 106V594Q111 621 101 635Q91 649 65 659L36 670V700ZM325 765 216 918H275L361 859L447 918H506L397 765Z" glyph-name="Dcaron" horiz-adv-x="791" unicode="&#270;" /><glyph d="M579 349Q579 500 512.5 582Q446 664 327 664H307V700H356Q532 700 645 604.5Q758 509 758 352Q758 193 645.5 96.5Q533 0 358 0H307V36H327Q447 36 513 117Q579 198 579 349ZM449 389V335H273V0H36V30L65 41Q91 51 101 65Q111 79 111 106V335H24V389H111V594Q111 621 101 635Q91 649 65 659L36 670V700H273V389Z" glyph-name="Dcroat" horiz-adv-x="791" unicode="&#272;" /><glyph d="M434 659 307 662V700H370Q432 700 490.5 702Q549 704 603 708L600 524H566L552 553Q521 617 497.5 637.5Q474 658 434 659ZM364 343 273 346V0H36V30L65 41Q91 51 101 65Q111 79 111 106V594Q111 621 101 635Q91 649 65 659L36 670V700H273V386L364 389Q388 390 401 402.5Q414 415 426 453L440 498H473V234H440L426 279Q414 317 401 329.5Q388 342 364 343ZM620 0H307V39H407Q470 39 506 66Q542 93 574 175L594 226H630Z" glyph-name="E" horiz-adv-x="665" unicode="E" /><glyph d="M434 659 307 662V700H370Q432 700 490.5 702Q549 704 603 708L600 524H566L552 553Q521 617 497.5 637.5Q474 658 434 659ZM364 343 273 346V0H36V30L65 41Q91 51 101 65Q111 79 111 106V594Q111 621 101 635Q91 649 65 659L36 670V700H273V386L364 389Q388 390 401 402.5Q414 415 426 453L440 498H473V234H440L426 279Q414 317 401 329.5Q388 342 364 343ZM620 0H307V39H407Q470 39 506 66Q542 93 574 175L594 226H630ZM360 765H311L326 918H481Z" glyph-name="Eacute" horiz-adv-x="665" unicode="&#201;" /><glyph d="M434 659 307 662V700H370Q432 700 490.5 702Q549 704 603 708L600 524H566L552 553Q521 617 497.5 637.5Q474 658 434 659ZM364 343 273 346V0H36V30L65 41Q91 51 101 65Q111 79 111 106V594Q111 621 101 635Q91 649 65 659L36 670V700H273V386L364 389Q388 390 401 402.5Q414 415 426 453L440 498H473V234H440L426 279Q414 317 401 329.5Q388 342 364 343ZM620 0H307V39H407Q470 39 506 66Q542 93 574 175L594 226H630ZM336 764Q269 764 232.5 800.5Q196 837 196 900V928H246V922Q246 891 268.5 875.5Q291 860 336 860Q381 860 403.5 875.5Q426 891 426 922V928H476V900Q476 837 439.5 800.5Q403 764 336 764Z" glyph-name="Ebreve" horiz-adv-x="665" unicode="&#276;" /><glyph d="M434 659 307 662V700H370Q432 700 490.5 702Q549 704 603 708L600 524H566L552 553Q521 617 497.5 637.5Q474 658 434 659ZM364 343 273 346V0H36V30L65 41Q91 51 101 65Q111 79 111 106V594Q111 621 101 635Q91 649 65 659L36 670V700H273V386L364 389Q388 390 401 402.5Q414 415 426 453L440 498H473V234H440L426 279Q414 317 401 329.5Q388 342 364 343ZM620 0H307V39H407Q470 39 506 66Q542 93 574 175L594 226H630ZM300 765 191 918H250L336 859L422 918H481L372 765Z" glyph-name="Ecaron" horiz-adv-x="665" unicode="&#282;" /><glyph d="M434 659 307 662V700H370Q432 700 490.5 702Q549 704 603 708L600 524H566L552 553Q521 617 497.5 637.5Q474 658 434 659ZM364 343 273 346V0H36V30L65 41Q91 51 101 65Q111 79 111 106V594Q111 621 101 635Q91 649 65 659L36 670V700H273V386L364 389Q388 390 401 402.5Q414 415 426 453L440 498H473V234H440L426 279Q414 317 401 329.5Q388 342 364 343ZM620 0H307V39H407Q470 39 506 66Q542 93 574 175L594 226H630ZM250 765H191L300 918H372L481 765H422L336 824Z" glyph-name="Ecircumflex" horiz-adv-x="665" unicode="&#202;" /><glyph d="M434 659 307 662V700H370Q432 700 490.5 702Q549 704 603 708L600 524H566L552 553Q521 617 497.5 637.5Q474 658 434 659ZM364 343 273 346V0H36V30L65 41Q91 51 101 65Q111 79 111 106V594Q111 621 101 635Q91 649 65 659L36 670V700H273V386L364 389Q388 390 401 402.5Q414 415 426 453L440 498H473V234H440L426 279Q414 317 401 329.5Q388 342 364 343ZM620 0H307V39H407Q470 39 506 66Q542 93 574 175L594 226H630ZM508 849Q508 819 487 797.5Q466 776 436 776Q406 776 385 797.5Q364 819 364 849Q364 879 385 900.5Q406 922 436 922Q466 922 487 900.5Q508 879 508 849ZM318 849Q318 819 297 797.5Q276 776 246 776Q216 776 195 797.5Q174 819 174 849Q174 879 195 900.5Q216 922 246 922Q276 922 297 900.5Q318 879 318 849Z" glyph-name="Edieresis" horiz-adv-x="665" unicode="&#203;" /><glyph d="M434 659 307 662V700H370Q432 700 490.5 702Q549 704 603 708L600 524H566L552 553Q521 617 497.5 637.5Q474 658 434 659ZM364 343 273 346V0H36V30L65 41Q91 51 101 65Q111 79 111 106V594Q111 621 101 635Q91 649 65 659L36 670V700H273V386L364 389Q388 390 401 402.5Q414 415 426 453L440 498H473V234H440L426 279Q414 317 401 329.5Q388 342 364 343ZM620 0H307V39H407Q470 39 506 66Q542 93 574 175L594 226H630ZM415 851Q415 818 392 794.5Q369 771 336 771Q303 771 280 794.5Q257 818 257 851Q257 884 280 907.5Q303 931 336 931Q369 931 392 907.5Q415 884 415 851Z" glyph-name="Edotaccent" horiz-adv-x="665" unicode="&#278;" /><glyph d="M434 659 307 662V700H370Q432 700 490.5 702Q549 704 603 708L600 524H566L552 553Q521 617 497.5 637.5Q474 658 434 659ZM364 343 273 346V0H36V30L65 41Q91 51 101 65Q111 79 111 106V594Q111 621 101 635Q91 649 65 659L36 670V700H273V386L364 389Q388 390 401 402.5Q414 415 426 453L440 498H473V234H440L426 279Q414 317 401 329.5Q388 342 364 343ZM620 0H307V39H407Q470 39 506 66Q542 93 574 175L594 226H630ZM361 765H312L191 918H346Z" glyph-name="Egrave" horiz-adv-x="665" unicode="&#200;" /><glyph d="M434 659 307 662V700H370Q432 700 490.5 702Q549 704 603 708L600 524H566L552 553Q521 617 497.5 637.5Q474 658 434 659ZM364 343 273 346V0H36V30L65 41Q91 51 101 65Q111 79 111 106V594Q111 621 101 635Q91 649 65 659L36 670V700H273V386L364 389Q388 390 401 402.5Q414 415 426 453L440 498H473V234H440L426 279Q414 317 401 329.5Q388 342 364 343ZM620 0H307V39H407Q470 39 506 66Q542 93 574 175L594 226H630ZM479 782H194V857H479Z" glyph-name="Emacron" horiz-adv-x="665" unicode="&#274;" /><glyph d="M703 594V204L645 275L636 594Q635 622 623 637.5Q611 653 585 659L541 670V700H789V670L750 659Q725 652 714 637Q703 622 703 594ZM110 106 121 561 174 497 179 106Q179 79 191.5 63.5Q204 48 230 41L274 30V0H20V30L59 41Q85 48 97 63.5Q109 79 110 106ZM548 -238Q498 -238 463 -211.5Q428 -185 428 -145Q428 -119 445.5 -101.5Q463 -84 487 -84Q511 -84 527 -100.5Q543 -117 543 -144Q543 -156 537 -170Q531 -184 522 -192Q526 -193 533.5 -194Q541 -195 545 -195Q594 -195 624 -161.5Q654 -128 654 -77V-8H635L106 630Q92 645 78.5 653.5Q65 662 52 665L34 669V700H270Q297 661 324.5 623.5Q352 586 380 550L703 153V-76Q703 -150 660 -194Q617 -238 548 -238Z" glyph-name="Eng" horiz-adv-x="807" unicode="&#330;" /><glyph d="M434 659 307 662V700H370Q432 700 490.5 702Q549 704 603 708L600 524H566L552 553Q521 617 497.5 637.5Q474 658 434 659ZM364 343 273 346V0H36V30L65 41Q91 51 101 65Q111 79 111 106V594Q111 621 101 635Q91 649 65 659L36 670V700H273V386L364 389Q388 390 401 402.5Q414 415 426 453L440 498H473V234H440L426 279Q414 317 401 329.5Q388 342 364 343ZM606 -160 596 -195Q576 -202 556.5 -206Q537 -210 520 -210Q473 -210 443.5 -186Q414 -162 414 -124Q414 -91 438.5 -58.5Q463 -26 506 0H307V39H407Q470 39 506 66Q542 93 574 175L594 226H630L620 0H559Q540 -29 528.5 -58Q517 -87 517 -107Q517 -132 536 -146.5Q555 -161 587 -161Q594 -161 596.5 -161Q599 -161 606 -160Z" glyph-name="Eogonek" horiz-adv-x="665" unicode="&#280;" /><glyph d="M579 349Q579 500 512.5 582Q446 664 327 664H307V700H356Q532 700 645 604.5Q758 509 758 352Q758 193 645.5 96.5Q533 0 358 0H307V36H327Q447 36 513 117Q579 198 579 349ZM449 389V335H273V0H36V30L65 41Q91 51 101 65Q111 79 111 106V335H24V389H111V594Q111 621 101 635Q91 649 65 659L36 670V700H273V389Z" glyph-name="Eth" horiz-adv-x="791" unicode="&#208;" /><glyph d="M434 672V715Q486 714 549.5 703Q613 692 635 684L630 517H593L580 551Q557 612 520.5 642Q484 672 434 672ZM400 71V-15Q285 -10 209 58.5Q133 127 108 246H36V296H101Q100 310 99 323.5Q98 337 98 350Q98 366 99 383Q100 400 103 418H36V468H114Q143 575 219 640.5Q295 706 400 714V669Q346 659 312.5 608.5Q279 558 265 468H470V418H259Q258 387 257.5 374Q257 361 257 350Q257 340 257.5 328Q258 316 259 296H470V246H266Q281 175 315 130.5Q349 86 400 71ZM434 -14V64Q505 58 558 101Q611 144 613 213H657Q657 118 593.5 55Q530 -8 434 -14Z" glyph-name="Euro" horiz-adv-x="698" unicode="&#8364;" /><glyph d="M433 661 307 663V700H369Q431 700 489.5 702Q548 704 602 708L599 524H565L551 553Q519 618 495.5 639Q472 660 433 661ZM36 700H273V366L383 369Q407 370 420 382.5Q433 395 445 433L459 478H492V214H459L445 259Q433 297 420 309.5Q407 322 383 323L273 326V106Q273 80 285 64.5Q297 49 324 41L358 30V0H36V30L65 41Q91 51 101 65Q111 79 111 106V594Q111 621 101 635Q91 649 65 659L36 670Z" glyph-name="F" horiz-adv-x="618" unicode="F" /><glyph d="M435 674V715Q489 714 558.5 706.5Q628 699 688 688L685 504H647L638 533Q615 605 565 639.5Q515 674 435 674ZM217 338Q217 212 266 131.5Q315 51 401 34V-14Q234 -4 133.5 95Q33 194 33 341Q33 504 135 604.5Q237 705 401 714V670Q313 653 265 565.5Q217 478 217 338ZM435 -15V29Q490 29 511.5 41.5Q533 54 533 83V210Q533 237 522.5 252Q512 267 487 275L454 286V316H748V286L731 280Q709 273 700.5 260Q692 247 692 210V80H731V43Q665 16 585.5 0.5Q506 -15 435 -15Z" glyph-name="G" horiz-adv-x="774" unicode="G" /><glyph d="M435 674V715Q489 714 558.5 706.5Q628 699 688 688L685 504H647L638 533Q615 605 565 639.5Q515 674 435 674ZM217 338Q217 212 266 131.5Q315 51 401 34V-14Q234 -4 133.5 95Q33 194 33 341Q33 504 135 604.5Q237 705 401 714V670Q313 653 265 565.5Q217 478 217 338ZM435 -15V29Q490 29 511.5 41.5Q533 54 533 83V210Q533 237 522.5 252Q512 267 487 275L454 286V316H748V286L731 280Q709 273 700.5 260Q692 247 692 210V80H731V43Q665 16 585.5 0.5Q506 -15 435 -15ZM394 764Q327 764 290.5 800.5Q254 837 254 900V928H304V922Q304 891 326.5 875.5Q349 860 394 860Q439 860 461.5 875.5Q484 891 484 922V928H534V900Q534 837 497.5 800.5Q461 764 394 764Z" glyph-name="Gbreve" horiz-adv-x="774" unicode="&#286;" /><glyph d="M435 674V715Q489 714 558.5 706.5Q628 699 688 688L685 504H647L638 533Q615 605 565 639.5Q515 674 435 674ZM217 338Q217 212 266 131.5Q315 51 401 34V-14Q234 -4 133.5 95Q33 194 33 341Q33 504 135 604.5Q237 705 401 714V670Q313 653 265 565.5Q217 478 217 338ZM435 -15V29Q490 29 511.5 41.5Q533 54 533 83V210Q533 237 522.5 252Q512 267 487 275L454 286V316H748V286L731 280Q709 273 700.5 260Q692 247 692 210V80H731V43Q665 16 585.5 0.5Q506 -15 435 -15ZM308 765H249L358 918H430L539 765H480L394 824Z" glyph-name="Gcircumflex" horiz-adv-x="774" unicode="&#284;" /><glyph d="M435 674V715Q489 714 558.5 706.5Q628 699 688 688L685 504H647L638 533Q615 605 565 639.5Q515 674 435 674ZM217 338Q217 212 266 131.5Q315 51 401 34V-14Q234 -4 133.5 95Q33 194 33 341Q33 504 135 604.5Q237 705 401 714V670Q313 653 265 565.5Q217 478 217 338ZM435 -15V29Q490 29 511.5 41.5Q533 54 533 83V210Q533 237 522.5 252Q512 267 487 275L454 286V316H748V286L731 280Q709 273 700.5 260Q692 247 692 210V80H731V43Q665 16 585.5 0.5Q506 -15 435 -15ZM492 -167Q492 -219 459 -266.5Q426 -314 365 -351L339 -325Q370 -301 392.5 -271Q415 -241 427 -207Q418 -212 408 -214.5Q398 -217 387 -217Q354 -217 331.5 -194Q309 -171 309 -138Q309 -105 333.5 -80Q358 -55 394 -55Q436 -55 464 -87.5Q492 -120 492 -167Z" glyph-name="Gcommaaccent" horiz-adv-x="774" unicode="&#290;" /><glyph d="M435 674V715Q489 714 558.5 706.5Q628 699 688 688L685 504H647L638 533Q615 605 565 639.5Q515 674 435 674ZM217 338Q217 212 266 131.5Q315 51 401 34V-14Q234 -4 133.5 95Q33 194 33 341Q33 504 135 604.5Q237 705 401 714V670Q313 653 265 565.5Q217 478 217 338ZM435 -15V29Q490 29 511.5 41.5Q533 54 533 83V210Q533 237 522.5 252Q512 267 487 275L454 286V316H748V286L731 280Q709 273 700.5 260Q692 247 692 210V80H731V43Q665 16 585.5 0.5Q506 -15 435 -15ZM473 851Q473 818 450 794.5Q427 771 394 771Q361 771 338 794.5Q315 818 315 851Q315 884 338 907.5Q361 931 394 931Q427 931 450 907.5Q473 884 473 851Z" glyph-name="Gdotaccent" horiz-adv-x="774" unicode="&#288;" /><glyph d="M731 594V421H569V594Q569 621 559 635Q549 649 523 659L494 670V700H806V670L777 659Q751 649 741 635Q731 621 731 594ZM348 30V0H36V30L65 41Q91 51 101 65Q111 79 111 106V594Q111 621 101 635Q91 649 65 659L36 670V700H348V670L319 659Q293 649 283 635Q273 621 273 594V106Q273 79 283 65Q293 51 319 41ZM307 335V389H731V106Q731 79 741 65Q751 51 777 41L806 30V0H494V30L523 41Q549 51 559 65Q569 79 569 106V335Z" glyph-name="H" horiz-adv-x="842" unicode="H" /><glyph d="M319 41 348 30V0H36V30L65 41Q91 51 101 65Q111 79 111 106V488H36V542H111V594Q111 621 101 635Q91 649 65 659L36 670V700H348V670L319 659Q293 649 283 635Q273 621 273 594V542H569V594Q569 621 559 635Q549 649 523 659L494 670V700H806V670L777 659Q751 649 741 635Q731 621 731 594V542H806V488H731V421H569V488H273V106Q273 79 283 65Q293 51 319 41ZM307 335V389H731V106Q731 79 741 65Q751 51 777 41L806 30V0H494V30L523 41Q549 51 559 65Q569 79 569 106V335Z" glyph-name="Hbar" horiz-adv-x="842" unicode="&#294;" /><glyph d="M731 594V421H569V594Q569 621 559 635Q549 649 523 659L494 670V700H806V670L777 659Q751 649 741 635Q731 621 731 594ZM348 30V0H36V30L65 41Q91 51 101 65Q111 79 111 106V594Q111 621 101 635Q91 649 65 659L36 670V700H348V670L319 659Q293 649 283 635Q273 621 273 594V106Q273 79 283 65Q293 51 319 41ZM307 335V389H731V106Q731 79 741 65Q751 51 777 41L806 30V0H494V30L523 41Q549 51 559 65Q569 79 569 106V335ZM335 765H276L385 918H457L566 765H507L421 824Z" glyph-name="Hcircumflex" horiz-adv-x="842" unicode="&#292;" /><glyph d="M273 594V106Q273 79 283 65Q293 51 319 41L348 30V0H36V30L65 41Q91 51 101 65Q111 79 111 106V594Q111 621 101 635Q91 649 65 659L36 670V700H348V670L319 659Q293 649 283 635Q273 621 273 594Z" glyph-name="I" horiz-adv-x="384" unicode="I" /><glyph d="M273 594V106Q273 79 283 65Q293 51 319 41L348 30V0H36V30L65 41Q91 51 101 65Q111 79 111 106V594Q111 621 101 635Q91 649 65 659L36 670V700H348V670L319 659Q293 649 283 635Q273 621 273 594ZM650 594V20Q650 -72 597.5 -123.5Q545 -175 455 -175Q431 -175 405.5 -170Q380 -165 358 -156L367 -124Q380 -125 384 -125.5Q388 -126 391 -126Q438 -126 463 -99Q488 -72 488 -20V594Q488 621 478 635Q468 649 442 659L413 670V700H715V670L693 662Q669 653 659.5 638.5Q650 624 650 594Z" glyph-name="IJ" horiz-adv-x="750" unicode="&#306;" /><glyph d="M273 594V106Q273 79 283 65Q293 51 319 41L348 30V0H36V30L65 41Q91 51 101 65Q111 79 111 106V594Q111 621 101 635Q91 649 65 659L36 670V700H348V670L319 659Q293 649 283 635Q273 621 273 594ZM216 765H167L182 918H337Z" glyph-name="Iacute" horiz-adv-x="384" unicode="&#205;" /><glyph d="M273 594V106Q273 79 283 65Q293 51 319 41L348 30V0H36V30L65 41Q91 51 101 65Q111 79 111 106V594Q111 621 101 635Q91 649 65 659L36 670V700H348V670L319 659Q293 649 283 635Q273 621 273 594ZM192 764Q125 764 88.5 800.5Q52 837 52 900V928H102V922Q102 891 124.5 875.5Q147 860 192 860Q237 860 259.5 875.5Q282 891 282 922V928H332V900Q332 837 295.5 800.5Q259 764 192 764Z" glyph-name="Ibreve" horiz-adv-x="384" unicode="&#300;" /><glyph d="M273 594V106Q273 79 283 65Q293 51 319 41L348 30V0H36V30L65 41Q91 51 101 65Q111 79 111 106V594Q111 621 101 635Q91 649 65 659L36 670V700H348V670L319 659Q293 649 283 635Q273 621 273 594ZM106 765H47L156 918H228L337 765H278L192 824Z" glyph-name="Icircumflex" horiz-adv-x="384" unicode="&#206;" /><glyph d="M273 594V106Q273 79 283 65Q293 51 319 41L348 30V0H36V30L65 41Q91 51 101 65Q111 79 111 106V594Q111 621 101 635Q91 649 65 659L36 670V700H348V670L319 659Q293 649 283 635Q273 621 273 594ZM364 849Q364 819 343 797.5Q322 776 292 776Q262 776 241 797.5Q220 819 220 849Q220 879 241 900.5Q262 922 292 922Q322 922 343 900.5Q364 879 364 849ZM174 849Q174 819 153 797.5Q132 776 102 776Q72 776 51 797.5Q30 819 30 849Q30 879 51 900.5Q72 922 102 922Q132 922 153 900.5Q174 879 174 849Z" glyph-name="Idieresis" horiz-adv-x="384" unicode="&#207;" /><glyph d="M273 594V106Q273 79 283 65Q293 51 319 41L348 30V0H36V30L65 41Q91 51 101 65Q111 79 111 106V594Q111 621 101 635Q91 649 65 659L36 670V700H348V670L319 659Q293 649 283 635Q273 621 273 594ZM271 851Q271 818 248 794.5Q225 771 192 771Q159 771 136 794.5Q113 818 113 851Q113 884 136 907.5Q159 931 192 931Q225 931 248 907.5Q271 884 271 851Z" glyph-name="Idotaccent" horiz-adv-x="384" unicode="&#304;" /><glyph d="M273 594V106Q273 79 283 65Q293 51 319 41L348 30V0H36V30L65 41Q91 51 101 65Q111 79 111 106V594Q111 621 101 635Q91 649 65 659L36 670V700H348V670L319 659Q293 649 283 635Q273 621 273 594ZM217 765H168L47 918H202Z" glyph-name="Igrave" horiz-adv-x="384" unicode="&#204;" /><glyph d="M273 594V106Q273 79 283 65Q293 51 319 41L348 30V0H36V30L65 41Q91 51 101 65Q111 79 111 106V594Q111 621 101 635Q91 649 65 659L36 670V700H348V670L319 659Q293 649 283 635Q273 621 273 594ZM335 782H50V857H335Z" glyph-name="Imacron" horiz-adv-x="384" unicode="&#298;" /><glyph d="M315 -160 305 -195Q285 -202 265.5 -206Q246 -210 229 -210Q182 -210 152.5 -186Q123 -162 123 -124Q123 -91 147.5 -58.5Q172 -26 215 0H36V30L65 41Q91 51 101 65Q111 79 111 106V594Q111 621 101 635Q91 649 65 659L36 670V700H348V670L319 659Q293 649 283 635Q273 621 273 594V106Q273 79 283 65Q293 51 319 41L348 30V0H268Q249 -29 237.5 -58Q226 -87 226 -107Q226 -132 245 -146.5Q264 -161 296 -161Q303 -161 305.5 -161Q308 -161 315 -160Z" glyph-name="Iogonek" horiz-adv-x="384" unicode="&#302;" /><glyph d="M273 594V106Q273 79 283 65Q293 51 319 41L348 30V0H36V30L65 41Q91 51 101 65Q111 79 111 106V594Q111 621 101 635Q91 649 65 659L36 670V700H348V670L319 659Q293 649 283 635Q273 621 273 594ZM116 802Q100 802 91 794.5Q82 787 75 767L38 778Q41 837 65.5 867Q90 897 134 897Q147 897 163 893Q179 889 212 877Q238 868 249.5 865Q261 862 269 862Q285 862 294 869.5Q303 877 310 897L347 886Q344 827 319.5 797Q295 767 251 767Q238 767 222 771Q206 775 173 787Q147 796 135.5 799Q124 802 116 802Z" glyph-name="Itilde" horiz-adv-x="384" unicode="&#296;" /><glyph d="M266 594V20Q266 -72 213.5 -123.5Q161 -175 71 -175Q47 -175 21.5 -170Q-4 -165 -26 -156L-17 -124Q-4 -125 0 -125.5Q4 -126 7 -126Q54 -126 79 -99Q104 -72 104 -20V594Q104 621 94 635Q84 649 58 659L29 670V700H331V670L309 662Q285 653 275.5 638.5Q266 624 266 594Z" glyph-name="J" horiz-adv-x="366" unicode="J" /><glyph d="M266 594V20Q266 -72 213.5 -123.5Q161 -175 71 -175Q47 -175 21.5 -170Q-4 -165 -26 -156L-17 -124Q-4 -125 0 -125.5Q4 -126 7 -126Q54 -126 79 -99Q104 -72 104 -20V594Q104 621 94 635Q84 649 58 659L29 670V700H331V670L309 662Q285 653 275.5 638.5Q266 624 266 594ZM100 765H41L150 918H222L331 765H272L186 824Z" glyph-name="Jcircumflex" horiz-adv-x="366" unicode="&#308;" /><glyph d="M573 565 307 313V369L487 567Q517 600 513.5 624.5Q510 649 473 659L432 670V700H732V670L711 663Q684 654 652 632Q620 610 573 565ZM273 594V106Q273 80 285 64.5Q297 49 324 41L358 30V0H36V30L65 41Q91 51 101 65Q111 79 111 106V594Q111 621 101 635Q91 649 65 659L36 670V700H348V670L319 659Q293 649 283 635Q273 621 273 594ZM475 99 349 306 461 411 600 207Q646 140 680.5 100Q715 60 742 43L763 30V0H634Q580 0 543.5 23Q507 46 475 99Z" glyph-name="K" horiz-adv-x="746" unicode="K" /><glyph d="M573 565 307 313V369L487 567Q517 600 513.5 624.5Q510 649 473 659L432 670V700H732V670L711 663Q684 654 652 632Q620 610 573 565ZM273 594V106Q273 80 285 64.5Q297 49 324 41L358 30V0H36V30L65 41Q91 51 101 65Q111 79 111 106V594Q111 621 101 635Q91 649 65 659L36 670V700H348V670L319 659Q293 649 283 635Q273 621 273 594ZM475 99 349 306 461 411 600 207Q646 140 680.5 100Q715 60 742 43L763 30V0H634Q580 0 543.5 23Q507 46 475 99ZM471 -167Q471 -219 438 -266.5Q405 -314 344 -351L318 -325Q349 -301 371.5 -271Q394 -241 406 -207Q397 -212 387 -214.5Q377 -217 366 -217Q333 -217 310.5 -194Q288 -171 288 -138Q288 -105 312.5 -80Q337 -55 373 -55Q415 -55 443 -87.5Q471 -120 471 -167Z" glyph-name="Kcommaaccent" horiz-adv-x="746" unicode="&#310;" /><glyph d="M273 594V0H36V30L65 41Q91 51 101 65Q111 79 111 106V594Q111 621 101 635Q91 649 65 659L36 670V700H358V670L324 659Q297 651 285 635.5Q273 620 273 594ZM620 226 610 0H307V39H397Q460 39 496 66Q532 93 564 175L584 226Z" glyph-name="L" horiz-adv-x="639" unicode="L" /><glyph d="M273 594V0H36V30L65 41Q91 51 101 65Q111 79 111 106V594Q111 621 101 635Q91 649 65 659L36 670V700H358V670L324 659Q297 651 285 635.5Q273 620 273 594ZM620 226 610 0H307V39H397Q460 39 496 66Q532 93 564 175L584 226ZM213 765H164L179 918H334Z" glyph-name="Lacute" horiz-adv-x="639" unicode="&#313;" /><glyph d="M592 589Q592 537 559 489.5Q526 442 465 405L439 431Q470 455 492.5 485Q515 515 527 549Q518 544 508 541.5Q498 539 487 539Q454 539 431.5 562Q409 585 409 618Q409 651 433.5 676Q458 701 494 701Q536 701 564 668.5Q592 636 592 589ZM273 594V0H36V30L65 41Q91 51 101 65Q111 79 111 106V594Q111 621 101 635Q91 649 65 659L36 670V700H358V670L324 659Q297 651 285 635.5Q273 620 273 594ZM620 226 610 0H307V39H397Q460 39 496 66Q532 93 564 175L584 226Z" glyph-name="Lcaron" horiz-adv-x="642" unicode="&#317;" /><glyph d="M273 594V0H36V30L65 41Q91 51 101 65Q111 79 111 106V594Q111 621 101 635Q91 649 65 659L36 670V700H358V670L324 659Q297 651 285 635.5Q273 620 273 594ZM620 226 610 0H307V39H397Q460 39 496 66Q532 93 564 175L584 226ZM424 -167Q424 -219 391 -266.5Q358 -314 297 -351L271 -325Q302 -301 324.5 -271Q347 -241 359 -207Q350 -212 340 -214.5Q330 -217 319 -217Q286 -217 263.5 -194Q241 -171 241 -138Q241 -105 265.5 -80Q290 -55 326 -55Q368 -55 396 -87.5Q424 -120 424 -167Z" glyph-name="Lcommaaccent" horiz-adv-x="639" unicode="&#315;" /><glyph d="M273 594V0H36V30L65 41Q91 51 101 65Q111 79 111 106V594Q111 621 101 635Q91 649 65 659L36 670V700H358V670L324 659Q297 651 285 635.5Q273 620 273 594ZM620 226 610 0H307V39H397Q460 39 496 66Q532 93 564 175L584 226ZM545 371Q545 334 519 308.5Q493 283 456 283Q419 283 393.5 308.5Q368 334 368 371Q368 408 393.5 434Q419 460 456 460Q494 460 519.5 434.5Q545 409 545 371Z" glyph-name="Ldot" horiz-adv-x="639" unicode="&#319;" /><glyph d="M275 321V0H38V30L67 41Q93 51 103 65Q113 79 113 106V265L27 235V282L113 312V594Q113 621 103 635Q93 649 67 659L38 670V700H360V670L326 659Q299 651 287 635.5Q275 620 275 594V368L487 442V395ZM622 226 612 0H309V39H399Q462 39 498 66Q534 93 566 175L586 226Z" glyph-name="Lslash" horiz-adv-x="639" unicode="&#321;" /><glyph d="M701 591 544 182 520 251 646 597Q657 626 652 641.5Q647 657 626 663L602 670V700H935V670L905 660Q881 652 869.5 635.5Q858 619 860 594L886 106Q888 77 899 61.5Q910 46 932 40L961 30V0H641V30L675 41Q699 49 709.5 63.5Q720 78 720 106L703 591ZM358 597 525 132 474 0H413L185 591H183L172 106Q171 80 183.5 64Q196 48 223 41L267 30V0H13V30L52 41Q78 48 89.5 63Q101 78 103 106L128 593Q130 618 118.5 635Q107 652 83 660L53 670V700H403V670L379 663Q358 657 353 641.5Q348 626 358 597Z" glyph-name="M" horiz-adv-x="984" unicode="M" /><glyph d="M703 -8H635L106 630Q92 645 78.5 653.5Q65 662 52 665L34 669V700H270Q297 661 324.5 623.5Q352 586 380 550L703 153ZM703 594V204L645 275L636 594Q635 622 623 637.5Q611 653 585 659L541 670V700H789V670L750 659Q725 652 714 637Q703 622 703 594ZM110 106 121 561 174 497 179 106Q179 79 191.5 63.5Q204 48 230 41L274 30V0H20V30L59 41Q85 48 97 63.5Q109 79 110 106Z" glyph-name="N" horiz-adv-x="807" unicode="N" /><glyph d="M703 -8H635L106 630Q92 645 78.5 653.5Q65 662 52 665L34 669V700H270Q297 661 324.5 623.5Q352 586 380 550L703 153ZM703 594V204L645 275L636 594Q635 622 623 637.5Q611 653 585 659L541 670V700H789V670L750 659Q725 652 714 637Q703 622 703 594ZM110 106 121 561 174 497 179 106Q179 79 191.5 63.5Q204 48 230 41L274 30V0H20V30L59 41Q85 48 97 63.5Q109 79 110 106ZM421 765H372L387 918H542Z" glyph-name="Nacute" horiz-adv-x="807" unicode="&#323;" /><glyph d="M703 -8H635L106 630Q92 645 78.5 653.5Q65 662 52 665L34 669V700H270Q297 661 324.5 623.5Q352 586 380 550L703 153ZM703 594V204L645 275L636 594Q635 622 623 637.5Q611 653 585 659L541 670V700H789V670L750 659Q725 652 714 637Q703 622 703 594ZM110 106 121 561 174 497 179 106Q179 79 191.5 63.5Q204 48 230 41L274 30V0H20V30L59 41Q85 48 97 63.5Q109 79 110 106ZM361 765 252 918H311L397 859L483 918H542L433 765Z" glyph-name="Ncaron" horiz-adv-x="807" unicode="&#327;" /><glyph d="M703 -8H635L106 630Q92 645 78.5 653.5Q65 662 52 665L34 669V700H270Q297 661 324.5 623.5Q352 586 380 550L703 153ZM703 594V204L645 275L636 594Q635 622 623 637.5Q611 653 585 659L541 670V700H789V670L750 659Q725 652 714 637Q703 622 703 594ZM110 106 121 561 174 497 179 106Q179 79 191.5 63.5Q204 48 230 41L274 30V0H20V30L59 41Q85 48 97 63.5Q109 79 110 106ZM487 -167Q487 -219 454 -266.5Q421 -314 360 -351L334 -325Q365 -301 387.5 -271Q410 -241 422 -207Q413 -212 403 -214.5Q393 -217 382 -217Q349 -217 326.5 -194Q304 -171 304 -138Q304 -105 328.5 -80Q353 -55 389 -55Q431 -55 459 -87.5Q487 -120 487 -167Z" glyph-name="Ncommaaccent" horiz-adv-x="807" unicode="&#325;" /><glyph d="M703 -8H635L106 630Q92 645 78.5 653.5Q65 662 52 665L34 669V700H270Q297 661 324.5 623.5Q352 586 380 550L703 153ZM703 594V204L645 275L636 594Q635 622 623 637.5Q611 653 585 659L541 670V700H789V670L750 659Q725 652 714 637Q703 622 703 594ZM110 106 121 561 174 497 179 106Q179 79 191.5 63.5Q204 48 230 41L274 30V0H20V30L59 41Q85 48 97 63.5Q109 79 110 106ZM321 802Q305 802 296 794.5Q287 787 280 767L243 778Q246 837 270.5 867Q295 897 339 897Q352 897 368 893Q384 889 417 877Q443 868 454.5 865Q466 862 474 862Q490 862 499 869.5Q508 877 515 897L552 886Q549 827 524.5 797Q500 767 456 767Q443 767 427 771Q411 775 378 787Q352 796 340.5 799Q329 802 321 802Z" glyph-name="Ntilde" horiz-adv-x="807" unicode="&#209;" /><glyph d="M559 349Q559 502 520 583.5Q481 665 405 673V715Q549 708 646 603Q743 498 743 349Q743 200 646 95Q549 -10 405 -17V25Q481 33 520 114.5Q559 196 559 349ZM33 349Q33 498 130 603Q227 708 371 715V673Q295 665 256 583.5Q217 502 217 349Q217 196 256 114.5Q295 33 371 25V-17Q227 -10 130 95Q33 200 33 349Z" glyph-name="O" horiz-adv-x="776" unicode="O" /><glyph d="M839 659 712 662V700H775Q837 700 895.5 702Q954 704 1008 708L1005 524H971L957 553Q926 617 902.5 637.5Q879 658 839 659ZM482 36V0H429Q259 0 148.5 96.5Q38 193 38 350V358Q41 512 151 606Q261 700 429 700H482V662H448Q326 662 267 585Q208 508 208 350V345Q209 196 280 116.5Q351 37 478 36ZM678 700V386L769 389Q793 390 806 402.5Q819 415 831 453L845 498H878V234H845L831 279Q820 314 807.5 326.5Q795 339 769 343L678 346V0H516V700ZM1025 0H712V39H812Q875 39 911 66Q947 93 979 175L999 226H1035Z" glyph-name="OE" horiz-adv-x="1074" unicode="&#338;" /><glyph d="M559 349Q559 502 520 583.5Q481 665 405 673V715Q549 708 646 603Q743 498 743 349Q743 200 646 95Q549 -10 405 -17V25Q481 33 520 114.5Q559 196 559 349ZM33 349Q33 498 130 603Q227 708 371 715V673Q295 665 256 583.5Q217 502 217 349Q217 196 256 114.5Q295 33 371 25V-17Q227 -10 130 95Q33 200 33 349ZM412 765H363L378 918H533Z" glyph-name="Oacute" horiz-adv-x="776" unicode="&#211;" /><glyph d="M559 349Q559 502 520 583.5Q481 665 405 673V715Q549 708 646 603Q743 498 743 349Q743 200 646 95Q549 -10 405 -17V25Q481 33 520 114.5Q559 196 559 349ZM33 349Q33 498 130 603Q227 708 371 715V673Q295 665 256 583.5Q217 502 217 349Q217 196 256 114.5Q295 33 371 25V-17Q227 -10 130 95Q33 200 33 349ZM388 764Q321 764 284.5 800.5Q248 837 248 900V928H298V922Q298 891 320.5 875.5Q343 860 388 860Q433 860 455.5 875.5Q478 891 478 922V928H528V900Q528 837 491.5 800.5Q455 764 388 764Z" glyph-name="Obreve" horiz-adv-x="776" unicode="&#334;" /><glyph d="M559 349Q559 502 520 583.5Q481 665 405 673V715Q549 708 646 603Q743 498 743 349Q743 200 646 95Q549 -10 405 -17V25Q481 33 520 114.5Q559 196 559 349ZM33 349Q33 498 130 603Q227 708 371 715V673Q295 665 256 583.5Q217 502 217 349Q217 196 256 114.5Q295 33 371 25V-17Q227 -10 130 95Q33 200 33 349ZM302 765H243L352 918H424L533 765H474L388 824Z" glyph-name="Ocircumflex" horiz-adv-x="776" unicode="&#212;" /><glyph d="M559 349Q559 502 520 583.5Q481 665 405 673V715Q549 708 646 603Q743 498 743 349Q743 200 646 95Q549 -10 405 -17V25Q481 33 520 114.5Q559 196 559 349ZM33 349Q33 498 130 603Q227 708 371 715V673Q295 665 256 583.5Q217 502 217 349Q217 196 256 114.5Q295 33 371 25V-17Q227 -10 130 95Q33 200 33 349ZM560 849Q560 819 539 797.5Q518 776 488 776Q458 776 437 797.5Q416 819 416 849Q416 879 437 900.5Q458 922 488 922Q518 922 539 900.5Q560 879 560 849ZM370 849Q370 819 349 797.5Q328 776 298 776Q268 776 247 797.5Q226 819 226 849Q226 879 247 900.5Q268 922 298 922Q328 922 349 900.5Q370 879 370 849Z" glyph-name="Odieresis" horiz-adv-x="776" unicode="&#214;" /><glyph d="M559 349Q559 502 520 583.5Q481 665 405 673V715Q549 708 646 603Q743 498 743 349Q743 200 646 95Q549 -10 405 -17V25Q481 33 520 114.5Q559 196 559 349ZM33 349Q33 498 130 603Q227 708 371 715V673Q295 665 256 583.5Q217 502 217 349Q217 196 256 114.5Q295 33 371 25V-17Q227 -10 130 95Q33 200 33 349ZM413 765H364L243 918H398Z" glyph-name="Ograve" horiz-adv-x="776" unicode="&#210;" /><glyph d="M559 349Q559 502 520 583.5Q481 665 405 673V715Q549 708 646 603Q743 498 743 349Q743 200 646 95Q549 -10 405 -17V25Q481 33 520 114.5Q559 196 559 349ZM33 349Q33 498 130 603Q227 708 371 715V673Q295 665 256 583.5Q217 502 217 349Q217 196 256 114.5Q295 33 371 25V-17Q227 -10 130 95Q33 200 33 349ZM504 765H455L470 918H625ZM314 765H265L280 918H435Z" glyph-name="Ohungarumlaut" horiz-adv-x="776" unicode="&#336;" /><glyph d="M559 349Q559 502 520 583.5Q481 665 405 673V715Q549 708 646 603Q743 498 743 349Q743 200 646 95Q549 -10 405 -17V25Q481 33 520 114.5Q559 196 559 349ZM33 349Q33 498 130 603Q227 708 371 715V673Q295 665 256 583.5Q217 502 217 349Q217 196 256 114.5Q295 33 371 25V-17Q227 -10 130 95Q33 200 33 349ZM531 782H246V857H531Z" glyph-name="Omacron" horiz-adv-x="776" unicode="&#332;" /><glyph d="M303 351Q303 296 265.5 257.5Q228 219 174 219Q120 219 82.5 257.5Q45 296 45 351Q45 406 82.5 444.5Q120 483 174 483Q228 483 265.5 444.5Q303 406 303 351Z" glyph-name="Omega" horiz-adv-x="348" unicode="&#8486;" /><glyph d="M371 25V-17Q321 -15 273.5 1Q226 17 185 46L118 -42L82 -13L149 75Q94 127 63.5 198Q33 269 33 349Q33 498 130 603Q227 708 371 715V673Q295 665 256 583.5Q217 502 217 349Q217 301 220.5 260Q224 219 232 185L526 570Q506 617 475.5 643Q445 669 405 673V715Q455 713 501.5 697Q548 681 589 653L658 743L694 714L625 624Q682 572 712.5 500.5Q743 429 743 349Q743 200 646 95Q549 -10 405 -17V25Q481 33 520 114.5Q559 196 559 349Q559 400 555 441Q551 482 543 516L249 130Q268 81 299 55Q330 29 371 25Z" glyph-name="Oslash" horiz-adv-x="776" unicode="&#216;" /><glyph d="M559 349Q559 502 520 583.5Q481 665 405 673V715Q549 708 646 603Q743 498 743 349Q743 200 646 95Q549 -10 405 -17V25Q481 33 520 114.5Q559 196 559 349ZM33 349Q33 498 130 603Q227 708 371 715V673Q295 665 256 583.5Q217 502 217 349Q217 196 256 114.5Q295 33 371 25V-17Q227 -10 130 95Q33 200 33 349ZM312 802Q296 802 287 794.5Q278 787 271 767L234 778Q237 837 261.5 867Q286 897 330 897Q343 897 359 893Q375 889 408 877Q434 868 445.5 865Q457 862 465 862Q481 862 490 869.5Q499 877 506 897L543 886Q540 827 515.5 797Q491 767 447 767Q434 767 418 771Q402 775 369 787Q343 796 331.5 799Q320 802 312 802Z" glyph-name="Otilde" horiz-adv-x="776" unicode="&#213;" /><glyph d="M622 496Q622 402 548.5 347Q475 292 348 292H307V328H311Q378 328 415.5 373Q453 418 453 496Q453 574 415.5 619Q378 664 311 664H307V700H348Q475 700 548.5 645Q622 590 622 496ZM36 670V700H273V106Q273 80 285 64.5Q297 49 324 41L358 30V0H36V30L65 41Q91 51 101 65Q111 79 111 106V594Q111 621 101 635Q91 649 65 659Z" glyph-name="P" horiz-adv-x="640" unicode="P" /><glyph d="M680 -177Q633 -177 584 -154Q535 -131 483 -86L404 -17V25Q480 33 519 114.5Q558 196 558 349Q558 502 519 583.5Q480 665 404 673V715Q548 708 645 603Q742 498 742 349Q742 245 692 158.5Q642 72 556 25L673 -51Q716 -78 752 -91.5Q788 -105 817 -105Q825 -105 836 -103.5Q847 -102 860 -100V-136Q831 -152 779 -164.5Q727 -177 680 -177ZM32 349Q32 498 129 603Q226 708 370 715V673Q294 665 255 583.5Q216 502 216 349Q216 196 255 114.5Q294 33 370 25V-17Q226 -10 129 95Q32 200 32 349Z" glyph-name="Q" horiz-adv-x="776" unicode="Q" /><glyph d="M273 106Q273 80 285 64.5Q297 49 324 41L358 30V0H36V30L65 41Q91 51 101 65Q111 79 111 106V594Q111 621 101 635Q91 649 65 659L36 670V700H273ZM639 517Q639 431 563.5 379.5Q488 328 364 328H300V364H312Q387 363 428.5 403Q470 443 470 514Q470 586 431 625Q392 664 319 664H307V700H374Q496 700 567.5 651Q639 602 639 517ZM446 102 334 296Q383 293 430 298.5Q477 304 500 314L577 198Q619 135 650 97.5Q681 60 711 40L726 30V0H605Q552 0 514.5 24Q477 48 446 102Z" glyph-name="R" horiz-adv-x="711" unicode="R" /><glyph d="M273 106Q273 80 285 64.5Q297 49 324 41L358 30V0H36V30L65 41Q91 51 101 65Q111 79 111 106V594Q111 621 101 635Q91 649 65 659L36 670V700H273ZM639 517Q639 431 563.5 379.5Q488 328 364 328H300V364H312Q387 363 428.5 403Q470 443 470 514Q470 586 431 625Q392 664 319 664H307V700H374Q496 700 567.5 651Q639 602 639 517ZM446 102 334 296Q383 293 430 298.5Q477 304 500 314L577 198Q619 135 650 97.5Q681 60 711 40L726 30V0H605Q552 0 514.5 24Q477 48 446 102ZM366 765H317L332 918H487Z" glyph-name="Racute" horiz-adv-x="711" unicode="&#340;" /><glyph d="M273 106Q273 80 285 64.5Q297 49 324 41L358 30V0H36V30L65 41Q91 51 101 65Q111 79 111 106V594Q111 621 101 635Q91 649 65 659L36 670V700H273ZM639 517Q639 431 563.5 379.5Q488 328 364 328H300V364H312Q387 363 428.5 403Q470 443 470 514Q470 586 431 625Q392 664 319 664H307V700H374Q496 700 567.5 651Q639 602 639 517ZM446 102 334 296Q383 293 430 298.5Q477 304 500 314L577 198Q619 135 650 97.5Q681 60 711 40L726 30V0H605Q552 0 514.5 24Q477 48 446 102ZM306 765 197 918H256L342 859L428 918H487L378 765Z" glyph-name="Rcaron" horiz-adv-x="711" unicode="&#344;" /><glyph d="M273 106Q273 80 285 64.5Q297 49 324 41L358 30V0H36V30L65 41Q91 51 101 65Q111 79 111 106V594Q111 621 101 635Q91 649 65 659L36 670V700H273ZM639 517Q639 431 563.5 379.5Q488 328 364 328H300V364H312Q387 363 428.5 403Q470 443 470 514Q470 586 431 625Q392 664 319 664H307V700H374Q496 700 567.5 651Q639 602 639 517ZM446 102 334 296Q383 293 430 298.5Q477 304 500 314L577 198Q619 135 650 97.5Q681 60 711 40L726 30V0H605Q552 0 514.5 24Q477 48 446 102ZM476 -167Q476 -219 443 -266.5Q410 -314 349 -351L323 -325Q354 -301 376.5 -271Q399 -241 411 -207Q402 -212 392 -214.5Q382 -217 371 -217Q338 -217 315.5 -194Q293 -171 293 -138Q293 -105 317.5 -80Q342 -55 378 -55Q420 -55 448 -87.5Q476 -120 476 -167Z" glyph-name="Rcommaaccent" horiz-adv-x="711" unicode="&#342;" /><glyph d="M554 211Q554 117 485.5 55Q417 -7 307 -14V28Q352 34 380.5 64.5Q409 95 409 134Q409 167 394.5 191.5Q380 216 347 237Q334 245 316.5 254Q299 263 233 293Q133 338 91.5 389.5Q50 441 50 510Q50 597 121 656Q192 715 306 715V673Q261 668 232 638.5Q203 609 203 570Q203 530 230.5 500.5Q258 471 338 435Q405 405 434 388.5Q463 372 484 355Q520 326 537 290.5Q554 255 554 211ZM340 673V714Q382 712 434 706Q486 700 517 694L508 529H467Q451 596 419.5 632Q388 668 340 673ZM273 27V-15Q213 -14 154.5 -2Q96 10 52 30L56 230H98Q117 135 161.5 83Q206 31 273 27Z" glyph-name="S" horiz-adv-x="587" unicode="S" /><glyph d="M554 211Q554 117 485.5 55Q417 -7 307 -14V28Q352 34 380.5 64.5Q409 95 409 134Q409 167 394.5 191.5Q380 216 347 237Q334 245 316.5 254Q299 263 233 293Q133 338 91.5 389.5Q50 441 50 510Q50 597 121 656Q192 715 306 715V673Q261 668 232 638.5Q203 609 203 570Q203 530 230.5 500.5Q258 471 338 435Q405 405 434 388.5Q463 372 484 355Q520 326 537 290.5Q554 255 554 211ZM340 673V714Q382 712 434 706Q486 700 517 694L508 529H467Q451 596 419.5 632Q388 668 340 673ZM273 27V-15Q213 -14 154.5 -2Q96 10 52 30L56 230H98Q117 135 161.5 83Q206 31 273 27ZM322 765H273L288 918H443Z" glyph-name="Sacute" horiz-adv-x="587" unicode="&#346;" /><glyph d="M554 211Q554 117 485.5 55Q417 -7 307 -14V28Q352 34 380.5 64.5Q409 95 409 134Q409 167 394.5 191.5Q380 216 347 237Q334 245 316.5 254Q299 263 233 293Q133 338 91.5 389.5Q50 441 50 510Q50 597 121 656Q192 715 306 715V673Q261 668 232 638.5Q203 609 203 570Q203 530 230.5 500.5Q258 471 338 435Q405 405 434 388.5Q463 372 484 355Q520 326 537 290.5Q554 255 554 211ZM340 673V714Q382 712 434 706Q486 700 517 694L508 529H467Q451 596 419.5 632Q388 668 340 673ZM273 27V-15Q213 -14 154.5 -2Q96 10 52 30L56 230H98Q117 135 161.5 83Q206 31 273 27ZM262 765 153 918H212L298 859L384 918H443L334 765Z" glyph-name="Scaron" horiz-adv-x="587" unicode="&#352;" /><glyph d="M340 673V714Q382 712 434 706Q486 700 517 694L508 529H467Q451 596 419.5 632Q388 668 340 673ZM273 27V-15Q213 -14 154.5 -2Q96 10 52 30L56 230H98Q117 135 161.5 83Q206 31 273 27ZM429 -147Q429 -188 393 -215.5Q357 -243 298 -243Q265 -243 232.5 -232.5Q200 -222 182 -207L199 -175Q214 -181 228 -183.5Q242 -186 255 -186Q286 -186 303 -174Q320 -162 320 -141Q320 -120 294.5 -104Q269 -88 231 -87L229 -79L307 28Q352 34 380.5 64.5Q409 95 409 134Q409 167 394.5 191.5Q380 216 347 237Q334 245 316.5 254Q299 263 233 293Q133 338 91.5 389.5Q50 441 50 510Q50 597 121 656Q192 715 306 715V673Q261 668 232 638.5Q203 609 203 570Q203 530 230.5 500.5Q258 471 338 435Q405 405 434 388.5Q463 372 484 355Q520 326 537 290.5Q554 255 554 211Q554 121 490.5 59.5Q427 -2 323 -13L326 -53Q370 -60 399.5 -85.5Q429 -111 429 -147Z" glyph-name="Scedilla" horiz-adv-x="587" unicode="&#350;" /><glyph d="M554 211Q554 117 485.5 55Q417 -7 307 -14V28Q352 34 380.5 64.5Q409 95 409 134Q409 167 394.5 191.5Q380 216 347 237Q334 245 316.5 254Q299 263 233 293Q133 338 91.5 389.5Q50 441 50 510Q50 597 121 656Q192 715 306 715V673Q261 668 232 638.5Q203 609 203 570Q203 530 230.5 500.5Q258 471 338 435Q405 405 434 388.5Q463 372 484 355Q520 326 537 290.5Q554 255 554 211ZM340 673V714Q382 712 434 706Q486 700 517 694L508 529H467Q451 596 419.5 632Q388 668 340 673ZM273 27V-15Q213 -14 154.5 -2Q96 10 52 30L56 230H98Q117 135 161.5 83Q206 31 273 27ZM212 765H153L262 918H334L443 765H384L298 824Z" glyph-name="Scircumflex" horiz-adv-x="587" unicode="&#348;" /><glyph d="M554 211Q554 117 485.5 55Q417 -7 307 -14V28Q352 34 380.5 64.5Q409 95 409 134Q409 167 394.5 191.5Q380 216 347 237Q334 245 316.5 254Q299 263 233 293Q133 338 91.5 389.5Q50 441 50 510Q50 597 121 656Q192 715 306 715V673Q261 668 232 638.5Q203 609 203 570Q203 530 230.5 500.5Q258 471 338 435Q405 405 434 388.5Q463 372 484 355Q520 326 537 290.5Q554 255 554 211ZM340 673V714Q382 712 434 706Q486 700 517 694L508 529H467Q451 596 419.5 632Q388 668 340 673ZM273 27V-15Q213 -14 154.5 -2Q96 10 52 30L56 230H98Q117 135 161.5 83Q206 31 273 27ZM404 -168Q404 -220 371 -267.5Q338 -315 277 -352L251 -326Q282 -302 304.5 -272Q327 -242 339 -208Q330 -213 320 -215.5Q310 -218 299 -218Q266 -218 243.5 -195Q221 -172 221 -139Q221 -106 245.5 -81Q270 -56 306 -56Q348 -56 376 -88.5Q404 -121 404 -168Z" glyph-name="Scommaaccent" horiz-adv-x="587" unicode="&#536;" /><glyph d="M472 662H457V700H665V504H631L615 542Q588 607 555.5 634.5Q523 662 472 662ZM69 542 53 504H19V700H227V662H212Q161 662 128.5 634.5Q96 607 69 542ZM261 106V700H423V106Q423 80 435 64.5Q447 49 474 41L508 30V0H176V30L210 41Q237 49 249 64.5Q261 80 261 106Z" glyph-name="T" horiz-adv-x="684" unicode="T" /><glyph d="M472 662H457V700H665V504H631L615 542Q588 607 555.5 634.5Q523 662 472 662ZM69 542 53 504H19V700H227V662H212Q161 662 128.5 634.5Q96 607 69 542ZM474 41 508 30V0H176V30L210 41Q237 49 249 64.5Q261 80 261 106V335H158V389H261V700H423V389H526V335H423V106Q423 80 435 64.5Q447 49 474 41Z" glyph-name="Tbar" horiz-adv-x="684" unicode="&#358;" /><glyph d="M472 662H457V700H665V504H631L615 542Q588 607 555.5 634.5Q523 662 472 662ZM69 542 53 504H19V700H227V662H212Q161 662 128.5 634.5Q96 607 69 542ZM261 106V700H423V106Q423 80 435 64.5Q447 49 474 41L508 30V0H176V30L210 41Q237 49 249 64.5Q261 80 261 106ZM306 765 197 918H256L342 859L428 918H487L378 765Z" glyph-name="Tcaron" horiz-adv-x="684" unicode="&#356;" /><glyph d="M69 542 53 504H19V700H227V662H212Q161 662 128.5 634.5Q96 607 69 542ZM472 662H457V700H665V504H631L615 542Q588 607 555.5 634.5Q523 662 472 662ZM437 -147Q437 -188 401 -215.5Q365 -243 306 -243Q273 -243 240.5 -232.5Q208 -222 190 -207L207 -175Q222 -181 236 -183.5Q250 -186 263 -186Q294 -186 311 -174Q328 -162 328 -141Q328 -120 302.5 -104Q277 -88 239 -87L237 -79L309 0H176V30L210 41Q237 49 249 64.5Q261 80 261 106V700H423V106Q423 80 435 64.5Q447 49 474 41L508 30V0H356L324 -52Q369 -56 403 -82Q437 -108 437 -147Z" glyph-name="Tcedilla" horiz-adv-x="684" /><glyph d="M472 662H457V700H665V504H631L615 542Q588 607 555.5 634.5Q523 662 472 662ZM69 542 53 504H19V700H227V662H212Q161 662 128.5 634.5Q96 607 69 542ZM261 106V700H423V106Q423 80 435 64.5Q447 49 474 41L508 30V0H176V30L210 41Q237 49 249 64.5Q261 80 261 106ZM440 -168Q440 -220 407 -267.5Q374 -315 313 -352L287 -326Q318 -302 340.5 -272Q363 -242 375 -208Q366 -213 356 -215.5Q346 -218 335 -218Q302 -218 279.5 -195Q257 -172 257 -139Q257 -106 281.5 -81Q306 -56 342 -56Q384 -56 412 -88.5Q440 -121 440 -168Z" glyph-name="Tcommaaccent" horiz-adv-x="684" unicode="&#354;" /><glyph d="M358 0H36V30L65 41Q91 51 101 65Q111 79 111 106V594Q111 621 101 635Q91 649 65 659L36 670V700H358V670L324 659Q297 651 285 635.5Q273 620 273 594V106Q273 80 285 64.5Q297 49 324 41L358 30ZM622 346Q622 252 548.5 197Q475 142 348 142H307V178H311Q378 178 415.5 223Q453 268 453 346Q453 424 415.5 469Q378 514 311 514H307V550H348Q475 550 548.5 495Q622 440 622 346Z" glyph-name="Thorn" horiz-adv-x="639" unicode="&#222;" /><glyph d="M384 68Q415 68 447 77Q479 86 495 99V52Q461 21 414.5 3Q368 -15 322 -15Q212 -15 154.5 45Q97 105 97 218V594Q97 621 87 635Q77 649 51 659L22 670V700H334V670L305 659Q279 649 269 635Q259 621 259 594V211Q259 142 292 105Q325 68 384 68ZM766 0H529V594Q529 621 519 635Q509 649 483 659L454 670V700H766V670L737 659Q711 649 701 635Q691 621 691 594V106Q691 79 701 65Q711 51 737 41L766 30Z" glyph-name="U" horiz-adv-x="802" unicode="U" /><glyph d="M417 49V-14Q270 -27 182.5 45Q95 117 95 249V594Q95 621 85 635Q75 649 49 659L20 670V700H332V670L303 659Q277 649 267 635Q257 621 257 594V238Q257 152 298.5 103Q340 54 417 49ZM451 -10V50Q524 56 568 104Q612 152 612 226V594Q612 621 602 635Q592 649 566 659L537 670V700H747V670L718 659Q692 649 682 635Q672 621 672 594V240Q672 137 614.5 71Q557 5 451 -10Z" glyph-name="U.alt" horiz-adv-x="766" /><glyph d="M384 68Q415 68 447 77Q479 86 495 99V52Q461 21 414.5 3Q368 -15 322 -15Q212 -15 154.5 45Q97 105 97 218V594Q97 621 87 635Q77 649 51 659L22 670V700H334V670L305 659Q279 649 269 635Q259 621 259 594V211Q259 142 292 105Q325 68 384 68ZM766 0H529V594Q529 621 519 635Q509 649 483 659L454 670V700H766V670L737 659Q711 649 701 635Q691 621 691 594V106Q691 79 701 65Q711 51 737 41L766 30ZM418 765H369L384 918H539Z" glyph-name="Uacute" horiz-adv-x="802" unicode="&#218;" /><glyph d="M427 765H378L393 918H548ZM417 49V-14Q270 -27 182.5 45Q95 117 95 249V594Q95 621 85 635Q75 649 49 659L20 670V700H332V670L303 659Q277 649 267 635Q257 621 257 594V238Q257 152 298.5 103Q340 54 417 49ZM451 -10V50Q524 56 568 104Q612 152 612 226V594Q612 621 602 635Q592 649 566 659L537 670V700H747V670L718 659Q692 649 682 635Q672 621 672 594V240Q672 137 614.5 71Q557 5 451 -10Z" glyph-name="Uacute.alt" horiz-adv-x="766" /><glyph d="M384 68Q415 68 447 77Q479 86 495 99V52Q461 21 414.5 3Q368 -15 322 -15Q212 -15 154.5 45Q97 105 97 218V594Q97 621 87 635Q77 649 51 659L22 670V700H334V670L305 659Q279 649 269 635Q259 621 259 594V211Q259 142 292 105Q325 68 384 68ZM766 0H529V594Q529 621 519 635Q509 649 483 659L454 670V700H766V670L737 659Q711 649 701 635Q691 621 691 594V106Q691 79 701 65Q711 51 737 41L766 30ZM394 764Q327 764 290.5 800.5Q254 837 254 900V928H304V922Q304 891 326.5 875.5Q349 860 394 860Q439 860 461.5 875.5Q484 891 484 922V928H534V900Q534 837 497.5 800.5Q461 764 394 764Z" glyph-name="Ubreve" horiz-adv-x="802" unicode="&#364;" /><glyph d="M403 764Q336 764 299.5 800.5Q263 837 263 900V928H313V922Q313 891 335.5 875.5Q358 860 403 860Q448 860 470.5 875.5Q493 891 493 922V928H543V900Q543 837 506.5 800.5Q470 764 403 764ZM417 49V-14Q270 -27 182.5 45Q95 117 95 249V594Q95 621 85 635Q75 649 49 659L20 670V700H332V670L303 659Q277 649 267 635Q257 621 257 594V238Q257 152 298.5 103Q340 54 417 49ZM451 -10V50Q524 56 568 104Q612 152 612 226V594Q612 621 602 635Q592 649 566 659L537 670V700H747V670L718 659Q692 649 682 635Q672 621 672 594V240Q672 137 614.5 71Q557 5 451 -10Z" glyph-name="Ubreve.alt" horiz-adv-x="766" /><glyph d="M384 68Q415 68 447 77Q479 86 495 99V52Q461 21 414.5 3Q368 -15 322 -15Q212 -15 154.5 45Q97 105 97 218V594Q97 621 87 635Q77 649 51 659L22 670V700H334V670L305 659Q279 649 269 635Q259 621 259 594V211Q259 142 292 105Q325 68 384 68ZM766 0H529V594Q529 621 519 635Q509 649 483 659L454 670V700H766V670L737 659Q711 649 701 635Q691 621 691 594V106Q691 79 701 65Q711 51 737 41L766 30ZM308 765H249L358 918H430L539 765H480L394 824Z" glyph-name="Ucircumflex" horiz-adv-x="802" unicode="&#219;" /><glyph d="M317 765H258L367 918H439L548 765H489L403 824ZM417 49V-14Q270 -27 182.5 45Q95 117 95 249V594Q95 621 85 635Q75 649 49 659L20 670V700H332V670L303 659Q277 649 267 635Q257 621 257 594V238Q257 152 298.5 103Q340 54 417 49ZM451 -10V50Q524 56 568 104Q612 152 612 226V594Q612 621 602 635Q592 649 566 659L537 670V700H747V670L718 659Q692 649 682 635Q672 621 672 594V240Q672 137 614.5 71Q557 5 451 -10Z" glyph-name="Ucircumflex.alt" horiz-adv-x="766" /><glyph d="M384 68Q415 68 447 77Q479 86 495 99V52Q461 21 414.5 3Q368 -15 322 -15Q212 -15 154.5 45Q97 105 97 218V594Q97 621 87 635Q77 649 51 659L22 670V700H334V670L305 659Q279 649 269 635Q259 621 259 594V211Q259 142 292 105Q325 68 384 68ZM766 0H529V594Q529 621 519 635Q509 649 483 659L454 670V700H766V670L737 659Q711 649 701 635Q691 621 691 594V106Q691 79 701 65Q711 51 737 41L766 30ZM566 849Q566 819 545 797.5Q524 776 494 776Q464 776 443 797.5Q422 819 422 849Q422 879 443 900.5Q464 922 494 922Q524 922 545 900.5Q566 879 566 849ZM376 849Q376 819 355 797.5Q334 776 304 776Q274 776 253 797.5Q232 819 232 849Q232 879 253 900.5Q274 922 304 922Q334 922 355 900.5Q376 879 376 849Z" glyph-name="Udieresis" horiz-adv-x="802" unicode="&#220;" /><glyph d="M575 849Q575 819 554 797.5Q533 776 503 776Q473 776 452 797.5Q431 819 431 849Q431 879 452 900.5Q473 922 503 922Q533 922 554 900.5Q575 879 575 849ZM385 849Q385 819 364 797.5Q343 776 313 776Q283 776 262 797.5Q241 819 241 849Q241 879 262 900.5Q283 922 313 922Q343 922 364 900.5Q385 879 385 849ZM417 49V-14Q270 -27 182.5 45Q95 117 95 249V594Q95 621 85 635Q75 649 49 659L20 670V700H332V670L303 659Q277 649 267 635Q257 621 257 594V238Q257 152 298.5 103Q340 54 417 49ZM451 -10V50Q524 56 568 104Q612 152 612 226V594Q612 621 602 635Q592 649 566 659L537 670V700H747V670L718 659Q692 649 682 635Q672 621 672 594V240Q672 137 614.5 71Q557 5 451 -10Z" glyph-name="Udieresis.alt" horiz-adv-x="766" /><glyph d="M384 68Q415 68 447 77Q479 86 495 99V52Q461 21 414.5 3Q368 -15 322 -15Q212 -15 154.5 45Q97 105 97 218V594Q97 621 87 635Q77 649 51 659L22 670V700H334V670L305 659Q279 649 269 635Q259 621 259 594V211Q259 142 292 105Q325 68 384 68ZM766 0H529V594Q529 621 519 635Q509 649 483 659L454 670V700H766V670L737 659Q711 649 701 635Q691 621 691 594V106Q691 79 701 65Q711 51 737 41L766 30ZM419 765H370L249 918H404Z" glyph-name="Ugrave" horiz-adv-x="802" unicode="&#217;" /><glyph d="M417 49V-14Q270 -27 182.5 45Q95 117 95 249V594Q95 621 85 635Q75 649 49 659L20 670V700H332V670L303 659Q277 649 267 635Q257 621 257 594V238Q257 152 298.5 103Q340 54 417 49ZM451 -10V50Q524 56 568 104Q612 152 612 226V594Q612 621 602 635Q592 649 566 659L537 670V700H747V670L718 659Q692 649 682 635Q672 621 672 594V240Q672 137 614.5 71Q557 5 451 -10ZM451 765H402L281 918H436Z" glyph-name="Ugrave.alt" horiz-adv-x="766" /><glyph d="M384 68Q415 68 447 77Q479 86 495 99V52Q461 21 414.5 3Q368 -15 322 -15Q212 -15 154.5 45Q97 105 97 218V594Q97 621 87 635Q77 649 51 659L22 670V700H334V670L305 659Q279 649 269 635Q259 621 259 594V211Q259 142 292 105Q325 68 384 68ZM766 0H529V594Q529 621 519 635Q509 649 483 659L454 670V700H766V670L737 659Q711 649 701 635Q691 621 691 594V106Q691 79 701 65Q711 51 737 41L766 30ZM510 765H461L476 918H631ZM320 765H271L286 918H441Z" glyph-name="Uhungarumlaut" horiz-adv-x="802" unicode="&#368;" /><glyph d="M519 765H470L485 918H640ZM329 765H280L295 918H450ZM417 49V-14Q270 -27 182.5 45Q95 117 95 249V594Q95 621 85 635Q75 649 49 659L20 670V700H332V670L303 659Q277 649 267 635Q257 621 257 594V238Q257 152 298.5 103Q340 54 417 49ZM451 -10V50Q524 56 568 104Q612 152 612 226V594Q612 621 602 635Q592 649 566 659L537 670V700H747V670L718 659Q692 649 682 635Q672 621 672 594V240Q672 137 614.5 71Q557 5 451 -10Z" glyph-name="Uhungarumlaut.alt" horiz-adv-x="766" /><glyph d="M384 68Q415 68 447 77Q479 86 495 99V52Q461 21 414.5 3Q368 -15 322 -15Q212 -15 154.5 45Q97 105 97 218V594Q97 621 87 635Q77 649 51 659L22 670V700H334V670L305 659Q279 649 269 635Q259 621 259 594V211Q259 142 292 105Q325 68 384 68ZM766 0H529V594Q529 621 519 635Q509 649 483 659L454 670V700H766V670L737 659Q711 649 701 635Q691 621 691 594V106Q691 79 701 65Q711 51 737 41L766 30ZM537 782H252V857H537Z" glyph-name="Umacron" horiz-adv-x="802" unicode="&#362;" /><glyph d="M546 782H261V857H546ZM417 49V-14Q270 -27 182.5 45Q95 117 95 249V594Q95 621 85 635Q75 649 49 659L20 670V700H332V670L303 659Q277 649 267 635Q257 621 257 594V238Q257 152 298.5 103Q340 54 417 49ZM451 -10V50Q524 56 568 104Q612 152 612 226V594Q612 621 602 635Q592 649 566 659L537 670V700H747V670L718 659Q692 649 682 635Q672 621 672 594V240Q672 137 614.5 71Q557 5 451 -10Z" glyph-name="Umacron.alt" horiz-adv-x="766" /><glyph d="M384 68Q415 68 447 77Q479 86 495 99V52Q461 21 414.5 3Q368 -15 322 -15Q212 -15 154.5 45Q97 105 97 218V594Q97 621 87 635Q77 649 51 659L22 670V700H334V670L305 659Q279 649 269 635Q259 621 259 594V211Q259 142 292 105Q325 68 384 68ZM708 -160 698 -195Q678 -202 658.5 -206Q639 -210 622 -210Q575 -210 545.5 -186Q516 -162 516 -124Q516 -91 540.5 -58.5Q565 -26 608 0H529V594Q529 621 519 635Q509 649 483 659L454 670V700H766V670L737 659Q711 649 701 635Q691 621 691 594V106Q691 79 701 65Q711 51 737 41L766 30V0H661Q642 -29 630.5 -58Q619 -87 619 -107Q619 -132 638 -146.5Q657 -161 689 -161Q696 -161 698.5 -161Q701 -161 708 -160Z" glyph-name="Uogonek" horiz-adv-x="802" unicode="&#370;" /><glyph d="M417 49V-14Q270 -27 182.5 45Q95 117 95 249V594Q95 621 85 635Q75 649 49 659L20 670V700H332V670L303 659Q277 649 267 635Q257 621 257 594V238Q257 152 298.5 103Q340 54 417 49ZM480 -210Q433 -210 403.5 -186Q374 -162 374 -124Q374 -94 394.5 -64.5Q415 -35 451 -10V50Q524 56 568 104Q612 152 612 226V594Q612 621 602 635Q592 649 566 659L537 670V700H747V670L718 659Q692 649 682 635Q672 621 672 594V240Q672 158 634.5 98.5Q597 39 526 10Q505 -20 491 -52Q477 -84 477 -107Q477 -132 496 -146.5Q515 -161 547 -161Q554 -161 556.5 -161Q559 -161 566 -160L556 -195Q536 -202 516.5 -206Q497 -210 480 -210Z" glyph-name="Uogonek.alt" horiz-adv-x="767" /><glyph d="M384 68Q415 68 447 77Q479 86 495 99V52Q461 21 414.5 3Q368 -15 322 -15Q212 -15 154.5 45Q97 105 97 218V594Q97 621 87 635Q77 649 51 659L22 670V700H334V670L305 659Q279 649 269 635Q259 621 259 594V211Q259 142 292 105Q325 68 384 68ZM766 0H529V594Q529 621 519 635Q509 649 483 659L454 670V700H766V670L737 659Q711 649 701 635Q691 621 691 594V106Q691 79 701 65Q711 51 737 41L766 30ZM393 921Q371 921 354 907Q337 893 332 871H280Q286 913 318.5 940.5Q351 968 393 968Q435 968 467.5 940.5Q500 913 506 871H454Q449 893 431.5 907Q414 921 393 921ZM393 742Q350 742 318 769.5Q286 797 280 839H332Q337 817 354 803.5Q371 790 393 790Q414 790 431.5 804Q449 818 454 839H506Q500 797 468 769.5Q436 742 393 742Z" glyph-name="Uring" horiz-adv-x="802" unicode="&#366;" /><glyph d="M402 921Q380 921 363 907Q346 893 341 871H289Q295 913 327.5 940.5Q360 968 402 968Q444 968 476.5 940.5Q509 913 515 871H463Q458 893 440.5 907Q423 921 402 921ZM402 742Q359 742 327 769.5Q295 797 289 839H341Q346 817 363 803.5Q380 790 402 790Q423 790 440.5 804Q458 818 463 839H515Q509 797 477 769.5Q445 742 402 742ZM417 49V-14Q270 -27 182.5 45Q95 117 95 249V594Q95 621 85 635Q75 649 49 659L20 670V700H332V670L303 659Q277 649 267 635Q257 621 257 594V238Q257 152 298.5 103Q340 54 417 49ZM451 -10V50Q524 56 568 104Q612 152 612 226V594Q612 621 602 635Q592 649 566 659L537 670V700H747V670L718 659Q692 649 682 635Q672 621 672 594V240Q672 137 614.5 71Q557 5 451 -10Z" glyph-name="Uring.alt" horiz-adv-x="766" /><glyph d="M384 68Q415 68 447 77Q479 86 495 99V52Q461 21 414.5 3Q368 -15 322 -15Q212 -15 154.5 45Q97 105 97 218V594Q97 621 87 635Q77 649 51 659L22 670V700H334V670L305 659Q279 649 269 635Q259 621 259 594V211Q259 142 292 105Q325 68 384 68ZM766 0H529V594Q529 621 519 635Q509 649 483 659L454 670V700H766V670L737 659Q711 649 701 635Q691 621 691 594V106Q691 79 701 65Q711 51 737 41L766 30ZM318 802Q302 802 293 794.5Q284 787 277 767L240 778Q243 837 267.5 867Q292 897 336 897Q349 897 365 893Q381 889 414 877Q440 868 451.5 865Q463 862 471 862Q487 862 496 869.5Q505 877 512 897L549 886Q546 827 521.5 797Q497 767 453 767Q440 767 424 771Q408 775 375 787Q349 796 337.5 799Q326 802 318 802Z" glyph-name="Utilde" horiz-adv-x="802" unicode="&#360;" /><glyph d="M327 802Q311 802 302 794.5Q293 787 286 767L249 778Q252 837 276.5 867Q301 897 345 897Q358 897 374 893Q390 889 423 877Q449 868 460.5 865Q472 862 480 862Q496 862 505 869.5Q514 877 521 897L558 886Q555 827 530.5 797Q506 767 462 767Q449 767 433 771Q417 775 384 787Q358 796 346.5 799Q335 802 327 802ZM417 49V-14Q270 -27 182.5 45Q95 117 95 249V594Q95 621 85 635Q75 649 49 659L20 670V700H332V670L303 659Q277 649 267 635Q257 621 257 594V238Q257 152 298.5 103Q340 54 417 49ZM451 -10V50Q524 56 568 104Q612 152 612 226V594Q612 621 602 635Q592 649 566 659L537 670V700H747V670L718 659Q692 649 682 635Q672 621 672 594V240Q672 137 614.5 71Q557 5 451 -10Z" glyph-name="Utilde.alt" horiz-adv-x="766" /><glyph d="M262 595 456 0H291L102 555Q85 605 69.5 626Q54 647 20 660L-7 670V700H335V670L301 661Q270 652 261.5 637.5Q253 623 262 595ZM636 555 469 72 445 149 561 543Q579 603 570 626Q561 649 518 660L478 670V700H745V670L718 660Q684 648 668.5 626.5Q653 605 636 555Z" glyph-name="V" horiz-adv-x="738" unicode="V" /><glyph d="M409 147 504 452 530 367 416 0H287L102 556Q86 605 70.5 626Q55 647 21 660L-7 670V700H332V670L294 661Q272 656 264.5 638.5Q257 621 265 595L407 147ZM802 0H675L467 700H640L792 147H794L912 543Q930 603 921 626Q912 649 869 660L829 670V700H1096V670L1068 660Q1034 647 1018.5 626Q1003 605 987 556Z" glyph-name="W" horiz-adv-x="1089" unicode="W" /><glyph d="M409 147 504 452 530 367 416 0H287L102 556Q86 605 70.5 626Q55 647 21 660L-7 670V700H332V670L294 661Q272 656 264.5 638.5Q257 621 265 595L407 147ZM802 0H675L467 700H640L792 147H794L912 543Q930 603 921 626Q912 649 869 660L829 670V700H1096V670L1068 660Q1034 647 1018.5 626Q1003 605 987 556ZM581 765H532L547 918H702Z" glyph-name="Wacute" horiz-adv-x="1089" unicode="&#7810;" /><glyph d="M409 147 504 452 530 367 416 0H287L102 556Q86 605 70.5 626Q55 647 21 660L-7 670V700H332V670L294 661Q272 656 264.5 638.5Q257 621 265 595L407 147ZM802 0H675L467 700H640L792 147H794L912 543Q930 603 921 626Q912 649 869 660L829 670V700H1096V670L1068 660Q1034 647 1018.5 626Q1003 605 987 556ZM471 765H412L521 918H593L702 765H643L557 824Z" glyph-name="Wcircumflex" horiz-adv-x="1089" unicode="&#372;" /><glyph d="M409 147 504 452 530 367 416 0H287L102 556Q86 605 70.5 626Q55 647 21 660L-7 670V700H332V670L294 661Q272 656 264.5 638.5Q257 621 265 595L407 147ZM802 0H675L467 700H640L792 147H794L912 543Q930 603 921 626Q912 649 869 660L829 670V700H1096V670L1068 660Q1034 647 1018.5 626Q1003 605 987 556ZM729 849Q729 819 708 797.5Q687 776 657 776Q627 776 606 797.5Q585 819 585 849Q585 879 606 900.5Q627 922 657 922Q687 922 708 900.5Q729 879 729 849ZM539 849Q539 819 518 797.5Q497 776 467 776Q437 776 416 797.5Q395 819 395 849Q395 879 416 900.5Q437 922 467 922Q497 922 518 900.5Q539 879 539 849Z" glyph-name="Wdieresis" horiz-adv-x="1089" unicode="&#7812;" /><glyph d="M409 147 504 452 530 367 416 0H287L102 556Q86 605 70.5 626Q55 647 21 660L-7 670V700H332V670L294 661Q272 656 264.5 638.5Q257 621 265 595L407 147ZM802 0H675L467 700H640L792 147H794L912 543Q930 603 921 626Q912 649 869 660L829 670V700H1096V670L1068 660Q1034 647 1018.5 626Q1003 605 987 556ZM582 765H533L412 918H567Z" glyph-name="Wgrave" horiz-adv-x="1089" unicode="&#7808;" /><glyph d="M581 600 451 426 428 464 506 604Q518 626 510.5 641Q503 656 478 661L432 670V700H679V670L653 660Q632 652 617 639.5Q602 627 581 600ZM701 0H470L102 600Q88 623 73 637Q58 651 34 661L12 670V700H242L611 100Q625 77 640.5 63Q656 49 676 41L701 30ZM91 99 242 306 268 263 168 94Q155 72 160 58.5Q165 45 186 41L241 30V0H-14V30L19 39Q39 45 55 58Q71 71 91 99Z" glyph-name="X" horiz-adv-x="691" unicode="X" /><glyph d="M433 387 549 604Q562 628 556.5 639.5Q551 651 518 659L468 670V700H721V670L704 663Q682 654 664.5 638.5Q647 623 633 601L462 341ZM271 605 440 309V106Q440 80 452 64.5Q464 49 491 41L525 30V0H193V30L227 41Q254 49 266 64.5Q278 80 278 106V293L85 601Q70 625 51 641.5Q32 658 13 664L-5 670V700H335V670L299 660Q271 652 265 639Q259 626 271 605Z" glyph-name="Y" horiz-adv-x="716" unicode="Y" /><glyph d="M433 387 549 604Q562 628 556.5 639.5Q551 651 518 659L468 670V700H721V670L704 663Q682 654 664.5 638.5Q647 623 633 601L462 341ZM271 605 440 309V106Q440 80 452 64.5Q464 49 491 41L525 30V0H193V30L227 41Q254 49 266 64.5Q278 80 278 106V293L85 601Q70 625 51 641.5Q32 658 13 664L-5 670V700H335V670L299 660Q271 652 265 639Q259 626 271 605ZM395 765H346L361 918H516Z" glyph-name="Yacute" horiz-adv-x="716" unicode="&#221;" /><glyph d="M433 387 549 604Q562 628 556.5 639.5Q551 651 518 659L468 670V700H721V670L704 663Q682 654 664.5 638.5Q647 623 633 601L462 341ZM271 605 440 309V106Q440 80 452 64.5Q464 49 491 41L525 30V0H193V30L227 41Q254 49 266 64.5Q278 80 278 106V293L85 601Q70 625 51 641.5Q32 658 13 664L-5 670V700H335V670L299 660Q271 652 265 639Q259 626 271 605ZM285 765H226L335 918H407L516 765H457L371 824Z" glyph-name="Ycircumflex" horiz-adv-x="716" unicode="&#374;" /><glyph d="M433 387 549 604Q562 628 556.5 639.5Q551 651 518 659L468 670V700H721V670L704 663Q682 654 664.5 638.5Q647 623 633 601L462 341ZM271 605 440 309V106Q440 80 452 64.5Q464 49 491 41L525 30V0H193V30L227 41Q254 49 266 64.5Q278 80 278 106V293L85 601Q70 625 51 641.5Q32 658 13 664L-5 670V700H335V670L299 660Q271 652 265 639Q259 626 271 605ZM543 849Q543 819 522 797.5Q501 776 471 776Q441 776 420 797.5Q399 819 399 849Q399 879 420 900.5Q441 922 471 922Q501 922 522 900.5Q543 879 543 849ZM353 849Q353 819 332 797.5Q311 776 281 776Q251 776 230 797.5Q209 819 209 849Q209 879 230 900.5Q251 922 281 922Q311 922 332 900.5Q353 879 353 849Z" glyph-name="Ydieresis" horiz-adv-x="716" unicode="&#376;" /><glyph d="M433 387 549 604Q562 628 556.5 639.5Q551 651 518 659L468 670V700H721V670L704 663Q682 654 664.5 638.5Q647 623 633 601L462 341ZM271 605 440 309V106Q440 80 452 64.5Q464 49 491 41L525 30V0H193V30L227 41Q254 49 266 64.5Q278 80 278 106V293L85 601Q70 625 51 641.5Q32 658 13 664L-5 670V700H335V670L299 660Q271 652 265 639Q259 626 271 605ZM396 765H347L226 918H381Z" glyph-name="Ygrave" horiz-adv-x="716" unicode="&#7922;" /><glyph d="M277 700H409L386 663L213 661Q174 660 150.5 639Q127 618 95 553L81 524H47L44 708Q99 704 157 702Q215 700 277 700ZM618 700V670L182 0H18V30L447 700ZM635 0H220L245 39H424Q485 39 521 65.5Q557 92 591 175L611 226H647Z" glyph-name="Z" horiz-adv-x="673" unicode="Z" /><glyph d="M277 700H409L386 663L213 661Q174 660 150.5 639Q127 618 95 553L81 524H47L44 708Q99 704 157 702Q215 700 277 700ZM618 700V670L182 0H18V30L447 700ZM635 0H220L245 39H424Q485 39 521 65.5Q557 92 591 175L611 226H647ZM352 765H303L318 918H473Z" glyph-name="Zacute" horiz-adv-x="673" unicode="&#377;" /><glyph d="M277 700H409L386 663L213 661Q174 660 150.5 639Q127 618 95 553L81 524H47L44 708Q99 704 157 702Q215 700 277 700ZM618 700V670L182 0H18V30L447 700ZM635 0H220L245 39H424Q485 39 521 65.5Q557 92 591 175L611 226H647ZM292 765 183 918H242L328 859L414 918H473L364 765Z" glyph-name="Zcaron" horiz-adv-x="673" unicode="&#381;" /><glyph d="M277 700H409L386 663L213 661Q174 660 150.5 639Q127 618 95 553L81 524H47L44 708Q99 704 157 702Q215 700 277 700ZM618 700V670L182 0H18V30L447 700ZM635 0H220L245 39H424Q485 39 521 65.5Q557 92 591 175L611 226H647ZM407 851Q407 818 384 794.5Q361 771 328 771Q295 771 272 794.5Q249 818 249 851Q249 884 272 907.5Q295 931 328 931Q361 931 384 907.5Q407 884 407 851Z" glyph-name="Zdotaccent" horiz-adv-x="673" unicode="&#379;" /><glyph d="M382 -15Q338 -15 310.5 8.5Q283 32 283 73V340Q283 392 258 419.5Q233 447 188 447Q159 447 135.5 436Q112 425 112 413Q112 409 114.5 405.5Q117 402 127 397Q144 389 149.5 379Q155 369 155 355Q155 333 139.5 319Q124 305 103 305Q79 305 62.5 322.5Q46 340 46 366Q46 422 107.5 465Q169 508 250 508Q332 508 379 466.5Q426 425 426 350V95Q426 74 434.5 63.5Q443 53 461 53Q467 53 476 55.5Q485 58 490 60L495 36Q477 13 446 -1Q415 -15 382 -15ZM259 22Q241 6 211 -4.5Q181 -15 154 -15Q97 -15 60 19.5Q23 54 23 110Q23 157 52.5 190.5Q82 224 135 239L249 272V234L223 221Q194 207 180 186Q166 165 166 136Q166 97 183 73.5Q200 50 228 50Q234 50 240 51Q246 52 250 53Q250 45 252.5 37Q255 29 259 22Z" glyph-name="a" horiz-adv-x="499" unicode="a" /><glyph d="M248 508Q326 508 373 463Q420 418 420 340V95Q420 74 428.5 63.5Q437 53 455 53Q461 53 470 55.5Q479 58 484 60L489 36Q471 13 440 -1Q409 -15 376 -15Q332 -15 304.5 8.5Q277 32 277 73V327Q277 371 252 396Q227 421 184 421Q155 421 126.5 406.5Q98 392 78 366L46 385Q71 442 126 475Q181 508 248 508ZM257 22Q239 6 209 -4.5Q179 -15 152 -15Q94 -15 56 19.5Q18 54 18 110Q18 156 48.5 190Q79 224 133 239L247 272V234L221 221Q192 207 178 186Q164 165 164 136Q164 97 181 73.5Q198 50 226 50Q232 50 238 51Q244 52 248 53Q248 45 250 37.5Q252 30 257 22Z" glyph-name="a.alt" horiz-adv-x="495" /><glyph d="M382 -15Q338 -15 310.5 8.5Q283 32 283 73V340Q283 392 258 419.5Q233 447 188 447Q159 447 135.5 436Q112 425 112 413Q112 409 114.5 405.5Q117 402 127 397Q144 389 149.5 379Q155 369 155 355Q155 333 139.5 319Q124 305 103 305Q79 305 62.5 322.5Q46 340 46 366Q46 422 107.5 465Q169 508 250 508Q332 508 379 466.5Q426 425 426 350V95Q426 74 434.5 63.5Q443 53 461 53Q467 53 476 55.5Q485 58 490 60L495 36Q477 13 446 -1Q415 -15 382 -15ZM259 22Q241 6 211 -4.5Q181 -15 154 -15Q97 -15 60 19.5Q23 54 23 110Q23 157 52.5 190.5Q82 224 135 239L249 272V234L223 221Q194 207 180 186Q166 165 166 136Q166 97 183 73.5Q200 50 228 50Q234 50 240 51Q246 52 250 53Q250 45 252.5 37Q255 29 259 22ZM261 569H212L227 722H382Z" glyph-name="aacute" horiz-adv-x="499" unicode="&#225;" /><glyph d="M248 508Q326 508 373 463Q420 418 420 340V95Q420 74 428.5 63.5Q437 53 455 53Q461 53 470 55.5Q479 58 484 60L489 36Q471 13 440 -1Q409 -15 376 -15Q332 -15 304.5 8.5Q277 32 277 73V327Q277 371 252 396Q227 421 184 421Q155 421 126.5 406.5Q98 392 78 366L46 385Q71 442 126 475Q181 508 248 508ZM257 22Q239 6 209 -4.5Q179 -15 152 -15Q94 -15 56 19.5Q18 54 18 110Q18 156 48.5 190Q79 224 133 239L247 272V234L221 221Q192 207 178 186Q164 165 164 136Q164 97 181 73.5Q198 50 226 50Q232 50 238 51Q244 52 248 53Q248 45 250 37.5Q252 30 257 22ZM255 569H206L221 722H376Z" glyph-name="aacute.alt" horiz-adv-x="495" /><glyph d="M382 -15Q338 -15 310.5 8.5Q283 32 283 73V340Q283 392 258 419.5Q233 447 188 447Q159 447 135.5 436Q112 425 112 413Q112 409 114.5 405.5Q117 402 127 397Q144 389 149.5 379Q155 369 155 355Q155 333 139.5 319Q124 305 103 305Q79 305 62.5 322.5Q46 340 46 366Q46 422 107.5 465Q169 508 250 508Q332 508 379 466.5Q426 425 426 350V95Q426 74 434.5 63.5Q443 53 461 53Q467 53 476 55.5Q485 58 490 60L495 36Q477 13 446 -1Q415 -15 382 -15ZM259 22Q241 6 211 -4.5Q181 -15 154 -15Q97 -15 60 19.5Q23 54 23 110Q23 157 52.5 190.5Q82 224 135 239L249 272V234L223 221Q194 207 180 186Q166 165 166 136Q166 97 183 73.5Q200 50 228 50Q234 50 240 51Q246 52 250 53Q250 45 252.5 37Q255 29 259 22ZM237 568Q170 568 133.5 604.5Q97 641 97 704V732H147V726Q147 695 169.5 679.5Q192 664 237 664Q282 664 304.5 679.5Q327 695 327 726V732H377V704Q377 641 340.5 604.5Q304 568 237 568Z" glyph-name="abreve" horiz-adv-x="499" unicode="&#259;" /><glyph d="M248 508Q326 508 373 463Q420 418 420 340V95Q420 74 428.5 63.5Q437 53 455 53Q461 53 470 55.5Q479 58 484 60L489 36Q471 13 440 -1Q409 -15 376 -15Q332 -15 304.5 8.5Q277 32 277 73V327Q277 371 252 396Q227 421 184 421Q155 421 126.5 406.5Q98 392 78 366L46 385Q71 442 126 475Q181 508 248 508ZM257 22Q239 6 209 -4.5Q179 -15 152 -15Q94 -15 56 19.5Q18 54 18 110Q18 156 48.5 190Q79 224 133 239L247 272V234L221 221Q192 207 178 186Q164 165 164 136Q164 97 181 73.5Q198 50 226 50Q232 50 238 51Q244 52 248 53Q248 45 250 37.5Q252 30 257 22ZM231 568Q164 568 127.5 604.5Q91 641 91 704V732H141V726Q141 695 163.5 679.5Q186 664 231 664Q276 664 298.5 679.5Q321 695 321 726V732H371V704Q371 641 334.5 604.5Q298 568 231 568Z" glyph-name="abreve.alt" horiz-adv-x="495" /><glyph d="M382 -15Q338 -15 310.5 8.5Q283 32 283 73V340Q283 392 258 419.5Q233 447 188 447Q159 447 135.5 436Q112 425 112 413Q112 409 114.5 405.5Q117 402 127 397Q144 389 149.5 379Q155 369 155 355Q155 333 139.5 319Q124 305 103 305Q79 305 62.5 322.5Q46 340 46 366Q46 422 107.5 465Q169 508 250 508Q332 508 379 466.5Q426 425 426 350V95Q426 74 434.5 63.5Q443 53 461 53Q467 53 476 55.5Q485 58 490 60L495 36Q477 13 446 -1Q415 -15 382 -15ZM259 22Q241 6 211 -4.5Q181 -15 154 -15Q97 -15 60 19.5Q23 54 23 110Q23 157 52.5 190.5Q82 224 135 239L249 272V234L223 221Q194 207 180 186Q166 165 166 136Q166 97 183 73.5Q200 50 228 50Q234 50 240 51Q246 52 250 53Q250 45 252.5 37Q255 29 259 22ZM151 569H92L201 722H273L382 569H323L237 628Z" glyph-name="acircumflex" horiz-adv-x="499" unicode="&#226;" /><glyph d="M248 508Q326 508 373 463Q420 418 420 340V95Q420 74 428.5 63.5Q437 53 455 53Q461 53 470 55.5Q479 58 484 60L489 36Q471 13 440 -1Q409 -15 376 -15Q332 -15 304.5 8.5Q277 32 277 73V327Q277 371 252 396Q227 421 184 421Q155 421 126.5 406.5Q98 392 78 366L46 385Q71 442 126 475Q181 508 248 508ZM257 22Q239 6 209 -4.5Q179 -15 152 -15Q94 -15 56 19.5Q18 54 18 110Q18 156 48.5 190Q79 224 133 239L247 272V234L221 221Q192 207 178 186Q164 165 164 136Q164 97 181 73.5Q198 50 226 50Q232 50 238 51Q244 52 248 53Q248 45 250 37.5Q252 30 257 22ZM145 569H86L195 722H267L376 569H317L231 628Z" glyph-name="acircumflex.alt" horiz-adv-x="495" /><glyph d="M114 547H65L80 700H235Z" glyph-name="acute" horiz-adv-x="300" unicode="&#180;" /><glyph d="M382 -15Q338 -15 310.5 8.5Q283 32 283 73V340Q283 392 258 419.5Q233 447 188 447Q159 447 135.5 436Q112 425 112 413Q112 409 114.5 405.5Q117 402 127 397Q144 389 149.5 379Q155 369 155 355Q155 333 139.5 319Q124 305 103 305Q79 305 62.5 322.5Q46 340 46 366Q46 422 107.5 465Q169 508 250 508Q332 508 379 466.5Q426 425 426 350V95Q426 74 434.5 63.5Q443 53 461 53Q467 53 476 55.5Q485 58 490 60L495 36Q477 13 446 -1Q415 -15 382 -15ZM259 22Q241 6 211 -4.5Q181 -15 154 -15Q97 -15 60 19.5Q23 54 23 110Q23 157 52.5 190.5Q82 224 135 239L249 272V234L223 221Q194 207 180 186Q166 165 166 136Q166 97 183 73.5Q200 50 228 50Q234 50 240 51Q246 52 250 53Q250 45 252.5 37Q255 29 259 22ZM409 653Q409 623 388 601.5Q367 580 337 580Q307 580 286 601.5Q265 623 265 653Q265 683 286 704.5Q307 726 337 726Q367 726 388 704.5Q409 683 409 653ZM219 653Q219 623 198 601.5Q177 580 147 580Q117 580 96 601.5Q75 623 75 653Q75 683 96 704.5Q117 726 147 726Q177 726 198 704.5Q219 683 219 653Z" glyph-name="adieresis" horiz-adv-x="499" unicode="&#228;" /><glyph d="M248 508Q326 508 373 463Q420 418 420 340V95Q420 74 428.5 63.5Q437 53 455 53Q461 53 470 55.5Q479 58 484 60L489 36Q471 13 440 -1Q409 -15 376 -15Q332 -15 304.5 8.5Q277 32 277 73V327Q277 371 252 396Q227 421 184 421Q155 421 126.5 406.5Q98 392 78 366L46 385Q71 442 126 475Q181 508 248 508ZM257 22Q239 6 209 -4.5Q179 -15 152 -15Q94 -15 56 19.5Q18 54 18 110Q18 156 48.5 190Q79 224 133 239L247 272V234L221 221Q192 207 178 186Q164 165 164 136Q164 97 181 73.5Q198 50 226 50Q232 50 238 51Q244 52 248 53Q248 45 250 37.5Q252 30 257 22ZM403 653Q403 623 382 601.5Q361 580 331 580Q301 580 280 601.5Q259 623 259 653Q259 683 280 704.5Q301 726 331 726Q361 726 382 704.5Q403 683 403 653ZM213 653Q213 623 192 601.5Q171 580 141 580Q111 580 90 601.5Q69 623 69 653Q69 683 90 704.5Q111 726 141 726Q171 726 192 704.5Q213 683 213 653Z" glyph-name="adieresis.alt" horiz-adv-x="495" /><glyph d="M503 110V-14Q403 -8 341 60.5Q279 129 279 243V340Q279 392 254 419.5Q229 447 184 447Q155 447 131.5 436Q108 425 108 413Q108 409 110.5 405.5Q113 402 123 397Q140 389 145.5 379Q151 369 151 355Q151 333 135.5 319Q120 305 99 305Q75 305 58.5 322.5Q42 340 42 366Q42 422 103.5 465Q165 508 245 508Q288 508 321.5 495.5Q355 483 376 459Q398 479 435.5 493Q473 507 503 507V467Q471 457 453 417.5Q435 378 433 312L597 315Q598 320 598 325Q598 330 598 341Q598 397 582 430Q566 463 537 469V508Q626 504 680.5 444.5Q735 385 735 294V273H429V262Q429 210 448 171Q467 132 503 110ZM169 142Q169 109 188.5 86Q208 63 239 63Q249 63 260.5 66Q272 69 285 75Q289 66 294 58.5Q299 51 304 46Q274 16 238 0.5Q202 -15 161 -15Q102 -15 64 23Q26 61 26 111Q26 158 54 191Q82 224 136 240L245 272V233L222 222Q197 210 183 189Q169 168 169 142ZM585 87Q625 87 657 102Q689 117 709 146L732 137Q712 68 661 28.5Q610 -11 537 -15V94Q548 90 560 88.5Q572 87 585 87Z" glyph-name="ae" horiz-adv-x="762" unicode="&#230;" /><glyph d="M382 -15Q338 -15 310.5 8.5Q283 32 283 73V340Q283 392 258 419.5Q233 447 188 447Q159 447 135.5 436Q112 425 112 413Q112 409 114.5 405.5Q117 402 127 397Q144 389 149.5 379Q155 369 155 355Q155 333 139.5 319Q124 305 103 305Q79 305 62.5 322.5Q46 340 46 366Q46 422 107.5 465Q169 508 250 508Q332 508 379 466.5Q426 425 426 350V95Q426 74 434.5 63.5Q443 53 461 53Q467 53 476 55.5Q485 58 490 60L495 36Q477 13 446 -1Q415 -15 382 -15ZM259 22Q241 6 211 -4.5Q181 -15 154 -15Q97 -15 60 19.5Q23 54 23 110Q23 157 52.5 190.5Q82 224 135 239L249 272V234L223 221Q194 207 180 186Q166 165 166 136Q166 97 183 73.5Q200 50 228 50Q234 50 240 51Q246 52 250 53Q250 45 252.5 37Q255 29 259 22ZM262 569H213L92 722H247Z" glyph-name="agrave" horiz-adv-x="499" unicode="&#224;" /><glyph d="M248 508Q326 508 373 463Q420 418 420 340V95Q420 74 428.5 63.5Q437 53 455 53Q461 53 470 55.5Q479 58 484 60L489 36Q471 13 440 -1Q409 -15 376 -15Q332 -15 304.5 8.5Q277 32 277 73V327Q277 371 252 396Q227 421 184 421Q155 421 126.5 406.5Q98 392 78 366L46 385Q71 442 126 475Q181 508 248 508ZM257 22Q239 6 209 -4.5Q179 -15 152 -15Q94 -15 56 19.5Q18 54 18 110Q18 156 48.5 190Q79 224 133 239L247 272V234L221 221Q192 207 178 186Q164 165 164 136Q164 97 181 73.5Q198 50 226 50Q232 50 238 51Q244 52 248 53Q248 45 250 37.5Q252 30 257 22ZM265 547H216L95 700H250Z" glyph-name="agrave.alt" horiz-adv-x="495" /><glyph d="M382 -15Q338 -15 310.5 8.5Q283 32 283 73V340Q283 392 258 419.5Q233 447 188 447Q159 447 135.5 436Q112 425 112 413Q112 409 114.5 405.5Q117 402 127 397Q144 389 149.5 379Q155 369 155 355Q155 333 139.5 319Q124 305 103 305Q79 305 62.5 322.5Q46 340 46 366Q46 422 107.5 465Q169 508 250 508Q332 508 379 466.5Q426 425 426 350V95Q426 74 434.5 63.5Q443 53 461 53Q467 53 476 55.5Q485 58 490 60L495 36Q477 13 446 -1Q415 -15 382 -15ZM259 22Q241 6 211 -4.5Q181 -15 154 -15Q97 -15 60 19.5Q23 54 23 110Q23 157 52.5 190.5Q82 224 135 239L249 272V234L223 221Q194 207 180 186Q166 165 166 136Q166 97 183 73.5Q200 50 228 50Q234 50 240 51Q246 52 250 53Q250 45 252.5 37Q255 29 259 22ZM380 586H95V661H380Z" glyph-name="amacron" horiz-adv-x="499" unicode="&#257;" /><glyph d="M248 508Q326 508 373 463Q420 418 420 340V95Q420 74 428.5 63.5Q437 53 455 53Q461 53 470 55.5Q479 58 484 60L489 36Q471 13 440 -1Q409 -15 376 -15Q332 -15 304.5 8.5Q277 32 277 73V327Q277 371 252 396Q227 421 184 421Q155 421 126.5 406.5Q98 392 78 366L46 385Q71 442 126 475Q181 508 248 508ZM257 22Q239 6 209 -4.5Q179 -15 152 -15Q94 -15 56 19.5Q18 54 18 110Q18 156 48.5 190Q79 224 133 239L247 272V234L221 221Q192 207 178 186Q164 165 164 136Q164 97 181 73.5Q198 50 226 50Q232 50 238 51Q244 52 248 53Q248 45 250 37.5Q252 30 257 22ZM374 586H89V661H374Z" glyph-name="amacron.alt" horiz-adv-x="495" /><glyph d="M621 293Q598 256 587.5 240Q577 224 568 213Q637 140 665 119.5Q693 99 720 99Q735 99 748 103.5Q761 108 772 117L782 90Q766 42 727 14Q688 -14 638 -14Q597 -14 559.5 6Q522 26 483 69Q447 106 407.5 149.5Q368 193 330 238Q291 285 266.5 316.5Q242 348 225 375Q197 417 183 457Q169 497 169 535Q169 611 223.5 663Q278 715 359 715Q431 715 475.5 677Q520 639 520 582Q520 537 488 498Q456 459 406 445L386 473Q418 493 436 524Q454 555 454 585Q454 621 435.5 641Q417 661 386 661Q355 661 334 636.5Q313 612 313 578Q313 560 317 543Q321 526 329 507Q344 475 376 430Q408 385 448 339Q479 303 497.5 282.5Q516 262 533 244Q556 288 568 320Q580 352 580 371Q580 391 569.5 402.5Q559 414 535 420L510 427V458H753V427L729 419Q716 415 701.5 403.5Q687 392 675 376Q665 363 654 346Q643 329 621 293ZM328 79Q346 79 370 84.5Q394 90 412 98L437 69Q397 28 349 6.5Q301 -15 250 -15Q152 -15 89 39.5Q26 94 26 173Q26 236 71 289.5Q116 343 190 367L212 338Q202 319 194.5 285Q187 251 187 225Q187 160 226.5 119.5Q266 79 328 79Z" glyph-name="ampersand" horiz-adv-x="805" unicode="&amp;" /><glyph d="M420 -210Q373 -210 343.5 -186Q314 -162 314 -124Q314 -96 332 -68Q350 -40 383 -15H382Q338 -15 310.5 8.5Q283 32 283 73V340Q283 392 258 419.5Q233 447 188 447Q159 447 135.5 436Q112 425 112 413Q112 409 114.5 405.5Q117 402 127 397Q144 389 149.5 379Q155 369 155 355Q155 333 139.5 319Q124 305 103 305Q79 305 62.5 322.5Q46 340 46 366Q46 422 107.5 465Q169 508 250 508Q332 508 379 466.5Q426 425 426 350V95Q426 74 434.5 63.5Q443 53 461 53Q467 53 476 55.5Q485 58 490 60L495 36Q488 27 481 21Q474 15 466 10Q444 -23 430.5 -54Q417 -85 417 -107Q417 -132 436 -146.5Q455 -161 487 -161Q494 -161 496.5 -161Q499 -161 506 -160L496 -195Q476 -202 456.5 -206Q437 -210 420 -210ZM259 22Q241 6 211 -4.5Q181 -15 154 -15Q97 -15 60 19.5Q23 54 23 110Q23 157 52.5 190.5Q82 224 135 239L249 272V234L223 221Q194 207 180 186Q166 165 166 136Q166 97 183 73.5Q200 50 228 50Q234 50 240 51Q246 52 250 53Q250 45 252.5 37Q255 29 259 22Z" glyph-name="aogonek" horiz-adv-x="500" unicode="&#261;" /><glyph d="M391 -210Q344 -210 314.5 -186Q285 -162 285 -124Q285 -95 304 -66.5Q323 -38 358 -13Q323 -6 303.5 16.5Q284 39 284 73V327Q284 371 259 396Q234 421 191 421Q162 421 133.5 406.5Q105 392 85 366L53 385Q78 442 133 475Q188 508 255 508Q333 508 380 463Q427 418 427 340V95Q427 74 435.5 63.5Q444 53 462 53Q468 53 477 55.5Q486 58 491 60L496 36Q485 21 466 9Q447 -3 425 -9Q407 -37 397.5 -62.5Q388 -88 388 -107Q388 -132 407 -146.5Q426 -161 458 -161Q465 -161 467.5 -161Q470 -161 477 -160L467 -195Q447 -202 427.5 -206Q408 -210 391 -210ZM264 22Q246 6 216 -4.5Q186 -15 159 -15Q101 -15 63 19.5Q25 54 25 110Q25 156 55.5 190Q86 224 140 239L254 272V234L228 221Q199 207 185 186Q171 165 171 136Q171 97 188 73.5Q205 50 233 50Q239 50 245 51Q251 52 255 53Q255 45 257 37.5Q259 30 264 22Z" glyph-name="aogonek.alt" horiz-adv-x="496" /><glyph d="M234 600Q234 537 193.5 483Q153 429 77 392L62 418Q109 451 135 485.5Q161 520 168 562Q160 558 150 555.5Q140 553 129 553Q97 553 74 576.5Q51 600 51 632Q51 665 75 690Q99 715 136 715Q178 715 206 681Q234 647 234 600Z" glyph-name="apostrophemod" horiz-adv-x="284" unicode="&#700;" /><glyph d="M371 375Q358 375 336.5 379Q315 383 263 396Q210 410 187 414Q164 418 150 418Q128 418 115.5 406.5Q103 395 98 371L49 381Q58 448 89 482Q120 516 174 516Q189 516 211.5 512Q234 508 284 495Q334 481 356.5 477Q379 473 395 473Q417 473 430 484.5Q443 496 448 520L496 510Q488 443 456.5 409Q425 375 371 375ZM371 177Q358 177 336.5 181Q315 185 263 198Q210 212 187 216Q164 220 150 220Q128 220 115.5 208.5Q103 197 98 173L49 183Q58 250 89 284Q120 318 174 318Q189 318 211.5 314Q234 310 284 297Q334 283 356.5 279Q379 275 395 275Q417 275 430 286.5Q443 298 448 322L496 312Q488 245 456.5 211Q425 177 371 177Z" glyph-name="approxequal" horiz-adv-x="540" unicode="&#8776;" /><glyph d="M382 -15Q338 -15 310.5 8.5Q283 32 283 73V340Q283 392 258 419.5Q233 447 188 447Q159 447 135.5 436Q112 425 112 413Q112 409 114.5 405.5Q117 402 127 397Q144 389 149.5 379Q155 369 155 355Q155 333 139.5 319Q124 305 103 305Q79 305 62.5 322.5Q46 340 46 366Q46 422 107.5 465Q169 508 250 508Q332 508 379 466.5Q426 425 426 350V95Q426 74 434.5 63.5Q443 53 461 53Q467 53 476 55.5Q485 58 490 60L495 36Q477 13 446 -1Q415 -15 382 -15ZM259 22Q241 6 211 -4.5Q181 -15 154 -15Q97 -15 60 19.5Q23 54 23 110Q23 157 52.5 190.5Q82 224 135 239L249 272V234L223 221Q194 207 180 186Q166 165 166 136Q166 97 183 73.5Q200 50 228 50Q234 50 240 51Q246 52 250 53Q250 45 252.5 37Q255 29 259 22ZM236 725Q214 725 197 711Q180 697 175 675H123Q129 717 161.5 744.5Q194 772 236 772Q278 772 310.5 744.5Q343 717 349 675H297Q292 697 274.5 711Q257 725 236 725ZM236 546Q193 546 161 573.5Q129 601 123 643H175Q180 621 197 607.5Q214 594 236 594Q257 594 274.5 608Q292 622 297 643H349Q343 601 311 573.5Q279 546 236 546Z" glyph-name="aring" horiz-adv-x="499" unicode="&#229;" /><glyph d="M248 508Q326 508 373 463Q420 418 420 340V95Q420 74 428.5 63.5Q437 53 455 53Q461 53 470 55.5Q479 58 484 60L489 36Q471 13 440 -1Q409 -15 376 -15Q332 -15 304.5 8.5Q277 32 277 73V327Q277 371 252 396Q227 421 184 421Q155 421 126.5 406.5Q98 392 78 366L46 385Q71 442 126 475Q181 508 248 508ZM257 22Q239 6 209 -4.5Q179 -15 152 -15Q94 -15 56 19.5Q18 54 18 110Q18 156 48.5 190Q79 224 133 239L247 272V234L221 221Q192 207 178 186Q164 165 164 136Q164 97 181 73.5Q198 50 226 50Q232 50 238 51Q244 52 248 53Q248 45 250 37.5Q252 30 257 22ZM230 725Q208 725 191 711Q174 697 169 675H117Q123 717 155.5 744.5Q188 772 230 772Q272 772 304.5 744.5Q337 717 343 675H291Q286 697 268.5 711Q251 725 230 725ZM230 546Q187 546 155 573.5Q123 601 117 643H169Q174 621 191 607.5Q208 594 230 594Q251 594 268.5 608Q286 622 291 643H343Q337 601 305 573.5Q273 546 230 546Z" glyph-name="aring.alt" horiz-adv-x="495" /><glyph d="M652 343 367 31 83 343 119 382 326 230 321 701H414L409 230L616 382Z" glyph-name="arrowdown" horiz-adv-x="735" unicode="&#8595;" /><glyph d="M547 108 125 89 144 511 197 513 237 259 566 596 632 530 295 201 549 161Z" glyph-name="arrowdownleft" horiz-adv-x="735" unicode="&#8601;" /><glyph d="M538 513 591 511 610 89 188 108 186 161 440 201 103 530 169 596 498 259Z" glyph-name="arrowdownright" horiz-adv-x="735" unicode="&#8600;" /><glyph d="M119 350 83 389 367 701 652 389 616 350 409 502 414 31H321L326 502Z" glyph-name="arrowup" horiz-adv-x="735" unicode="&#8593;" /><glyph d="M237 426 197 172 144 174 125 596 547 577 549 524 295 484 632 155 566 89Z" glyph-name="arrowupleft" horiz-adv-x="735" unicode="&#8598;" /><glyph d="M188 577 610 596 591 174 538 172 498 426 169 89 103 155 440 484 186 524Z" glyph-name="arrowupright" horiz-adv-x="735" unicode="&#8599;" /><glyph d="M82 348H25L232 715H308L514 348H457L270 576Z" glyph-name="asciicircum" horiz-adv-x="540" unicode="^" /><glyph d="M371 276Q358 276 336.5 280Q315 284 263 297Q210 311 187 315Q164 319 150 319Q128 319 115.5 307.5Q103 296 98 272L49 282Q58 349 89 383Q120 417 174 417Q189 417 211.5 413Q234 409 284 396Q334 382 356.5 378Q379 374 395 374Q417 374 430 385.5Q443 397 448 421L496 411Q488 344 456.5 310Q425 276 371 276Z" glyph-name="asciitilde" horiz-adv-x="540" unicode="~" /><glyph d="M274 455 167 283 71 373 234 488 40 524 89 646 250 529 209 721H339L298 529L459 646L508 524L314 488L477 373L381 283Z" glyph-name="asterisk" horiz-adv-x="548" unicode="*" /><glyph d="M528 198 565 385 667 457H700L679 376Q657 291 644 214.5Q631 138 631 106Q631 88 638 78.5Q645 69 659 69Q682 69 711.5 98Q741 127 762 171Q777 204 785 241Q793 278 793 318Q793 443 714 524.5Q635 606 511 606Q433 606 363 571.5Q293 537 241 473Q192 414 165.5 339.5Q139 265 139 185Q139 115 159.5 57.5Q180 0 220 -43Q261 -87 320 -111.5Q379 -136 440 -136Q491 -136 544.5 -119.5Q598 -103 644 -73L671 -100Q640 -131 566.5 -158.5Q493 -186 431 -186Q347 -186 276.5 -160Q206 -134 153 -85Q98 -34 68.5 37Q39 108 39 186Q39 278 73 364.5Q107 451 168 517Q232 584 315.5 620Q399 656 494 656Q641 656 742 561Q843 466 843 321Q843 202 777.5 112Q712 22 620 22Q557 22 534 66.5Q511 111 528 198ZM501 460Q522 460 543.5 454.5Q565 449 585 439L545 411Q539 416 532 418.5Q525 421 518 422Q490 421 460.5 387Q431 353 404 293Q383 247 370.5 199Q358 151 358 120Q358 109 361 104.5Q364 100 371 100Q389 100 421.5 119.5Q454 139 490 172Q488 158 486.5 146.5Q485 135 484 125Q447 79 401 50.5Q355 22 319 22Q284 22 264 47.5Q244 73 244 116Q244 163 264 223.5Q284 284 316 335Q355 395 402.5 427.5Q450 460 501 460Z" glyph-name="at" horiz-adv-x="886" unicode="@" /><glyph d="M533 302 570 489 672 561H705L684 480Q662 395 649 318.5Q636 242 636 210Q636 192 643 182.5Q650 173 664 173Q687 173 716.5 202Q746 231 767 275Q782 308 790 345Q798 382 798 422Q798 547 719 628.5Q640 710 516 710Q438 710 368 675.5Q298 641 246 577Q197 518 170.5 443.5Q144 369 144 289Q144 219 164.5 161.5Q185 104 225 61Q266 17 325 -7.5Q384 -32 445 -32Q496 -32 549.5 -15.5Q603 1 649 31L676 4Q645 -27 571.5 -54.5Q498 -82 436 -82Q352 -82 281.5 -56Q211 -30 158 19Q103 70 73.5 141Q44 212 44 290Q44 382 78 468.5Q112 555 173 621Q237 688 320.5 724Q404 760 499 760Q646 760 747 665Q848 570 848 425Q848 306 782.5 216Q717 126 625 126Q562 126 539 170.5Q516 215 533 302ZM506 564Q527 564 548.5 558.5Q570 553 590 543L550 515Q544 520 537 522.5Q530 525 523 526Q495 525 465.5 491Q436 457 409 397Q388 351 375.5 303Q363 255 363 224Q363 213 366 208.5Q369 204 376 204Q394 204 426.5 223.5Q459 243 495 276Q493 262 491.5 250.5Q490 239 489 229Q452 183 406 154.5Q360 126 324 126Q289 126 269 151.5Q249 177 249 220Q249 267 269 327.5Q289 388 321 439Q360 499 407.5 531.5Q455 564 506 564Z" glyph-name="at.case" horiz-adv-x="882" /><glyph d="M382 -15Q338 -15 310.5 8.5Q283 32 283 73V340Q283 392 258 419.5Q233 447 188 447Q159 447 135.5 436Q112 425 112 413Q112 409 114.5 405.5Q117 402 127 397Q144 389 149.5 379Q155 369 155 355Q155 333 139.5 319Q124 305 103 305Q79 305 62.5 322.5Q46 340 46 366Q46 422 107.5 465Q169 508 250 508Q332 508 379 466.5Q426 425 426 350V95Q426 74 434.5 63.5Q443 53 461 53Q467 53 476 55.5Q485 58 490 60L495 36Q477 13 446 -1Q415 -15 382 -15ZM259 22Q241 6 211 -4.5Q181 -15 154 -15Q97 -15 60 19.5Q23 54 23 110Q23 157 52.5 190.5Q82 224 135 239L249 272V234L223 221Q194 207 180 186Q166 165 166 136Q166 97 183 73.5Q200 50 228 50Q234 50 240 51Q246 52 250 53Q250 45 252.5 37Q255 29 259 22ZM161 606Q145 606 136 598.5Q127 591 120 571L83 582Q86 641 110.5 671Q135 701 179 701Q192 701 208 697Q224 693 257 681Q283 672 294.5 669Q306 666 314 666Q330 666 339 673.5Q348 681 355 701L392 690Q389 631 364.5 601Q340 571 296 571Q283 571 267 575Q251 579 218 591Q192 600 180.5 603Q169 606 161 606Z" glyph-name="atilde" horiz-adv-x="499" unicode="&#227;" /><glyph d="M248 508Q326 508 373 463Q420 418 420 340V95Q420 74 428.5 63.5Q437 53 455 53Q461 53 470 55.5Q479 58 484 60L489 36Q471 13 440 -1Q409 -15 376 -15Q332 -15 304.5 8.5Q277 32 277 73V327Q277 371 252 396Q227 421 184 421Q155 421 126.5 406.5Q98 392 78 366L46 385Q71 442 126 475Q181 508 248 508ZM257 22Q239 6 209 -4.5Q179 -15 152 -15Q94 -15 56 19.5Q18 54 18 110Q18 156 48.5 190Q79 224 133 239L247 272V234L221 221Q192 207 178 186Q164 165 164 136Q164 97 181 73.5Q198 50 226 50Q232 50 238 51Q244 52 248 53Q248 45 250 37.5Q252 30 257 22ZM155 606Q139 606 130 598.5Q121 591 114 571L77 582Q80 641 104.5 671Q129 701 173 701Q186 701 202 697Q218 693 251 681Q277 672 288.5 669Q300 666 308 666Q324 666 333 673.5Q342 681 349 701L386 690Q383 631 358.5 601Q334 571 290 571Q277 571 261 575Q245 579 212 591Q186 600 174.5 603Q163 606 155 606Z" glyph-name="atilde.alt" horiz-adv-x="495" /><glyph d="M91 -10H59V648L-8 678V704Q42 710 94 720Q146 730 200 744H202V76ZM283 34Q342 34 374.5 83.5Q407 133 407 222Q407 326 372 380.5Q337 435 269 435Q262 435 253.5 434.5Q245 434 236 432V461Q258 483 288 495.5Q318 508 352 508Q445 508 503 441.5Q561 375 561 262Q559 143 487.5 64Q416 -15 302 -15Q270 -15 239 -6Q208 3 187 19L219 45Q234 39 249.5 36.5Q265 34 283 34Z" glyph-name="b" horiz-adv-x="588" unicode="b" /><glyph d="M438 -45 371 -72 27 752 95 778Z" glyph-name="backslash" horiz-adv-x="465" unicode="\" /><glyph d="M148 -66H85V789H148Z" glyph-name="bar" horiz-adv-x="233" unicode="|" /><glyph d="M302 -125 294 -184Q182 -184 129 -154.5Q76 -125 76 -59Q76 -41 82 -13.5Q88 14 108 77Q125 130 130 151.5Q135 173 135 186Q135 218 115.5 236Q96 254 58 256L16 258V309L58 311Q95 312 115 330.5Q135 349 135 381Q135 394 130 415.5Q125 437 108 490Q88 553 82 580.5Q76 608 76 626Q76 692 129 721.5Q182 751 294 751L302 692L295 691Q261 686 247 672Q233 658 233 632Q233 624 235 609Q237 594 243 553Q253 496 256 469Q259 442 259 425Q259 371 227.5 333.5Q196 296 137 284V282Q196 271 227.5 233.5Q259 196 259 142Q259 125 256 98Q253 71 243 14Q237 -27 235 -42Q233 -57 233 -65Q233 -91 247 -105Q261 -119 295 -124Z" glyph-name="braceleft" horiz-adv-x="336" unicode="{" /><glyph d="M312 -57 304 -116Q192 -116 139 -86.5Q86 -57 86 9Q86 27 92 54.5Q98 82 118 145Q135 198 140 219.5Q145 241 145 254Q145 286 125.5 304Q106 322 68 324L26 326V377L68 379Q105 380 125 398.5Q145 417 145 449Q145 462 140 483.5Q135 505 118 558Q98 621 92 648.5Q86 676 86 694Q86 760 139 789.5Q192 819 304 819L312 760L305 759Q271 754 257 740Q243 726 243 700Q243 692 245 677Q247 662 253 621Q263 564 266 537Q269 510 269 493Q269 439 237.5 401.5Q206 364 147 352V350Q206 339 237.5 301.5Q269 264 269 210Q269 193 266 166Q263 139 253 82Q247 41 245 26Q243 11 243 3Q243 -23 257 -37Q271 -51 305 -56Z" glyph-name="braceleft.case" horiz-adv-x="355" /><glyph d="M260 -59Q260 -125 207 -154.5Q154 -184 42 -184L34 -125L41 -124Q75 -119 89 -105Q103 -91 103 -65Q103 -57 101 -42Q99 -27 93 14Q83 71 80 98Q77 125 77 142Q77 196 108.5 233.5Q140 271 199 282V284Q140 296 108.5 333.5Q77 371 77 425Q77 442 80 469Q83 496 93 553Q99 594 101 609Q103 624 103 632Q103 658 89 672Q75 686 41 691L34 692L42 751Q154 751 207 721.5Q260 692 260 626Q260 608 254 580.5Q248 553 228 490Q211 437 206 415.5Q201 394 201 381Q201 349 221 330.5Q241 312 278 311L320 309V258L278 256Q240 254 220.5 236Q201 218 201 186Q201 173 206 151.5Q211 130 228 77Q248 14 254 -13.5Q260 -41 260 -59Z" glyph-name="braceright" horiz-adv-x="336" unicode="}" /><glyph d="M269 9Q269 -57 216 -86.5Q163 -116 51 -116L43 -57L50 -56Q84 -51 98 -37Q112 -23 112 3Q112 11 110 26Q108 41 102 82Q92 139 89 166Q86 193 86 210Q86 264 117.5 301.5Q149 339 208 350V352Q149 364 117.5 401.5Q86 439 86 493Q86 510 89 537Q92 564 102 621Q108 662 110 677Q112 692 112 700Q112 726 98 740Q84 754 50 759L43 760L51 819Q163 819 216 789.5Q269 760 269 694Q269 676 263 648.5Q257 621 237 558Q220 505 215 483.5Q210 462 210 449Q210 417 230 398.5Q250 380 287 379L329 377V326L287 324Q249 322 229.5 304Q210 286 210 254Q210 241 215 219.5Q220 198 237 145Q257 82 263 54.5Q269 27 269 9Z" glyph-name="braceright.case" horiz-adv-x="355" /><glyph d="M324 737V684H85V737ZM85 -106V652H144Q191 564 217 465Q243 366 243 273Q243 180 217 81Q191 -18 144 -106ZM324 -138V-191H85V-138Z" glyph-name="bracketleft" horiz-adv-x="346" unicode="[" /><glyph d="M333 807V754H94V807ZM94 -36V722H153Q200 634 226 535Q252 436 252 343Q252 250 226 151Q200 52 153 -36ZM333 -68V-121H94V-68Z" glyph-name="bracketleft.case" horiz-adv-x="366" /><glyph d="M261 684H22V737H261ZM202 652H261V-106H202Q155 -18 129 81Q103 180 103 273Q103 366 129 465Q155 564 202 652ZM261 -191H22V-138H261Z" glyph-name="bracketright" horiz-adv-x="346" unicode="]" /><glyph d="M272 754H33V807H272ZM213 722H272V-36H213Q166 52 140 151Q114 250 114 343Q114 436 140 535Q166 634 213 722ZM272 -121H33V-68H272Z" glyph-name="bracketright.case" horiz-adv-x="366" /><glyph d="M210 556Q143 556 106.5 592.5Q70 629 70 692V720H120V714Q120 683 142.5 667.5Q165 652 210 652Q255 652 277.5 667.5Q300 683 300 714V720H350V692Q350 629 313.5 592.5Q277 556 210 556Z" glyph-name="breve" horiz-adv-x="420" unicode="&#728;" /><glyph d="M147 420H84V789H147ZM147 -66H84V303H147Z" glyph-name="brokenbar" horiz-adv-x="231" unicode="&#166;" /><glyph d="M308 359Q308 309 273 274.5Q238 240 188 240Q138 240 103.5 274.5Q69 309 69 359Q69 409 104 443.5Q139 478 188 478Q238 478 273 443.5Q308 409 308 359Z" glyph-name="bullet" horiz-adv-x="377" unicode="&#8226;" /><glyph d="M347 384Q345 423 332.5 443.5Q320 464 298 468V508Q373 505 419.5 469.5Q466 434 466 391Q466 363 448 345Q430 327 403 327Q378 327 363.5 342Q349 357 347 384ZM177 281Q177 216 199.5 170.5Q222 125 264 103V-15Q159 -14 93 56.5Q27 127 27 243Q27 348 93 423.5Q159 499 264 507V466Q224 455 200.5 404Q177 353 177 281ZM298 -13V91Q343 82 387.5 97.5Q432 113 457 146L480 137Q464 71 413.5 30Q363 -11 298 -13Z" glyph-name="c" horiz-adv-x="490" unicode="c" /><glyph d="M405 480Q433 463 449.5 438.5Q466 414 466 391Q466 363 448 345Q430 327 403 327Q378 327 363.5 342Q349 357 347 384Q345 423 332.5 443.5Q320 464 298 468V508Q315 507 329.5 505Q344 503 357 499Q347 518 342.5 539.5Q338 561 338 585Q338 649 389.5 695.5Q441 742 522 742Q607 742 657 690.5Q707 639 707 556V493H834V439H491V483Q533 488 561 519Q589 550 589 591Q589 632 561.5 660Q534 688 489 688Q442 688 409.5 655.5Q377 623 377 575Q377 545 383.5 522Q390 499 405 480ZM177 281Q177 216 199.5 170.5Q222 125 264 103V-15Q159 -14 93 56.5Q27 127 27 243Q27 348 93 423.5Q159 499 264 507V466Q224 455 200.5 404Q177 353 177 281ZM564 113V407H707V166Q707 98 725 75Q743 52 784 52Q794 52 805.5 54.5Q817 57 828 62L839 28Q813 10 774.5 -2.5Q736 -15 700 -15Q630 -15 597 16.5Q564 48 564 113ZM298 -13V91Q343 82 387.5 97.5Q432 113 457 146L480 137Q464 71 413.5 30Q363 -11 298 -13Z" glyph-name="c_t" horiz-adv-x="839" unicode="&#57345;" /><glyph d="M347 384Q345 423 332.5 443.5Q320 464 298 468V508Q373 505 419.5 469.5Q466 434 466 391Q466 363 448 345Q430 327 403 327Q378 327 363.5 342Q349 357 347 384ZM177 281Q177 216 199.5 170.5Q222 125 264 103V-15Q159 -14 93 56.5Q27 127 27 243Q27 348 93 423.5Q159 499 264 507V466Q224 455 200.5 404Q177 353 177 281ZM298 -13V91Q343 82 387.5 97.5Q432 113 457 146L480 137Q464 71 413.5 30Q363 -11 298 -13ZM272 569H223L238 722H393Z" glyph-name="cacute" horiz-adv-x="490" unicode="&#263;" /><glyph d="M179 547 70 700H129L215 641L301 700H360L251 547Z" glyph-name="caron" horiz-adv-x="430" unicode="&#711;" /><glyph d="M347 384Q345 423 332.5 443.5Q320 464 298 468V508Q373 505 419.5 469.5Q466 434 466 391Q466 363 448 345Q430 327 403 327Q378 327 363.5 342Q349 357 347 384ZM177 281Q177 216 199.5 170.5Q222 125 264 103V-15Q159 -14 93 56.5Q27 127 27 243Q27 348 93 423.5Q159 499 264 507V466Q224 455 200.5 404Q177 353 177 281ZM298 -13V91Q343 82 387.5 97.5Q432 113 457 146L480 137Q464 71 413.5 30Q363 -11 298 -13ZM212 569 103 722H162L248 663L334 722H393L284 569Z" glyph-name="ccaron" horiz-adv-x="490" unicode="&#269;" /><glyph d="M347 384Q345 423 332.5 443.5Q320 464 298 468V508Q373 505 419.5 469.5Q466 434 466 391Q466 363 448 345Q430 327 403 327Q378 327 363.5 342Q349 357 347 384ZM298 -13V91Q343 82 387.5 97.5Q432 113 457 146L480 137Q464 71 413.5 30Q363 -11 298 -13ZM367 -147Q367 -188 331 -215.5Q295 -243 236 -243Q203 -243 170.5 -232.5Q138 -222 120 -207L137 -175Q152 -181 166 -183.5Q180 -186 193 -186Q224 -186 241 -174Q258 -162 258 -141Q258 -120 232.5 -104Q207 -88 169 -87L167 -79L228 -12Q137 1 82 69.5Q27 138 27 243Q27 348 93 423.5Q159 499 264 507V466Q224 455 200.5 404Q177 353 177 281Q177 216 199.5 170.5Q222 125 264 103V-53Q308 -60 337.5 -85.5Q367 -111 367 -147Z" glyph-name="ccedilla" horiz-adv-x="490" unicode="&#231;" /><glyph d="M347 384Q345 423 332.5 443.5Q320 464 298 468V508Q373 505 419.5 469.5Q466 434 466 391Q466 363 448 345Q430 327 403 327Q378 327 363.5 342Q349 357 347 384ZM177 281Q177 216 199.5 170.5Q222 125 264 103V-15Q159 -14 93 56.5Q27 127 27 243Q27 348 93 423.5Q159 499 264 507V466Q224 455 200.5 404Q177 353 177 281ZM298 -13V91Q343 82 387.5 97.5Q432 113 457 146L480 137Q464 71 413.5 30Q363 -11 298 -13ZM162 569H103L212 722H284L393 569H334L248 628Z" glyph-name="ccircumflex" horiz-adv-x="490" unicode="&#265;" /><glyph d="M347 384Q345 423 332.5 443.5Q320 464 298 468V508Q373 505 419.5 469.5Q466 434 466 391Q466 363 448 345Q430 327 403 327Q378 327 363.5 342Q349 357 347 384ZM177 281Q177 216 199.5 170.5Q222 125 264 103V-15Q159 -14 93 56.5Q27 127 27 243Q27 348 93 423.5Q159 499 264 507V466Q224 455 200.5 404Q177 353 177 281ZM298 -13V91Q343 82 387.5 97.5Q432 113 457 146L480 137Q464 71 413.5 30Q363 -11 298 -13ZM327 655Q327 622 304 598.5Q281 575 248 575Q215 575 192 598.5Q169 622 169 655Q169 688 192 711.5Q215 735 248 735Q281 735 304 711.5Q327 688 327 655Z" glyph-name="cdotaccent" horiz-adv-x="490" unicode="&#267;" /><glyph d="M292 -147Q292 -188 256 -215.5Q220 -243 161 -243Q128 -243 95.5 -232.5Q63 -222 45 -207L62 -175Q77 -181 91 -183.5Q105 -186 118 -186Q149 -186 166 -174Q183 -162 183 -141Q183 -120 157.5 -104Q132 -88 94 -87L92 -79L176 13H219L179 -52Q224 -56 258 -82Q292 -108 292 -147Z" glyph-name="cedilla" horiz-adv-x="337" unicode="&#184;" /><glyph d="M481 391Q481 363 463 345Q445 327 418 327Q393 327 378.5 342Q364 357 362 384Q360 423 347.5 443.5Q335 464 313 468V585H370V500Q420 487 450.5 455.5Q481 424 481 391ZM313 -13V91Q358 82 402.5 97.5Q447 113 472 146L495 137Q479 71 428.5 30Q378 -11 313 -13ZM279 103V-117H222V-8Q139 11 90.5 78Q42 145 42 243Q42 348 108 423.5Q174 499 279 507V466Q239 455 215.5 404Q192 353 192 281Q192 216 214.5 170.5Q237 125 279 103Z" glyph-name="cent" horiz-adv-x="531" unicode="&#162;" /><glyph d="M129 547H70L179 700H251L360 547H301L215 606Z" glyph-name="circumflex" horiz-adv-x="430" unicode="&#710;" /><glyph d="M240 399Q240 360 212.5 332.5Q185 305 146 305Q107 305 79.5 332.5Q52 360 52 399Q52 438 79.5 465.5Q107 493 146 493Q185 493 212.5 465.5Q240 438 240 399ZM240 79Q240 40 212.5 12.5Q185 -15 146 -15Q107 -15 79.5 12.5Q52 40 52 79Q52 118 79.5 145.5Q107 173 146 173Q185 173 212.5 145.5Q240 118 240 79Z" glyph-name="colon" horiz-adv-x="292" unicode=":" /><glyph d="M245 46Q245 -24 200 -84.5Q155 -145 71 -185L54 -157Q107 -119 135.5 -80.5Q164 -42 171 3Q161 -2 150 -4.5Q139 -7 128 -7Q92 -7 67 19Q42 45 42 81Q42 118 69 145.5Q96 173 136 173Q183 173 214 135.5Q245 98 245 46Z" glyph-name="comma" horiz-adv-x="288" unicode="," /><glyph d="M191 -150Q191 -202 158 -249.5Q125 -297 64 -334L38 -308Q69 -284 91.5 -254Q114 -224 126 -190Q117 -195 107 -197.5Q97 -200 86 -200Q53 -200 30.5 -177Q8 -154 8 -121Q8 -88 32.5 -63Q57 -38 93 -38Q135 -38 163 -70.5Q191 -103 191 -150Z" glyph-name="commaaccent" horiz-adv-x="198" unicode="&#63171;" /><glyph d="M110 365H39Q46 523 160.5 635.5Q275 748 436 755V696Q303 689 209.5 594Q116 499 110 365ZM867 365H797Q791 499 697 594Q603 689 470 696V755Q631 748 745.5 635.5Q860 523 867 365ZM363 387Q363 310 402 261Q441 212 503 212Q542 212 573 230Q604 248 627 284L657 261Q637 191 582 150.5Q527 110 454 110Q355 110 290.5 175Q226 240 226 345Q226 447 296.5 523Q367 599 469 599Q545 599 591.5 569Q638 539 638 500Q638 474 619 456Q600 438 574 438Q554 438 541.5 448.5Q529 459 518 493Q507 527 494.5 537.5Q482 548 462 548Q417 548 390 502Q363 456 363 387ZM39 333H110Q116 199 209.5 104Q303 9 436 2V-57Q275 -50 160.5 62.5Q46 175 39 333ZM797 333H867Q860 175 745.5 62.5Q631 -50 470 -57V2Q603 9 697 104Q791 199 797 333Z" glyph-name="copyright" horiz-adv-x="906" unicode="&#169;" /><glyph d="M122 365H79Q82 407 98 449.5Q114 492 142 527L52 613L83 644L169 558Q200 585 242.5 602Q285 619 328 621V581Q242 575 184.5 514.5Q127 454 122 365ZM611 365H568Q563 454 505.5 514.5Q448 575 362 581V621Q405 619 447.5 602Q490 585 521 558L607 644L638 613L548 527Q576 492 592 449.5Q608 407 611 365ZM568 333H611Q608 291 592 248.5Q576 206 548 171L638 85L607 54L521 140Q490 113 447.5 96Q405 79 362 77V117Q448 123 505.5 183.5Q563 244 568 333ZM79 333H122Q127 244 184.5 183.5Q242 123 328 117V77Q285 79 242.5 96Q200 113 169 140L83 54L52 85L142 171Q114 206 98 248.5Q82 291 79 333Z" glyph-name="currency" horiz-adv-x="690" unicode="&#164;" /><glyph d="M384 -15V648L312 678V704Q365 710 419.5 720.5Q474 731 525 744H527V64L584 34V8Q525 4 479.5 -1Q434 -6 384 -15ZM284 508Q300 508 316.5 505.5Q333 503 350 499V461Q341 463 331 464Q321 465 311 465Q246 465 212.5 415.5Q179 366 179 271Q179 167 214 112.5Q249 58 317 58Q325 58 333 59Q341 60 350 61V32Q330 12 295 -1.5Q260 -15 224 -15Q138 -15 82.5 52Q27 119 27 231Q27 350 98.5 429Q170 508 284 508Z" glyph-name="d" horiz-adv-x="599" unicode="d" /><glyph d="M245 190H182V483H36V541H182V700H245V541H392V483H245Z" glyph-name="dagger" horiz-adv-x="428" unicode="&#8224;" /><glyph d="M258 190H195V339H49V397H195V493H49V551H195V700H258V551H405V493H258V397H405V339H258Z" glyph-name="daggerdbl" horiz-adv-x="454" unicode="&#8225;" /><glyph d="M384 -15V648L312 678V704Q365 710 419.5 720.5Q474 731 525 744H527V64L584 34V8Q525 4 479.5 -1Q434 -6 384 -15ZM284 508Q300 508 316.5 505.5Q333 503 350 499V461Q341 463 331 464Q321 465 311 465Q246 465 212.5 415.5Q179 366 179 271Q179 167 214 112.5Q249 58 317 58Q325 58 333 59Q341 60 350 61V32Q330 12 295 -1.5Q260 -15 224 -15Q138 -15 82.5 52Q27 119 27 231Q27 350 98.5 429Q170 508 284 508ZM745 588Q745 536 712 488.5Q679 441 618 404L592 430Q623 454 645.5 484Q668 514 680 548Q671 543 661 540.5Q651 538 640 538Q607 538 584.5 561Q562 584 562 617Q562 650 586.5 675Q611 700 647 700Q689 700 717 667.5Q745 635 745 588Z" glyph-name="dcaron" horiz-adv-x="691" unicode="&#271;" /><glyph d="M584 34V8Q525 4 479.5 -1Q434 -6 384 -15V558H266V603H384V648L312 678V704Q365 710 419.5 720.5Q474 731 525 744H527V603H569V558H527V64ZM284 508Q300 508 316.5 505.5Q333 503 350 499V461Q341 463 331 464Q321 465 311 465Q246 465 212.5 415.5Q179 366 179 271Q179 167 214 112.5Q249 58 317 58Q325 58 333 59Q341 60 350 61V32Q330 12 295 -1.5Q260 -15 224 -15Q138 -15 82.5 52Q27 119 27 231Q27 350 98.5 429Q170 508 284 508Z" glyph-name="dcroat" horiz-adv-x="599" unicode="&#273;" /><glyph d="M289 560Q289 598 266 626.5Q243 655 208 661V714Q267 708 307 663.5Q347 619 347 560Q347 501 307 456.5Q267 412 208 406V459Q243 465 266 493.5Q289 522 289 560ZM93 560Q93 522 116 493.5Q139 465 174 459V406Q115 412 75 456.5Q35 501 35 560Q35 619 75 663.5Q115 708 174 714V661Q139 655 116 626.5Q93 598 93 560Z" glyph-name="degree" horiz-adv-x="382" unicode="&#176;" /><glyph d="M399 649Q399 619 378 597.5Q357 576 327 576Q297 576 276 597.5Q255 619 255 649Q255 679 276 700.5Q297 722 327 722Q357 722 378 700.5Q399 679 399 649ZM209 649Q209 619 188 597.5Q167 576 137 576Q107 576 86 597.5Q65 619 65 649Q65 679 86 700.5Q107 722 137 722Q167 722 188 700.5Q209 679 209 649Z" glyph-name="dieresis" horiz-adv-x="464" unicode="&#168;" /><glyph d="M348 521Q348 490 326 468.5Q304 447 273 447Q241 447 219.5 468.5Q198 490 198 521Q198 553 220 574.5Q242 596 273 596Q304 596 326 574Q348 552 348 521ZM479 329H62V387H479ZM348 193Q348 162 326 140.5Q304 119 273 119Q242 119 220 140.5Q198 162 198 193Q198 225 220 246.5Q242 268 273 268Q304 268 326 246Q348 224 348 193Z" glyph-name="divide" horiz-adv-x="540" unicode="&#247;" /><glyph d="M413 134Q413 174 391.5 201.5Q370 229 317 256L256 -97H210L225 -13Q180 -9 137.5 1.5Q95 12 56 30L60 230H102Q118 151 151 102Q184 53 233 36L274 276Q270 278 265.5 280.5Q261 283 251 287Q245 289 242 290.5Q239 292 237 293Q137 338 95.5 389.5Q54 441 54 510Q54 597 125 656Q196 715 310 715V673Q265 668 236 638.5Q207 609 207 570Q207 534 229 506.5Q251 479 305 452L363 789H408L395 711Q427 709 462 704Q497 699 521 694L512 529H471Q459 581 438 613.5Q417 646 386 661L347 433Q410 405 439.5 388Q469 371 490 353Q525 325 541.5 289.5Q558 254 558 211Q558 117 489.5 55Q421 -7 311 -14V28Q356 34 384.5 64.5Q413 95 413 134Z" glyph-name="dollar" horiz-adv-x="594" unicode="$" /><glyph d="M228 654Q228 621 205 597.5Q182 574 149 574Q116 574 93 597.5Q70 621 70 654Q70 687 93 710.5Q116 734 149 734Q182 734 205 710.5Q228 687 228 654Z" glyph-name="dotaccent" horiz-adv-x="298" unicode="&#729;" /><glyph d="M83 88V413L26 443V469Q74 474 125 484Q176 494 224 509H226V88Q226 67 234.5 54.5Q243 42 263 34L280 27V0H29V27L46 34Q66 42 74.5 54.5Q83 67 83 88Z" glyph-name="dotlessi" horiz-adv-x="299" unicode="&#305;" /><glyph d="M35 -249 7 -226Q33 -220 52.5 -180Q72 -140 72 -91V413L15 443V469Q63 474 114 484Q165 494 213 509H215V-56Q215 -139 164 -192Q113 -245 35 -249Z" glyph-name="dotlessj" horiz-adv-x="275" unicode="&#567;" /><glyph d="M27 243Q27 349 88.5 424.5Q150 500 251 507V467Q219 457 201 417.5Q183 378 181 312L345 315Q349 382 333.5 422.5Q318 463 285 469V508Q374 504 428.5 444.5Q483 385 483 294V273H177V262Q177 210 196 171Q215 132 251 110V-14Q151 -8 89 62.5Q27 133 27 243ZM285 -15V94Q296 90 308 88.5Q320 87 333 87Q373 87 405 102Q437 117 457 146L480 137Q460 68 409 28.5Q358 -11 285 -15Z" glyph-name="e" horiz-adv-x="509" unicode="e" /><glyph d="M27 243Q27 349 88.5 424.5Q150 500 251 507V467Q219 457 201 417.5Q183 378 181 312L345 315Q349 382 333.5 422.5Q318 463 285 469V508Q374 504 428.5 444.5Q483 385 483 294V273H177V262Q177 210 196 171Q215 132 251 110V-14Q151 -8 89 62.5Q27 133 27 243ZM285 -15V94Q296 90 308 88.5Q320 87 333 87Q373 87 405 102Q437 117 457 146L480 137Q460 68 409 28.5Q358 -11 285 -15ZM277 569H228L243 722H398Z" glyph-name="eacute" horiz-adv-x="509" unicode="&#233;" /><glyph d="M27 243Q27 349 88.5 424.5Q150 500 251 507V467Q219 457 201 417.5Q183 378 181 312L345 315Q349 382 333.5 422.5Q318 463 285 469V508Q374 504 428.5 444.5Q483 385 483 294V273H177V262Q177 210 196 171Q215 132 251 110V-14Q151 -8 89 62.5Q27 133 27 243ZM285 -15V94Q296 90 308 88.5Q320 87 333 87Q373 87 405 102Q437 117 457 146L480 137Q460 68 409 28.5Q358 -11 285 -15ZM253 568Q186 568 149.5 604.5Q113 641 113 704V732H163V726Q163 695 185.5 679.5Q208 664 253 664Q298 664 320.5 679.5Q343 695 343 726V732H393V704Q393 641 356.5 604.5Q320 568 253 568Z" glyph-name="ebreve" horiz-adv-x="509" unicode="&#277;" /><glyph d="M27 243Q27 349 88.5 424.5Q150 500 251 507V467Q219 457 201 417.5Q183 378 181 312L345 315Q349 382 333.5 422.5Q318 463 285 469V508Q374 504 428.5 444.5Q483 385 483 294V273H177V262Q177 210 196 171Q215 132 251 110V-14Q151 -8 89 62.5Q27 133 27 243ZM285 -15V94Q296 90 308 88.5Q320 87 333 87Q373 87 405 102Q437 117 457 146L480 137Q460 68 409 28.5Q358 -11 285 -15ZM217 569 108 722H167L253 663L339 722H398L289 569Z" glyph-name="ecaron" horiz-adv-x="509" unicode="&#283;" /><glyph d="M27 243Q27 349 88.5 424.5Q150 500 251 507V467Q219 457 201 417.5Q183 378 181 312L345 315Q349 382 333.5 422.5Q318 463 285 469V508Q374 504 428.5 444.5Q483 385 483 294V273H177V262Q177 210 196 171Q215 132 251 110V-14Q151 -8 89 62.5Q27 133 27 243ZM285 -15V94Q296 90 308 88.5Q320 87 333 87Q373 87 405 102Q437 117 457 146L480 137Q460 68 409 28.5Q358 -11 285 -15ZM167 569H108L217 722H289L398 569H339L253 628Z" glyph-name="ecircumflex" horiz-adv-x="509" unicode="&#234;" /><glyph d="M27 243Q27 349 88.5 424.5Q150 500 251 507V467Q219 457 201 417.5Q183 378 181 312L345 315Q349 382 333.5 422.5Q318 463 285 469V508Q374 504 428.5 444.5Q483 385 483 294V273H177V262Q177 210 196 171Q215 132 251 110V-14Q151 -8 89 62.5Q27 133 27 243ZM285 -15V94Q296 90 308 88.5Q320 87 333 87Q373 87 405 102Q437 117 457 146L480 137Q460 68 409 28.5Q358 -11 285 -15ZM425 653Q425 623 404 601.5Q383 580 353 580Q323 580 302 601.5Q281 623 281 653Q281 683 302 704.5Q323 726 353 726Q383 726 404 704.5Q425 683 425 653ZM235 653Q235 623 214 601.5Q193 580 163 580Q133 580 112 601.5Q91 623 91 653Q91 683 112 704.5Q133 726 163 726Q193 726 214 704.5Q235 683 235 653Z" glyph-name="edieresis" horiz-adv-x="509" unicode="&#235;" /><glyph d="M27 243Q27 349 88.5 424.5Q150 500 251 507V467Q219 457 201 417.5Q183 378 181 312L345 315Q349 382 333.5 422.5Q318 463 285 469V508Q374 504 428.5 444.5Q483 385 483 294V273H177V262Q177 210 196 171Q215 132 251 110V-14Q151 -8 89 62.5Q27 133 27 243ZM285 -15V94Q296 90 308 88.5Q320 87 333 87Q373 87 405 102Q437 117 457 146L480 137Q460 68 409 28.5Q358 -11 285 -15ZM332 655Q332 622 309 598.5Q286 575 253 575Q220 575 197 598.5Q174 622 174 655Q174 688 197 711.5Q220 735 253 735Q286 735 309 711.5Q332 688 332 655Z" glyph-name="edotaccent" horiz-adv-x="509" unicode="&#279;" /><glyph d="M27 243Q27 349 88.5 424.5Q150 500 251 507V467Q219 457 201 417.5Q183 378 181 312L345 315Q349 382 333.5 422.5Q318 463 285 469V508Q374 504 428.5 444.5Q483 385 483 294V273H177V262Q177 210 196 171Q215 132 251 110V-14Q151 -8 89 62.5Q27 133 27 243ZM285 -15V94Q296 90 308 88.5Q320 87 333 87Q373 87 405 102Q437 117 457 146L480 137Q460 68 409 28.5Q358 -11 285 -15ZM278 569H229L108 722H263Z" glyph-name="egrave" horiz-adv-x="509" unicode="&#232;" /><glyph d="M421 432 380 453Q404 478 418.5 509Q433 540 433 565Q433 609 404 638.5Q375 668 328 672V715Q425 716 484 672.5Q543 629 543 565Q543 519 508.5 482Q474 445 421 432ZM318 279 189 347Q129 378 97.5 423Q66 468 66 522Q66 601 128.5 655.5Q191 710 294 714V671Q255 664 231 637.5Q207 611 207 572Q207 536 231 508Q255 480 311 452L400 407Q490 362 527.5 313Q565 264 565 197Q565 115 499.5 54.5Q434 -6 328 -14V39Q371 47 398 78Q425 109 425 151Q425 189 400.5 218.5Q376 248 318 279ZM164 321 207 298Q186 272 174 239Q162 206 162 174Q162 117 198.5 78.5Q235 40 294 37V-15Q184 -14 113 37Q42 88 42 166Q42 216 76 258.5Q110 301 164 321Z" glyph-name="eight" horiz-adv-x="608" unicode="8" /><glyph d="M57 312Q57 361 98.5 395Q140 429 207 429Q269 429 306 401.5Q343 374 343 333Q343 301 318.5 277Q294 253 258 245V244Q312 219 334.5 190Q357 161 357 121Q357 68 311 29.5Q265 -9 195 -9Q126 -9 84.5 22Q43 53 43 105Q43 140 67.5 168Q92 196 131 207V208Q96 224 76.5 252Q57 280 57 312ZM274 337Q274 367 255.5 385.5Q237 404 207 404Q179 404 160.5 387Q142 370 142 343Q142 321 157.5 303Q173 285 207 269L230 258Q249 272 261.5 294.5Q274 317 274 337ZM115 106Q115 70 138.5 46Q162 22 199 22Q231 22 252 41.5Q273 61 273 92Q273 117 254 136Q235 155 174 185L156 194Q137 177 126 153Q115 129 115 106Z" glyph-name="eight.dnom" horiz-adv-x="400" /><glyph d="M57 598Q57 647 98.5 681Q140 715 207 715Q269 715 306 687.5Q343 660 343 619Q343 587 318.5 563Q294 539 258 531V530Q312 505 334.5 476Q357 447 357 407Q357 354 311 315.5Q265 277 195 277Q126 277 84.5 308Q43 339 43 391Q43 426 67.5 454Q92 482 131 493V494Q96 510 76.5 538Q57 566 57 598ZM274 623Q274 653 255.5 671.5Q237 690 207 690Q179 690 160.5 673Q142 656 142 629Q142 607 157.5 589Q173 571 207 555L230 544Q249 558 261.5 580.5Q274 603 274 623ZM115 392Q115 356 138.5 332Q162 308 199 308Q231 308 252 327.5Q273 347 273 378Q273 403 254 422Q235 441 174 471L156 480Q137 463 126 439Q115 415 115 392Z" glyph-name="eight.numr" horiz-adv-x="400" /><glyph d="M386 396 349 416Q370 439 383.5 467Q397 495 397 519Q397 560 370.5 586.5Q344 613 302 617V657Q389 658 442.5 617.5Q496 577 496 519Q496 476 465 442Q434 408 386 396ZM293 255 176 318Q122 347 93.5 388.5Q65 430 65 479Q65 551 121.5 601.5Q178 652 271 656V616Q236 610 214.5 585.5Q193 561 193 525Q193 492 214.5 466.5Q236 441 286 415L366 373Q447 332 481 287Q515 242 515 180Q515 104 456 48.5Q397 -7 302 -14V35Q340 42 364.5 70.5Q389 99 389 138Q389 172 366.5 200Q344 228 293 255ZM154 294 193 273Q174 250 163 219.5Q152 189 152 159Q152 106 185 71Q218 36 271 33V-15Q172 -14 108 33Q44 80 44 152Q44 198 74.5 237Q105 276 154 294Z" glyph-name="eight.pnum" horiz-adv-x="560" /><glyph d="M417 432 376 453Q400 478 414.5 509Q429 540 429 565Q429 609 400 638.5Q371 668 324 672V715Q421 716 480 672.5Q539 629 539 565Q539 519 504.5 482Q470 445 417 432ZM314 279 185 347Q125 378 93.5 423Q62 468 62 522Q62 601 124.5 655.5Q187 710 290 714V671Q251 664 227 637.5Q203 611 203 572Q203 536 227 508Q251 480 307 452L396 407Q486 362 523.5 313Q561 264 561 197Q561 115 495.5 54.5Q430 -6 324 -14V39Q367 47 394 78Q421 109 421 151Q421 189 396.5 218.5Q372 248 314 279ZM160 321 203 298Q182 272 170 239Q158 206 158 174Q158 117 194.5 78.5Q231 40 290 37V-15Q180 -14 109 37Q38 88 38 166Q38 216 72 258.5Q106 301 160 321Z" glyph-name="eight.tnum" horiz-adv-x="600" /><glyph d="M57 212Q57 261 98.5 295Q140 329 207 329Q269 329 306 301.5Q343 274 343 233Q343 201 318.5 177Q294 153 258 145V144Q312 119 334.5 90Q357 61 357 21Q357 -32 311 -70.5Q265 -109 195 -109Q126 -109 84.5 -78Q43 -47 43 5Q43 40 67.5 68Q92 96 131 107V108Q96 124 76.5 152Q57 180 57 212ZM274 237Q274 267 255.5 285.5Q237 304 207 304Q179 304 160.5 287Q142 270 142 243Q142 221 157.5 203Q173 185 207 169L230 158Q249 172 261.5 194.5Q274 217 274 237ZM115 6Q115 -30 138.5 -54Q162 -78 199 -78Q231 -78 252 -58.5Q273 -39 273 -8Q273 17 254 36Q235 55 174 85L156 94Q137 77 126 53Q115 29 115 6Z" glyph-name="eightinferior" horiz-adv-x="400" unicode="&#8328;" /><glyph d="M57 698Q57 747 98.5 781Q140 815 207 815Q269 815 306 787.5Q343 760 343 719Q343 687 318.5 663Q294 639 258 631V630Q312 605 334.5 576Q357 547 357 507Q357 454 311 415.5Q265 377 195 377Q126 377 84.5 408Q43 439 43 491Q43 526 67.5 554Q92 582 131 593V594Q96 610 76.5 638Q57 666 57 698ZM274 723Q274 753 255.5 771.5Q237 790 207 790Q179 790 160.5 773Q142 756 142 729Q142 707 157.5 689Q173 671 207 655L230 644Q249 658 261.5 680.5Q274 703 274 723ZM115 492Q115 456 138.5 432Q162 408 199 408Q231 408 252 427.5Q273 447 273 478Q273 503 254 522Q235 541 174 571L156 580Q137 563 126 539Q115 515 115 492Z" glyph-name="eightsuperior" horiz-adv-x="400" unicode="&#8312;" /><glyph d="M954 79Q954 40 926.5 12.5Q899 -15 860 -15Q821 -15 793.5 12.5Q766 40 766 79Q766 118 793.5 145.5Q821 173 860 173Q899 173 926.5 145.5Q954 118 954 79ZM592 79Q592 40 564.5 12.5Q537 -15 498 -15Q459 -15 431.5 12.5Q404 40 404 79Q404 118 431.5 145.5Q459 173 498 173Q537 173 564.5 145.5Q592 118 592 79ZM230 79Q230 40 202.5 12.5Q175 -15 136 -15Q97 -15 69.5 12.5Q42 40 42 79Q42 118 69.5 145.5Q97 173 136 173Q175 173 202.5 145.5Q230 118 230 79Z" glyph-name="ellipsis" horiz-adv-x="996" unicode="&#8230;" /><glyph d="M27 243Q27 349 88.5 424.5Q150 500 251 507V467Q219 457 201 417.5Q183 378 181 312L345 315Q349 382 333.5 422.5Q318 463 285 469V508Q374 504 428.5 444.5Q483 385 483 294V273H177V262Q177 210 196 171Q215 132 251 110V-14Q151 -8 89 62.5Q27 133 27 243ZM285 -15V94Q296 90 308 88.5Q320 87 333 87Q373 87 405 102Q437 117 457 146L480 137Q460 68 409 28.5Q358 -11 285 -15ZM396 586H111V661H396Z" glyph-name="emacron" horiz-adv-x="509" unicode="&#275;" /><glyph d="M979 248H59V305H979Z" glyph-name="emdash" horiz-adv-x="1038" unicode="&#8212;" /><glyph d="M990 314H70V371H990Z" glyph-name="emdash.case" horiz-adv-x="1060" /><glyph d="M479 248H59V305H479Z" glyph-name="endash" horiz-adv-x="538" unicode="&#8211;" /><glyph d="M490 314H70V371H490Z" glyph-name="endash.case" horiz-adv-x="560" /><glyph d="M223 509H225V88Q225 66 234 53.5Q243 41 263 35L287 27V0H28V27L45 34Q65 42 73.5 54.5Q82 67 82 88V413L25 443V469Q73 474 124 484Q175 494 223 509ZM290 -238Q240 -238 205 -211.5Q170 -185 170 -145Q170 -119 187.5 -101.5Q205 -84 229 -84Q253 -84 269 -100.5Q285 -117 285 -144Q285 -156 279 -170Q273 -184 264 -192Q268 -193 275.5 -194Q283 -195 287 -195Q334 -195 360.5 -159.5Q387 -124 387 -67V318Q387 369 366.5 393.5Q346 418 304 418Q295 418 285 416.5Q275 415 264 413V443Q287 472 319.5 490Q352 508 386 508Q457 508 493.5 463Q530 418 530 330V88Q530 67 538.5 54.5Q547 42 567 34L584 27V0H436V-66Q436 -143 395.5 -190.5Q355 -238 290 -238Z" glyph-name="eng" horiz-adv-x="599" unicode="&#331;" /><glyph d="M27 243Q27 349 88.5 424.5Q150 500 251 507V467Q219 457 201 417.5Q183 378 181 312L345 315Q349 382 333.5 422.5Q318 463 285 469V508Q374 504 428.5 444.5Q483 385 483 294V273H177V262Q177 210 196 171Q215 132 251 110V-14Q151 -8 89 62.5Q27 133 27 243ZM321 -210Q274 -210 244.5 -186Q215 -162 215 -124Q215 -96 233 -68Q251 -40 285 -15V94Q296 90 308 88.5Q320 87 333 87Q373 87 405 102Q437 117 457 146L480 137Q466 88 435.5 53.5Q405 19 361 1Q341 -30 329.5 -58Q318 -86 318 -107Q318 -132 337 -146.5Q356 -161 388 -161Q395 -161 397.5 -161Q400 -161 407 -160L397 -195Q377 -202 357.5 -206Q338 -210 321 -210Z" glyph-name="eogonek" horiz-adv-x="509" unicode="&#281;" /><glyph d="M479 429H62V488H479ZM479 227H62V286H479Z" glyph-name="equal" horiz-adv-x="540" unicode="=" /><glyph d="M423 21V-11Q265 -5 154.5 100.5Q44 206 44 353Q44 498 154 602Q264 706 423 712V682Q335 677 263.5 640Q192 603 192 552V384Q192 379 194 377Q196 375 201 375H678Q683 375 685 377Q687 379 687 384V552Q687 603 617.5 639.5Q548 676 457 681V712Q625 706 730.5 602.5Q836 499 836 344H201Q196 344 194 341.5Q192 339 192 332V160Q192 108 265.5 67.5Q339 27 423 21ZM457 -11V20Q533 24 597 52.5Q661 81 704 131H751Q699 66 623 29.5Q547 -7 457 -11Z" glyph-name="estimated" horiz-adv-x="870" unicode="&#8494;" /><glyph d="M536 265Q536 146 469 69Q402 -8 296 -14V25Q336 34 358 88.5Q380 143 380 234Q380 344 345 439Q310 534 240 614L138 555L115 594L209 648Q192 665 173 682Q154 699 120 726Q106 738 99.5 743Q93 748 89 752L109 776Q150 757 190.5 734Q231 711 270 684L377 746L400 707L309 654Q419 568 477.5 468.5Q536 369 536 265ZM290 472Q294 464 297.5 455.5Q301 447 304 436H294Q242 436 211.5 382.5Q181 329 181 234Q181 142 202 88Q223 34 262 25V-13Q160 -8 93 61.5Q26 131 26 235Q26 338 91.5 406Q157 474 254 474Q269 474 276.5 473.5Q284 473 290 472Z" glyph-name="eth" horiz-adv-x="564" unicode="&#240;" /><glyph d="M169 238H115L114 264Q112 308 103 358.5Q94 409 70 499Q54 558 49 582.5Q44 607 44 623Q44 666 69.5 690.5Q95 715 140 715H144Q189 715 214.5 690.5Q240 666 240 623Q240 606 235.5 581.5Q231 557 214 497Q190 407 181 357Q172 307 170 264ZM237 79Q237 40 209.5 12.5Q182 -15 143 -15Q104 -15 76.5 12.5Q49 40 49 79Q49 118 76.5 145.5Q104 173 143 173Q182 173 209.5 145.5Q237 118 237 79Z" glyph-name="exclam" horiz-adv-x="284" unicode="!" /><glyph d="M107 214 108 240H162L163 214Q165 171 174 121Q183 71 207 -19Q224 -79 228.5 -103.5Q233 -128 233 -145Q233 -188 207.5 -212.5Q182 -237 137 -237H133Q88 -237 62.5 -212.5Q37 -188 37 -145Q37 -129 42 -104.5Q47 -80 63 -21Q87 69 96 119.5Q105 170 107 214ZM42 399Q42 438 69.5 465.5Q97 493 136 493Q175 493 202.5 465.5Q230 438 230 399Q230 360 202.5 332.5Q175 305 136 305Q97 305 69.5 332.5Q42 360 42 399Z" glyph-name="exclamdown" horiz-adv-x="271" unicode="&#161;" /><glyph d="M123 436 124 462H178L179 436Q181 393 190 343Q199 293 223 203Q240 143 244.5 118.5Q249 94 249 77Q249 34 223.5 9.5Q198 -15 153 -15H149Q104 -15 78.5 9.5Q53 34 53 77Q53 93 58 117.5Q63 142 79 201Q103 291 112 341.5Q121 392 123 436ZM58 621Q58 660 85.5 687.5Q113 715 152 715Q191 715 218.5 687.5Q246 660 246 621Q246 582 218.5 554.5Q191 527 152 527Q113 527 85.5 554.5Q58 582 58 621Z" glyph-name="exclamdown.case" horiz-adv-x="303" /><glyph d="M11 493H92V581Q92 666 144 715Q196 764 280 764Q319 764 356 750.5Q393 737 420 714L396 678Q384 686 366.5 691Q349 696 330 696Q285 696 260 667.5Q235 639 235 586V493H366V439H11ZM92 88V407H235V88Q235 70 243 59.5Q251 49 271 41L306 27V0H38V27L57 35Q75 42 83.5 55.5Q92 69 92 88Z" glyph-name="f" horiz-adv-x="377" unicode="f" /><glyph d="M235 493H366V439H11V493H92V564Q92 652 148.5 708Q205 764 287 764Q353 764 396 730.5Q439 697 439 650Q439 627 423 610Q407 593 385 593Q363 593 347.5 607.5Q332 622 332 644Q332 649 333.5 655Q335 661 341 671Q345 680 346.5 684.5Q348 689 348 693Q348 702 338.5 707.5Q329 713 311 713Q277 713 256 685Q235 657 235 606ZM92 88V407H235V88Q235 70 243 59.5Q251 49 271 41L306 27V0H38V27L57 35Q75 42 83.5 55.5Q92 69 92 88Z" glyph-name="f.alt" horiz-adv-x="377" /><glyph d="M563 606V493H694V439H11V493H92V551Q92 636 144 685Q196 734 280 734Q319 734 356 720.5Q393 707 420 684L396 648Q380 658 361.5 664.5Q343 671 327 671Q287 671 261 640Q235 609 235 556V493H420V564Q420 652 476.5 708Q533 764 615 764Q681 764 724 730.5Q767 697 767 650Q767 627 751 610Q735 593 713 593Q691 593 675.5 607.5Q660 622 660 644Q660 649 661.5 655Q663 661 669 671Q673 680 674.5 684.5Q676 689 676 693Q676 702 666.5 707.5Q657 713 639 713Q605 713 584 685Q563 657 563 606ZM420 88V407H563V88Q563 70 571 59.5Q579 49 599 41L634 27V0H366V27L385 35Q403 42 411.5 55.5Q420 69 420 88ZM92 88V407H235V88Q235 70 243 59.5Q251 49 271 41L306 27V0H38V27L57 35Q75 42 83.5 55.5Q92 69 92 88Z" glyph-name="f_f" horiz-adv-x="705" unicode="&#64256;" /><glyph d="M563 606V493H790Q822 493 846.5 497Q871 501 889 509H891V88Q891 67 899.5 54.5Q908 42 928 34L945 27V0H694V27L711 34Q731 42 739.5 54.5Q748 67 748 88V439H11V493H92V551Q92 636 144 685Q196 734 280 734Q319 734 356 720.5Q393 707 420 684L396 648Q380 658 361.5 664.5Q343 671 327 671Q287 671 261 640Q235 609 235 556V493H420V564Q420 652 476.5 708Q533 764 615 764Q681 764 724 730.5Q767 697 767 650Q767 627 751 610Q735 593 713 593Q691 593 675.5 607.5Q660 622 660 644Q660 649 661.5 655Q663 661 669 671Q673 680 674.5 684.5Q676 689 676 693Q676 702 666.5 707.5Q657 713 639 713Q605 713 584 685Q563 657 563 606ZM92 88V407H235V88Q235 70 243 59.5Q251 49 271 41L306 27V0H38V27L57 35Q75 42 83.5 55.5Q92 69 92 88ZM420 88V407H563V88Q563 70 571 59.5Q579 49 599 41L634 27V0H366V27L385 35Q403 42 411.5 55.5Q420 69 420 88Z" glyph-name="f_f_i" horiz-adv-x="964" unicode="&#64259;" /><glyph d="M927 34 944 27V0H693V27L710 34Q730 42 738.5 54.5Q747 67 747 88V607Q740 600 731 596.5Q722 593 712 593Q690 593 674.5 607.5Q659 622 659 644Q659 649 660.5 655Q662 661 668 671Q672 680 673.5 684.5Q675 689 675 693Q675 702 665.5 707.5Q656 713 638 713Q604 713 583 685Q562 657 562 606V493H693V439H11V493H92V551Q92 636 144 685Q196 734 280 734Q319 734 356 720.5Q393 707 420 684L396 648Q380 658 361.5 664.5Q343 671 327 671Q287 671 261 640Q235 609 235 556V493H419V564Q419 652 475.5 708Q532 764 614 764Q654 764 687 750.5Q720 737 741 713Q783 720 819.5 727.5Q856 735 888 744H890V88Q890 67 898.5 54.5Q907 42 927 34ZM419 88V407H562V88Q562 70 570 59.5Q578 49 598 41L633 27V0H365V27L384 35Q402 42 410.5 55.5Q419 69 419 88ZM92 88V407H235V88Q235 70 243 59.5Q251 49 271 41L306 27V0H38V27L57 35Q75 42 83.5 55.5Q92 69 92 88Z" glyph-name="f_f_l" horiz-adv-x="964" unicode="&#64260;" /><glyph d="M92 88V407H235V88Q235 70 243 59.5Q251 49 271 41L306 27V0H38V27L57 35Q75 42 83.5 55.5Q92 69 92 88ZM206 -125Q206 -103 221.5 -87.5Q237 -72 258 -72Q280 -72 295.5 -87.5Q311 -103 311 -125Q311 -147 295.5 -162Q280 -177 258 -177Q237 -177 221.5 -161.5Q206 -146 206 -125ZM235 606V493H436Q468 493 492.5 497Q517 501 535 509H537V-54Q537 -140 489 -188.5Q441 -237 361 -237Q326 -237 293 -226.5Q260 -216 238 -200L241 -197Q249 -199 258 -200Q267 -201 278 -201Q330 -201 362 -167.5Q394 -134 394 -75V439H11V493H92V564Q92 652 148.5 708Q205 764 287 764Q353 764 396 730.5Q439 697 439 650Q439 627 423 610Q407 593 385 593Q363 593 347.5 607.5Q332 622 332 644Q332 649 333.5 655Q335 661 341 671Q345 680 346.5 684.5Q348 689 348 693Q348 702 338.5 707.5Q329 713 311 713Q277 713 256 685Q235 657 235 606Z" glyph-name="f_j" horiz-adv-x="597" /><glyph d="M11 493H92V564Q92 652 148.5 708Q205 764 287 764Q353 764 396 730.5Q439 697 439 650Q439 627 423 610Q407 593 385 593Q363 593 347.5 607.5Q332 622 332 644Q332 649 333.5 655Q335 661 341 671Q345 680 346.5 684.5Q348 689 348 693Q348 702 338.5 707.5Q329 713 311 713Q277 713 256 685Q235 657 235 606V493H462Q494 493 518.5 497Q543 501 561 509H563V88Q563 67 571.5 54.5Q580 42 600 34L617 27V0H366V27L383 34Q403 42 411.5 54.5Q420 67 420 88V439H11ZM92 88V407H235V88Q235 70 243 59.5Q251 49 271 41L306 27V0H38V27L57 35Q75 42 83.5 55.5Q92 69 92 88Z" glyph-name="fi" horiz-adv-x="636" unicode="&#64257;" /><glyph d="M468 556H93L108 700H506L487 576Q485 568 479.5 562Q474 556 468 556ZM523 219Q523 134 454 65.5Q385 -3 279 -13V29Q325 36 353 69.5Q381 103 381 153Q381 230 313 278.5Q245 327 126 338L70 343L89 524H138L133 477L171 475Q340 466 431.5 399.5Q523 333 523 219ZM168 108Q188 62 205 46.5Q222 31 245 28V-15H239Q152 -15 91.5 22.5Q31 60 31 114Q31 139 51 158.5Q71 178 99 178Q120 178 135 165Q150 152 168 108Z" glyph-name="five" horiz-adv-x="561" unicode="5" /><glyph d="M346 132Q346 77 297.5 34Q249 -9 177 -9Q122 -9 85 13Q48 35 48 68Q48 83 60.5 95Q73 107 89 107Q101 107 110 99Q119 91 130 65Q143 35 154.5 25.5Q166 16 183 16Q218 16 239 37Q260 58 260 92Q260 137 221 165.5Q182 194 109 202L74 206L91 420H333L324 346Q323 340 318.5 337Q314 334 305 334H115L113 286L136 285Q237 280 291.5 240.5Q346 201 346 132Z" glyph-name="five.dnom" horiz-adv-x="400" /><glyph d="M346 418Q346 363 297.5 320Q249 277 177 277Q122 277 85 299Q48 321 48 354Q48 369 60.5 381Q73 393 89 393Q101 393 110 385Q119 377 130 351Q143 321 154.5 311.5Q166 302 183 302Q218 302 239 323Q260 344 260 378Q260 423 221 451.5Q182 480 109 488L74 492L91 706H333L324 632Q323 626 318.5 623Q314 620 305 620H115L113 572L136 571Q237 566 291.5 526.5Q346 487 346 418Z" glyph-name="five.numr" horiz-adv-x="400" /><glyph d="M413 391H79L92 523H447L430 409Q428 402 423.5 396.5Q419 391 413 391ZM462 80Q462 3 402 -59.5Q342 -122 249 -133V-94Q289 -86 312.5 -55Q336 -24 336 20Q336 91 275 135.5Q214 180 108 190L58 195L76 359H118L114 318L148 316Q299 308 380.5 246.5Q462 185 462 80ZM145 -21Q163 -64 178.5 -78.5Q194 -93 215 -95V-135H202Q130 -135 76.5 -100Q23 -65 23 -16Q23 7 41 25Q59 43 84 43Q102 43 115.5 31Q129 19 145 -21Z" glyph-name="five.pnum" horiz-adv-x="496" /><glyph d="M488 556H113L128 700H526L507 576Q505 568 499.5 562Q494 556 488 556ZM543 219Q543 134 474 65.5Q405 -3 299 -13V29Q345 36 373 69.5Q401 103 401 153Q401 230 333 278.5Q265 327 146 338L90 343L109 524H158L153 477L191 475Q360 466 451.5 399.5Q543 333 543 219ZM188 108Q208 62 225 46.5Q242 31 265 28V-15H259Q172 -15 111.5 22.5Q51 60 51 114Q51 139 71 158.5Q91 178 119 178Q140 178 155 165Q170 152 188 108Z" glyph-name="five.tnum" horiz-adv-x="600" /><glyph d="M388 418Q388 363 339.5 320Q291 277 219 277Q164 277 127 299Q90 321 90 354Q90 369 102.5 381Q115 393 131 393Q143 393 152 385Q161 377 172 351Q185 321 196.5 311.5Q208 302 225 302Q260 302 281 323Q302 344 302 378Q302 423 263 451.5Q224 480 151 488L116 492L133 706H375L366 632Q365 626 360.5 623Q356 620 347 620H157L155 572L178 571Q279 566 333.5 526.5Q388 487 388 418ZM608 312Q608 361 649.5 395Q691 429 758 429Q820 429 857 401.5Q894 374 894 333Q894 301 869.5 277Q845 253 809 245V244Q863 219 885.5 190Q908 161 908 121Q908 68 862 29.5Q816 -9 746 -9Q677 -9 635.5 22Q594 53 594 105Q594 140 618.5 168Q643 196 682 207V208Q647 224 627.5 252Q608 280 608 312ZM825 337Q825 367 806.5 385.5Q788 404 758 404Q730 404 711.5 387Q693 370 693 343Q693 321 708.5 303Q724 285 758 269L781 258Q800 272 812.5 294.5Q825 317 825 337ZM666 106Q666 70 689.5 46Q713 22 750 22Q782 22 803 41.5Q824 61 824 92Q824 117 805 136Q786 155 725 185L707 194Q688 177 677 153Q666 129 666 106ZM803 700 237 0H187L753 700Z" glyph-name="fiveeights" horiz-adv-x="1000" unicode="&#8541;" /><glyph d="M346 32Q346 -23 297.5 -66Q249 -109 177 -109Q122 -109 85 -87Q48 -65 48 -32Q48 -17 60.5 -5Q73 7 89 7Q101 7 110 -1Q119 -9 130 -35Q143 -65 154.5 -74.5Q166 -84 183 -84Q218 -84 239 -63Q260 -42 260 -8Q260 37 221 65.5Q182 94 109 102L74 106L91 320H333L324 246Q323 240 318.5 237Q314 234 305 234H115L113 186L136 185Q237 180 291.5 140.5Q346 101 346 32Z" glyph-name="fiveinferior" horiz-adv-x="400" unicode="&#8325;" /><glyph d="M346 518Q346 463 297.5 420Q249 377 177 377Q122 377 85 399Q48 421 48 454Q48 469 60.5 481Q73 493 89 493Q101 493 110 485Q119 477 130 451Q143 421 154.5 411.5Q166 402 183 402Q218 402 239 423Q260 444 260 478Q260 523 221 551.5Q182 580 109 588L74 592L91 806H333L324 732Q323 726 318.5 723Q314 720 305 720H115L113 672L136 671Q237 666 291.5 626.5Q346 587 346 518Z" glyph-name="fivesuperior" horiz-adv-x="400" unicode="&#8309;" /><glyph d="M617 27V0H366V27L383 34Q403 42 411.5 54.5Q420 67 420 88V607Q413 600 404 596.5Q395 593 385 593Q363 593 347.5 607.5Q332 622 332 644Q332 649 333.5 655Q335 661 341 671Q345 680 346.5 684.5Q348 689 348 693Q348 702 338.5 707.5Q329 713 311 713Q277 713 256 685Q235 657 235 606V493H366V439H11V493H92V564Q92 652 148.5 708Q205 764 287 764Q327 764 360 750.5Q393 737 414 713Q456 720 492.5 727.5Q529 735 561 744H563V88Q563 67 571.5 54.5Q580 42 600 34ZM92 88V407H235V88Q235 70 243 59.5Q251 49 271 41L306 27V0H38V27L57 35Q75 42 83.5 55.5Q92 69 92 88Z" glyph-name="fl" horiz-adv-x="636" unicode="&#64258;" /><glyph d="M402 350H545V300H131V350H267L311 513Q346 644 414.5 714Q483 784 573 784Q628 784 663.5 754Q699 724 699 679Q699 652 679.5 631.5Q660 611 634 611Q607 611 589 628.5Q571 646 571 674Q571 695 583 711Q595 727 613 733V736Q608 737 604 737.5Q600 738 597 738Q553 738 520 702.5Q487 667 468 598ZM160 -57 244 268H381L335 87Q289 -94 211.5 -187.5Q134 -281 32 -281Q-18 -281 -52 -253.5Q-86 -226 -86 -184Q-86 -154 -66.5 -133.5Q-47 -113 -20 -113Q5 -113 24 -132Q43 -151 43 -177Q43 -194 33.5 -209.5Q24 -225 10 -234V-238Q15 -239 17.5 -239.5Q20 -240 23 -240Q64 -240 100.5 -192.5Q137 -145 160 -57Z" glyph-name="florin" horiz-adv-x="713" unicode="&#402;" /><glyph d="M445 715 113 287H67L297 715ZM564 33V0H232V33L284 52Q306 60 313 69Q320 78 320 94V431L474 467V257H592L584 169H474V94Q474 78 481.5 69Q489 60 512 52ZM286 255V169H4L51 255Z" glyph-name="four" horiz-adv-x="605" unicode="4" /><glyph d="M350 20V0H150V20L182 31Q195 36 199 41Q203 46 203 56V101H32L26 133L207 429H278L66 153H203V247L296 268V154H366L362 101H296V56Q296 47 300 42Q304 37 318 31Z" glyph-name="four.dnom" horiz-adv-x="400" /><glyph d="M349 306V286H149V306L181 317Q194 322 198 327Q202 332 202 342V387H31L25 419L206 715H277L65 439H202V533L295 554V440H365L361 387H295V342Q295 333 299 328Q303 323 317 317Z" glyph-name="four.numr" horiz-adv-x="400" /><glyph d="M394 532 114 141H69L276 532ZM441 30V-125H297V273L441 306V111H549L542 30ZM6 30 51 109H263V30Z" glyph-name="four.pnum" horiz-adv-x="560" /><glyph d="M444 715 112 287H66L296 715ZM563 33V0H231V33L283 52Q305 60 312 69Q319 78 319 94V431L473 467V257H591L583 169H473V94Q473 78 480.5 69Q488 60 511 52ZM285 255V169H3L50 255Z" glyph-name="four.tnum" horiz-adv-x="600" /><glyph d="M349 -80V-100H149V-80L181 -69Q194 -64 198 -59Q202 -54 202 -44V1H31L25 33L206 329H277L65 53H202V147L295 168V54H365L361 1H295V-44Q295 -53 299 -58Q303 -63 317 -69Z" glyph-name="fourinferior" horiz-adv-x="400" unicode="&#8324;" /><glyph d="M349 406V386H149V406L181 417Q194 422 198 427Q202 432 202 442V487H31L25 519L206 815H277L65 539H202V633L295 654V540H365L361 487H295V442Q295 433 299 428Q303 423 317 417Z" glyph-name="foursuperior" horiz-adv-x="400" unicode="&#8308;" /><glyph d="M406 700 -160 0H-210L356 700Z" glyph-name="fraction" horiz-adv-x="200" unicode="&#8260;" /><glyph d="M191 332Q191 276 205 244Q219 212 246 204V158Q155 163 99.5 212.5Q44 262 44 332Q44 404 100.5 453.5Q157 503 246 507V461Q219 453 205 421Q191 389 191 332ZM331 332Q331 387 318 419.5Q305 452 280 460V506Q299 505 318.5 500Q338 495 356 487L554 508L545 413L419 450L418 449Q445 425 459.5 394.5Q474 364 474 330Q474 263 418.5 214Q363 165 280 159V205Q305 213 318 245Q331 277 331 332ZM542 -56Q542 -134 469.5 -189Q397 -244 280 -253V-204Q337 -202 374.5 -177.5Q412 -153 412 -116Q412 -84 391.5 -67.5Q371 -51 328 -48L210 -40Q170 -37 140.5 -31Q111 -25 93 -15Q67 -1 52.5 22.5Q38 46 38 74Q38 103 54.5 129.5Q71 156 100 174Q107 167 117 161.5Q127 156 135 153Q131 146 129 139.5Q127 133 127 128Q127 114 137.5 106Q148 98 168 97L379 87Q458 83 500 46Q542 9 542 -56ZM114 -108Q114 -148 149.5 -173Q185 -198 246 -203V-254Q132 -254 67 -220.5Q2 -187 1 -132Q2 -101 23 -78Q44 -55 82 -45Q92 -50 103.5 -53Q115 -56 130 -59Q122 -72 118 -84Q114 -96 114 -108Z" glyph-name="g" horiz-adv-x="556" unicode="g" /><glyph d="M191 332Q191 276 205 244Q219 212 246 204V158Q155 163 99.5 212.5Q44 262 44 332Q44 404 100.5 453.5Q157 503 246 507V461Q219 453 205 421Q191 389 191 332ZM331 332Q331 387 318 419.5Q305 452 280 460V506Q299 505 318.5 500Q338 495 356 487L554 508L545 413L419 450L418 449Q445 425 459.5 394.5Q474 364 474 330Q474 263 418.5 214Q363 165 280 159V205Q305 213 318 245Q331 277 331 332ZM542 -56Q542 -134 469.5 -189Q397 -244 280 -253V-204Q337 -202 374.5 -177.5Q412 -153 412 -116Q412 -84 391.5 -67.5Q371 -51 328 -48L210 -40Q170 -37 140.5 -31Q111 -25 93 -15Q67 -1 52.5 22.5Q38 46 38 74Q38 103 54.5 129.5Q71 156 100 174Q107 167 117 161.5Q127 156 135 153Q131 146 129 139.5Q127 133 127 128Q127 114 137.5 106Q148 98 168 97L379 87Q458 83 500 46Q542 9 542 -56ZM114 -108Q114 -148 149.5 -173Q185 -198 246 -203V-254Q132 -254 67 -220.5Q2 -187 1 -132Q2 -101 23 -78Q44 -55 82 -45Q92 -50 103.5 -53Q115 -56 130 -59Q122 -72 118 -84Q114 -96 114 -108ZM257 568Q190 568 153.5 604.5Q117 641 117 704V732H167V726Q167 695 189.5 679.5Q212 664 257 664Q302 664 324.5 679.5Q347 695 347 726V732H397V704Q397 641 360.5 604.5Q324 568 257 568Z" glyph-name="gbreve" horiz-adv-x="556" unicode="&#287;" /><glyph d="M191 332Q191 276 205 244Q219 212 246 204V158Q155 163 99.5 212.5Q44 262 44 332Q44 404 100.5 453.5Q157 503 246 507V461Q219 453 205 421Q191 389 191 332ZM331 332Q331 387 318 419.5Q305 452 280 460V506Q299 505 318.5 500Q338 495 356 487L554 508L545 413L419 450L418 449Q445 425 459.5 394.5Q474 364 474 330Q474 263 418.5 214Q363 165 280 159V205Q305 213 318 245Q331 277 331 332ZM542 -56Q542 -134 469.5 -189Q397 -244 280 -253V-204Q337 -202 374.5 -177.5Q412 -153 412 -116Q412 -84 391.5 -67.5Q371 -51 328 -48L210 -40Q170 -37 140.5 -31Q111 -25 93 -15Q67 -1 52.5 22.5Q38 46 38 74Q38 103 54.5 129.5Q71 156 100 174Q107 167 117 161.5Q127 156 135 153Q131 146 129 139.5Q127 133 127 128Q127 114 137.5 106Q148 98 168 97L379 87Q458 83 500 46Q542 9 542 -56ZM114 -108Q114 -148 149.5 -173Q185 -198 246 -203V-254Q132 -254 67 -220.5Q2 -187 1 -132Q2 -101 23 -78Q44 -55 82 -45Q92 -50 103.5 -53Q115 -56 130 -59Q122 -72 118 -84Q114 -96 114 -108ZM171 569H112L221 722H293L402 569H343L257 628Z" glyph-name="gcircumflex" horiz-adv-x="556" unicode="&#285;" /><glyph d="M192 332Q192 276 206 244Q220 212 247 204V158Q156 163 100.5 212.5Q45 262 45 332Q45 404 101.5 453.5Q158 503 247 507V461Q220 453 206 421Q192 389 192 332ZM332 332Q332 387 319 419.5Q306 452 281 460V506Q300 505 319.5 500Q339 495 357 487L555 508L546 413L420 450L419 449Q446 425 460.5 394.5Q475 364 475 330Q475 263 419.5 214Q364 165 281 159V205Q306 213 319 245Q332 277 332 332ZM543 -56Q543 -134 470.5 -189Q398 -244 281 -253V-204Q338 -202 375.5 -177.5Q413 -153 413 -116Q413 -84 392.5 -67.5Q372 -51 329 -48L211 -40Q171 -37 141.5 -31Q112 -25 94 -15Q68 -1 53.5 22.5Q39 46 39 74Q39 103 55.5 129.5Q72 156 101 174Q108 167 118 161.5Q128 156 136 153Q132 146 130 139.5Q128 133 128 128Q128 114 138.5 106Q149 98 169 97L380 87Q459 83 501 46Q543 9 543 -56ZM115 -108Q115 -148 150.5 -173Q186 -198 247 -203V-254Q133 -254 68 -220.5Q3 -187 2 -132Q3 -101 24 -78Q45 -55 83 -45Q93 -50 104.5 -53Q116 -56 131 -59Q123 -72 119 -84Q115 -96 115 -108ZM352 639Q352 606 328 581Q304 556 267 556Q225 556 197 590Q169 624 169 671Q169 734 209.5 788Q250 842 326 879L341 853Q294 820 268 785.5Q242 751 235 709Q243 713 253 715.5Q263 718 274 718Q306 718 329 694.5Q352 671 352 639Z" glyph-name="gcommaaccent" horiz-adv-x="557" unicode="&#291;" /><glyph d="M191 332Q191 276 205 244Q219 212 246 204V158Q155 163 99.5 212.5Q44 262 44 332Q44 404 100.5 453.5Q157 503 246 507V461Q219 453 205 421Q191 389 191 332ZM331 332Q331 387 318 419.5Q305 452 280 460V506Q299 505 318.5 500Q338 495 356 487L554 508L545 413L419 450L418 449Q445 425 459.5 394.5Q474 364 474 330Q474 263 418.5 214Q363 165 280 159V205Q305 213 318 245Q331 277 331 332ZM542 -56Q542 -134 469.5 -189Q397 -244 280 -253V-204Q337 -202 374.5 -177.5Q412 -153 412 -116Q412 -84 391.5 -67.5Q371 -51 328 -48L210 -40Q170 -37 140.5 -31Q111 -25 93 -15Q67 -1 52.5 22.5Q38 46 38 74Q38 103 54.5 129.5Q71 156 100 174Q107 167 117 161.5Q127 156 135 153Q131 146 129 139.5Q127 133 127 128Q127 114 137.5 106Q148 98 168 97L379 87Q458 83 500 46Q542 9 542 -56ZM114 -108Q114 -148 149.5 -173Q185 -198 246 -203V-254Q132 -254 67 -220.5Q2 -187 1 -132Q2 -101 23 -78Q44 -55 82 -45Q92 -50 103.5 -53Q115 -56 130 -59Q122 -72 118 -84Q114 -96 114 -108ZM336 655Q336 622 313 598.5Q290 575 257 575Q224 575 201 598.5Q178 622 178 655Q178 688 201 711.5Q224 735 257 735Q290 735 313 711.5Q336 688 336 655Z" glyph-name="gdotaccent" horiz-adv-x="556" unicode="&#289;" /><glyph d="M334 763V707Q286 697 260.5 650Q235 603 235 527V439H11V493H92V497Q92 617 158 688Q224 759 334 763ZM92 88V407H235V0H38V27L57 35Q75 42 83.5 55.5Q92 69 92 88ZM305 363Q305 376 317.5 396.5Q330 417 371 468Q425 533 442 564Q459 595 459 617Q459 656 434 681Q409 706 368 709V762Q437 755 476.5 716Q516 677 516 619Q516 591 504 561Q492 531 458 481Q439 453 433.5 442Q428 431 428 423Q427 408 442 386Q457 364 529 295Q564 257 581.5 222.5Q599 188 601 154Q599 85 547.5 35Q496 -15 426 -15Q370 -15 334.5 7Q299 29 301 63Q299 86 314 102Q329 118 352 118Q369 118 380.5 108.5Q392 99 403 69Q412 43 421 35Q430 27 443 27Q461 27 474.5 42Q488 57 490 80Q488 106 473.5 131.5Q459 157 411 213L374 253Q337 291 321 315Q305 339 305 363Z" glyph-name="germandbls" horiz-adv-x="623" unicode="&#223;" /><glyph d="M235 547H186L65 700H220Z" glyph-name="grave" horiz-adv-x="300" unicode="`" /><glyph d="M497 329 80 151V217L418 358L80 499V565L497 387Z" glyph-name="greater" horiz-adv-x="540" unicode="&gt;" /><glyph d="M708 359 396 74 357 110 509 318 38 312V406L509 400L357 608L396 644Z" glyph-name="greater.alt" horiz-adv-x="735" unicode="&#8594;" /><glyph d="M486 329 69 151V217L407 358L69 499V565L486 387ZM486 0H69V59H486Z" glyph-name="greaterequal" horiz-adv-x="540" unicode="&#8805;" /><glyph d="M468 76 432 54 234 278 432 502 468 480 384 278ZM268 76 232 54 34 278 232 502 268 480 184 278Z" glyph-name="guillemotleft" horiz-adv-x="517" unicode="&#171;" /><glyph d="M481 148 445 126 247 350 445 574 481 552 397 350ZM281 148 245 126 47 350 245 574 281 552 197 350Z" glyph-name="guillemotleft.case" horiz-adv-x="543" /><glyph d="M483 278 286 54 249 76 333 278 249 480 286 502ZM283 278 86 54 49 76 133 278 49 480 86 502Z" glyph-name="guillemotright" horiz-adv-x="518" unicode="&#187;" /><glyph d="M496 350 299 126 262 148 346 350 262 552 299 574ZM296 350 99 126 62 148 146 350 62 552 99 574Z" glyph-name="guillemotright.case" horiz-adv-x="543" /><glyph d="M267 76 231 54 35 278 231 502 267 480 184 278Z" glyph-name="guilsinglleft" horiz-adv-x="316" unicode="&#8249;" /><glyph d="M279 148 243 126 47 350 243 574 279 552 196 350Z" glyph-name="guilsinglleft.case" horiz-adv-x="341" /><glyph d="M281 278 85 54 49 76 132 278 49 480 85 502Z" glyph-name="guilsinglright" horiz-adv-x="316" unicode="&#8250;" /><glyph d="M294 350 98 126 62 148 145 350 62 552 98 574Z" glyph-name="guilsinglright.case" horiz-adv-x="341" /><glyph d="M213 744H215V88Q215 66 224 53.5Q233 41 253 35L277 27V0H18V27L35 34Q55 42 63.5 54.5Q72 67 72 88V648L5 678V704Q55 710 107 720Q159 730 213 744ZM520 330V88Q520 67 528.5 54.5Q537 42 557 34L574 27V0H323V27L340 34Q360 42 368.5 54.5Q377 67 377 88V318Q377 369 356.5 393.5Q336 418 294 418Q285 418 275 416.5Q265 415 254 413V443Q277 472 309.5 490Q342 508 376 508Q447 508 483.5 463Q520 418 520 330Z" glyph-name="h" horiz-adv-x="589" unicode="h" /><glyph d="M253 35 277 27V0H18V27L35 34Q55 42 63.5 54.5Q72 67 72 88V558H4V603H72V648L5 678V704Q55 710 107 720Q159 730 213 744H215V603H307V558H215V88Q215 66 224 53.5Q233 41 253 35ZM520 330V88Q520 67 528.5 54.5Q537 42 557 34L574 27V0H323V27L340 34Q360 42 368.5 54.5Q377 67 377 88V318Q377 369 356.5 393.5Q336 418 294 418Q285 418 275 416.5Q265 415 254 413V443Q277 472 309.5 490Q342 508 376 508Q447 508 483.5 463Q520 418 520 330Z" glyph-name="hbar" horiz-adv-x="589" unicode="&#295;" /><glyph d="M179 792H120L229 945H301L410 792H351L265 851ZM213 744H215V88Q215 66 224 53.5Q233 41 253 35L277 27V0H18V27L35 34Q55 42 63.5 54.5Q72 67 72 88V648L5 678V704Q55 710 107 720Q159 730 213 744ZM520 330V88Q520 67 528.5 54.5Q537 42 557 34L574 27V0H323V27L340 34Q360 42 368.5 54.5Q377 67 377 88V318Q377 369 356.5 393.5Q336 418 294 418Q285 418 275 416.5Q265 415 254 413V443Q277 472 309.5 490Q342 508 376 508Q447 508 483.5 463Q520 418 520 330Z" glyph-name="hcircumflex" horiz-adv-x="589" unicode="&#293;" /><glyph d="M304 547H255L270 700H425ZM114 547H65L80 700H235Z" glyph-name="hungarumlaut" horiz-adv-x="490" unicode="&#733;" /><glyph d="M264 234H54V319H264Z" glyph-name="hyphen" horiz-adv-x="318" unicode="-" /><glyph d="M270 300H60V385H270Z" glyph-name="hyphen.case" horiz-adv-x="330" /><glyph d="M235 651Q235 615 210 590Q185 565 149 565Q113 565 88 590Q63 615 63 651Q63 688 88 713Q113 738 149 738Q185 738 210 713Q235 688 235 651ZM83 88V413L26 443V469Q74 474 125 484Q176 494 224 509H226V88Q226 67 234.5 54.5Q243 42 263 34L280 27V0H29V27L46 34Q66 42 74.5 54.5Q83 67 83 88Z" glyph-name="i" horiz-adv-x="299" unicode="i" /><glyph d="M235 651Q235 615 210 590Q185 565 149 565Q113 565 88 590Q63 615 63 651Q63 688 88 713Q113 738 149 738Q185 738 210 713Q235 688 235 651ZM83 88V413L26 443V469Q74 474 125 484Q176 494 224 509H226V88Q226 67 234.5 54.5Q243 42 263 34L280 27V0H29V27L46 34Q66 42 74.5 54.5Q83 67 83 88Z" glyph-name="i.TRK" horiz-adv-x="299" /><glyph d="M83 88V413L26 443V469Q74 474 125 484Q176 494 224 509H226V88Q226 67 234.5 54.5Q243 42 263 34L280 27V0H29V27L46 34Q66 42 74.5 54.5Q83 67 83 88ZM160 549H111L126 702H281Z" glyph-name="iacute" horiz-adv-x="299" unicode="&#237;" /><glyph d="M83 88V413L26 443V469Q74 474 125 484Q176 494 224 509H226V88Q226 67 234.5 54.5Q243 42 263 34L280 27V0H29V27L46 34Q66 42 74.5 54.5Q83 67 83 88ZM136 548Q69 548 32.5 584.5Q-4 621 -4 684V712H46V706Q46 675 68.5 659.5Q91 644 136 644Q181 644 203.5 659.5Q226 675 226 706V712H276V684Q276 621 239.5 584.5Q203 548 136 548Z" glyph-name="ibreve" horiz-adv-x="299" unicode="&#301;" /><glyph d="M83 88V413L26 443V469Q74 474 125 484Q176 494 224 509H226V88Q226 67 234.5 54.5Q243 42 263 34L280 27V0H29V27L46 34Q66 42 74.5 54.5Q83 67 83 88ZM50 549H-9L100 702H172L281 549H222L136 608Z" glyph-name="icircumflex" horiz-adv-x="299" unicode="&#238;" /><glyph d="M83 88V413L26 443V469Q74 474 125 484Q176 494 224 509H226V88Q226 67 234.5 54.5Q243 42 263 34L280 27V0H29V27L46 34Q66 42 74.5 54.5Q83 67 83 88ZM308 633Q308 603 287 581.5Q266 560 236 560Q206 560 185 581.5Q164 603 164 633Q164 663 185 684.5Q206 706 236 706Q266 706 287 684.5Q308 663 308 633ZM118 633Q118 603 97 581.5Q76 560 46 560Q16 560 -5 581.5Q-26 603 -26 633Q-26 663 -5 684.5Q16 706 46 706Q76 706 97 684.5Q118 663 118 633Z" glyph-name="idieresis" horiz-adv-x="299" unicode="&#239;" /><glyph d="M83 88V413L26 443V469Q74 474 125 484Q176 494 224 509H226V88Q226 67 234.5 54.5Q243 42 263 34L280 27V0H29V27L46 34Q66 42 74.5 54.5Q83 67 83 88ZM161 549H112L-9 702H146Z" glyph-name="igrave" horiz-adv-x="299" unicode="&#236;" /><glyph d="M235 651Q235 615 210 590Q185 565 149 565Q113 565 88 590Q63 615 63 651Q63 688 88 713Q113 738 149 738Q185 738 210 713Q235 688 235 651ZM83 88V413L26 443V469Q74 474 125 484Q176 494 224 509H226V88Q226 67 234.5 54.5Q243 42 263 34L280 27V0H29V27L46 34Q66 42 74.5 54.5Q83 67 83 88ZM515 652Q515 616 490 591Q465 566 429 566Q393 566 368 591Q343 616 343 652Q343 688 368 713Q393 738 429 738Q465 738 490 713Q515 688 515 652ZM175 -125Q175 -103 190.5 -87.5Q206 -72 227 -72Q249 -72 264.5 -87.5Q280 -103 280 -125Q280 -147 264.5 -162Q249 -177 227 -177Q206 -177 190.5 -161.5Q175 -146 175 -125ZM247 -201Q299 -201 331 -167.5Q363 -134 363 -75V413L306 443V469Q354 474 405 484Q456 494 504 509H506V-54Q506 -140 458 -188.5Q410 -237 330 -237Q295 -237 262 -226.5Q229 -216 207 -200L210 -197Q218 -199 227 -200Q236 -201 247 -201Z" glyph-name="ij" horiz-adv-x="574" unicode="&#307;" /><glyph d="M83 88V413L26 443V469Q74 474 125 484Q176 494 224 509H226V88Q226 67 234.5 54.5Q243 42 263 34L280 27V0H29V27L46 34Q66 42 74.5 54.5Q83 67 83 88ZM279 566H-6V641H279Z" glyph-name="imacron" horiz-adv-x="299" unicode="&#299;" /><glyph d="M389 656 239 355 194 376 357 700H422L584 376L539 354ZM88 51H369V0H29V47L176 339L221 318ZM690 51 558 317 603 338 749 47V0H410V51Z" glyph-name="increment" horiz-adv-x="779" unicode="&#8710;" /><glyph d="M796 354Q796 407 764.5 444.5Q733 482 687 482Q650 482 615.5 452.5Q581 423 517 325Q477 261 454 231Q431 201 409 180Q372 143 332 125.5Q292 108 248 108Q154 108 100 180.5Q46 253 46 364Q46 465 100.5 537Q155 609 240 609Q291 609 334.5 574.5Q378 540 403 485L376 447Q344 474 307 488.5Q270 503 235 503Q177 503 138.5 462Q100 421 100 363Q100 310 131.5 272.5Q163 235 209 235Q246 235 280.5 264.5Q315 294 379 392Q419 456 442 486Q465 516 487 537Q524 574 564 591.5Q604 609 648 609Q742 609 796 536.5Q850 464 850 353Q850 252 795.5 180Q741 108 656 108Q605 108 561.5 142.5Q518 177 493 232L520 270Q552 243 589 228.5Q626 214 661 214Q719 214 757.5 255Q796 296 796 354Z" glyph-name="infinity" horiz-adv-x="896" unicode="&#8734;" /><glyph d="M303 351Q303 296 265.5 257.5Q228 219 174 219Q120 219 82.5 257.5Q45 296 45 351Q45 406 82.5 444.5Q120 483 174 483Q228 483 265.5 444.5Q303 406 303 351Z" glyph-name="integral" horiz-adv-x="348" unicode="&#8747;" /><glyph d="M235 651Q235 615 210 590Q185 565 149 565Q113 565 88 590Q63 615 63 651Q63 688 88 713Q113 738 149 738Q185 738 210 713Q235 688 235 651ZM253 -160 243 -195Q223 -202 203.5 -206Q184 -210 167 -210Q120 -210 90.5 -186Q61 -162 61 -124Q61 -91 85.5 -58.5Q110 -26 153 0H29V27L46 34Q66 42 74.5 54.5Q83 67 83 88V413L26 443V469Q74 474 125 484Q176 494 224 509H226V88Q226 67 234.5 54.5Q243 42 263 34L280 27V0H206Q187 -29 175.5 -58Q164 -87 164 -107Q164 -132 183 -146.5Q202 -161 234 -161Q241 -161 243.5 -161Q246 -161 253 -160Z" glyph-name="iogonek" horiz-adv-x="299" unicode="&#303;" /><glyph d="M83 88V413L26 443V469Q74 474 125 484Q176 494 224 509H226V88Q226 67 234.5 54.5Q243 42 263 34L280 27V0H29V27L46 34Q66 42 74.5 54.5Q83 67 83 88ZM60 586Q44 586 35 578.5Q26 571 19 551L-18 562Q-15 621 9.5 651Q34 681 78 681Q91 681 107 677Q123 673 156 661Q182 652 193.5 649Q205 646 213 646Q229 646 238 653.5Q247 661 254 681L291 670Q288 611 263.5 581Q239 551 195 551Q182 551 166 555Q150 559 117 571Q91 580 79.5 583Q68 586 60 586Z" glyph-name="itilde" horiz-adv-x="299" unicode="&#297;" /><glyph d="M224 652Q224 616 199 591Q174 566 138 566Q102 566 77 591Q52 616 52 652Q52 688 77 713Q102 738 138 738Q174 738 199 713Q224 688 224 652ZM35 -249 7 -226Q33 -220 52.5 -180Q72 -140 72 -91V413L15 443V469Q63 474 114 484Q165 494 213 509H215V-56Q215 -139 164 -192Q113 -245 35 -249Z" glyph-name="j" horiz-adv-x="275" unicode="j" /><glyph d="M216 652Q216 616 191 591Q166 566 130 566Q94 566 69 591Q44 616 44 652Q44 688 69 713Q94 738 130 738Q166 738 191 713Q216 688 216 652ZM-124 -125Q-124 -103 -108.5 -87.5Q-93 -72 -72 -72Q-50 -72 -34.5 -87.5Q-19 -103 -19 -125Q-19 -147 -34.5 -162Q-50 -177 -72 -177Q-93 -177 -108.5 -161.5Q-124 -146 -124 -125ZM-52 -201Q0 -201 32 -167.5Q64 -134 64 -75V413L7 443V469Q55 474 106 484Q157 494 205 509H207V-54Q207 -140 159 -188.5Q111 -237 31 -237Q-4 -237 -37 -226.5Q-70 -216 -92 -200L-89 -197Q-81 -199 -72 -200Q-63 -201 -52 -201Z" glyph-name="j.alt" horiz-adv-x="275" /><glyph d="M35 -249 7 -226Q33 -220 52.5 -180Q72 -140 72 -91V413L15 443V469Q63 474 114 484Q165 494 213 509H215V-56Q215 -139 164 -192Q113 -245 35 -249ZM33 549H-26L83 702H155L264 549H205L119 608Z" glyph-name="jcircumflex" horiz-adv-x="275" unicode="&#309;" /><glyph d="M215 744H217V88Q217 66 226 53.5Q235 41 255 35L279 27V0H20V27L37 34Q57 42 65.5 54.5Q74 67 74 88V648L2 678V704Q55 710 109.5 720.5Q164 731 215 744ZM431 389 256 238V289L346 382Q371 408 367 429Q363 450 334 458L308 465V493H563V465Q550 462 530 453.5Q510 445 494 435Q477 424 460.5 412.5Q444 401 431 389ZM370 35 273 208 381 300 460 171Q506 96 528.5 67.5Q551 39 567 32L581 27V0H445Q416 0 398 8.5Q380 17 370 35Z" glyph-name="k" horiz-adv-x="575" unicode="k" /><glyph d="M396 -167Q396 -219 363 -266.5Q330 -314 269 -351L243 -325Q274 -301 296.5 -271Q319 -241 331 -207Q322 -212 312 -214.5Q302 -217 291 -217Q258 -217 235.5 -194Q213 -171 213 -138Q213 -105 237.5 -80Q262 -55 298 -55Q340 -55 368 -87.5Q396 -120 396 -167ZM215 744H217V88Q217 66 226 53.5Q235 41 255 35L279 27V0H20V27L37 34Q57 42 65.5 54.5Q74 67 74 88V648L2 678V704Q55 710 109.5 720.5Q164 731 215 744ZM431 389 256 238V289L346 382Q371 408 367 429Q363 450 334 458L308 465V493H563V465Q550 462 530 453.5Q510 445 494 435Q477 424 460.5 412.5Q444 401 431 389ZM370 35 273 208 381 300 460 171Q506 96 528.5 67.5Q551 39 567 32L581 27V0H445Q416 0 398 8.5Q380 17 370 35Z" glyph-name="kcommaaccent" horiz-adv-x="575" unicode="&#311;" /><glyph d="M224 405V88Q224 69 232.5 56.5Q241 44 259 37L285 27V0H27V27L46 35Q64 42 72.5 55.5Q81 69 81 88V405Q81 424 72.5 437.5Q64 451 46 458L27 466V493H285V466L259 456Q241 449 232.5 436.5Q224 424 224 405ZM308 159 255 249 374 377Q398 403 397.5 426Q397 449 369 456L330 465V493H575V465Q549 456 521 437.5Q493 419 465 392L381 313L475 171Q515 110 545 75Q575 40 595 32L609 27V0H487Q448 0 427 7.5Q406 15 392 31Q376 51 353.5 85Q331 119 308 159Z" glyph-name="kgreenlandic" horiz-adv-x="607" unicode="&#312;" /><glyph d="M216 744V88Q216 67 224.5 54.5Q233 42 253 34L270 27V0H19V27L36 34Q56 42 64.5 54.5Q73 67 73 88V648L1 678V704Q54 710 108.5 720.5Q163 731 214 744Z" glyph-name="l" horiz-adv-x="289" unicode="l" /><glyph d="M216 744V88Q216 67 224.5 54.5Q233 42 253 34L270 27V0H19V27L36 34Q56 42 64.5 54.5Q73 67 73 88V648L1 678V704Q54 710 108.5 720.5Q163 731 214 744ZM159 794H110L125 947H280Z" glyph-name="lacute" horiz-adv-x="289" unicode="&#314;" /><glyph d="M440 588Q440 536 407 488.5Q374 441 313 404L287 430Q318 454 340.5 484Q363 514 375 548Q366 543 356 540.5Q346 538 335 538Q302 538 279.5 561Q257 584 257 617Q257 650 281.5 675Q306 700 342 700Q384 700 412 667.5Q440 635 440 588ZM216 744V88Q216 67 224.5 54.5Q233 42 253 34L270 27V0H19V27L36 34Q56 42 64.5 54.5Q73 67 73 88V648L1 678V704Q54 710 108.5 720.5Q163 731 214 744Z" glyph-name="lcaron" horiz-adv-x="386" unicode="&#318;" /><glyph d="M216 744V88Q216 67 224.5 54.5Q233 42 253 34L270 27V0H19V27L36 34Q56 42 64.5 54.5Q73 67 73 88V648L1 678V704Q54 710 108.5 720.5Q163 731 214 744ZM243 -167Q243 -219 210 -266.5Q177 -314 116 -351L90 -325Q121 -301 143.5 -271Q166 -241 178 -207Q169 -212 159 -214.5Q149 -217 138 -217Q105 -217 82.5 -194Q60 -171 60 -138Q60 -105 84.5 -80Q109 -55 145 -55Q187 -55 215 -87.5Q243 -120 243 -167Z" glyph-name="lcommaaccent" horiz-adv-x="289" unicode="&#316;" /><glyph d="M216 744V88Q216 67 224.5 54.5Q233 42 253 34L270 27V0H19V27L36 34Q56 42 64.5 54.5Q73 67 73 88V648L1 678V704Q54 710 108.5 720.5Q163 731 214 744ZM451 304Q451 267 425 241.5Q399 216 362 216Q325 216 299.5 241.5Q274 267 274 304Q274 341 299.5 367Q325 393 362 393Q400 393 425.5 367.5Q451 342 451 304Z" glyph-name="ldot" horiz-adv-x="429" unicode="&#320;" /><glyph d="M460 217V151L43 329V387L460 565V499L122 358Z" glyph-name="less" horiz-adv-x="540" unicode="&lt;" /><glyph d="M378 110 339 74 27 359 339 644 378 608 226 400 697 406V312L226 318Z" glyph-name="less.alt" horiz-adv-x="735" unicode="&#8592;" /><glyph d="M471 217V151L54 329V387L471 565V499L133 358ZM471 0H54V59H471Z" glyph-name="lessequal" horiz-adv-x="540" unicode="&#8804;" /><glyph d="M474 247H411V410H57V468H474Z" glyph-name="logicalnot" horiz-adv-x="540" unicode="&#172;" /><glyph d="M624 -162Q606 -170 593 -170Q580 -170 562 -162Q333 -59 186.5 115.5Q40 290 40 475Q40 549 67 618Q94 687 142 737Q186 782 246.5 806Q307 830 377 830Q438 830 494.5 808Q551 786 599 744Q646 786 700.5 807Q755 828 816 828Q884 828 944 804Q1004 780 1048 734Q1096 685 1122.5 616Q1149 547 1149 473Q1149 288 1001.5 114.5Q854 -59 624 -162ZM345 25Q406 -24 476 -66.5Q546 -109 584 -124Q589 -126 593 -126Q597 -126 602 -124Q641 -108 711.5 -66Q782 -24 843 24Q896 66 938.5 110.5Q981 155 1014 203Q1058 268 1081.5 337Q1105 406 1105 474Q1105 541 1080.5 602.5Q1056 664 1011 708Q970 747 920.5 767Q871 787 813 787Q754 787 698.5 765Q643 743 595 700Q544 744 488.5 766Q433 788 374 788Q318 788 268.5 768Q219 748 179 710Q134 666 109 603.5Q84 541 84 473Q84 406 107 337Q130 268 174 205Q207 156 250 111Q293 66 345 25ZM363 522Q363 512 371 504Q379 496 389 496Q394 496 398.5 498Q403 500 406 504Q412 510 413 519Q414 528 410 538L347 697Q344 704 337 707Q330 710 323 707Q316 704 313 697Q310 690 313 683L347 597L249 575Q242 574 237.5 567.5Q233 561 235 553Q236 546 242.5 541.5Q249 537 257 539L361 562L370 540Q366 536 364.5 531.5Q363 527 363 522ZM847 515Q861 511 875.5 513Q890 515 902 522Q927 535 936.5 561.5Q946 588 934 611L901 678Q898 685 890.5 687Q883 689 876 686L741 612Q734 608 732 601Q730 594 734 587Q738 580 745 578Q752 576 759 580L786 595L812 545Q817 535 826.5 527Q836 519 847 515ZM416 655Q416 641 425.5 631.5Q435 622 448 622Q461 622 470.5 631.5Q480 641 480 654Q480 668 471 677.5Q462 687 448 687Q434 687 425 677.5Q416 668 416 655ZM688 521Q667 514 642.5 510Q618 506 593 506Q569 506 545.5 509.5Q522 513 501 520Q525 561 548 593.5Q571 626 595 650Q617 628 639.5 596Q662 564 688 521ZM885 553Q873 547 861.5 549Q850 551 844 561L818 613L877 645L902 595Q908 584 902.5 572Q897 560 885 553ZM894 301Q901 304 904 311Q907 318 904 324L864 414L897 429L912 396Q915 389 922 386.5Q929 384 936 387Q943 390 945.5 397Q948 404 945 411L930 445L961 460L993 388Q996 381 1003 378.5Q1010 376 1017 379Q1024 382 1026.5 389Q1029 396 1026 403L986 492Q985 496 982.5 498.5Q980 501 976 502Q973 503 969 502.5Q965 502 962 501L833 439Q826 435 823.5 428.5Q821 422 824 415L871 310Q874 303 880.5 300.5Q887 298 894 301ZM465 90Q467 85 471.5 82Q476 79 482 79H723Q731 79 736.5 84Q742 89 742 97Q742 105 737 110Q732 115 724 115H545Q640 165 679 210Q718 255 718 304Q718 356 684 392Q650 428 595 428Q539 428 501.5 395Q464 362 464 312Q464 275 489 247Q514 219 551 219Q584 219 606.5 239Q629 259 629 292Q629 313 618.5 324.5Q608 336 593 336Q579 336 569.5 326.5Q560 317 560 304Q560 296 564 289Q568 282 575 277Q579 273 572 264Q565 255 549 255Q529 255 515.5 272.5Q502 290 502 313Q502 349 527 371Q552 393 593 393Q631 393 654.5 368Q678 343 678 305Q678 270 652.5 237Q627 204 569 166Q553 156 534.5 145.5Q516 135 488 121Q477 115 473.5 113Q470 111 469 110Q465 105 464 100Q463 95 465 90ZM181 350Q189 348 195.5 351.5Q202 355 204 362L221 412L335 372Q342 369 349 372Q356 375 358 383Q361 390 357.5 397Q354 404 347 406L232 447L247 494Q249 502 245.5 508.5Q242 515 235 517Q228 519 221 515.5Q214 512 212 505L169 373Q167 366 170.5 359Q174 352 181 350ZM820 53Q768 11 707.5 -26.5Q647 -64 593 -90Q542 -66 481 -27Q420 12 367 54Q316 95 275 138Q234 181 204 226Q164 284 142.5 348Q121 412 121 474Q121 535 143 590Q165 645 205 684Q240 718 283.5 735Q327 752 377 752Q427 752 475.5 732.5Q524 713 569 675Q542 646 517 612.5Q492 579 470 540Q432 474 400.5 392Q369 310 347 221L297 231Q290 233 283.5 229Q277 225 276 218Q274 211 278.5 205Q283 199 290 198L425 169Q432 168 437.5 171.5Q443 175 445 182Q446 189 442.5 195Q439 201 432 203L384 213Q403 289 428.5 358.5Q454 428 484 487Q510 478 537.5 473Q565 468 593 468Q622 468 650.5 473Q679 478 705 488Q735 428 760.5 356Q786 284 803 212L755 202Q748 201 744 195Q740 189 741 182Q742 175 748.5 170.5Q755 166 762 168L897 196Q904 198 907.5 203.5Q911 209 910 216Q909 223 903 227.5Q897 232 890 230L841 220Q841 221 840.5 222Q840 223 840 223Q817 314 786 395.5Q755 477 717 543Q695 582 671.5 615Q648 648 622 674Q666 712 714.5 731.5Q763 751 813 751Q864 751 907.5 733.5Q951 716 985 682Q1024 643 1046 588.5Q1068 534 1068 473Q1068 411 1046.5 348Q1025 285 984 223Q953 179 912 136.5Q871 94 820 53ZM561 3Q561 -11 570.5 -20.5Q580 -30 593 -30Q606 -30 615.5 -20.5Q625 -11 625 2Q625 16 616 25.5Q607 35 593 35Q579 35 570 25.5Q561 16 561 3Z" glyph-name="logo" horiz-adv-x="1189" /><glyph d="M234 606V439H10V493H91V564Q91 652 147.5 708Q204 764 286 764Q352 764 395 730.5Q438 697 438 650Q438 627 422 610Q406 593 384 593Q362 593 346.5 607.5Q331 622 331 644Q331 649 332.5 655Q334 661 340 671Q344 680 345.5 684.5Q347 689 347 693Q347 702 337.5 707.5Q328 713 310 713Q276 713 255 685Q234 657 234 606ZM91 88V407H234V88Q234 70 242 59.5Q250 49 270 41L305 27V0H37V27L56 35Q74 42 82.5 55.5Q91 69 91 88Z" glyph-name="longs" horiz-adv-x="335" unicode="&#383;" /><glyph d="M820 350 411 -66 3 350 411 767Z" glyph-name="lozenge" horiz-adv-x="823" unicode="&#9674;" /><glyph d="M277 27V0H26V27L43 34Q63 42 71.5 54.5Q80 67 80 88V257L5 218V275L80 314V648L8 678V704Q61 710 115.5 720.5Q170 731 221 744H223V388L295 425V368L223 331V88Q223 67 231.5 54.5Q240 42 260 34Z" glyph-name="lslash" horiz-adv-x="299" unicode="&#322;" /><glyph d="M279 27V0H28V27L45 34Q65 42 73.5 54.5Q82 67 82 88V413L25 443V469Q73 474 124 484Q175 494 223 509H225V88Q225 67 233.5 54.5Q242 42 262 34ZM592 418Q582 418 571.5 416.5Q561 415 552 412Q551 418 547.5 426.5Q544 435 541 442Q569 472 605 490Q641 508 676 508Q739 508 777 463.5Q815 419 815 340V88Q815 67 823.5 54.5Q832 42 852 34L869 27V0H618V27L635 34Q655 42 663.5 54.5Q672 67 672 88V318Q672 366 651 392Q630 418 592 418ZM387 508Q447 508 486 464Q525 420 525 346V88Q525 67 533.5 54.5Q542 42 562 34L579 27V0H328V27L345 34Q365 42 373.5 54.5Q382 67 382 88V311Q382 363 360 390.5Q338 418 298 418Q289 418 278.5 416.5Q268 415 259 412V443Q288 475 320 491.5Q352 508 387 508Z" glyph-name="m" horiz-adv-x="884" unicode="m" /><glyph d="M355 586H70V661H355Z" glyph-name="macron" horiz-adv-x="425" unicode="&#175;" /><glyph d="M479 329H62V387H479Z" glyph-name="minus" horiz-adv-x="540" unicode="&#8722;" /><glyph d="M386 -15V413L329 443V469Q377 474 428 484Q479 494 527 509H529V64L586 34V8Q527 4 481.5 -1Q436 -6 386 -15ZM225 -15Q199 -15 177 -7Q155 1 139 17V-166H96V413L39 443V469Q87 474 138 484Q189 494 237 509H239V145Q239 105 259 83.5Q279 62 316 62Q323 62 332 63Q341 64 352 67V37Q330 14 295.5 -0.5Q261 -15 225 -15Z" glyph-name="mu" horiz-adv-x="627" unicode="&#181;" /><glyph d="M270 317 108 155 67 196 228 358 67 520 109 561 270 399 433 561 474 520 311 358 473 196 432 155Z" glyph-name="multiply" horiz-adv-x="540" unicode="&#215;" /><glyph d="M223 509H225V88Q225 66 234 53.5Q243 41 263 35L287 27V0H28V27L45 34Q65 42 73.5 54.5Q82 67 82 88V413L25 443V469Q73 474 124 484Q175 494 223 509ZM304 418Q295 418 285 416.5Q275 415 264 413V443Q287 472 319.5 490Q352 508 386 508Q457 508 493.5 463Q530 418 530 330V88Q530 67 538.5 54.5Q547 42 567 34L584 27V0H333V27L350 34Q370 42 378.5 54.5Q387 67 387 88V318Q387 369 366.5 393.5Q346 418 304 418Z" glyph-name="n" horiz-adv-x="599" unicode="n" /><glyph d="M223 509H225V88Q225 66 234 53.5Q243 41 263 35L287 27V0H28V27L45 34Q65 42 73.5 54.5Q82 67 82 88V413L25 443V469Q73 474 124 484Q175 494 223 509ZM304 418Q295 418 285 416.5Q275 415 264 413V443Q287 472 319.5 490Q352 508 386 508Q457 508 493.5 463Q530 418 530 330V88Q530 67 538.5 54.5Q547 42 567 34L584 27V0H333V27L350 34Q370 42 378.5 54.5Q387 67 387 88V318Q387 369 366.5 393.5Q346 418 304 418ZM321 579H272L287 732H442Z" glyph-name="nacute" horiz-adv-x="599" unicode="&#324;" /><glyph d="M374 509H376V88Q376 66 385 53.5Q394 41 414 35L438 27V0H179V27L196 34Q216 42 224.5 54.5Q233 67 233 88V413L176 443V469Q224 474 275 484Q326 494 374 509ZM455 418Q446 418 436 416.5Q426 415 415 413V443Q438 472 470.5 490Q503 508 537 508Q608 508 644.5 463Q681 418 681 330V88Q681 67 689.5 54.5Q698 42 718 34L735 27V0H484V27L501 34Q521 42 529.5 54.5Q538 67 538 88V318Q538 369 517.5 393.5Q497 418 455 418ZM198 619Q198 567 165 519.5Q132 472 71 435L45 461Q76 485 98.5 515Q121 545 133 579Q124 574 114 571.5Q104 569 93 569Q60 569 37.5 592Q15 615 15 648Q15 681 39.5 706Q64 731 100 731Q142 731 170 698.5Q198 666 198 619Z" glyph-name="napostrophe" horiz-adv-x="750" unicode="&#329;" /><glyph d="M223 509H225V88Q225 66 234 53.5Q243 41 263 35L287 27V0H28V27L45 34Q65 42 73.5 54.5Q82 67 82 88V413L25 443V469Q73 474 124 484Q175 494 223 509ZM304 418Q295 418 285 416.5Q275 415 264 413V443Q287 472 319.5 490Q352 508 386 508Q457 508 493.5 463Q530 418 530 330V88Q530 67 538.5 54.5Q547 42 567 34L584 27V0H333V27L350 34Q370 42 378.5 54.5Q387 67 387 88V318Q387 369 366.5 393.5Q346 418 304 418ZM261 579 152 732H211L297 673L383 732H442L333 579Z" glyph-name="ncaron" horiz-adv-x="599" unicode="&#328;" /><glyph d="M223 509H225V88Q225 66 234 53.5Q243 41 263 35L287 27V0H28V27L45 34Q65 42 73.5 54.5Q82 67 82 88V413L25 443V469Q73 474 124 484Q175 494 223 509ZM304 418Q295 418 285 416.5Q275 415 264 413V443Q287 472 319.5 490Q352 508 386 508Q457 508 493.5 463Q530 418 530 330V88Q530 67 538.5 54.5Q547 42 567 34L584 27V0H333V27L350 34Q370 42 378.5 54.5Q387 67 387 88V318Q387 369 366.5 393.5Q346 418 304 418ZM395 -157Q395 -209 362 -256.5Q329 -304 268 -341L242 -315Q273 -291 295.5 -261Q318 -231 330 -197Q321 -202 311 -204.5Q301 -207 290 -207Q257 -207 234.5 -184Q212 -161 212 -128Q212 -95 236.5 -70Q261 -45 297 -45Q339 -45 367 -77.5Q395 -110 395 -157Z" glyph-name="ncommaaccent" horiz-adv-x="599" unicode="&#326;" /><glyph d="M390 471Q390 557 368 608Q346 659 304 670V715Q421 709 493 632Q565 555 565 435Q565 354 527.5 275Q490 196 421 130Q358 70 279 29Q200 -12 116 -27L104 -6Q253 87 321.5 204Q390 321 390 471ZM317 269Q302 266 285 264Q268 262 250 262Q156 262 90.5 321.5Q25 381 25 472Q25 569 93 639Q161 709 270 715V671Q233 664 211.5 622Q190 580 190 514Q190 440 231 381Q272 322 333 314Q330 303 325.5 291Q321 279 317 269Z" glyph-name="nine" horiz-adv-x="604" unicode="9" /><glyph d="M358 261Q358 166 278.5 85.5Q199 5 89 -16L81 -4Q142 35 178 76.5Q214 118 233 168Q219 163 202 160Q185 157 169 157Q113 157 73.5 193Q34 229 34 283Q34 346 77 387.5Q120 429 192 429Q266 429 312 382.5Q358 336 358 261ZM133 308Q133 256 160 225Q187 194 231 194Q234 194 236.5 194Q239 194 242 194Q248 215 250.5 237.5Q253 260 253 283Q253 341 236.5 372Q220 403 189 403Q163 403 148 377.5Q133 352 133 308Z" glyph-name="nine.dnom" horiz-adv-x="400" /><glyph d="M358 547Q358 452 278.5 371.5Q199 291 89 270L81 282Q142 321 178 362.5Q214 404 233 454Q219 449 202 446Q185 443 169 443Q113 443 73.5 479Q34 515 34 569Q34 632 77 673.5Q120 715 192 715Q266 715 312 668.5Q358 622 358 547ZM133 594Q133 542 160 511Q187 480 231 480Q234 480 236.5 480Q239 480 242 480Q248 501 250.5 523.5Q253 546 253 569Q253 627 236.5 658Q220 689 189 689Q163 689 148 663.5Q133 638 133 594Z" glyph-name="nine.numr" horiz-adv-x="400" /><glyph d="M348 311Q348 389 328.5 436Q309 483 273 493V536Q376 530 440 458.5Q504 387 504 278Q504 204 471 132Q438 60 377 -1Q321 -56 250 -94Q179 -132 104 -147L93 -128Q226 -42 287 65.5Q348 173 348 311ZM281 133Q264 129 248.5 127Q233 125 219 125Q134 125 78 177Q22 229 22 312Q22 401 82 465.5Q142 530 239 535V494Q207 487 188.5 449.5Q170 412 170 351Q170 275 202.5 225Q235 175 290 167Q288 158 286 149.5Q284 141 281 133Z" glyph-name="nine.pnum" horiz-adv-x="539" /><glyph d="M388 471Q388 557 366 608Q344 659 302 670V715Q419 709 491 632Q563 555 563 435Q563 354 525.5 275Q488 196 419 130Q356 70 277 29Q198 -12 114 -27L102 -6Q251 87 319.5 204Q388 321 388 471ZM315 269Q300 266 283 264Q266 262 248 262Q154 262 88.5 321.5Q23 381 23 472Q23 569 91 639Q159 709 268 715V671Q231 664 209.5 622Q188 580 188 514Q188 440 229 381Q270 322 331 314Q328 303 323.5 291Q319 279 315 269Z" glyph-name="nine.tnum" horiz-adv-x="600" /><glyph d="M358 161Q358 66 278.5 -14.5Q199 -95 89 -116L81 -104Q142 -65 178 -23.5Q214 18 233 68Q219 63 202 60Q185 57 169 57Q113 57 73.5 93Q34 129 34 183Q34 246 77 287.5Q120 329 192 329Q266 329 312 282.5Q358 236 358 161ZM133 208Q133 156 160 125Q187 94 231 94Q234 94 236.5 94Q239 94 242 94Q248 115 250.5 137.5Q253 160 253 183Q253 241 236.5 272Q220 303 189 303Q163 303 148 277.5Q133 252 133 208Z" glyph-name="nineinferior" horiz-adv-x="400" unicode="&#8329;" /><glyph d="M358 647Q358 552 278.5 471.5Q199 391 89 370L81 382Q142 421 178 462.5Q214 504 233 554Q219 549 202 546Q185 543 169 543Q113 543 73.5 579Q34 615 34 669Q34 732 77 773.5Q120 815 192 815Q266 815 312 768.5Q358 722 358 647ZM133 694Q133 642 160 611Q187 580 231 580Q234 580 236.5 580Q239 580 242 580Q248 601 250.5 623.5Q253 646 253 669Q253 727 236.5 758Q220 789 189 789Q163 789 148 763.5Q133 738 133 694Z" glyph-name="ninesuperior" horiz-adv-x="400" unicode="&#8313;" /><glyph d="M479 286V227H245L212 157L159 180L181 227H62V286H209L276 429H62V488H303L336 558L389 535L367 488H479V429H339L272 286Z" glyph-name="notequal" horiz-adv-x="540" unicode="&#8800;" /><glyph d="M223 509H225V88Q225 66 234 53.5Q243 41 263 35L287 27V0H28V27L45 34Q65 42 73.5 54.5Q82 67 82 88V413L25 443V469Q73 474 124 484Q175 494 223 509ZM304 418Q295 418 285 416.5Q275 415 264 413V443Q287 472 319.5 490Q352 508 386 508Q457 508 493.5 463Q530 418 530 330V88Q530 67 538.5 54.5Q547 42 567 34L584 27V0H333V27L350 34Q370 42 378.5 54.5Q387 67 387 88V318Q387 369 366.5 393.5Q346 418 304 418ZM221 616Q205 616 196 608.5Q187 601 180 581L143 592Q146 651 170.5 681Q195 711 239 711Q252 711 268 707Q284 703 317 691Q343 682 354.5 679Q366 676 374 676Q390 676 399 683.5Q408 691 415 711L452 700Q449 641 424.5 611Q400 581 356 581Q343 581 327 585Q311 589 278 601Q252 610 240.5 613Q229 616 221 616Z" glyph-name="ntilde" horiz-adv-x="599" unicode="&#241;" /><glyph d="M389 227H266V286H389V429H266V488H389V700H452V488H580V429H452V286H580V227H452V0H389ZM232 700V0H171V227H42V286H171V429H42V488H171V700Z" glyph-name="numbersign" horiz-adv-x="622" unicode="#" /><glyph d="M181 246Q181 149 202 92.5Q223 36 262 26V-14Q163 -7 94.5 68Q26 143 26 246Q26 350 94 425Q162 500 262 507V467Q223 457 202 400Q181 343 181 246ZM378 246Q378 344 357 400.5Q336 457 296 467V507Q396 500 464.5 424.5Q533 349 533 246Q533 143 464.5 68Q396 -7 296 -14V26Q336 36 357 92.5Q378 149 378 246Z" glyph-name="o" horiz-adv-x="559" unicode="o" /><glyph d="M181 246Q181 149 202 92.5Q223 36 262 26V-14Q163 -7 94.5 68Q26 143 26 246Q26 350 94 425Q162 500 262 507V467Q223 457 202 400Q181 343 181 246ZM378 246Q378 344 357 400.5Q336 457 296 467V507Q396 500 464.5 424.5Q533 349 533 246Q533 143 464.5 68Q396 -7 296 -14V26Q336 36 357 92.5Q378 149 378 246ZM303 569H254L269 722H424Z" glyph-name="oacute" horiz-adv-x="559" unicode="&#243;" /><glyph d="M181 246Q181 149 202 92.5Q223 36 262 26V-14Q163 -7 94.5 68Q26 143 26 246Q26 350 94 425Q162 500 262 507V467Q223 457 202 400Q181 343 181 246ZM378 246Q378 344 357 400.5Q336 457 296 467V507Q396 500 464.5 424.5Q533 349 533 246Q533 143 464.5 68Q396 -7 296 -14V26Q336 36 357 92.5Q378 149 378 246ZM279 568Q212 568 175.5 604.5Q139 641 139 704V732H189V726Q189 695 211.5 679.5Q234 664 279 664Q324 664 346.5 679.5Q369 695 369 726V732H419V704Q419 641 382.5 604.5Q346 568 279 568Z" glyph-name="obreve" horiz-adv-x="559" unicode="&#335;" /><glyph d="M181 246Q181 149 202 92.5Q223 36 262 26V-14Q163 -7 94.5 68Q26 143 26 246Q26 350 94 425Q162 500 262 507V467Q223 457 202 400Q181 343 181 246ZM378 246Q378 344 357 400.5Q336 457 296 467V507Q396 500 464.5 424.5Q533 349 533 246Q533 143 464.5 68Q396 -7 296 -14V26Q336 36 357 92.5Q378 149 378 246ZM193 569H134L243 722H315L424 569H365L279 628Z" glyph-name="ocircumflex" horiz-adv-x="559" unicode="&#244;" /><glyph d="M181 246Q181 149 202 92.5Q223 36 262 26V-14Q163 -7 94.5 68Q26 143 26 246Q26 350 94 425Q162 500 262 507V467Q223 457 202 400Q181 343 181 246ZM378 246Q378 344 357 400.5Q336 457 296 467V507Q396 500 464.5 424.5Q533 349 533 246Q533 143 464.5 68Q396 -7 296 -14V26Q336 36 357 92.5Q378 149 378 246ZM451 653Q451 623 430 601.5Q409 580 379 580Q349 580 328 601.5Q307 623 307 653Q307 683 328 704.5Q349 726 379 726Q409 726 430 704.5Q451 683 451 653ZM261 653Q261 623 240 601.5Q219 580 189 580Q159 580 138 601.5Q117 623 117 653Q117 683 138 704.5Q159 726 189 726Q219 726 240 704.5Q261 683 261 653Z" glyph-name="odieresis" horiz-adv-x="559" unicode="&#246;" /><glyph d="M603 110V-14Q558 -11 519 6Q480 23 450 53Q418 23 378.5 5.5Q339 -12 296 -14V26Q336 36 357 92.5Q378 149 378 246Q378 344 357 400.5Q336 457 296 467V507Q339 505 379 487Q419 469 452 438Q481 468 519.5 485.5Q558 503 603 507V467Q571 457 553 417.5Q535 378 533 312L697 315Q701 382 685.5 422.5Q670 463 637 469V508Q726 504 780.5 444.5Q835 385 835 294V273H529V262Q529 210 548 171Q567 132 603 110ZM26 246Q26 350 94 425Q162 500 262 507V467Q223 457 202 400Q181 343 181 246Q181 149 202 92.5Q223 36 262 26V-14Q163 -7 94.5 68Q26 143 26 246ZM637 -15V94Q648 90 660 88.5Q672 87 685 87Q725 87 757 102Q789 117 809 146L832 137Q812 68 761 28.5Q710 -11 637 -15Z" glyph-name="oe" horiz-adv-x="861" unicode="&#339;" /><glyph d="M236 -161Q243 -161 245.5 -161Q248 -161 255 -160L245 -195Q225 -202 205.5 -206Q186 -210 169 -210Q122 -210 92.5 -186Q63 -162 63 -124Q63 -81 103 -40Q143 1 204 24L221 18Q198 -12 182 -47.5Q166 -83 166 -107Q166 -132 185 -146.5Q204 -161 236 -161Z" glyph-name="ogonek" horiz-adv-x="280" unicode="&#731;" /><glyph d="M181 246Q181 149 202 92.5Q223 36 262 26V-14Q163 -7 94.5 68Q26 143 26 246Q26 350 94 425Q162 500 262 507V467Q223 457 202 400Q181 343 181 246ZM378 246Q378 344 357 400.5Q336 457 296 467V507Q396 500 464.5 424.5Q533 349 533 246Q533 143 464.5 68Q396 -7 296 -14V26Q336 36 357 92.5Q378 149 378 246ZM304 569H255L134 722H289Z" glyph-name="ograve" horiz-adv-x="559" unicode="&#242;" /><glyph d="M181 246Q181 149 202 92.5Q223 36 262 26V-14Q163 -7 94.5 68Q26 143 26 246Q26 350 94 425Q162 500 262 507V467Q223 457 202 400Q181 343 181 246ZM378 246Q378 344 357 400.5Q336 457 296 467V507Q396 500 464.5 424.5Q533 349 533 246Q533 143 464.5 68Q396 -7 296 -14V26Q336 36 357 92.5Q378 149 378 246ZM395 569H346L361 722H516ZM205 569H156L171 722H326Z" glyph-name="ohungarumlaut" horiz-adv-x="559" unicode="&#337;" /><glyph d="M181 246Q181 149 202 92.5Q223 36 262 26V-14Q163 -7 94.5 68Q26 143 26 246Q26 350 94 425Q162 500 262 507V467Q223 457 202 400Q181 343 181 246ZM378 246Q378 344 357 400.5Q336 457 296 467V507Q396 500 464.5 424.5Q533 349 533 246Q533 143 464.5 68Q396 -7 296 -14V26Q336 36 357 92.5Q378 149 378 246ZM422 586H137V661H422Z" glyph-name="omacron" horiz-adv-x="559" unicode="&#333;" /><glyph d="M324 715V652L37 551V612ZM161 114V561L324 618V114Q324 83 335.5 70Q347 57 374 54L440 47V0H45V47L111 54Q138 57 149.5 69.5Q161 82 161 114Z" glyph-name="one" horiz-adv-x="450" unicode="1" /><glyph d="M327 28V0H90V28L129 32Q145 34 152 41.5Q159 49 159 68V355L89 346V371L231 425H257V68Q257 50 264 42Q271 34 287 32Z" glyph-name="one.dnom" horiz-adv-x="400" /><glyph d="M327 314V286H90V314L129 318Q145 320 152 327.5Q159 335 159 354V641L89 632V657L231 711H257V354Q257 336 264 328Q271 320 287 318Z" glyph-name="one.numr" horiz-adv-x="400" /><glyph d="M269 532V482L38 400V448ZM130 99V399L269 447V99Q269 72 278 61Q287 50 312 44L353 34V0H45V34L87 44Q112 50 121 61Q130 72 130 99Z" glyph-name="one.pnum" horiz-adv-x="379" /><glyph d="M400 715V652L113 551V612ZM237 114V561L400 618V114Q400 83 411.5 70Q423 57 450 54L516 47V0H121V47L187 54Q214 57 225.5 69.5Q237 82 237 114Z" glyph-name="one.tnum" horiz-adv-x="600" /><glyph d="M620 312Q620 361 661.5 395Q703 429 770 429Q832 429 869 401.5Q906 374 906 333Q906 301 881.5 277Q857 253 821 245V244Q875 219 897.5 190Q920 161 920 121Q920 68 874 29.5Q828 -9 758 -9Q689 -9 647.5 22Q606 53 606 105Q606 140 630.5 168Q655 196 694 207V208Q659 224 639.5 252Q620 280 620 312ZM837 337Q837 367 818.5 385.5Q800 404 770 404Q742 404 723.5 387Q705 370 705 343Q705 321 720.5 303Q736 285 770 269L793 258Q812 272 824.5 294.5Q837 317 837 337ZM678 106Q678 70 701.5 46Q725 22 762 22Q794 22 815 41.5Q836 61 836 92Q836 117 817 136Q798 155 737 185L719 194Q700 177 689 153Q678 129 678 106ZM318 314V286H81V314L120 318Q136 320 143 327.5Q150 335 150 354V641L80 632V657L222 711H248V354Q248 336 255 328Q262 320 278 318ZM815 700 249 0H199L765 700Z" glyph-name="oneeight" horiz-adv-x="1000" unicode="&#8539;" /><glyph d="M910 83 896 0H608V26L684 100Q741 155 767 199.5Q793 244 793 286Q793 321 771 343.5Q749 366 718 366Q690 366 667.5 350.5Q645 335 633 307L610 316Q627 367 669.5 398Q712 429 762 429Q822 429 857.5 395Q893 361 893 307Q893 269 867 230.5Q841 192 760 128L703 83ZM328 314V286H91V314L130 318Q146 320 153 327.5Q160 335 160 354V641L90 632V657L232 711H258V354Q258 336 265 328Q272 320 288 318ZM815 700 249 0H199L765 700Z" glyph-name="onehalf" horiz-adv-x="1000" unicode="&#189;" /><glyph d="M327 -72V-100H90V-72L129 -68Q145 -66 152 -58.5Q159 -51 159 -32V255L89 246V271L231 325H257V-32Q257 -50 264 -58Q271 -66 287 -68Z" glyph-name="oneinferior" horiz-adv-x="400" unicode="&#8321;" /><glyph d="M898 20V0H698V20L730 31Q743 36 747 41Q751 46 751 56V101H580L574 133L755 429H826L614 153H751V247L844 268V154H914L910 101H844V56Q844 47 848 42Q852 37 866 31ZM324 314V286H87V314L126 318Q142 320 149 327.5Q156 335 156 354V641L86 632V657L228 711H254V354Q254 336 261 328Q268 320 284 318ZM817 700 251 0H201L767 700Z" glyph-name="onequarter" horiz-adv-x="1000" unicode="&#188;" /><glyph d="M327 414V386H90V414L129 418Q145 420 152 427.5Q159 435 159 454V741L89 732V757L231 811H257V454Q257 436 264 428Q271 420 287 418Z" glyph-name="onesuperior" horiz-adv-x="400" unicode="&#185;" /><glyph d="M910 121Q910 64 865.5 27.5Q821 -9 745 -9Q691 -9 652.5 13.5Q614 36 614 68Q614 83 626.5 95Q639 107 655 107Q667 107 676 99Q685 91 696 65Q709 35 720.5 25.5Q732 16 749 16Q780 16 800 36.5Q820 57 820 87Q820 119 794.5 147Q769 175 713 203L712 213L728 222Q770 244 789.5 267Q809 290 809 317Q809 344 789.5 361Q770 378 740 378Q712 378 689.5 366.5Q667 355 642 327L625 337Q641 374 683.5 401.5Q726 429 778 429Q831 429 863.5 402.5Q896 376 896 337Q896 306 876.5 283Q857 260 817 246L808 243Q855 226 882.5 193.5Q910 161 910 121ZM327 314V286H90V314L129 318Q145 320 152 327.5Q159 335 159 354V641L89 632V657L231 711H257V354Q257 336 264 328Q271 320 287 318ZM815 700 249 0H199L765 700Z" glyph-name="onethird" horiz-adv-x="999" unicode="&#8531;" /><glyph d="M398 192Q354 192 326.5 215.5Q299 239 299 280V547Q299 599 274 626.5Q249 654 204 654Q175 654 151.5 643Q128 632 128 620Q128 616 130.5 612.5Q133 609 143 604Q160 596 165.5 586Q171 576 171 562Q171 540 155.5 526Q140 512 119 512Q95 512 78.5 529.5Q62 547 62 573Q62 629 123.5 672Q185 715 266 715Q348 715 395 673.5Q442 632 442 557V302Q442 281 450.5 270.5Q459 260 477 260Q483 260 492 262.5Q501 265 506 267L511 243Q493 220 462 206Q431 192 398 192ZM275 229Q257 213 227 202.5Q197 192 170 192Q113 192 76 226.5Q39 261 39 317Q39 364 68.5 397.5Q98 431 151 446L265 479V441L239 428Q210 414 196 393Q182 372 182 343Q182 304 199 280.5Q216 257 244 257Q250 257 256 258Q262 259 266 260Q266 252 268.5 244Q271 236 275 229Z" glyph-name="ordfeminine" horiz-adv-x="539" unicode="&#170;" /><glyph d="M193 453Q193 356 214 299.5Q235 243 274 233V193Q175 200 106.5 275Q38 350 38 453Q38 557 106 632Q174 707 274 714V674Q235 664 214 607Q193 550 193 453ZM390 453Q390 551 369 607.5Q348 664 308 674V714Q408 707 476.5 631.5Q545 556 545 453Q545 350 476.5 275Q408 200 308 193V233Q348 243 369 299.5Q390 356 390 453Z" glyph-name="ordmasculine" horiz-adv-x="583" unicode="&#186;" /><glyph d="M638 251Q638 142 559.5 63.5Q481 -15 371 -15Q229 -15 135.5 83Q42 181 42 336Q42 493 152.5 604Q263 715 420 715Q470 715 518.5 703Q567 691 609 668L600 653Q561 675 515 686.5Q469 698 421 698Q273 698 167.5 591.5Q62 485 62 336Q62 264 86.5 199.5Q111 135 156 86L158 88Q132 124 118 166Q104 208 104 251Q104 361 182.5 439Q261 517 372 517Q482 517 560 439Q638 361 638 251Z" glyph-name="orn.1" horiz-adv-x="675" /><glyph d="M633 364Q633 207 522.5 96Q412 -15 255 -15Q205 -15 156.5 -3Q108 9 66 32L75 47Q114 25 160 13.5Q206 2 254 2Q402 2 507.5 108.5Q613 215 613 364Q613 436 588.5 500.5Q564 565 519 614L517 612Q543 576 557 534Q571 492 571 449Q571 339 492.5 261Q414 183 303 183Q193 183 115 261Q37 339 37 449Q37 558 115.5 636.5Q194 715 304 715Q446 715 539.5 617Q633 519 633 364Z" glyph-name="orn.2" horiz-adv-x="675" /><glyph d="M865 501Q865 390 765 262Q665 134 467 -6V521Q467 612 520 666.5Q573 721 661 721Q751 721 808 659.5Q865 598 865 501ZM239 721Q327 721 380 666.5Q433 612 433 521V-6Q235 134 135 262Q35 390 35 501Q35 598 92 659.5Q149 721 239 721Z" glyph-name="orn.3" horiz-adv-x="900" /><glyph d="M743 726 808 661 613 494H576V531ZM288 531V494H252L53 661L120 726ZM432 258Q469 258 496.5 285.5Q524 313 524 350Q524 387 496.5 414.5Q469 442 432 442Q393 442 366 415Q339 388 339 350Q339 312 366 285Q393 258 432 258ZM479 350Q479 369 465 383Q451 397 432 397Q413 397 398.5 383Q384 369 384 350Q384 331 398 317Q412 303 432 303Q451 303 465 317Q479 331 479 350ZM127 281Q100 296 78 313Q56 330 38 350Q56 370 78 387Q100 404 127 419Q155 434 182.5 441.5Q210 449 236 449Q268 449 300 442Q332 435 357 423Q344 453 338 484Q332 515 332 546Q332 572 340 599Q348 626 363 654Q378 681 395 703Q412 725 432 743Q452 725 469 703Q486 681 500 654Q516 626 523.5 599Q531 572 531 546Q531 515 525 484Q519 453 506 423Q534 436 565 442.5Q596 449 628 449Q654 449 681 441.5Q708 434 736 419Q762 404 784.5 387Q807 370 825 350Q807 330 785 313Q763 296 736 282Q708 266 681 258.5Q654 251 628 251Q596 251 565.5 257.5Q535 264 506 276Q518 247 524.5 216.5Q531 186 531 154Q531 128 523.5 101Q516 74 501 46Q486 20 469 -2.5Q452 -25 432 -43Q412 -25 395 -3Q378 19 363 46Q348 74 340 101Q332 128 332 154Q332 186 338.5 216.5Q345 247 357 276Q331 264 299 257.5Q267 251 236 251Q210 251 182.5 258.5Q155 266 127 281ZM576 206H613L808 39L743 -26L576 169ZM53 39 252 206H288V169L120 -26Z" glyph-name="orn.4" horiz-adv-x="862" /><glyph d="M381 366H40Q46 508 144 608.5Q242 709 381 716ZM757 366H415V716Q554 709 652.5 608.5Q751 508 757 366ZM381 334V-15Q242 -8 144 92Q46 192 40 334ZM415 334H757Q751 193 652.5 92.5Q554 -8 415 -15Z" glyph-name="orn.5" horiz-adv-x="797" /><glyph d="M757 350Q757 199 652.5 92Q548 -15 399 -15Q250 -15 145 92Q40 199 40 350Q40 501 145 608.5Q250 716 399 716Q547 716 652 609Q757 502 757 350ZM399 93 431 125 247 323 652 321V378L247 377L431 575L399 607L134 350Z" glyph-name="orn.6" horiz-adv-x="797" /><glyph d="M757 350Q757 199 652 92Q547 -15 398 -15Q249 -15 144.5 92Q40 199 40 350Q40 502 145 609Q250 716 398 716Q547 716 652 608.5Q757 501 757 350ZM550 323 366 125 398 93 663 350 398 607 366 575 550 377 145 378V321Z" glyph-name="orn.7" horiz-adv-x="797" /><glyph d="M262 26V-14Q230 -12 199.5 -1.5Q169 9 142 27L96 -34L62 -9L109 53Q69 90 47.5 140.5Q26 191 26 246Q26 350 94 425Q162 500 262 507V467Q223 457 202 400Q181 343 181 246Q181 221 182.5 198.5Q184 176 187 157L361 390Q350 423 333.5 442.5Q317 462 296 467V507Q328 505 359 494.5Q390 484 417 466L463 527L497 502L450 439Q490 403 511.5 352.5Q533 302 533 246Q533 143 464.5 68Q396 -7 296 -14V26Q336 36 357 92.5Q378 149 378 246Q378 272 376.5 294Q375 316 372 335L198 103Q208 70 224.5 50.5Q241 31 262 26Z" glyph-name="oslash" horiz-adv-x="559" unicode="&#248;" /><glyph d="M181 246Q181 149 202 92.5Q223 36 262 26V-14Q163 -7 94.5 68Q26 143 26 246Q26 350 94 425Q162 500 262 507V467Q223 457 202 400Q181 343 181 246ZM378 246Q378 344 357 400.5Q336 457 296 467V507Q396 500 464.5 424.5Q533 349 533 246Q533 143 464.5 68Q396 -7 296 -14V26Q336 36 357 92.5Q378 149 378 246ZM203 606Q187 606 178 598.5Q169 591 162 571L125 582Q128 641 152.5 671Q177 701 221 701Q234 701 250 697Q266 693 299 681Q325 672 336.5 669Q348 666 356 666Q372 666 381 673.5Q390 681 397 701L434 690Q431 631 406.5 601Q382 571 338 571Q325 571 309 575Q293 579 260 591Q234 600 222.5 603Q211 606 203 606Z" glyph-name="otilde" horiz-adv-x="559" unicode="&#245;" /><glyph d="M252 -184 276 -192V-219H17V-192L34 -185Q54 -177 62.5 -164.5Q71 -152 71 -131V413L14 443V469Q62 474 113 484Q164 494 212 509H214V-131Q214 -153 223 -165.5Q232 -178 252 -184ZM314 -15Q298 -15 281.5 -12.5Q265 -10 248 -6V32Q257 30 267 29Q277 28 287 28Q352 28 385.5 77.5Q419 127 419 222Q419 326 384 380.5Q349 435 281 435Q274 435 265.5 434.5Q257 434 248 432V461Q270 483 300 495.5Q330 508 364 508Q457 508 515 441.5Q573 375 573 262Q573 144 501 64.5Q429 -15 314 -15Z" glyph-name="p" horiz-adv-x="600" unicode="p" /><glyph d="M564 -186H506V700H564ZM327 -67V219H273Q173 219 103 289Q33 359 33 459Q33 559 103.5 629.5Q174 700 273 700H385V-62Q385 -143 340 -190.5Q295 -238 223 -238Q169 -238 131.5 -210Q94 -182 94 -138Q94 -110 112.5 -92Q131 -74 156 -74Q180 -74 197.5 -92.5Q215 -111 215 -138Q215 -150 209 -163.5Q203 -177 193 -187Q197 -188 205.5 -189Q214 -190 218 -190Q267 -190 297 -154.5Q327 -119 327 -67Z" glyph-name="paragraph" horiz-adv-x="648" unicode="&#182;" /><glyph d="M303 -154 262 -191Q159 -103 95 25Q31 153 31 275Q31 399 95 527Q159 655 263 742L304 706Q213 615 163.5 503.5Q114 392 114 275Q114 160 163.5 48.5Q213 -63 303 -154Z" glyph-name="parenleft" horiz-adv-x="310" unicode="(" /><glyph d="M310 -84 269 -121Q166 -33 102 95Q38 223 38 345Q38 469 102 597Q166 725 270 812L311 776Q220 685 170.5 573.5Q121 462 121 345Q121 230 170.5 118.5Q220 7 310 -84Z" glyph-name="parenleft.case" horiz-adv-x="330" /><glyph d="M279 276Q279 152 215 24Q151 -104 47 -191L6 -155Q97 -64 146.5 47.5Q196 159 196 276Q196 391 146.5 502.5Q97 614 7 705L48 742Q151 654 215 526Q279 398 279 276Z" glyph-name="parenright" horiz-adv-x="310" unicode=")" /><glyph d="M291 346Q291 222 227 94Q163 -34 59 -121L18 -85Q109 6 158.5 117.5Q208 229 208 346Q208 461 158.5 572.5Q109 684 19 775L60 812Q163 724 227 596Q291 468 291 346Z" glyph-name="parenright.case" horiz-adv-x="329" /><glyph d="M380 234Q380 275 375.5 313.5Q371 352 361 388Q351 426 336.5 461.5Q322 497 302 530Q283 562 259 592.5Q235 623 206 651Q176 681 135 714.5Q94 748 89 752L109 776Q299 690 417.5 552Q536 414 536 265Q536 146 469 69Q402 -8 296 -14V25Q336 34 358 88.5Q380 143 380 234ZM290 472Q294 464 297.5 455.5Q301 447 304 436H294Q242 436 211.5 382.5Q181 329 181 234Q181 142 202 88Q223 34 262 25V-13Q160 -8 93 61.5Q26 131 26 235Q26 338 91.5 406Q157 474 254 474Q269 474 276.5 473.5Q284 473 290 472Z" glyph-name="partialdiff" horiz-adv-x="564" unicode="&#8706;" /><glyph d="M278 534Q278 611 265.5 639.5Q253 668 224 673V714Q291 708 335 655Q379 602 379 534Q379 466 335 413Q291 360 224 354V395Q253 400 265.5 428.5Q278 457 278 534ZM135 534Q135 458 147.5 429Q160 400 190 394V354Q123 360 79 413Q35 466 35 534Q35 602 79 655Q123 708 190 714V674Q160 668 147.5 639Q135 610 135 534ZM706 700 153 0H94L647 700ZM525 166Q525 90 537.5 61Q550 32 580 26V-14Q513 -8 469 45Q425 98 425 166Q425 234 469 287Q513 340 580 346V306Q550 300 537.5 271Q525 242 525 166ZM668 166Q668 243 655.5 271.5Q643 300 614 305V346Q681 340 725 287Q769 234 769 166Q769 98 725 45Q681 -8 614 -14V27Q643 32 655.5 60.5Q668 89 668 166Z" glyph-name="percent" horiz-adv-x="803" unicode="%" /><glyph d="M230 79Q230 40 202.5 12.5Q175 -15 136 -15Q97 -15 69.5 12.5Q42 40 42 79Q42 118 69.5 145.5Q97 173 136 173Q175 173 202.5 145.5Q230 118 230 79Z" glyph-name="period" horiz-adv-x="272" unicode="." /><glyph d="M223 389Q223 352 197 326.5Q171 301 134 301Q97 301 71.5 326.5Q46 352 46 389Q46 426 71.5 452Q97 478 134 478Q172 478 197.5 452.5Q223 427 223 389Z" glyph-name="periodcentered" horiz-adv-x="268" unicode="&#183;" /><glyph d="M278 534Q278 611 265.5 639.5Q253 668 224 673V714Q291 708 335 655Q379 602 379 534Q379 466 335 413Q291 360 224 354V395Q253 400 265.5 428.5Q278 457 278 534ZM135 534Q135 458 147.5 429Q160 400 190 394V354Q123 360 79 413Q35 466 35 534Q35 602 79 655Q123 708 190 714V674Q160 668 147.5 639Q135 610 135 534ZM706 700 153 0H94L647 700ZM525 166Q525 90 537.5 61Q550 32 580 26V-14Q513 -8 469 45Q425 98 425 166Q425 234 469 287Q513 340 580 346V306Q550 300 537.5 271Q525 242 525 166ZM668 166Q668 243 655.5 271.5Q643 300 614 305V346Q681 340 725 287Q769 234 769 166Q769 98 725 45Q681 -8 614 -14V27Q643 32 655.5 60.5Q668 89 668 166ZM919 166Q919 90 931.5 61Q944 32 974 26V-14Q907 -8 863 45Q819 98 819 166Q819 234 863 287Q907 340 974 346V306Q944 300 931.5 271Q919 242 919 166ZM1062 166Q1062 243 1049.5 271.5Q1037 300 1008 305V346Q1075 340 1119 287Q1163 234 1163 166Q1163 98 1119 45Q1075 -8 1008 -14V27Q1037 32 1049.5 60.5Q1062 89 1062 166Z" glyph-name="perthousand" horiz-adv-x="1195" unicode="&#8240;" /><glyph d="M636 62 647 28Q621 10 582.5 -2.5Q544 -15 508 -15Q438 -15 405 16.5Q372 48 372 113V439H26V493H632V439H515V166Q515 98 533 75Q551 52 592 52Q602 52 613.5 54.5Q625 57 636 62ZM83 88V406H226V88Q226 67 234.5 54.5Q243 42 263 34L280 27V0H29V27L46 34Q66 42 74.5 54.5Q83 67 83 88Z" glyph-name="pi" horiz-adv-x="661" unicode="&#960;" /><glyph d="M300 150H237V329H61V387H237V566H300V387H478V329H300Z" glyph-name="plus" horiz-adv-x="540" unicode="+" /><glyph d="M300 150H237V329H61V387H237V566H300V387H478V329H300ZM478 0H61V59H478Z" glyph-name="plusminus" horiz-adv-x="540" unicode="&#177;" /><glyph d="M738 643Q797 588 830.5 516Q864 444 867 365H797Q790 505 691 600.5Q592 696 453 696Q315 696 216 600Q117 504 110 365H39Q42 444 75.5 516Q109 588 168 643Q226 697 299.5 726Q373 755 453 755Q533 755 606.5 726Q680 697 738 643ZM513 124H259V160L278 165Q296 171 304 181.5Q312 192 312 209V502Q312 519 304 529.5Q296 540 278 546L259 551V587H506Q588 587 640.5 544.5Q693 502 693 438Q693 374 640 331.5Q587 289 496 289H475V330Q516 330 539.5 358Q563 386 563 433Q563 488 534 518Q505 548 450 548H447V209Q447 193 455 184Q463 175 481 169L513 160ZM168 55Q109 110 75.5 182Q42 254 39 333H110Q117 194 216 98Q315 2 453 2Q592 2 691 97.5Q790 193 797 333H867Q864 254 830.5 182Q797 110 738 55Q680 1 606.5 -28Q533 -57 453 -57Q373 -57 299.5 -28Q226 1 168 55Z" glyph-name="product" horiz-adv-x="906" unicode="&#8719;" /><glyph d="M581 -192V-219H322V-192L346 -184Q366 -178 375 -165.5Q384 -153 384 -131V420L497 501H527V-131Q527 -152 535.5 -164.5Q544 -177 564 -185ZM224 -15Q138 -15 82.5 52Q27 119 27 231Q27 350 99 429Q171 508 286 508Q316 508 348 499Q380 490 402 474L369 448Q353 454 337 456.5Q321 459 305 459Q245 459 212 410Q179 361 179 271Q179 172 217.5 115Q256 58 322 58Q329 58 336 59Q343 60 350 61V32Q330 12 295 -1.5Q260 -15 224 -15Z" glyph-name="q" horiz-adv-x="587" unicode="q" /><glyph d="M269 547Q269 586 249.5 611.5Q230 637 196 645V712Q206 714 216 714.5Q226 715 236 715Q319 715 373 670.5Q427 626 427 554Q427 527 417 500Q407 473 386 443Q372 423 344 391Q316 359 309 351Q284 320 273 296Q262 272 262 250V238H207V281Q207 304 213 332Q219 360 239 418Q257 473 263 499.5Q269 526 269 547ZM34 545Q34 598 69 642.5Q104 687 162 704V646Q133 643 111.5 624.5Q90 606 90 587Q90 564 119 561.5Q148 559 155 557Q171 552 181.5 537Q192 522 192 505Q192 479 173 459.5Q154 440 124 440Q86 440 60 470Q34 500 34 545ZM333 79Q333 40 305.5 12.5Q278 -15 239 -15Q200 -15 172.5 12.5Q145 40 145 79Q145 118 172.5 145.5Q200 173 239 173Q278 173 305.5 145.5Q333 118 333 79Z" glyph-name="question" horiz-adv-x="467" unicode="?" /><glyph d="M192 -69Q192 -108 211.5 -133.5Q231 -159 265 -167V-234Q255 -236 245 -236.5Q235 -237 225 -237Q142 -237 88 -192.5Q34 -148 34 -76Q34 -49 44 -22Q54 5 75 35Q89 55 117 87Q145 119 152 127Q177 158 188 182Q199 206 199 228V240H254V197Q254 174 248 146Q242 118 222 60Q204 5 198 -21.5Q192 -48 192 -69ZM427 -67Q427 -120 392 -164.5Q357 -209 299 -226V-168Q328 -165 349.5 -146.5Q371 -128 371 -109Q371 -86 342 -83.5Q313 -81 306 -79Q290 -74 279.5 -59Q269 -44 269 -27Q269 -1 288 18.5Q307 38 337 38Q375 38 401 8Q427 -22 427 -67ZM128 399Q128 438 155.5 465.5Q183 493 222 493Q261 493 288.5 465.5Q316 438 316 399Q316 360 288.5 332.5Q261 305 222 305Q183 305 155.5 332.5Q128 360 128 399Z" glyph-name="questiondown" horiz-adv-x="457" unicode="&#191;" /><glyph d="M198 153Q198 114 217.5 88.5Q237 63 271 55V-12Q261 -14 251 -14.5Q241 -15 231 -15Q148 -15 94 29.5Q40 74 40 146Q40 173 50 200Q60 227 81 257Q95 277 123 309Q151 341 158 349Q183 380 194 404Q205 428 205 450V462H260V419Q260 396 254 368Q248 340 228 282Q210 227 204 200.5Q198 174 198 153ZM433 155Q433 102 398 57.5Q363 13 305 -4V54Q334 57 355.5 75.5Q377 94 377 113Q377 136 348 138.5Q319 141 312 143Q296 148 285.5 163Q275 178 275 195Q275 221 294 240.5Q313 260 343 260Q381 260 407 230Q433 200 433 155ZM134 621Q134 660 161.5 687.5Q189 715 228 715Q267 715 294.5 687.5Q322 660 322 621Q322 582 294.5 554.5Q267 527 228 527Q189 527 161.5 554.5Q134 582 134 621Z" glyph-name="questiondown.case" horiz-adv-x="467" /><glyph d="M338 423H283V700H444ZM114 423H60V700H221Z" glyph-name="quotedbl" horiz-adv-x="461" unicode="&quot;" /><glyph d="M245 46Q245 -24 200 -84.5Q155 -145 71 -185L54 -157Q107 -119 135.5 -80.5Q164 -42 171 3Q161 -2 150 -4.5Q139 -7 128 -7Q92 -7 67 19Q42 45 42 81Q42 118 69 145.5Q96 173 136 173Q183 173 214 135.5Q245 98 245 46ZM486 46Q486 -24 441 -84.5Q396 -145 312 -185L295 -157Q348 -119 376.5 -80.5Q405 -42 412 3Q402 -2 391 -4.5Q380 -7 369 -7Q333 -7 308 19Q283 45 283 81Q283 118 310 145.5Q337 173 377 173Q424 173 455 135.5Q486 98 486 46Z" glyph-name="quotedblbase" horiz-adv-x="529" unicode="&#8222;" /><glyph d="M35 484Q35 554 80 614.5Q125 675 209 715L226 687Q173 649 144.5 610.5Q116 572 109 527Q119 532 130 534.5Q141 537 152 537Q188 537 213 511Q238 485 238 449Q238 412 211 384.5Q184 357 144 357Q97 357 66 394.5Q35 432 35 484ZM276 484Q276 554 321 614.5Q366 675 450 715L467 687Q414 649 385.5 610.5Q357 572 350 527Q360 532 371 534.5Q382 537 393 537Q429 537 454 511Q479 485 479 449Q479 412 452 384.5Q425 357 385 357Q338 357 307 394.5Q276 432 276 484Z" glyph-name="quotedblleft" horiz-adv-x="519" unicode="&#8220;" /><glyph d="M249 588Q249 518 204 457.5Q159 397 75 357L58 385Q111 423 139.5 461.5Q168 500 175 545Q165 540 154 537.5Q143 535 132 535Q96 535 71 561Q46 587 46 623Q46 660 73 687.5Q100 715 140 715Q187 715 218 677.5Q249 640 249 588ZM490 588Q490 518 445 457.5Q400 397 316 357L299 385Q352 423 380.5 461.5Q409 500 416 545Q406 540 395 537.5Q384 535 373 535Q337 535 312 561Q287 587 287 623Q287 660 314 687.5Q341 715 381 715Q428 715 459 677.5Q490 640 490 588Z" glyph-name="quotedblright" horiz-adv-x="521" unicode="&#8221;" /><glyph d="M35 484Q35 554 80 614.5Q125 675 209 715L226 687Q173 649 144.5 610.5Q116 572 109 527Q119 532 130 534.5Q141 537 152 537Q188 537 213 511Q238 485 238 449Q238 412 211 384.5Q184 357 144 357Q97 357 66 394.5Q35 432 35 484Z" glyph-name="quoteleft" horiz-adv-x="278" unicode="&#8216;" /><glyph d="M249 588Q249 518 204 457.5Q159 397 75 357L58 385Q111 423 139.5 461.5Q168 500 175 545Q165 540 154 537.5Q143 535 132 535Q96 535 71 561Q46 587 46 623Q46 660 73 687.5Q100 715 140 715Q187 715 218 677.5Q249 640 249 588Z" glyph-name="quoteright" horiz-adv-x="279" unicode="&#8217;" /><glyph d="M245 46Q245 -24 200 -84.5Q155 -145 71 -185L54 -157Q107 -119 135.5 -80.5Q164 -42 171 3Q161 -2 150 -4.5Q139 -7 128 -7Q92 -7 67 19Q42 45 42 81Q42 118 69 145.5Q96 173 136 173Q183 173 214 135.5Q245 98 245 46Z" glyph-name="quotesinglbase" horiz-adv-x="288" unicode="&#8218;" /><glyph d="M114 423H60V700H221Z" glyph-name="quotesingle" horiz-adv-x="238" unicode="'" /><glyph d="M223 509H225V88Q225 67 234.5 54.5Q244 42 265 35L290 27V0H28V27L45 34Q65 42 73.5 54.5Q82 67 82 88V413L25 443V469Q73 474 124 484Q175 494 223 509ZM322 370Q308 374 292 376.5Q276 379 259 379V410Q282 451 314.5 474.5Q347 498 381 498Q392 498 401.5 496.5Q411 495 424 492Q424 463 412 412.5Q400 362 383 338Q369 349 353.5 357Q338 365 322 370Z" glyph-name="r" horiz-adv-x="425" unicode="r" /><glyph d="M223 509H225V88Q225 67 234.5 54.5Q244 42 265 35L290 27V0H28V27L45 34Q65 42 73.5 54.5Q82 67 82 88V413L25 443V469Q73 474 124 484Q175 494 223 509ZM322 370Q308 374 292 376.5Q276 379 259 379V410Q282 451 314.5 474.5Q347 498 381 498Q392 498 401.5 496.5Q411 495 424 492Q424 463 412 412.5Q400 362 383 338Q369 349 353.5 357Q338 365 322 370ZM244 569H195L210 722H365Z" glyph-name="racute" horiz-adv-x="425" unicode="&#341;" /><glyph d="M562 743 274 39 245 113 495 743ZM14 417H80L244 0H182Z" glyph-name="radical" horiz-adv-x="557" unicode="&#8730;" /><glyph d="M223 509H225V88Q225 67 234.5 54.5Q244 42 265 35L290 27V0H28V27L45 34Q65 42 73.5 54.5Q82 67 82 88V413L25 443V469Q73 474 124 484Q175 494 223 509ZM322 370Q308 374 292 376.5Q276 379 259 379V410Q282 451 314.5 474.5Q347 498 381 498Q392 498 401.5 496.5Q411 495 424 492Q424 463 412 412.5Q400 362 383 338Q369 349 353.5 357Q338 365 322 370ZM184 569 75 722H134L220 663L306 722H365L256 569Z" glyph-name="rcaron" horiz-adv-x="425" unicode="&#345;" /><glyph d="M223 509H225V88Q225 67 234.5 54.5Q244 42 265 35L290 27V0H28V27L45 34Q65 42 73.5 54.5Q82 67 82 88V413L25 443V469Q73 474 124 484Q175 494 223 509ZM322 370Q308 374 292 376.5Q276 379 259 379V410Q282 451 314.5 474.5Q347 498 381 498Q392 498 401.5 496.5Q411 495 424 492Q424 463 412 412.5Q400 362 383 338Q369 349 353.5 357Q338 365 322 370ZM254 -167Q254 -219 221 -266.5Q188 -314 127 -351L101 -325Q132 -301 154.5 -271Q177 -241 189 -207Q180 -212 170 -214.5Q160 -217 149 -217Q116 -217 93.5 -194Q71 -171 71 -138Q71 -105 95.5 -80Q120 -55 156 -55Q198 -55 226 -87.5Q254 -120 254 -167Z" glyph-name="rcommaaccent" horiz-adv-x="425" unicode="&#343;" /><glyph d="M618 473Q618 357 533.5 274Q449 191 331 191Q213 191 128.5 274Q44 357 44 473Q44 589 128.5 672Q213 755 331 755Q449 755 533.5 672Q618 589 618 473ZM331 715Q231 715 160.5 644.5Q90 574 90 473Q90 372 160.5 301.5Q231 231 331 231Q431 231 501.5 301.5Q572 372 572 473Q572 574 501.5 644.5Q431 715 331 715ZM383 548Q383 574 367.5 590.5Q352 607 322 612V640H343Q399 640 430.5 616.5Q462 593 462 552Q462 528 444 507Q426 486 397 475L430 420Q451 384 465.5 366.5Q480 349 496 341L502 338V317H435Q415 317 400 328.5Q385 340 371 367L327 452H322V481H324Q349 481 366 500.5Q383 520 383 548ZM334 338V317H178V338L191 342Q203 346 209 353.5Q215 361 215 373V584Q215 596 209 603.5Q203 611 191 615L178 619V640H288V373Q288 362 293.5 355Q299 348 312 345Z" glyph-name="registered" horiz-adv-x="662" unicode="&#174;" /><glyph d="M234 476Q234 443 210 418Q186 393 149 393Q107 393 79 427Q51 461 51 508Q51 571 91.5 625Q132 679 208 716L223 690Q176 657 150 622.5Q124 588 117 546Q125 550 135 552.5Q145 555 156 555Q188 555 211 531.5Q234 508 234 476Z" glyph-name="revcommaaccent" horiz-adv-x="284" /><glyph d="M184 687Q162 687 145 673Q128 659 123 637H71Q77 679 109.5 706.5Q142 734 184 734Q226 734 258.5 706.5Q291 679 297 637H245Q240 659 222.5 673Q205 687 184 687ZM184 508Q141 508 109 535.5Q77 563 71 605H123Q128 583 145 569.5Q162 556 184 556Q205 556 222.5 570Q240 584 245 605H297Q291 563 259 535.5Q227 508 184 508Z" glyph-name="ring" horiz-adv-x="368" unicode="&#730;" /><glyph d="M263 468V508Q292 506 325 501.5Q358 497 392 489L381 372H350Q340 413 317.5 437.5Q295 462 263 468ZM40 352Q40 420 92 462.5Q144 505 229 508V468Q202 463 185.5 446Q169 429 169 405Q169 381 186.5 362.5Q204 344 270 313Q319 290 339 278Q359 266 374 254Q399 232 411 206Q423 180 423 148Q423 83 367.5 35.5Q312 -12 223 -15V25Q255 29 275 49Q295 69 295 97Q295 116 285.5 131Q276 146 255 159Q248 163 230.5 171.5Q213 180 184 193Q99 231 69.5 267Q40 303 40 352ZM189 25V-14Q151 -12 111 -2.5Q71 7 37 21L40 165H74Q85 103 114 67.5Q143 32 189 25Z" glyph-name="s" horiz-adv-x="447" unicode="s" /><glyph d="M336 500Q353 497 368 494Q383 491 392 489L381 372H350Q340 413 317.5 437.5Q295 462 263 468V508Q278 507 285 506.5Q292 506 298 505Q290 522 286 542Q282 562 282 585Q282 649 333.5 695.5Q385 742 466 742Q551 742 601 690.5Q651 639 651 556V493H778V439H435V483Q477 488 505 519Q533 550 533 591Q533 632 505.5 660Q478 688 433 688Q386 688 353.5 655.5Q321 623 321 575Q321 553 324.5 534.5Q328 516 336 500ZM40 352Q40 420 92 462.5Q144 505 229 508V468Q202 463 185.5 446Q169 429 169 405Q169 381 186.5 362.5Q204 344 270 313Q319 290 339 278Q359 266 374 254Q399 232 411 206Q423 180 423 148Q423 83 367.5 35.5Q312 -12 223 -15V25Q255 29 275 49Q295 69 295 97Q295 116 285.5 131Q276 146 255 159Q248 163 230.5 171.5Q213 180 184 193Q99 231 69.5 267Q40 303 40 352ZM508 113V407H651V166Q651 98 669 75Q687 52 728 52Q738 52 749.5 54.5Q761 57 772 62L783 28Q757 10 718.5 -2.5Q680 -15 644 -15Q574 -15 541 16.5Q508 48 508 113ZM189 25V-14Q151 -12 111 -2.5Q71 7 37 21L40 165H74Q85 103 114 67.5Q143 32 189 25Z" glyph-name="s_t" horiz-adv-x="789" unicode="&#64262;" /><glyph d="M263 468V508Q292 506 325 501.5Q358 497 392 489L381 372H350Q340 413 317.5 437.5Q295 462 263 468ZM40 352Q40 420 92 462.5Q144 505 229 508V468Q202 463 185.5 446Q169 429 169 405Q169 381 186.5 362.5Q204 344 270 313Q319 290 339 278Q359 266 374 254Q399 232 411 206Q423 180 423 148Q423 83 367.5 35.5Q312 -12 223 -15V25Q255 29 275 49Q295 69 295 97Q295 116 285.5 131Q276 146 255 159Q248 163 230.5 171.5Q213 180 184 193Q99 231 69.5 267Q40 303 40 352ZM189 25V-14Q151 -12 111 -2.5Q71 7 37 21L40 165H74Q85 103 114 67.5Q143 32 189 25ZM251 569H202L217 722H372Z" glyph-name="sacute" horiz-adv-x="447" unicode="&#347;" /><glyph d="M263 468V508Q292 506 325 501.5Q358 497 392 489L381 372H350Q340 413 317.5 437.5Q295 462 263 468ZM40 352Q40 420 92 462.5Q144 505 229 508V468Q202 463 185.5 446Q169 429 169 405Q169 381 186.5 362.5Q204 344 270 313Q319 290 339 278Q359 266 374 254Q399 232 411 206Q423 180 423 148Q423 83 367.5 35.5Q312 -12 223 -15V25Q255 29 275 49Q295 69 295 97Q295 116 285.5 131Q276 146 255 159Q248 163 230.5 171.5Q213 180 184 193Q99 231 69.5 267Q40 303 40 352ZM189 25V-14Q151 -12 111 -2.5Q71 7 37 21L40 165H74Q85 103 114 67.5Q143 32 189 25ZM191 569 82 722H141L227 663L313 722H372L263 569Z" glyph-name="scaron" horiz-adv-x="447" unicode="&#353;" /><glyph d="M263 468V508Q292 506 325 501.5Q358 497 392 489L381 372H350Q340 413 317.5 437.5Q295 462 263 468ZM189 25V-14Q151 -12 111 -2.5Q71 7 37 21L40 165H74Q85 103 114 67.5Q143 32 189 25ZM343 -147Q343 -188 307 -215.5Q271 -243 212 -243Q179 -243 146.5 -232.5Q114 -222 96 -207L113 -175Q128 -181 142 -183.5Q156 -186 169 -186Q200 -186 217 -174Q234 -162 234 -141Q234 -120 208.5 -104Q183 -88 145 -87L143 -79L223 25Q255 29 275 49Q295 69 295 97Q295 116 285.5 131Q276 146 255 159Q248 163 230.5 171.5Q213 180 184 193Q99 231 69.5 267Q40 303 40 352Q40 420 92 462.5Q144 505 229 508V468Q202 463 185.5 446Q169 429 169 405Q169 381 186.5 362.5Q204 344 270 313Q319 290 339 278Q359 266 374 254Q399 232 411 206Q423 180 423 148Q423 87 372 40Q321 -7 238 -14L240 -53Q284 -60 313.5 -85.5Q343 -111 343 -147Z" glyph-name="scedilla" horiz-adv-x="447" unicode="&#351;" /><glyph d="M263 468V508Q292 506 325 501.5Q358 497 392 489L381 372H350Q340 413 317.5 437.5Q295 462 263 468ZM40 352Q40 420 92 462.5Q144 505 229 508V468Q202 463 185.5 446Q169 429 169 405Q169 381 186.5 362.5Q204 344 270 313Q319 290 339 278Q359 266 374 254Q399 232 411 206Q423 180 423 148Q423 83 367.5 35.5Q312 -12 223 -15V25Q255 29 275 49Q295 69 295 97Q295 116 285.5 131Q276 146 255 159Q248 163 230.5 171.5Q213 180 184 193Q99 231 69.5 267Q40 303 40 352ZM189 25V-14Q151 -12 111 -2.5Q71 7 37 21L40 165H74Q85 103 114 67.5Q143 32 189 25ZM141 569H82L191 722H263L372 569H313L227 628Z" glyph-name="scircumflex" horiz-adv-x="447" unicode="&#349;" /></font>
</defs>
</svg>
