<?xml version="1.0" standalone="no"?><!DOCTYPE svg PUBLIC "-//W3C//DTD SVG 1.1//EN" "http://www.w3.org/Graphics/SVG/1.1/DTD/svg11.dtd" ><svg version="1.1" xmlns="http://www.w3.org/2000/svg"><defs><font horiz-adv-x="0" id="font"><font-face ascent="750" bbox="-210 -365 1183 972" cap-height="700" descent="-250" font-family="Fresh Serif" font-stretch="normal" font-style="normal" font-weight="900" units-per-em="1000" x-height="498" /><missing-glyph d="M581 0H81V700H581ZM512 661H149L331 385ZM125 73 307 350 125 627ZM535 624 354 350 535 76ZM513 38 331 314 149 38Z" horiz-adv-x="662" /><glyph glyph-name=".null" horiz-adv-x="0" /><glyph d="M308 585H306L223 305H398ZM228 42 264 32V0H-8V32L19 42Q52 55 67.5 78Q83 101 104 158L294 700H319Q354 700 388 706.5Q422 713 442 723H444L642 158Q662 102 678 78.5Q694 55 728 42L754 32V0H392V32L421 41Q453 50 462 64.5Q471 79 462 107L412 262H211L184 172Q162 100 171.5 76.5Q181 53 228 42Z" glyph-name="A" horiz-adv-x="742" unicode="A" /><glyph d="M443 310V591Q443 597 443 600Q443 603 442 606L271 310ZM184 43 229 32V0H-34V32L-5 41Q21 49 39 63.5Q57 78 74 105L411 651Q406 653 403.5 654.5Q401 656 398 657L372 668V700H715Q777 700 836.5 702Q896 704 952 708L948 518H914L902 536Q865 609 838 633.5Q811 658 766 659L628 663V387L714 390Q737 391 749.5 403.5Q762 416 776 460L789 503H825V231H789L776 274Q762 318 749.5 330.5Q737 343 714 343L628 346V106Q628 76 645.5 58Q663 40 694 40H739Q806 40 846 69.5Q886 99 918 183L938 234H976L968 0H372V32L398 43Q424 54 433.5 68Q443 82 443 109V268H246L161 121Q141 87 146.5 68.5Q152 50 184 43Z" glyph-name="AE" horiz-adv-x="1008" unicode="&#198;" /><glyph d="M308 585H306L223 305H398ZM228 42 264 32V0H-8V32L19 42Q52 55 67.5 78Q83 101 104 158L294 700H319Q354 700 388 706.5Q422 713 442 723H444L642 158Q662 102 678 78.5Q694 55 728 42L754 32V0H392V32L421 41Q453 50 462 64.5Q471 79 462 107L412 262H211L184 172Q162 100 171.5 76.5Q181 53 228 42ZM391 765H334L349 920H520Z" glyph-name="Aacute" horiz-adv-x="742" unicode="&#193;" /><glyph d="M308 585H306L223 305H398ZM228 42 264 32V0H-8V32L19 42Q52 55 67.5 78Q83 101 104 158L294 700H319Q354 700 388 706.5Q422 713 442 723H444L642 158Q662 102 678 78.5Q694 55 728 42L754 32V0H392V32L421 41Q453 50 462 64.5Q471 79 462 107L412 262H211L184 172Q162 100 171.5 76.5Q181 53 228 42ZM362 764Q292 764 254.5 801.5Q217 839 217 906V936H271V930Q271 899 293.5 884.5Q316 870 362 870Q408 870 430 884.5Q452 899 452 930V936H506V906Q506 839 468.5 801.5Q431 764 362 764Z" glyph-name="Abreve" horiz-adv-x="742" unicode="&#258;" /><glyph d="M308 585H306L223 305H398ZM228 42 264 32V0H-8V32L19 42Q52 55 67.5 78Q83 101 104 158L294 700H319Q354 700 388 706.5Q422 713 442 723H444L642 158Q662 102 678 78.5Q694 55 728 42L754 32V0H392V32L421 41Q453 50 462 64.5Q471 79 462 107L412 262H211L184 172Q162 100 171.5 76.5Q181 53 228 42ZM276 765H209L323 920H401L515 765H448L362 818Z" glyph-name="Acircumflex" horiz-adv-x="742" unicode="&#194;" /><glyph d="M308 585H306L223 305H398ZM228 42 264 32V0H-8V32L19 42Q52 55 67.5 78Q83 101 104 158L294 700H319Q354 700 388 706.5Q422 713 442 723H444L642 158Q662 102 678 78.5Q694 55 728 42L754 32V0H392V32L421 41Q453 50 462 64.5Q471 79 462 107L412 262H211L184 172Q162 100 171.5 76.5Q181 53 228 42ZM545 852Q545 819 522.5 796Q500 773 468 773Q436 773 413.5 796Q391 819 391 852Q391 884 413.5 907Q436 930 468 930Q500 930 522.5 907Q545 884 545 852ZM346 852Q346 819 323.5 796Q301 773 269 773Q237 773 214.5 796Q192 819 192 852Q192 884 214.5 907Q237 930 269 930Q301 930 323.5 907Q346 884 346 852Z" glyph-name="Adieresis" horiz-adv-x="742" unicode="&#196;" /><glyph d="M308 585H306L223 305H398ZM228 42 264 32V0H-8V32L19 42Q52 55 67.5 78Q83 101 104 158L294 700H319Q354 700 388 706.5Q422 713 442 723H444L642 158Q662 102 678 78.5Q694 55 728 42L754 32V0H392V32L421 41Q453 50 462 64.5Q471 79 462 107L412 262H211L184 172Q162 100 171.5 76.5Q181 53 228 42ZM391 765H334L205 920H376Z" glyph-name="Agrave" horiz-adv-x="742" unicode="&#192;" /><glyph d="M308 585H306L223 305H398ZM228 42 264 32V0H-8V32L19 42Q52 55 67.5 78Q83 101 104 158L294 700H319Q354 700 388 706.5Q422 713 442 723H444L642 158Q662 102 678 78.5Q694 55 728 42L754 32V0H392V32L421 41Q453 50 462 64.5Q471 79 462 107L412 262H211L184 172Q162 100 171.5 76.5Q181 53 228 42ZM517 780H208V849H517Z" glyph-name="Amacron" horiz-adv-x="742" unicode="&#256;" /><glyph d="M731 -162 719 -201Q697 -209 677.5 -212.5Q658 -216 641 -216Q591 -216 560 -191Q529 -166 529 -126Q529 -93 553 -60Q577 -27 620 0H392V32L421 41Q453 50 462 64.5Q471 79 462 107L412 262H211L184 172Q162 100 171.5 76.5Q181 53 228 42L264 32V0H-8V32L19 42Q52 55 67.5 78Q83 101 104 158L294 700H319Q354 700 388 706.5Q422 713 442 723H444L642 158Q662 102 678 78.5Q694 55 728 42L754 32V0H681Q662 -32 652 -60Q642 -88 642 -108Q642 -134 661 -148.5Q680 -163 713 -163Q720 -163 725 -162.5Q730 -162 731 -162ZM308 585H306L223 305H398Z" glyph-name="Aogonek" horiz-adv-x="742" unicode="&#260;" /><glyph d="M308 585H306L223 305H398ZM228 42 264 32V0H-8V32L19 42Q52 55 67.5 78Q83 101 104 158L294 700H319Q354 700 388 706.5Q422 713 442 723H444L642 158Q662 102 678 78.5Q694 55 728 42L754 32V0H392V32L421 41Q453 50 462 64.5Q471 79 462 107L412 262H211L184 172Q162 100 171.5 76.5Q181 53 228 42ZM481 855Q481 805 446.5 771Q412 737 362 737Q312 737 277.5 771Q243 805 243 855Q243 904 277.5 938Q312 972 362 972Q411 972 446 937.5Q481 903 481 855ZM299 855Q299 828 317.5 809Q336 790 362 790Q388 790 406.5 809Q425 828 425 855Q425 882 406 901.5Q387 921 362 921Q336 921 317.5 901.5Q299 882 299 855Z" glyph-name="Aring" horiz-adv-x="742" unicode="&#197;" /><glyph d="M308 585H306L223 305H398ZM228 42 264 32V0H-8V32L19 42Q52 55 67.5 78Q83 101 104 158L294 700H319Q354 700 388 706.5Q422 713 442 723H444L642 158Q662 102 678 78.5Q694 55 728 42L754 32V0H392V32L421 41Q453 50 462 64.5Q471 79 462 107L412 262H211L184 172Q162 100 171.5 76.5Q181 53 228 42ZM284 798Q269 798 260.5 791.5Q252 785 243 766L202 779Q206 840 231.5 871Q257 902 304 902Q317 902 334 898.5Q351 895 385 883Q410 874 421 871.5Q432 869 440 869Q455 869 464 875.5Q473 882 481 901L522 888Q518 827 492.5 795.5Q467 764 420 764Q407 764 390.5 767.5Q374 771 341 783Q315 792 303.5 795Q292 798 284 798Z" glyph-name="Atilde" horiz-adv-x="742" unicode="&#195;" /><glyph d="M413 0H31V32L57 43Q82 54 92 68.5Q102 83 102 109V591Q102 617 92 631.5Q82 646 57 657L31 668V700H395Q502 700 567.5 653Q633 606 633 534Q633 474 581.5 426.5Q530 379 452 365V362Q544 348 601 300.5Q658 253 658 188Q658 103 591 51.5Q524 0 413 0ZM287 663V375H326Q379 375 415.5 415.5Q452 456 452 517Q452 580 411 621.5Q370 663 303 663ZM342 37H356Q402 37 430.5 77Q459 117 459 182Q459 249 416 293Q373 337 310 337H287V104Q287 72 301.5 54.5Q316 37 342 37Z" glyph-name="B" horiz-adv-x="682" unicode="B" /><glyph d="M414 -15Q332 -15 263.5 8.5Q195 32 143 78Q88 126 58 194Q28 262 28 337Q28 512 134 613.5Q240 715 423 715Q473 715 535.5 709Q598 703 667 691L664 501H623L613 526Q612 527 604 547.5Q596 568 589 581Q582 597 573 609Q564 621 553 631Q542 641 529 649Q516 657 501 662Q487 667 472 669.5Q457 672 440 672Q340 672 288.5 586.5Q237 501 237 339Q237 199 292.5 113.5Q348 28 438 28Q501 28 542 60.5Q583 93 624 187L645 234H684L676 33Q595 7 533.5 -4Q472 -15 414 -15Z" glyph-name="C" horiz-adv-x="712" unicode="C" /><glyph glyph-name="CR" horiz-adv-x="0" /><glyph d="M414 -15Q332 -15 263.5 8.5Q195 32 143 78Q88 126 58 194Q28 262 28 337Q28 512 134 613.5Q240 715 423 715Q473 715 535.5 709Q598 703 667 691L664 501H623L613 526Q612 527 604 547.5Q596 568 589 581Q582 597 573 609Q564 621 553 631Q542 641 529 649Q516 657 501 662Q487 667 472 669.5Q457 672 440 672Q340 672 288.5 586.5Q237 501 237 339Q237 199 292.5 113.5Q348 28 438 28Q501 28 542 60.5Q583 93 624 187L645 234H684L676 33Q595 7 533.5 -4Q472 -15 414 -15ZM426 765H369L384 920H555Z" glyph-name="Cacute" horiz-adv-x="712" unicode="&#262;" /><glyph d="M414 -15Q332 -15 263.5 8.5Q195 32 143 78Q88 126 58 194Q28 262 28 337Q28 512 134 613.5Q240 715 423 715Q473 715 535.5 709Q598 703 667 691L664 501H623L613 526Q612 527 604 547.5Q596 568 589 581Q582 597 573 609Q564 621 553 631Q542 641 529 649Q516 657 501 662Q487 667 472 669.5Q457 672 440 672Q340 672 288.5 586.5Q237 501 237 339Q237 199 292.5 113.5Q348 28 438 28Q501 28 542 60.5Q583 93 624 187L645 234H684L676 33Q595 7 533.5 -4Q472 -15 414 -15ZM358 765 244 920H311L397 867L483 920H550L436 765Z" glyph-name="Ccaron" horiz-adv-x="712" unicode="&#268;" /><glyph d="M515 -148Q515 -191 477 -219.5Q439 -248 375 -248Q341 -248 306.5 -236.5Q272 -225 255 -210L273 -174Q289 -180 302 -182.5Q315 -185 328 -185Q359 -185 376.5 -173.5Q394 -162 394 -141Q394 -119 368 -104Q342 -89 302 -88L300 -79L365 -13Q212 1 120 99.5Q28 198 28 337Q28 512 134 613.5Q240 715 423 715Q473 715 535.5 709Q598 703 667 691L664 501H623L613 526Q612 527 604 547.5Q596 568 589 581Q582 597 573 609Q564 621 553 631Q542 641 529 649Q516 657 501 662Q487 667 472 669.5Q457 672 440 672Q340 672 288.5 586.5Q237 501 237 339Q237 199 292.5 113.5Q348 28 438 28Q501 28 542 60.5Q583 93 624 187L645 234H684L676 33Q596 7 535.5 -4Q475 -15 419 -15L395 -49Q444 -53 479.5 -79.5Q515 -106 515 -148Z" glyph-name="Ccedilla" horiz-adv-x="712" unicode="&#199;" /><glyph d="M414 -15Q332 -15 263.5 8.5Q195 32 143 78Q88 126 58 194Q28 262 28 337Q28 512 134 613.5Q240 715 423 715Q473 715 535.5 709Q598 703 667 691L664 501H623L613 526Q612 527 604 547.5Q596 568 589 581Q582 597 573 609Q564 621 553 631Q542 641 529 649Q516 657 501 662Q487 667 472 669.5Q457 672 440 672Q340 672 288.5 586.5Q237 501 237 339Q237 199 292.5 113.5Q348 28 438 28Q501 28 542 60.5Q583 93 624 187L645 234H684L676 33Q595 7 533.5 -4Q472 -15 414 -15ZM311 765H244L358 920H436L550 765H483L397 818Z" glyph-name="Ccircumflex" horiz-adv-x="712" unicode="&#264;" /><glyph d="M414 -15Q332 -15 263.5 8.5Q195 32 143 78Q88 126 58 194Q28 262 28 337Q28 512 134 613.5Q240 715 423 715Q473 715 535.5 709Q598 703 667 691L664 501H623L613 526Q612 527 604 547.5Q596 568 589 581Q582 597 573 609Q564 621 553 631Q542 641 529 649Q516 657 501 662Q487 667 472 669.5Q457 672 440 672Q340 672 288.5 586.5Q237 501 237 339Q237 199 292.5 113.5Q348 28 438 28Q501 28 542 60.5Q583 93 624 187L645 234H684L676 33Q595 7 533.5 -4Q472 -15 414 -15ZM481 855Q481 820 456.5 795.5Q432 771 397 771Q363 771 338.5 795.5Q314 820 314 855Q314 890 338.5 915Q363 940 397 940Q432 940 456.5 915Q481 890 481 855Z" glyph-name="Cdotaccent" horiz-adv-x="712" unicode="&#266;" /><glyph d="M378 0H31V32L57 43Q82 54 92 68.5Q102 83 102 109V591Q102 617 92 631.5Q82 646 57 657L31 668V700H376Q543 700 653.5 602.5Q764 505 764 353Q764 197 655 98.5Q546 0 378 0ZM287 663V106Q287 76 305 56.5Q323 37 352 37H372Q466 37 513 115Q560 193 560 349Q560 506 505.5 584.5Q451 663 343 663Z" glyph-name="D" horiz-adv-x="792" unicode="D" /><glyph d="M378 0H31V32L57 43Q82 54 92 68.5Q102 83 102 109V591Q102 617 92 631.5Q82 646 57 657L31 668V700H376Q543 700 653.5 602.5Q764 505 764 353Q764 197 655 98.5Q546 0 378 0ZM287 663V106Q287 76 305 56.5Q323 37 352 37H372Q466 37 513 115Q560 193 560 349Q560 506 505.5 584.5Q451 663 343 663ZM314 765 200 920H267L353 867L439 920H506L392 765Z" glyph-name="Dcaron" horiz-adv-x="792" unicode="&#270;" /><glyph d="M765 353Q765 197 656 98.5Q547 0 379 0H32V32L58 43Q83 54 93 68.5Q103 83 103 109V336H19V395H103V591Q103 617 93 631.5Q83 646 58 657L32 668V700H377Q544 700 654.5 602.5Q765 505 765 353ZM353 37H373Q467 37 514 115Q561 193 561 349Q561 506 506.5 584.5Q452 663 344 663H288V395H466V336H288V106Q288 76 306 56.5Q324 37 353 37Z" glyph-name="Dcroat" horiz-adv-x="793" unicode="&#272;" /><glyph d="M484 503V231H448L435 274Q421 317 408.5 330Q396 343 373 343L287 346V106Q287 76 304.5 58Q322 40 353 40H397Q465 40 505 69.5Q545 99 577 183L597 234H634L627 0H31V32L57 43Q82 54 92 68.5Q102 83 102 109V591Q102 617 92 631.5Q82 646 57 657L31 668V700H374Q436 700 495 702Q554 704 610 708L607 518H572L561 536Q525 609 497.5 633.5Q470 658 425 659L287 663V387L373 390Q396 391 408.5 404Q421 417 435 460L448 503Z" glyph-name="E" horiz-adv-x="666" unicode="E" /><glyph d="M484 503V231H448L435 274Q421 317 408.5 330Q396 343 373 343L287 346V106Q287 76 304.5 58Q322 40 353 40H397Q465 40 505 69.5Q545 99 577 183L597 234H634L627 0H31V32L57 43Q82 54 92 68.5Q102 83 102 109V591Q102 617 92 631.5Q82 646 57 657L31 668V700H374Q436 700 495 702Q554 704 610 708L607 518H572L561 536Q525 609 497.5 633.5Q470 658 425 659L287 663V387L373 390Q396 391 408.5 404Q421 417 435 460L448 503ZM364 765H307L322 920H493Z" glyph-name="Eacute" horiz-adv-x="666" unicode="&#201;" /><glyph d="M484 503V231H448L435 274Q421 317 408.5 330Q396 343 373 343L287 346V106Q287 76 304.5 58Q322 40 353 40H397Q465 40 505 69.5Q545 99 577 183L597 234H634L627 0H31V32L57 43Q82 54 92 68.5Q102 83 102 109V591Q102 617 92 631.5Q82 646 57 657L31 668V700H374Q436 700 495 702Q554 704 610 708L607 518H572L561 536Q525 609 497.5 633.5Q470 658 425 659L287 663V387L373 390Q396 391 408.5 404Q421 417 435 460L448 503ZM336 764Q266 764 228.5 801.5Q191 839 191 906V936H245V930Q245 899 267.5 884.5Q290 870 336 870Q382 870 404 884.5Q426 899 426 930V936H480V906Q480 839 442.5 801.5Q405 764 336 764Z" glyph-name="Ebreve" horiz-adv-x="666" unicode="&#276;" /><glyph d="M484 503V231H448L435 274Q421 317 408.5 330Q396 343 373 343L287 346V106Q287 76 304.5 58Q322 40 353 40H397Q465 40 505 69.5Q545 99 577 183L597 234H634L627 0H31V32L57 43Q82 54 92 68.5Q102 83 102 109V591Q102 617 92 631.5Q82 646 57 657L31 668V700H374Q436 700 495 702Q554 704 610 708L607 518H572L561 536Q525 609 497.5 633.5Q470 658 425 659L287 663V387L373 390Q396 391 408.5 404Q421 417 435 460L448 503ZM297 765 183 920H250L336 867L422 920H489L375 765Z" glyph-name="Ecaron" horiz-adv-x="666" unicode="&#282;" /><glyph d="M484 503V231H448L435 274Q421 317 408.5 330Q396 343 373 343L287 346V106Q287 76 304.5 58Q322 40 353 40H397Q465 40 505 69.5Q545 99 577 183L597 234H634L627 0H31V32L57 43Q82 54 92 68.5Q102 83 102 109V591Q102 617 92 631.5Q82 646 57 657L31 668V700H374Q436 700 495 702Q554 704 610 708L607 518H572L561 536Q525 609 497.5 633.5Q470 658 425 659L287 663V387L373 390Q396 391 408.5 404Q421 417 435 460L448 503ZM250 765H183L297 920H375L489 765H422L336 818Z" glyph-name="Ecircumflex" horiz-adv-x="666" unicode="&#202;" /><glyph d="M484 503V231H448L435 274Q421 317 408.5 330Q396 343 373 343L287 346V106Q287 76 304.5 58Q322 40 353 40H397Q465 40 505 69.5Q545 99 577 183L597 234H634L627 0H31V32L57 43Q82 54 92 68.5Q102 83 102 109V591Q102 617 92 631.5Q82 646 57 657L31 668V700H374Q436 700 495 702Q554 704 610 708L607 518H572L561 536Q525 609 497.5 633.5Q470 658 425 659L287 663V387L373 390Q396 391 408.5 404Q421 417 435 460L448 503ZM519 852Q519 819 496.5 796Q474 773 442 773Q410 773 387.5 796Q365 819 365 852Q365 884 387.5 907Q410 930 442 930Q474 930 496.5 907Q519 884 519 852ZM320 852Q320 819 297.5 796Q275 773 243 773Q211 773 188.5 796Q166 819 166 852Q166 884 188.5 907Q211 930 243 930Q275 930 297.5 907Q320 884 320 852Z" glyph-name="Edieresis" horiz-adv-x="666" unicode="&#203;" /><glyph d="M484 503V231H448L435 274Q421 317 408.5 330Q396 343 373 343L287 346V106Q287 76 304.5 58Q322 40 353 40H397Q465 40 505 69.5Q545 99 577 183L597 234H634L627 0H31V32L57 43Q82 54 92 68.5Q102 83 102 109V591Q102 617 92 631.5Q82 646 57 657L31 668V700H374Q436 700 495 702Q554 704 610 708L607 518H572L561 536Q525 609 497.5 633.5Q470 658 425 659L287 663V387L373 390Q396 391 408.5 404Q421 417 435 460L448 503ZM419 855Q419 820 394.5 795.5Q370 771 335 771Q301 771 276.5 795.5Q252 820 252 855Q252 890 276.5 915Q301 940 335 940Q370 940 394.5 915Q419 890 419 855Z" glyph-name="Edotaccent" horiz-adv-x="666" unicode="&#278;" /><glyph d="M484 503V231H448L435 274Q421 317 408.5 330Q396 343 373 343L287 346V106Q287 76 304.5 58Q322 40 353 40H397Q465 40 505 69.5Q545 99 577 183L597 234H634L627 0H31V32L57 43Q82 54 92 68.5Q102 83 102 109V591Q102 617 92 631.5Q82 646 57 657L31 668V700H374Q436 700 495 702Q554 704 610 708L607 518H572L561 536Q525 609 497.5 633.5Q470 658 425 659L287 663V387L373 390Q396 391 408.5 404Q421 417 435 460L448 503ZM365 765H308L179 920H350Z" glyph-name="Egrave" horiz-adv-x="666" unicode="&#200;" /><glyph d="M484 503V231H448L435 274Q421 317 408.5 330Q396 343 373 343L287 346V106Q287 76 304.5 58Q322 40 353 40H397Q465 40 505 69.5Q545 99 577 183L597 234H634L627 0H31V32L57 43Q82 54 92 68.5Q102 83 102 109V591Q102 617 92 631.5Q82 646 57 657L31 668V700H374Q436 700 495 702Q554 704 610 708L607 518H572L561 536Q525 609 497.5 633.5Q470 658 425 659L287 663V387L373 390Q396 391 408.5 404Q421 417 435 460L448 503ZM491 780H182V849H491Z" glyph-name="Emacron" horiz-adv-x="666" unicode="&#274;" /><glyph d="M547 -243Q495 -243 458.5 -216Q422 -189 422 -148Q422 -121 440 -103Q458 -85 482 -85Q507 -85 523 -101.5Q539 -118 539 -146Q539 -159 532.5 -173Q526 -187 517 -195Q522 -196 529.5 -197Q537 -198 541 -198Q591 -198 621.5 -165Q652 -132 652 -81V-7H626L171 539H169L176 109Q178 81 190 65Q202 49 227 43L270 32V0H13V32L52 43Q78 51 90 67Q102 83 103 109L115 609L97 628Q82 644 69.5 652Q57 660 45 663L30 667V700H289Q312 664 338 628.5Q364 593 393 558L643 252H645L633 591Q632 619 620 634.5Q608 650 583 657L540 668V700H789V668L750 657Q725 649 714.5 634Q704 619 704 591V-81Q704 -155 660 -199Q616 -243 547 -243Z" glyph-name="Eng" horiz-adv-x="801" unicode="&#330;" /><glyph d="M620 -162 608 -201Q586 -209 566.5 -212.5Q547 -216 530 -216Q480 -216 449 -191Q418 -166 418 -126Q418 -93 442 -60Q466 -27 509 0H31V32L57 43Q82 54 92 68.5Q102 83 102 109V591Q102 617 92 631.5Q82 646 57 657L31 668V700H374Q436 700 495 702Q554 704 610 708L607 518H572L561 536Q525 609 497.5 633.5Q470 658 425 659L287 663V387L373 390Q396 391 408.5 404Q421 417 435 460L448 503H484V231H448L435 274Q421 317 408.5 330Q396 343 373 343L287 346V106Q287 76 304.5 58Q322 40 353 40H397Q465 40 505 69.5Q545 99 577 183L597 234H634L627 0H570Q551 -32 541 -60Q531 -88 531 -108Q531 -134 550 -148.5Q569 -163 602 -163Q609 -163 614 -162.5Q619 -162 620 -162Z" glyph-name="Eogonek" horiz-adv-x="666" unicode="&#280;" /><glyph d="M765 353Q765 197 656 98.5Q547 0 379 0H32V32L58 43Q83 54 93 68.5Q103 83 103 109V336H19V395H103V591Q103 617 93 631.5Q83 646 58 657L32 668V700H377Q544 700 654.5 602.5Q765 505 765 353ZM353 37H373Q467 37 514 115Q561 193 561 349Q561 506 506.5 584.5Q452 663 344 663H288V395H466V336H288V106Q288 76 306 56.5Q324 37 353 37Z" glyph-name="Eth" horiz-adv-x="793" unicode="&#208;" /><glyph d="M627 215H674Q674 114 604 49.5Q534 -15 432 -15Q298 -15 209.5 54.5Q121 124 94 248H25V300H85Q84 319 83.5 330Q83 341 83 350Q83 366 84 383Q85 400 88 418H25V470H99Q133 584 223 649.5Q313 715 439 715Q492 715 559 704Q626 693 653 684L647 515H607L593 547Q569 610 531 639.5Q493 669 440 669Q379 669 341 619Q303 569 289 470H485V418H284Q283 405 282.5 390.5Q282 376 282 350Q282 341 282.5 330.5Q283 320 284 300H485V248H291Q308 162 355.5 116.5Q403 71 473 71Q536 71 583 113.5Q630 156 627 215Z" glyph-name="Euro" horiz-adv-x="713" unicode="&#8364;" /><glyph d="M287 324V109Q287 84 299 68.5Q311 53 337 43L368 32V0H31V32L57 43Q82 54 92 68.5Q102 83 102 109V591Q102 617 92 631.5Q82 646 57 657L31 668V700H372Q434 700 493.5 702Q553 704 609 708L606 518H571L560 536Q523 610 496 634.5Q469 659 424 660L287 663V365L386 368Q409 369 421.5 381.5Q434 394 448 437L462 480H498V208H462L448 251Q434 295 421.5 307.5Q409 320 386 321Z" glyph-name="F" horiz-adv-x="621" unicode="F" /><glyph d="M460 672Q357 672 295 577.5Q233 483 233 335Q233 202 295.5 116Q358 30 449 30Q485 30 498 40.5Q511 51 511 80V206Q511 233 501 248Q491 263 466 272L438 283V315H749V283L733 277Q712 269 704 256.5Q696 244 696 206V82H734V41Q668 15 588.5 0Q509 -15 436 -15Q351 -15 279.5 7.5Q208 30 154 73Q94 122 61 190Q28 258 28 335Q28 423 59 494Q90 565 149 616Q206 663 283 689Q360 715 443 715Q502 715 573 708.5Q644 702 699 691L696 501H656L647 524Q616 603 570 637.5Q524 672 460 672Z" glyph-name="G" horiz-adv-x="772" unicode="G" /><glyph d="M460 672Q357 672 295 577.5Q233 483 233 335Q233 202 295.5 116Q358 30 449 30Q485 30 498 40.5Q511 51 511 80V206Q511 233 501 248Q491 263 466 272L438 283V315H749V283L733 277Q712 269 704 256.5Q696 244 696 206V82H734V41Q668 15 588.5 0Q509 -15 436 -15Q351 -15 279.5 7.5Q208 30 154 73Q94 122 61 190Q28 258 28 335Q28 423 59 494Q90 565 149 616Q206 663 283 689Q360 715 443 715Q502 715 573 708.5Q644 702 699 691L696 501H656L647 524Q616 603 570 637.5Q524 672 460 672ZM393 764Q323 764 285.5 801.5Q248 839 248 906V936H302V930Q302 899 324.5 884.5Q347 870 393 870Q439 870 461 884.5Q483 899 483 930V936H537V906Q537 839 499.5 801.5Q462 764 393 764Z" glyph-name="Gbreve" horiz-adv-x="772" unicode="&#286;" /><glyph d="M460 672Q357 672 295 577.5Q233 483 233 335Q233 202 295.5 116Q358 30 449 30Q485 30 498 40.5Q511 51 511 80V206Q511 233 501 248Q491 263 466 272L438 283V315H749V283L733 277Q712 269 704 256.5Q696 244 696 206V82H734V41Q668 15 588.5 0Q509 -15 436 -15Q351 -15 279.5 7.5Q208 30 154 73Q94 122 61 190Q28 258 28 335Q28 423 59 494Q90 565 149 616Q206 663 283 689Q360 715 443 715Q502 715 573 708.5Q644 702 699 691L696 501H656L647 524Q616 603 570 637.5Q524 672 460 672ZM306 765H239L353 920H431L545 765H478L392 818Z" glyph-name="Gcircumflex" horiz-adv-x="772" unicode="&#284;" /><glyph d="M460 672Q357 672 295 577.5Q233 483 233 335Q233 202 295.5 116Q358 30 449 30Q485 30 498 40.5Q511 51 511 80V206Q511 233 501 248Q491 263 466 272L438 283V315H749V283L733 277Q712 269 704 256.5Q696 244 696 206V82H734V41Q668 15 588.5 0Q509 -15 436 -15Q351 -15 279.5 7.5Q208 30 154 73Q94 122 61 190Q28 258 28 335Q28 423 59 494Q90 565 149 616Q206 663 283 689Q360 715 443 715Q502 715 573 708.5Q644 702 699 691L696 501H656L647 524Q616 603 570 637.5Q524 672 460 672ZM496 -173Q496 -226 463 -275.5Q430 -325 368 -364L338 -334Q366 -312 387.5 -282.5Q409 -253 422 -218Q415 -222 405.5 -224.5Q396 -227 385 -227Q350 -227 326 -202.5Q302 -178 302 -143Q302 -108 328 -81.5Q354 -55 393 -55Q437 -55 466.5 -89.5Q496 -124 496 -173Z" glyph-name="Gcommaaccent" horiz-adv-x="772" unicode="&#290;" /><glyph d="M460 672Q357 672 295 577.5Q233 483 233 335Q233 202 295.5 116Q358 30 449 30Q485 30 498 40.5Q511 51 511 80V206Q511 233 501 248Q491 263 466 272L438 283V315H749V283L733 277Q712 269 704 256.5Q696 244 696 206V82H734V41Q668 15 588.5 0Q509 -15 436 -15Q351 -15 279.5 7.5Q208 30 154 73Q94 122 61 190Q28 258 28 335Q28 423 59 494Q90 565 149 616Q206 663 283 689Q360 715 443 715Q502 715 573 708.5Q644 702 699 691L696 501H656L647 524Q616 603 570 637.5Q524 672 460 672ZM476 855Q476 820 451.5 795.5Q427 771 392 771Q358 771 333.5 795.5Q309 820 309 855Q309 890 333.5 915Q358 940 392 940Q427 940 451.5 915Q476 890 476 855Z" glyph-name="Gdotaccent" horiz-adv-x="772" unicode="&#288;" /><glyph d="M332 43 358 32V0H31V32L57 43Q82 54 92 68.5Q102 83 102 109V591Q102 617 92 631.5Q82 646 57 657L31 668V700H358V668L332 657Q306 646 296.5 632Q287 618 287 591V391H555V591Q555 617 545 631.5Q535 646 510 657L484 668V700H811V668L785 657Q759 646 749.5 632Q740 618 740 591V109Q740 82 749.5 68Q759 54 785 43L811 32V0H484V32L510 43Q535 54 545 68.5Q555 83 555 109V333H287V109Q287 82 296.5 68Q306 54 332 43Z" glyph-name="H" horiz-adv-x="842" unicode="H" /><glyph d="M287 486V391H555V486ZM332 43 358 32V0H31V32L57 43Q82 54 92 68.5Q102 83 102 109V486H36V545H102V591Q102 617 92 631.5Q82 646 57 657L31 668V700H358V668L332 657Q306 646 296.5 632Q287 618 287 591V545H555V591Q555 617 545 631.5Q535 646 510 657L484 668V700H811V668L785 657Q759 646 749.5 632Q740 618 740 591V545H806V486H740V109Q740 82 749.5 68Q759 54 785 43L811 32V0H484V32L510 43Q535 54 545 68.5Q555 83 555 109V333H287V109Q287 82 296.5 68Q306 54 332 43Z" glyph-name="Hbar" horiz-adv-x="842" unicode="&#294;" /><glyph d="M332 43 358 32V0H31V32L57 43Q82 54 92 68.5Q102 83 102 109V591Q102 617 92 631.5Q82 646 57 657L31 668V700H358V668L332 657Q306 646 296.5 632Q287 618 287 591V391H555V591Q555 617 545 631.5Q535 646 510 657L484 668V700H811V668L785 657Q759 646 749.5 632Q740 618 740 591V109Q740 82 749.5 68Q759 54 785 43L811 32V0H484V32L510 43Q535 54 545 68.5Q555 83 555 109V333H287V109Q287 82 296.5 68Q306 54 332 43ZM335 765H268L382 920H460L574 765H507L421 818Z" glyph-name="Hcircumflex" horiz-adv-x="842" unicode="&#292;" /><glyph d="M287 591V109Q287 82 296.5 68Q306 54 332 43L358 32V0H31V32L57 43Q82 54 92 68.5Q102 83 102 109V591Q102 617 92 631.5Q82 646 57 657L31 668V700H358V668L332 657Q306 646 296.5 632Q287 618 287 591Z" glyph-name="I" horiz-adv-x="389" unicode="I" /><glyph d="M287 591V109Q287 82 296.5 68Q306 54 332 43L358 32V0H31V32L57 43Q82 54 92 68.5Q102 83 102 109V591Q102 617 92 631.5Q82 646 57 657L31 668V700H358V668L332 657Q306 646 296.5 632Q287 618 287 591ZM669 591V19Q669 -78 613 -131.5Q557 -185 462 -185Q437 -185 411 -180Q385 -175 362 -166L371 -131Q375 -132 378.5 -132Q382 -132 388 -132Q432 -132 458 -101.5Q484 -71 484 -17V591Q484 617 474 631.5Q464 646 439 657L413 668V700H730V668L710 660Q687 651 678 636.5Q669 622 669 591Z" glyph-name="IJ" horiz-adv-x="760" unicode="&#306;" /><glyph d="M287 591V109Q287 82 296.5 68Q306 54 332 43L358 32V0H31V32L57 43Q82 54 92 68.5Q102 83 102 109V591Q102 617 92 631.5Q82 646 57 657L31 668V700H358V668L332 657Q306 646 296.5 632Q287 618 287 591ZM223 765H166L181 920H352Z" glyph-name="Iacute" horiz-adv-x="389" unicode="&#205;" /><glyph d="M287 591V109Q287 82 296.5 68Q306 54 332 43L358 32V0H31V32L57 43Q82 54 92 68.5Q102 83 102 109V591Q102 617 92 631.5Q82 646 57 657L31 668V700H358V668L332 657Q306 646 296.5 632Q287 618 287 591ZM195 764Q125 764 87.5 801.5Q50 839 50 906V936H104V930Q104 899 126.5 884.5Q149 870 195 870Q241 870 263 884.5Q285 899 285 930V936H339V906Q339 839 301.5 801.5Q264 764 195 764Z" glyph-name="Ibreve" horiz-adv-x="389" unicode="&#300;" /><glyph d="M287 591V109Q287 82 296.5 68Q306 54 332 43L358 32V0H31V32L57 43Q82 54 92 68.5Q102 83 102 109V591Q102 617 92 631.5Q82 646 57 657L31 668V700H358V668L332 657Q306 646 296.5 632Q287 618 287 591ZM108 765H41L155 920H233L347 765H280L194 818Z" glyph-name="Icircumflex" horiz-adv-x="389" unicode="&#206;" /><glyph d="M287 591V109Q287 82 296.5 68Q306 54 332 43L358 32V0H31V32L57 43Q82 54 92 68.5Q102 83 102 109V591Q102 617 92 631.5Q82 646 57 657L31 668V700H358V668L332 657Q306 646 296.5 632Q287 618 287 591ZM377 852Q377 819 354.5 796Q332 773 300 773Q268 773 245.5 796Q223 819 223 852Q223 884 245.5 907Q268 930 300 930Q332 930 354.5 907Q377 884 377 852ZM178 852Q178 819 155.5 796Q133 773 101 773Q69 773 46.5 796Q24 819 24 852Q24 884 46.5 907Q69 930 101 930Q133 930 155.5 907Q178 884 178 852Z" glyph-name="Idieresis" horiz-adv-x="389" unicode="&#207;" /><glyph d="M287 591V109Q287 82 296.5 68Q306 54 332 43L358 32V0H31V32L57 43Q82 54 92 68.5Q102 83 102 109V591Q102 617 92 631.5Q82 646 57 657L31 668V700H358V668L332 657Q306 646 296.5 632Q287 618 287 591ZM278 855Q278 820 253.5 795.5Q229 771 194 771Q160 771 135.5 795.5Q111 820 111 855Q111 890 135.5 915Q160 940 194 940Q229 940 253.5 915Q278 890 278 855Z" glyph-name="Idotaccent" horiz-adv-x="389" unicode="&#304;" /><glyph d="M287 591V109Q287 82 296.5 68Q306 54 332 43L358 32V0H31V32L57 43Q82 54 92 68.5Q102 83 102 109V591Q102 617 92 631.5Q82 646 57 657L31 668V700H358V668L332 657Q306 646 296.5 632Q287 618 287 591ZM223 765H166L37 920H208Z" glyph-name="Igrave" horiz-adv-x="389" unicode="&#204;" /><glyph d="M287 591V109Q287 82 296.5 68Q306 54 332 43L358 32V0H31V32L57 43Q82 54 92 68.5Q102 83 102 109V591Q102 617 92 631.5Q82 646 57 657L31 668V700H358V668L332 657Q306 646 296.5 632Q287 618 287 591ZM349 780H40V849H349Z" glyph-name="Imacron" horiz-adv-x="389" unicode="&#298;" /><glyph d="M323 -162 311 -201Q289 -209 269.5 -212.5Q250 -216 233 -216Q183 -216 152 -191Q121 -166 121 -126Q121 -93 145 -60Q169 -27 212 0H31V32L57 43Q82 54 92 68.5Q102 83 102 109V591Q102 617 92 631.5Q82 646 57 657L31 668V700H358V668L332 657Q306 646 296.5 632Q287 618 287 591V109Q287 82 296.5 68Q306 54 332 43L358 32V0H273Q254 -32 244 -60Q234 -88 234 -108Q234 -134 253 -148.5Q272 -163 305 -163Q312 -163 317 -162.5Q322 -162 323 -162Z" glyph-name="Iogonek" horiz-adv-x="389" unicode="&#302;" /><glyph d="M287 591V109Q287 82 296.5 68Q306 54 332 43L358 32V0H31V32L57 43Q82 54 92 68.5Q102 83 102 109V591Q102 617 92 631.5Q82 646 57 657L31 668V700H358V668L332 657Q306 646 296.5 632Q287 618 287 591ZM117 798Q102 798 93.5 791.5Q85 785 76 766L35 779Q39 840 64.5 871Q90 902 137 902Q150 902 167 898.5Q184 895 218 883Q243 874 254 871.5Q265 869 273 869Q288 869 297 875.5Q306 882 314 901L355 888Q351 827 325.5 795.5Q300 764 253 764Q240 764 223.5 767.5Q207 771 174 783Q148 792 136.5 795Q125 798 117 798Z" glyph-name="Itilde" horiz-adv-x="389" unicode="&#296;" /><glyph d="M280 591V19Q280 -78 224 -131.5Q168 -185 73 -185Q48 -185 22 -180Q-4 -175 -27 -166L-18 -131Q-14 -132 -10.5 -132Q-7 -132 -1 -132Q43 -132 69 -101.5Q95 -71 95 -17V591Q95 617 85 631.5Q75 646 50 657L24 668V700H341V668L321 660Q298 651 289 636.5Q280 622 280 591Z" glyph-name="J" horiz-adv-x="371" unicode="J" /><glyph d="M280 591V19Q280 -78 224 -131.5Q168 -185 73 -185Q48 -185 22 -180Q-4 -175 -27 -166L-18 -131Q-14 -132 -10.5 -132Q-7 -132 -1 -132Q43 -132 69 -101.5Q95 -71 95 -17V591Q95 617 85 631.5Q75 646 50 657L24 668V700H341V668L321 660Q298 651 289 636.5Q280 622 280 591ZM103 765H36L150 920H228L342 765H275L189 818Z" glyph-name="Jcircumflex" horiz-adv-x="371" unicode="&#308;" /><glyph d="M337 43 368 32V0H31V32L57 43Q82 54 92 68.5Q102 83 102 109V591Q102 617 92 631.5Q82 646 57 657L31 668V700H358V668L332 657Q306 646 296.5 632Q287 618 287 591V388H368L494 558Q522 595 515.5 620.5Q509 646 468 657L430 668V700H746V668L721 661Q692 652 663 629.5Q634 607 589 556L474 428L623 211Q669 144 702 103.5Q735 63 758 47L779 32V0H637Q578 0 542.5 21Q507 42 477 92L326 343H287V109Q287 84 299 68.5Q311 53 337 43Z" glyph-name="K" horiz-adv-x="758" unicode="K" /><glyph d="M337 43 368 32V0H31V32L57 43Q82 54 92 68.5Q102 83 102 109V591Q102 617 92 631.5Q82 646 57 657L31 668V700H358V668L332 657Q306 646 296.5 632Q287 618 287 591V388H368L494 558Q522 595 515.5 620.5Q509 646 468 657L430 668V700H746V668L721 661Q692 652 663 629.5Q634 607 589 556L474 428L623 211Q669 144 702 103.5Q735 63 758 47L779 32V0H637Q578 0 542.5 21Q507 42 477 92L326 343H287V109Q287 84 299 68.5Q311 53 337 43ZM478 -173Q478 -226 445 -275.5Q412 -325 350 -364L320 -334Q348 -312 369.5 -282.5Q391 -253 404 -218Q397 -222 387.5 -224.5Q378 -227 367 -227Q332 -227 308 -202.5Q284 -178 284 -143Q284 -108 310 -81.5Q336 -55 375 -55Q419 -55 448.5 -89.5Q478 -124 478 -173Z" glyph-name="Kcommaaccent" horiz-adv-x="758" unicode="&#310;" /><glyph d="M616 0H31V32L57 43Q82 54 92 68.5Q102 83 102 109V591Q102 617 92 631.5Q82 646 57 657L31 668V700H368V668L338 657Q311 647 299 631.5Q287 616 287 591V106Q287 76 304.5 58.5Q322 41 353 41H387Q453 41 492.5 70Q532 99 566 184L586 234H624Z" glyph-name="L" horiz-adv-x="640" unicode="L" /><glyph d="M616 0H31V32L57 43Q82 54 92 68.5Q102 83 102 109V591Q102 617 92 631.5Q82 646 57 657L31 668V700H368V668L338 657Q311 647 299 631.5Q287 616 287 591V106Q287 76 304.5 58.5Q322 41 353 41H387Q453 41 492.5 70Q532 99 566 184L586 234H624ZM219 765H162L177 920H348Z" glyph-name="Lacute" horiz-adv-x="640" unicode="&#313;" /><glyph d="M596 583Q596 530 563 480.5Q530 431 468 392L438 422Q466 444 487.5 473.5Q509 503 522 538Q515 534 505.5 531.5Q496 529 485 529Q450 529 426 553.5Q402 578 402 613Q402 648 428 674.5Q454 701 493 701Q537 701 566.5 666.5Q596 632 596 583ZM616 0H31V32L57 43Q82 54 92 68.5Q102 83 102 109V591Q102 617 92 631.5Q82 646 57 657L31 668V700H368V668L338 657Q311 647 299 631.5Q287 616 287 591V106Q287 76 304.5 58.5Q322 41 353 41H387Q453 41 492.5 70Q532 99 566 184L586 234H624Z" glyph-name="Lcaron" horiz-adv-x="642" unicode="&#317;" /><glyph d="M616 0H31V32L57 43Q82 54 92 68.5Q102 83 102 109V591Q102 617 92 631.5Q82 646 57 657L31 668V700H368V668L338 657Q311 647 299 631.5Q287 616 287 591V106Q287 76 304.5 58.5Q322 41 353 41H387Q453 41 492.5 70Q532 99 566 184L586 234H624ZM426 -173Q426 -226 393 -275.5Q360 -325 298 -364L268 -334Q296 -312 317.5 -282.5Q339 -253 352 -218Q345 -222 335.5 -224.5Q326 -227 315 -227Q280 -227 256 -202.5Q232 -178 232 -143Q232 -108 258 -81.5Q284 -55 323 -55Q367 -55 396.5 -89.5Q426 -124 426 -173Z" glyph-name="Lcommaaccent" horiz-adv-x="640" unicode="&#315;" /><glyph d="M616 0H31V32L57 43Q82 54 92 68.5Q102 83 102 109V591Q102 617 92 631.5Q82 646 57 657L31 668V700H368V668L338 657Q311 647 299 631.5Q287 616 287 591V106Q287 76 304.5 58.5Q322 41 353 41H387Q453 41 492.5 70Q532 99 566 184L586 234H624ZM546 375Q546 335 518.5 308Q491 281 451 281Q412 281 384.5 308.5Q357 336 357 375Q357 415 384.5 442.5Q412 470 451 470Q492 470 519 443Q546 416 546 375Z" glyph-name="Ldot" horiz-adv-x="640" unicode="&#319;" /><glyph d="M624 234 616 0H31V32L57 43Q82 54 92 68.5Q102 83 102 109V258L26 232V282L102 308V591Q102 617 92 631.5Q82 646 57 657L31 668V700H368V668L338 657Q311 647 299 631.5Q287 616 287 591V372L492 442V392L287 322V106Q287 76 304.5 58.5Q322 41 353 41H387Q453 41 492.5 70Q532 99 566 184L586 234Z" glyph-name="Lslash" horiz-adv-x="640" unicode="&#321;" /><glyph d="M865 591 893 109Q895 80 906 64Q917 48 938 42L963 32V0H630V32L660 43Q682 51 692 65.5Q702 80 703 109L686 579H684L469 0H399L181 579H179L169 109Q168 82 180.5 66Q193 50 219 43L262 32V0H5V32L44 43Q70 51 81.5 66.5Q93 82 95 109L121 590Q123 615 111.5 632Q100 649 75 658L48 668V700H417V668L394 660Q374 654 369 639.5Q364 625 375 593L500 234H502L629 593Q640 623 635.5 638Q631 653 610 660L588 668V700H938V668L911 658Q885 648 874 631.5Q863 615 865 591Z" glyph-name="M" horiz-adv-x="982" unicode="M" /><glyph d="M645 252 633 591Q632 619 620 634.5Q608 650 583 657L540 668V700H789V668L750 657Q725 649 714.5 634Q704 619 704 591V-7H626L171 539H169L176 109Q178 81 190 65Q202 49 227 43L270 32V0H13V32L52 43Q78 51 90 67Q102 83 103 109L115 609L97 628Q82 644 69.5 652Q57 660 45 663L30 667V700H289Q312 664 338 628.5Q364 593 393 558L643 252Z" glyph-name="N" horiz-adv-x="801" unicode="N" /><glyph d="M645 252 633 591Q632 619 620 634.5Q608 650 583 657L540 668V700H789V668L750 657Q725 649 714.5 634Q704 619 704 591V-7H626L171 539H169L176 109Q178 81 190 65Q202 49 227 43L270 32V0H13V32L52 43Q78 51 90 67Q102 83 103 109L115 609L97 628Q82 644 69.5 652Q57 660 45 663L30 667V700H289Q312 664 338 628.5Q364 593 393 558L643 252ZM418 765H361L376 920H547Z" glyph-name="Nacute" horiz-adv-x="801" unicode="&#323;" /><glyph d="M645 252 633 591Q632 619 620 634.5Q608 650 583 657L540 668V700H789V668L750 657Q725 649 714.5 634Q704 619 704 591V-7H626L171 539H169L176 109Q178 81 190 65Q202 49 227 43L270 32V0H13V32L52 43Q78 51 90 67Q102 83 103 109L115 609L97 628Q82 644 69.5 652Q57 660 45 663L30 667V700H289Q312 664 338 628.5Q364 593 393 558L643 252ZM351 765 237 920H304L390 867L476 920H543L429 765Z" glyph-name="Ncaron" horiz-adv-x="801" unicode="&#327;" /><glyph d="M645 252 633 591Q632 619 620 634.5Q608 650 583 657L540 668V700H789V668L750 657Q725 649 714.5 634Q704 619 704 591V-7H626L171 539H169L176 109Q178 81 190 65Q202 49 227 43L270 32V0H13V32L52 43Q78 51 90 67Q102 83 103 109L115 609L97 628Q82 644 69.5 652Q57 660 45 663L30 667V700H289Q312 664 338 628.5Q364 593 393 558L643 252ZM491 -173Q491 -226 458 -275.5Q425 -325 363 -364L333 -334Q361 -312 382.5 -282.5Q404 -253 417 -218Q410 -222 400.5 -224.5Q391 -227 380 -227Q345 -227 321 -202.5Q297 -178 297 -143Q297 -108 323 -81.5Q349 -55 388 -55Q432 -55 461.5 -89.5Q491 -124 491 -173Z" glyph-name="Ncommaaccent" horiz-adv-x="801" unicode="&#325;" /><glyph d="M645 252 633 591Q632 619 620 634.5Q608 650 583 657L540 668V700H789V668L750 657Q725 649 714.5 634Q704 619 704 591V-7H626L171 539H169L176 109Q178 81 190 65Q202 49 227 43L270 32V0H13V32L52 43Q78 51 90 67Q102 83 103 109L115 609L97 628Q82 644 69.5 652Q57 660 45 663L30 667V700H289Q312 664 338 628.5Q364 593 393 558L643 252ZM330 798Q315 798 306.5 791.5Q298 785 289 766L248 779Q252 840 277.5 871Q303 902 350 902Q363 902 380 898.5Q397 895 431 883Q456 874 467 871.5Q478 869 486 869Q501 869 510 875.5Q519 882 527 901L568 888Q564 827 538.5 795.5Q513 764 466 764Q453 764 436.5 767.5Q420 771 387 783Q361 792 349.5 795Q338 798 330 798Z" glyph-name="Ntilde" horiz-adv-x="801" unicode="&#209;" /><glyph d="M28 349Q28 503 131 609Q234 715 386 715Q538 715 641 609Q744 503 744 349Q744 194 641 88Q538 -18 386 -18Q234 -18 131 88Q28 194 28 349ZM237 349Q237 180 273 102.5Q309 25 386 25Q463 25 498.5 102Q534 179 534 349Q534 518 498.5 595Q463 672 386 672Q309 672 273 594.5Q237 517 237 349Z" glyph-name="O" horiz-adv-x="772" unicode="O" /><glyph d="M442 661H432Q323 661 271.5 584.5Q220 508 220 349V344Q222 195 288.5 115.5Q355 36 472 36H506V609Q506 635 490 648Q474 661 442 661ZM1031 0H415Q245 0 136.5 96.5Q28 193 28 351V359Q31 512 141 606Q251 700 415 700H778Q840 700 899 702Q958 704 1014 708L1011 518H976L965 536Q928 609 901 633.5Q874 658 829 659L691 663V387L777 390Q800 391 812.5 404Q825 417 839 460L852 503H888V231H852L839 274Q827 313 814.5 326.5Q802 340 777 343L691 346V106Q691 76 708.5 58Q726 40 757 40H801Q869 40 909 69.5Q949 99 981 183L1001 234H1038Z" glyph-name="OE" horiz-adv-x="1070" unicode="&#338;" /><glyph d="M28 349Q28 503 131 609Q234 715 386 715Q538 715 641 609Q744 503 744 349Q744 194 641 88Q538 -18 386 -18Q234 -18 131 88Q28 194 28 349ZM237 349Q237 180 273 102.5Q309 25 386 25Q463 25 498.5 102Q534 179 534 349Q534 518 498.5 595Q463 672 386 672Q309 672 273 594.5Q237 517 237 349ZM415 765H358L373 920H544Z" glyph-name="Oacute" horiz-adv-x="772" unicode="&#211;" /><glyph d="M28 349Q28 503 131 609Q234 715 386 715Q538 715 641 609Q744 503 744 349Q744 194 641 88Q538 -18 386 -18Q234 -18 131 88Q28 194 28 349ZM237 349Q237 180 273 102.5Q309 25 386 25Q463 25 498.5 102Q534 179 534 349Q534 518 498.5 595Q463 672 386 672Q309 672 273 594.5Q237 517 237 349ZM386 764Q316 764 278.5 801.5Q241 839 241 906V936H295V930Q295 899 317.5 884.5Q340 870 386 870Q432 870 454 884.5Q476 899 476 930V936H530V906Q530 839 492.5 801.5Q455 764 386 764Z" glyph-name="Obreve" horiz-adv-x="772" unicode="&#334;" /><glyph d="M28 349Q28 503 131 609Q234 715 386 715Q538 715 641 609Q744 503 744 349Q744 194 641 88Q538 -18 386 -18Q234 -18 131 88Q28 194 28 349ZM237 349Q237 180 273 102.5Q309 25 386 25Q463 25 498.5 102Q534 179 534 349Q534 518 498.5 595Q463 672 386 672Q309 672 273 594.5Q237 517 237 349ZM300 765H233L347 920H425L539 765H472L386 818Z" glyph-name="Ocircumflex" horiz-adv-x="772" unicode="&#212;" /><glyph d="M28 349Q28 503 131 609Q234 715 386 715Q538 715 641 609Q744 503 744 349Q744 194 641 88Q538 -18 386 -18Q234 -18 131 88Q28 194 28 349ZM237 349Q237 180 273 102.5Q309 25 386 25Q463 25 498.5 102Q534 179 534 349Q534 518 498.5 595Q463 672 386 672Q309 672 273 594.5Q237 517 237 349ZM569 852Q569 819 546.5 796Q524 773 492 773Q460 773 437.5 796Q415 819 415 852Q415 884 437.5 907Q460 930 492 930Q524 930 546.5 907Q569 884 569 852ZM370 852Q370 819 347.5 796Q325 773 293 773Q261 773 238.5 796Q216 819 216 852Q216 884 238.5 907Q261 930 293 930Q325 930 347.5 907Q370 884 370 852Z" glyph-name="Odieresis" horiz-adv-x="772" unicode="&#214;" /><glyph d="M28 349Q28 503 131 609Q234 715 386 715Q538 715 641 609Q744 503 744 349Q744 194 641 88Q538 -18 386 -18Q234 -18 131 88Q28 194 28 349ZM237 349Q237 180 273 102.5Q309 25 386 25Q463 25 498.5 102Q534 179 534 349Q534 518 498.5 595Q463 672 386 672Q309 672 273 594.5Q237 517 237 349ZM415 765H358L229 920H400Z" glyph-name="Ograve" horiz-adv-x="772" unicode="&#210;" /><glyph d="M28 349Q28 503 131 609Q234 715 386 715Q538 715 641 609Q744 503 744 349Q744 194 641 88Q538 -18 386 -18Q234 -18 131 88Q28 194 28 349ZM237 349Q237 180 273 102.5Q309 25 386 25Q463 25 498.5 102Q534 179 534 349Q534 518 498.5 595Q463 672 386 672Q309 672 273 594.5Q237 517 237 349ZM310 765H253L268 920H439ZM511 765H454L469 920H640Z" glyph-name="Ohungarumlaut" horiz-adv-x="772" unicode="&#336;" /><glyph d="M28 349Q28 503 131 609Q234 715 386 715Q538 715 641 609Q744 503 744 349Q744 194 641 88Q538 -18 386 -18Q234 -18 131 88Q28 194 28 349ZM237 349Q237 180 273 102.5Q309 25 386 25Q463 25 498.5 102Q534 179 534 349Q534 518 498.5 595Q463 672 386 672Q309 672 273 594.5Q237 517 237 349ZM541 780H232V849H541Z" glyph-name="Omacron" horiz-adv-x="772" unicode="&#332;" /><glyph d="M303 351Q303 296 265.5 257.5Q228 219 174 219Q120 219 82.5 257.5Q45 296 45 351Q45 406 82.5 444.5Q120 483 174 483Q228 483 265.5 444.5Q303 406 303 351Z" glyph-name="Omega" horiz-adv-x="348" unicode="&#8486;" /><glyph d="M386 672Q309 672 273 594.5Q237 517 237 349Q237 311 239 275.5Q241 240 245 208L513 556Q496 615 465 643.5Q434 672 386 672ZM386 25Q463 25 498.5 102Q534 179 534 349Q534 388 532 423.5Q530 459 526 491L258 143Q276 83 307 54Q338 25 386 25ZM744 349Q744 194 641 88Q538 -18 386 -18Q331 -18 279.5 -2.5Q228 13 183 44L118 -40L79 -9L144 76Q88 128 58 199Q28 270 28 349Q28 503 131 609Q234 715 386 715Q442 715 493 699.5Q544 684 588 654L655 742L694 710L627 623Q683 572 713.5 500.5Q744 429 744 349Z" glyph-name="Oslash" horiz-adv-x="772" unicode="&#216;" /><glyph d="M28 349Q28 503 131 609Q234 715 386 715Q538 715 641 609Q744 503 744 349Q744 194 641 88Q538 -18 386 -18Q234 -18 131 88Q28 194 28 349ZM237 349Q237 180 273 102.5Q309 25 386 25Q463 25 498.5 102Q534 179 534 349Q534 518 498.5 595Q463 672 386 672Q309 672 273 594.5Q237 517 237 349ZM308 798Q293 798 284.5 791.5Q276 785 267 766L226 779Q230 840 255.5 871Q281 902 328 902Q341 902 358 898.5Q375 895 409 883Q434 874 445 871.5Q456 869 464 869Q479 869 488 875.5Q497 882 505 901L546 888Q542 827 516.5 795.5Q491 764 444 764Q431 764 414.5 767.5Q398 771 365 783Q339 792 327.5 795Q316 798 308 798Z" glyph-name="Otilde" horiz-adv-x="772" unicode="&#213;" /><glyph d="M368 0H31V32L57 43Q82 54 92 68.5Q102 83 102 109V591Q102 617 92 631.5Q82 646 57 657L31 668V700H356Q484 700 560 644.5Q636 589 636 496Q636 403 558.5 346Q481 289 340 289H317V330Q373 331 408 377Q443 423 443 490Q443 575 406.5 619Q370 663 299 663H287V109Q287 84 299 68.5Q311 53 337 43L368 32Z" glyph-name="P" horiz-adv-x="649" unicode="P" /><glyph d="M654 -168Q605 -168 558.5 -145.5Q512 -123 466 -78L405 -17Q402 -18 398 -18Q394 -18 386 -18Q234 -18 131 88Q28 194 28 349Q28 503 131 609Q234 715 386 715Q538 715 641 609Q744 503 744 349Q744 249 698 165Q652 81 571 32L658 -31Q708 -64 745.5 -78.5Q783 -93 815 -93Q821 -94 829.5 -93.5Q838 -93 848 -91V-127Q822 -142 763.5 -155Q705 -168 654 -168ZM237 349Q237 180 273 102.5Q309 25 386 25Q463 25 498.5 102Q534 179 534 349Q534 518 498.5 595Q463 672 386 672Q309 672 273 594.5Q237 517 237 349Z" glyph-name="Q" horiz-adv-x="772" unicode="Q" /><glyph d="M287 661V358H347Q400 358 432.5 399Q465 440 465 508Q465 589 434.5 625Q404 661 341 661ZM334 312H287V109Q287 84 299 68.5Q311 53 337 43L368 32V0H31V32L57 43Q82 54 92 68.5Q102 83 102 109V591Q102 617 92 631.5Q82 646 57 657L31 668V700H402Q518 700 587 651.5Q656 603 656 520Q656 462 614.5 417.5Q573 373 506 352L600 200Q644 128 673 89.5Q702 51 722 37L729 32V0H600Q540 0 504.5 22Q469 44 444 95Z" glyph-name="R" horiz-adv-x="722" unicode="R" /><glyph d="M287 661V358H347Q400 358 432.5 399Q465 440 465 508Q465 589 434.5 625Q404 661 341 661ZM334 312H287V109Q287 84 299 68.5Q311 53 337 43L368 32V0H31V32L57 43Q82 54 92 68.5Q102 83 102 109V591Q102 617 92 631.5Q82 646 57 657L31 668V700H402Q518 700 587 651.5Q656 603 656 520Q656 462 614.5 417.5Q573 373 506 352L600 200Q644 128 673 89.5Q702 51 722 37L729 32V0H600Q540 0 504.5 22Q469 44 444 95ZM375 765H318L333 920H504Z" glyph-name="Racute" horiz-adv-x="722" unicode="&#340;" /><glyph d="M287 661V358H347Q400 358 432.5 399Q465 440 465 508Q465 589 434.5 625Q404 661 341 661ZM334 312H287V109Q287 84 299 68.5Q311 53 337 43L368 32V0H31V32L57 43Q82 54 92 68.5Q102 83 102 109V591Q102 617 92 631.5Q82 646 57 657L31 668V700H402Q518 700 587 651.5Q656 603 656 520Q656 462 614.5 417.5Q573 373 506 352L600 200Q644 128 673 89.5Q702 51 722 37L729 32V0H600Q540 0 504.5 22Q469 44 444 95ZM307 765 193 920H260L346 867L432 920H499L385 765Z" glyph-name="Rcaron" horiz-adv-x="722" unicode="&#344;" /><glyph d="M287 661V358H347Q400 358 432.5 399Q465 440 465 508Q465 589 434.5 625Q404 661 341 661ZM334 312H287V109Q287 84 299 68.5Q311 53 337 43L368 32V0H31V32L57 43Q82 54 92 68.5Q102 83 102 109V591Q102 617 92 631.5Q82 646 57 657L31 668V700H402Q518 700 587 651.5Q656 603 656 520Q656 462 614.5 417.5Q573 373 506 352L600 200Q644 128 673 89.5Q702 51 722 37L729 32V0H600Q540 0 504.5 22Q469 44 444 95ZM488 -173Q488 -226 455 -275.5Q422 -325 360 -364L330 -334Q358 -312 379.5 -282.5Q401 -253 414 -218Q407 -222 397.5 -224.5Q388 -227 377 -227Q342 -227 318 -202.5Q294 -178 294 -143Q294 -108 320 -81.5Q346 -55 385 -55Q429 -55 458.5 -89.5Q488 -124 488 -173Z" glyph-name="Rcommaaccent" horiz-adv-x="722" unicode="&#342;" /><glyph d="M496 363Q532 333 549.5 297.5Q567 262 567 217Q567 111 488 46.5Q409 -18 284 -18Q221 -18 161.5 -5.5Q102 7 47 31L52 233H97Q120 135 169.5 82Q219 29 288 29Q338 29 370.5 58Q403 87 403 128Q403 173 368.5 204.5Q334 236 228 282Q124 327 83.5 378Q43 429 43 503Q43 594 117.5 654.5Q192 715 315 715Q360 715 425.5 708.5Q491 702 528 694L518 525H474Q456 599 420 635.5Q384 672 331 672Q281 672 248.5 643Q216 614 216 573Q216 535 243 506.5Q270 478 348 443Q413 415 443.5 397.5Q474 380 496 363Z" glyph-name="S" horiz-adv-x="596" unicode="S" /><glyph d="M496 363Q532 333 549.5 297.5Q567 262 567 217Q567 111 488 46.5Q409 -18 284 -18Q221 -18 161.5 -5.5Q102 7 47 31L52 233H97Q120 135 169.5 82Q219 29 288 29Q338 29 370.5 58Q403 87 403 128Q403 173 368.5 204.5Q334 236 228 282Q124 327 83.5 378Q43 429 43 503Q43 594 117.5 654.5Q192 715 315 715Q360 715 425.5 708.5Q491 702 528 694L518 525H474Q456 599 420 635.5Q384 672 331 672Q281 672 248.5 643Q216 614 216 573Q216 535 243 506.5Q270 478 348 443Q413 415 443.5 397.5Q474 380 496 363ZM331 765H274L289 920H460Z" glyph-name="Sacute" horiz-adv-x="596" unicode="&#346;" /><glyph d="M496 363Q532 333 549.5 297.5Q567 262 567 217Q567 111 488 46.5Q409 -18 284 -18Q221 -18 161.5 -5.5Q102 7 47 31L52 233H97Q120 135 169.5 82Q219 29 288 29Q338 29 370.5 58Q403 87 403 128Q403 173 368.5 204.5Q334 236 228 282Q124 327 83.5 378Q43 429 43 503Q43 594 117.5 654.5Q192 715 315 715Q360 715 425.5 708.5Q491 702 528 694L518 525H474Q456 599 420 635.5Q384 672 331 672Q281 672 248.5 643Q216 614 216 573Q216 535 243 506.5Q270 478 348 443Q413 415 443.5 397.5Q474 380 496 363ZM263 765 149 920H216L302 867L388 920H455L341 765Z" glyph-name="Scaron" horiz-adv-x="596" unicode="&#352;" /><glyph d="M406 -148Q406 -191 368 -219.5Q330 -248 266 -248Q232 -248 197.5 -236.5Q163 -225 146 -210L164 -174Q180 -180 193 -182.5Q206 -185 219 -185Q250 -185 267.5 -173.5Q285 -162 285 -141Q285 -119 259 -104Q233 -89 193 -88L191 -79L252 -17Q197 -14 145.5 -2Q94 10 47 31L52 233H97Q120 135 169.5 82Q219 29 288 29Q338 29 370.5 58Q403 87 403 128Q403 173 368.5 204.5Q334 236 228 282Q124 327 83.5 378Q43 429 43 503Q43 594 117.5 654.5Q192 715 315 715Q360 715 425.5 708.5Q491 702 528 694L518 525H474Q456 599 420 635.5Q384 672 331 672Q281 672 248.5 643Q216 614 216 573Q216 535 243 506.5Q270 478 348 443Q413 415 443.5 397.5Q474 380 496 363Q532 333 549.5 297.5Q567 262 567 217Q567 116 495.5 53Q424 -10 308 -17L286 -49Q335 -53 370.5 -79.5Q406 -106 406 -148Z" glyph-name="Scedilla" horiz-adv-x="596" unicode="&#350;" /><glyph d="M496 363Q532 333 549.5 297.5Q567 262 567 217Q567 111 488 46.5Q409 -18 284 -18Q221 -18 161.5 -5.5Q102 7 47 31L52 233H97Q120 135 169.5 82Q219 29 288 29Q338 29 370.5 58Q403 87 403 128Q403 173 368.5 204.5Q334 236 228 282Q124 327 83.5 378Q43 429 43 503Q43 594 117.5 654.5Q192 715 315 715Q360 715 425.5 708.5Q491 702 528 694L518 525H474Q456 599 420 635.5Q384 672 331 672Q281 672 248.5 643Q216 614 216 573Q216 535 243 506.5Q270 478 348 443Q413 415 443.5 397.5Q474 380 496 363ZM216 765H149L263 920H341L455 765H388L302 818Z" glyph-name="Scircumflex" horiz-adv-x="596" unicode="&#348;" /><glyph d="M496 363Q532 333 549.5 297.5Q567 262 567 217Q567 111 488 46.5Q409 -18 284 -18Q221 -18 161.5 -5.5Q102 7 47 31L52 233H97Q120 135 169.5 82Q219 29 288 29Q338 29 370.5 58Q403 87 403 128Q403 173 368.5 204.5Q334 236 228 282Q124 327 83.5 378Q43 429 43 503Q43 594 117.5 654.5Q192 715 315 715Q360 715 425.5 708.5Q491 702 528 694L518 525H474Q456 599 420 635.5Q384 672 331 672Q281 672 248.5 643Q216 614 216 573Q216 535 243 506.5Q270 478 348 443Q413 415 443.5 397.5Q474 380 496 363ZM416 -174Q416 -227 383 -276.5Q350 -326 288 -365L258 -335Q286 -313 307.5 -283.5Q329 -254 342 -219Q335 -223 325.5 -225.5Q316 -228 305 -228Q270 -228 246 -203.5Q222 -179 222 -144Q222 -109 248 -82.5Q274 -56 313 -56Q357 -56 386.5 -90.5Q416 -125 416 -174Z" glyph-name="Scommaaccent" horiz-adv-x="596" unicode="&#536;" /><glyph d="M487 43 517 32V0H171V32L201 43Q228 53 240 68.5Q252 84 252 109V661H232Q173 661 135.5 629.5Q98 598 65 522L50 498H15V700H673V498H638L624 522Q590 598 552.5 629.5Q515 661 456 661H437V109Q437 84 449 68.5Q461 53 487 43Z" glyph-name="T" horiz-adv-x="688" unicode="T" /><glyph d="M487 43 517 32V0H171V32L201 43Q228 53 240 68.5Q252 84 252 109V333H156V391H252V661H232Q173 661 135.5 629.5Q98 598 65 522L50 498H15V700H673V498H638L624 522Q590 598 552.5 629.5Q515 661 456 661H437V391H533V333H437V109Q437 84 449 68.5Q461 53 487 43Z" glyph-name="Tbar" horiz-adv-x="688" unicode="&#358;" /><glyph d="M487 43 517 32V0H171V32L201 43Q228 53 240 68.5Q252 84 252 109V661H232Q173 661 135.5 629.5Q98 598 65 522L50 498H15V700H673V498H638L624 522Q590 598 552.5 629.5Q515 661 456 661H437V109Q437 84 449 68.5Q461 53 487 43ZM305 765 191 920H258L344 867L430 920H497L383 765Z" glyph-name="Tcaron" horiz-adv-x="688" unicode="&#356;" /><glyph d="M453 -148Q453 -191 415 -219.5Q377 -248 313 -248Q279 -248 244.5 -236.5Q210 -225 193 -210L211 -174Q227 -180 240 -182.5Q253 -185 266 -185Q297 -185 314.5 -173.5Q332 -162 332 -141Q332 -119 306 -104Q280 -89 240 -88L238 -79L315 0H171V32L201 43Q228 53 240 68.5Q252 84 252 109V661H232Q173 661 135.5 629.5Q98 598 65 522L50 498H15V700H673V498H638L624 522Q590 598 552.5 629.5Q515 661 456 661H437V109Q437 84 449 68.5Q461 53 487 43L517 32V0H367L333 -49Q382 -53 417.5 -79.5Q453 -106 453 -148Z" glyph-name="Tcedilla" horiz-adv-x="688" /><glyph d="M448 -173Q448 -226 415 -275.5Q382 -325 320 -364L290 -334Q318 -312 339.5 -282.5Q361 -253 374 -218Q367 -222 357.5 -224.5Q348 -227 337 -227Q302 -227 278 -202.5Q254 -178 254 -143Q254 -108 280 -81.5Q306 -55 345 -55Q389 -55 418.5 -89.5Q448 -124 448 -173ZM487 43 517 32V0H171V32L201 43Q228 53 240 68.5Q252 84 252 109V661H232Q173 661 135.5 629.5Q98 598 65 522L50 498H15V700H673V498H638L624 522Q590 598 552.5 629.5Q515 661 456 661H437V109Q437 84 449 68.5Q461 53 487 43Z" glyph-name="Tcommaaccent" horiz-adv-x="688" unicode="&#354;" /><glyph d="M287 591V552H358Q487 552 562.5 496.5Q638 441 638 347Q638 254 559 196Q480 138 339 138H317V179Q372 178 408.5 226.5Q445 275 445 341Q445 426 408.5 470.5Q372 515 301 515H287V109Q287 84 299 68.5Q311 53 337 43L368 32V0H31V32L57 43Q82 54 92 68.5Q102 83 102 109V591Q102 617 92 631.5Q82 646 57 657L31 668V700H370V668L338 657Q311 647 299 631.5Q287 616 287 591Z" glyph-name="Thorn" horiz-adv-x="650" unicode="&#222;" /><glyph d="M772 0H518L517 72H515Q483 34 426 9.5Q369 -15 312 -15Q201 -15 144.5 43.5Q88 102 88 215V591Q88 618 78.5 632Q69 646 43 657L18 668V700H344V668L318 657Q293 646 283 631.5Q273 617 273 591V201Q273 140 302 107.5Q331 75 382 75Q447 73 481.5 111Q516 149 516 223V591Q516 618 506.5 632Q497 646 471 657L445 668V700H772V668L746 657Q721 646 711 631.5Q701 617 701 591V109Q701 83 711 68.5Q721 54 746 43L772 32Z" glyph-name="U" horiz-adv-x="803" unicode="U" /><glyph d="M381 -15Q242 -15 164.5 59Q87 133 87 256V591Q87 618 77.5 632Q68 646 42 657L16 668V700H343V668L317 657Q292 646 282 631.5Q272 617 272 591V240Q272 153 315 105.5Q358 58 440 57Q516 57 564 102Q612 147 612 223V591Q612 618 602.5 632Q593 646 567 657L541 668V700H747V668L721 657Q696 646 686 631.5Q676 617 676 591V242Q676 120 600 52.5Q524 -15 381 -15Z" glyph-name="U.alt" horiz-adv-x="762" /><glyph d="M772 0H518L517 72H515Q483 34 426 9.5Q369 -15 312 -15Q201 -15 144.5 43.5Q88 102 88 215V591Q88 618 78.5 632Q69 646 43 657L18 668V700H344V668L318 657Q293 646 283 631.5Q273 617 273 591V201Q273 140 302 107.5Q331 75 382 75Q447 73 481.5 111Q516 149 516 223V591Q516 618 506.5 632Q497 646 471 657L445 668V700H772V668L746 657Q721 646 711 631.5Q701 617 701 591V109Q701 83 711 68.5Q721 54 746 43L772 32ZM424 765H367L382 920H553Z" glyph-name="Uacute" horiz-adv-x="803" unicode="&#218;" /><glyph d="M436 765H379L394 920H565ZM381 -15Q242 -15 164.5 59Q87 133 87 256V591Q87 618 77.5 632Q68 646 42 657L16 668V700H343V668L317 657Q292 646 282 631.5Q272 617 272 591V240Q272 153 315 105.5Q358 58 440 57Q516 57 564 102Q612 147 612 223V591Q612 618 602.5 632Q593 646 567 657L541 668V700H747V668L721 657Q696 646 686 631.5Q676 617 676 591V242Q676 120 600 52.5Q524 -15 381 -15Z" glyph-name="Uacute.alt" horiz-adv-x="762" /><glyph d="M772 0H518L517 72H515Q483 34 426 9.5Q369 -15 312 -15Q201 -15 144.5 43.5Q88 102 88 215V591Q88 618 78.5 632Q69 646 43 657L18 668V700H344V668L318 657Q293 646 283 631.5Q273 617 273 591V201Q273 140 302 107.5Q331 75 382 75Q447 73 481.5 111Q516 149 516 223V591Q516 618 506.5 632Q497 646 471 657L445 668V700H772V668L746 657Q721 646 711 631.5Q701 617 701 591V109Q701 83 711 68.5Q721 54 746 43L772 32ZM395 764Q325 764 287.5 801.5Q250 839 250 906V936H304V930Q304 899 326.5 884.5Q349 870 395 870Q441 870 463 884.5Q485 899 485 930V936H539V906Q539 839 501.5 801.5Q464 764 395 764Z" glyph-name="Ubreve" horiz-adv-x="803" unicode="&#364;" /><glyph d="M407 764Q337 764 299.5 801.5Q262 839 262 906V936H316V930Q316 899 338.5 884.5Q361 870 407 870Q453 870 475 884.5Q497 899 497 930V936H551V906Q551 839 513.5 801.5Q476 764 407 764ZM381 -15Q242 -15 164.5 59Q87 133 87 256V591Q87 618 77.5 632Q68 646 42 657L16 668V700H343V668L317 657Q292 646 282 631.5Q272 617 272 591V240Q272 153 315 105.5Q358 58 440 57Q516 57 564 102Q612 147 612 223V591Q612 618 602.5 632Q593 646 567 657L541 668V700H747V668L721 657Q696 646 686 631.5Q676 617 676 591V242Q676 120 600 52.5Q524 -15 381 -15Z" glyph-name="Ubreve.alt" horiz-adv-x="762" /><glyph d="M772 0H518L517 72H515Q483 34 426 9.5Q369 -15 312 -15Q201 -15 144.5 43.5Q88 102 88 215V591Q88 618 78.5 632Q69 646 43 657L18 668V700H344V668L318 657Q293 646 283 631.5Q273 617 273 591V201Q273 140 302 107.5Q331 75 382 75Q447 73 481.5 111Q516 149 516 223V591Q516 618 506.5 632Q497 646 471 657L445 668V700H772V668L746 657Q721 646 711 631.5Q701 617 701 591V109Q701 83 711 68.5Q721 54 746 43L772 32ZM309 765H242L356 920H434L548 765H481L395 818Z" glyph-name="Ucircumflex" horiz-adv-x="803" unicode="&#219;" /><glyph d="M321 765H254L368 920H446L560 765H493L407 818ZM381 -15Q242 -15 164.5 59Q87 133 87 256V591Q87 618 77.5 632Q68 646 42 657L16 668V700H343V668L317 657Q292 646 282 631.5Q272 617 272 591V240Q272 153 315 105.5Q358 58 440 57Q516 57 564 102Q612 147 612 223V591Q612 618 602.5 632Q593 646 567 657L541 668V700H747V668L721 657Q696 646 686 631.5Q676 617 676 591V242Q676 120 600 52.5Q524 -15 381 -15Z" glyph-name="Ucircumflex.alt" horiz-adv-x="762" /><glyph d="M772 0H518L517 72H515Q483 34 426 9.5Q369 -15 312 -15Q201 -15 144.5 43.5Q88 102 88 215V591Q88 618 78.5 632Q69 646 43 657L18 668V700H344V668L318 657Q293 646 283 631.5Q273 617 273 591V201Q273 140 302 107.5Q331 75 382 75Q447 73 481.5 111Q516 149 516 223V591Q516 618 506.5 632Q497 646 471 657L445 668V700H772V668L746 657Q721 646 711 631.5Q701 617 701 591V109Q701 83 711 68.5Q721 54 746 43L772 32ZM578 852Q578 819 555.5 796Q533 773 501 773Q469 773 446.5 796Q424 819 424 852Q424 884 446.5 907Q469 930 501 930Q533 930 555.5 907Q578 884 578 852ZM379 852Q379 819 356.5 796Q334 773 302 773Q270 773 247.5 796Q225 819 225 852Q225 884 247.5 907Q270 930 302 930Q334 930 356.5 907Q379 884 379 852Z" glyph-name="Udieresis" horiz-adv-x="803" unicode="&#220;" /><glyph d="M589 852Q589 819 566.5 796Q544 773 512 773Q480 773 457.5 796Q435 819 435 852Q435 884 457.5 907Q480 930 512 930Q544 930 566.5 907Q589 884 589 852ZM390 852Q390 819 367.5 796Q345 773 313 773Q281 773 258.5 796Q236 819 236 852Q236 884 258.5 907Q281 930 313 930Q345 930 367.5 907Q390 884 390 852ZM381 -15Q242 -15 164.5 59Q87 133 87 256V591Q87 618 77.5 632Q68 646 42 657L16 668V700H343V668L317 657Q292 646 282 631.5Q272 617 272 591V240Q272 153 315 105.5Q358 58 440 57Q516 57 564 102Q612 147 612 223V591Q612 618 602.5 632Q593 646 567 657L541 668V700H747V668L721 657Q696 646 686 631.5Q676 617 676 591V242Q676 120 600 52.5Q524 -15 381 -15Z" glyph-name="Udieresis.alt" horiz-adv-x="762" /><glyph d="M772 0H518L517 72H515Q483 34 426 9.5Q369 -15 312 -15Q201 -15 144.5 43.5Q88 102 88 215V591Q88 618 78.5 632Q69 646 43 657L18 668V700H344V668L318 657Q293 646 283 631.5Q273 617 273 591V201Q273 140 302 107.5Q331 75 382 75Q447 73 481.5 111Q516 149 516 223V591Q516 618 506.5 632Q497 646 471 657L445 668V700H772V668L746 657Q721 646 711 631.5Q701 617 701 591V109Q701 83 711 68.5Q721 54 746 43L772 32ZM424 765H367L238 920H409Z" glyph-name="Ugrave" horiz-adv-x="803" unicode="&#217;" /><glyph d="M381 -15Q242 -15 164.5 59Q87 133 87 256V591Q87 618 77.5 632Q68 646 42 657L16 668V700H343V668L317 657Q292 646 282 631.5Q272 617 272 591V240Q272 153 315 105.5Q358 58 440 57Q516 57 564 102Q612 147 612 223V591Q612 618 602.5 632Q593 646 567 657L541 668V700H747V668L721 657Q696 646 686 631.5Q676 617 676 591V242Q676 120 600 52.5Q524 -15 381 -15ZM463 765H406L277 920H448Z" glyph-name="Ugrave.alt" horiz-adv-x="762" /><glyph d="M772 0H518L517 72H515Q483 34 426 9.5Q369 -15 312 -15Q201 -15 144.5 43.5Q88 102 88 215V591Q88 618 78.5 632Q69 646 43 657L18 668V700H344V668L318 657Q293 646 283 631.5Q273 617 273 591V201Q273 140 302 107.5Q331 75 382 75Q447 73 481.5 111Q516 149 516 223V591Q516 618 506.5 632Q497 646 471 657L445 668V700H772V668L746 657Q721 646 711 631.5Q701 617 701 591V109Q701 83 711 68.5Q721 54 746 43L772 32ZM319 765H262L277 920H448ZM520 765H463L478 920H649Z" glyph-name="Uhungarumlaut" horiz-adv-x="803" unicode="&#368;" /><glyph d="M332 765H275L290 920H461ZM533 765H476L491 920H662ZM381 -15Q242 -15 164.5 59Q87 133 87 256V591Q87 618 77.5 632Q68 646 42 657L16 668V700H343V668L317 657Q292 646 282 631.5Q272 617 272 591V240Q272 153 315 105.5Q358 58 440 57Q516 57 564 102Q612 147 612 223V591Q612 618 602.5 632Q593 646 567 657L541 668V700H747V668L721 657Q696 646 686 631.5Q676 617 676 591V242Q676 120 600 52.5Q524 -15 381 -15Z" glyph-name="Uhungarumlaut.alt" horiz-adv-x="762" /><glyph d="M772 0H518L517 72H515Q483 34 426 9.5Q369 -15 312 -15Q201 -15 144.5 43.5Q88 102 88 215V591Q88 618 78.5 632Q69 646 43 657L18 668V700H344V668L318 657Q293 646 283 631.5Q273 617 273 591V201Q273 140 302 107.5Q331 75 382 75Q447 73 481.5 111Q516 149 516 223V591Q516 618 506.5 632Q497 646 471 657L445 668V700H772V668L746 657Q721 646 711 631.5Q701 617 701 591V109Q701 83 711 68.5Q721 54 746 43L772 32ZM550 780H241V849H550Z" glyph-name="Umacron" horiz-adv-x="803" unicode="&#362;" /><glyph d="M561 780H252V849H561ZM381 -15Q242 -15 164.5 59Q87 133 87 256V591Q87 618 77.5 632Q68 646 42 657L16 668V700H343V668L317 657Q292 646 282 631.5Q272 617 272 591V240Q272 153 315 105.5Q358 58 440 57Q516 57 564 102Q612 147 612 223V591Q612 618 602.5 632Q593 646 567 657L541 668V700H747V668L721 657Q696 646 686 631.5Q676 617 676 591V242Q676 120 600 52.5Q524 -15 381 -15Z" glyph-name="Umacron.alt" horiz-adv-x="762" /><glyph d="M705 -162 693 -201Q671 -209 651.5 -212.5Q632 -216 615 -216Q565 -216 534 -191Q503 -166 503 -126Q503 -93 527 -60Q551 -27 594 0H518L517 72H515Q483 34 426 9.5Q369 -15 312 -15Q201 -15 144.5 43.5Q88 102 88 215V591Q88 618 78.5 632Q69 646 43 657L18 668V700H344V668L318 657Q293 646 283 631.5Q273 617 273 591V201Q273 140 302 107.5Q331 75 382 75Q447 73 481.5 111Q516 149 516 223V591Q516 618 506.5 632Q497 646 471 657L445 668V700H772V668L746 657Q721 646 711 631.5Q701 617 701 591V109Q701 83 711 68.5Q721 54 746 43L772 32V0H655Q636 -32 626 -60Q616 -88 616 -108Q616 -134 635 -148.5Q654 -163 687 -163Q694 -163 699 -162.5Q704 -162 705 -162Z" glyph-name="Uogonek" horiz-adv-x="803" unicode="&#370;" /><glyph d="M480 -216Q430 -216 399 -191Q368 -166 368 -126Q368 -96 387 -66.5Q406 -37 442 -11Q429 -13 414 -14Q399 -15 381 -15Q242 -15 164.5 59Q87 133 87 256V591Q87 618 77.5 632Q68 646 42 657L16 668V700H343V668L317 657Q292 646 282 631.5Q272 617 272 591V240Q272 153 315 105.5Q358 58 440 57Q516 57 564 102Q612 147 612 223V591Q612 618 602.5 632Q593 646 567 657L541 668V700H747V668L721 657Q696 646 686 631.5Q676 617 676 591V242Q676 157 637 96.5Q598 36 524 8Q502 -30 491.5 -59Q481 -88 481 -108Q481 -134 500 -148.5Q519 -163 552 -163Q559 -163 564 -162.5Q569 -162 570 -162L558 -201Q536 -209 516.5 -212.5Q497 -216 480 -216Z" glyph-name="Uogonek.alt" horiz-adv-x="762" /><glyph d="M772 0H518L517 72H515Q483 34 426 9.5Q369 -15 312 -15Q201 -15 144.5 43.5Q88 102 88 215V591Q88 618 78.5 632Q69 646 43 657L18 668V700H344V668L318 657Q293 646 283 631.5Q273 617 273 591V201Q273 140 302 107.5Q331 75 382 75Q447 73 481.5 111Q516 149 516 223V591Q516 618 506.5 632Q497 646 471 657L445 668V700H772V668L746 657Q721 646 711 631.5Q701 617 701 591V109Q701 83 711 68.5Q721 54 746 43L772 32ZM514 855Q514 805 479.5 771Q445 737 395 737Q345 737 310.5 771Q276 805 276 855Q276 904 310.5 938Q345 972 395 972Q444 972 479 937.5Q514 903 514 855ZM332 855Q332 828 350.5 809Q369 790 395 790Q421 790 439.5 809Q458 828 458 855Q458 882 439 901.5Q420 921 395 921Q369 921 350.5 901.5Q332 882 332 855Z" glyph-name="Uring" horiz-adv-x="803" unicode="&#366;" /><glyph d="M525 855Q525 805 490.5 771Q456 737 406 737Q356 737 321.5 771Q287 805 287 855Q287 904 321.5 938Q356 972 406 972Q455 972 490 937.5Q525 903 525 855ZM343 855Q343 828 361.5 809Q380 790 406 790Q432 790 450.5 809Q469 828 469 855Q469 882 450 901.5Q431 921 406 921Q380 921 361.5 901.5Q343 882 343 855ZM381 -15Q242 -15 164.5 59Q87 133 87 256V591Q87 618 77.5 632Q68 646 42 657L16 668V700H343V668L317 657Q292 646 282 631.5Q272 617 272 591V240Q272 153 315 105.5Q358 58 440 57Q516 57 564 102Q612 147 612 223V591Q612 618 602.5 632Q593 646 567 657L541 668V700H747V668L721 657Q696 646 686 631.5Q676 617 676 591V242Q676 120 600 52.5Q524 -15 381 -15Z" glyph-name="Uring.alt" horiz-adv-x="762" /><glyph d="M772 0H518L517 72H515Q483 34 426 9.5Q369 -15 312 -15Q201 -15 144.5 43.5Q88 102 88 215V591Q88 618 78.5 632Q69 646 43 657L18 668V700H344V668L318 657Q293 646 283 631.5Q273 617 273 591V201Q273 140 302 107.5Q331 75 382 75Q447 73 481.5 111Q516 149 516 223V591Q516 618 506.5 632Q497 646 471 657L445 668V700H772V668L746 657Q721 646 711 631.5Q701 617 701 591V109Q701 83 711 68.5Q721 54 746 43L772 32ZM317 798Q302 798 293.5 791.5Q285 785 276 766L235 779Q239 840 264.5 871Q290 902 337 902Q350 902 367 898.5Q384 895 418 883Q443 874 454 871.5Q465 869 473 869Q488 869 497 875.5Q506 882 514 901L555 888Q551 827 525.5 795.5Q500 764 453 764Q440 764 423.5 767.5Q407 771 374 783Q348 792 336.5 795Q325 798 317 798Z" glyph-name="Utilde" horiz-adv-x="803" unicode="&#360;" /><glyph d="M329 798Q314 798 305.5 791.5Q297 785 288 766L247 779Q251 840 276.5 871Q302 902 349 902Q362 902 379 898.5Q396 895 430 883Q455 874 466 871.5Q477 869 485 869Q500 869 509 875.5Q518 882 526 901L567 888Q563 827 537.5 795.5Q512 764 465 764Q452 764 435.5 767.5Q419 771 386 783Q360 792 348.5 795Q337 798 329 798ZM381 -15Q242 -15 164.5 59Q87 133 87 256V591Q87 618 77.5 632Q68 646 42 657L16 668V700H343V668L317 657Q292 646 282 631.5Q272 617 272 591V240Q272 153 315 105.5Q358 58 440 57Q516 57 564 102Q612 147 612 223V591Q612 618 602.5 632Q593 646 567 657L541 668V700H747V668L721 657Q696 646 686 631.5Q676 617 676 591V242Q676 120 600 52.5Q524 -15 381 -15Z" glyph-name="Utilde.alt" horiz-adv-x="762" /><glyph d="M-10 668V700H351V668L323 659Q291 649 282 635Q273 621 281 593L438 113H440L560 528Q581 597 571.5 621Q562 645 514 658L478 668V700H754V668L729 658Q694 644 679 622Q664 600 643 542L451 0H293L101 542Q80 602 64 624.5Q48 647 15 659Z" glyph-name="V" horiz-adv-x="744" unicode="V" /><glyph d="M279 0 102 543Q83 601 67.5 624Q52 647 17 659L-9 668V700H349V668L315 659Q293 653 285.5 635.5Q278 618 286 593L416 170H418L519 504L459 700H669L807 170H809L910 528Q930 598 920 622Q910 646 863 658L827 668V700H1104V668L1077 659Q1044 648 1028 625Q1012 602 993 543L816 0H674L551 419H549L423 0Z" glyph-name="W" horiz-adv-x="1095" unicode="W" /><glyph d="M279 0 102 543Q83 601 67.5 624Q52 647 17 659L-9 668V700H349V668L315 659Q293 653 285.5 635.5Q278 618 286 593L416 170H418L519 504L459 700H669L807 170H809L910 528Q930 598 920 622Q910 646 863 658L827 668V700H1104V668L1077 659Q1044 648 1028 625Q1012 602 993 543L816 0H674L551 419H549L423 0ZM597 765H540L555 920H726Z" glyph-name="Wacute" horiz-adv-x="1095" unicode="&#7810;" /><glyph d="M279 0 102 543Q83 601 67.5 624Q52 647 17 659L-9 668V700H349V668L315 659Q293 653 285.5 635.5Q278 618 286 593L416 170H418L519 504L459 700H669L807 170H809L910 528Q930 598 920 622Q910 646 863 658L827 668V700H1104V668L1077 659Q1044 648 1028 625Q1012 602 993 543L816 0H674L551 419H549L423 0ZM482 765H415L529 920H607L721 765H654L568 818Z" glyph-name="Wcircumflex" horiz-adv-x="1095" unicode="&#372;" /><glyph d="M279 0 102 543Q83 601 67.5 624Q52 647 17 659L-9 668V700H349V668L315 659Q293 653 285.5 635.5Q278 618 286 593L416 170H418L519 504L459 700H669L807 170H809L910 528Q930 598 920 622Q910 646 863 658L827 668V700H1104V668L1077 659Q1044 648 1028 625Q1012 602 993 543L816 0H674L551 419H549L423 0ZM751 852Q751 819 728.5 796Q706 773 674 773Q642 773 619.5 796Q597 819 597 852Q597 884 619.5 907Q642 930 674 930Q706 930 728.5 907Q751 884 751 852ZM552 852Q552 819 529.5 796Q507 773 475 773Q443 773 420.5 796Q398 819 398 852Q398 884 420.5 907Q443 930 475 930Q507 930 529.5 907Q552 884 552 852Z" glyph-name="Wdieresis" horiz-adv-x="1095" unicode="&#7812;" /><glyph d="M279 0 102 543Q83 601 67.5 624Q52 647 17 659L-9 668V700H349V668L315 659Q293 653 285.5 635.5Q278 618 286 593L416 170H418L519 504L459 700H669L807 170H809L910 528Q930 598 920 622Q910 646 863 658L827 668V700H1104V668L1077 659Q1044 648 1028 625Q1012 602 993 543L816 0H674L551 419H549L423 0ZM597 765H540L411 920H582Z" glyph-name="Wgrave" horiz-adv-x="1095" unicode="&#7808;" /><glyph d="M240 0H-18V32L14 42Q37 49 55 63Q73 77 90 100L258 334L97 599Q82 623 66 638Q50 653 29 661L11 668V700H265L416 438L515 605Q526 626 518.5 640.5Q511 655 488 659L444 668V700H693V668L668 659Q645 651 628 637Q611 623 595 599L444 392L628 101Q642 78 657 64Q672 50 690 42L713 32V0H458L288 292L171 93Q159 73 162.5 60Q166 47 185 43L240 32Z" glyph-name="X" horiz-adv-x="700" unicode="X" /><glyph d="M507 43 538 32V0H191V32L221 43Q248 53 260 68.5Q272 84 272 109V291L81 600Q66 624 46.5 640.5Q27 657 7 663L-7 668V700H353V668L321 658Q293 649 287 637Q281 625 292 606L429 368H431L560 605Q572 627 567.5 638Q563 649 529 657L481 668V700H736V668L723 662Q692 647 676 633Q660 619 648 600L457 292V109Q457 84 469 68.5Q481 53 507 43Z" glyph-name="Y" horiz-adv-x="728" unicode="Y" /><glyph d="M507 43 538 32V0H191V32L221 43Q248 53 260 68.5Q272 84 272 109V291L81 600Q66 624 46.5 640.5Q27 657 7 663L-7 668V700H353V668L321 658Q293 649 287 637Q281 625 292 606L429 368H431L560 605Q572 627 567.5 638Q563 649 529 657L481 668V700H736V668L723 662Q692 647 676 633Q660 619 648 600L457 292V109Q457 84 469 68.5Q481 53 507 43ZM409 765H352L367 920H538Z" glyph-name="Yacute" horiz-adv-x="728" unicode="&#221;" /><glyph d="M507 43 538 32V0H191V32L221 43Q248 53 260 68.5Q272 84 272 109V291L81 600Q66 624 46.5 640.5Q27 657 7 663L-7 668V700H353V668L321 658Q293 649 287 637Q281 625 292 606L429 368H431L560 605Q572 627 567.5 638Q563 649 529 657L481 668V700H736V668L723 662Q692 647 676 633Q660 619 648 600L457 292V109Q457 84 469 68.5Q481 53 507 43ZM295 765H228L342 920H420L534 765H467L381 818Z" glyph-name="Ycircumflex" horiz-adv-x="728" unicode="&#374;" /><glyph d="M507 43 538 32V0H191V32L221 43Q248 53 260 68.5Q272 84 272 109V291L81 600Q66 624 46.5 640.5Q27 657 7 663L-7 668V700H353V668L321 658Q293 649 287 637Q281 625 292 606L429 368H431L560 605Q572 627 567.5 638Q563 649 529 657L481 668V700H736V668L723 662Q692 647 676 633Q660 619 648 600L457 292V109Q457 84 469 68.5Q481 53 507 43ZM564 852Q564 819 541.5 796Q519 773 487 773Q455 773 432.5 796Q410 819 410 852Q410 884 432.5 907Q455 930 487 930Q519 930 541.5 907Q564 884 564 852ZM365 852Q365 819 342.5 796Q320 773 288 773Q256 773 233.5 796Q211 819 211 852Q211 884 233.5 907Q256 930 288 930Q320 930 342.5 907Q365 884 365 852Z" glyph-name="Ydieresis" horiz-adv-x="728" unicode="&#376;" /><glyph d="M507 43 538 32V0H191V32L221 43Q248 53 260 68.5Q272 84 272 109V291L81 600Q66 624 46.5 640.5Q27 657 7 663L-7 668V700H353V668L321 658Q293 649 287 637Q281 625 292 606L429 368H431L560 605Q572 627 567.5 638Q563 649 529 657L481 668V700H736V668L723 662Q692 647 676 633Q660 619 648 600L457 292V109Q457 84 469 68.5Q481 53 507 43ZM410 765H353L224 920H395Z" glyph-name="Ygrave" horiz-adv-x="728" unicode="&#7922;" /><glyph d="M12 32 407 663 225 660Q181 659 153.5 634.5Q126 610 89 536L77 518H43L39 708Q96 704 155 702Q214 700 276 700H628V668L226 41H421Q487 41 527 70.5Q567 100 601 184L621 234H659L648 0H12Z" glyph-name="Z" horiz-adv-x="681" unicode="Z" /><glyph d="M12 32 407 663 225 660Q181 659 153.5 634.5Q126 610 89 536L77 518H43L39 708Q96 704 155 702Q214 700 276 700H628V668L226 41H421Q487 41 527 70.5Q567 100 601 184L621 234H659L648 0H12ZM360 765H303L318 920H489Z" glyph-name="Zacute" horiz-adv-x="681" unicode="&#377;" /><glyph d="M12 32 407 663 225 660Q181 659 153.5 634.5Q126 610 89 536L77 518H43L39 708Q96 704 155 702Q214 700 276 700H628V668L226 41H421Q487 41 527 70.5Q567 100 601 184L621 234H659L648 0H12ZM292 765 178 920H245L331 867L417 920H484L370 765Z" glyph-name="Zcaron" horiz-adv-x="681" unicode="&#381;" /><glyph d="M12 32 407 663 225 660Q181 659 153.5 634.5Q126 610 89 536L77 518H43L39 708Q96 704 155 702Q214 700 276 700H628V668L226 41H421Q487 41 527 70.5Q567 100 601 184L621 234H659L648 0H12ZM415 855Q415 820 390.5 795.5Q366 771 331 771Q297 771 272.5 795.5Q248 820 248 855Q248 890 272.5 915Q297 940 331 940Q366 940 390.5 915Q415 890 415 855Z" glyph-name="Zdotaccent" horiz-adv-x="681" unicode="&#379;" /><glyph d="M23 115Q23 165 53.5 198Q84 231 143 246L285 283V322Q285 376 259.5 405Q234 434 189 434Q160 434 135.5 424Q111 414 111 403Q111 399 114 395Q117 391 126 384Q141 374 146 365Q151 356 151 345Q151 324 135.5 310Q120 296 100 296Q77 296 61 313Q45 330 45 355Q45 386 66 418.5Q87 451 122 474Q152 493 187.5 503Q223 513 263 513Q348 513 397.5 468Q447 423 447 344V97Q447 77 455.5 67.5Q464 58 482 58Q486 58 495 59.5Q504 61 508 63L513 36Q494 12 460.5 -1.5Q427 -15 391 -15Q357 -15 331 -0.5Q305 14 293 40H291Q271 16 236 0.5Q201 -15 163 -15Q100 -14 61.5 23Q23 60 23 115ZM185 152Q185 116 206.5 93Q228 70 261 70Q268 70 274 71Q280 72 285 73V248L238 225Q211 212 198 194.5Q185 177 185 152Z" glyph-name="a" horiz-adv-x="515" unicode="a" /><glyph d="M384 -15Q349 -15 323 -0.5Q297 14 286 40H284Q265 16 229.5 0.5Q194 -15 156 -15Q93 -14 54.5 23Q16 60 16 115Q16 164 46.5 197Q77 230 136 246L278 283V332Q278 372 254 394Q230 416 187 416Q161 416 133 401.5Q105 387 86 363L41 383Q67 444 125 478.5Q183 513 256 513Q343 513 391.5 467Q440 421 440 334V97Q440 77 448.5 67.5Q457 58 474 58Q479 58 488 59.5Q497 61 501 63L505 36Q486 12 453 -1.5Q420 -15 384 -15ZM177 152Q177 116 198.5 93Q220 70 253 70Q260 70 266.5 71Q273 72 278 73V248L230 224Q202 210 189.5 192.5Q177 175 177 152Z" glyph-name="a.alt" horiz-adv-x="508" /><glyph d="M23 115Q23 165 53.5 198Q84 231 143 246L285 283V322Q285 376 259.5 405Q234 434 189 434Q160 434 135.5 424Q111 414 111 403Q111 399 114 395Q117 391 126 384Q141 374 146 365Q151 356 151 345Q151 324 135.5 310Q120 296 100 296Q77 296 61 313Q45 330 45 355Q45 386 66 418.5Q87 451 122 474Q152 493 187.5 503Q223 513 263 513Q348 513 397.5 468Q447 423 447 344V97Q447 77 455.5 67.5Q464 58 482 58Q486 58 495 59.5Q504 61 508 63L513 36Q494 12 460.5 -1.5Q427 -15 391 -15Q357 -15 331 -0.5Q305 14 293 40H291Q271 16 236 0.5Q201 -15 163 -15Q100 -14 61.5 23Q23 60 23 115ZM185 152Q185 116 206.5 93Q228 70 261 70Q268 70 274 71Q280 72 285 73V248L238 225Q211 212 198 194.5Q185 177 185 152ZM278 574H221L236 729H407Z" glyph-name="aacute" horiz-adv-x="515" unicode="&#225;" /><glyph d="M384 -15Q349 -15 323 -0.5Q297 14 286 40H284Q265 16 229.5 0.5Q194 -15 156 -15Q93 -14 54.5 23Q16 60 16 115Q16 164 46.5 197Q77 230 136 246L278 283V332Q278 372 254 394Q230 416 187 416Q161 416 133 401.5Q105 387 86 363L41 383Q67 444 125 478.5Q183 513 256 513Q343 513 391.5 467Q440 421 440 334V97Q440 77 448.5 67.5Q457 58 474 58Q479 58 488 59.5Q497 61 501 63L505 36Q486 12 453 -1.5Q420 -15 384 -15ZM177 152Q177 116 198.5 93Q220 70 253 70Q260 70 266.5 71Q273 72 278 73V248L230 224Q202 210 189.5 192.5Q177 175 177 152ZM276 574H219L234 729H405Z" glyph-name="aacute.alt" horiz-adv-x="508" /><glyph d="M23 115Q23 165 53.5 198Q84 231 143 246L285 283V322Q285 376 259.5 405Q234 434 189 434Q160 434 135.5 424Q111 414 111 403Q111 399 114 395Q117 391 126 384Q141 374 146 365Q151 356 151 345Q151 324 135.5 310Q120 296 100 296Q77 296 61 313Q45 330 45 355Q45 386 66 418.5Q87 451 122 474Q152 493 187.5 503Q223 513 263 513Q348 513 397.5 468Q447 423 447 344V97Q447 77 455.5 67.5Q464 58 482 58Q486 58 495 59.5Q504 61 508 63L513 36Q494 12 460.5 -1.5Q427 -15 391 -15Q357 -15 331 -0.5Q305 14 293 40H291Q271 16 236 0.5Q201 -15 163 -15Q100 -14 61.5 23Q23 60 23 115ZM185 152Q185 116 206.5 93Q228 70 261 70Q268 70 274 71Q280 72 285 73V248L238 225Q211 212 198 194.5Q185 177 185 152ZM249 573Q179 573 141.5 610.5Q104 648 104 715V745H158V739Q158 708 180.5 693.5Q203 679 249 679Q295 679 317 693.5Q339 708 339 739V745H393V715Q393 648 355.5 610.5Q318 573 249 573Z" glyph-name="abreve" horiz-adv-x="515" unicode="&#259;" /><glyph d="M384 -15Q349 -15 323 -0.5Q297 14 286 40H284Q265 16 229.5 0.5Q194 -15 156 -15Q93 -14 54.5 23Q16 60 16 115Q16 164 46.5 197Q77 230 136 246L278 283V332Q278 372 254 394Q230 416 187 416Q161 416 133 401.5Q105 387 86 363L41 383Q67 444 125 478.5Q183 513 256 513Q343 513 391.5 467Q440 421 440 334V97Q440 77 448.5 67.5Q457 58 474 58Q479 58 488 59.5Q497 61 501 63L505 36Q486 12 453 -1.5Q420 -15 384 -15ZM177 152Q177 116 198.5 93Q220 70 253 70Q260 70 266.5 71Q273 72 278 73V248L230 224Q202 210 189.5 192.5Q177 175 177 152ZM247 573Q177 573 139.5 610.5Q102 648 102 715V745H156V739Q156 708 178.5 693.5Q201 679 247 679Q293 679 315 693.5Q337 708 337 739V745H391V715Q391 648 353.5 610.5Q316 573 247 573Z" glyph-name="abreve.alt" horiz-adv-x="508" /><glyph d="M23 115Q23 165 53.5 198Q84 231 143 246L285 283V322Q285 376 259.5 405Q234 434 189 434Q160 434 135.5 424Q111 414 111 403Q111 399 114 395Q117 391 126 384Q141 374 146 365Q151 356 151 345Q151 324 135.5 310Q120 296 100 296Q77 296 61 313Q45 330 45 355Q45 386 66 418.5Q87 451 122 474Q152 493 187.5 503Q223 513 263 513Q348 513 397.5 468Q447 423 447 344V97Q447 77 455.5 67.5Q464 58 482 58Q486 58 495 59.5Q504 61 508 63L513 36Q494 12 460.5 -1.5Q427 -15 391 -15Q357 -15 331 -0.5Q305 14 293 40H291Q271 16 236 0.5Q201 -15 163 -15Q100 -14 61.5 23Q23 60 23 115ZM185 152Q185 116 206.5 93Q228 70 261 70Q268 70 274 71Q280 72 285 73V248L238 225Q211 212 198 194.5Q185 177 185 152ZM163 574H96L210 729H288L402 574H335L249 627Z" glyph-name="acircumflex" horiz-adv-x="515" unicode="&#226;" /><glyph d="M384 -15Q349 -15 323 -0.5Q297 14 286 40H284Q265 16 229.5 0.5Q194 -15 156 -15Q93 -14 54.5 23Q16 60 16 115Q16 164 46.5 197Q77 230 136 246L278 283V332Q278 372 254 394Q230 416 187 416Q161 416 133 401.5Q105 387 86 363L41 383Q67 444 125 478.5Q183 513 256 513Q343 513 391.5 467Q440 421 440 334V97Q440 77 448.5 67.5Q457 58 474 58Q479 58 488 59.5Q497 61 501 63L505 36Q486 12 453 -1.5Q420 -15 384 -15ZM177 152Q177 116 198.5 93Q220 70 253 70Q260 70 266.5 71Q273 72 278 73V248L230 224Q202 210 189.5 192.5Q177 175 177 152ZM161 574H94L208 729H286L400 574H333L247 627Z" glyph-name="acircumflex.alt" horiz-adv-x="508" /><glyph d="M126 547H69L84 702H255Z" glyph-name="acute" horiz-adv-x="324" unicode="&#180;" /><glyph d="M23 115Q23 165 53.5 198Q84 231 143 246L285 283V322Q285 376 259.5 405Q234 434 189 434Q160 434 135.5 424Q111 414 111 403Q111 399 114 395Q117 391 126 384Q141 374 146 365Q151 356 151 345Q151 324 135.5 310Q120 296 100 296Q77 296 61 313Q45 330 45 355Q45 386 66 418.5Q87 451 122 474Q152 493 187.5 503Q223 513 263 513Q348 513 397.5 468Q447 423 447 344V97Q447 77 455.5 67.5Q464 58 482 58Q486 58 495 59.5Q504 61 508 63L513 36Q494 12 460.5 -1.5Q427 -15 391 -15Q357 -15 331 -0.5Q305 14 293 40H291Q271 16 236 0.5Q201 -15 163 -15Q100 -14 61.5 23Q23 60 23 115ZM185 152Q185 116 206.5 93Q228 70 261 70Q268 70 274 71Q280 72 285 73V248L238 225Q211 212 198 194.5Q185 177 185 152ZM432 661Q432 628 409.5 605Q387 582 355 582Q323 582 300.5 605Q278 628 278 661Q278 693 300.5 716Q323 739 355 739Q387 739 409.5 716Q432 693 432 661ZM233 661Q233 628 210.5 605Q188 582 156 582Q124 582 101.5 605Q79 628 79 661Q79 693 101.5 716Q124 739 156 739Q188 739 210.5 716Q233 693 233 661Z" glyph-name="adieresis" horiz-adv-x="515" unicode="&#228;" /><glyph d="M384 -15Q349 -15 323 -0.5Q297 14 286 40H284Q265 16 229.5 0.5Q194 -15 156 -15Q93 -14 54.5 23Q16 60 16 115Q16 164 46.5 197Q77 230 136 246L278 283V332Q278 372 254 394Q230 416 187 416Q161 416 133 401.5Q105 387 86 363L41 383Q67 444 125 478.5Q183 513 256 513Q343 513 391.5 467Q440 421 440 334V97Q440 77 448.5 67.5Q457 58 474 58Q479 58 488 59.5Q497 61 501 63L505 36Q486 12 453 -1.5Q420 -15 384 -15ZM177 152Q177 116 198.5 93Q220 70 253 70Q260 70 266.5 71Q273 72 278 73V248L230 224Q202 210 189.5 192.5Q177 175 177 152ZM430 661Q430 628 407.5 605Q385 582 353 582Q321 582 298.5 605Q276 628 276 661Q276 693 298.5 716Q321 739 353 739Q385 739 407.5 716Q430 693 430 661ZM231 661Q231 628 208.5 605Q186 582 154 582Q122 582 99.5 605Q77 628 77 661Q77 693 99.5 716Q122 739 154 739Q186 739 208.5 716Q231 693 231 661Z" glyph-name="adieresis.alt" horiz-adv-x="508" /><glyph d="M528 -15Q468 -15 417 8Q366 31 333 74Q306 32 261.5 8.5Q217 -15 162 -15Q101 -15 62 24Q23 63 23 114Q23 164 53 198Q83 232 141 249L279 286V322Q279 376 253 405Q227 434 181 434Q151 434 125.5 424Q100 414 100 403Q100 399 103 395Q106 391 115 384Q130 374 135 365Q140 356 140 345Q140 324 124.5 310Q109 296 89 296Q65 296 49 312.5Q33 329 33 355Q33 384 54.5 416Q76 448 111 472Q141 492 176.5 502.5Q212 513 250 513Q289 513 322.5 502Q356 491 383 469V468Q413 490 451 501.5Q489 513 532 513Q628 513 688 453Q748 393 748 297V272H454V263Q454 184 494 140.5Q534 97 600 97Q640 97 669.5 109.5Q699 122 719 148L743 139Q720 64 664.5 24.5Q609 -15 528 -15ZM533 474Q495 474 475.5 434Q456 394 455 314L594 317Q600 393 584 433.5Q568 474 533 474ZM185 150Q185 119 205.5 99Q226 79 257 79Q267 79 286.5 85.5Q306 92 315 99Q297 129 288 166Q279 203 279 246V252L237 230Q212 218 198.5 197.5Q185 177 185 150Z" glyph-name="ae" horiz-adv-x="769" unicode="&#230;" /><glyph d="M23 115Q23 165 53.5 198Q84 231 143 246L285 283V322Q285 376 259.5 405Q234 434 189 434Q160 434 135.5 424Q111 414 111 403Q111 399 114 395Q117 391 126 384Q141 374 146 365Q151 356 151 345Q151 324 135.5 310Q120 296 100 296Q77 296 61 313Q45 330 45 355Q45 386 66 418.5Q87 451 122 474Q152 493 187.5 503Q223 513 263 513Q348 513 397.5 468Q447 423 447 344V97Q447 77 455.5 67.5Q464 58 482 58Q486 58 495 59.5Q504 61 508 63L513 36Q494 12 460.5 -1.5Q427 -15 391 -15Q357 -15 331 -0.5Q305 14 293 40H291Q271 16 236 0.5Q201 -15 163 -15Q100 -14 61.5 23Q23 60 23 115ZM185 152Q185 116 206.5 93Q228 70 261 70Q268 70 274 71Q280 72 285 73V248L238 225Q211 212 198 194.5Q185 177 185 152ZM278 574H221L92 729H263Z" glyph-name="agrave" horiz-adv-x="515" unicode="&#224;" /><glyph d="M384 -15Q349 -15 323 -0.5Q297 14 286 40H284Q265 16 229.5 0.5Q194 -15 156 -15Q93 -14 54.5 23Q16 60 16 115Q16 164 46.5 197Q77 230 136 246L278 283V332Q278 372 254 394Q230 416 187 416Q161 416 133 401.5Q105 387 86 363L41 383Q67 444 125 478.5Q183 513 256 513Q343 513 391.5 467Q440 421 440 334V97Q440 77 448.5 67.5Q457 58 474 58Q479 58 488 59.5Q497 61 501 63L505 36Q486 12 453 -1.5Q420 -15 384 -15ZM177 152Q177 116 198.5 93Q220 70 253 70Q260 70 266.5 71Q273 72 278 73V248L230 224Q202 210 189.5 192.5Q177 175 177 152ZM276 574H219L90 729H261Z" glyph-name="agrave.alt" horiz-adv-x="508" /><glyph d="M23 115Q23 165 53.5 198Q84 231 143 246L285 283V322Q285 376 259.5 405Q234 434 189 434Q160 434 135.5 424Q111 414 111 403Q111 399 114 395Q117 391 126 384Q141 374 146 365Q151 356 151 345Q151 324 135.5 310Q120 296 100 296Q77 296 61 313Q45 330 45 355Q45 386 66 418.5Q87 451 122 474Q152 493 187.5 503Q223 513 263 513Q348 513 397.5 468Q447 423 447 344V97Q447 77 455.5 67.5Q464 58 482 58Q486 58 495 59.5Q504 61 508 63L513 36Q494 12 460.5 -1.5Q427 -15 391 -15Q357 -15 331 -0.5Q305 14 293 40H291Q271 16 236 0.5Q201 -15 163 -15Q100 -14 61.5 23Q23 60 23 115ZM185 152Q185 116 206.5 93Q228 70 261 70Q268 70 274 71Q280 72 285 73V248L238 225Q211 212 198 194.5Q185 177 185 152ZM404 589H95V658H404Z" glyph-name="amacron" horiz-adv-x="515" unicode="&#257;" /><glyph d="M384 -15Q349 -15 323 -0.5Q297 14 286 40H284Q265 16 229.5 0.5Q194 -15 156 -15Q93 -14 54.5 23Q16 60 16 115Q16 164 46.5 197Q77 230 136 246L278 283V332Q278 372 254 394Q230 416 187 416Q161 416 133 401.5Q105 387 86 363L41 383Q67 444 125 478.5Q183 513 256 513Q343 513 391.5 467Q440 421 440 334V97Q440 77 448.5 67.5Q457 58 474 58Q479 58 488 59.5Q497 61 501 63L505 36Q486 12 453 -1.5Q420 -15 384 -15ZM177 152Q177 116 198.5 93Q220 70 253 70Q260 70 266.5 71Q273 72 278 73V248L230 224Q202 210 189.5 192.5Q177 175 177 152ZM402 589H93V658H402Z" glyph-name="amacron.alt" horiz-adv-x="508" /><glyph d="M251 -15Q147 -15 84 45Q21 105 21 195Q21 266 73 322.5Q125 379 209 396Q187 429 177 462.5Q167 496 167 533Q167 611 225.5 663Q284 715 370 715Q446 715 489 678.5Q532 642 532 582Q532 533 495 489.5Q458 446 406 434Q475 347 500.5 318Q526 289 552 261Q567 298 573.5 321.5Q580 345 580 363Q580 387 568 402.5Q556 418 532 426L514 432V465H762V432L739 424Q717 417 693.5 390.5Q670 364 629 293Q612 262 603.5 249Q595 236 588 227Q671 139 690.5 125Q710 111 733 111Q745 111 757 114.5Q769 118 777 125L788 96Q773 46 732.5 15.5Q692 -15 638 -15Q589 -15 552.5 4Q516 23 478 65L466 79Q431 37 371.5 11Q312 -15 251 -15ZM332 578Q332 551 345.5 522.5Q359 494 383 468Q425 491 448.5 521Q472 551 472 584Q472 616 452.5 635Q433 654 403 654Q372 654 352 632Q332 610 332 578ZM236 356Q221 337 212 307Q203 277 203 247Q203 182 244.5 140.5Q286 99 348 99Q373 99 392.5 103.5Q412 108 433 119Q419 131 353.5 209.5Q288 288 236 356Z" glyph-name="ampersand" horiz-adv-x="809" unicode="&amp;" /><glyph d="M440 -216Q390 -216 359 -191Q328 -166 328 -126Q328 -97 346 -68.5Q364 -40 398 -15Q396 -15 394.5 -15Q393 -15 391 -15Q357 -15 331 -0.5Q305 14 293 40H291Q271 16 236 0.5Q201 -15 163 -15Q100 -14 61.5 23Q23 60 23 115Q23 165 53.5 198Q84 231 143 246L285 283V322Q285 376 259.5 405Q234 434 189 434Q160 434 135.5 424Q111 414 111 403Q111 399 114 395Q117 391 126 384Q141 374 146 365Q151 356 151 345Q151 324 135.5 310Q120 296 100 296Q77 296 61 313Q45 330 45 355Q45 386 66 418.5Q87 451 122 474Q152 493 187.5 503Q223 513 263 513Q348 513 397.5 468Q447 423 447 344V97Q447 77 455.5 67.5Q464 58 482 58Q486 58 495 59.5Q504 61 508 63L513 36Q508 29 501 23Q494 17 487 13Q465 -25 453 -56Q441 -87 441 -108Q441 -134 460 -148.5Q479 -163 512 -163Q519 -163 524 -162.5Q529 -162 530 -162L518 -201Q496 -209 476.5 -212.5Q457 -216 440 -216ZM185 152Q185 116 206.5 93Q228 70 261 70Q268 70 274 71Q280 72 285 73V248L238 225Q211 212 198 194.5Q185 177 185 152Z" glyph-name="aogonek" horiz-adv-x="516" unicode="&#261;" /><glyph d="M438 -216Q388 -216 357 -191Q326 -166 326 -126Q326 -97 344 -68.5Q362 -40 396 -15Q393 -15 390 -15Q387 -15 384 -15Q349 -15 323 -0.5Q297 14 286 40H284Q265 16 229.5 0.5Q194 -15 156 -15Q93 -14 54.5 23Q16 60 16 115Q16 164 46.5 197Q77 230 136 246L278 283V332Q278 372 254 394Q230 416 187 416Q161 416 133 401.5Q105 387 86 363L41 383Q67 444 125 478.5Q183 513 256 513Q343 513 391.5 467Q440 421 440 334V97Q440 77 448.5 67.5Q457 58 474 58Q479 58 488 59.5Q497 61 501 63L505 36Q502 33 499 29.5Q496 26 490 20Q468 -12 453.5 -48Q439 -84 439 -108Q439 -134 458 -148.5Q477 -163 510 -163Q517 -163 522 -162.5Q527 -162 528 -162L516 -201Q494 -209 474.5 -212.5Q455 -216 438 -216ZM177 152Q177 116 198.5 93Q220 70 253 70Q260 70 266.5 71Q273 72 278 73V248L230 224Q202 210 189.5 192.5Q177 175 177 152Z" glyph-name="aogonek.alt" horiz-adv-x="511" /><glyph d="M246 593Q246 527 203 469.5Q160 412 79 372L63 402Q112 436 138.5 471.5Q165 507 172 551Q163 547 153.5 545Q144 543 134 543Q100 543 75.5 568Q51 593 51 627Q51 662 77 688.5Q103 715 142 715Q186 715 216 679Q246 643 246 593Z" glyph-name="apostrophemod" horiz-adv-x="295" unicode="&#700;" /><glyph d="M370 370Q357 370 335.5 374Q314 378 265 391Q213 404 189.5 408.5Q166 413 151 413Q129 413 116.5 401Q104 389 101 365L43 376Q52 450 85 487Q118 524 177 524Q193 524 215 520Q237 516 284 502Q333 489 355.5 484.5Q378 480 395 480Q418 480 431 492Q444 504 447 529L504 517Q496 444 462.5 407Q429 370 370 370ZM370 163Q357 163 335.5 167Q314 171 265 184Q213 197 189.5 201.5Q166 206 151 206Q129 206 116.5 194Q104 182 101 157L43 169Q52 242 85 279Q118 316 177 316Q193 316 215 312Q237 308 284 295Q333 281 355.5 277Q378 273 395 273Q418 273 431 285Q444 297 447 321L504 310Q496 237 462.5 200Q429 163 370 163Z" glyph-name="approxequal" horiz-adv-x="540" unicode="&#8776;" /><glyph d="M23 115Q23 165 53.5 198Q84 231 143 246L285 283V322Q285 376 259.5 405Q234 434 189 434Q160 434 135.5 424Q111 414 111 403Q111 399 114 395Q117 391 126 384Q141 374 146 365Q151 356 151 345Q151 324 135.5 310Q120 296 100 296Q77 296 61 313Q45 330 45 355Q45 386 66 418.5Q87 451 122 474Q152 493 187.5 503Q223 513 263 513Q348 513 397.5 468Q447 423 447 344V97Q447 77 455.5 67.5Q464 58 482 58Q486 58 495 59.5Q504 61 508 63L513 36Q494 12 460.5 -1.5Q427 -15 391 -15Q357 -15 331 -0.5Q305 14 293 40H291Q271 16 236 0.5Q201 -15 163 -15Q100 -14 61.5 23Q23 60 23 115ZM185 152Q185 116 206.5 93Q228 70 261 70Q268 70 274 71Q280 72 285 73V248L238 225Q211 212 198 194.5Q185 177 185 152ZM368 664Q368 614 333.5 580Q299 546 249 546Q199 546 164.5 580Q130 614 130 664Q130 713 164.5 747Q199 781 249 781Q298 781 333 746.5Q368 712 368 664ZM186 664Q186 637 204.5 618Q223 599 249 599Q275 599 293.5 618Q312 637 312 664Q312 691 293 710.5Q274 730 249 730Q223 730 204.5 710.5Q186 691 186 664Z" glyph-name="aring" horiz-adv-x="515" unicode="&#229;" /><glyph d="M384 -15Q349 -15 323 -0.5Q297 14 286 40H284Q265 16 229.5 0.5Q194 -15 156 -15Q93 -14 54.5 23Q16 60 16 115Q16 164 46.5 197Q77 230 136 246L278 283V332Q278 372 254 394Q230 416 187 416Q161 416 133 401.5Q105 387 86 363L41 383Q67 444 125 478.5Q183 513 256 513Q343 513 391.5 467Q440 421 440 334V97Q440 77 448.5 67.5Q457 58 474 58Q479 58 488 59.5Q497 61 501 63L505 36Q486 12 453 -1.5Q420 -15 384 -15ZM177 152Q177 116 198.5 93Q220 70 253 70Q260 70 266.5 71Q273 72 278 73V248L230 224Q202 210 189.5 192.5Q177 175 177 152ZM366 664Q366 614 331.5 580Q297 546 247 546Q197 546 162.5 580Q128 614 128 664Q128 713 162.5 747Q197 781 247 781Q296 781 331 746.5Q366 712 366 664ZM184 664Q184 637 202.5 618Q221 599 247 599Q273 599 291.5 618Q310 637 310 664Q310 691 291 710.5Q272 730 247 730Q221 730 202.5 710.5Q184 691 184 664Z" glyph-name="aring.alt" horiz-adv-x="508" /><glyph d="M652 348 367 32 83 348 119 388 323 250 318 702H418L413 250L616 388Z" glyph-name="arrowdown" horiz-adv-x="735" unicode="&#8595;" /><glyph d="M549 109 123 86 146 512 199 514 247 272 562 596 633 525 309 210 551 162Z" glyph-name="arrowdownleft" horiz-adv-x="735" unicode="&#8601;" /><glyph d="M536 514 590 512 612 86 187 109 184 162 426 210 102 525 174 596 489 272Z" glyph-name="arrowdownright" horiz-adv-x="735" unicode="&#8600;" /><glyph d="M119 345 83 385 367 702 652 385 616 345 413 483 418 32H318L323 483Z" glyph-name="arrowup" horiz-adv-x="735" unicode="&#8593;" /><glyph d="M247 410 199 168 146 171 123 596 549 574 551 520 309 473 633 158 562 86Z" glyph-name="arrowupleft" horiz-adv-x="735" unicode="&#8598;" /><glyph d="M187 574 612 596 590 171 536 168 489 410 174 86 102 158 426 473 184 520Z" glyph-name="arrowupright" horiz-adv-x="735" unicode="&#8599;" /><glyph d="M83 345H19L228 715H314L521 345H457L271 562Z" glyph-name="asciicircum" horiz-adv-x="540" unicode="^" /><glyph d="M369 266Q356 266 334.5 270Q313 274 264 287Q212 301 188.5 305.5Q165 310 150 310Q128 310 115.5 298Q103 286 100 261L42 273Q51 346 84 383Q117 420 176 420Q192 420 214 416Q236 412 283 399Q332 385 354.5 381Q377 377 394 377Q417 377 430 389Q443 401 446 425L503 414Q495 341 461.5 303.5Q428 266 369 266Z" glyph-name="asciitilde" horiz-adv-x="540" unicode="~" /><glyph d="M279 436 178 269 75 356 238 477 45 518 98 640 252 530 208 724H349L305 530L460 640L512 518L319 477L483 356L379 269Z" glyph-name="asterisk" horiz-adv-x="558" unicode="*" /><glyph d="M431 -187Q347 -187 276 -161Q205 -135 152 -85Q97 -33 67 37.5Q37 108 37 187Q37 280 71 367.5Q105 455 168 522Q232 591 316.5 627Q401 663 498 663Q651 663 752 568Q853 473 853 322Q853 203 786.5 112Q720 21 626 21Q567 21 541 68Q515 115 532 198H530Q489 115 433 68Q377 21 319 21Q281 21 258.5 47.5Q236 74 236 118Q236 167 257 227.5Q278 288 313 338Q353 395 402.5 425.5Q452 456 507 457Q539 456 560 452Q581 448 615 435L683 460H717L701 391Q678 293 664.5 214Q651 135 651 110Q651 96 655.5 89.5Q660 83 669 83Q693 83 722 109.5Q751 136 771 179Q785 209 792 245Q799 281 799 321Q799 446 720.5 527.5Q642 609 518 609Q440 609 370 574Q300 539 247 474Q198 414 171.5 338.5Q145 263 145 183Q145 114 165 58Q185 2 224 -39Q265 -81 323 -104.5Q381 -128 441 -128Q497 -128 549.5 -112.5Q602 -97 646 -68L675 -99Q644 -131 569.5 -159Q495 -187 431 -187ZM370 133Q370 122 373.5 116Q377 110 385 109Q414 110 454 150Q494 190 540 264L568 384Q566 399 553.5 411.5Q541 424 526 425Q499 424 470.5 391Q442 358 416 299Q396 254 383 206.5Q370 159 370 133Z" glyph-name="at" horiz-adv-x="893" unicode="@" /><glyph d="M437 -85Q353 -85 282 -59Q211 -33 158 17Q103 69 73 139.5Q43 210 43 289Q43 382 77 469.5Q111 557 174 624Q238 693 322.5 729Q407 765 504 765Q657 765 758 670Q859 575 859 424Q859 305 792.5 214Q726 123 632 123Q573 123 547 170Q521 217 538 300H536Q495 217 439 170Q383 123 325 123Q287 123 264.5 149.5Q242 176 242 220Q242 269 263 329.5Q284 390 319 440Q359 497 408.5 527.5Q458 558 513 559Q545 558 566 554Q587 550 621 537L689 562H723L707 493Q684 395 670.5 316Q657 237 657 212Q657 198 661.5 191.5Q666 185 675 185Q699 185 728 211.5Q757 238 777 281Q791 311 798 347Q805 383 805 423Q805 548 726.5 629.5Q648 711 524 711Q446 711 376 676Q306 641 253 576Q204 516 177.5 440.5Q151 365 151 285Q151 216 171 160Q191 104 230 63Q271 21 329 -2.5Q387 -26 447 -26Q503 -26 555.5 -10.5Q608 5 652 34L681 3Q650 -29 575.5 -57Q501 -85 437 -85ZM376 235Q376 224 379.5 218Q383 212 391 211Q420 212 460 252Q500 292 546 366L574 486Q572 501 559.5 513.5Q547 526 532 527Q505 526 476.5 493Q448 460 422 401Q402 356 389 308.5Q376 261 376 235Z" glyph-name="at.case" horiz-adv-x="892" /><glyph d="M23 115Q23 165 53.5 198Q84 231 143 246L285 283V322Q285 376 259.5 405Q234 434 189 434Q160 434 135.5 424Q111 414 111 403Q111 399 114 395Q117 391 126 384Q141 374 146 365Q151 356 151 345Q151 324 135.5 310Q120 296 100 296Q77 296 61 313Q45 330 45 355Q45 386 66 418.5Q87 451 122 474Q152 493 187.5 503Q223 513 263 513Q348 513 397.5 468Q447 423 447 344V97Q447 77 455.5 67.5Q464 58 482 58Q486 58 495 59.5Q504 61 508 63L513 36Q494 12 460.5 -1.5Q427 -15 391 -15Q357 -15 331 -0.5Q305 14 293 40H291Q271 16 236 0.5Q201 -15 163 -15Q100 -14 61.5 23Q23 60 23 115ZM185 152Q185 116 206.5 93Q228 70 261 70Q268 70 274 71Q280 72 285 73V248L238 225Q211 212 198 194.5Q185 177 185 152ZM171 607Q156 607 147.5 600.5Q139 594 130 575L89 588Q93 649 118.5 680Q144 711 191 711Q204 711 221 707.5Q238 704 272 692Q297 683 308 680.5Q319 678 327 678Q342 678 351 684.5Q360 691 368 710L409 697Q405 636 379.5 604.5Q354 573 307 573Q294 573 277.5 576.5Q261 580 228 592Q202 601 190.5 604Q179 607 171 607Z" glyph-name="atilde" horiz-adv-x="515" unicode="&#227;" /><glyph d="M384 -15Q349 -15 323 -0.5Q297 14 286 40H284Q265 16 229.5 0.5Q194 -15 156 -15Q93 -14 54.5 23Q16 60 16 115Q16 164 46.5 197Q77 230 136 246L278 283V332Q278 372 254 394Q230 416 187 416Q161 416 133 401.5Q105 387 86 363L41 383Q67 444 125 478.5Q183 513 256 513Q343 513 391.5 467Q440 421 440 334V97Q440 77 448.5 67.5Q457 58 474 58Q479 58 488 59.5Q497 61 501 63L505 36Q486 12 453 -1.5Q420 -15 384 -15ZM177 152Q177 116 198.5 93Q220 70 253 70Q260 70 266.5 71Q273 72 278 73V248L230 224Q202 210 189.5 192.5Q177 175 177 152ZM169 607Q154 607 145.5 600.5Q137 594 128 575L87 588Q91 649 116.5 680Q142 711 189 711Q202 711 219 707.5Q236 704 270 692Q295 683 306 680.5Q317 678 325 678Q340 678 349 684.5Q358 691 366 710L407 697Q403 636 377.5 604.5Q352 573 305 573Q292 573 275.5 576.5Q259 580 226 592Q200 601 188.5 604Q177 607 169 607Z" glyph-name="atilde.alt" horiz-adv-x="508" /><glyph d="M214 744H216V498Q216 485 216 470Q216 455 215 439H217Q243 474 282 493.5Q321 513 365 513Q453 513 513 443Q573 373 573 264Q573 148 498 66.5Q423 -15 304 -15Q262 -15 224 0Q186 15 162 42L89 -11H54V646L-9 676V704Q45 709 99.5 719Q154 729 214 744ZM294 26Q345 26 372.5 75Q400 124 400 211Q400 304 367 362.5Q334 421 281 421Q263 421 246 415Q229 409 216 399V128Q216 80 236.5 53Q257 26 294 26Z" glyph-name="b" horiz-adv-x="596" unicode="b" /><glyph d="M446 -42 371 -72 27 752 103 781Z" glyph-name="backslash" horiz-adv-x="472" unicode="\" /><glyph d="M148 -66H81V789H148Z" glyph-name="bar" horiz-adv-x="229" unicode="|" /><glyph d="M308 -116 300 -184Q181 -184 125.5 -155Q70 -126 70 -59Q70 -41 76 -13.5Q82 14 102 77Q119 130 124 151.5Q129 173 129 186Q129 216 110.5 233Q92 250 57 252L17 254V313L57 316Q92 317 110.5 334.5Q129 352 129 382Q129 395 124 416.5Q119 438 102 491Q82 554 76 581.5Q70 609 70 627Q70 694 125.5 723Q181 752 300 752L308 683L301 682Q272 678 260 666.5Q248 655 248 632Q248 625 249.5 610Q251 595 257 554Q265 497 267.5 471.5Q270 446 270 431Q270 375 236.5 336Q203 297 141 284V282Q203 270 236.5 231.5Q270 193 270 137Q270 122 267.5 96.5Q265 71 257 14Q251 -27 249.5 -42Q248 -57 248 -64Q248 -86 259 -98Q270 -110 301 -115Z" glyph-name="braceleft" horiz-adv-x="340" unicode="{" /><glyph d="M317 -48 309 -116Q190 -116 134.5 -87Q79 -58 79 9Q79 27 85 54.5Q91 82 111 145Q128 198 133 219.5Q138 241 138 254Q138 284 119.5 301Q101 318 66 320L26 322V381L66 384Q101 385 119.5 402.5Q138 420 138 450Q138 463 133 484.5Q128 506 111 559Q91 622 85 649.5Q79 677 79 695Q79 762 134.5 791Q190 820 309 820L317 751L310 750Q281 746 269 734.5Q257 723 257 700Q257 693 258.5 678Q260 663 266 622Q274 565 276.5 539.5Q279 514 279 499Q279 443 245.5 404Q212 365 150 352V350Q212 338 245.5 299.5Q279 261 279 205Q279 190 276.5 164.5Q274 139 266 82Q260 41 258.5 26Q257 11 257 4Q257 -18 268 -30Q279 -42 310 -47Z" glyph-name="braceleft.case" horiz-adv-x="357" /><glyph d="M270 -59Q270 -126 214.5 -155Q159 -184 40 -184L32 -116L40 -115Q71 -110 82 -98Q93 -86 93 -64Q93 -57 91.5 -42Q90 -27 84 14Q76 71 73.5 96.5Q71 122 71 137Q71 193 104.5 231.5Q138 270 200 282V284Q138 297 104.5 336Q71 375 71 431Q71 446 73.5 471.5Q76 497 84 554Q90 595 91.5 610Q93 625 93 632Q93 655 81 666.5Q69 678 40 682L32 683L40 752Q159 752 214.5 723Q270 694 270 627Q270 609 264 581.5Q258 554 238 491Q221 438 216 416.5Q211 395 211 382Q211 353 229.5 336Q248 319 284 316L323 313V254L284 252Q248 250 229.5 233Q211 216 211 186Q211 173 216 151.5Q221 130 238 77Q258 14 264 -13.5Q270 -41 270 -59Z" glyph-name="braceright" horiz-adv-x="340" unicode="}" /><glyph d="M278 9Q278 -58 222.5 -87Q167 -116 48 -116L40 -48L48 -47Q79 -42 90 -30Q101 -18 101 4Q101 11 99.5 26Q98 41 92 82Q84 139 81.5 164.5Q79 190 79 205Q79 261 112.5 299.5Q146 338 208 350V352Q146 365 112.5 404Q79 443 79 499Q79 514 81.5 539.5Q84 565 92 622Q98 663 99.5 678Q101 693 101 700Q101 723 89 734.5Q77 746 48 750L40 751L48 820Q167 820 222.5 791Q278 762 278 695Q278 677 272 649.5Q266 622 246 559Q229 506 224 484.5Q219 463 219 450Q219 421 237.5 404Q256 387 292 384L331 381V322L292 320Q256 318 237.5 301Q219 284 219 254Q219 241 224 219.5Q229 198 246 145Q266 82 272 54.5Q278 27 278 9Z" glyph-name="braceright.case" horiz-adv-x="357" /><glyph d="M329 -191H81V737H329V679H142Q197 586 227.5 480Q258 374 258 273Q258 172 227.5 66Q197 -40 142 -133H329Z" glyph-name="bracketleft" horiz-adv-x="348" unicode="[" /><glyph d="M337 -121H89V807H337V749H150Q205 656 235.5 550Q266 444 266 343Q266 242 235.5 136Q205 30 150 -63H337Z" glyph-name="bracketleft.case" horiz-adv-x="369" /><glyph d="M267 -191H19V-133H206Q151 -40 120.5 66Q90 172 90 273Q90 374 120.5 480Q151 586 206 679H19V737H267Z" glyph-name="bracketright" horiz-adv-x="348" unicode="]" /><glyph d="M280 -121H32V-63H219Q164 30 133.5 136Q103 242 103 343Q103 444 133.5 550Q164 656 219 749H32V807H280Z" glyph-name="bracketright.case" horiz-adv-x="369" /><glyph d="M220 556Q150 556 112.5 593.5Q75 631 75 698V728H129V722Q129 691 151.5 676.5Q174 662 220 662Q266 662 288 676.5Q310 691 310 722V728H364V698Q364 631 326.5 593.5Q289 556 220 556Z" glyph-name="breve" horiz-adv-x="439" unicode="&#728;" /><glyph d="M147 420H80V789H147ZM147 -66H80V303H147Z" glyph-name="brokenbar" horiz-adv-x="227" unicode="&#166;" /><glyph d="M319 358Q319 304 281.5 267Q244 230 190 230Q136 230 99.5 267Q63 304 63 358Q63 411 100 448Q137 485 190 485Q244 485 281.5 448Q319 411 319 358Z" glyph-name="bullet" horiz-adv-x="382" unicode="&#8226;" /><glyph d="M269 -15Q160 -15 91 56.5Q22 128 22 247Q22 359 96 436Q170 513 289 513Q325 513 355 506Q385 499 409 486Q440 469 458 441.5Q476 414 476 389Q476 358 456 338Q436 318 406 318Q378 318 362.5 333.5Q347 349 349 375Q350 422 335.5 447Q321 472 292 472Q246 472 221 422.5Q196 373 196 288Q196 197 237 147Q278 97 346 97Q384 97 413 109.5Q442 122 463 148L487 139Q464 63 408.5 24Q353 -15 269 -15Z" glyph-name="c" horiz-adv-x="494" unicode="c" /><glyph d="M706 -15Q632 -15 597 17Q562 49 562 117V440H488V491Q533 496 562 526.5Q591 557 591 599Q591 637 563 666.5Q535 696 490 696Q439 696 409.5 664Q380 632 380 579Q380 557 388.5 531.5Q397 506 412 484Q442 467 459 440.5Q476 414 476 389Q476 358 456 338Q436 318 406 318Q378 318 362.5 333.5Q347 349 349 375Q350 422 335.5 447Q321 472 292 472Q246 472 221 422.5Q196 373 196 288Q196 197 237 147Q278 97 346 97Q384 97 413 109.5Q442 122 463 148L487 139Q464 63 408.5 24Q353 -15 269 -15Q160 -15 91 56.5Q22 128 22 247Q22 359 96 436Q170 513 289 513Q308 513 326 511Q344 509 361 505Q351 525 345.5 546.5Q340 568 340 590Q340 658 391.5 705Q443 752 524 752Q615 752 669.5 692.5Q724 633 724 540V498H850V440H724V178Q724 138 726.5 122.5Q729 107 734 96Q742 76 759 67Q776 58 803 58Q813 58 824.5 61Q836 64 840 67L852 30Q823 10 783.5 -2.5Q744 -15 706 -15Z" glyph-name="c_t" horiz-adv-x="851" unicode="&#57345;" /><glyph d="M269 -15Q160 -15 91 56.5Q22 128 22 247Q22 359 96 436Q170 513 289 513Q325 513 355 506Q385 499 409 486Q440 469 458 441.5Q476 414 476 389Q476 358 456 338Q436 318 406 318Q378 318 362.5 333.5Q347 349 349 375Q350 422 335.5 447Q321 472 292 472Q246 472 221 422.5Q196 373 196 288Q196 197 237 147Q278 97 346 97Q384 97 413 109.5Q442 122 463 148L487 139Q464 63 408.5 24Q353 -15 269 -15ZM275 574H218L233 729H404Z" glyph-name="cacute" horiz-adv-x="494" unicode="&#263;" /><glyph d="M189 547 75 702H142L228 649L314 702H381L267 547Z" glyph-name="caron" horiz-adv-x="456" unicode="&#711;" /><glyph d="M269 -15Q160 -15 91 56.5Q22 128 22 247Q22 359 96 436Q170 513 289 513Q325 513 355 506Q385 499 409 486Q440 469 458 441.5Q476 414 476 389Q476 358 456 338Q436 318 406 318Q378 318 362.5 333.5Q347 349 349 375Q350 422 335.5 447Q321 472 292 472Q246 472 221 422.5Q196 373 196 288Q196 197 237 147Q278 97 346 97Q384 97 413 109.5Q442 122 463 148L487 139Q464 63 408.5 24Q353 -15 269 -15ZM207 574 93 729H160L246 676L332 729H399L285 574Z" glyph-name="ccaron" horiz-adv-x="494" unicode="&#269;" /><glyph d="M390 -148Q390 -191 352 -219.5Q314 -248 250 -248Q216 -248 181.5 -236.5Q147 -225 130 -210L148 -174Q164 -180 177 -182.5Q190 -185 203 -185Q234 -185 251.5 -173.5Q269 -162 269 -141Q269 -119 243 -104Q217 -89 177 -88L175 -79L239 -13Q141 -3 81.5 66.5Q22 136 22 247Q22 359 96 436Q170 513 289 513Q325 513 355 506Q385 499 409 486Q440 469 458 441.5Q476 414 476 389Q476 358 456 338Q436 318 406 318Q378 318 362.5 333.5Q347 349 349 375Q350 422 335.5 447Q321 472 292 472Q246 472 221 422.5Q196 373 196 288Q196 197 237 147Q278 97 346 97Q384 97 413 109.5Q442 122 463 148L487 139Q466 70 417.5 31Q369 -8 295 -14L270 -49Q319 -53 354.5 -79.5Q390 -106 390 -148Z" glyph-name="ccedilla" horiz-adv-x="494" unicode="&#231;" /><glyph d="M269 -15Q160 -15 91 56.5Q22 128 22 247Q22 359 96 436Q170 513 289 513Q325 513 355 506Q385 499 409 486Q440 469 458 441.5Q476 414 476 389Q476 358 456 338Q436 318 406 318Q378 318 362.5 333.5Q347 349 349 375Q350 422 335.5 447Q321 472 292 472Q246 472 221 422.5Q196 373 196 288Q196 197 237 147Q278 97 346 97Q384 97 413 109.5Q442 122 463 148L487 139Q464 63 408.5 24Q353 -15 269 -15ZM160 574H93L207 729H285L399 574H332L246 627Z" glyph-name="ccircumflex" horiz-adv-x="494" unicode="&#265;" /><glyph d="M269 -15Q160 -15 91 56.5Q22 128 22 247Q22 359 96 436Q170 513 289 513Q325 513 355 506Q385 499 409 486Q440 469 458 441.5Q476 414 476 389Q476 358 456 338Q436 318 406 318Q378 318 362.5 333.5Q347 349 349 375Q350 422 335.5 447Q321 472 292 472Q246 472 221 422.5Q196 373 196 288Q196 197 237 147Q278 97 346 97Q384 97 413 109.5Q442 122 463 148L487 139Q464 63 408.5 24Q353 -15 269 -15ZM330 664Q330 629 305.5 604.5Q281 580 246 580Q212 580 187.5 604.5Q163 629 163 664Q163 699 187.5 724Q212 749 246 749Q281 749 305.5 724Q330 699 330 664Z" glyph-name="cdotaccent" horiz-adv-x="494" unicode="&#267;" /><glyph d="M304 -148Q304 -191 266 -219.5Q228 -248 164 -248Q130 -248 95.5 -236.5Q61 -225 44 -210L62 -174Q78 -180 91 -182.5Q104 -185 117 -185Q148 -185 165.5 -173.5Q183 -162 183 -141Q183 -119 157 -104Q131 -89 91 -88L89 -79L180 14L229 15L184 -49Q233 -53 268.5 -79.5Q304 -106 304 -148Z" glyph-name="cedilla" horiz-adv-x="348" unicode="&#184;" /><glyph d="M308 472Q262 472 237 422.5Q212 373 212 288Q212 238 224.5 200Q237 162 262 137L331 467Q326 469 320 470.5Q314 472 308 472ZM285 -15H284L265 -106H211L231 -10Q142 7 90 75.5Q38 144 38 247Q38 359 112 436Q186 513 305 513Q311 513 318 512.5Q325 512 341 511L354 575H409L393 500Q439 485 465.5 453.5Q492 422 492 389Q492 358 472 338Q452 318 422 318Q397 318 382 331Q367 344 365 367L310 106Q323 102 336 99.5Q349 97 362 97Q400 97 429 109.5Q458 122 479 148L503 139Q480 63 424.5 24Q369 -15 285 -15Z" glyph-name="cent" horiz-adv-x="538" unicode="&#162;" /><glyph d="M142 547H75L189 702H267L381 547H314L228 600Z" glyph-name="circumflex" horiz-adv-x="456" unicode="&#710;" /><glyph d="M248 397Q248 354 218.5 324.5Q189 295 147 295Q104 295 74.5 324.5Q45 354 45 397Q45 439 74.5 468.5Q104 498 147 498Q189 498 218.5 468.5Q248 439 248 397ZM248 87Q248 44 218.5 14.5Q189 -15 147 -15Q104 -15 74.5 14.5Q45 44 45 87Q45 129 74.5 158.5Q104 188 147 188Q189 188 218.5 158.5Q248 129 248 87Z" glyph-name="colon" horiz-adv-x="293" unicode=":" /><glyph d="M255 51Q255 -25 206.5 -90Q158 -155 68 -199L49 -166Q104 -127 134 -86.5Q164 -46 172 3Q162 -1 151 -3.5Q140 -6 129 -6Q90 -6 63 22Q36 50 36 89Q36 129 65 158.5Q94 188 138 188Q188 188 221.5 148Q255 108 255 51Z" glyph-name="comma" horiz-adv-x="293" unicode="," /><glyph d="M191 -156Q191 -209 158 -258.5Q125 -308 63 -347L33 -317Q61 -295 82.5 -265.5Q104 -236 117 -201Q110 -205 100.5 -207.5Q91 -210 80 -210Q45 -210 21 -185.5Q-3 -161 -3 -126Q-3 -91 23 -64.5Q49 -38 88 -38Q132 -38 161.5 -72.5Q191 -107 191 -156Z" glyph-name="commaaccent" horiz-adv-x="187" unicode="&#63171;" /><glyph d="M747 60Q688 4 612 -26.5Q536 -57 454 -57Q372 -57 296 -26.5Q220 4 162 61Q102 118 69.5 193Q37 268 37 349Q37 430 69.5 505Q102 580 162 637Q220 694 296 724.5Q372 755 454 755Q536 755 612 724.5Q688 694 747 638Q807 580 839.5 505Q872 430 872 349Q872 268 839.5 193Q807 118 747 60ZM454 688Q314 688 216 589Q118 490 118 349Q118 208 216 109Q314 10 454 10Q595 10 693.5 109Q792 208 792 349Q792 490 693.5 589Q595 688 454 688ZM381 391Q381 318 417.5 270.5Q454 223 512 223Q549 223 577.5 239Q606 255 630 290L663 263Q642 192 586 151Q530 110 456 110Q356 110 290.5 174Q225 238 225 345Q225 447 297 524Q369 601 473 601Q552 601 599 570.5Q646 540 646 499Q646 470 624.5 449.5Q603 429 574 429Q552 429 538.5 440.5Q525 452 515 489Q506 523 494.5 533.5Q483 544 464 544Q425 544 403 502Q381 460 381 391Z" glyph-name="copyright" horiz-adv-x="909" unicode="&#169;" /><glyph d="M74 349Q74 394 90.5 441Q107 488 138 527L48 613L79 644L165 558Q198 588 246 605Q294 622 341 622Q388 622 436 604.5Q484 587 517 558L603 644L634 613L544 527Q575 488 591.5 441Q608 394 608 349Q608 304 591.5 257Q575 210 544 171L634 85L603 54L517 140Q484 111 436 93.5Q388 76 341 76Q294 76 246 93Q198 110 165 140L79 54L48 85L138 171Q107 210 90.5 257Q74 304 74 349ZM341 116Q437 116 500.5 183Q564 250 564 349Q564 448 500.5 515Q437 582 341 582Q245 582 181.5 515Q118 448 118 349Q118 250 181.5 183Q245 116 341 116Z" glyph-name="currency" horiz-adv-x="682" unicode="&#164;" /><glyph d="M541 744H543V69L595 36V8Q533 4 483.5 -1.5Q434 -7 381 -15L383 61H381Q354 24 315.5 4.5Q277 -15 232 -15Q143 -15 83 54.5Q23 124 23 233Q23 350 97.5 431.5Q172 513 291 513Q315 513 338 510.5Q361 508 381 503V646L311 676V704Q368 710 426 720Q484 730 541 744ZM196 287Q196 194 229.5 135.5Q263 77 316 77Q334 77 351.5 83Q369 89 381 99V369Q381 416 359 443.5Q337 471 299 471Q249 471 222.5 422.5Q196 374 196 287Z" glyph-name="d" horiz-adv-x="608" unicode="d" /><glyph d="M254 190H188V479H35V541H188V700H254V541H409V479H254Z" glyph-name="dagger" horiz-adv-x="444" unicode="&#8224;" /><glyph d="M265 190H199V336H46V398H199V492H46V554H199V700H265V554H420V492H265V398H420V336H265Z" glyph-name="daggerdbl" horiz-adv-x="466" unicode="&#8225;" /><glyph d="M541 744H543V69L595 36V8Q533 4 483.5 -1.5Q434 -7 381 -15L383 61H381Q354 24 315.5 4.5Q277 -15 232 -15Q143 -15 83 54.5Q23 124 23 233Q23 350 97.5 431.5Q172 513 291 513Q315 513 338 510.5Q361 508 381 503V646L311 676V704Q368 710 426 720Q484 730 541 744ZM196 287Q196 194 229.5 135.5Q263 77 316 77Q334 77 351.5 83Q369 89 381 99V369Q381 416 359 443.5Q337 471 299 471Q249 471 222.5 422.5Q196 374 196 287ZM757 582Q757 529 724 479.5Q691 430 629 391L599 421Q627 443 648.5 472.5Q670 502 683 537Q676 533 666.5 530.5Q657 528 646 528Q611 528 587 552.5Q563 577 563 612Q563 647 589 673.5Q615 700 654 700Q698 700 727.5 665.5Q757 631 757 582Z" glyph-name="dcaron" horiz-adv-x="706" unicode="&#271;" /><glyph d="M381 -15 383 61H381Q354 24 315.5 4.5Q277 -15 232 -15Q143 -15 83 54.5Q23 124 23 233Q23 350 97.5 431.5Q172 513 291 513Q315 513 338 510.5Q361 508 381 503V556H277V604H381V646L311 676V704Q368 710 426 720Q484 730 541 744H543V604H590V556H543V69L595 36V8Q533 4 483.5 -1.5Q434 -7 381 -15ZM196 287Q196 194 229.5 135.5Q263 77 316 77Q334 77 351.5 83Q369 89 381 99V369Q381 416 359 443.5Q337 471 299 471Q249 471 222.5 422.5Q196 374 196 287Z" glyph-name="dcroat" horiz-adv-x="603" unicode="&#273;" /><glyph d="M342 560Q342 496 296.5 450.5Q251 405 186 405Q121 405 75.5 450.5Q30 496 30 560Q30 624 75.5 669.5Q121 715 186 715Q251 715 296.5 669.5Q342 624 342 560ZM277 560Q277 601 251 629Q225 657 186 657Q147 657 121 629Q95 601 95 560Q95 519 121 491Q147 463 186 463Q225 463 251 491Q277 519 277 560Z" glyph-name="degree" horiz-adv-x="372" unicode="&#176;" /><glyph d="M422 652Q422 619 399.5 596Q377 573 345 573Q313 573 290.5 596Q268 619 268 652Q268 684 290.5 707Q313 730 345 730Q377 730 399.5 707Q422 684 422 652ZM223 652Q223 619 200.5 596Q178 573 146 573Q114 573 91.5 596Q69 619 69 652Q69 684 91.5 707Q114 730 146 730Q178 730 200.5 707Q223 684 223 652Z" glyph-name="dieresis" horiz-adv-x="491" unicode="&#168;" /><glyph d="M352 522Q352 489 329.5 467Q307 445 274 445Q241 445 218.5 467Q196 489 196 522Q196 555 218.5 577.5Q241 600 274 600Q307 600 329.5 577.5Q352 555 352 522ZM479 327H62V389H479ZM352 192Q352 160 329 136.5Q306 113 274 113Q241 113 218.5 136Q196 159 196 192Q196 225 218.5 247.5Q241 270 274 270Q306 270 329 247Q352 224 352 192Z" glyph-name="divide" horiz-adv-x="540" unicode="&#247;" /><glyph d="M223 573Q223 541 241.5 516.5Q260 492 301 469L319 671Q277 665 250 637Q223 609 223 573ZM410 128Q410 162 392.5 186.5Q375 211 334 234L316 30Q358 36 384 64Q410 92 410 128ZM305 -97H251L258 -17Q204 -14 152.5 -2Q101 10 54 31L59 233H104Q124 147 164.5 95.5Q205 44 262 32L282 261Q273 266 261 271Q249 276 235 282Q131 327 90.5 378Q50 429 50 503Q50 594 124.5 654.5Q199 715 322 715L329 789H382L375 713Q417 710 463 704.5Q509 699 535 694L525 525H481Q465 587 438 622.5Q411 658 371 668L352 444L355 443Q420 415 450.5 397.5Q481 380 503 363Q539 333 556.5 297.5Q574 262 574 217Q574 116 502 52.5Q430 -11 312 -17Z" glyph-name="dollar" horiz-adv-x="609" unicode="$" /><glyph d="M242 658Q242 623 217.5 598.5Q193 574 158 574Q124 574 99.5 598.5Q75 623 75 658Q75 693 99.5 718Q124 743 158 743Q193 743 217.5 718Q242 693 242 658Z" glyph-name="dotaccent" horiz-adv-x="317" unicode="&#729;" /><glyph d="M76 90V416L26 446V474Q79 479 131.5 489Q184 499 236 514H238V90Q238 71 246.5 58Q255 45 274 36L288 29V0H27V29L40 36Q59 45 67.5 58Q76 71 76 90Z" glyph-name="dotlessi" horiz-adv-x="304" unicode="&#305;" /><glyph d="M37 -252 5 -226Q30 -222 47.5 -185Q65 -148 65 -99V416L15 446V474Q68 479 121 489Q174 499 226 514H228V-59Q228 -143 174 -196Q120 -249 37 -252Z" glyph-name="dotlessj" horiz-adv-x="282" unicode="&#567;" /><glyph d="M272 -15Q162 -15 92 56Q22 127 22 246Q22 360 91.5 436.5Q161 513 276 513Q372 513 432 453Q492 393 492 297V272H198V263Q198 184 238 140.5Q278 97 344 97Q384 97 413.5 109.5Q443 122 463 148L487 139Q464 64 408.5 24.5Q353 -15 272 -15ZM277 474Q239 474 219.5 434Q200 394 199 314L338 317Q344 393 328 433.5Q312 474 277 474Z" glyph-name="e" horiz-adv-x="513" unicode="e" /><glyph d="M272 -15Q162 -15 92 56Q22 127 22 246Q22 360 91.5 436.5Q161 513 276 513Q372 513 432 453Q492 393 492 297V272H198V263Q198 184 238 140.5Q278 97 344 97Q384 97 413.5 109.5Q443 122 463 148L487 139Q464 64 408.5 24.5Q353 -15 272 -15ZM277 474Q239 474 219.5 434Q200 394 199 314L338 317Q344 393 328 433.5Q312 474 277 474ZM282 574H225L240 729H411Z" glyph-name="eacute" horiz-adv-x="513" unicode="&#233;" /><glyph d="M272 -15Q162 -15 92 56Q22 127 22 246Q22 360 91.5 436.5Q161 513 276 513Q372 513 432 453Q492 393 492 297V272H198V263Q198 184 238 140.5Q278 97 344 97Q384 97 413.5 109.5Q443 122 463 148L487 139Q464 64 408.5 24.5Q353 -15 272 -15ZM277 474Q239 474 219.5 434Q200 394 199 314L338 317Q344 393 328 433.5Q312 474 277 474ZM254 573Q184 573 146.5 610.5Q109 648 109 715V745H163V739Q163 708 185.5 693.5Q208 679 254 679Q300 679 322 693.5Q344 708 344 739V745H398V715Q398 648 360.5 610.5Q323 573 254 573Z" glyph-name="ebreve" horiz-adv-x="513" unicode="&#277;" /><glyph d="M272 -15Q162 -15 92 56Q22 127 22 246Q22 360 91.5 436.5Q161 513 276 513Q372 513 432 453Q492 393 492 297V272H198V263Q198 184 238 140.5Q278 97 344 97Q384 97 413.5 109.5Q443 122 463 148L487 139Q464 64 408.5 24.5Q353 -15 272 -15ZM277 474Q239 474 219.5 434Q200 394 199 314L338 317Q344 393 328 433.5Q312 474 277 474ZM214 574 100 729H167L253 676L339 729H406L292 574Z" glyph-name="ecaron" horiz-adv-x="513" unicode="&#283;" /><glyph d="M272 -15Q162 -15 92 56Q22 127 22 246Q22 360 91.5 436.5Q161 513 276 513Q372 513 432 453Q492 393 492 297V272H198V263Q198 184 238 140.5Q278 97 344 97Q384 97 413.5 109.5Q443 122 463 148L487 139Q464 64 408.5 24.5Q353 -15 272 -15ZM277 474Q239 474 219.5 434Q200 394 199 314L338 317Q344 393 328 433.5Q312 474 277 474ZM167 574H100L214 729H292L406 574H339L253 627Z" glyph-name="ecircumflex" horiz-adv-x="513" unicode="&#234;" /><glyph d="M272 -15Q162 -15 92 56Q22 127 22 246Q22 360 91.5 436.5Q161 513 276 513Q372 513 432 453Q492 393 492 297V272H198V263Q198 184 238 140.5Q278 97 344 97Q384 97 413.5 109.5Q443 122 463 148L487 139Q464 64 408.5 24.5Q353 -15 272 -15ZM277 474Q239 474 219.5 434Q200 394 199 314L338 317Q344 393 328 433.5Q312 474 277 474ZM436 661Q436 628 413.5 605Q391 582 359 582Q327 582 304.5 605Q282 628 282 661Q282 693 304.5 716Q327 739 359 739Q391 739 413.5 716Q436 693 436 661ZM237 661Q237 628 214.5 605Q192 582 160 582Q128 582 105.5 605Q83 628 83 661Q83 693 105.5 716Q128 739 160 739Q192 739 214.5 716Q237 693 237 661Z" glyph-name="edieresis" horiz-adv-x="513" unicode="&#235;" /><glyph d="M272 -15Q162 -15 92 56Q22 127 22 246Q22 360 91.5 436.5Q161 513 276 513Q372 513 432 453Q492 393 492 297V272H198V263Q198 184 238 140.5Q278 97 344 97Q384 97 413.5 109.5Q443 122 463 148L487 139Q464 64 408.5 24.5Q353 -15 272 -15ZM277 474Q239 474 219.5 434Q200 394 199 314L338 317Q344 393 328 433.5Q312 474 277 474ZM337 664Q337 629 312.5 604.5Q288 580 253 580Q219 580 194.5 604.5Q170 629 170 664Q170 699 194.5 724Q219 749 253 749Q288 749 312.5 724Q337 699 337 664Z" glyph-name="edotaccent" horiz-adv-x="513" unicode="&#279;" /><glyph d="M272 -15Q162 -15 92 56Q22 127 22 246Q22 360 91.5 436.5Q161 513 276 513Q372 513 432 453Q492 393 492 297V272H198V263Q198 184 238 140.5Q278 97 344 97Q384 97 413.5 109.5Q443 122 463 148L487 139Q464 64 408.5 24.5Q353 -15 272 -15ZM277 474Q239 474 219.5 434Q200 394 199 314L338 317Q344 393 328 433.5Q312 474 277 474ZM283 574H226L97 729H268Z" glyph-name="egrave" horiz-adv-x="513" unicode="&#232;" /><glyph d="M61 515Q61 598 134 656.5Q207 715 323 715Q430 715 493.5 669.5Q557 624 557 555Q557 502 515.5 464Q474 426 413 417V415Q503 373 541.5 323Q580 273 580 204Q580 157 555.5 113Q531 69 487 38Q450 12 402.5 -1.5Q355 -15 299 -15Q181 -15 109.5 37Q38 89 38 174Q38 232 78.5 277.5Q119 323 182 338V340Q125 368 93 414Q61 460 61 515ZM428 564Q428 613 400 641.5Q372 670 324 670Q281 670 253 643.5Q225 617 225 574Q225 541 247 514.5Q269 488 319 462L361 440Q388 460 408 496Q428 532 428 564ZM169 176Q169 118 207 80Q245 42 305 42Q356 42 389 71.5Q422 101 422 148Q422 181 398.5 207Q375 233 305 272L229 314Q200 288 184.5 251Q169 214 169 176Z" glyph-name="eight" horiz-adv-x="619" unicode="8" /><glyph d="M51 308Q51 359 94 394Q137 429 208 429Q272 429 310 401.5Q348 374 348 333Q348 301 323 278Q298 255 263 250V248Q316 225 340 194.5Q364 164 364 122Q364 68 317 29.5Q270 -9 195 -9Q123 -9 80.5 22Q38 53 38 105Q38 140 62 167Q86 194 124 203V204Q90 224 70.5 251Q51 278 51 308ZM271 338Q271 367 254 384.5Q237 402 209 402Q183 402 165 385.5Q147 369 147 343Q147 322 161 306Q175 290 205 276L231 264Q247 276 259 297.5Q271 319 271 338ZM116 106Q116 71 138.5 48Q161 25 198 25Q229 25 248.5 43.5Q268 62 268 91Q268 117 247 136Q226 155 163 184L152 189Q135 174 125.5 151Q116 128 116 106Z" glyph-name="eight.dnom" horiz-adv-x="400" /><glyph d="M51 594Q51 645 94 680Q137 715 208 715Q272 715 310 687.5Q348 660 348 619Q348 587 323 564Q298 541 263 536V534Q316 511 340 480.5Q364 450 364 408Q364 354 317 315.5Q270 277 195 277Q123 277 80.5 308Q38 339 38 391Q38 426 62 453Q86 480 124 489V490Q90 510 70.5 537Q51 564 51 594ZM271 624Q271 653 254 670.5Q237 688 209 688Q183 688 165 671.5Q147 655 147 629Q147 608 161 592Q175 576 205 562L231 550Q247 562 259 583.5Q271 605 271 624ZM116 392Q116 357 138.5 334Q161 311 198 311Q229 311 248.5 329.5Q268 348 268 377Q268 403 247 422Q226 441 163 470L152 475Q135 460 125.5 437Q116 414 116 392Z" glyph-name="eight.numr" horiz-adv-x="400" /><glyph d="M60 472Q60 550 124 603.5Q188 657 290 657Q386 657 443.5 615Q501 573 501 510Q501 461 464 426Q427 391 372 382V380Q453 342 488 295.5Q523 249 523 186Q523 102 453.5 43.5Q384 -15 273 -15Q169 -15 104.5 33Q40 81 40 159Q40 212 75.5 253.5Q111 295 167 310V312Q116 337 88 379.5Q60 422 60 472ZM385 518Q385 563 359.5 589.5Q334 616 293 616Q254 616 228.5 591.5Q203 567 203 527Q203 497 222.5 473Q242 449 288 425L326 405Q349 422 367 455Q385 488 385 518ZM156 159Q156 106 189.5 71.5Q223 37 276 37Q322 37 351.5 65Q381 93 381 137Q381 168 360 192.5Q339 217 286 246L210 288Q185 264 170.5 229Q156 194 156 159Z" glyph-name="eight.pnum" horiz-adv-x="562" /><glyph d="M52 515Q52 598 125 656.5Q198 715 314 715Q421 715 484.5 669.5Q548 624 548 555Q548 502 506.5 464Q465 426 404 417V415Q494 373 532.5 323Q571 273 571 204Q571 157 546.5 113Q522 69 478 38Q441 12 393.5 -1.5Q346 -15 290 -15Q172 -15 100.5 37Q29 89 29 174Q29 232 69.5 277.5Q110 323 173 338V340Q116 368 84 414Q52 460 52 515ZM419 564Q419 613 391 641.5Q363 670 315 670Q272 670 244 643.5Q216 617 216 574Q216 541 238 514.5Q260 488 310 462L352 440Q379 460 399 496Q419 532 419 564ZM160 176Q160 118 198 80Q236 42 296 42Q347 42 380 71.5Q413 101 413 148Q413 181 389.5 207Q366 233 296 272L220 314Q191 288 175.5 251Q160 214 160 176Z" glyph-name="eight.tnum" horiz-adv-x="600" /><glyph d="M51 208Q51 259 94 294Q137 329 208 329Q272 329 310 301.5Q348 274 348 233Q348 201 323 178Q298 155 263 150V148Q316 125 340 94.5Q364 64 364 22Q364 -32 317 -70.5Q270 -109 195 -109Q123 -109 80.5 -78Q38 -47 38 5Q38 40 62 67Q86 94 124 103V104Q90 124 70.5 151Q51 178 51 208ZM271 238Q271 267 254 284.5Q237 302 209 302Q183 302 165 285.5Q147 269 147 243Q147 222 161 206Q175 190 205 176L231 164Q247 176 259 197.5Q271 219 271 238ZM116 6Q116 -29 138.5 -52Q161 -75 198 -75Q229 -75 248.5 -56.5Q268 -38 268 -9Q268 17 247 36Q226 55 163 84L152 89Q135 74 125.5 51Q116 28 116 6Z" glyph-name="eightinferior" horiz-adv-x="400" unicode="&#8328;" /><glyph d="M51 694Q51 745 94 780Q137 815 208 815Q272 815 310 787.5Q348 760 348 719Q348 687 323 664Q298 641 263 636V634Q316 611 340 580.5Q364 550 364 508Q364 454 317 415.5Q270 377 195 377Q123 377 80.5 408Q38 439 38 491Q38 526 62 553Q86 580 124 589V590Q90 610 70.5 637Q51 664 51 694ZM271 724Q271 753 254 770.5Q237 788 209 788Q183 788 165 771.5Q147 755 147 729Q147 708 161 692Q175 676 205 662L231 650Q247 662 259 683.5Q271 705 271 724ZM116 492Q116 457 138.5 434Q161 411 198 411Q229 411 248.5 429.5Q268 448 268 477Q268 503 247 522Q226 541 163 570L152 575Q135 560 125.5 537Q116 514 116 492Z" glyph-name="eightsuperior" horiz-adv-x="400" unicode="&#8312;" /><glyph d="M972 87Q972 45 942.5 15Q913 -15 871 -15Q829 -15 799 15Q769 45 769 87Q769 129 798.5 158.5Q828 188 871 188Q913 188 942.5 158.5Q972 129 972 87ZM606 87Q606 45 576 15Q546 -15 504 -15Q462 -15 432 15Q402 45 402 87Q402 129 432 158.5Q462 188 504 188Q547 188 576.5 158.5Q606 129 606 87ZM240 87Q240 45 210 15Q180 -15 138 -15Q96 -15 66 15Q36 45 36 87Q36 129 66 158.5Q96 188 138 188Q180 188 210 158.5Q240 129 240 87Z" glyph-name="ellipsis" horiz-adv-x="1008" unicode="&#8230;" /><glyph d="M272 -15Q162 -15 92 56Q22 127 22 246Q22 360 91.5 436.5Q161 513 276 513Q372 513 432 453Q492 393 492 297V272H198V263Q198 184 238 140.5Q278 97 344 97Q384 97 413.5 109.5Q443 122 463 148L487 139Q464 64 408.5 24.5Q353 -15 272 -15ZM277 474Q239 474 219.5 434Q200 394 199 314L338 317Q344 393 328 433.5Q312 474 277 474ZM408 589H99V658H408Z" glyph-name="emacron" horiz-adv-x="513" unicode="&#275;" /><glyph d="M980 251H60V314H980Z" glyph-name="emdash" horiz-adv-x="1040" unicode="&#8212;" /><glyph d="M989 317H69V380H989Z" glyph-name="emdash.case" horiz-adv-x="1057" /><glyph d="M480 251H60V314H480Z" glyph-name="endash" horiz-adv-x="540" unicode="&#8211;" /><glyph d="M489 317H69V380H489Z" glyph-name="endash.case" horiz-adv-x="557" /><glyph d="M284 -243Q232 -243 195.5 -216Q159 -189 159 -147Q159 -120 177 -102.5Q195 -85 219 -85Q244 -85 260 -101.5Q276 -118 276 -146Q276 -158 270 -172.5Q264 -187 255 -195Q259 -196 266.5 -197Q274 -198 278 -198Q326 -198 353 -162Q380 -126 380 -68V320Q380 369 362 391Q344 413 302 413Q287 413 269 409.5Q251 406 238 401V90Q238 69 246.5 56.5Q255 44 274 37L294 29V0H26V29L40 36Q58 45 66.5 57.5Q75 70 75 90V416L25 446V474Q78 479 131 489Q184 499 236 514H238L233 432H235Q264 470 302.5 491.5Q341 513 381 513Q458 513 500 466Q542 419 542 331V90Q542 71 550.5 58Q559 45 578 36L592 29V0H432V-68Q432 -146 390.5 -194.5Q349 -243 284 -243Z" glyph-name="eng" horiz-adv-x="605" unicode="&#331;" /><glyph d="M329 -216Q279 -216 248 -191Q217 -166 217 -126Q217 -97 235 -68.5Q253 -40 287 -15Q283 -15 279.5 -15Q276 -15 272 -15Q162 -15 92 56Q22 127 22 246Q22 360 91.5 436.5Q161 513 276 513Q372 513 432 453Q492 393 492 297V272H198V263Q198 184 238 140.5Q278 97 344 97Q384 97 413.5 109.5Q443 122 463 148L487 139Q472 90 443 56Q414 22 371 4Q352 -29 341 -58.5Q330 -88 330 -108Q330 -134 349 -148.5Q368 -163 401 -163Q408 -163 413 -162.5Q418 -162 419 -162L407 -201Q385 -209 365.5 -212.5Q346 -216 329 -216ZM277 474Q239 474 219.5 434Q200 394 199 314L338 317Q344 393 328 433.5Q312 474 277 474Z" glyph-name="eogonek" horiz-adv-x="513" unicode="&#281;" /><glyph d="M478 424H61V488H478ZM478 227H61V291H478Z" glyph-name="equal" horiz-adv-x="540" unicode="=" /><glyph d="M438 -11Q361 -11 290.5 15.5Q220 42 164 91Q106 142 74.5 210Q43 278 43 353Q43 427 74.5 494.5Q106 562 165 613Q220 661 290.5 686.5Q361 712 438 712Q613 712 724 607.5Q835 503 835 344H200Q195 344 193 341.5Q191 339 191 332V160Q191 130 217 103Q243 76 291 55Q326 39 366.5 29.5Q407 20 438 20Q518 20 587 49Q656 78 703 131H750Q695 62 614.5 25.5Q534 -11 438 -11ZM200 375H677Q682 375 684 377Q686 379 686 384V552Q686 607 607 644.5Q528 682 438 682Q352 682 271.5 644Q191 606 191 552V384Q191 379 193 377Q195 375 200 375Z" glyph-name="estimated" horiz-adv-x="869" unicode="&#8494;" /><glyph d="M549 268Q549 142 473 64Q397 -14 283 -14Q171 -14 96.5 58Q22 130 22 236Q22 342 94 415Q166 488 272 488Q300 488 315.5 484.5Q331 481 342 475Q321 507 293 542Q265 577 231 613L138 559L113 601L196 649Q174 672 149 697Q124 722 89 755L109 781Q150 763 190 740.5Q230 718 269 692L381 757L405 715L312 660Q426 573 487.5 471.5Q549 370 549 268ZM283 450Q241 450 218.5 394.5Q196 339 196 236Q196 134 218.5 79.5Q241 25 283 25Q326 25 348.5 79Q371 133 371 236Q371 340 348.5 395Q326 450 283 450Z" glyph-name="eth" horiz-adv-x="570" unicode="&#240;" /><glyph d="M177 250H116L115 273Q113 316 103.5 361.5Q94 407 68 486Q49 543 43 568Q37 593 37 613Q37 661 65 688Q93 715 145 715H148Q200 715 228 688Q256 661 256 613Q256 593 250.5 567.5Q245 542 225 484Q199 406 189.5 360.5Q180 315 178 273ZM249 87Q249 44 219.5 14.5Q190 -15 148 -15Q106 -15 76 15Q46 45 46 87Q46 129 76 158.5Q106 188 148 188Q190 188 219.5 158.5Q249 129 249 87Z" glyph-name="exclam" horiz-adv-x="294" unicode="!" /><glyph d="M110 210 111 233H172L173 210Q175 168 184.5 122.5Q194 77 220 -1Q240 -59 245.5 -84.5Q251 -110 251 -130Q251 -178 223 -205Q195 -232 143 -232H140Q88 -232 60 -205Q32 -178 32 -130Q32 -110 38 -85Q44 -60 63 -3Q89 76 98.5 121.5Q108 167 110 210ZM41 396Q41 438 71 468Q101 498 143 498Q185 498 214.5 468.5Q244 439 244 396Q244 354 214.5 324.5Q185 295 143 295Q101 295 71 324.5Q41 354 41 396Z" glyph-name="exclamdown" horiz-adv-x="283" unicode="&#161;" /><glyph d="M123 427 124 450H185L186 427Q188 385 197.5 339.5Q207 294 233 216Q253 158 258.5 132.5Q264 107 264 87Q264 39 236 12Q208 -15 156 -15H153Q101 -15 73 12Q45 39 45 87Q45 107 51 132Q57 157 76 214Q102 293 111.5 338.5Q121 384 123 427ZM54 613Q54 655 84 685Q114 715 156 715Q198 715 227.5 685.5Q257 656 257 613Q257 571 227.5 541.5Q198 512 156 512Q114 512 84 541.5Q54 571 54 613Z" glyph-name="exclamdown.case" horiz-adv-x="310" /><glyph d="M337 703Q296 703 273.5 675Q251 647 251 594V498H382V440H251V90Q251 74 258.5 64Q266 54 285 45L319 29V0H39V29L56 38Q72 46 80.5 59.5Q89 73 89 90V440H8V498H89V585Q89 671 142.5 720.5Q196 770 284 770Q318 770 350.5 760.5Q383 751 414 732L388 690Q374 696 361.5 699.5Q349 703 337 703Z" glyph-name="f" horiz-adv-x="392" unicode="f" /><glyph d="M319 0H39V29L56 38Q72 46 80.5 59.5Q89 73 89 90V440H8V498H89V564Q89 654 149 712Q209 770 294 770Q363 770 408 735Q453 700 453 652Q453 628 436.5 610Q420 592 397 592Q373 592 357 607Q341 622 341 646Q341 651 342.5 656Q344 661 348 672Q352 682 353.5 687Q355 692 355 696Q355 705 346.5 709.5Q338 714 322 714Q289 714 270 687Q251 660 251 611V498H382V440H251V90Q251 74 258.5 64Q266 54 285 45L319 29Z" glyph-name="f.alt" horiz-adv-x="392" /><glyph d="M319 29V0H39V29L56 38Q72 46 80.5 59.5Q89 73 89 90V440H8V498H89V554Q89 640 143 689.5Q197 739 284 739Q319 739 353 728.5Q387 718 417 699L390 657Q376 664 362 667.5Q348 671 337 671Q300 671 275.5 641.5Q251 612 251 563V498H425V564Q425 654 485 712Q545 770 630 770Q699 770 744 735Q789 700 789 652Q789 629 772 610.5Q755 592 733 592Q709 592 693 607Q677 622 677 646Q677 651 678.5 656Q680 661 684 672Q688 682 689.5 687Q691 692 691 696Q691 705 682.5 709.5Q674 714 657 714Q625 714 606 687Q587 660 587 611V498H718V440H587V90Q587 74 594.5 64Q602 54 621 45L655 29V0H375V29L392 38Q408 46 416.5 59.5Q425 73 425 90V440H251V90Q251 74 258.5 64Q266 54 285 45Z" glyph-name="f_f" horiz-adv-x="728" unicode="&#64256;" /><glyph d="M319 29V0H39V29L56 38Q72 46 80.5 59.5Q89 73 89 90V440H8V498H89V554Q89 640 143 689.5Q197 739 284 739Q319 739 353 728.5Q387 718 417 699L390 657Q376 664 362 667.5Q348 671 337 671Q300 671 275.5 641.5Q251 612 251 563V498H425V564Q425 654 485 712Q545 770 630 770Q699 770 744 735Q789 700 789 652Q789 629 772 610.5Q755 592 733 592Q709 592 693 607Q677 622 677 646Q677 651 678.5 656Q680 661 684 672Q688 682 689.5 687Q691 692 691 696Q691 705 682.5 709.5Q674 714 657 714Q625 714 606 687Q587 660 587 611V498H860Q885 504 897.5 507.5Q910 511 921 514H923V90Q923 70 931.5 57.5Q940 45 958 36L972 29V0H711V29L725 36Q743 45 751.5 57.5Q760 70 760 90V440H587V90Q587 74 594.5 64Q602 54 621 45L655 29V0H375V29L392 38Q408 46 416.5 59.5Q425 73 425 90V440H251V90Q251 74 258.5 64Q266 54 285 45Z" glyph-name="f_f_i" horiz-adv-x="989" unicode="&#64259;" /><glyph d="M319 29V0H39V29L56 38Q72 46 80.5 59.5Q89 73 89 90V440H8V498H89V554Q89 640 143 689.5Q197 739 284 739Q319 739 353 728.5Q387 718 417 699L390 657Q376 664 362 667.5Q348 671 337 671Q300 671 275.5 641.5Q251 612 251 563V498H425V564Q425 654 485 712Q545 770 630 770Q674 770 709.5 755Q745 740 766 713Q819 721 854.5 728.5Q890 736 921 744H923V90Q923 70 931.5 57.5Q940 45 958 36L972 29V0H711V29L725 36Q744 45 752.5 58Q761 71 761 90V600Q755 596 747.5 594Q740 592 733 592Q709 592 693 607Q677 622 677 646Q677 651 678.5 656Q680 661 684 672Q688 682 689.5 687Q691 692 691 696Q691 705 682.5 709.5Q674 714 658 714Q625 714 606 687Q587 660 587 611V498H718V440H587V90Q587 74 594.5 64Q602 54 621 45L655 29V0H375V29L392 38Q408 46 416.5 59.5Q425 73 425 90V440H251V90Q251 74 258.5 64Q266 54 285 45Z" glyph-name="f_f_l" horiz-adv-x="989" unicode="&#64260;" /><glyph d="M368 -236Q295 -236 249.5 -205Q204 -174 204 -123Q204 -100 221 -82Q238 -64 261 -64Q284 -64 299 -79Q314 -94 314 -117Q314 -134 304.5 -149.5Q295 -165 281 -171V-173Q293 -179 302 -180.5Q311 -182 325 -182Q361 -182 382.5 -156.5Q404 -131 404 -85V440H251V90Q251 74 258.5 64Q266 54 285 45L319 29V0H39V29L56 38Q72 46 80.5 59.5Q89 73 89 90V440H8V498H89V564Q89 654 149 712Q209 770 294 770Q363 770 408 735Q453 700 453 652Q453 628 436.5 610Q420 592 397 592Q373 592 357 607Q341 622 341 646Q341 651 342.5 656Q344 661 348 672Q352 682 353.5 687Q355 692 355 696Q355 705 346.5 709.5Q338 714 322 714Q289 714 270 687Q251 660 251 611V498H503Q528 504 540.5 507.5Q553 511 564 514H566V-39Q566 -126 508.5 -181Q451 -236 368 -236Z" glyph-name="f_j" horiz-adv-x="620" /><glyph d="M319 29V0H39V29L56 38Q72 46 80.5 59.5Q89 73 89 90V440H8V498H89V564Q89 654 149 712Q209 770 294 770Q363 770 408 735Q453 700 453 652Q453 628 436.5 610Q420 592 397 592Q373 592 357 607Q341 622 341 646Q341 651 342.5 656Q344 661 348 672Q352 682 353.5 687Q355 692 355 696Q355 705 346.5 709.5Q338 714 322 714Q289 714 270 687Q251 660 251 611V498H524Q549 504 561.5 507.5Q574 511 585 514H587V90Q587 70 595.5 57.5Q604 45 622 36L636 29V0H375V29L389 36Q408 45 416.5 58Q425 71 425 90V440H251V90Q251 74 258.5 64Q266 54 285 45Z" glyph-name="fi" horiz-adv-x="653" unicode="&#64257;" /><glyph d="M532 222Q532 175 507 128Q482 81 439 47Q400 17 351.5 1Q303 -15 247 -15Q154 -15 90.5 24.5Q27 64 27 123Q27 149 48.5 170Q70 191 99 191Q123 191 138.5 176.5Q154 162 171 113Q190 61 208 45Q226 29 254 29Q309 29 341 60.5Q373 92 373 146Q373 220 307.5 265Q242 310 111 324L64 329L103 700H511L490 558Q488 549 483 543Q478 537 471 537H138L132 479L163 477Q348 465 440 401.5Q532 338 532 222Z" glyph-name="five" horiz-adv-x="567" unicode="5" /><glyph d="M350 133Q350 77 301 34Q252 -9 179 -9Q123 -9 84.5 14.5Q46 38 46 73Q46 89 59 102Q72 115 90 115Q104 115 113 106Q122 97 133 68Q144 37 154.5 27Q165 17 182 17Q216 17 235 36Q254 55 254 88Q254 132 217 158.5Q180 185 104 194L69 198L85 420H334L325 336Q324 331 321 327Q318 323 314 323H111V287H127Q232 287 291 246.5Q350 206 350 133Z" glyph-name="five.dnom" horiz-adv-x="400" /><glyph d="M351 419Q351 363 302 320Q253 277 180 277Q124 277 85.5 300.5Q47 324 47 359Q47 375 60 388Q73 401 91 401Q105 401 114 392Q123 383 134 354Q145 323 155.5 313Q166 303 183 303Q217 303 236 322Q255 341 255 374Q255 418 218 444.5Q181 471 105 480L70 484L86 706H335L326 622Q325 617 322 613Q319 609 315 609H112V573H128Q233 573 292 532.5Q351 492 351 419Z" glyph-name="five.numr" horiz-adv-x="400" /><glyph d="M470 85Q470 42 448.5 -0.5Q427 -43 389 -74Q355 -103 311.5 -117.5Q268 -132 218 -132Q136 -132 79 -95.5Q22 -59 22 -5Q22 19 41 38.5Q60 58 87 58Q108 58 122 44.5Q136 31 151 -13Q167 -61 183 -76Q199 -91 224 -91Q273 -91 301 -62Q329 -33 329 17Q329 85 272 126Q215 167 100 180L55 185L91 524H451L433 394Q431 386 426.5 380.5Q422 375 416 375H121L115 323L142 321Q306 309 388 249.5Q470 190 470 85Z" glyph-name="five.pnum" horiz-adv-x="502" /><glyph d="M549 222Q549 175 524 128Q499 81 456 47Q417 17 368.5 1Q320 -15 264 -15Q171 -15 107.5 24.5Q44 64 44 123Q44 149 65.5 170Q87 191 116 191Q140 191 155.5 176.5Q171 162 188 113Q207 61 225 45Q243 29 271 29Q326 29 358 60.5Q390 92 390 146Q390 220 324.5 265Q259 310 128 324L81 329L120 700H528L507 558Q505 549 500 543Q495 537 488 537H155L149 479L180 477Q365 465 457 401.5Q549 338 549 222Z" glyph-name="five.tnum" horiz-adv-x="600" /><glyph d="M389 419Q389 363 340 320Q291 277 218 277Q162 277 123.5 300.5Q85 324 85 359Q85 375 98 388Q111 401 129 401Q143 401 152 392Q161 383 172 354Q183 323 193.5 313Q204 303 221 303Q255 303 274 322Q293 341 293 374Q293 418 256 444.5Q219 471 143 480L108 484L124 706H373L364 622Q363 617 360 613Q357 609 353 609H150V573H166Q271 573 330 532.5Q389 492 389 419ZM603 308Q603 359 646 394Q689 429 760 429Q824 429 862 401.5Q900 374 900 333Q900 301 875 278Q850 255 815 250V248Q868 225 892 194.5Q916 164 916 122Q916 68 869 29.5Q822 -9 747 -9Q675 -9 632.5 22Q590 53 590 105Q590 140 614 167Q638 194 676 203V204Q642 224 622.5 251Q603 278 603 308ZM823 338Q823 367 806 384.5Q789 402 761 402Q735 402 717 385.5Q699 369 699 343Q699 322 713 306Q727 290 757 276L783 264Q799 276 811 297.5Q823 319 823 338ZM668 106Q668 71 690.5 48Q713 25 750 25Q781 25 800.5 43.5Q820 62 820 91Q820 117 799 136Q778 155 715 184L704 189Q687 174 677.5 151Q668 128 668 106ZM790 700 229 0H174L735 700Z" glyph-name="fiveeights" horiz-adv-x="1000" unicode="&#8541;" /><glyph d="M350 33Q350 -23 301 -66Q252 -109 179 -109Q123 -109 84.5 -85.5Q46 -62 46 -27Q46 -11 59 2Q72 15 90 15Q104 15 113 6Q122 -3 133 -32Q144 -63 154.5 -73Q165 -83 182 -83Q216 -83 235 -64Q254 -45 254 -12Q254 32 217 58.5Q180 85 104 94L69 98L85 320H334L325 236Q324 231 321 227Q318 223 314 223H111V187H127Q232 187 291 146.5Q350 106 350 33Z" glyph-name="fiveinferior" horiz-adv-x="400" unicode="&#8325;" /><glyph d="M351 519Q351 463 302 420Q253 377 180 377Q124 377 85.5 400.5Q47 424 47 459Q47 475 60 488Q73 501 91 501Q105 501 114 492Q123 483 134 454Q145 423 155.5 413Q166 403 183 403Q217 403 236 422Q255 441 255 474Q255 518 218 544.5Q181 571 105 580L70 584L86 806H335L326 722Q325 717 322 713Q319 709 315 709H112V673H128Q233 673 292 632.5Q351 592 351 519Z" glyph-name="fivesuperior" horiz-adv-x="400" unicode="&#8309;" /><glyph d="M285 45 319 29V0H39V29L56 38Q72 46 80.5 59.5Q89 73 89 90V440H8V498H89V564Q89 654 149 712Q209 770 294 770Q338 770 373.5 755Q409 740 430 713Q483 721 518.5 728.5Q554 736 585 744H587V90Q587 70 595.5 57.5Q604 45 622 36L636 29V0H375V29L389 36Q408 45 416.5 58Q425 71 425 90V600Q419 596 411.5 594Q404 592 397 592Q373 592 357 607Q341 622 341 646Q341 651 342.5 656Q344 661 348 672Q352 682 353.5 687Q355 692 355 696Q355 705 346.5 709.5Q338 714 322 714Q289 714 270 687Q251 660 251 611V498H382V440H251V90Q251 74 258.5 64Q266 54 285 45Z" glyph-name="fl" horiz-adv-x="653" unicode="&#64258;" /><glyph d="M420 302 338 -12Q304 -142 233 -212.5Q162 -283 69 -283Q10 -283 -28 -251Q-66 -219 -66 -169Q-66 -140 -45 -118Q-24 -96 4 -96Q34 -96 54 -115.5Q74 -135 74 -166Q74 -187 61.5 -205Q49 -223 31 -229V-231H40Q83 -231 113.5 -201.5Q144 -172 158 -115L264 302H169L181 350H278L322 517Q356 648 427.5 718.5Q499 789 592 789Q651 789 689 757Q727 725 727 675Q727 646 705.5 624Q684 602 656 602Q626 602 606.5 621.5Q587 641 587 671Q587 693 599 711Q611 729 630 735V736Q584 741 551.5 711.5Q519 682 503 620L432 350H536L525 302Z" glyph-name="florin" horiz-adv-x="742" unicode="&#402;" /><glyph d="M300 258V432L476 471V260H593L583 164H476V99Q476 83 483 74Q490 65 512 57L565 36V0H214V36L266 57Q286 65 293 74Q300 83 300 99V164H23L12 224L285 715H410L83 260V258Z" glyph-name="four" horiz-adv-x="611" unicode="4" /><glyph d="M354 21V0H142V21L175 34Q188 41 191 46Q194 51 194 59V97H27L21 133L206 429H282L62 153H194V245L300 267V155H370L365 97H300V59Q300 51 303 46.5Q306 42 321 34Z" glyph-name="four.dnom" horiz-adv-x="400" /><glyph d="M354 307V286H142V307L175 320Q188 327 191 332Q194 337 194 345V383H27L21 419L206 715H282L62 439H194V531L300 553V441H370L365 383H300V345Q300 337 303 332.5Q306 328 321 320Z" glyph-name="four.numr" horiz-adv-x="400" /><glyph d="M277 -122V28H22L13 84L260 536H373L77 117V115H277V277L439 313V117H546L537 28H439V-122Z" glyph-name="four.pnum" horiz-adv-x="565" /><glyph d="M294 258V432L470 471V260H587L577 164H470V99Q470 83 477 74Q484 65 506 57L559 36V0H208V36L260 57Q280 65 287 74Q294 83 294 99V164H17L6 224L279 715H404L77 260V258Z" glyph-name="four.tnum" horiz-adv-x="600" /><glyph d="M354 -79V-100H142V-79L175 -66Q188 -59 191 -54Q194 -49 194 -41V-3H27L21 33L206 329H282L62 53H194V145L300 167V55H370L365 -3H300V-41Q300 -49 303 -53.5Q306 -58 321 -66Z" glyph-name="fourinferior" horiz-adv-x="400" unicode="&#8324;" /><glyph d="M354 407V386H142V407L175 420Q188 427 191 432Q194 437 194 445V483H27L21 519L206 815H282L62 539H194V631L300 653V541H370L365 483H300V445Q300 437 303 432.5Q306 428 321 420Z" glyph-name="foursuperior" horiz-adv-x="400" unicode="&#8308;" /><glyph d="M406 700 -155 0H-210L351 700Z" glyph-name="fraction" horiz-adv-x="200" unicode="&#8260;" /><glyph d="M270 464Q237 464 220.5 431Q204 398 204 333Q204 268 220.5 236Q237 204 270 204Q299 204 314.5 236.5Q330 269 330 333Q330 398 314.5 431Q299 464 270 464ZM116 198Q77 225 56 260Q35 295 35 333Q35 410 99 460.5Q163 511 263 511Q291 511 317.5 506Q344 501 369 491L566 501L558 398L436 452H435Q464 428 479 397Q494 366 494 331Q494 257 427 206.5Q360 156 263 156Q234 156 206 161.5Q178 167 153 177Q148 164 145.5 154Q143 144 143 134Q143 119 157 109.5Q171 100 195 98L383 84Q467 79 511 41.5Q555 4 555 -60Q555 -146 469 -203Q383 -260 248 -260Q129 -260 61.5 -226.5Q-6 -193 -7 -138Q-6 -104 20.5 -80.5Q47 -57 93 -52L132 -65Q123 -82 119.5 -92.5Q116 -103 116 -111Q116 -154 159.5 -180Q203 -206 276 -206Q333 -206 370 -184Q407 -162 407 -127Q407 -99 388.5 -84Q370 -69 330 -65L215 -57Q177 -55 148 -48Q119 -41 98 -30Q66 -13 49 14Q32 41 32 75Q32 110 55 143Q78 176 116 198Z" glyph-name="g" horiz-adv-x="563" unicode="g" /><glyph d="M270 464Q237 464 220.5 431Q204 398 204 333Q204 268 220.5 236Q237 204 270 204Q299 204 314.5 236.5Q330 269 330 333Q330 398 314.5 431Q299 464 270 464ZM116 198Q77 225 56 260Q35 295 35 333Q35 410 99 460.5Q163 511 263 511Q291 511 317.5 506Q344 501 369 491L566 501L558 398L436 452H435Q464 428 479 397Q494 366 494 331Q494 257 427 206.5Q360 156 263 156Q234 156 206 161.5Q178 167 153 177Q148 164 145.5 154Q143 144 143 134Q143 119 157 109.5Q171 100 195 98L383 84Q467 79 511 41.5Q555 4 555 -60Q555 -146 469 -203Q383 -260 248 -260Q129 -260 61.5 -226.5Q-6 -193 -7 -138Q-6 -104 20.5 -80.5Q47 -57 93 -52L132 -65Q123 -82 119.5 -92.5Q116 -103 116 -111Q116 -154 159.5 -180Q203 -206 276 -206Q333 -206 370 -184Q407 -162 407 -127Q407 -99 388.5 -84Q370 -69 330 -65L215 -57Q177 -55 148 -48Q119 -41 98 -30Q66 -13 49 14Q32 41 32 75Q32 110 55 143Q78 176 116 198ZM258 573Q188 573 150.5 610.5Q113 648 113 715V745H167V739Q167 708 189.5 693.5Q212 679 258 679Q304 679 326 693.5Q348 708 348 739V745H402V715Q402 648 364.5 610.5Q327 573 258 573Z" glyph-name="gbreve" horiz-adv-x="563" unicode="&#287;" /><glyph d="M270 464Q237 464 220.5 431Q204 398 204 333Q204 268 220.5 236Q237 204 270 204Q299 204 314.5 236.5Q330 269 330 333Q330 398 314.5 431Q299 464 270 464ZM116 198Q77 225 56 260Q35 295 35 333Q35 410 99 460.5Q163 511 263 511Q291 511 317.5 506Q344 501 369 491L566 501L558 398L436 452H435Q464 428 479 397Q494 366 494 331Q494 257 427 206.5Q360 156 263 156Q234 156 206 161.5Q178 167 153 177Q148 164 145.5 154Q143 144 143 134Q143 119 157 109.5Q171 100 195 98L383 84Q467 79 511 41.5Q555 4 555 -60Q555 -146 469 -203Q383 -260 248 -260Q129 -260 61.5 -226.5Q-6 -193 -7 -138Q-6 -104 20.5 -80.5Q47 -57 93 -52L132 -65Q123 -82 119.5 -92.5Q116 -103 116 -111Q116 -154 159.5 -180Q203 -206 276 -206Q333 -206 370 -184Q407 -162 407 -127Q407 -99 388.5 -84Q370 -69 330 -65L215 -57Q177 -55 148 -48Q119 -41 98 -30Q66 -13 49 14Q32 41 32 75Q32 110 55 143Q78 176 116 198ZM171 574H104L218 729H296L410 574H343L257 627Z" glyph-name="gcircumflex" horiz-adv-x="563" unicode="&#285;" /><glyph d="M270 464Q237 464 220.5 431Q204 398 204 333Q204 268 220.5 236Q237 204 270 204Q299 204 314.5 236.5Q330 269 330 333Q330 398 314.5 431Q299 464 270 464ZM116 198Q77 225 56 260Q35 295 35 333Q35 410 99 460.5Q163 511 263 511Q291 511 317.5 506Q344 501 369 491L566 501L558 398L436 452H435Q464 428 479 397Q494 366 494 331Q494 257 427 206.5Q360 156 263 156Q234 156 206 161.5Q178 167 153 177Q148 164 145.5 154Q143 144 143 134Q143 119 157 109.5Q171 100 195 98L383 84Q467 79 511 41.5Q555 4 555 -60Q555 -146 469 -203Q383 -260 248 -260Q129 -260 61.5 -226.5Q-6 -193 -7 -138Q-6 -104 20.5 -80.5Q47 -57 93 -52L132 -65Q123 -82 119.5 -92.5Q116 -103 116 -111Q116 -154 159.5 -180Q203 -206 276 -206Q333 -206 370 -184Q407 -162 407 -127Q407 -99 388.5 -84Q370 -69 330 -65L215 -57Q177 -55 148 -48Q119 -41 98 -30Q66 -13 49 14Q32 41 32 75Q32 110 55 143Q78 176 116 198ZM358 645Q358 609 332.5 583Q307 557 268 557Q223 557 193.5 592.5Q164 628 164 679Q164 745 207 802.5Q250 860 330 899L346 870Q298 836 271.5 801Q245 766 238 721Q247 724 256.5 726Q266 728 275 728Q309 728 333.5 703.5Q358 679 358 645Z" glyph-name="gcommaaccent" horiz-adv-x="563" unicode="&#291;" /><glyph d="M270 464Q237 464 220.5 431Q204 398 204 333Q204 268 220.5 236Q237 204 270 204Q299 204 314.5 236.5Q330 269 330 333Q330 398 314.5 431Q299 464 270 464ZM116 198Q77 225 56 260Q35 295 35 333Q35 410 99 460.5Q163 511 263 511Q291 511 317.5 506Q344 501 369 491L566 501L558 398L436 452H435Q464 428 479 397Q494 366 494 331Q494 257 427 206.5Q360 156 263 156Q234 156 206 161.5Q178 167 153 177Q148 164 145.5 154Q143 144 143 134Q143 119 157 109.5Q171 100 195 98L383 84Q467 79 511 41.5Q555 4 555 -60Q555 -146 469 -203Q383 -260 248 -260Q129 -260 61.5 -226.5Q-6 -193 -7 -138Q-6 -104 20.5 -80.5Q47 -57 93 -52L132 -65Q123 -82 119.5 -92.5Q116 -103 116 -111Q116 -154 159.5 -180Q203 -206 276 -206Q333 -206 370 -184Q407 -162 407 -127Q407 -99 388.5 -84Q370 -69 330 -65L215 -57Q177 -55 148 -48Q119 -41 98 -30Q66 -13 49 14Q32 41 32 75Q32 110 55 143Q78 176 116 198ZM341 664Q341 629 316.5 604.5Q292 580 257 580Q223 580 198.5 604.5Q174 629 174 664Q174 699 198.5 724Q223 749 257 749Q292 749 316.5 724Q341 699 341 664Z" glyph-name="gdotaccent" horiz-adv-x="563" unicode="&#289;" /><glyph d="M251 0H39V29L56 38Q72 46 80.5 59.5Q89 73 89 90V441H8V498H89V500Q89 625 158.5 695.5Q228 766 346 766Q422 766 469 724Q516 682 516 621Q516 594 507.5 565Q499 536 474 488Q460 461 456 450Q452 439 452 431Q452 419 463 401.5Q474 384 547 310Q584 272 602.5 235Q621 198 621 162Q621 90 567 37.5Q513 -15 441 -15Q383 -15 346.5 8Q310 31 310 67Q310 92 326 109.5Q342 127 364 127Q386 127 399.5 115.5Q413 104 424 70Q431 45 438 38Q445 31 455 31Q474 31 485 43.5Q496 56 496 77Q496 105 481 132Q466 159 418 211L382 251Q348 288 332.5 311.5Q317 335 317 362Q317 375 329 397.5Q341 420 380 476Q428 543 443.5 574Q459 605 459 626Q459 665 435 686.5Q411 708 369 708Q312 708 281.5 662.5Q251 617 251 536Z" glyph-name="germandbls" horiz-adv-x="638" unicode="&#223;" /><glyph d="M255 547H198L69 702H240Z" glyph-name="grave" horiz-adv-x="324" unicode="`" /><glyph d="M496 327 79 146V218L409 358L79 498V570L496 389Z" glyph-name="greater" horiz-adv-x="540" unicode="&gt;" /><glyph d="M708 359 392 74 352 110 490 315 38 308V410L490 403L352 608L392 644Z" glyph-name="greater.alt" horiz-adv-x="735" unicode="&#8594;" /><glyph d="M485 327 68 146V218L398 358L68 498V570L485 389ZM485 0H68V64H485Z" glyph-name="greaterequal" horiz-adv-x="540" unicode="&#8805;" /><glyph d="M490 71 449 46 238 278 449 510 490 485 406 278ZM281 71 240 46 29 278 240 510 281 485 198 278Z" glyph-name="guillemotleft" horiz-adv-x="537" unicode="&#171;" /><glyph d="M501 143 460 118 249 350 460 582 501 557 417 350ZM292 143 251 118 40 350 251 582 292 557 209 350Z" glyph-name="guillemotleft.case" horiz-adv-x="559" /><glyph d="M298 278 89 46 47 71 130 278 47 485 89 510ZM507 278 297 46 255 71 338 278 255 485 297 510Z" glyph-name="guillemotright" horiz-adv-x="537" unicode="&#187;" /><glyph d="M309 350 100 118 58 143 141 350 58 557 100 582ZM518 350 308 118 266 143 349 350 266 557 308 582Z" glyph-name="guillemotright.case" horiz-adv-x="559" /><glyph d="M281 71 240 46 30 278 240 510 281 485 198 278Z" glyph-name="guilsinglleft" horiz-adv-x="328" unicode="&#8249;" /><glyph d="M292 143 251 118 41 350 251 582 292 557 209 350Z" glyph-name="guilsinglleft.case" horiz-adv-x="350" /><glyph d="M298 278 88 46 47 71 130 278 47 485 88 510Z" glyph-name="guilsinglright" horiz-adv-x="328" unicode="&#8250;" /><glyph d="M309 350 99 118 58 143 141 350 58 557 99 582Z" glyph-name="guilsinglright.case" horiz-adv-x="350" /><glyph d="M223 432H225Q254 469 295.5 491Q337 513 378 513Q452 513 492.5 469.5Q533 426 533 344V90Q533 70 541.5 57.5Q550 45 568 36L582 29V0H321V29L335 36Q353 45 361.5 57.5Q370 70 370 90V327Q370 370 350.5 391.5Q331 413 294 413Q278 413 260.5 410Q243 407 228 401V90Q228 69 237 56.5Q246 44 265 37L285 29V0H16V29L30 36Q49 45 57.5 58Q66 71 66 90V646L3 676V704Q57 709 111.5 719Q166 729 226 744H228V498Q228 481 227 464.5Q226 448 223 432Z" glyph-name="h" horiz-adv-x="595" unicode="h" /><glyph d="M265 37 285 29V0H16V29L30 36Q49 45 57.5 58Q66 71 66 90V556H1V604H66V646L3 676V704Q57 709 111.5 719Q166 729 226 744H228V604H313V556H228V498Q228 481 227 464.5Q226 448 223 432H225Q254 469 295.5 491Q337 513 378 513Q452 513 492.5 469.5Q533 426 533 344V90Q533 70 541.5 57.5Q550 45 568 36L582 29V0H321V29L335 36Q353 45 361.5 57.5Q370 70 370 90V327Q370 370 350.5 391.5Q331 413 294 413Q278 413 260.5 410Q243 407 228 401V90Q228 69 237 56.5Q246 44 265 37Z" glyph-name="hbar" horiz-adv-x="595" unicode="&#295;" /><glyph d="M223 432H225Q254 469 295.5 491Q337 513 378 513Q452 513 492.5 469.5Q533 426 533 344V90Q533 70 541.5 57.5Q550 45 568 36L582 29V0H321V29L335 36Q353 45 361.5 57.5Q370 70 370 90V327Q370 370 350.5 391.5Q331 413 294 413Q278 413 260.5 410Q243 407 228 401V90Q228 69 237 56.5Q246 44 265 37L285 29V0H16V29L30 36Q49 45 57.5 58Q66 71 66 90V646L3 676V704Q57 709 111.5 719Q166 729 226 744H228V498Q228 481 227 464.5Q226 448 223 432ZM183 797H116L230 952H308L422 797H355L269 850Z" glyph-name="hcircumflex" horiz-adv-x="595" unicode="&#293;" /><glyph d="M126 547H69L84 702H255ZM327 547H270L285 702H456Z" glyph-name="hungarumlaut" horiz-adv-x="525" unicode="&#733;" /><glyph d="M259 236H49V328H259Z" glyph-name="hyphen" horiz-adv-x="308" unicode="-" /><glyph d="M265 302H55V394H265Z" glyph-name="hyphen.case" horiz-adv-x="320" /><glyph d="M246 649Q246 609 219 582Q192 555 152 555Q113 555 85.5 582.5Q58 610 58 649Q58 689 85.5 716.5Q113 744 152 744Q192 744 219 716.5Q246 689 246 649ZM76 90V416L26 446V474Q79 479 131.5 489Q184 499 236 514H238V90Q238 71 246.5 58Q255 45 274 36L288 29V0H27V29L40 36Q59 45 67.5 58Q76 71 76 90Z" glyph-name="i" horiz-adv-x="304" unicode="i" /><glyph d="M246 649Q246 609 219 582Q192 555 152 555Q113 555 85.5 582.5Q58 610 58 649Q58 689 85.5 716.5Q113 744 152 744Q192 744 219 716.5Q246 689 246 649ZM76 90V416L26 446V474Q79 479 131.5 489Q184 499 236 514H238V90Q238 71 246.5 58Q255 45 274 36L288 29V0H27V29L40 36Q59 45 67.5 58Q76 71 76 90Z" glyph-name="i.TRK" horiz-adv-x="304" /><glyph d="M76 90V416L26 446V474Q79 479 131.5 489Q184 499 236 514H238V90Q238 71 246.5 58Q255 45 274 36L288 29V0H27V29L40 36Q59 45 67.5 58Q76 71 76 90ZM166 549H109L124 704H295Z" glyph-name="iacute" horiz-adv-x="304" unicode="&#237;" /><glyph d="M76 90V416L26 446V474Q79 479 131.5 489Q184 499 236 514H238V90Q238 71 246.5 58Q255 45 274 36L288 29V0H27V29L40 36Q59 45 67.5 58Q76 71 76 90ZM138 548Q68 548 30.5 585.5Q-7 623 -7 690V720H47V714Q47 683 69.5 668.5Q92 654 138 654Q184 654 206 668.5Q228 683 228 714V720H282V690Q282 623 244.5 585.5Q207 548 138 548Z" glyph-name="ibreve" horiz-adv-x="304" unicode="&#301;" /><glyph d="M76 90V416L26 446V474Q79 479 131.5 489Q184 499 236 514H238V90Q238 71 246.5 58Q255 45 274 36L288 29V0H27V29L40 36Q59 45 67.5 58Q76 71 76 90ZM52 549H-15L99 704H177L291 549H224L138 602Z" glyph-name="icircumflex" horiz-adv-x="304" unicode="&#238;" /><glyph d="M76 90V416L26 446V474Q79 479 131.5 489Q184 499 236 514H238V90Q238 71 246.5 58Q255 45 274 36L288 29V0H27V29L40 36Q59 45 67.5 58Q76 71 76 90ZM321 636Q321 603 298.5 580Q276 557 244 557Q212 557 189.5 580Q167 603 167 636Q167 668 189.5 691Q212 714 244 714Q276 714 298.5 691Q321 668 321 636ZM122 636Q122 603 99.5 580Q77 557 45 557Q13 557 -9.5 580Q-32 603 -32 636Q-32 668 -9.5 691Q13 714 45 714Q77 714 99.5 691Q122 668 122 636Z" glyph-name="idieresis" horiz-adv-x="304" unicode="&#239;" /><glyph d="M76 90V416L26 446V474Q79 479 131.5 489Q184 499 236 514H238V90Q238 71 246.5 58Q255 45 274 36L288 29V0H27V29L40 36Q59 45 67.5 58Q76 71 76 90ZM167 549H110L-19 704H152Z" glyph-name="igrave" horiz-adv-x="304" unicode="&#236;" /><glyph d="M246 649Q246 609 219 582Q192 555 152 555Q113 555 85.5 582.5Q58 610 58 649Q58 689 85.5 716.5Q113 744 152 744Q192 744 219 716.5Q246 689 246 649ZM76 90V416L26 446V474Q79 479 131.5 489Q184 499 236 514H238V90Q238 71 246.5 58Q255 45 274 36L288 29V0H27V29L40 36Q59 45 67.5 58Q76 71 76 90ZM540 650Q540 610 513 583Q486 556 446 556Q406 556 379 583Q352 610 352 650Q352 690 379 717Q406 744 446 744Q486 744 513 717Q540 690 540 650ZM299 -180Q331 -180 350 -153Q369 -126 369 -77V416L319 446V474Q372 479 425 489Q478 499 530 514H532V-30Q532 -120 472 -178Q412 -236 326 -236Q257 -236 212 -201Q167 -166 167 -118Q167 -94 184 -76Q201 -58 224 -58Q247 -58 263.5 -73.5Q280 -89 280 -112Q280 -117 278.5 -122Q277 -127 273 -138Q269 -148 267.5 -153Q266 -158 266 -162Q266 -171 274.5 -175.5Q283 -180 299 -180Z" glyph-name="ij" horiz-adv-x="586" unicode="&#307;" /><glyph d="M76 90V416L26 446V474Q79 479 131.5 489Q184 499 236 514H238V90Q238 71 246.5 58Q255 45 274 36L288 29V0H27V29L40 36Q59 45 67.5 58Q76 71 76 90ZM293 564H-16V633H293Z" glyph-name="imacron" horiz-adv-x="304" unicode="&#299;" /><glyph d="M749 0H29V47L357 700H422L749 47ZM690 51 389 656 88 51Z" glyph-name="increment" horiz-adv-x="778" unicode="&#8710;" /><glyph d="M231 492Q170 492 135.5 455.5Q101 419 101 363Q101 311 131 274Q161 237 206 237Q232 237 258 255Q284 273 314 313Q329 335 355.5 376Q382 417 389 428Q342 464 305.5 478Q269 492 231 492ZM590 404Q574 382 547.5 341Q521 300 515 290Q560 254 597 239.5Q634 225 673 225Q733 225 767.5 262Q802 299 802 355Q802 407 772.5 443.5Q743 480 698 480Q672 480 646 462Q620 444 590 404ZM475 237Q417 162 363.5 129.5Q310 97 250 97Q154 97 98.5 172.5Q43 248 43 364Q43 470 97 544Q151 618 237 618Q295 618 344 583Q393 548 429 481Q488 556 540.5 588Q593 620 653 620Q749 620 804.5 544.5Q860 469 860 354Q860 248 806.5 174Q753 100 667 100Q609 100 560 135Q511 170 475 237Z" glyph-name="infinity" horiz-adv-x="904" unicode="&#8734;" /><glyph d="M303 351Q303 296 265.5 257.5Q228 219 174 219Q120 219 82.5 257.5Q45 296 45 351Q45 406 82.5 444.5Q120 483 174 483Q228 483 265.5 444.5Q303 406 303 351Z" glyph-name="integral" horiz-adv-x="348" unicode="&#8747;" /><glyph d="M246 649Q246 609 219 582Q192 555 152 555Q113 555 85.5 582.5Q58 610 58 649Q58 689 85.5 716.5Q113 744 152 744Q192 744 219 716.5Q246 689 246 649ZM265 -162 253 -201Q231 -209 211.5 -212.5Q192 -216 175 -216Q125 -216 94 -191Q63 -166 63 -126Q63 -93 87 -60Q111 -27 154 0H27V29L40 36Q59 45 67.5 58Q76 71 76 90V416L26 446V474Q79 479 131.5 489Q184 499 236 514H238V90Q238 71 246.5 58Q255 45 274 36L288 29V0H215Q196 -32 186 -60Q176 -88 176 -108Q176 -134 195 -148.5Q214 -163 247 -163Q254 -163 259 -162.5Q264 -162 265 -162Z" glyph-name="iogonek" horiz-adv-x="304" unicode="&#303;" /><glyph d="M76 90V416L26 446V474Q79 479 131.5 489Q184 499 236 514H238V90Q238 71 246.5 58Q255 45 274 36L288 29V0H27V29L40 36Q59 45 67.5 58Q76 71 76 90ZM60 582Q45 582 36.5 575.5Q28 569 19 550L-22 563Q-18 624 7.5 655Q33 686 80 686Q93 686 110 682.5Q127 679 161 667Q186 658 197 655.5Q208 653 216 653Q231 653 240 659.5Q249 666 257 685L298 672Q294 611 268.5 579.5Q243 548 196 548Q183 548 166.5 551.5Q150 555 117 567Q91 576 79.5 579Q68 582 60 582Z" glyph-name="itilde" horiz-adv-x="304" unicode="&#297;" /><glyph d="M236 650Q236 610 209 583Q182 556 142 556Q102 556 75 583Q48 610 48 650Q48 690 75 717Q102 744 142 744Q182 744 209 717Q236 690 236 650ZM37 -252 5 -226Q30 -222 47.5 -185Q65 -148 65 -99V416L15 446V474Q68 479 121 489Q174 499 226 514H228V-59Q228 -143 174 -196Q120 -249 37 -252Z" glyph-name="j" horiz-adv-x="282" unicode="j" /><glyph d="M236 650Q236 610 209 583Q182 556 142 556Q102 556 75 583Q48 610 48 650Q48 690 75 717Q102 744 142 744Q182 744 209 717Q236 690 236 650ZM-5 -180Q27 -180 46 -153Q65 -126 65 -77V416L15 446V474Q68 479 121 489Q174 499 226 514H228V-30Q228 -120 168 -178Q108 -236 22 -236Q-47 -236 -92 -201Q-137 -166 -137 -118Q-137 -94 -120 -76Q-103 -58 -80 -58Q-57 -58 -40.5 -73.5Q-24 -89 -24 -112Q-24 -117 -25.5 -122Q-27 -127 -31 -138Q-35 -148 -36.5 -153Q-38 -158 -38 -162Q-38 -171 -29.5 -175.5Q-21 -180 -5 -180Z" glyph-name="j.alt" horiz-adv-x="282" /><glyph d="M37 -252 5 -226Q30 -222 47.5 -185Q65 -148 65 -99V416L15 446V474Q68 479 121 489Q174 499 226 514H228V-59Q228 -143 174 -196Q120 -249 37 -252ZM36 549H-31L83 704H161L275 549H208L122 602Z" glyph-name="jcircumflex" horiz-adv-x="282" unicode="&#309;" /><glyph d="M383 39 265 251H228V90Q228 69 237 56.5Q246 44 265 37L285 29V0H16V29L30 36Q49 45 57.5 58Q66 71 66 90V646L-4 676V704Q53 710 111 720Q169 730 226 744H228V288H287L355 371Q384 406 379.5 428Q375 450 335 461L311 468V498H584V468Q574 467 564 464.5Q554 462 547 459Q524 450 494.5 429.5Q465 409 442 386L394 338L483 193Q538 105 562.5 73Q587 41 604 34L617 29V0H456Q430 0 412 9.5Q394 19 383 39Z" glyph-name="k" horiz-adv-x="604" unicode="k" /><glyph d="M383 39 265 251H228V90Q228 69 237 56.5Q246 44 265 37L285 29V0H16V29L30 36Q49 45 57.5 58Q66 71 66 90V646L-4 676V704Q53 710 111 720Q169 730 226 744H228V288H287L355 371Q384 406 379.5 428Q375 450 335 461L311 468V498H584V468Q574 467 564 464.5Q554 462 547 459Q524 450 494.5 429.5Q465 409 442 386L394 338L483 193Q538 105 562.5 73Q587 41 604 34L617 29V0H456Q430 0 412 9.5Q394 19 383 39ZM421 -173Q421 -226 388 -275.5Q355 -325 293 -364L263 -334Q291 -312 312.5 -282.5Q334 -253 347 -218Q340 -222 330.5 -224.5Q321 -227 310 -227Q275 -227 251 -202.5Q227 -178 227 -143Q227 -108 253 -81.5Q279 -55 318 -55Q362 -55 391.5 -89.5Q421 -124 421 -173Z" glyph-name="kcommaaccent" horiz-adv-x="604" unicode="&#311;" /><glyph d="M479 391 402 318 488 192Q544 112 574 76.5Q604 41 621 33L634 29V0H504Q455 0 431.5 8Q408 16 393 34Q383 47 361.5 80.5Q340 114 307 168L272 231H239V90Q239 71 247 59.5Q255 48 274 40L296 29V0H27V29L41 37Q59 45 67.5 58Q76 71 76 90V408Q76 427 67.5 440Q59 453 41 461L27 469V498H296V469L274 459Q255 450 247 438.5Q239 427 239 408V266H307L390 372Q413 404 409.5 429.5Q406 455 375 461L334 468V498H618V468Q582 462 543.5 440.5Q505 419 479 391Z" glyph-name="kgreenlandic" horiz-adv-x="629" unicode="&#312;" /><glyph d="M229 744V90Q229 70 237.5 57.5Q246 45 264 36L278 29V0H17V29L31 36Q49 45 57.5 57.5Q66 70 66 90V646L-3 676V704Q55 710 113 720Q171 730 227 744Z" glyph-name="l" horiz-adv-x="295" unicode="l" /><glyph d="M229 744V90Q229 70 237.5 57.5Q246 45 264 36L278 29V0H17V29L31 36Q49 45 57.5 57.5Q66 70 66 90V646L-3 676V704Q55 710 113 720Q171 730 227 744ZM170 799H113L128 954H299Z" glyph-name="lacute" horiz-adv-x="295" unicode="&#314;" /><glyph d="M449 582Q449 529 416 479.5Q383 430 321 391L291 421Q319 443 340.5 472.5Q362 502 375 537Q368 533 358.5 530.5Q349 528 338 528Q303 528 279 552.5Q255 577 255 612Q255 647 281 673.5Q307 700 346 700Q390 700 419.5 665.5Q449 631 449 582ZM229 744V90Q229 70 237.5 57.5Q246 45 264 36L278 29V0H17V29L31 36Q49 45 57.5 57.5Q66 70 66 90V646L-3 676V704Q55 710 113 720Q171 730 227 744Z" glyph-name="lcaron" horiz-adv-x="397" unicode="&#318;" /><glyph d="M229 744V90Q229 70 237.5 57.5Q246 45 264 36L278 29V0H17V29L31 36Q49 45 57.5 57.5Q66 70 66 90V646L-3 676V704Q55 710 113 720Q171 730 227 744ZM252 -173Q252 -226 219 -275.5Q186 -325 124 -364L94 -334Q122 -312 143.5 -282.5Q165 -253 178 -218Q171 -222 161.5 -224.5Q152 -227 141 -227Q106 -227 82 -202.5Q58 -178 58 -143Q58 -108 84 -81.5Q110 -55 149 -55Q193 -55 222.5 -89.5Q252 -124 252 -173Z" glyph-name="lcommaaccent" horiz-adv-x="295" unicode="&#316;" /><glyph d="M229 744V90Q229 70 237.5 57.5Q246 45 264 36L278 29V0H17V29L31 36Q49 45 57.5 57.5Q66 70 66 90V646L-3 676V704Q55 710 113 720Q171 730 227 744ZM470 304Q470 264 442.5 237Q415 210 375 210Q336 210 308.5 237.5Q281 265 281 304Q281 344 308.5 371.5Q336 399 375 399Q416 399 443 372Q470 345 470 304Z" glyph-name="ldot" horiz-adv-x="449" unicode="&#320;" /><glyph d="M461 218V146L44 327V389L461 570V498L131 358Z" glyph-name="less" horiz-adv-x="540" unicode="&lt;" /><glyph d="M384 110 344 74 27 359 344 644 384 608 246 403 697 410V308L246 315Z" glyph-name="less.alt" horiz-adv-x="735" unicode="&#8592;" /><glyph d="M472 218V146L55 327V389L472 570V498L142 358ZM472 0H55V64H472Z" glyph-name="lessequal" horiz-adv-x="540" unicode="&#8804;" /><glyph d="M474 247H407V406H57V468H474Z" glyph-name="logicalnot" horiz-adv-x="540" unicode="&#172;" /><glyph d="M621 -162Q603 -170 590 -170Q577 -170 559 -162Q330 -59 183.5 115.5Q37 290 37 475Q37 549 64 618Q91 687 139 737Q183 782 243.5 806Q304 830 374 830Q435 830 491.5 808Q548 786 596 744Q643 786 697.5 807Q752 828 813 828Q881 828 941 804Q1001 780 1045 734Q1093 685 1119.5 616Q1146 547 1146 473Q1146 288 998.5 114.5Q851 -59 621 -162ZM342 25Q403 -24 473 -66.5Q543 -109 581 -124Q586 -126 590 -126Q594 -126 599 -124Q638 -108 708.5 -66Q779 -24 840 24Q893 66 935.5 110.5Q978 155 1011 203Q1055 268 1078.5 337Q1102 406 1102 474Q1102 541 1077.5 602.5Q1053 664 1008 708Q967 747 917.5 767Q868 787 810 787Q751 787 695.5 765Q640 743 592 700Q541 744 485.5 766Q430 788 371 788Q315 788 265.5 768Q216 748 176 710Q131 666 106 603.5Q81 541 81 473Q81 406 104 337Q127 268 171 205Q204 156 247 111Q290 66 342 25ZM360 522Q360 512 368 504Q376 496 386 496Q391 496 395.5 498Q400 500 403 504Q409 510 410 519Q411 528 407 538L344 697Q341 704 334 707Q327 710 320 707Q313 704 310 697Q307 690 310 683L344 597L246 575Q239 574 234.5 567.5Q230 561 232 553Q233 546 239.5 541.5Q246 537 254 539L358 562L367 540Q363 536 361.5 531.5Q360 527 360 522ZM844 515Q858 511 872.5 513Q887 515 899 522Q924 535 933.5 561.5Q943 588 931 611L898 678Q895 685 887.5 687Q880 689 873 686L738 612Q731 608 729 601Q727 594 731 587Q735 580 742 578Q749 576 756 580L783 595L809 545Q814 535 823.5 527Q833 519 844 515ZM413 655Q413 641 422.5 631.5Q432 622 445 622Q458 622 467.5 631.5Q477 641 477 654Q477 668 468 677.5Q459 687 445 687Q431 687 422 677.5Q413 668 413 655ZM685 521Q664 514 639.5 510Q615 506 590 506Q566 506 542.5 509.5Q519 513 498 520Q522 561 545 593.5Q568 626 592 650Q614 628 636.5 596Q659 564 685 521ZM882 553Q870 547 858.5 549Q847 551 841 561L815 613L874 645L899 595Q905 584 899.5 572Q894 560 882 553ZM891 301Q898 304 901 311Q904 318 901 324L861 414L894 429L909 396Q912 389 919 386.5Q926 384 933 387Q940 390 942.5 397Q945 404 942 411L927 445L958 460L990 388Q993 381 1000 378.5Q1007 376 1014 379Q1021 382 1023.5 389Q1026 396 1023 403L983 492Q982 496 979.5 498.5Q977 501 973 502Q970 503 966 502.5Q962 502 959 501L830 439Q823 435 820.5 428.5Q818 422 821 415L868 310Q871 303 877.5 300.5Q884 298 891 301ZM462 90Q464 85 468.5 82Q473 79 479 79H720Q728 79 733.5 84Q739 89 739 97Q739 105 734 110Q729 115 721 115H542Q637 165 676 210Q715 255 715 304Q715 356 681 392Q647 428 592 428Q536 428 498.5 395Q461 362 461 312Q461 275 486 247Q511 219 548 219Q581 219 603.5 239Q626 259 626 292Q626 313 615.5 324.5Q605 336 590 336Q576 336 566.5 326.5Q557 317 557 304Q557 296 561 289Q565 282 572 277Q576 273 569 264Q562 255 546 255Q526 255 512.5 272.5Q499 290 499 313Q499 349 524 371Q549 393 590 393Q628 393 651.5 368Q675 343 675 305Q675 270 649.5 237Q624 204 566 166Q550 156 531.5 145.5Q513 135 485 121Q474 115 470.5 113Q467 111 466 110Q462 105 461 100Q460 95 462 90ZM178 350Q186 348 192.5 351.5Q199 355 201 362L218 412L332 372Q339 369 346 372Q353 375 355 383Q358 390 354.5 397Q351 404 344 406L229 447L244 494Q246 502 242.5 508.5Q239 515 232 517Q225 519 218 515.5Q211 512 209 505L166 373Q164 366 167.5 359Q171 352 178 350ZM817 53Q765 11 704.5 -26.5Q644 -64 590 -90Q539 -66 478 -27Q417 12 364 54Q313 95 272 138Q231 181 201 226Q161 284 139.5 348Q118 412 118 474Q118 535 140 590Q162 645 202 684Q237 718 280.5 735Q324 752 374 752Q424 752 472.5 732.5Q521 713 566 675Q539 646 514 612.5Q489 579 467 540Q429 474 397.5 392Q366 310 344 221L294 231Q287 233 280.5 229Q274 225 273 218Q271 211 275.5 205Q280 199 287 198L422 169Q429 168 434.5 171.5Q440 175 442 182Q443 189 439.5 195Q436 201 429 203L381 213Q400 289 425.5 358.5Q451 428 481 487Q507 478 534.5 473Q562 468 590 468Q619 468 647.5 473Q676 478 702 488Q732 428 757.5 356Q783 284 800 212L752 202Q745 201 741 195Q737 189 738 182Q739 175 745.5 170.5Q752 166 759 168L894 196Q901 198 904.5 203.5Q908 209 907 216Q906 223 900 227.5Q894 232 887 230L838 220Q838 221 837.5 222Q837 223 837 223Q814 314 783 395.5Q752 477 714 543Q692 582 668.5 615Q645 648 619 674Q663 712 711.5 731.5Q760 751 810 751Q861 751 904.5 733.5Q948 716 982 682Q1021 643 1043 588.5Q1065 534 1065 473Q1065 411 1043.5 348Q1022 285 981 223Q950 179 909 136.5Q868 94 817 53ZM558 3Q558 -11 567.5 -20.5Q577 -30 590 -30Q603 -30 612.5 -20.5Q622 -11 622 2Q622 16 613 25.5Q604 35 590 35Q576 35 567 25.5Q558 16 558 3Z" glyph-name="logo" horiz-adv-x="1184" /><glyph d="M89 90V441H8V498H89V573Q89 660 147 715Q205 770 288 770Q360 770 405.5 739Q451 708 451 657Q451 634 434 616Q417 598 394 598Q371 598 356 613Q341 628 341 651Q341 668 350 683.5Q359 699 373 705V707Q363 712 352.5 714Q342 716 330 716Q294 716 272.5 690.5Q251 665 251 619V90Q251 74 258.5 64Q266 54 285 45L319 29V0H39V29L56 38Q72 46 80.5 59.5Q89 73 89 90Z" glyph-name="longs" horiz-adv-x="345" unicode="&#383;" /><glyph d="M820 350 411 -66 3 350 411 767Z" glyph-name="lozenge" horiz-adv-x="823" unicode="&#9674;" /><glyph d="M284 29V0H23V29L37 36Q55 45 63.5 57.5Q72 70 72 90V241L0 205V268L72 304V646L3 676V704Q61 710 119 720Q177 730 233 744H235V387L307 423V360L235 324V90Q235 70 243.5 57.5Q252 45 270 36Z" glyph-name="lslash" horiz-adv-x="306" unicode="&#322;" /><glyph d="M666 90V322Q666 365 645.5 389Q625 413 590 413Q571 413 557 409.5Q543 406 534 400Q537 377 538 364Q539 351 539 341V90Q539 71 547.5 58Q556 45 575 36L589 29V0H328V29L342 36Q360 45 368.5 58Q377 71 377 90V313Q377 362 356.5 387.5Q336 413 297 413Q283 413 266 409.5Q249 406 238 401V90Q238 70 246.5 57.5Q255 45 273 36L284 29V0H26V29L40 36Q58 45 66.5 57.5Q75 70 75 90V416L25 446V474Q78 479 131 489Q184 499 236 514H238L233 432H235Q261 471 301 492Q341 513 388 513Q435 513 472.5 488.5Q510 464 525 423Q547 463 589 488Q631 513 673 513Q747 513 788 470Q829 427 829 347V90Q829 70 837.5 57.5Q846 45 864 36L878 29V0H617V29L631 36Q649 45 657.5 57.5Q666 70 666 90Z" glyph-name="m" horiz-adv-x="891" unicode="m" /><glyph d="M372 584H63V653H372Z" glyph-name="macron" horiz-adv-x="435" unicode="&#175;" /><glyph d="M478 327H61V389H478Z" glyph-name="minus" horiz-adv-x="540" unicode="&#8722;" /><glyph d="M236 -15Q204 -15 178 -5.5Q152 4 133 23V-166H88V416L38 446V474Q91 479 143.5 489Q196 499 248 514H250V148Q250 118 267.5 101Q285 84 315 84Q326 84 339 87Q352 90 378 100V416L328 446V474Q381 479 433.5 489Q486 499 538 514H540V69L592 36V8Q530 4 480 -1.5Q430 -7 378 -15L381 65H379Q347 25 311 5Q275 -15 236 -15Z" glyph-name="mu" horiz-adv-x="633" unicode="&#181;" /><glyph d="M269 314 109 153 65 198 224 358 65 518 110 563 269 402 431 563 475 518 313 358 474 198 429 153Z" glyph-name="multiply" horiz-adv-x="540" unicode="&#215;" /><glyph d="M294 29V0H26V29L40 36Q58 45 66.5 57.5Q75 70 75 90V416L25 446V474Q78 479 131 489Q184 499 236 514H238L233 432H235Q263 468 305 490.5Q347 513 388 513Q462 513 502 469.5Q542 426 542 344V90Q542 71 550.5 58Q559 45 578 36L592 29V0H331V29L344 36Q363 45 371.5 58Q380 71 380 90V327Q380 369 360.5 391Q341 413 304 413Q287 413 269.5 409.5Q252 406 238 401V90Q238 69 246.5 56.5Q255 44 274 37Z" glyph-name="n" horiz-adv-x="605" unicode="n" /><glyph d="M294 29V0H26V29L40 36Q58 45 66.5 57.5Q75 70 75 90V416L25 446V474Q78 479 131 489Q184 499 236 514H238L233 432H235Q263 468 305 490.5Q347 513 388 513Q462 513 502 469.5Q542 426 542 344V90Q542 71 550.5 58Q559 45 578 36L592 29V0H331V29L344 36Q363 45 371.5 58Q380 71 380 90V327Q380 369 360.5 391Q341 413 304 413Q287 413 269.5 409.5Q252 406 238 401V90Q238 69 246.5 56.5Q255 44 274 37ZM327 584H270L285 739H456Z" glyph-name="nacute" horiz-adv-x="605" unicode="&#324;" /><glyph d="M449 29V0H181V29L195 36Q213 45 221.5 57.5Q230 70 230 90V416L180 446V474Q233 479 286 489Q339 499 391 514H393L388 432H390Q418 468 460 490.5Q502 513 543 513Q617 513 657 469.5Q697 426 697 344V90Q697 71 705.5 58Q714 45 733 36L747 29V0H486V29L499 36Q518 45 526.5 58Q535 71 535 90V327Q535 369 515.5 391Q496 413 459 413Q442 413 424.5 409.5Q407 406 393 401V90Q393 69 401.5 56.5Q410 44 429 37ZM203 621Q203 568 170 518.5Q137 469 75 430L45 460Q73 482 94.5 511.5Q116 541 129 576Q122 572 112.5 569.5Q103 567 92 567Q57 567 33 591.5Q9 616 9 651Q9 686 35 712.5Q61 739 100 739Q144 739 173.5 704.5Q203 670 203 621Z" glyph-name="napostrophe" horiz-adv-x="760" unicode="&#329;" /><glyph d="M294 29V0H26V29L40 36Q58 45 66.5 57.5Q75 70 75 90V416L25 446V474Q78 479 131 489Q184 499 236 514H238L233 432H235Q263 468 305 490.5Q347 513 388 513Q462 513 502 469.5Q542 426 542 344V90Q542 71 550.5 58Q559 45 578 36L592 29V0H331V29L344 36Q363 45 371.5 58Q380 71 380 90V327Q380 369 360.5 391Q341 413 304 413Q287 413 269.5 409.5Q252 406 238 401V90Q238 69 246.5 56.5Q255 44 274 37ZM260 584 146 739H213L299 686L385 739H452L338 584Z" glyph-name="ncaron" horiz-adv-x="605" unicode="&#328;" /><glyph d="M294 29V0H26V29L40 36Q58 45 66.5 57.5Q75 70 75 90V416L25 446V474Q78 479 131 489Q184 499 236 514H238L233 432H235Q263 468 305 490.5Q347 513 388 513Q462 513 502 469.5Q542 426 542 344V90Q542 71 550.5 58Q559 45 578 36L592 29V0H331V29L344 36Q363 45 371.5 58Q380 71 380 90V327Q380 369 360.5 391Q341 413 304 413Q287 413 269.5 409.5Q252 406 238 401V90Q238 69 246.5 56.5Q255 44 274 37ZM403 -163Q403 -216 370 -265.5Q337 -315 275 -354L245 -324Q273 -302 294.5 -272.5Q316 -243 329 -208Q322 -212 312.5 -214.5Q303 -217 292 -217Q257 -217 233 -192.5Q209 -168 209 -133Q209 -98 235 -71.5Q261 -45 300 -45Q344 -45 373.5 -79.5Q403 -114 403 -163Z" glyph-name="ncommaaccent" horiz-adv-x="605" unicode="&#326;" /><glyph d="M431 126Q367 68 286 29.5Q205 -9 117 -23L104 -2Q203 59 261 125.5Q319 192 349 274Q326 267 300.5 263.5Q275 260 249 260Q155 260 88 319.5Q21 379 21 469Q21 572 95.5 644Q170 716 291 716Q418 716 498.5 636.5Q579 557 579 432Q579 350 540.5 270.5Q502 191 431 126ZM288 670Q250 670 229 630.5Q208 591 208 520Q208 438 251 379.5Q294 321 362 316Q371 352 376 391.5Q381 431 381 472Q381 569 357.5 619.5Q334 670 288 670Z" glyph-name="nine" horiz-adv-x="614" unicode="9" /><glyph d="M363 259Q363 163 282.5 84Q202 5 86 -14L78 -2Q135 32 170 72Q205 112 223 161Q212 158 197 156.5Q182 155 165 155Q109 155 68.5 191Q28 227 28 281Q28 346 71.5 387.5Q115 429 191 429Q268 429 315.5 382Q363 335 363 259ZM188 402Q166 402 153.5 378Q141 354 141 311Q141 265 168 230.5Q195 196 234 196Q239 218 241.5 240Q244 262 244 284Q244 342 230 372Q216 402 188 402Z" glyph-name="nine.dnom" horiz-adv-x="400" /><glyph d="M363 545Q363 449 282.5 370Q202 291 86 272L78 284Q135 318 170 358Q205 398 223 447Q212 444 197 442.5Q182 441 165 441Q109 441 68.5 477Q28 513 28 567Q28 632 71.5 673.5Q115 715 191 715Q268 715 315.5 668Q363 621 363 545ZM188 688Q166 688 153.5 664Q141 640 141 597Q141 551 168 516.5Q195 482 234 482Q239 504 241.5 526Q244 548 244 570Q244 628 230 658Q216 688 188 688Z" glyph-name="nine.numr" horiz-adv-x="400" /><glyph d="M515 277Q515 130 396 8.5Q277 -113 106 -141L94 -122Q179 -68 231 -6.5Q283 55 309 131Q290 125 270 122Q250 119 231 119Q141 119 80 173Q19 227 19 311Q19 408 85 473.5Q151 539 260 539Q373 539 444 466Q515 393 515 277ZM256 497Q223 497 205 461Q187 425 187 359Q187 283 224 229Q261 175 321 170Q330 203 334 239Q338 275 338 314Q338 404 317 450.5Q296 497 256 497Z" glyph-name="nine.pnum" horiz-adv-x="546" /><glyph d="M424 126Q360 68 279 29.5Q198 -9 110 -23L97 -2Q196 59 254 125.5Q312 192 342 274Q319 267 293.5 263.5Q268 260 242 260Q148 260 81 319.5Q14 379 14 469Q14 572 88.5 644Q163 716 284 716Q411 716 491.5 636.5Q572 557 572 432Q572 350 533.5 270.5Q495 191 424 126ZM281 670Q243 670 222 630.5Q201 591 201 520Q201 438 244 379.5Q287 321 355 316Q364 352 369 391.5Q374 431 374 472Q374 569 350.5 619.5Q327 670 281 670Z" glyph-name="nine.tnum" horiz-adv-x="600" /><glyph d="M363 159Q363 63 282.5 -16Q202 -95 86 -114L78 -102Q135 -68 170 -28Q205 12 223 61Q212 58 197 56.5Q182 55 165 55Q109 55 68.5 91Q28 127 28 181Q28 246 71.5 287.5Q115 329 191 329Q268 329 315.5 282Q363 235 363 159ZM188 302Q166 302 153.5 278Q141 254 141 211Q141 165 168 130.5Q195 96 234 96Q239 118 241.5 140Q244 162 244 184Q244 242 230 272Q216 302 188 302Z" glyph-name="nineinferior" horiz-adv-x="400" unicode="&#8329;" /><glyph d="M363 645Q363 549 282.5 470Q202 391 86 372L78 384Q135 418 170 458Q205 498 223 547Q212 544 197 542.5Q182 541 165 541Q109 541 68.5 577Q28 613 28 667Q28 732 71.5 773.5Q115 815 191 815Q268 815 315.5 768Q363 721 363 645ZM188 788Q166 788 153.5 764Q141 740 141 697Q141 651 168 616.5Q195 582 234 582Q239 604 241.5 626Q244 648 244 670Q244 728 230 758Q216 788 188 788Z" glyph-name="ninesuperior" horiz-adv-x="400" unicode="&#8313;" /><glyph d="M478 291V227H254L215 136L158 161L186 227H61V291H213L269 424H61V488H296L335 579L392 554L364 488H478V424H337L281 291Z" glyph-name="notequal" horiz-adv-x="540" unicode="&#8800;" /><glyph d="M294 29V0H26V29L40 36Q58 45 66.5 57.5Q75 70 75 90V416L25 446V474Q78 479 131 489Q184 499 236 514H238L233 432H235Q263 468 305 490.5Q347 513 388 513Q462 513 502 469.5Q542 426 542 344V90Q542 71 550.5 58Q559 45 578 36L592 29V0H331V29L344 36Q363 45 371.5 58Q380 71 380 90V327Q380 369 360.5 391Q341 413 304 413Q287 413 269.5 409.5Q252 406 238 401V90Q238 69 246.5 56.5Q255 44 274 37ZM221 617Q206 617 197.5 610.5Q189 604 180 585L139 598Q143 659 168.5 690Q194 721 241 721Q254 721 271 717.5Q288 714 322 702Q347 693 358 690.5Q369 688 377 688Q392 688 401 694.5Q410 701 418 720L459 707Q455 646 429.5 614.5Q404 583 357 583Q344 583 327.5 586.5Q311 590 278 602Q252 611 240.5 614Q229 617 221 617Z" glyph-name="ntilde" horiz-adv-x="605" unicode="&#241;" /><glyph d="M233 424V291H380V424ZM233 0H167V227H38V291H167V424H38V488H167V700H233V488H380V700H448V488H576V424H448V291H576V227H448V0H380V227H233Z" glyph-name="numbersign" horiz-adv-x="614" unicode="#" /><glyph d="M282 513Q391 513 468 435.5Q545 358 545 248Q545 140 467.5 62.5Q390 -15 282 -15Q174 -15 97.5 62.5Q21 140 21 248Q21 358 97.5 435.5Q174 513 282 513ZM282 472Q240 472 218.5 415Q197 358 197 248Q197 140 218.5 83.5Q240 27 282 27Q325 27 347 83Q369 139 369 248Q369 358 347 415Q325 472 282 472Z" glyph-name="o" horiz-adv-x="566" unicode="o" /><glyph d="M282 513Q391 513 468 435.5Q545 358 545 248Q545 140 467.5 62.5Q390 -15 282 -15Q174 -15 97.5 62.5Q21 140 21 248Q21 358 97.5 435.5Q174 513 282 513ZM282 472Q240 472 218.5 415Q197 358 197 248Q197 140 218.5 83.5Q240 27 282 27Q325 27 347 83Q369 139 369 248Q369 358 347 415Q325 472 282 472ZM311 574H254L269 729H440Z" glyph-name="oacute" horiz-adv-x="566" unicode="&#243;" /><glyph d="M282 513Q391 513 468 435.5Q545 358 545 248Q545 140 467.5 62.5Q390 -15 282 -15Q174 -15 97.5 62.5Q21 140 21 248Q21 358 97.5 435.5Q174 513 282 513ZM282 472Q240 472 218.5 415Q197 358 197 248Q197 140 218.5 83.5Q240 27 282 27Q325 27 347 83Q369 139 369 248Q369 358 347 415Q325 472 282 472ZM283 573Q213 573 175.5 610.5Q138 648 138 715V745H192V739Q192 708 214.5 693.5Q237 679 283 679Q329 679 351 693.5Q373 708 373 739V745H427V715Q427 648 389.5 610.5Q352 573 283 573Z" glyph-name="obreve" horiz-adv-x="566" unicode="&#335;" /><glyph d="M282 513Q391 513 468 435.5Q545 358 545 248Q545 140 467.5 62.5Q390 -15 282 -15Q174 -15 97.5 62.5Q21 140 21 248Q21 358 97.5 435.5Q174 513 282 513ZM282 472Q240 472 218.5 415Q197 358 197 248Q197 140 218.5 83.5Q240 27 282 27Q325 27 347 83Q369 139 369 248Q369 358 347 415Q325 472 282 472ZM196 574H129L243 729H321L435 574H368L282 627Z" glyph-name="ocircumflex" horiz-adv-x="566" unicode="&#244;" /><glyph d="M282 513Q391 513 468 435.5Q545 358 545 248Q545 140 467.5 62.5Q390 -15 282 -15Q174 -15 97.5 62.5Q21 140 21 248Q21 358 97.5 435.5Q174 513 282 513ZM282 472Q240 472 218.5 415Q197 358 197 248Q197 140 218.5 83.5Q240 27 282 27Q325 27 347 83Q369 139 369 248Q369 358 347 415Q325 472 282 472ZM465 661Q465 628 442.5 605Q420 582 388 582Q356 582 333.5 605Q311 628 311 661Q311 693 333.5 716Q356 739 388 739Q420 739 442.5 716Q465 693 465 661ZM266 661Q266 628 243.5 605Q221 582 189 582Q157 582 134.5 605Q112 628 112 661Q112 693 134.5 716Q157 739 189 739Q221 739 243.5 716Q266 693 266 661Z" glyph-name="odieresis" horiz-adv-x="566" unicode="&#246;" /><glyph d="M619 -15Q571 -15 528 0.5Q485 16 452 45Q416 16 372.5 0.5Q329 -15 282 -15Q174 -15 97.5 62Q21 139 21 248Q21 358 97.5 435.5Q174 513 282 513Q329 513 373 497Q417 481 453 450Q485 481 528.5 497Q572 513 623 513Q719 513 779 453Q839 393 839 297V272H545V263Q545 184 585 140.5Q625 97 691 97Q731 97 760.5 109.5Q790 122 810 148L834 139Q811 64 755.5 24.5Q700 -15 619 -15ZM624 474Q586 474 566.5 434Q547 394 546 314L685 317Q691 393 675 433.5Q659 474 624 474ZM282 472Q240 472 218.5 415Q197 358 197 248Q197 140 218.5 83.5Q240 27 282 27Q325 27 347 83Q369 139 369 248Q369 358 347 415Q325 472 282 472Z" glyph-name="oe" horiz-adv-x="860" unicode="&#339;" /><glyph d="M248 -163Q255 -163 260 -162.5Q265 -162 266 -162L254 -201Q232 -209 212.5 -212.5Q193 -216 176 -216Q126 -216 95 -191Q64 -166 64 -126Q64 -81 105.5 -39Q147 3 210 27L228 21Q204 -18 190.5 -51.5Q177 -85 177 -108Q177 -134 196 -148.5Q215 -163 248 -163Z" glyph-name="ogonek" horiz-adv-x="287" unicode="&#731;" /><glyph d="M282 513Q391 513 468 435.5Q545 358 545 248Q545 140 467.5 62.5Q390 -15 282 -15Q174 -15 97.5 62.5Q21 140 21 248Q21 358 97.5 435.5Q174 513 282 513ZM282 472Q240 472 218.5 415Q197 358 197 248Q197 140 218.5 83.5Q240 27 282 27Q325 27 347 83Q369 139 369 248Q369 358 347 415Q325 472 282 472ZM311 574H254L125 729H296Z" glyph-name="ograve" horiz-adv-x="566" unicode="&#242;" /><glyph d="M282 513Q391 513 468 435.5Q545 358 545 248Q545 140 467.5 62.5Q390 -15 282 -15Q174 -15 97.5 62.5Q21 140 21 248Q21 358 97.5 435.5Q174 513 282 513ZM282 472Q240 472 218.5 415Q197 358 197 248Q197 140 218.5 83.5Q240 27 282 27Q325 27 347 83Q369 139 369 248Q369 358 347 415Q325 472 282 472ZM206 574H149L164 729H335ZM407 574H350L365 729H536Z" glyph-name="ohungarumlaut" horiz-adv-x="566" unicode="&#337;" /><glyph d="M282 513Q391 513 468 435.5Q545 358 545 248Q545 140 467.5 62.5Q390 -15 282 -15Q174 -15 97.5 62.5Q21 140 21 248Q21 358 97.5 435.5Q174 513 282 513ZM282 472Q240 472 218.5 415Q197 358 197 248Q197 140 218.5 83.5Q240 27 282 27Q325 27 347 83Q369 139 369 248Q369 358 347 415Q325 472 282 472ZM437 589H128V658H437Z" glyph-name="omacron" horiz-adv-x="566" unicode="&#333;" /><glyph d="M442 52V0H37V52L93 57Q122 59 134 72.5Q146 86 146 122V579L40 567V615L285 707H332V122Q332 87 344 73.5Q356 60 385 57Z" glyph-name="one" horiz-adv-x="457" unicode="1" /><glyph d="M329 31V0H85V31L118 34Q136 36 143 43.5Q150 51 150 72V347L85 343V369L234 424H262V72Q262 52 269 44Q276 36 293 34Z" glyph-name="one.dnom" horiz-adv-x="400" /><glyph d="M329 317V286H85V317L118 320Q136 322 143 329.5Q150 337 150 358V633L85 629V655L234 710H262V358Q262 338 269 330Q276 322 293 320Z" glyph-name="one.numr" horiz-adv-x="400" /><glyph d="M353 36V0H41V36L74 46Q101 53 110 64Q119 75 119 104V428L34 415V447L235 533H276V104Q276 75 285 64Q294 53 321 46Z" glyph-name="one.pnum" horiz-adv-x="380" /><glyph d="M514 52V0H109V52L165 57Q194 59 206 72.5Q218 86 218 122V579L112 567V615L357 707H404V122Q404 87 416 73.5Q428 60 457 57Z" glyph-name="one.tnum" horiz-adv-x="600" /><glyph d="M320 317V286H76V317L109 320Q127 322 134 329.5Q141 337 141 358V633L76 629V655L225 710H253V358Q253 338 260 330Q267 322 284 320ZM611 308Q611 359 654 394Q697 429 768 429Q832 429 870 401.5Q908 374 908 333Q908 301 883 278Q858 255 823 250V248Q876 225 900 194.5Q924 164 924 122Q924 68 877 29.5Q830 -9 755 -9Q683 -9 640.5 22Q598 53 598 105Q598 140 622 167Q646 194 684 203V204Q650 224 630.5 251Q611 278 611 308ZM831 338Q831 367 814 384.5Q797 402 769 402Q743 402 725 385.5Q707 369 707 343Q707 322 721 306Q735 290 765 276L791 264Q807 276 819 297.5Q831 319 831 338ZM676 106Q676 71 698.5 48Q721 25 758 25Q789 25 808.5 43.5Q828 62 828 91Q828 117 807 136Q786 155 723 184L712 189Q695 174 685.5 151Q676 128 676 106ZM798 700 237 0H182L743 700Z" glyph-name="oneeight" horiz-adv-x="999" unicode="&#8539;" /><glyph d="M912 94 897 0H602V27L668 87Q728 142 755 188Q782 234 782 280Q782 314 760.5 335.5Q739 357 709 357Q683 357 660.5 342Q638 327 627 302L602 312Q620 366 663.5 397.5Q707 429 759 429Q822 429 860 395.5Q898 362 898 308Q898 265 864.5 220.5Q831 176 751 117L714 94ZM809 700 248 0H193L754 700ZM331 317V286H87V317L120 320Q138 322 145 329.5Q152 337 152 358V633L87 629V655L236 710H264V358Q264 338 271 330Q278 322 295 320Z" glyph-name="onehalf" horiz-adv-x="999" unicode="&#189;" /><glyph d="M329 -69V-100H85V-69L118 -66Q136 -64 143 -56.5Q150 -49 150 -28V247L85 243V269L234 324H262V-28Q262 -48 269 -56Q276 -64 293 -66Z" glyph-name="oneinferior" horiz-adv-x="400" unicode="&#8321;" /><glyph d="M811 700 250 0H195L756 700ZM897 21V0H685V21L718 34Q731 41 734 46Q737 51 737 59V97H570L564 133L749 429H825L605 153H737V245L843 267V155H913L908 97H843V59Q843 51 846 46.5Q849 42 864 34ZM331 317V286H87V317L120 320Q138 322 145 329.5Q152 337 152 358V633L87 629V655L236 710H264V358Q264 338 271 330Q278 322 295 320Z" glyph-name="onequarter" horiz-adv-x="1000" unicode="&#188;" /><glyph d="M329 417V386H85V417L118 420Q136 422 143 429.5Q150 437 150 458V733L85 729V755L234 810H262V458Q262 438 269 430Q276 422 293 420Z" glyph-name="onesuperior" horiz-adv-x="400" unicode="&#185;" /><glyph d="M911 122Q911 64 865 27.5Q819 -9 741 -9Q686 -9 647 14.5Q608 38 608 73Q608 89 621.5 102Q635 115 652 115Q666 115 675.5 106Q685 97 695 68Q705 37 716 27Q727 17 743 17Q772 17 791 36.5Q810 56 810 84Q810 112 789 137.5Q768 163 707 201L706 211L724 221Q764 243 782.5 265.5Q801 288 801 315Q801 341 782 357.5Q763 374 733 374Q705 374 683.5 363Q662 352 634 321L617 332Q632 371 676 400Q720 429 775 429Q830 429 864 402Q898 375 898 335Q898 304 878.5 281.5Q859 259 821 247L812 244Q857 226 884 193.5Q911 161 911 122ZM811 700 250 0H195L756 700ZM333 317V286H89V317L122 320Q140 322 147 329.5Q154 337 154 358V633L89 629V655L238 710H266V358Q266 338 273 330Q280 322 297 320Z" glyph-name="onethird" horiz-adv-x="1000" unicode="&#8531;" /><glyph d="M114 498Q90 498 74 514.5Q58 531 58 557Q58 586 79.5 618Q101 650 137 674Q167 694 202.5 704.5Q238 715 276 715Q359 715 408 662.5Q457 610 457 516V299Q457 279 465.5 269.5Q474 260 491 260Q496 260 505 261.5Q514 263 518 265L522 238Q503 214 470 200.5Q437 187 401 187Q365 187 339.5 201.5Q314 216 303 242H301Q281 218 246.5 202.5Q212 187 174 187Q111 188 72.5 225Q34 262 34 317Q34 366 65 400Q96 434 154 449L295 487V517Q295 574 269 605Q243 636 197 636Q170 636 148 625.5Q126 615 125 603Q125 598 128 594.5Q131 591 141 584Q155 575 160 567.5Q165 560 165 550Q165 527 151 512.5Q137 498 114 498ZM196 354Q196 318 217.5 295Q239 272 272 272Q278 272 284 273Q290 274 295 275V453L247 430Q221 418 208.5 399Q196 380 196 354Z" glyph-name="ordfeminine" horiz-adv-x="548" unicode="&#170;" /><glyph d="M294 716Q403 716 480 638.5Q557 561 557 451Q557 342 480 264.5Q403 187 294 187Q186 187 109.5 264.5Q33 342 33 451Q33 561 109.5 638.5Q186 716 294 716ZM294 675Q252 675 229.5 617.5Q207 560 207 451Q207 343 229.5 285.5Q252 228 294 228Q337 228 359.5 285Q382 342 382 451Q382 560 359.5 617.5Q337 675 294 675Z" glyph-name="ordmasculine" horiz-adv-x="590" unicode="&#186;" /><glyph d="M637 251Q637 142 558.5 63.5Q480 -15 370 -15Q228 -15 134.5 83Q41 181 41 336Q41 493 151.5 604Q262 715 419 715Q469 715 517.5 703Q566 691 608 668L599 653Q560 675 514 686.5Q468 698 420 698Q272 698 166.5 591.5Q61 485 61 336Q61 264 85.5 199.5Q110 135 155 86L157 88Q131 124 117 166Q103 208 103 251Q103 361 181.5 439Q260 517 371 517Q481 517 559 439Q637 361 637 251Z" glyph-name="orn.1" horiz-adv-x="675" /><glyph d="M633 364Q633 207 522.5 96Q412 -15 255 -15Q205 -15 156.5 -3Q108 9 66 32L75 47Q114 25 160 13.5Q206 2 254 2Q402 2 507.5 108.5Q613 215 613 364Q613 436 588.5 500.5Q564 565 519 614L517 612Q543 576 557 534Q571 492 571 449Q571 339 492.5 261Q414 183 303 183Q193 183 115 261Q37 339 37 449Q37 558 115.5 636.5Q194 715 304 715Q446 715 539.5 617Q633 519 633 364Z" glyph-name="orn.2" horiz-adv-x="675" /><glyph d="M674 721Q762 721 813.5 661Q865 601 865 501Q865 450 845.5 395Q826 340 786 283Q757 240 718 195.5Q679 151 630 107Q582 63 535.5 27Q489 -9 444 -37Q400 -9 354.5 27.5Q309 64 262 108Q215 153 176.5 197Q138 241 110 284Q73 342 54 396Q35 450 35 501Q35 601 87.5 661Q140 721 228 721Q313 721 362 669.5Q411 618 411 529H489Q489 617 539.5 669Q590 721 674 721Z" glyph-name="orn.3" horiz-adv-x="900" /><glyph d="M743 726 808 661 613 494H576V531ZM288 531V494H252L53 661L120 726ZM432 258Q469 258 496.5 285.5Q524 313 524 350Q524 387 496.5 414.5Q469 442 432 442Q393 442 366 415Q339 388 339 350Q339 312 366 285Q393 258 432 258ZM479 350Q479 369 465 383Q451 397 432 397Q413 397 398.5 383Q384 369 384 350Q384 331 398 317Q412 303 432 303Q451 303 465 317Q479 331 479 350ZM127 281Q100 296 78 313Q56 330 38 350Q56 370 78 387Q100 404 127 419Q155 434 182.5 441.5Q210 449 236 449Q268 449 300 442Q332 435 357 423Q344 453 338 484Q332 515 332 546Q332 572 340 599Q348 626 363 654Q378 681 395 703Q412 725 432 743Q452 725 469 703Q486 681 500 654Q516 626 523.5 599Q531 572 531 546Q531 515 525 484Q519 453 506 423Q534 436 565 442.5Q596 449 628 449Q654 449 681 441.5Q708 434 736 419Q762 404 784.5 387Q807 370 825 350Q807 330 785 313Q763 296 736 282Q708 266 681 258.5Q654 251 628 251Q596 251 565.5 257.5Q535 264 506 276Q518 247 524.5 216.5Q531 186 531 154Q531 128 523.5 101Q516 74 501 46Q486 20 469 -2.5Q452 -25 432 -43Q412 -25 395 -3Q378 19 363 46Q348 74 340 101Q332 128 332 154Q332 186 338.5 216.5Q345 247 357 276Q331 264 299 257.5Q267 251 236 251Q210 251 182.5 258.5Q155 266 127 281ZM576 206H613L808 39L743 -26L576 169ZM53 39 252 206H288V169L120 -26Z" glyph-name="orn.4" horiz-adv-x="862" /><glyph d="M757 350Q757 199 652 92Q547 -15 398 -15Q249 -15 144.5 92Q40 199 40 350Q40 502 145 609Q250 716 398 716Q547 716 652 608.5Q757 501 757 350Z" glyph-name="orn.5" horiz-adv-x="797" /><glyph d="M757 350Q757 199 652.5 92Q548 -15 399 -15Q250 -15 145 92Q40 199 40 350Q40 501 145 608.5Q250 716 399 716Q547 716 652 609Q757 502 757 350ZM134 350 399 93 431 125 247 323 652 321V378L247 377L431 575L399 607Z" glyph-name="orn.6" horiz-adv-x="797" /><glyph d="M757 350Q757 199 652 92Q547 -15 398 -15Q249 -15 144.5 92Q40 199 40 350Q40 502 145 609Q250 716 398 716Q547 716 652 608.5Q757 501 757 350ZM550 323 366 125 398 93 663 350 398 607 366 575 550 377 145 378V321Z" glyph-name="orn.7" horiz-adv-x="797" /><glyph d="M282 472Q240 472 218.5 415Q197 358 197 248Q197 228 197.5 210Q198 192 200 175L356 384Q346 428 327 450Q308 472 282 472ZM282 27Q325 27 347 83Q369 139 369 248Q369 268 368 287Q367 306 366 322L210 113Q220 71 238 49Q256 27 282 27ZM545 248Q545 140 467.5 62.5Q390 -15 282 -15Q245 -15 210.5 -5Q176 5 144 25L98 -36L62 -9L108 52Q66 90 43.5 141.5Q21 193 21 248Q21 358 97.5 435.5Q174 513 282 513Q320 513 355.5 502.5Q391 492 422 472L468 533L504 507L458 445Q500 407 522.5 355.5Q545 304 545 248Z" glyph-name="oslash" horiz-adv-x="566" unicode="&#248;" /><glyph d="M282 513Q391 513 468 435.5Q545 358 545 248Q545 140 467.5 62.5Q390 -15 282 -15Q174 -15 97.5 62.5Q21 140 21 248Q21 358 97.5 435.5Q174 513 282 513ZM282 472Q240 472 218.5 415Q197 358 197 248Q197 140 218.5 83.5Q240 27 282 27Q325 27 347 83Q369 139 369 248Q369 358 347 415Q325 472 282 472ZM205 607Q190 607 181.5 600.5Q173 594 164 575L123 588Q127 649 152.5 680Q178 711 225 711Q238 711 255 707.5Q272 704 306 692Q331 683 342 680.5Q353 678 361 678Q376 678 385 684.5Q394 691 402 710L443 697Q439 636 413.5 604.5Q388 573 341 573Q328 573 311.5 576.5Q295 580 262 592Q236 601 224.5 604Q213 607 205 607Z" glyph-name="otilde" horiz-adv-x="566" unicode="&#245;" /><glyph d="M306 27Q357 27 384.5 75.5Q412 124 412 209Q412 303 379 363Q346 423 293 423Q275 423 257.5 416.5Q240 410 228 399V129Q228 81 248.5 54Q269 27 306 27ZM285 -190V-219H16V-190L30 -182Q49 -173 57 -160.5Q65 -148 65 -128V416L15 446V474Q68 479 121 489Q174 499 226 514H228L226 436H228Q252 472 291 492.5Q330 513 375 513Q465 513 525 444Q585 375 585 265Q585 148 510.5 66.5Q436 -15 317 -15Q301 -15 281.5 -13Q262 -11 228 -6V-128Q228 -150 236.5 -162.5Q245 -175 264 -182Z" glyph-name="p" horiz-adv-x="608" unicode="p" /><glyph d="M584 -186H519V700H584ZM340 -57V199H283Q179 199 106 272Q33 345 33 449Q33 553 106 626.5Q179 700 283 700H405V-52Q405 -140 356 -191.5Q307 -243 230 -243Q170 -243 129.5 -212Q89 -181 89 -133Q89 -103 109 -83Q129 -63 156 -63Q183 -63 201.5 -83Q220 -103 220 -133Q220 -145 213 -160Q206 -175 196 -186Q201 -187 210 -188Q219 -189 223 -189Q275 -189 307.5 -151Q340 -113 340 -57Z" glyph-name="paragraph" horiz-adv-x="660" unicode="&#182;" /><glyph d="M295 -159 259 -191Q154 -100 90.5 26.5Q27 153 27 275Q27 399 91 526Q155 653 260 742L297 712Q213 626 166 511.5Q119 397 119 275Q119 155 165 41.5Q211 -72 295 -159Z" glyph-name="parenleft" horiz-adv-x="309" unicode="(" /><glyph d="M302 -89 266 -121Q161 -30 97.5 96.5Q34 223 34 345Q34 469 98 596Q162 723 267 812L304 782Q220 696 173 581.5Q126 467 126 345Q126 225 172 111.5Q218 -2 302 -89Z" glyph-name="parenleft.case" horiz-adv-x="329" /><glyph d="M282 275Q282 153 218.5 26.5Q155 -100 50 -191L14 -159Q98 -72 144 41.5Q190 155 190 275Q190 397 143 511.5Q96 626 12 712L49 742Q154 653 218 526Q282 399 282 275Z" glyph-name="parenright" horiz-adv-x="309" unicode=")" /><glyph d="M295 345Q295 223 231.5 96.5Q168 -30 63 -121L27 -89Q111 -2 157 111.5Q203 225 203 345Q203 467 156 581.5Q109 696 25 782L62 812Q167 723 231 596Q295 469 295 345Z" glyph-name="parenright.case" horiz-adv-x="329" /><glyph d="M549 268Q549 142 473 64Q397 -14 283 -14Q171 -14 96.5 58Q22 130 22 236Q22 342 94 415Q166 488 272 488Q300 488 315.5 484.5Q331 481 342 475Q307 527 250.5 590.5Q194 654 89 755L109 781Q303 694 426 554Q549 414 549 268ZM283 450Q241 450 218.5 394.5Q196 339 196 236Q196 134 218.5 79.5Q241 25 283 25Q326 25 348.5 79Q371 133 371 236Q371 340 348.5 395Q326 450 283 450Z" glyph-name="partialdiff" horiz-adv-x="571" unicode="&#8706;" /><glyph d="M389 531Q389 458 338 403.5Q287 349 211 349Q136 349 85 403.5Q34 458 34 531Q34 605 85 660Q136 715 211 715Q287 715 338 660Q389 605 389 531ZM715 700 162 0H97L650 700ZM157 531Q157 447 169.5 420Q182 393 211 393Q240 393 252.5 419.5Q265 446 265 531Q265 617 253 643.5Q241 670 211 670Q182 670 169.5 643Q157 616 157 531ZM783 168Q783 95 732 40Q681 -15 605 -15Q529 -15 478.5 39.5Q428 94 428 168Q428 242 478.5 296.5Q529 351 605 351Q681 351 732 296Q783 241 783 168ZM551 168Q551 82 563 56Q575 30 605 30Q634 30 646 55.5Q658 81 658 168Q658 256 646 281.5Q634 307 605 307Q576 307 563.5 280.5Q551 254 551 168Z" glyph-name="percent" horiz-adv-x="816" unicode="%" /><glyph d="M240 87Q240 45 210 15Q180 -15 138 -15Q96 -15 66 15Q36 45 36 87Q36 129 66 158.5Q96 188 138 188Q180 188 210 158.5Q240 129 240 87Z" glyph-name="period" horiz-adv-x="276" unicode="." /><glyph d="M227 398Q227 358 199.5 331Q172 304 132 304Q93 304 65.5 331.5Q38 359 38 398Q38 438 65.5 465.5Q93 493 132 493Q173 493 200 466Q227 439 227 398Z" glyph-name="periodcentered" horiz-adv-x="265" unicode="&#183;" /><glyph d="M389 531Q389 458 338 403.5Q287 349 211 349Q136 349 85 403.5Q34 458 34 531Q34 605 85 660Q136 715 211 715Q287 715 338 660Q389 605 389 531ZM715 700 162 0H97L650 700ZM157 531Q157 447 169.5 420Q182 393 211 393Q240 393 252.5 419.5Q265 446 265 531Q265 617 253 643.5Q241 670 211 670Q182 670 169.5 643Q157 616 157 531ZM783 168Q783 95 732 40Q681 -15 605 -15Q529 -15 478.5 39.5Q428 94 428 168Q428 242 478.5 296.5Q529 351 605 351Q681 351 732 296Q783 241 783 168ZM1183 168Q1183 94 1132.5 39.5Q1082 -15 1006 -15Q930 -15 879 40Q828 95 828 168Q828 241 879 296Q930 351 1006 351Q1082 351 1132.5 296.5Q1183 242 1183 168ZM551 168Q551 82 563 56Q575 30 605 30Q634 30 646 55.5Q658 81 658 168Q658 256 646 281.5Q634 307 605 307Q576 307 563.5 280.5Q551 254 551 168ZM951 168Q951 84 963.5 57Q976 30 1006 30Q1035 30 1047 55.5Q1059 81 1059 168Q1059 256 1047 281.5Q1035 307 1006 307Q976 307 963.5 280Q951 253 951 168Z" glyph-name="perthousand" horiz-adv-x="1214" unicode="&#8240;" /><glyph d="M27 498H644V440H531V178Q531 138 533.5 122.5Q536 107 541 96Q549 76 566 67Q583 58 610 58Q620 58 631 61Q642 64 647 67L659 30Q630 10 590.5 -2.5Q551 -15 513 -15Q439 -15 404 17Q369 49 369 117V440H240V90Q240 70 248.5 57.5Q257 45 275 36L289 29V0H28V29L42 36Q60 45 68.5 57.5Q77 70 77 90V440H27Z" glyph-name="pi" horiz-adv-x="667" unicode="&#960;" /><glyph d="M303 150H236V327H62V389H236V566H303V389H479V327H303Z" glyph-name="plus" horiz-adv-x="540" unicode="+" /><glyph d="M302 150H235V327H61V389H235V566H302V389H478V327H302ZM478 0H61V64H478Z" glyph-name="plusminus" horiz-adv-x="540" unicode="&#177;" /><glyph d="M747 60Q688 4 612 -26.5Q536 -57 454 -57Q372 -57 296 -26.5Q220 4 162 61Q102 118 69.5 193Q37 268 37 349Q37 430 69.5 505Q102 580 162 637Q220 694 296 724.5Q372 755 454 755Q536 755 612 724.5Q688 694 747 638Q807 580 839.5 505Q872 430 872 349Q872 268 839.5 193Q807 118 747 60ZM454 688Q314 688 216 589Q118 490 118 349Q118 208 216 109Q314 10 454 10Q595 10 693.5 109Q792 208 792 349Q792 490 693.5 589Q595 688 454 688ZM518 165V125H253V165L267 169Q286 177 294.5 187Q303 197 303 214V499Q303 516 294.5 526Q286 536 267 544L253 548V588H516Q600 588 652.5 544Q705 500 705 435Q705 370 651.5 327Q598 284 502 284H481V329Q519 328 539.5 355Q560 382 560 430Q560 487 533.5 516.5Q507 546 455 546V214Q455 198 463 189Q471 180 490 174Z" glyph-name="product" horiz-adv-x="909" unicode="&#8719;" /><glyph d="M23 233Q23 350 97.5 431.5Q172 513 291 513Q334 513 372 497.5Q410 482 437 454L508 504H543V-128Q543 -148 551 -160.5Q559 -173 578 -182L592 -190V-219H324V-190L344 -182Q363 -175 372 -162Q381 -149 381 -128V60H379Q351 23 313.5 4Q276 -15 232 -15Q143 -15 83 54.5Q23 124 23 233ZM196 288Q196 195 229.5 136Q263 77 316 77Q333 77 349.5 82.5Q366 88 381 99V371Q381 417 359 444.5Q337 472 299 472Q249 472 222.5 423.5Q196 375 196 288Z" glyph-name="q" horiz-adv-x="597" unicode="q" /><glyph d="M272 250H211V279Q211 308 216 341Q221 374 238 436Q250 485 254 507Q258 529 258 546Q258 590 235 615Q212 640 172 640Q144 640 119.5 624Q95 608 95 593Q95 576 122 572Q149 568 158 565Q172 559 182 543.5Q192 528 192 511Q192 484 172.5 463Q153 442 121 442Q83 442 58 470.5Q33 499 33 543Q33 614 91 664.5Q149 715 241 715Q326 715 382 670Q438 625 438 553Q438 489 372 415Q306 341 303 337Q286 312 279 294Q272 276 272 259ZM348 87Q348 44 318.5 14.5Q289 -15 247 -15Q204 -15 174.5 14.5Q145 44 145 87Q145 129 174.5 158.5Q204 188 247 188Q289 188 318.5 158.5Q348 129 348 87Z" glyph-name="question" horiz-adv-x="476" unicode="?" /><glyph d="M121 396Q121 439 150.5 468.5Q180 498 222 498Q265 498 294.5 468.5Q324 439 324 396Q324 354 294.5 324.5Q265 295 222 295Q180 295 150.5 324.5Q121 354 121 396ZM197 233H258V204Q258 175 253 142Q248 109 231 47Q219 -2 215 -24Q211 -46 211 -63Q211 -107 234 -132Q257 -157 297 -157Q325 -157 349.5 -141Q374 -125 374 -110Q374 -93 347 -89Q320 -85 311 -82Q297 -76 287 -60.5Q277 -45 277 -28Q277 -1 296.5 20Q316 41 348 41Q386 41 411 12.5Q436 -16 436 -60Q436 -131 378 -181.5Q320 -232 228 -232Q143 -232 87 -187Q31 -142 31 -70Q31 -6 97 68Q163 142 166 146Q183 171 190 189Q197 207 197 224Z" glyph-name="questiondown" horiz-adv-x="465" unicode="&#191;" /><glyph d="M128 613Q128 656 157.5 685.5Q187 715 229 715Q272 715 301.5 685.5Q331 656 331 613Q331 571 301.5 541.5Q272 512 229 512Q187 512 157.5 541.5Q128 571 128 613ZM204 450H265V421Q265 392 260 359Q255 326 238 264Q226 215 222 193Q218 171 218 154Q218 110 241 85Q264 60 304 60Q332 60 356.5 76Q381 92 381 107Q381 124 354 128Q327 132 318 135Q304 141 294 156.5Q284 172 284 189Q284 216 303.5 237Q323 258 355 258Q393 258 418 229.5Q443 201 443 157Q443 86 385 35.5Q327 -15 235 -15Q150 -15 94 30Q38 75 38 147Q38 211 104 285Q170 359 173 363Q190 388 197 406Q204 424 204 441Z" glyph-name="questiondown.case" horiz-adv-x="476" /><glyph d="M468 700 349 418H289V700ZM236 700 115 418H56V700Z" glyph-name="quotedbl" horiz-adv-x="477" unicode="&quot;" /><glyph d="M255 51Q255 -25 206.5 -90Q158 -155 68 -199L49 -166Q104 -127 134 -86.5Q164 -46 172 3Q162 -1 151 -3.5Q140 -6 129 -6Q90 -6 63 22Q36 50 36 89Q36 129 65 158.5Q94 188 138 188Q188 188 221.5 148Q255 108 255 51ZM511 51Q511 -25 462.5 -90Q414 -155 324 -199L305 -166Q360 -127 390 -86.5Q420 -46 428 3Q418 -1 407 -3.5Q396 -6 385 -6Q346 -6 319 22Q292 50 292 89Q292 129 321 158.5Q350 188 394 188Q444 188 477.5 148Q511 108 511 51Z" glyph-name="quotedblbase" horiz-adv-x="549" unicode="&#8222;" /><glyph d="M29 465Q29 541 77.5 606Q126 671 216 715L235 682Q180 643 150 602.5Q120 562 112 513Q122 517 133 519.5Q144 522 155 522Q194 522 221 494Q248 466 248 427Q248 387 219 357.5Q190 328 146 328Q96 328 62.5 368Q29 408 29 465ZM286 465Q286 541 334.5 606Q383 671 473 715L492 682Q437 643 407 602.5Q377 562 369 513Q379 517 390 519.5Q401 522 412 522Q451 522 478 494Q505 466 505 427Q505 387 476 357.5Q447 328 403 328Q353 328 319.5 368Q286 408 286 465Z" glyph-name="quotedblleft" horiz-adv-x="539" unicode="&#8220;" /><glyph d="M258 578Q258 502 209.5 437Q161 372 71 328L52 361Q107 400 137 440.5Q167 481 175 530Q165 526 154 523.5Q143 521 132 521Q93 521 66 549Q39 577 39 616Q39 656 68 685.5Q97 715 141 715Q191 715 224.5 675Q258 635 258 578ZM515 578Q515 502 466.5 437Q418 372 328 328L309 361Q364 400 394 440.5Q424 481 432 530Q422 526 411 523.5Q400 521 389 521Q350 521 323 549Q296 577 296 616Q296 656 325 685.5Q354 715 398 715Q448 715 481.5 675Q515 635 515 578Z" glyph-name="quotedblright" horiz-adv-x="540" unicode="&#8221;" /><glyph d="M29 465Q29 541 77.5 606Q126 671 216 715L235 682Q180 643 150 602.5Q120 562 112 513Q122 517 133 519.5Q144 522 155 522Q194 522 221 494Q248 466 248 427Q248 387 219 357.5Q190 328 146 328Q96 328 62.5 368Q29 408 29 465Z" glyph-name="quoteleft" horiz-adv-x="282" unicode="&#8216;" /><glyph d="M258 578Q258 502 209.5 437Q161 372 71 328L52 361Q107 400 137 440.5Q167 481 175 530Q165 526 154 523.5Q143 521 132 521Q93 521 66 549Q39 577 39 616Q39 656 68 685.5Q97 715 141 715Q191 715 224.5 675Q258 635 258 578Z" glyph-name="quoteright" horiz-adv-x="283" unicode="&#8217;" /><glyph d="M255 51Q255 -25 206.5 -90Q158 -155 68 -199L49 -166Q104 -127 134 -86.5Q164 -46 172 3Q162 -1 151 -3.5Q140 -6 129 -6Q90 -6 63 22Q36 50 36 89Q36 129 65 158.5Q94 188 138 188Q188 188 221.5 148Q255 108 255 51Z" glyph-name="quotesinglbase" horiz-adv-x="293" unicode="&#8218;" /><glyph d="M235 700 115 418H56V700Z" glyph-name="quotesingle" horiz-adv-x="243" unicode="'" /><glyph d="M277 37 298 29V0H26V29L40 36Q58 45 66.5 57.5Q75 70 75 90V416L25 446V474Q78 479 131 489Q184 499 236 514H238L234 410H236Q260 448 306.5 475Q353 502 397 502Q407 502 416 501Q425 500 439 497Q440 468 426.5 409Q413 350 394 323Q367 343 322 356.5Q277 370 238 372V90Q238 70 247.5 57Q257 44 277 37Z" glyph-name="r" horiz-adv-x="437" unicode="r" /><glyph d="M277 37 298 29V0H26V29L40 36Q58 45 66.5 57.5Q75 70 75 90V416L25 446V474Q78 479 131 489Q184 499 236 514H238L234 410H236Q260 448 306.5 475Q353 502 397 502Q407 502 416 501Q425 500 439 497Q440 468 426.5 409Q413 350 394 323Q367 343 322 356.5Q277 370 238 372V90Q238 70 247.5 57Q257 44 277 37ZM249 574H192L207 729H378Z" glyph-name="racute" horiz-adv-x="437" unicode="&#341;" /><glyph d="M264 0H179L11 417H82L223 54L497 743H568Z" glyph-name="radical" horiz-adv-x="561" unicode="&#8730;" /><glyph d="M277 37 298 29V0H26V29L40 36Q58 45 66.5 57.5Q75 70 75 90V416L25 446V474Q78 479 131 489Q184 499 236 514H238L234 410H236Q260 448 306.5 475Q353 502 397 502Q407 502 416 501Q425 500 439 497Q440 468 426.5 409Q413 350 394 323Q367 343 322 356.5Q277 370 238 372V90Q238 70 247.5 57Q257 44 277 37ZM181 574 67 729H134L220 676L306 729H373L259 574Z" glyph-name="rcaron" horiz-adv-x="437" unicode="&#345;" /><glyph d="M277 37 298 29V0H26V29L40 36Q58 45 66.5 57.5Q75 70 75 90V416L25 446V474Q78 479 131 489Q184 499 236 514H238L234 410H236Q260 448 306.5 475Q353 502 397 502Q407 502 416 501Q425 500 439 497Q440 468 426.5 409Q413 350 394 323Q367 343 322 356.5Q277 370 238 372V90Q238 70 247.5 57Q257 44 277 37ZM263 -173Q263 -226 230 -275.5Q197 -325 135 -364L105 -334Q133 -312 154.5 -282.5Q176 -253 189 -218Q182 -222 172.5 -224.5Q163 -227 152 -227Q117 -227 93 -202.5Q69 -178 69 -143Q69 -108 95 -81.5Q121 -55 160 -55Q204 -55 233.5 -89.5Q263 -124 263 -173Z" glyph-name="rcommaaccent" horiz-adv-x="437" unicode="&#343;" /><glyph d="M614 473Q614 357 529.5 274Q445 191 327 191Q209 191 124.5 274Q40 357 40 473Q40 589 124.5 672Q209 755 327 755Q445 755 529.5 672Q614 589 614 473ZM327 712Q228 712 158.5 642Q89 572 89 473Q89 374 158.5 304Q228 234 327 234Q426 234 495.5 304Q565 374 565 473Q565 572 495.5 642Q426 712 327 712ZM306 610H286V478H313Q341 478 358 498Q375 518 375 548Q375 578 357 594Q339 610 306 610ZM328 337V315H170V337L180 341Q194 346 200 353.5Q206 361 206 374V579Q206 591 199.5 599Q193 607 180 612L170 616V638H340Q398 638 429.5 615.5Q461 593 461 551Q461 526 440 502Q419 478 388 471L419 424Q451 377 463.5 362Q476 347 484 343L496 337V315H430Q409 315 391.5 328Q374 341 360 366L314 449H286V374Q286 362 291 355.5Q296 349 309 344Z" glyph-name="registered" horiz-adv-x="654" unicode="&#174;" /><glyph d="M245 462Q245 426 219.5 400Q194 374 155 374Q110 374 80.5 409.5Q51 445 51 496Q51 562 94 619.5Q137 677 217 716L233 687Q185 653 158.5 618Q132 583 125 538Q134 541 143.5 543Q153 545 162 545Q196 545 220.5 520.5Q245 496 245 462Z" glyph-name="revcommaaccent" horiz-adv-x="295" /><glyph d="M313 621Q313 571 278.5 537Q244 503 194 503Q144 503 109.5 537Q75 571 75 621Q75 670 109.5 704Q144 738 194 738Q243 738 278 703.5Q313 669 313 621ZM131 621Q131 594 149.5 575Q168 556 194 556Q220 556 238.5 575Q257 594 257 621Q257 648 238 667.5Q219 687 194 687Q168 687 149.5 667.5Q131 648 131 621Z" glyph-name="ring" horiz-adv-x="388" unicode="&#730;" /><glyph d="M435 155Q435 87 374 36Q313 -15 216 -15Q168 -15 123 -6.5Q78 2 32 22L36 169H72Q84 102 120.5 64Q157 26 208 26Q244 26 267 45.5Q290 65 290 93Q290 111 281 125Q272 139 252 152Q244 156 234.5 161Q225 166 185 184Q135 206 115.5 217.5Q96 229 82 242Q58 263 46 289Q34 315 34 347Q34 422 93.5 467.5Q153 513 248 513Q285 513 325 508Q365 503 403 494L392 377H359Q347 423 320 447.5Q293 472 256 472Q223 472 201 455Q179 438 179 411Q179 387 197 368.5Q215 350 280 321Q327 300 348.5 288Q370 276 386 262Q411 241 423 214.5Q435 188 435 155Z" glyph-name="s" horiz-adv-x="455" unicode="s" /><glyph d="M663 -15Q589 -15 554.5 17Q520 49 520 117V440H446V491Q491 496 520 526.5Q549 557 549 599Q549 637 521 666.5Q493 696 448 696Q397 696 367.5 664Q338 632 338 579Q338 561 343.5 541Q349 521 359 503Q364 502 375 500Q386 498 403 494L392 377H359Q347 423 320 447.5Q293 472 256 472Q223 472 201 455Q179 438 179 411Q179 387 197 368.5Q215 350 280 321Q327 300 348.5 288Q370 276 386 262Q411 241 423 214.5Q435 188 435 155Q435 87 374 36Q313 -15 216 -15Q168 -15 123 -6.5Q78 2 32 22L36 169H72Q84 102 120.5 64Q157 26 208 26Q244 26 267 45.5Q290 65 290 93Q290 111 281 125Q272 139 252 152Q244 156 234.5 161Q225 166 185 184Q135 206 115.5 217.5Q96 229 82 242Q58 263 46 289Q34 315 34 347Q34 422 93.5 467.5Q153 513 248 513Q262 513 278 512Q294 511 317 509Q308 528 303 548.5Q298 569 298 590Q298 658 349.5 705Q401 752 482 752Q573 752 627.5 692.5Q682 633 682 540V498H807V440H682V178Q682 138 684.5 122.5Q687 107 692 96Q700 76 717 67Q734 58 761 58Q771 58 783 61.5Q795 65 797 67L810 30Q781 10 741.5 -2.5Q702 -15 663 -15Z" glyph-name="s_t" horiz-adv-x="808" unicode="&#64262;" /><glyph d="M435 155Q435 87 374 36Q313 -15 216 -15Q168 -15 123 -6.5Q78 2 32 22L36 169H72Q84 102 120.5 64Q157 26 208 26Q244 26 267 45.5Q290 65 290 93Q290 111 281 125Q272 139 252 152Q244 156 234.5 161Q225 166 185 184Q135 206 115.5 217.5Q96 229 82 242Q58 263 46 289Q34 315 34 347Q34 422 93.5 467.5Q153 513 248 513Q285 513 325 508Q365 503 403 494L392 377H359Q347 423 320 447.5Q293 472 256 472Q223 472 201 455Q179 438 179 411Q179 387 197 368.5Q215 350 280 321Q327 300 348.5 288Q370 276 386 262Q411 241 423 214.5Q435 188 435 155ZM259 574H202L217 729H388Z" glyph-name="sacute" horiz-adv-x="455" unicode="&#347;" /><glyph d="M435 155Q435 87 374 36Q313 -15 216 -15Q168 -15 123 -6.5Q78 2 32 22L36 169H72Q84 102 120.5 64Q157 26 208 26Q244 26 267 45.5Q290 65 290 93Q290 111 281 125Q272 139 252 152Q244 156 234.5 161Q225 166 185 184Q135 206 115.5 217.5Q96 229 82 242Q58 263 46 289Q34 315 34 347Q34 422 93.5 467.5Q153 513 248 513Q285 513 325 508Q365 503 403 494L392 377H359Q347 423 320 447.5Q293 472 256 472Q223 472 201 455Q179 438 179 411Q179 387 197 368.5Q215 350 280 321Q327 300 348.5 288Q370 276 386 262Q411 241 423 214.5Q435 188 435 155ZM191 574 77 729H144L230 676L316 729H383L269 574Z" glyph-name="scaron" horiz-adv-x="455" unicode="&#353;" /><glyph d="M349 -148Q349 -191 311 -219.5Q273 -248 209 -248Q175 -248 140.5 -236.5Q106 -225 89 -210L107 -174Q123 -180 136 -182.5Q149 -185 162 -185Q193 -185 210.5 -173.5Q228 -162 228 -141Q228 -119 202 -104Q176 -89 136 -88L134 -79L197 -15Q156 -13 118 -5Q80 3 32 22L36 169H72Q84 102 120.5 64Q157 26 208 26Q244 26 267 45.5Q290 65 290 93Q290 111 281 125Q272 139 252 152Q244 156 234.5 161Q225 166 185 184Q135 206 115.5 217.5Q96 229 82 242Q58 263 46 289Q34 315 34 347Q34 422 93.5 467.5Q153 513 248 513Q285 513 325 508Q365 503 403 494L392 377H359Q347 423 320 447.5Q293 472 256 472Q223 472 201 455Q179 438 179 411Q179 387 197 368.5Q215 350 280 321Q327 300 348.5 288Q370 276 386 262Q411 241 423 214.5Q435 188 435 155Q435 94 385 45.5Q335 -3 254 -13L229 -49Q278 -53 313.5 -79.5Q349 -106 349 -148Z" glyph-name="scedilla" horiz-adv-x="454" unicode="&#351;" /><glyph d="M435 155Q435 87 374 36Q313 -15 216 -15Q168 -15 123 -6.5Q78 2 32 22L36 169H72Q84 102 120.5 64Q157 26 208 26Q244 26 267 45.5Q290 65 290 93Q290 111 281 125Q272 139 252 152Q244 156 234.5 161Q225 166 185 184Q135 206 115.5 217.5Q96 229 82 242Q58 263 46 289Q34 315 34 347Q34 422 93.5 467.5Q153 513 248 513Q285 513 325 508Q365 503 403 494L392 377H359Q347 423 320 447.5Q293 472 256 472Q223 472 201 455Q179 438 179 411Q179 387 197 368.5Q215 350 280 321Q327 300 348.5 288Q370 276 386 262Q411 241 423 214.5Q435 188 435 155ZM144 574H77L191 729H269L383 574H316L230 627Z" glyph-name="scircumflex" horiz-adv-x="455" unicode="&#349;" /><glyph d="M435 155Q435 87 374 36Q313 -15 216 -15Q168 -15 123 -6.5Q78 2 32 22L36 169H72Q84 102 120.5 64Q157 26 208 26Q244 26 267 45.5Q290 65 290 93Q290 111 281 125Q272 139 252 152Q244 156 234.5 161Q225 166 185 184Q135 206 115.5 217.5Q96 229 82 242Q58 263 46 289Q34 315 34 347Q34 422 93.5 467.5Q153 513 248 513Q285 513 325 508Q365 503 403 494L392 377H359Q347 423 320 447.5Q293 472 256 472Q223 472 201 455Q179 438 179 411Q179 387 197 368.5Q215 350 280 321Q327 300 348.5 288Q370 276 386 262Q411 241 423 214.5Q435 188 435 155ZM334 -173Q334 -226 301 -275.5Q268 -325 206 -364L176 -334Q204 -312 225.5 -282.5Q247 -253 260 -218Q253 -222 243.5 -224.5Q234 -227 223 -227Q188 -227 164 -202.5Q140 -178 140 -143Q140 -108 166 -81.5Q192 -55 231 -55Q275 -55 304.5 -89.5Q334 -124 334 -173Z" glyph-name="scommaaccent" horiz-adv-x="455" unicode="&#537;" /><glyph d="M239 493Q215 482 201 460.5Q187 439 187 412Q187 380 208 355Q229 330 302 294L400 245Q438 226 467 204.5Q496 183 515 160Q539 171 553 192.5Q567 214 567 241Q567 273 546 298Q525 323 452 359L354 408Q316 427 287 448.5Q258 470 239 493ZM715 298Q715 225 669 175.5Q623 126 541 111Q545 100 547.5 86.5Q550 73 550 59Q550 18 529.5 -22Q509 -62 473 -89Q442 -113 400.5 -125Q359 -137 309 -137Q284 -137 222 -131Q160 -125 126 -119L137 57H179L184 40Q201 -23 232 -53Q263 -83 311 -83Q349 -83 375.5 -60Q402 -37 402 -4Q402 29 380 52Q358 75 301 103L199 154Q113 197 76.5 244Q40 291 39 355Q39 428 85 477.5Q131 527 213 542Q209 553 206.5 566.5Q204 580 204 594Q204 635 224.5 675Q245 715 281 742Q312 766 353.5 778Q395 790 445 790Q470 790 532 784Q594 778 628 772L617 596H575L570 613Q553 676 522 706Q491 736 443 736Q405 736 378.5 713Q352 690 352 657Q352 624 374 601Q396 578 453 550L555 499Q641 456 677.5 409Q714 362 715 298Z" glyph-name="section" horiz-adv-x="754" unicode="&#167;" /><glyph d="M247 397Q247 355 217 325Q187 295 145 295Q103 295 73.5 324.5Q44 354 44 397Q44 439 73.5 468.5Q103 498 145 498Q187 498 217 468.5Q247 439 247 397ZM264 51Q264 -25 215.5 -90Q167 -155 77 -199L58 -166Q113 -127 143 -86.5Q173 -46 181 3Q172 -1 161 -3.5Q150 -6 138 -6Q99 -6 72 22Q45 50 45 89Q45 129 74 158.5Q103 188 147 188Q197 188 230.5 148Q264 108 264 51Z" glyph-name="semicolon" horiz-adv-x="303" unicode=";" /><glyph d="M277 7 110 -11Q152 97 223.5 211.5Q295 326 459 537H26V700H555V641Q534 594 428 369Q322 144 277 7Z" glyph-name="seven" horiz-adv-x="563" unicode="7" /><glyph d="M200 4 92 -6Q116 51 151.5 109.5Q187 168 301 323H56V420H357V384Q346 360 317.5 296.5Q289 233 274 196Q249 139 231 92Q213 45 200 4Z" glyph-name="seven.dnom" horiz-adv-x="400" /><glyph d="M200 290 92 280Q116 337 151.5 395.5Q187 454 301 609H56V706H357V670Q346 646 317.5 582.5Q289 519 274 482Q249 425 231 378Q213 331 200 290Z" glyph-name="seven.numr" horiz-adv-x="400" /><glyph d="M227 -113 69 -129Q90 -68 122 -5Q154 58 201 132Q216 156 257.5 216.5Q299 277 366 375H21V524H453V470Q440 438 352.5 227.5Q265 17 227 -113Z" glyph-name="seven.pnum" horiz-adv-x="458" /><glyph d="M295 7 128 -11Q170 97 241.5 211.5Q313 326 477 537H44V700H573V641Q552 594 446 369Q340 144 295 7Z" glyph-name="seven.tnum" horiz-adv-x="600" /></font>
</defs>
</svg>
