<?xml version="1.0" standalone="no"?><!DOCTYPE svg PUBLIC "-//W3C//DTD SVG 1.1//EN" "http://www.w3.org/Graphics/SVG/1.1/DTD/svg11.dtd" ><svg version="1.1" xmlns="http://www.w3.org/2000/svg"><defs><font horiz-adv-x="0" id="font"><font-face ascent="750" bbox="-210 -365 1183 972" cap-height="700" descent="-250" font-family="Fresh Stencil" font-stretch="normal" font-style="normal" font-weight="900" units-per-em="1000" x-height="498" /><missing-glyph d="M581 0H81V700H581ZM512 661H149L331 385ZM125 73 307 350 125 627ZM535 624 354 350 535 76ZM513 38 331 314 149 38Z" horiz-adv-x="662" /><glyph glyph-name=".null" horiz-adv-x="0" /><glyph d="M441 723 577 342H384L278 661L292 700H315Q349 700 384.5 706.5Q420 713 439 723ZM286 527 232 342H167L259 606ZM588 310 642 158Q663 100 678.5 77.5Q694 55 728 42L754 32V0H392V32L420 41Q452 50 461.5 64.5Q471 79 462 107L408 267H210L184 172Q162 100 171.5 76.5Q181 53 228 42L264 32V0H-8V32L18 42Q52 55 67.5 77.5Q83 100 104 158L157 310Z" glyph-name="A" horiz-adv-x="742" unicode="A" /><glyph d="M768 658 664 661V700H717Q779 700 838 702Q897 704 953 708L950 518H915L904 536Q868 608 841 632Q814 656 768 658ZM235 32V0H-34V32L-5 41Q21 49 39 63.5Q57 78 74 105L199 310H445V591Q445 598 445 601Q445 604 444 607L284 342H220L412 651Q409 653 406 654.5Q403 656 400 657L374 668V700H630V387L716 390Q739 391 751.5 404Q764 417 778 460L791 503H827V231H791L778 274Q764 317 751.5 330Q739 343 716 343L630 346V0H374V32L400 43Q425 54 435 68.5Q445 83 445 109V267H242L166 121Q147 87 153 68.5Q159 50 190 43ZM970 0H664V40H740Q808 40 848 69.5Q888 99 920 183L940 234H977Z" glyph-name="AE" horiz-adv-x="1008" unicode="&#198;" /><glyph d="M441 723 577 342H384L278 661L292 700H315Q349 700 384.5 706.5Q420 713 439 723ZM286 527 232 342H167L259 606ZM588 310 642 158Q663 100 678.5 77.5Q694 55 728 42L754 32V0H392V32L420 41Q452 50 461.5 64.5Q471 79 462 107L408 267H210L184 172Q162 100 171.5 76.5Q181 53 228 42L264 32V0H-8V32L18 42Q52 55 67.5 77.5Q83 100 104 158L157 310ZM391 765H334L349 920H520Z" glyph-name="Aacute" horiz-adv-x="742" unicode="&#193;" /><glyph d="M441 723 577 342H384L278 661L292 700H315Q349 700 384.5 706.5Q420 713 439 723ZM286 527 232 342H167L259 606ZM588 310 642 158Q663 100 678.5 77.5Q694 55 728 42L754 32V0H392V32L420 41Q452 50 461.5 64.5Q471 79 462 107L408 267H210L184 172Q162 100 171.5 76.5Q181 53 228 42L264 32V0H-8V32L18 42Q52 55 67.5 77.5Q83 100 104 158L157 310ZM362 764Q292 764 254.5 801.5Q217 839 217 906V936H271V930Q271 899 293.5 884.5Q316 870 362 870Q408 870 430 884.5Q452 899 452 930V936H506V906Q506 839 468.5 801.5Q431 764 362 764Z" glyph-name="Abreve" horiz-adv-x="742" unicode="&#258;" /><glyph d="M441 723 577 342H384L278 661L292 700H315Q349 700 384.5 706.5Q420 713 439 723ZM286 527 232 342H167L259 606ZM588 310 642 158Q663 100 678.5 77.5Q694 55 728 42L754 32V0H392V32L420 41Q452 50 461.5 64.5Q471 79 462 107L408 267H210L184 172Q162 100 171.5 76.5Q181 53 228 42L264 32V0H-8V32L18 42Q52 55 67.5 77.5Q83 100 104 158L157 310ZM276 765H209L323 920H401L515 765H448L362 818Z" glyph-name="Acircumflex" horiz-adv-x="742" unicode="&#194;" /><glyph d="M441 723 577 342H384L278 661L292 700H315Q349 700 384.5 706.5Q420 713 439 723ZM286 527 232 342H167L259 606ZM588 310 642 158Q663 100 678.5 77.5Q694 55 728 42L754 32V0H392V32L420 41Q452 50 461.5 64.5Q471 79 462 107L408 267H210L184 172Q162 100 171.5 76.5Q181 53 228 42L264 32V0H-8V32L18 42Q52 55 67.5 77.5Q83 100 104 158L157 310ZM545 852Q545 819 522.5 796Q500 773 468 773Q436 773 413.5 796Q391 819 391 852Q391 884 413.5 907Q436 930 468 930Q500 930 522.5 907Q545 884 545 852ZM346 852Q346 819 323.5 796Q301 773 269 773Q237 773 214.5 796Q192 819 192 852Q192 884 214.5 907Q237 930 269 930Q301 930 323.5 907Q346 884 346 852Z" glyph-name="Adieresis" horiz-adv-x="742" unicode="&#196;" /><glyph d="M441 723 577 342H384L278 661L292 700H315Q349 700 384.5 706.5Q420 713 439 723ZM286 527 232 342H167L259 606ZM588 310 642 158Q663 100 678.5 77.5Q694 55 728 42L754 32V0H392V32L420 41Q452 50 461.5 64.5Q471 79 462 107L408 267H210L184 172Q162 100 171.5 76.5Q181 53 228 42L264 32V0H-8V32L18 42Q52 55 67.5 77.5Q83 100 104 158L157 310ZM391 765H334L205 920H376Z" glyph-name="Agrave" horiz-adv-x="742" unicode="&#192;" /><glyph d="M441 723 577 342H384L278 661L292 700H315Q349 700 384.5 706.5Q420 713 439 723ZM286 527 232 342H167L259 606ZM588 310 642 158Q663 100 678.5 77.5Q694 55 728 42L754 32V0H392V32L420 41Q452 50 461.5 64.5Q471 79 462 107L408 267H210L184 172Q162 100 171.5 76.5Q181 53 228 42L264 32V0H-8V32L18 42Q52 55 67.5 77.5Q83 100 104 158L157 310ZM517 780H208V849H517Z" glyph-name="Amacron" horiz-adv-x="742" unicode="&#256;" /><glyph d="M441 723 577 342H384L278 661L292 700H315Q349 700 384.5 706.5Q420 713 439 723ZM286 527 232 342H167L259 606ZM731 -162 719 -201Q697 -209 677.5 -212.5Q658 -216 641 -216Q591 -216 560 -191Q529 -166 529 -126Q529 -93 553 -60Q577 -27 620 0H392V32L420 41Q452 50 461.5 64.5Q471 79 462 107L408 267H210L184 172Q162 100 171.5 76.5Q181 53 228 42L264 32V0H-8V32L18 42Q52 55 67.5 77.5Q83 100 104 158L157 310H588L642 158Q663 100 678.5 77.5Q694 55 728 42L754 32V0H681Q662 -32 652 -60Q642 -88 642 -108Q642 -134 661 -148.5Q680 -163 713 -163Q720 -163 725 -162.5Q730 -162 731 -162Z" glyph-name="Aogonek" horiz-adv-x="742" unicode="&#260;" /><glyph d="M441 723 577 342H384L278 661L292 700H315Q349 700 384.5 706.5Q420 713 439 723ZM286 527 232 342H167L259 606ZM588 310 642 158Q663 100 678.5 77.5Q694 55 728 42L754 32V0H392V32L420 41Q452 50 461.5 64.5Q471 79 462 107L408 267H210L184 172Q162 100 171.5 76.5Q181 53 228 42L264 32V0H-8V32L18 42Q52 55 67.5 77.5Q83 100 104 158L157 310ZM361 921Q339 921 322 907Q305 893 300 871H243Q249 915 282.5 943.5Q316 972 361 972Q406 972 439.5 943.5Q473 915 479 871H422Q417 893 399.5 907Q382 921 361 921ZM361 737Q315 737 282 766Q249 795 243 839H300Q305 817 322 803.5Q339 790 361 790Q382 790 399.5 804Q417 818 422 839H479Q473 795 439.5 766Q406 737 361 737Z" glyph-name="Aring" horiz-adv-x="742" unicode="&#197;" /><glyph d="M441 723 577 342H384L278 661L292 700H315Q349 700 384.5 706.5Q420 713 439 723ZM286 527 232 342H167L259 606ZM588 310 642 158Q663 100 678.5 77.5Q694 55 728 42L754 32V0H392V32L420 41Q452 50 461.5 64.5Q471 79 462 107L408 267H210L184 172Q162 100 171.5 76.5Q181 53 228 42L264 32V0H-8V32L18 42Q52 55 67.5 77.5Q83 100 104 158L157 310ZM284 798Q269 798 260.5 791.5Q252 785 243 766L202 779Q206 840 231.5 871Q257 902 304 902Q317 902 334 898.5Q351 895 385 883Q410 874 421 871.5Q432 869 440 869Q455 869 464 875.5Q473 882 481 901L522 888Q518 827 492.5 795.5Q467 764 420 764Q407 764 390.5 767.5Q374 771 341 783Q315 792 303.5 795Q292 798 284 798Z" glyph-name="Atilde" horiz-adv-x="742" unicode="&#195;" /><glyph d="M416 407Q433 424 442.5 454Q452 484 452 520Q452 579 414.5 621.5Q377 664 324 664H321V700H372Q489 700 560 656Q631 612 631 538Q631 490 582.5 450.5Q534 411 467 402Q462 403 444.5 404.5Q427 406 416 407ZM287 0H31V32L57 43Q82 54 92 68.5Q102 83 102 109V591Q102 617 92 631.5Q82 646 57 657L31 668V700H287ZM429 0H321V37H347Q402 37 430.5 74.5Q459 112 459 183Q459 251 420.5 294Q382 337 322 337V374H383Q508 374 583 320.5Q658 267 658 182Q658 101 595.5 50.5Q533 0 429 0Z" glyph-name="B" horiz-adv-x="682" unicode="B" /><glyph d="M28 337Q28 508 130 610Q232 712 409 716V670Q325 656 281 571Q237 486 237 339Q237 212 284 128.5Q331 45 409 30V-16Q328 -15 260 9Q192 33 141 79Q87 128 57.5 195Q28 262 28 337ZM556 632Q534 652 506 661.5Q478 671 443 672V715Q490 714 549.5 707.5Q609 701 667 691L664 501H623L614 528Q599 573 586 594.5Q573 616 556 632ZM443 -15V27Q480 27 508.5 38.5Q537 50 559 75Q574 91 588 115Q602 139 624 187L645 234H684L676 33Q608 10 552 -1.5Q496 -13 443 -15Z" glyph-name="C" horiz-adv-x="712" unicode="C" /><glyph glyph-name="CR" horiz-adv-x="0" /><glyph d="M28 337Q28 508 130 610Q232 712 409 716V670Q325 656 281 571Q237 486 237 339Q237 212 284 128.5Q331 45 409 30V-16Q328 -15 260 9Q192 33 141 79Q87 128 57.5 195Q28 262 28 337ZM556 632Q534 652 506 661.5Q478 671 443 672V715Q490 714 549.5 707.5Q609 701 667 691L664 501H623L614 528Q599 573 586 594.5Q573 616 556 632ZM443 -15V27Q480 27 508.5 38.5Q537 50 559 75Q574 91 588 115Q602 139 624 187L645 234H684L676 33Q608 10 552 -1.5Q496 -13 443 -15ZM426 765H369L384 920H555Z" glyph-name="Cacute" horiz-adv-x="712" unicode="&#262;" /><glyph d="M28 337Q28 508 130 610Q232 712 409 716V670Q325 656 281 571Q237 486 237 339Q237 212 284 128.5Q331 45 409 30V-16Q328 -15 260 9Q192 33 141 79Q87 128 57.5 195Q28 262 28 337ZM556 632Q534 652 506 661.5Q478 671 443 672V715Q490 714 549.5 707.5Q609 701 667 691L664 501H623L614 528Q599 573 586 594.5Q573 616 556 632ZM443 -15V27Q480 27 508.5 38.5Q537 50 559 75Q574 91 588 115Q602 139 624 187L645 234H684L676 33Q608 10 552 -1.5Q496 -13 443 -15ZM358 765 244 920H311L397 867L483 920H550L436 765Z" glyph-name="Ccaron" horiz-adv-x="712" unicode="&#268;" /><glyph d="M503 662Q490 667 475 669.5Q460 672 443 672V715Q490 714 549.5 707.5Q609 701 667 691L664 501H623L613 526Q612 528 604.5 548Q597 568 591 582Q583 597 574.5 609.5Q566 622 556 631Q545 642 531.5 649.5Q518 657 503 662ZM444 -15V27Q503 27 542 57.5Q581 88 624 187L645 234H684L676 33Q607 10 552 -1.5Q497 -13 444 -15ZM516 -148Q516 -191 478 -219.5Q440 -248 376 -248Q342 -248 307.5 -236.5Q273 -225 255 -210L273 -174Q289 -180 302.5 -182.5Q316 -185 329 -185Q360 -185 377.5 -173.5Q395 -162 395 -141Q395 -119 369 -104Q343 -89 303 -88L301 -79L365 -14Q212 1 120 99.5Q28 198 28 337Q28 508 130 610Q232 712 409 716V670Q325 656 281 571Q237 486 237 339Q237 212 284 128.5Q331 45 409 30V-50Q455 -57 485.5 -83.5Q516 -110 516 -148Z" glyph-name="Ccedilla" horiz-adv-x="712" unicode="&#199;" /><glyph d="M28 337Q28 508 130 610Q232 712 409 716V670Q325 656 281 571Q237 486 237 339Q237 212 284 128.5Q331 45 409 30V-16Q328 -15 260 9Q192 33 141 79Q87 128 57.5 195Q28 262 28 337ZM556 632Q534 652 506 661.5Q478 671 443 672V715Q490 714 549.5 707.5Q609 701 667 691L664 501H623L614 528Q599 573 586 594.5Q573 616 556 632ZM443 -15V27Q480 27 508.5 38.5Q537 50 559 75Q574 91 588 115Q602 139 624 187L645 234H684L676 33Q608 10 552 -1.5Q496 -13 443 -15ZM311 765H244L358 920H436L550 765H483L397 818Z" glyph-name="Ccircumflex" horiz-adv-x="712" unicode="&#264;" /><glyph d="M28 337Q28 508 130 610Q232 712 409 716V670Q325 656 281 571Q237 486 237 339Q237 212 284 128.5Q331 45 409 30V-16Q328 -15 260 9Q192 33 141 79Q87 128 57.5 195Q28 262 28 337ZM556 632Q534 652 506 661.5Q478 671 443 672V715Q490 714 549.5 707.5Q609 701 667 691L664 501H623L614 528Q599 573 586 594.5Q573 616 556 632ZM443 -15V27Q480 27 508.5 38.5Q537 50 559 75Q574 91 588 115Q602 139 624 187L645 234H684L676 33Q608 10 552 -1.5Q496 -13 443 -15ZM481 855Q481 820 456.5 795.5Q432 771 397 771Q363 771 338.5 795.5Q314 820 314 855Q314 890 338.5 915Q363 940 397 940Q432 940 456.5 915Q481 890 481 855Z" glyph-name="Cdotaccent" horiz-adv-x="712" unicode="&#266;" /><glyph d="M560 349Q560 502 500.5 582.5Q441 663 330 663H321V700H363Q539 700 651.5 605Q764 510 764 353Q764 194 652.5 97Q541 0 366 0H321V37H330Q442 37 501 117Q560 197 560 349ZM287 700V0H31V32L57 43Q82 54 92 68.5Q102 83 102 109V591Q102 617 92 631.5Q82 646 57 657L31 668V700Z" glyph-name="D" horiz-adv-x="792" unicode="D" /><glyph d="M560 349Q560 502 500.5 582.5Q441 663 330 663H321V700H363Q539 700 651.5 605Q764 510 764 353Q764 194 652.5 97Q541 0 366 0H321V37H330Q442 37 501 117Q560 197 560 349ZM287 700V0H31V32L57 43Q82 54 92 68.5Q102 83 102 109V591Q102 617 92 631.5Q82 646 57 657L31 668V700ZM314 765 200 920H267L353 867L439 920H506L392 765Z" glyph-name="Dcaron" horiz-adv-x="792" unicode="&#270;" /><glyph d="M561 349Q561 502 501.5 582.5Q442 663 331 663H322V700H364Q540 700 652.5 605Q765 510 765 353Q765 194 653.5 97Q542 0 367 0H322V37H331Q443 37 502 117Q561 197 561 349ZM466 395V336H288V0H32V32L58 43Q83 54 93 68.5Q103 83 103 109V336H19V395H103V591Q103 617 93 631.5Q83 646 58 657L32 668V700H288V395Z" glyph-name="Dcroat" horiz-adv-x="793" unicode="&#272;" /><glyph d="M425 658 321 661V700H374Q436 700 495 702Q554 704 610 708L607 518H572L561 536Q525 608 498 632Q471 656 425 658ZM373 343 287 346V0H31V32L57 43Q82 54 92 68.5Q102 83 102 109V591Q102 617 92 631.5Q82 646 57 657L31 668V700H287V387L373 390Q396 391 408.5 404Q421 417 435 460L448 503H484V231H448L435 274Q421 317 408.5 330Q396 343 373 343ZM627 0H321V40H397Q465 40 505 69.5Q545 99 577 183L597 234H634Z" glyph-name="E" horiz-adv-x="666" unicode="E" /><glyph d="M425 658 321 661V700H374Q436 700 495 702Q554 704 610 708L607 518H572L561 536Q525 608 498 632Q471 656 425 658ZM373 343 287 346V0H31V32L57 43Q82 54 92 68.5Q102 83 102 109V591Q102 617 92 631.5Q82 646 57 657L31 668V700H287V387L373 390Q396 391 408.5 404Q421 417 435 460L448 503H484V231H448L435 274Q421 317 408.5 330Q396 343 373 343ZM627 0H321V40H397Q465 40 505 69.5Q545 99 577 183L597 234H634ZM364 765H307L322 920H493Z" glyph-name="Eacute" horiz-adv-x="666" unicode="&#201;" /><glyph d="M425 658 321 661V700H374Q436 700 495 702Q554 704 610 708L607 518H572L561 536Q525 608 498 632Q471 656 425 658ZM373 343 287 346V0H31V32L57 43Q82 54 92 68.5Q102 83 102 109V591Q102 617 92 631.5Q82 646 57 657L31 668V700H287V387L373 390Q396 391 408.5 404Q421 417 435 460L448 503H484V231H448L435 274Q421 317 408.5 330Q396 343 373 343ZM627 0H321V40H397Q465 40 505 69.5Q545 99 577 183L597 234H634ZM336 764Q266 764 228.5 801.5Q191 839 191 906V936H245V930Q245 899 267.5 884.5Q290 870 336 870Q382 870 404 884.5Q426 899 426 930V936H480V906Q480 839 442.5 801.5Q405 764 336 764Z" glyph-name="Ebreve" horiz-adv-x="666" unicode="&#276;" /><glyph d="M425 658 321 661V700H374Q436 700 495 702Q554 704 610 708L607 518H572L561 536Q525 608 498 632Q471 656 425 658ZM373 343 287 346V0H31V32L57 43Q82 54 92 68.5Q102 83 102 109V591Q102 617 92 631.5Q82 646 57 657L31 668V700H287V387L373 390Q396 391 408.5 404Q421 417 435 460L448 503H484V231H448L435 274Q421 317 408.5 330Q396 343 373 343ZM627 0H321V40H397Q465 40 505 69.5Q545 99 577 183L597 234H634ZM297 765 183 920H250L336 867L422 920H489L375 765Z" glyph-name="Ecaron" horiz-adv-x="666" unicode="&#282;" /><glyph d="M425 658 321 661V700H374Q436 700 495 702Q554 704 610 708L607 518H572L561 536Q525 608 498 632Q471 656 425 658ZM373 343 287 346V0H31V32L57 43Q82 54 92 68.5Q102 83 102 109V591Q102 617 92 631.5Q82 646 57 657L31 668V700H287V387L373 390Q396 391 408.5 404Q421 417 435 460L448 503H484V231H448L435 274Q421 317 408.5 330Q396 343 373 343ZM627 0H321V40H397Q465 40 505 69.5Q545 99 577 183L597 234H634ZM250 765H183L297 920H375L489 765H422L336 818Z" glyph-name="Ecircumflex" horiz-adv-x="666" unicode="&#202;" /><glyph d="M425 658 321 661V700H374Q436 700 495 702Q554 704 610 708L607 518H572L561 536Q525 608 498 632Q471 656 425 658ZM373 343 287 346V0H31V32L57 43Q82 54 92 68.5Q102 83 102 109V591Q102 617 92 631.5Q82 646 57 657L31 668V700H287V387L373 390Q396 391 408.5 404Q421 417 435 460L448 503H484V231H448L435 274Q421 317 408.5 330Q396 343 373 343ZM627 0H321V40H397Q465 40 505 69.5Q545 99 577 183L597 234H634ZM519 852Q519 819 496.5 796Q474 773 442 773Q410 773 387.5 796Q365 819 365 852Q365 884 387.5 907Q410 930 442 930Q474 930 496.5 907Q519 884 519 852ZM320 852Q320 819 297.5 796Q275 773 243 773Q211 773 188.5 796Q166 819 166 852Q166 884 188.5 907Q211 930 243 930Q275 930 297.5 907Q320 884 320 852Z" glyph-name="Edieresis" horiz-adv-x="666" unicode="&#203;" /><glyph d="M425 658 321 661V700H374Q436 700 495 702Q554 704 610 708L607 518H572L561 536Q525 608 498 632Q471 656 425 658ZM373 343 287 346V0H31V32L57 43Q82 54 92 68.5Q102 83 102 109V591Q102 617 92 631.5Q82 646 57 657L31 668V700H287V387L373 390Q396 391 408.5 404Q421 417 435 460L448 503H484V231H448L435 274Q421 317 408.5 330Q396 343 373 343ZM627 0H321V40H397Q465 40 505 69.5Q545 99 577 183L597 234H634ZM419 855Q419 820 394.5 795.5Q370 771 335 771Q301 771 276.5 795.5Q252 820 252 855Q252 890 276.5 915Q301 940 335 940Q370 940 394.5 915Q419 890 419 855Z" glyph-name="Edotaccent" horiz-adv-x="666" unicode="&#278;" /><glyph d="M425 658 321 661V700H374Q436 700 495 702Q554 704 610 708L607 518H572L561 536Q525 608 498 632Q471 656 425 658ZM373 343 287 346V0H31V32L57 43Q82 54 92 68.5Q102 83 102 109V591Q102 617 92 631.5Q82 646 57 657L31 668V700H287V387L373 390Q396 391 408.5 404Q421 417 435 460L448 503H484V231H448L435 274Q421 317 408.5 330Q396 343 373 343ZM627 0H321V40H397Q465 40 505 69.5Q545 99 577 183L597 234H634ZM365 765H308L179 920H350Z" glyph-name="Egrave" horiz-adv-x="666" unicode="&#200;" /><glyph d="M425 658 321 661V700H374Q436 700 495 702Q554 704 610 708L607 518H572L561 536Q525 608 498 632Q471 656 425 658ZM373 343 287 346V0H31V32L57 43Q82 54 92 68.5Q102 83 102 109V591Q102 617 92 631.5Q82 646 57 657L31 668V700H287V387L373 390Q396 391 408.5 404Q421 417 435 460L448 503H484V231H448L435 274Q421 317 408.5 330Q396 343 373 343ZM627 0H321V40H397Q465 40 505 69.5Q545 99 577 183L597 234H634ZM491 780H182V849H491Z" glyph-name="Emacron" horiz-adv-x="666" unicode="&#274;" /><glyph d="M704 591V223L641 299L633 591Q632 619 620 634.5Q608 650 583 657L540 668V700H788V668L750 657Q725 649 714.5 634Q704 619 704 591ZM103 109 114 558 170 490 176 109Q176 82 188.5 66Q201 50 226 43L269 32V0H13V32L51 43Q78 51 90 67Q102 83 103 109ZM547 -243Q495 -243 458.5 -216Q422 -189 422 -148Q422 -121 440 -103Q458 -85 482 -85Q507 -85 523 -101.5Q539 -118 539 -146Q539 -158 532.5 -172.5Q526 -187 517 -195Q521 -196 529 -197Q537 -198 541 -198Q591 -198 621.5 -165Q652 -132 652 -81V-7H626L94 629Q76 646 64.5 653.5Q53 661 43 663L27 667V700H284Q308 665 334.5 629.5Q361 594 389 558L704 173V-81Q704 -155 660 -199Q616 -243 547 -243Z" glyph-name="Eng" horiz-adv-x="801" unicode="&#330;" /><glyph d="M425 658 321 661V700H374Q436 700 495 702Q554 704 610 708L607 518H572L561 536Q525 608 498 632Q471 656 425 658ZM373 343 287 346V0H31V32L57 43Q82 54 92 68.5Q102 83 102 109V591Q102 617 92 631.5Q82 646 57 657L31 668V700H287V387L373 390Q396 391 408.5 404Q421 417 435 460L448 503H484V231H448L435 274Q421 317 408.5 330Q396 343 373 343ZM620 -162 608 -201Q586 -209 566.5 -212.5Q547 -216 530 -216Q480 -216 449 -191Q418 -166 418 -126Q418 -93 442 -60Q466 -27 509 0H321V40H397Q465 40 505 69.5Q545 99 577 183L597 234H634L627 0H570Q551 -32 541 -60Q531 -88 531 -108Q531 -134 550 -148.5Q569 -163 602 -163Q609 -163 614 -162.5Q619 -162 620 -162Z" glyph-name="Eogonek" horiz-adv-x="666" unicode="&#280;" /><glyph d="M561 349Q561 502 501.5 582.5Q442 663 331 663H322V700H364Q540 700 652.5 605Q765 510 765 353Q765 194 653.5 97Q542 0 367 0H322V37H331Q443 37 502 117Q561 197 561 349ZM466 395V336H288V0H32V32L58 43Q83 54 93 68.5Q103 83 103 109V336H19V395H103V591Q103 617 93 631.5Q83 646 58 657L32 668V700H288V395Z" glyph-name="Eth" horiz-adv-x="793" unicode="&#208;" /><glyph d="M447 669V715Q498 714 562.5 703.5Q627 693 653 684L647 515H607L593 547Q569 610 533 639.5Q497 669 447 669ZM413 81V-15Q283 -10 200 59Q117 128 92 248H25V300H85Q84 315 83.5 324Q83 333 83 340Q83 360 84.5 379.5Q86 399 89 418H25V470H101Q134 579 215.5 643Q297 707 413 714V666Q363 656 332 606.5Q301 557 289 470H485V418H284Q283 405 282.5 390.5Q282 376 282 350Q282 341 282.5 330.5Q283 320 284 300H485V248H291Q304 184 335 141.5Q366 99 413 81ZM447 -14V73Q517 65 572 107Q627 149 627 215H674Q674 119 610 56Q546 -7 447 -14Z" glyph-name="Euro" horiz-adv-x="713" unicode="&#8364;" /><glyph d="M424 660 321 662V700H372Q434 700 493.5 702Q553 704 609 708L606 518H571L560 536Q523 610 495.5 634.5Q468 659 424 660ZM31 700H287V365L386 368Q409 369 421.5 381.5Q434 394 448 437L462 480H498V208H462L448 251Q434 295 421.5 307.5Q409 320 386 321L287 324V109Q287 84 299 68.5Q311 53 337 43L368 32V0H31V32L57 43Q82 54 92 68.5Q102 83 102 109V591Q102 617 92 631.5Q82 646 57 657L31 668Z" glyph-name="F" horiz-adv-x="621" unicode="F" /><glyph d="M238 335Q238 208 283.5 128.5Q329 49 409 34V-15Q237 -7 132.5 92.5Q28 192 28 339Q28 510 133.5 610Q239 710 409 715V669Q326 653 282 566.5Q238 480 238 335ZM443 673V715Q499 713 567 706.5Q635 700 692 691L689 501H650L643 524Q620 600 571 636Q522 672 443 673ZM443 -15V30Q491 33 503 42.5Q515 52 515 79V206Q515 233 504.5 248Q494 263 470 272L442 283V315H749V283L733 277Q712 269 704 256.5Q696 244 696 206V82H734V41Q669 16 591.5 1.5Q514 -13 443 -15Z" glyph-name="G" horiz-adv-x="772" unicode="G" /><glyph d="M238 335Q238 208 283.5 128.5Q329 49 409 34V-15Q237 -7 132.5 92.5Q28 192 28 339Q28 510 133.5 610Q239 710 409 715V669Q326 653 282 566.5Q238 480 238 335ZM443 673V715Q499 713 567 706.5Q635 700 692 691L689 501H650L643 524Q620 600 571 636Q522 672 443 673ZM443 -15V30Q491 33 503 42.5Q515 52 515 79V206Q515 233 504.5 248Q494 263 470 272L442 283V315H749V283L733 277Q712 269 704 256.5Q696 244 696 206V82H734V41Q669 16 591.5 1.5Q514 -13 443 -15ZM393 764Q323 764 285.5 801.5Q248 839 248 906V936H302V930Q302 899 324.5 884.5Q347 870 393 870Q439 870 461 884.5Q483 899 483 930V936H537V906Q537 839 499.5 801.5Q462 764 393 764Z" glyph-name="Gbreve" horiz-adv-x="772" unicode="&#286;" /><glyph d="M238 335Q238 208 283.5 128.5Q329 49 409 34V-15Q237 -7 132.5 92.5Q28 192 28 339Q28 510 133.5 610Q239 710 409 715V669Q326 653 282 566.5Q238 480 238 335ZM443 673V715Q499 713 567 706.5Q635 700 692 691L689 501H650L643 524Q620 600 571 636Q522 672 443 673ZM443 -15V30Q491 33 503 42.5Q515 52 515 79V206Q515 233 504.5 248Q494 263 470 272L442 283V315H749V283L733 277Q712 269 704 256.5Q696 244 696 206V82H734V41Q669 16 591.5 1.5Q514 -13 443 -15ZM306 765H239L353 920H431L545 765H478L392 818Z" glyph-name="Gcircumflex" horiz-adv-x="772" unicode="&#284;" /><glyph d="M238 335Q238 208 283.5 128.5Q329 49 409 34V-15Q237 -7 132.5 92.5Q28 192 28 339Q28 510 133.5 610Q239 710 409 715V669Q326 653 282 566.5Q238 480 238 335ZM443 673V715Q499 713 567 706.5Q635 700 692 691L689 501H650L643 524Q620 600 571 636Q522 672 443 673ZM443 -15V30Q491 33 503 42.5Q515 52 515 79V206Q515 233 504.5 248Q494 263 470 272L442 283V315H749V283L733 277Q712 269 704 256.5Q696 244 696 206V82H734V41Q669 16 591.5 1.5Q514 -13 443 -15ZM496 -173Q496 -226 463 -275.5Q430 -325 368 -364L338 -334Q366 -312 387.5 -282.5Q409 -253 422 -218Q415 -222 405.5 -224.5Q396 -227 385 -227Q350 -227 326 -202.5Q302 -178 302 -143Q302 -108 328 -81.5Q354 -55 393 -55Q437 -55 466.5 -89.5Q496 -124 496 -173Z" glyph-name="Gcommaaccent" horiz-adv-x="772" unicode="&#290;" /><glyph d="M238 335Q238 208 283.5 128.5Q329 49 409 34V-15Q237 -7 132.5 92.5Q28 192 28 339Q28 510 133.5 610Q239 710 409 715V669Q326 653 282 566.5Q238 480 238 335ZM443 673V715Q499 713 567 706.5Q635 700 692 691L689 501H650L643 524Q620 600 571 636Q522 672 443 673ZM443 -15V30Q491 33 503 42.5Q515 52 515 79V206Q515 233 504.5 248Q494 263 470 272L442 283V315H749V283L733 277Q712 269 704 256.5Q696 244 696 206V82H734V41Q669 16 591.5 1.5Q514 -13 443 -15ZM476 855Q476 820 451.5 795.5Q427 771 392 771Q358 771 333.5 795.5Q309 820 309 855Q309 890 333.5 915Q358 940 392 940Q427 940 451.5 915Q476 890 476 855Z" glyph-name="Gdotaccent" horiz-adv-x="772" unicode="&#288;" /><glyph d="M740 591V423H555V591Q555 617 545 631.5Q535 646 510 657L484 668V700H811V668L785 657Q759 646 749.5 632Q740 618 740 591ZM358 32V0H31V32L57 43Q82 54 92 68.5Q102 83 102 109V591Q102 617 92 631.5Q82 646 57 657L31 668V700H358V668L332 657Q306 646 296.5 632Q287 618 287 591V109Q287 82 296.5 68Q306 54 332 43ZM321 333V391H740V109Q740 82 749.5 68Q759 54 785 43L811 32V0H484V32L510 43Q535 54 545 68.5Q555 83 555 109V333Z" glyph-name="H" horiz-adv-x="842" unicode="H" /><glyph d="M332 43 358 32V0H31V32L57 43Q82 54 92 68.5Q102 83 102 109V486H36V545H102V591Q102 617 92 631.5Q82 646 57 657L31 668V700H358V668L332 657Q306 646 296.5 632Q287 618 287 591V545H555V591Q555 617 545 631.5Q535 646 510 657L484 668V700H811V668L785 657Q759 646 749.5 632Q740 618 740 591V545H806V486H740V423H555V486H287V109Q287 82 296.5 68Q306 54 332 43ZM321 333V391H740V109Q740 82 749.5 68Q759 54 785 43L811 32V0H484V32L510 43Q535 54 545 68.5Q555 83 555 109V333Z" glyph-name="Hbar" horiz-adv-x="842" unicode="&#294;" /><glyph d="M740 591V423H555V591Q555 617 545 631.5Q535 646 510 657L484 668V700H811V668L785 657Q759 646 749.5 632Q740 618 740 591ZM358 32V0H31V32L57 43Q82 54 92 68.5Q102 83 102 109V591Q102 617 92 631.5Q82 646 57 657L31 668V700H358V668L332 657Q306 646 296.5 632Q287 618 287 591V109Q287 82 296.5 68Q306 54 332 43ZM321 333V391H740V109Q740 82 749.5 68Q759 54 785 43L811 32V0H484V32L510 43Q535 54 545 68.5Q555 83 555 109V333ZM335 765H268L382 920H460L574 765H507L421 818Z" glyph-name="Hcircumflex" horiz-adv-x="842" unicode="&#292;" /><glyph d="M287 591V109Q287 82 296.5 68Q306 54 332 43L358 32V0H31V32L57 43Q82 54 92 68.5Q102 83 102 109V591Q102 617 92 631.5Q82 646 57 657L31 668V700H358V668L332 657Q306 646 296.5 632Q287 618 287 591Z" glyph-name="I" horiz-adv-x="389" unicode="I" /><glyph d="M287 591V109Q287 82 296.5 68Q306 54 332 43L358 32V0H31V32L57 43Q82 54 92 68.5Q102 83 102 109V591Q102 617 92 631.5Q82 646 57 657L31 668V700H358V668L332 657Q306 646 296.5 632Q287 618 287 591ZM669 591V19Q669 -78 613 -131.5Q557 -185 462 -185Q437 -185 411 -180Q385 -175 362 -166L371 -131Q375 -132 378.5 -132Q382 -132 388 -132Q436 -132 460 -106.5Q484 -81 484 -30V591Q484 617 474 631.5Q464 646 439 657L413 668V700H730V668L710 660Q687 651 678 636.5Q669 622 669 591Z" glyph-name="IJ" horiz-adv-x="760" unicode="&#306;" /><glyph d="M287 591V109Q287 82 296.5 68Q306 54 332 43L358 32V0H31V32L57 43Q82 54 92 68.5Q102 83 102 109V591Q102 617 92 631.5Q82 646 57 657L31 668V700H358V668L332 657Q306 646 296.5 632Q287 618 287 591ZM223 765H166L181 920H352Z" glyph-name="Iacute" horiz-adv-x="389" unicode="&#205;" /><glyph d="M287 591V109Q287 82 296.5 68Q306 54 332 43L358 32V0H31V32L57 43Q82 54 92 68.5Q102 83 102 109V591Q102 617 92 631.5Q82 646 57 657L31 668V700H358V668L332 657Q306 646 296.5 632Q287 618 287 591ZM195 764Q125 764 87.5 801.5Q50 839 50 906V936H104V930Q104 899 126.5 884.5Q149 870 195 870Q241 870 263 884.5Q285 899 285 930V936H339V906Q339 839 301.5 801.5Q264 764 195 764Z" glyph-name="Ibreve" horiz-adv-x="389" unicode="&#300;" /><glyph d="M287 591V109Q287 82 296.5 68Q306 54 332 43L358 32V0H31V32L57 43Q82 54 92 68.5Q102 83 102 109V591Q102 617 92 631.5Q82 646 57 657L31 668V700H358V668L332 657Q306 646 296.5 632Q287 618 287 591ZM108 765H41L155 920H233L347 765H280L194 818Z" glyph-name="Icircumflex" horiz-adv-x="389" unicode="&#206;" /><glyph d="M287 591V109Q287 82 296.5 68Q306 54 332 43L358 32V0H31V32L57 43Q82 54 92 68.5Q102 83 102 109V591Q102 617 92 631.5Q82 646 57 657L31 668V700H358V668L332 657Q306 646 296.5 632Q287 618 287 591ZM377 852Q377 819 354.5 796Q332 773 300 773Q268 773 245.5 796Q223 819 223 852Q223 884 245.5 907Q268 930 300 930Q332 930 354.5 907Q377 884 377 852ZM178 852Q178 819 155.5 796Q133 773 101 773Q69 773 46.5 796Q24 819 24 852Q24 884 46.5 907Q69 930 101 930Q133 930 155.5 907Q178 884 178 852Z" glyph-name="Idieresis" horiz-adv-x="389" unicode="&#207;" /><glyph d="M287 591V109Q287 82 296.5 68Q306 54 332 43L358 32V0H31V32L57 43Q82 54 92 68.5Q102 83 102 109V591Q102 617 92 631.5Q82 646 57 657L31 668V700H358V668L332 657Q306 646 296.5 632Q287 618 287 591ZM278 855Q278 820 253.5 795.5Q229 771 194 771Q160 771 135.5 795.5Q111 820 111 855Q111 890 135.5 915Q160 940 194 940Q229 940 253.5 915Q278 890 278 855Z" glyph-name="Idotaccent" horiz-adv-x="389" unicode="&#304;" /><glyph d="M287 591V109Q287 82 296.5 68Q306 54 332 43L358 32V0H31V32L57 43Q82 54 92 68.5Q102 83 102 109V591Q102 617 92 631.5Q82 646 57 657L31 668V700H358V668L332 657Q306 646 296.5 632Q287 618 287 591ZM223 765H166L37 920H208Z" glyph-name="Igrave" horiz-adv-x="389" unicode="&#204;" /><glyph d="M287 591V109Q287 82 296.5 68Q306 54 332 43L358 32V0H31V32L57 43Q82 54 92 68.5Q102 83 102 109V591Q102 617 92 631.5Q82 646 57 657L31 668V700H358V668L332 657Q306 646 296.5 632Q287 618 287 591ZM349 780H40V849H349Z" glyph-name="Imacron" horiz-adv-x="389" unicode="&#298;" /><glyph d="M323 -162 311 -201Q289 -209 269.5 -212.5Q250 -216 233 -216Q183 -216 152 -191Q121 -166 121 -126Q121 -93 145 -60Q169 -27 212 0H31V32L57 43Q82 54 92 68.5Q102 83 102 109V591Q102 617 92 631.5Q82 646 57 657L31 668V700H358V668L332 657Q306 646 296.5 632Q287 618 287 591V109Q287 82 296.5 68Q306 54 332 43L358 32V0H273Q254 -32 244 -60Q234 -88 234 -108Q234 -134 253 -148.5Q272 -163 305 -163Q312 -163 317 -162.5Q322 -162 323 -162Z" glyph-name="Iogonek" horiz-adv-x="389" unicode="&#302;" /><glyph d="M287 591V109Q287 82 296.5 68Q306 54 332 43L358 32V0H31V32L57 43Q82 54 92 68.5Q102 83 102 109V591Q102 617 92 631.5Q82 646 57 657L31 668V700H358V668L332 657Q306 646 296.5 632Q287 618 287 591ZM117 798Q102 798 93.5 791.5Q85 785 76 766L35 779Q39 840 64.5 871Q90 902 137 902Q150 902 167 898.5Q184 895 218 883Q243 874 254 871.5Q265 869 273 869Q288 869 297 875.5Q306 882 314 901L355 888Q351 827 325.5 795.5Q300 764 253 764Q240 764 223.5 767.5Q207 771 174 783Q148 792 136.5 795Q125 798 117 798Z" glyph-name="Itilde" horiz-adv-x="389" unicode="&#296;" /><glyph d="M280 591V19Q280 -78 224 -131.5Q168 -185 73 -185Q48 -185 22 -180Q-4 -175 -27 -166L-18 -131Q-14 -132 -10.5 -132Q-7 -132 -1 -132Q47 -132 71 -106.5Q95 -81 95 -30V591Q95 617 85 631.5Q75 646 50 657L24 668V700H341V668L321 660Q298 651 289 636.5Q280 622 280 591Z" glyph-name="J" horiz-adv-x="371" unicode="J" /><glyph d="M280 591V19Q280 -78 224 -131.5Q168 -185 73 -185Q48 -185 22 -180Q-4 -175 -27 -166L-18 -131Q-14 -132 -10.5 -132Q-7 -132 -1 -132Q47 -132 71 -106.5Q95 -81 95 -30V591Q95 617 85 631.5Q75 646 50 657L24 668V700H341V668L321 660Q298 651 289 636.5Q280 622 280 591ZM103 765H36L150 920H228L342 765H275L189 818Z" glyph-name="Jcircumflex" horiz-adv-x="371" unicode="&#308;" /><glyph d="M576 556 321 318V376L484 558Q516 594 512 620Q508 646 469 657L430 668V700H746V668L725 661Q696 651 662 627.5Q628 604 576 556ZM287 591V109Q287 84 299 68.5Q311 53 337 43L368 32V0H31V32L57 43Q82 54 92 68.5Q102 83 102 109V591Q102 617 92 631.5Q82 646 57 657L31 668V700H358V668L332 657Q306 646 296.5 632Q287 618 287 591ZM468 99 351 298 479 418 614 219Q661 150 695.5 108Q730 66 756 47L778 32V0H628Q571 0 535.5 23Q500 46 468 99Z" glyph-name="K" horiz-adv-x="758" unicode="K" /><glyph d="M576 556 321 318V376L484 558Q516 594 512 620Q508 646 469 657L430 668V700H746V668L725 661Q696 651 662 627.5Q628 604 576 556ZM287 591V109Q287 84 299 68.5Q311 53 337 43L368 32V0H31V32L57 43Q82 54 92 68.5Q102 83 102 109V591Q102 617 92 631.5Q82 646 57 657L31 668V700H358V668L332 657Q306 646 296.5 632Q287 618 287 591ZM468 99 351 298 479 418 614 219Q661 150 695.5 108Q730 66 756 47L778 32V0H628Q571 0 535.5 23Q500 46 468 99ZM478 -173Q478 -226 445 -275.5Q412 -325 350 -364L320 -334Q348 -312 369.5 -282.5Q391 -253 404 -218Q397 -222 387.5 -224.5Q378 -227 367 -227Q332 -227 308 -202.5Q284 -178 284 -143Q284 -108 310 -81.5Q336 -55 375 -55Q419 -55 448.5 -89.5Q478 -124 478 -173Z" glyph-name="Kcommaaccent" horiz-adv-x="758" unicode="&#310;" /><glyph d="M287 591V0H31V32L57 43Q82 54 92 68.5Q102 83 102 109V591Q102 617 92 631.5Q82 646 57 657L31 668V700H368V668L338 657Q311 647 299 631.5Q287 616 287 591ZM624 234 616 0H321V40H387Q454 40 493.5 69.5Q533 99 566 184L586 234Z" glyph-name="L" horiz-adv-x="640" unicode="L" /><glyph d="M287 591V0H31V32L57 43Q82 54 92 68.5Q102 83 102 109V591Q102 617 92 631.5Q82 646 57 657L31 668V700H368V668L338 657Q311 647 299 631.5Q287 616 287 591ZM624 234 616 0H321V40H387Q454 40 493.5 69.5Q533 99 566 184L586 234ZM219 765H162L177 920H348Z" glyph-name="Lacute" horiz-adv-x="640" unicode="&#313;" /><glyph d="M596 583Q596 530 563 480.5Q530 431 468 392L438 422Q466 444 487.5 473.5Q509 503 522 538Q515 534 505.5 531.5Q496 529 485 529Q450 529 426 553.5Q402 578 402 613Q402 648 428 674.5Q454 701 493 701Q537 701 566.5 666.5Q596 632 596 583ZM287 591V0H31V32L57 43Q82 54 92 68.5Q102 83 102 109V591Q102 617 92 631.5Q82 646 57 657L31 668V700H368V668L338 657Q311 647 299 631.5Q287 616 287 591ZM624 234 616 0H321V40H387Q454 40 493.5 69.5Q533 99 566 184L586 234Z" glyph-name="Lcaron" horiz-adv-x="642" unicode="&#317;" /><glyph d="M287 591V0H31V32L57 43Q82 54 92 68.5Q102 83 102 109V591Q102 617 92 631.5Q82 646 57 657L31 668V700H368V668L338 657Q311 647 299 631.5Q287 616 287 591ZM624 234 616 0H321V40H387Q454 40 493.5 69.5Q533 99 566 184L586 234ZM426 -173Q426 -226 393 -275.5Q360 -325 298 -364L268 -334Q296 -312 317.5 -282.5Q339 -253 352 -218Q345 -222 335.5 -224.5Q326 -227 315 -227Q280 -227 256 -202.5Q232 -178 232 -143Q232 -108 258 -81.5Q284 -55 323 -55Q367 -55 396.5 -89.5Q426 -124 426 -173Z" glyph-name="Lcommaaccent" horiz-adv-x="640" unicode="&#315;" /><glyph d="M287 591V0H31V32L57 43Q82 54 92 68.5Q102 83 102 109V591Q102 617 92 631.5Q82 646 57 657L31 668V700H368V668L338 657Q311 647 299 631.5Q287 616 287 591ZM624 234 616 0H321V40H387Q454 40 493.5 69.5Q533 99 566 184L586 234ZM547 338Q547 298 519.5 271Q492 244 452 244Q413 244 385.5 271.5Q358 299 358 338Q358 378 385.5 405.5Q413 433 452 433Q493 433 520 406Q547 379 547 338Z" glyph-name="Ldot" horiz-adv-x="640" unicode="&#319;" /><glyph d="M287 322V0H31V32L57 43Q82 54 92 68.5Q102 83 102 109V258L26 232V282L102 308V591Q102 617 92 631.5Q82 646 57 657L31 668V700H368V668L338 657Q311 647 299 631.5Q287 616 287 591V372L492 442V392ZM624 234 616 0H321V40H387Q454 40 493.5 69.5Q533 99 566 184L586 234Z" glyph-name="Lslash" horiz-adv-x="640" unicode="&#321;" /><glyph d="M683 579 545 204 519 278 628 593Q639 623 634.5 638Q630 653 609 660L587 668V700H937V668L910 658Q885 649 873.5 632.5Q862 616 864 591L892 109Q894 80 905 64Q916 48 937 42L962 32V0H629V32L659 43Q681 51 691 65.5Q701 80 702 109L685 579ZM374 593 525 151 468 0H399L180 579H178L168 109Q167 82 179.5 66Q192 50 218 43L261 32V0H5V32L43 43Q69 51 80.5 66.5Q92 82 94 109L120 590Q122 614 111 631.5Q100 649 75 658L47 668V700H416V668L394 660Q373 653 368.5 638.5Q364 624 374 593Z" glyph-name="M" horiz-adv-x="982" unicode="M" /><glyph d="M704 -7H626L94 629Q76 646 64.5 653.5Q53 661 43 663L27 667V700H284Q308 665 334.5 629.5Q361 594 389 558L704 173ZM704 591V223L641 299L633 591Q632 619 620 634.5Q608 650 583 657L540 668V700H788V668L750 657Q725 649 714.5 634Q704 619 704 591ZM103 109 114 558 170 490 176 109Q176 82 188.5 66Q201 50 226 43L269 32V0H13V32L51 43Q78 51 90 67Q102 83 103 109Z" glyph-name="N" horiz-adv-x="801" unicode="N" /><glyph d="M704 -7H626L94 629Q76 646 64.5 653.5Q53 661 43 663L27 667V700H284Q308 665 334.5 629.5Q361 594 389 558L704 173ZM704 591V223L641 299L633 591Q632 619 620 634.5Q608 650 583 657L540 668V700H788V668L750 657Q725 649 714.5 634Q704 619 704 591ZM103 109 114 558 170 490 176 109Q176 82 188.5 66Q201 50 226 43L269 32V0H13V32L51 43Q78 51 90 67Q102 83 103 109ZM415 765H358L373 920H544Z" glyph-name="Nacute" horiz-adv-x="801" unicode="&#323;" /><glyph d="M704 -7H626L94 629Q76 646 64.5 653.5Q53 661 43 663L27 667V700H284Q308 665 334.5 629.5Q361 594 389 558L704 173ZM704 591V223L641 299L633 591Q632 619 620 634.5Q608 650 583 657L540 668V700H788V668L750 657Q725 649 714.5 634Q704 619 704 591ZM103 109 114 558 170 490 176 109Q176 82 188.5 66Q201 50 226 43L269 32V0H13V32L51 43Q78 51 90 67Q102 83 103 109ZM350 765 236 920H303L389 867L475 920H542L428 765Z" glyph-name="Ncaron" horiz-adv-x="801" unicode="&#327;" /><glyph d="M704 -7H626L94 629Q76 646 64.5 653.5Q53 661 43 663L27 667V700H284Q308 665 334.5 629.5Q361 594 389 558L704 173ZM704 591V223L641 299L633 591Q632 619 620 634.5Q608 650 583 657L540 668V700H788V668L750 657Q725 649 714.5 634Q704 619 704 591ZM103 109 114 558 170 490 176 109Q176 82 188.5 66Q201 50 226 43L269 32V0H13V32L51 43Q78 51 90 67Q102 83 103 109ZM491 -173Q491 -226 458 -275.5Q425 -325 363 -364L333 -334Q361 -312 382.5 -282.5Q404 -253 417 -218Q410 -222 400.5 -224.5Q391 -227 380 -227Q345 -227 321 -202.5Q297 -178 297 -143Q297 -108 323 -81.5Q349 -55 388 -55Q432 -55 461.5 -89.5Q491 -124 491 -173Z" glyph-name="Ncommaaccent" horiz-adv-x="801" unicode="&#325;" /><glyph d="M704 -7H626L94 629Q76 646 64.5 653.5Q53 661 43 663L27 667V700H284Q308 665 334.5 629.5Q361 594 389 558L704 173ZM704 591V223L641 299L633 591Q632 619 620 634.5Q608 650 583 657L540 668V700H788V668L750 657Q725 649 714.5 634Q704 619 704 591ZM103 109 114 558 170 490 176 109Q176 82 188.5 66Q201 50 226 43L269 32V0H13V32L51 43Q78 51 90 67Q102 83 103 109ZM312 798Q297 798 288.5 791.5Q280 785 271 766L230 779Q234 840 259.5 871Q285 902 332 902Q345 902 362 898.5Q379 895 413 883Q438 874 449 871.5Q460 869 468 869Q483 869 492 875.5Q501 882 509 901L550 888Q546 827 520.5 795.5Q495 764 448 764Q435 764 418.5 767.5Q402 771 369 783Q343 792 331.5 795Q320 798 312 798Z" glyph-name="Ntilde" horiz-adv-x="801" unicode="&#209;" /><glyph d="M534 349Q534 509 502.5 586.5Q471 664 403 671V715Q549 708 646.5 603Q744 498 744 349Q744 199 646.5 94Q549 -11 403 -18V26Q471 33 502.5 110.5Q534 188 534 349ZM28 349Q28 498 125.5 603Q223 708 369 715V671Q301 664 269 587Q237 510 237 349Q237 188 269 110.5Q301 33 369 26V-18Q223 -11 125.5 94Q28 199 28 349Z" glyph-name="O" horiz-adv-x="772" unicode="O" /><glyph d="M824 658 720 661V700H773Q835 700 894 702Q953 704 1009 708L1006 518H971L960 536Q924 608 897 632Q870 656 824 658ZM467 37V0H420Q250 0 141.5 96.5Q33 193 33 351V359Q36 512 146 606Q256 700 420 700H467V661H437Q328 661 276.5 584.5Q225 508 225 349V344Q227 199 292 119Q357 39 467 37ZM686 700V387L772 390Q795 391 807.5 404Q820 417 834 460L847 503H883V231H847L834 274Q822 313 809.5 326.5Q797 340 772 343L686 346V0H501V700ZM1026 0H720V40H796Q864 40 904 69.5Q944 99 976 183L996 234H1033Z" glyph-name="OE" horiz-adv-x="1070" unicode="&#338;" /><glyph d="M534 349Q534 509 502.5 586.5Q471 664 403 671V715Q549 708 646.5 603Q744 498 744 349Q744 199 646.5 94Q549 -11 403 -18V26Q471 33 502.5 110.5Q534 188 534 349ZM28 349Q28 498 125.5 603Q223 708 369 715V671Q301 664 269 587Q237 510 237 349Q237 188 269 110.5Q301 33 369 26V-18Q223 -11 125.5 94Q28 199 28 349ZM415 765H358L373 920H544Z" glyph-name="Oacute" horiz-adv-x="772" unicode="&#211;" /><glyph d="M534 349Q534 509 502.5 586.5Q471 664 403 671V715Q549 708 646.5 603Q744 498 744 349Q744 199 646.5 94Q549 -11 403 -18V26Q471 33 502.5 110.5Q534 188 534 349ZM28 349Q28 498 125.5 603Q223 708 369 715V671Q301 664 269 587Q237 510 237 349Q237 188 269 110.5Q301 33 369 26V-18Q223 -11 125.5 94Q28 199 28 349ZM386 764Q316 764 278.5 801.5Q241 839 241 906V936H295V930Q295 899 317.5 884.5Q340 870 386 870Q432 870 454 884.5Q476 899 476 930V936H530V906Q530 839 492.5 801.5Q455 764 386 764Z" glyph-name="Obreve" horiz-adv-x="772" unicode="&#334;" /><glyph d="M534 349Q534 509 502.5 586.5Q471 664 403 671V715Q549 708 646.5 603Q744 498 744 349Q744 199 646.5 94Q549 -11 403 -18V26Q471 33 502.5 110.5Q534 188 534 349ZM28 349Q28 498 125.5 603Q223 708 369 715V671Q301 664 269 587Q237 510 237 349Q237 188 269 110.5Q301 33 369 26V-18Q223 -11 125.5 94Q28 199 28 349ZM300 765H233L347 920H425L539 765H472L386 818Z" glyph-name="Ocircumflex" horiz-adv-x="772" unicode="&#212;" /><glyph d="M534 349Q534 509 502.5 586.5Q471 664 403 671V715Q549 708 646.5 603Q744 498 744 349Q744 199 646.5 94Q549 -11 403 -18V26Q471 33 502.5 110.5Q534 188 534 349ZM28 349Q28 498 125.5 603Q223 708 369 715V671Q301 664 269 587Q237 510 237 349Q237 188 269 110.5Q301 33 369 26V-18Q223 -11 125.5 94Q28 199 28 349ZM569 852Q569 819 546.5 796Q524 773 492 773Q460 773 437.5 796Q415 819 415 852Q415 884 437.5 907Q460 930 492 930Q524 930 546.5 907Q569 884 569 852ZM370 852Q370 819 347.5 796Q325 773 293 773Q261 773 238.5 796Q216 819 216 852Q216 884 238.5 907Q261 930 293 930Q325 930 347.5 907Q370 884 370 852Z" glyph-name="Odieresis" horiz-adv-x="772" unicode="&#214;" /><glyph d="M534 349Q534 509 502.5 586.5Q471 664 403 671V715Q549 708 646.5 603Q744 498 744 349Q744 199 646.5 94Q549 -11 403 -18V26Q471 33 502.5 110.5Q534 188 534 349ZM28 349Q28 498 125.5 603Q223 708 369 715V671Q301 664 269 587Q237 510 237 349Q237 188 269 110.5Q301 33 369 26V-18Q223 -11 125.5 94Q28 199 28 349ZM415 765H358L229 920H400Z" glyph-name="Ograve" horiz-adv-x="772" unicode="&#210;" /><glyph d="M534 349Q534 509 502.5 586.5Q471 664 403 671V715Q549 708 646.5 603Q744 498 744 349Q744 199 646.5 94Q549 -11 403 -18V26Q471 33 502.5 110.5Q534 188 534 349ZM28 349Q28 498 125.5 603Q223 708 369 715V671Q301 664 269 587Q237 510 237 349Q237 188 269 110.5Q301 33 369 26V-18Q223 -11 125.5 94Q28 199 28 349ZM511 765H454L469 920H640ZM310 765H253L268 920H439Z" glyph-name="Ohungarumlaut" horiz-adv-x="772" unicode="&#336;" /><glyph d="M534 349Q534 509 502.5 586.5Q471 664 403 671V715Q549 708 646.5 603Q744 498 744 349Q744 199 646.5 94Q549 -11 403 -18V26Q471 33 502.5 110.5Q534 188 534 349ZM28 349Q28 498 125.5 603Q223 708 369 715V671Q301 664 269 587Q237 510 237 349Q237 188 269 110.5Q301 33 369 26V-18Q223 -11 125.5 94Q28 199 28 349ZM541 780H232V849H541Z" glyph-name="Omacron" horiz-adv-x="772" unicode="&#332;" /><glyph d="M303 351Q303 296 265.5 257.5Q228 219 174 219Q120 219 82.5 257.5Q45 296 45 351Q45 406 82.5 444.5Q120 483 174 483Q228 483 265.5 444.5Q303 406 303 351Z" glyph-name="Omega" horiz-adv-x="348" unicode="&#8486;" /><glyph d="M369 26V-18Q319 -16 271.5 0Q224 16 183 44L118 -40L79 -9L144 76Q88 128 58 199Q28 270 28 349Q28 498 125.5 603Q223 708 369 715V671Q301 664 269 587Q237 510 237 349Q237 311 239 275.5Q241 240 245 207L513 556Q498 609 470.5 638Q443 667 403 671V715Q453 713 500 697.5Q547 682 588 654L655 742L694 710L627 623Q683 571 713.5 500Q744 429 744 349Q744 199 646.5 94Q549 -11 403 -18V26Q471 33 502.5 110.5Q534 188 534 349Q534 388 532 423.5Q530 459 526 491L258 142Q273 88 300.5 59Q328 30 369 26Z" glyph-name="Oslash" horiz-adv-x="772" unicode="&#216;" /><glyph d="M534 349Q534 509 502.5 586.5Q471 664 403 671V715Q549 708 646.5 603Q744 498 744 349Q744 199 646.5 94Q549 -11 403 -18V26Q471 33 502.5 110.5Q534 188 534 349ZM28 349Q28 498 125.5 603Q223 708 369 715V671Q301 664 269 587Q237 510 237 349Q237 188 269 110.5Q301 33 369 26V-18Q223 -11 125.5 94Q28 199 28 349ZM308 798Q293 798 284.5 791.5Q276 785 267 766L226 779Q230 840 255.5 871Q281 902 328 902Q341 902 358 898.5Q375 895 409 883Q434 874 445 871.5Q456 869 464 869Q479 869 488 875.5Q497 882 505 901L546 888Q542 827 516.5 795.5Q491 764 444 764Q431 764 414.5 767.5Q398 771 365 783Q339 792 327.5 795Q316 798 308 798Z" glyph-name="Otilde" horiz-adv-x="772" unicode="&#213;" /><glyph d="M636 493Q636 397 561 342Q486 287 356 287H321V324Q380 325 411.5 369.5Q443 414 443 493Q443 572 411.5 617Q380 662 321 663V700H356Q486 700 561 644.5Q636 589 636 493ZM287 700V109Q287 84 299 68.5Q311 53 337 43L368 32V0H31V32L57 43Q82 54 92 68.5Q102 83 102 109V591Q102 617 92 631.5Q82 646 57 657L31 668V700Z" glyph-name="P" horiz-adv-x="649" unicode="P" /><glyph d="M656 -183Q605 -183 560.5 -161Q516 -139 471 -95L401 -26V26Q469 33 500.5 110.5Q532 188 532 349Q532 509 500.5 586.5Q469 664 401 671V715Q547 708 644.5 603Q742 498 742 349Q742 246 693.5 160Q645 74 560 27L660 -47Q712 -80 749 -94Q786 -108 817 -108Q823 -109 831 -108.5Q839 -108 850 -106V-143Q821 -158 763 -170.5Q705 -183 656 -183ZM26 349Q26 498 123.5 603Q221 708 367 715V671Q299 664 267 587Q235 510 235 349Q235 188 267 110.5Q299 33 367 26V-18Q221 -11 123.5 94Q26 199 26 349Z" glyph-name="Q" horiz-adv-x="772" unicode="Q" /><glyph d="M29 700H285V109Q285 84 297 68.5Q309 53 335 43L366 32V0H29V32L55 43Q80 54 90 68.5Q100 83 100 109V591Q100 617 90 631.5Q80 646 55 657L29 668ZM654 516Q654 430 577.5 378.5Q501 327 377 327H310V364H312Q385 364 424 403.5Q463 443 463 512Q463 585 428 624Q393 663 326 663H319V700H387Q509 700 581.5 650.5Q654 601 654 516ZM430 103 325 295Q383 291 438 297Q493 303 516 314L584 207Q624 146 654.5 107.5Q685 69 716 43L731 32V0H591Q535 0 498 24.5Q461 49 430 103Z" glyph-name="R" horiz-adv-x="722" unicode="R" /><glyph d="M29 700H285V109Q285 84 297 68.5Q309 53 335 43L366 32V0H29V32L55 43Q80 54 90 68.5Q100 83 100 109V591Q100 617 90 631.5Q80 646 55 657L29 668ZM654 516Q654 430 577.5 378.5Q501 327 377 327H310V364H312Q385 364 424 403.5Q463 443 463 512Q463 585 428 624Q393 663 326 663H319V700H387Q509 700 581.5 650.5Q654 601 654 516ZM430 103 325 295Q383 291 438 297Q493 303 516 314L584 207Q624 146 654.5 107.5Q685 69 716 43L731 32V0H591Q535 0 498 24.5Q461 49 430 103ZM373 765H316L331 920H502Z" glyph-name="Racute" horiz-adv-x="722" unicode="&#340;" /><glyph d="M29 700H285V109Q285 84 297 68.5Q309 53 335 43L366 32V0H29V32L55 43Q80 54 90 68.5Q100 83 100 109V591Q100 617 90 631.5Q80 646 55 657L29 668ZM654 516Q654 430 577.5 378.5Q501 327 377 327H310V364H312Q385 364 424 403.5Q463 443 463 512Q463 585 428 624Q393 663 326 663H319V700H387Q509 700 581.5 650.5Q654 601 654 516ZM430 103 325 295Q383 291 438 297Q493 303 516 314L584 207Q624 146 654.5 107.5Q685 69 716 43L731 32V0H591Q535 0 498 24.5Q461 49 430 103ZM300 765 186 920H253L339 867L425 920H492L378 765Z" glyph-name="Rcaron" horiz-adv-x="722" unicode="&#344;" /><glyph d="M29 700H285V109Q285 84 297 68.5Q309 53 335 43L366 32V0H29V32L55 43Q80 54 90 68.5Q100 83 100 109V591Q100 617 90 631.5Q80 646 55 657L29 668ZM654 516Q654 430 577.5 378.5Q501 327 377 327H310V364H312Q385 364 424 403.5Q463 443 463 512Q463 585 428 624Q393 663 326 663H319V700H387Q509 700 581.5 650.5Q654 601 654 516ZM430 103 325 295Q383 291 438 297Q493 303 516 314L584 207Q624 146 654.5 107.5Q685 69 716 43L731 32V0H591Q535 0 498 24.5Q461 49 430 103ZM486 -173Q486 -226 453 -275.5Q420 -325 358 -364L328 -334Q356 -312 377.5 -282.5Q399 -253 412 -218Q405 -222 395.5 -224.5Q386 -227 375 -227Q340 -227 316 -202.5Q292 -178 292 -143Q292 -108 318 -81.5Q344 -55 383 -55Q427 -55 456.5 -89.5Q486 -124 486 -173Z" glyph-name="Rcommaaccent" horiz-adv-x="722" unicode="&#342;" /><glyph d="M567 217Q567 119 495.5 55.5Q424 -8 308 -14V30Q350 36 376.5 64Q403 92 403 127Q403 160 388.5 183.5Q374 207 341 227Q328 236 309.5 245Q291 254 228 282Q128 326 85.5 379Q43 432 43 504Q43 595 118.5 656Q194 717 315 715V671Q272 667 244 638.5Q216 610 216 573Q216 535 243 506.5Q270 478 348 443Q413 415 443.5 397.5Q474 380 496 363Q532 333 549.5 297.5Q567 262 567 217ZM349 671V714Q393 711 446 705Q499 699 528 694L518 525H474Q457 592 426 628.5Q395 665 349 671ZM274 29V-15Q211 -14 152 -2Q93 10 47 31L52 233H97Q120 137 165 85Q210 33 274 29Z" glyph-name="S" horiz-adv-x="596" unicode="S" /><glyph d="M567 217Q567 119 495.5 55.5Q424 -8 308 -14V30Q350 36 376.5 64Q403 92 403 127Q403 160 388.5 183.5Q374 207 341 227Q328 236 309.5 245Q291 254 228 282Q128 326 85.5 379Q43 432 43 504Q43 595 118.5 656Q194 717 315 715V671Q272 667 244 638.5Q216 610 216 573Q216 535 243 506.5Q270 478 348 443Q413 415 443.5 397.5Q474 380 496 363Q532 333 549.5 297.5Q567 262 567 217ZM349 671V714Q393 711 446 705Q499 699 528 694L518 525H474Q457 592 426 628.5Q395 665 349 671ZM274 29V-15Q211 -14 152 -2Q93 10 47 31L52 233H97Q120 137 165 85Q210 33 274 29ZM331 765H274L289 920H460Z" glyph-name="Sacute" horiz-adv-x="596" unicode="&#346;" /><glyph d="M567 217Q567 119 495.5 55.5Q424 -8 308 -14V30Q350 36 376.5 64Q403 92 403 127Q403 160 388.5 183.5Q374 207 341 227Q328 236 309.5 245Q291 254 228 282Q128 326 85.5 379Q43 432 43 504Q43 595 118.5 656Q194 717 315 715V671Q272 667 244 638.5Q216 610 216 573Q216 535 243 506.5Q270 478 348 443Q413 415 443.5 397.5Q474 380 496 363Q532 333 549.5 297.5Q567 262 567 217ZM349 671V714Q393 711 446 705Q499 699 528 694L518 525H474Q457 592 426 628.5Q395 665 349 671ZM274 29V-15Q211 -14 152 -2Q93 10 47 31L52 233H97Q120 137 165 85Q210 33 274 29ZM263 765 149 920H216L302 867L388 920H455L341 765Z" glyph-name="Scaron" horiz-adv-x="596" unicode="&#352;" /><glyph d="M349 671V714Q393 711 446 705Q499 699 528 694L518 525H474Q457 592 426 628.5Q395 665 349 671ZM227 -88 224 -79 308 30 319 33V32Q356 41 379.5 68Q403 95 403 127Q403 160 388.5 183.5Q374 207 341 227Q328 236 309.5 245Q291 254 228 282Q128 326 85.5 379Q43 432 43 504Q43 595 118.5 656Q194 717 315 715V671Q272 667 244 638.5Q216 610 216 573Q216 535 243 506.5Q270 478 348 443Q413 415 443.5 397.5Q474 380 496 363Q532 333 549.5 297.5Q567 262 567 217Q567 124 501.5 61.5Q436 -1 327 -13L333 -50Q379 -58 409.5 -84Q440 -110 440 -148Q440 -191 402 -219.5Q364 -248 300 -248Q266 -248 231.5 -236.5Q197 -225 179 -210L197 -174Q213 -180 226.5 -182.5Q240 -185 252 -185Q284 -185 301 -173.5Q318 -162 318 -141Q318 -119 292.5 -104Q267 -89 227 -88ZM269 29V-15Q209 -14 151 -2Q93 10 47 31L52 233H97Q120 137 163.5 85Q207 33 269 29Z" glyph-name="Scedilla" horiz-adv-x="596" unicode="&#350;" /><glyph d="M567 217Q567 119 495.5 55.5Q424 -8 308 -14V30Q350 36 376.5 64Q403 92 403 127Q403 160 388.5 183.5Q374 207 341 227Q328 236 309.5 245Q291 254 228 282Q128 326 85.5 379Q43 432 43 504Q43 595 118.5 656Q194 717 315 715V671Q272 667 244 638.5Q216 610 216 573Q216 535 243 506.5Q270 478 348 443Q413 415 443.5 397.5Q474 380 496 363Q532 333 549.5 297.5Q567 262 567 217ZM349 671V714Q393 711 446 705Q499 699 528 694L518 525H474Q457 592 426 628.5Q395 665 349 671ZM274 29V-15Q211 -14 152 -2Q93 10 47 31L52 233H97Q120 137 165 85Q210 33 274 29ZM216 765H149L263 920H341L455 765H388L302 818Z" glyph-name="Scircumflex" horiz-adv-x="596" unicode="&#348;" /><glyph d="M567 217Q567 119 495.5 55.5Q424 -8 308 -14V30Q350 36 376.5 64Q403 92 403 127Q403 160 388.5 183.5Q374 207 341 227Q328 236 309.5 245Q291 254 228 282Q128 326 85.5 379Q43 432 43 504Q43 595 118.5 656Q194 717 315 715V671Q272 667 244 638.5Q216 610 216 573Q216 535 243 506.5Q270 478 348 443Q413 415 443.5 397.5Q474 380 496 363Q532 333 549.5 297.5Q567 262 567 217ZM349 671V714Q393 711 446 705Q499 699 528 694L518 525H474Q457 592 426 628.5Q395 665 349 671ZM274 29V-15Q211 -14 152 -2Q93 10 47 31L52 233H97Q120 137 165 85Q210 33 274 29ZM416 -174Q416 -227 383 -276.5Q350 -326 288 -365L258 -335Q286 -313 307.5 -283.5Q329 -254 342 -219Q335 -223 325.5 -225.5Q316 -228 305 -228Q270 -228 246 -203.5Q222 -179 222 -144Q222 -109 248 -82.5Q274 -56 313 -56Q357 -56 386.5 -90.5Q416 -125 416 -174Z" glyph-name="Scommaaccent" horiz-adv-x="596" unicode="&#536;" /><glyph d="M674 498H639L624 526Q574 620 548.5 640.5Q523 661 477 661H471V700H674ZM65 526 50 498H15V700H218V661H212Q166 661 140.5 640.5Q115 620 65 526ZM252 109V700H437V109Q437 84 449 68.5Q461 53 487 43L517 32V0H171V32L201 43Q228 53 240 68.5Q252 84 252 109Z" glyph-name="T" horiz-adv-x="688" unicode="T" /><glyph d="M674 498H639L624 526Q574 620 548.5 640.5Q523 661 477 661H471V700H674ZM65 526 50 498H15V700H218V661H212Q166 661 140.5 640.5Q115 620 65 526ZM487 43 517 32V0H171V32L201 43Q228 53 240 68.5Q252 84 252 109V333H156V391H252V700H437V391H533V333H437V109Q437 84 449 68.5Q461 53 487 43Z" glyph-name="Tbar" horiz-adv-x="688" unicode="&#358;" /><glyph d="M674 498H639L624 526Q574 620 548.5 640.5Q523 661 477 661H471V700H674ZM65 526 50 498H15V700H218V661H212Q166 661 140.5 640.5Q115 620 65 526ZM252 109V700H437V109Q437 84 449 68.5Q461 53 487 43L517 32V0H171V32L201 43Q228 53 240 68.5Q252 84 252 109ZM305 765 191 920H258L344 867L430 920H497L383 765Z" glyph-name="Tcaron" horiz-adv-x="688" unicode="&#356;" /><glyph d="M65 526 50 498H15V700H218V661H212Q166 661 140.5 640.5Q115 620 65 526ZM674 498H639L624 526Q574 620 548.5 640.5Q523 661 477 661H471V700H674ZM441 -148Q441 -191 403 -219.5Q365 -248 301 -248Q267 -248 232.5 -236.5Q198 -225 181 -210L199 -174Q215 -180 228 -182.5Q241 -185 254 -185Q285 -185 302.5 -173.5Q320 -162 320 -141Q320 -119 294 -104Q268 -89 228 -88L226 -79L303 0H171V32L201 43Q228 53 240 68.5Q252 84 252 109V700H437V109Q437 84 449 68.5Q461 53 487 43L517 32V0H355L321 -49Q370 -53 405.5 -79.5Q441 -106 441 -148Z" glyph-name="Tcedilla" horiz-adv-x="688" /><glyph d="M674 498H639L624 526Q574 620 548.5 640.5Q523 661 477 661H471V700H674ZM65 526 50 498H15V700H218V661H212Q166 661 140.5 640.5Q115 620 65 526ZM252 109V700H437V109Q437 84 449 68.5Q461 53 487 43L517 32V0H171V32L201 43Q228 53 240 68.5Q252 84 252 109ZM448 -174Q448 -227 415 -276.5Q382 -326 320 -365L290 -335Q318 -313 339.5 -283.5Q361 -254 374 -219Q367 -223 357.5 -225.5Q348 -228 337 -228Q302 -228 278 -203.5Q254 -179 254 -144Q254 -109 280 -82.5Q306 -56 345 -56Q389 -56 418.5 -90.5Q448 -125 448 -174Z" glyph-name="Tcommaaccent" horiz-adv-x="688" unicode="&#354;" /><glyph d="M368 0H31V32L57 43Q82 54 92 68.5Q102 83 102 109V591Q102 617 92 631.5Q82 646 57 657L31 668V700H370V668L338 657Q311 647 299 631.5Q287 616 287 591V109Q287 84 299 68.5Q311 53 337 43L368 32ZM638 345Q638 249 563 193.5Q488 138 358 138H318V175Q380 175 412.5 219.5Q445 264 445 345Q445 426 412.5 470.5Q380 515 318 515V552H358Q488 552 563 496.5Q638 441 638 345Z" glyph-name="Thorn" horiz-adv-x="650" unicode="&#222;" /><glyph d="M385 76Q412 76 439.5 81.5Q467 87 482 95V47Q447 18 402.5 1.5Q358 -15 314 -15Q203 -15 145.5 44.5Q88 104 88 219V591Q88 618 78.5 632Q69 646 43 657L18 668V700H344V668L318 657Q293 646 283 631.5Q273 617 273 591V206Q273 142 302 109Q331 76 385 76ZM772 0H516V591Q516 618 506.5 632Q497 646 471 657L445 668V700H772V668L746 657Q721 646 711 631.5Q701 617 701 591V109Q701 83 711 68.5Q721 54 746 43L772 32Z" glyph-name="U" horiz-adv-x="803" unicode="U" /><glyph d="M426 57V-14Q272 -31 179.5 43.5Q87 118 87 256V591Q87 618 77.5 632Q68 646 42 657L16 668V700H343V668L317 657Q292 646 282 631.5Q272 617 272 591V240Q272 157 311.5 109.5Q351 62 426 57ZM458 -9V58Q527 63 569.5 107.5Q612 152 612 223V591Q612 618 602.5 632Q593 646 567 657L541 668V700H747V668L721 657Q696 646 686 631.5Q676 617 676 591V242Q676 138 620 72.5Q564 7 458 -9Z" glyph-name="U.alt" horiz-adv-x="762" /><glyph d="M385 76Q412 76 439.5 81.5Q467 87 482 95V47Q447 18 402.5 1.5Q358 -15 314 -15Q203 -15 145.5 44.5Q88 104 88 219V591Q88 618 78.5 632Q69 646 43 657L18 668V700H344V668L318 657Q293 646 283 631.5Q273 617 273 591V206Q273 142 302 109Q331 76 385 76ZM772 0H516V591Q516 618 506.5 632Q497 646 471 657L445 668V700H772V668L746 657Q721 646 711 631.5Q701 617 701 591V109Q701 83 711 68.5Q721 54 746 43L772 32ZM423 765H366L381 920H552Z" glyph-name="Uacute" horiz-adv-x="803" unicode="&#218;" /><glyph d="M436 765H379L394 920H565ZM426 57V-14Q272 -31 179.5 43.5Q87 118 87 256V591Q87 618 77.5 632Q68 646 42 657L16 668V700H343V668L317 657Q292 646 282 631.5Q272 617 272 591V240Q272 157 311.5 109.5Q351 62 426 57ZM458 -9V58Q527 63 569.5 107.5Q612 152 612 223V591Q612 618 602.5 632Q593 646 567 657L541 668V700H747V668L721 657Q696 646 686 631.5Q676 617 676 591V242Q676 138 620 72.5Q564 7 458 -9Z" glyph-name="Uacute.alt" horiz-adv-x="762" /><glyph d="M385 76Q412 76 439.5 81.5Q467 87 482 95V47Q447 18 402.5 1.5Q358 -15 314 -15Q203 -15 145.5 44.5Q88 104 88 219V591Q88 618 78.5 632Q69 646 43 657L18 668V700H344V668L318 657Q293 646 283 631.5Q273 617 273 591V206Q273 142 302 109Q331 76 385 76ZM772 0H516V591Q516 618 506.5 632Q497 646 471 657L445 668V700H772V668L746 657Q721 646 711 631.5Q701 617 701 591V109Q701 83 711 68.5Q721 54 746 43L772 32ZM395 764Q325 764 287.5 801.5Q250 839 250 906V936H304V930Q304 899 326.5 884.5Q349 870 395 870Q441 870 463 884.5Q485 899 485 930V936H539V906Q539 839 501.5 801.5Q464 764 395 764Z" glyph-name="Ubreve" horiz-adv-x="803" unicode="&#364;" /><glyph d="M407 764Q337 764 299.5 801.5Q262 839 262 906V936H316V930Q316 899 338.5 884.5Q361 870 407 870Q453 870 475 884.5Q497 899 497 930V936H551V906Q551 839 513.5 801.5Q476 764 407 764ZM426 57V-14Q272 -31 179.5 43.5Q87 118 87 256V591Q87 618 77.5 632Q68 646 42 657L16 668V700H343V668L317 657Q292 646 282 631.5Q272 617 272 591V240Q272 157 311.5 109.5Q351 62 426 57ZM458 -9V58Q527 63 569.5 107.5Q612 152 612 223V591Q612 618 602.5 632Q593 646 567 657L541 668V700H747V668L721 657Q696 646 686 631.5Q676 617 676 591V242Q676 138 620 72.5Q564 7 458 -9Z" glyph-name="Ubreve.alt" horiz-adv-x="762" /><glyph d="M385 76Q412 76 439.5 81.5Q467 87 482 95V47Q447 18 402.5 1.5Q358 -15 314 -15Q203 -15 145.5 44.5Q88 104 88 219V591Q88 618 78.5 632Q69 646 43 657L18 668V700H344V668L318 657Q293 646 283 631.5Q273 617 273 591V206Q273 142 302 109Q331 76 385 76ZM772 0H516V591Q516 618 506.5 632Q497 646 471 657L445 668V700H772V668L746 657Q721 646 711 631.5Q701 617 701 591V109Q701 83 711 68.5Q721 54 746 43L772 32ZM309 765H242L356 920H434L548 765H481L395 818Z" glyph-name="Ucircumflex" horiz-adv-x="803" unicode="&#219;" /><glyph d="M320 765H253L367 920H445L559 765H492L406 818ZM426 57V-14Q272 -31 179.5 43.5Q87 118 87 256V591Q87 618 77.5 632Q68 646 42 657L16 668V700H343V668L317 657Q292 646 282 631.5Q272 617 272 591V240Q272 157 311.5 109.5Q351 62 426 57ZM458 -9V58Q527 63 569.5 107.5Q612 152 612 223V591Q612 618 602.5 632Q593 646 567 657L541 668V700H747V668L721 657Q696 646 686 631.5Q676 617 676 591V242Q676 138 620 72.5Q564 7 458 -9Z" glyph-name="Ucircumflex.alt" horiz-adv-x="762" /><glyph d="M385 76Q412 76 439.5 81.5Q467 87 482 95V47Q447 18 402.5 1.5Q358 -15 314 -15Q203 -15 145.5 44.5Q88 104 88 219V591Q88 618 78.5 632Q69 646 43 657L18 668V700H344V668L318 657Q293 646 283 631.5Q273 617 273 591V206Q273 142 302 109Q331 76 385 76ZM772 0H516V591Q516 618 506.5 632Q497 646 471 657L445 668V700H772V668L746 657Q721 646 711 631.5Q701 617 701 591V109Q701 83 711 68.5Q721 54 746 43L772 32ZM578 852Q578 819 555.5 796Q533 773 501 773Q469 773 446.5 796Q424 819 424 852Q424 884 446.5 907Q469 930 501 930Q533 930 555.5 907Q578 884 578 852ZM379 852Q379 819 356.5 796Q334 773 302 773Q270 773 247.5 796Q225 819 225 852Q225 884 247.5 907Q270 930 302 930Q334 930 356.5 907Q379 884 379 852Z" glyph-name="Udieresis" horiz-adv-x="803" unicode="&#220;" /><glyph d="M589 852Q589 819 566.5 796Q544 773 512 773Q480 773 457.5 796Q435 819 435 852Q435 884 457.5 907Q480 930 512 930Q544 930 566.5 907Q589 884 589 852ZM390 852Q390 819 367.5 796Q345 773 313 773Q281 773 258.5 796Q236 819 236 852Q236 884 258.5 907Q281 930 313 930Q345 930 367.5 907Q390 884 390 852ZM426 57V-14Q272 -31 179.5 43.5Q87 118 87 256V591Q87 618 77.5 632Q68 646 42 657L16 668V700H343V668L317 657Q292 646 282 631.5Q272 617 272 591V240Q272 157 311.5 109.5Q351 62 426 57ZM458 -9V58Q527 63 569.5 107.5Q612 152 612 223V591Q612 618 602.5 632Q593 646 567 657L541 668V700H747V668L721 657Q696 646 686 631.5Q676 617 676 591V242Q676 138 620 72.5Q564 7 458 -9Z" glyph-name="Udieresis.alt" horiz-adv-x="762" /><glyph d="M385 76Q412 76 439.5 81.5Q467 87 482 95V47Q447 18 402.5 1.5Q358 -15 314 -15Q203 -15 145.5 44.5Q88 104 88 219V591Q88 618 78.5 632Q69 646 43 657L18 668V700H344V668L318 657Q293 646 283 631.5Q273 617 273 591V206Q273 142 302 109Q331 76 385 76ZM772 0H516V591Q516 618 506.5 632Q497 646 471 657L445 668V700H772V668L746 657Q721 646 711 631.5Q701 617 701 591V109Q701 83 711 68.5Q721 54 746 43L772 32ZM424 765H367L238 920H409Z" glyph-name="Ugrave" horiz-adv-x="803" unicode="&#217;" /><glyph d="M426 57V-14Q272 -31 179.5 43.5Q87 118 87 256V591Q87 618 77.5 632Q68 646 42 657L16 668V700H343V668L317 657Q292 646 282 631.5Q272 617 272 591V240Q272 157 311.5 109.5Q351 62 426 57ZM458 -9V58Q527 63 569.5 107.5Q612 152 612 223V591Q612 618 602.5 632Q593 646 567 657L541 668V700H747V668L721 657Q696 646 686 631.5Q676 617 676 591V242Q676 138 620 72.5Q564 7 458 -9ZM463 765H406L277 920H448Z" glyph-name="Ugrave.alt" horiz-adv-x="762" /><glyph d="M385 76Q412 76 439.5 81.5Q467 87 482 95V47Q447 18 402.5 1.5Q358 -15 314 -15Q203 -15 145.5 44.5Q88 104 88 219V591Q88 618 78.5 632Q69 646 43 657L18 668V700H344V668L318 657Q293 646 283 631.5Q273 617 273 591V206Q273 142 302 109Q331 76 385 76ZM772 0H516V591Q516 618 506.5 632Q497 646 471 657L445 668V700H772V668L746 657Q721 646 711 631.5Q701 617 701 591V109Q701 83 711 68.5Q721 54 746 43L772 32ZM520 765H463L478 920H649ZM319 765H262L277 920H448Z" glyph-name="Uhungarumlaut" horiz-adv-x="803" unicode="&#368;" /><glyph d="M532 765H475L490 920H661ZM331 765H274L289 920H460ZM426 57V-14Q272 -31 179.5 43.5Q87 118 87 256V591Q87 618 77.5 632Q68 646 42 657L16 668V700H343V668L317 657Q292 646 282 631.5Q272 617 272 591V240Q272 157 311.5 109.5Q351 62 426 57ZM458 -9V58Q527 63 569.5 107.5Q612 152 612 223V591Q612 618 602.5 632Q593 646 567 657L541 668V700H747V668L721 657Q696 646 686 631.5Q676 617 676 591V242Q676 138 620 72.5Q564 7 458 -9Z" glyph-name="Uhungarumlaut.alt" horiz-adv-x="762" /><glyph d="M385 76Q412 76 439.5 81.5Q467 87 482 95V47Q447 18 402.5 1.5Q358 -15 314 -15Q203 -15 145.5 44.5Q88 104 88 219V591Q88 618 78.5 632Q69 646 43 657L18 668V700H344V668L318 657Q293 646 283 631.5Q273 617 273 591V206Q273 142 302 109Q331 76 385 76ZM772 0H516V591Q516 618 506.5 632Q497 646 471 657L445 668V700H772V668L746 657Q721 646 711 631.5Q701 617 701 591V109Q701 83 711 68.5Q721 54 746 43L772 32ZM549 780H240V849H549Z" glyph-name="Umacron" horiz-adv-x="803" unicode="&#362;" /><glyph d="M561 780H252V849H561ZM426 57V-14Q272 -31 179.5 43.5Q87 118 87 256V591Q87 618 77.5 632Q68 646 42 657L16 668V700H343V668L317 657Q292 646 282 631.5Q272 617 272 591V240Q272 157 311.5 109.5Q351 62 426 57ZM458 -9V58Q527 63 569.5 107.5Q612 152 612 223V591Q612 618 602.5 632Q593 646 567 657L541 668V700H747V668L721 657Q696 646 686 631.5Q676 617 676 591V242Q676 138 620 72.5Q564 7 458 -9Z" glyph-name="Umacron.alt" horiz-adv-x="762" /><glyph d="M385 76Q412 76 439.5 81.5Q467 87 482 95V47Q447 18 402.5 1.5Q358 -15 314 -15Q203 -15 145.5 44.5Q88 104 88 219V591Q88 618 78.5 632Q69 646 43 657L18 668V700H344V668L318 657Q293 646 283 631.5Q273 617 273 591V206Q273 142 302 109Q331 76 385 76ZM705 -162 693 -201Q671 -209 651.5 -212.5Q632 -216 615 -216Q565 -216 534 -191Q503 -166 503 -126Q503 -93 527 -60Q551 -27 594 0H516V591Q516 618 506.5 632Q497 646 471 657L445 668V700H772V668L746 657Q721 646 711 631.5Q701 617 701 591V109Q701 83 711 68.5Q721 54 746 43L772 32V0H655Q636 -32 626 -60Q616 -88 616 -108Q616 -134 635 -148.5Q654 -163 687 -163Q694 -163 699 -162.5Q704 -162 705 -162Z" glyph-name="Uogonek" horiz-adv-x="803" unicode="&#370;" /><glyph d="M492 -216Q442 -216 411 -191Q380 -166 380 -126Q380 -95 400 -65Q420 -35 458 -9V58Q527 63 569.5 107.5Q612 152 612 223V591Q612 618 602.5 632Q593 646 567 657L541 668V700H747V668L721 657Q696 646 686 631.5Q676 617 676 591V242Q676 161 641.5 102Q607 43 540 14Q518 -22 505.5 -54Q493 -86 493 -108Q493 -134 512 -148.5Q531 -163 564 -163Q571 -163 576 -162.5Q581 -162 582 -162L570 -201Q548 -209 528.5 -212.5Q509 -216 492 -216ZM426 57V-14Q272 -31 179.5 43.5Q87 118 87 256V591Q87 618 77.5 632Q68 646 42 657L16 668V700H343V668L317 657Q292 646 282 631.5Q272 617 272 591V240Q272 157 311.5 109.5Q351 62 426 57Z" glyph-name="Uogonek.alt" horiz-adv-x="762" /><glyph d="M385 76Q412 76 439.5 81.5Q467 87 482 95V47Q447 18 402.5 1.5Q358 -15 314 -15Q203 -15 145.5 44.5Q88 104 88 219V591Q88 618 78.5 632Q69 646 43 657L18 668V700H344V668L318 657Q293 646 283 631.5Q273 617 273 591V206Q273 142 302 109Q331 76 385 76ZM772 0H516V591Q516 618 506.5 632Q497 646 471 657L445 668V700H772V668L746 657Q721 646 711 631.5Q701 617 701 591V109Q701 83 711 68.5Q721 54 746 43L772 32ZM394 921Q372 921 355 907Q338 893 333 871H276Q282 915 315.5 943.5Q349 972 394 972Q439 972 472.5 943.5Q506 915 512 871H455Q450 893 432.5 907Q415 921 394 921ZM394 737Q348 737 315 766Q282 795 276 839H333Q338 817 355 803.5Q372 790 394 790Q415 790 432.5 804Q450 818 455 839H512Q506 795 472.5 766Q439 737 394 737Z" glyph-name="Uring" horiz-adv-x="803" unicode="&#366;" /><glyph d="M405 921Q383 921 366 907Q349 893 344 871H287Q293 915 326.5 943.5Q360 972 405 972Q450 972 483.5 943.5Q517 915 523 871H466Q461 893 443.5 907Q426 921 405 921ZM405 737Q359 737 326 766Q293 795 287 839H344Q349 817 366 803.5Q383 790 405 790Q426 790 443.5 804Q461 818 466 839H523Q517 795 483.5 766Q450 737 405 737ZM426 57V-14Q272 -31 179.5 43.5Q87 118 87 256V591Q87 618 77.5 632Q68 646 42 657L16 668V700H343V668L317 657Q292 646 282 631.5Q272 617 272 591V240Q272 157 311.5 109.5Q351 62 426 57ZM458 -9V58Q527 63 569.5 107.5Q612 152 612 223V591Q612 618 602.5 632Q593 646 567 657L541 668V700H747V668L721 657Q696 646 686 631.5Q676 617 676 591V242Q676 138 620 72.5Q564 7 458 -9Z" glyph-name="Uring.alt" horiz-adv-x="762" /><glyph d="M385 76Q412 76 439.5 81.5Q467 87 482 95V47Q447 18 402.5 1.5Q358 -15 314 -15Q203 -15 145.5 44.5Q88 104 88 219V591Q88 618 78.5 632Q69 646 43 657L18 668V700H344V668L318 657Q293 646 283 631.5Q273 617 273 591V206Q273 142 302 109Q331 76 385 76ZM772 0H516V591Q516 618 506.5 632Q497 646 471 657L445 668V700H772V668L746 657Q721 646 711 631.5Q701 617 701 591V109Q701 83 711 68.5Q721 54 746 43L772 32ZM317 798Q302 798 293.5 791.5Q285 785 276 766L235 779Q239 840 264.5 871Q290 902 337 902Q350 902 367 898.5Q384 895 418 883Q443 874 454 871.5Q465 869 473 869Q488 869 497 875.5Q506 882 514 901L555 888Q551 827 525.5 795.5Q500 764 453 764Q440 764 423.5 767.5Q407 771 374 783Q348 792 336.5 795Q325 798 317 798Z" glyph-name="Utilde" horiz-adv-x="803" unicode="&#360;" /><glyph d="M329 798Q314 798 305.5 791.5Q297 785 288 766L247 779Q251 840 276.5 871Q302 902 349 902Q362 902 379 898.5Q396 895 430 883Q455 874 466 871.5Q477 869 485 869Q500 869 509 875.5Q518 882 526 901L567 888Q563 827 537.5 795.5Q512 764 465 764Q452 764 435.5 767.5Q419 771 386 783Q360 792 348.5 795Q337 798 329 798ZM426 57V-14Q272 -31 179.5 43.5Q87 118 87 256V591Q87 618 77.5 632Q68 646 42 657L16 668V700H343V668L317 657Q292 646 282 631.5Q272 617 272 591V240Q272 157 311.5 109.5Q351 62 426 57ZM458 -9V58Q527 63 569.5 107.5Q612 152 612 223V591Q612 618 602.5 632Q593 646 567 657L541 668V700H747V668L721 657Q696 646 686 631.5Q676 617 676 591V242Q676 138 620 72.5Q564 7 458 -9Z" glyph-name="Utilde.alt" horiz-adv-x="762" /><glyph d="M281 593 472 0H283L101 542Q81 599 66 622Q51 645 16 658L-10 668V700H351V668L323 659Q291 650 281.5 635.5Q272 621 281 593ZM643 542 484 77 458 161 560 528Q580 598 570.5 621.5Q561 645 514 658L478 668V700H754V668L728 658Q693 644 678 621.5Q663 599 643 542Z" glyph-name="V" horiz-adv-x="744" unicode="V" /><glyph d="M418 170 504 458 532 364 423 0H279L102 543Q84 599 68.5 621.5Q53 644 18 658L-9 668V700H349V668L315 659Q294 653 286.5 635.5Q279 618 286 593L416 170ZM816 0H674L472 700H669L807 170H809L910 528Q930 598 920 622Q910 646 863 658L827 668V700H1104V668L1076 658Q1041 643 1026 620Q1011 597 993 543Z" glyph-name="W" horiz-adv-x="1095" unicode="W" /><glyph d="M418 170 504 458 532 364 423 0H279L102 543Q84 599 68.5 621.5Q53 644 18 658L-9 668V700H349V668L315 659Q294 653 286.5 635.5Q279 618 286 593L416 170ZM816 0H674L472 700H669L807 170H809L910 528Q930 598 920 622Q910 646 863 658L827 668V700H1104V668L1076 658Q1041 643 1026 620Q1011 597 993 543ZM597 765H540L555 920H726Z" glyph-name="Wacute" horiz-adv-x="1095" unicode="&#7810;" /><glyph d="M418 170 504 458 532 364 423 0H279L102 543Q84 599 68.5 621.5Q53 644 18 658L-9 668V700H349V668L315 659Q294 653 286.5 635.5Q279 618 286 593L416 170ZM816 0H674L472 700H669L807 170H809L910 528Q930 598 920 622Q910 646 863 658L827 668V700H1104V668L1076 658Q1041 643 1026 620Q1011 597 993 543ZM482 765H415L529 920H607L721 765H654L568 818Z" glyph-name="Wcircumflex" horiz-adv-x="1095" unicode="&#372;" /><glyph d="M418 170 504 458 532 364 423 0H279L102 543Q84 599 68.5 621.5Q53 644 18 658L-9 668V700H349V668L315 659Q294 653 286.5 635.5Q279 618 286 593L416 170ZM816 0H674L472 700H669L807 170H809L910 528Q930 598 920 622Q910 646 863 658L827 668V700H1104V668L1076 658Q1041 643 1026 620Q1011 597 993 543ZM751 852Q751 819 728.5 796Q706 773 674 773Q642 773 619.5 796Q597 819 597 852Q597 884 619.5 907Q642 930 674 930Q706 930 728.5 907Q751 884 751 852ZM552 852Q552 819 529.5 796Q507 773 475 773Q443 773 420.5 796Q398 819 398 852Q398 884 420.5 907Q443 930 475 930Q507 930 529.5 907Q552 884 552 852Z" glyph-name="Wdieresis" horiz-adv-x="1095" unicode="&#7812;" /><glyph d="M418 170 504 458 532 364 423 0H279L102 543Q84 599 68.5 621.5Q53 644 18 658L-9 668V700H349V668L315 659Q294 653 286.5 635.5Q279 618 286 593L416 170ZM816 0H674L472 700H669L807 170H809L910 528Q930 598 920 622Q910 646 863 658L827 668V700H1104V668L1076 658Q1041 643 1026 620Q1011 597 993 543ZM597 765H540L411 920H582Z" glyph-name="Wgrave" horiz-adv-x="1095" unicode="&#7808;" /><glyph d="M595 599 470 430 445 472 515 605Q526 626 518.5 640Q511 654 487 659L444 668V700H693V668L666 659Q648 653 632.5 640.5Q617 628 595 599ZM714 0H457L97 599Q81 625 65 640.5Q49 656 30 662L11 668V700H266L628 101Q641 79 656 65Q671 51 689 43L714 32ZM90 101 235 302 263 255 171 93Q159 73 163 60Q167 47 185 43L240 32V0H-18V32L13 41Q36 48 54.5 62.5Q73 77 90 101Z" glyph-name="X" horiz-adv-x="700" unicode="X" /><glyph d="M292 606 458 305V109Q458 84 470 68.5Q482 53 508 43L539 32V0H192V32L223 43Q249 53 261 68.5Q273 84 273 109V288L81 600Q66 624 46.5 640.5Q27 657 7 663L-7 668V700H353V668L321 658Q293 649 287 637Q281 625 292 606ZM448 389 560 605Q572 627 567 638Q562 649 529 657L481 668V700H736V668L723 662Q697 650 680.5 635Q664 620 651 600L479 339Z" glyph-name="Y" horiz-adv-x="728" unicode="Y" /><glyph d="M292 606 458 305V109Q458 84 470 68.5Q482 53 508 43L539 32V0H192V32L223 43Q249 53 261 68.5Q273 84 273 109V288L81 600Q66 624 46.5 640.5Q27 657 7 663L-7 668V700H353V668L321 658Q293 649 287 637Q281 625 292 606ZM448 389 560 605Q572 627 567 638Q562 649 529 657L481 668V700H736V668L723 662Q697 650 680.5 635Q664 620 651 600L479 339ZM409 765H352L367 920H538Z" glyph-name="Yacute" horiz-adv-x="728" unicode="&#221;" /><glyph d="M292 606 458 305V109Q458 84 470 68.5Q482 53 508 43L539 32V0H192V32L223 43Q249 53 261 68.5Q273 84 273 109V288L81 600Q66 624 46.5 640.5Q27 657 7 663L-7 668V700H353V668L321 658Q293 649 287 637Q281 625 292 606ZM448 389 560 605Q572 627 567 638Q562 649 529 657L481 668V700H736V668L723 662Q697 650 680.5 635Q664 620 651 600L479 339ZM295 765H228L342 920H420L534 765H467L381 818Z" glyph-name="Ycircumflex" horiz-adv-x="728" unicode="&#374;" /><glyph d="M292 606 458 305V109Q458 84 470 68.5Q482 53 508 43L539 32V0H192V32L223 43Q249 53 261 68.5Q273 84 273 109V288L81 600Q66 624 46.5 640.5Q27 657 7 663L-7 668V700H353V668L321 658Q293 649 287 637Q281 625 292 606ZM448 389 560 605Q572 627 567 638Q562 649 529 657L481 668V700H736V668L723 662Q697 650 680.5 635Q664 620 651 600L479 339ZM564 852Q564 819 541.5 796Q519 773 487 773Q455 773 432.5 796Q410 819 410 852Q410 884 432.5 907Q455 930 487 930Q519 930 541.5 907Q564 884 564 852ZM365 852Q365 819 342.5 796Q320 773 288 773Q256 773 233.5 796Q211 819 211 852Q211 884 233.5 907Q256 930 288 930Q320 930 342.5 907Q365 884 365 852Z" glyph-name="Ydieresis" horiz-adv-x="728" unicode="&#376;" /><glyph d="M292 606 458 305V109Q458 84 470 68.5Q482 53 508 43L539 32V0H192V32L223 43Q249 53 261 68.5Q273 84 273 109V288L81 600Q66 624 46.5 640.5Q27 657 7 663L-7 668V700H353V668L321 658Q293 649 287 637Q281 625 292 606ZM448 389 560 605Q572 627 567 638Q562 649 529 657L481 668V700H736V668L723 662Q697 650 680.5 635Q664 620 651 600L479 339ZM410 765H353L224 920H395Z" glyph-name="Ygrave" horiz-adv-x="728" unicode="&#7922;" /><glyph d="M276 700H391L369 662L225 660Q181 659 153.5 634.5Q126 610 89 536L77 518H43L39 708Q96 704 155 702Q214 700 276 700ZM628 700V668L201 0H12V32L430 700ZM648 0H240L266 40H421Q486 40 525.5 68.5Q565 97 601 184L621 234H659Z" glyph-name="Z" horiz-adv-x="681" unicode="Z" /><glyph d="M276 700H391L369 662L225 660Q181 659 153.5 634.5Q126 610 89 536L77 518H43L39 708Q96 704 155 702Q214 700 276 700ZM628 700V668L201 0H12V32L430 700ZM648 0H240L266 40H421Q486 40 525.5 68.5Q565 97 601 184L621 234H659ZM360 765H303L318 920H489Z" glyph-name="Zacute" horiz-adv-x="681" unicode="&#377;" /><glyph d="M276 700H391L369 662L225 660Q181 659 153.5 634.5Q126 610 89 536L77 518H43L39 708Q96 704 155 702Q214 700 276 700ZM628 700V668L201 0H12V32L430 700ZM648 0H240L266 40H421Q486 40 525.5 68.5Q565 97 601 184L621 234H659ZM292 765 178 920H245L331 867L417 920H484L370 765Z" glyph-name="Zcaron" horiz-adv-x="681" unicode="&#381;" /><glyph d="M276 700H391L369 662L225 660Q181 659 153.5 634.5Q126 610 89 536L77 518H43L39 708Q96 704 155 702Q214 700 276 700ZM628 700V668L201 0H12V32L430 700ZM648 0H240L266 40H421Q486 40 525.5 68.5Q565 97 601 184L621 234H659ZM415 855Q415 820 390.5 795.5Q366 771 331 771Q297 771 272.5 795.5Q248 820 248 855Q248 890 272.5 915Q297 940 331 940Q366 940 390.5 915Q415 890 415 855Z" glyph-name="Zdotaccent" horiz-adv-x="681" unicode="&#379;" /><glyph d="M263 513Q348 513 397.5 468Q447 423 447 344V100Q447 79 455.5 68.5Q464 58 481 58Q485 58 494 59.5Q503 61 508 63L512 36Q493 13 460 -1Q427 -15 391 -15Q344 -15 314.5 9Q285 33 285 75V322Q285 376 259.5 405Q234 434 189 434Q160 434 135.5 424Q111 414 111 403Q111 399 114 395Q117 391 126 384Q141 374 146 365Q151 356 151 345Q151 324 135.5 310Q120 296 100 296Q77 296 61 313Q45 330 45 355Q45 386 66 418.5Q87 451 122 474Q152 493 187.5 503Q223 513 263 513ZM262 22Q244 6 214 -4.5Q184 -15 157 -15Q97 -15 59 19.5Q21 54 21 112Q21 162 53 196.5Q85 231 143 246L251 274V234L242 229Q212 213 198 190Q184 167 184 137Q184 99 201 76.5Q218 54 245 54H252Q252 46 254.5 37.5Q257 29 262 22Z" glyph-name="a" horiz-adv-x="515" unicode="a" /><glyph d="M251 513Q338 513 386.5 467Q435 421 435 334V100Q435 79 443.5 68.5Q452 58 469 58Q473 58 482 59.5Q491 61 496 63L500 36Q481 13 448 -1Q415 -15 379 -15Q332 -15 302.5 9Q273 33 273 75V332Q273 372 249 394Q225 416 182 416Q156 416 128 401.5Q100 387 81 363L36 383Q62 444 120 478.5Q178 513 251 513ZM255 22Q237 6 207 -4.5Q177 -15 150 -15Q90 -15 52 19.5Q14 54 14 112Q14 162 46 196.5Q78 231 136 246L244 274V234L235 229Q205 213 191 190Q177 167 177 137Q177 99 194 76.5Q211 54 238 54H245Q245 46 247.5 37.5Q250 29 255 22Z" glyph-name="a.alt" horiz-adv-x="506" /><glyph d="M263 513Q348 513 397.5 468Q447 423 447 344V100Q447 79 455.5 68.5Q464 58 481 58Q485 58 494 59.5Q503 61 508 63L512 36Q493 13 460 -1Q427 -15 391 -15Q344 -15 314.5 9Q285 33 285 75V322Q285 376 259.5 405Q234 434 189 434Q160 434 135.5 424Q111 414 111 403Q111 399 114 395Q117 391 126 384Q141 374 146 365Q151 356 151 345Q151 324 135.5 310Q120 296 100 296Q77 296 61 313Q45 330 45 355Q45 386 66 418.5Q87 451 122 474Q152 493 187.5 503Q223 513 263 513ZM262 22Q244 6 214 -4.5Q184 -15 157 -15Q97 -15 59 19.5Q21 54 21 112Q21 162 53 196.5Q85 231 143 246L251 274V234L242 229Q212 213 198 190Q184 167 184 137Q184 99 201 76.5Q218 54 245 54H252Q252 46 254.5 37.5Q257 29 262 22ZM278 574H221L236 729H407Z" glyph-name="aacute" horiz-adv-x="515" unicode="&#225;" /><glyph d="M251 513Q338 513 386.5 467Q435 421 435 334V100Q435 79 443.5 68.5Q452 58 469 58Q473 58 482 59.5Q491 61 496 63L500 36Q481 13 448 -1Q415 -15 379 -15Q332 -15 302.5 9Q273 33 273 75V332Q273 372 249 394Q225 416 182 416Q156 416 128 401.5Q100 387 81 363L36 383Q62 444 120 478.5Q178 513 251 513ZM255 22Q237 6 207 -4.5Q177 -15 150 -15Q90 -15 52 19.5Q14 54 14 112Q14 162 46 196.5Q78 231 136 246L244 274V234L235 229Q205 213 191 190Q177 167 177 137Q177 99 194 76.5Q211 54 238 54H245Q245 46 247.5 37.5Q250 29 255 22ZM271 574H214L229 729H400Z" glyph-name="aacute.alt" horiz-adv-x="506" /><glyph d="M263 513Q348 513 397.5 468Q447 423 447 344V100Q447 79 455.5 68.5Q464 58 481 58Q485 58 494 59.5Q503 61 508 63L512 36Q493 13 460 -1Q427 -15 391 -15Q344 -15 314.5 9Q285 33 285 75V322Q285 376 259.5 405Q234 434 189 434Q160 434 135.5 424Q111 414 111 403Q111 399 114 395Q117 391 126 384Q141 374 146 365Q151 356 151 345Q151 324 135.5 310Q120 296 100 296Q77 296 61 313Q45 330 45 355Q45 386 66 418.5Q87 451 122 474Q152 493 187.5 503Q223 513 263 513ZM262 22Q244 6 214 -4.5Q184 -15 157 -15Q97 -15 59 19.5Q21 54 21 112Q21 162 53 196.5Q85 231 143 246L251 274V234L242 229Q212 213 198 190Q184 167 184 137Q184 99 201 76.5Q218 54 245 54H252Q252 46 254.5 37.5Q257 29 262 22ZM249 573Q179 573 141.5 610.5Q104 648 104 715V745H158V739Q158 708 180.5 693.5Q203 679 249 679Q295 679 317 693.5Q339 708 339 739V745H393V715Q393 648 355.5 610.5Q318 573 249 573Z" glyph-name="abreve" horiz-adv-x="515" unicode="&#259;" /><glyph d="M251 513Q338 513 386.5 467Q435 421 435 334V100Q435 79 443.5 68.5Q452 58 469 58Q473 58 482 59.5Q491 61 496 63L500 36Q481 13 448 -1Q415 -15 379 -15Q332 -15 302.5 9Q273 33 273 75V332Q273 372 249 394Q225 416 182 416Q156 416 128 401.5Q100 387 81 363L36 383Q62 444 120 478.5Q178 513 251 513ZM255 22Q237 6 207 -4.5Q177 -15 150 -15Q90 -15 52 19.5Q14 54 14 112Q14 162 46 196.5Q78 231 136 246L244 274V234L235 229Q205 213 191 190Q177 167 177 137Q177 99 194 76.5Q211 54 238 54H245Q245 46 247.5 37.5Q250 29 255 22ZM242 573Q172 573 134.5 610.5Q97 648 97 715V745H151V739Q151 708 173.5 693.5Q196 679 242 679Q288 679 310 693.5Q332 708 332 739V745H386V715Q386 648 348.5 610.5Q311 573 242 573Z" glyph-name="abreve.alt" horiz-adv-x="506" /><glyph d="M263 513Q348 513 397.5 468Q447 423 447 344V100Q447 79 455.5 68.5Q464 58 481 58Q485 58 494 59.5Q503 61 508 63L512 36Q493 13 460 -1Q427 -15 391 -15Q344 -15 314.5 9Q285 33 285 75V322Q285 376 259.5 405Q234 434 189 434Q160 434 135.5 424Q111 414 111 403Q111 399 114 395Q117 391 126 384Q141 374 146 365Q151 356 151 345Q151 324 135.5 310Q120 296 100 296Q77 296 61 313Q45 330 45 355Q45 386 66 418.5Q87 451 122 474Q152 493 187.5 503Q223 513 263 513ZM262 22Q244 6 214 -4.5Q184 -15 157 -15Q97 -15 59 19.5Q21 54 21 112Q21 162 53 196.5Q85 231 143 246L251 274V234L242 229Q212 213 198 190Q184 167 184 137Q184 99 201 76.5Q218 54 245 54H252Q252 46 254.5 37.5Q257 29 262 22ZM163 574H96L210 729H288L402 574H335L249 627Z" glyph-name="acircumflex" horiz-adv-x="515" unicode="&#226;" /><glyph d="M251 513Q338 513 386.5 467Q435 421 435 334V100Q435 79 443.5 68.5Q452 58 469 58Q473 58 482 59.5Q491 61 496 63L500 36Q481 13 448 -1Q415 -15 379 -15Q332 -15 302.5 9Q273 33 273 75V332Q273 372 249 394Q225 416 182 416Q156 416 128 401.5Q100 387 81 363L36 383Q62 444 120 478.5Q178 513 251 513ZM255 22Q237 6 207 -4.5Q177 -15 150 -15Q90 -15 52 19.5Q14 54 14 112Q14 162 46 196.5Q78 231 136 246L244 274V234L235 229Q205 213 191 190Q177 167 177 137Q177 99 194 76.5Q211 54 238 54H245Q245 46 247.5 37.5Q250 29 255 22ZM156 574H89L203 729H281L395 574H328L242 627Z" glyph-name="acircumflex.alt" horiz-adv-x="506" /><glyph d="M126 547H69L84 702H255Z" glyph-name="acute" horiz-adv-x="324" unicode="&#180;" /><glyph d="M263 513Q348 513 397.5 468Q447 423 447 344V100Q447 79 455.5 68.5Q464 58 481 58Q485 58 494 59.5Q503 61 508 63L512 36Q493 13 460 -1Q427 -15 391 -15Q344 -15 314.5 9Q285 33 285 75V322Q285 376 259.5 405Q234 434 189 434Q160 434 135.5 424Q111 414 111 403Q111 399 114 395Q117 391 126 384Q141 374 146 365Q151 356 151 345Q151 324 135.5 310Q120 296 100 296Q77 296 61 313Q45 330 45 355Q45 386 66 418.5Q87 451 122 474Q152 493 187.5 503Q223 513 263 513ZM262 22Q244 6 214 -4.5Q184 -15 157 -15Q97 -15 59 19.5Q21 54 21 112Q21 162 53 196.5Q85 231 143 246L251 274V234L242 229Q212 213 198 190Q184 167 184 137Q184 99 201 76.5Q218 54 245 54H252Q252 46 254.5 37.5Q257 29 262 22ZM432 661Q432 628 409.5 605Q387 582 355 582Q323 582 300.5 605Q278 628 278 661Q278 693 300.5 716Q323 739 355 739Q387 739 409.5 716Q432 693 432 661ZM233 661Q233 628 210.5 605Q188 582 156 582Q124 582 101.5 605Q79 628 79 661Q79 693 101.5 716Q124 739 156 739Q188 739 210.5 716Q233 693 233 661Z" glyph-name="adieresis" horiz-adv-x="515" unicode="&#228;" /><glyph d="M251 513Q338 513 386.5 467Q435 421 435 334V100Q435 79 443.5 68.5Q452 58 469 58Q473 58 482 59.5Q491 61 496 63L500 36Q481 13 448 -1Q415 -15 379 -15Q332 -15 302.5 9Q273 33 273 75V332Q273 372 249 394Q225 416 182 416Q156 416 128 401.5Q100 387 81 363L36 383Q62 444 120 478.5Q178 513 251 513ZM255 22Q237 6 207 -4.5Q177 -15 150 -15Q90 -15 52 19.5Q14 54 14 112Q14 162 46 196.5Q78 231 136 246L244 274V234L235 229Q205 213 191 190Q177 167 177 137Q177 99 194 76.5Q211 54 238 54H245Q245 46 247.5 37.5Q250 29 255 22ZM425 661Q425 628 402.5 605Q380 582 348 582Q316 582 293.5 605Q271 628 271 661Q271 693 293.5 716Q316 739 348 739Q380 739 402.5 716Q425 693 425 661ZM226 661Q226 628 203.5 605Q181 582 149 582Q117 582 94.5 605Q72 628 72 661Q72 693 94.5 716Q117 739 149 739Q181 739 203.5 716Q226 693 226 661Z" glyph-name="adieresis.alt" horiz-adv-x="506" /><glyph d="M510 125V-14Q406 -8 342.5 62Q279 132 279 246V342Q279 393 254.5 420Q230 447 186 447Q159 447 136 436.5Q113 426 113 415Q113 411 115.5 407.5Q118 404 128 399Q145 391 151 381Q157 371 157 355Q157 332 141 317Q125 302 103 302Q78 302 60 320.5Q42 339 42 366Q42 424 106 468.5Q170 513 255 513Q297 513 332.5 502Q368 491 388 471Q414 489 444.5 499.5Q475 510 510 512V470Q483 458 470 419.5Q457 381 456 314L595 317Q601 386 587.5 426.5Q574 467 544 473V513Q636 509 692.5 449.5Q749 390 749 297V272H455V263Q455 216 468.5 182Q482 148 510 125ZM185 149Q185 116 203 93Q221 70 250 70Q259 70 268 72Q277 74 287 78Q291 69 296.5 60.5Q302 52 308 46Q278 17 240.5 1Q203 -15 162 -15Q101 -15 62 24Q23 63 23 114Q23 164 53 198Q83 232 141 249L245 277V235L238 230Q212 218 198.5 196.5Q185 175 185 149ZM544 -15V106Q559 101 573.5 99Q588 97 603 97Q642 97 671 109.5Q700 122 720 148L744 139Q723 68 671 28Q619 -12 544 -15Z" glyph-name="ae" horiz-adv-x="770" unicode="&#230;" /><glyph d="M263 513Q348 513 397.5 468Q447 423 447 344V100Q447 79 455.5 68.5Q464 58 481 58Q485 58 494 59.5Q503 61 508 63L512 36Q493 13 460 -1Q427 -15 391 -15Q344 -15 314.5 9Q285 33 285 75V322Q285 376 259.5 405Q234 434 189 434Q160 434 135.5 424Q111 414 111 403Q111 399 114 395Q117 391 126 384Q141 374 146 365Q151 356 151 345Q151 324 135.5 310Q120 296 100 296Q77 296 61 313Q45 330 45 355Q45 386 66 418.5Q87 451 122 474Q152 493 187.5 503Q223 513 263 513ZM262 22Q244 6 214 -4.5Q184 -15 157 -15Q97 -15 59 19.5Q21 54 21 112Q21 162 53 196.5Q85 231 143 246L251 274V234L242 229Q212 213 198 190Q184 167 184 137Q184 99 201 76.5Q218 54 245 54H252Q252 46 254.5 37.5Q257 29 262 22ZM278 574H221L92 729H263Z" glyph-name="agrave" horiz-adv-x="515" unicode="&#224;" /><glyph d="M251 513Q338 513 386.5 467Q435 421 435 334V100Q435 79 443.5 68.5Q452 58 469 58Q473 58 482 59.5Q491 61 496 63L500 36Q481 13 448 -1Q415 -15 379 -15Q332 -15 302.5 9Q273 33 273 75V332Q273 372 249 394Q225 416 182 416Q156 416 128 401.5Q100 387 81 363L36 383Q62 444 120 478.5Q178 513 251 513ZM255 22Q237 6 207 -4.5Q177 -15 150 -15Q90 -15 52 19.5Q14 54 14 112Q14 162 46 196.5Q78 231 136 246L244 274V234L235 229Q205 213 191 190Q177 167 177 137Q177 99 194 76.5Q211 54 238 54H245Q245 46 247.5 37.5Q250 29 255 22ZM271 574H214L85 729H256Z" glyph-name="agrave.alt" horiz-adv-x="506" /><glyph d="M263 513Q348 513 397.5 468Q447 423 447 344V100Q447 79 455.5 68.5Q464 58 481 58Q485 58 494 59.5Q503 61 508 63L512 36Q493 13 460 -1Q427 -15 391 -15Q344 -15 314.5 9Q285 33 285 75V322Q285 376 259.5 405Q234 434 189 434Q160 434 135.5 424Q111 414 111 403Q111 399 114 395Q117 391 126 384Q141 374 146 365Q151 356 151 345Q151 324 135.5 310Q120 296 100 296Q77 296 61 313Q45 330 45 355Q45 386 66 418.5Q87 451 122 474Q152 493 187.5 503Q223 513 263 513ZM262 22Q244 6 214 -4.5Q184 -15 157 -15Q97 -15 59 19.5Q21 54 21 112Q21 162 53 196.5Q85 231 143 246L251 274V234L242 229Q212 213 198 190Q184 167 184 137Q184 99 201 76.5Q218 54 245 54H252Q252 46 254.5 37.5Q257 29 262 22ZM404 589H95V658H404Z" glyph-name="amacron" horiz-adv-x="515" unicode="&#257;" /><glyph d="M251 513Q338 513 386.5 467Q435 421 435 334V100Q435 79 443.5 68.5Q452 58 469 58Q473 58 482 59.5Q491 61 496 63L500 36Q481 13 448 -1Q415 -15 379 -15Q332 -15 302.5 9Q273 33 273 75V332Q273 372 249 394Q225 416 182 416Q156 416 128 401.5Q100 387 81 363L36 383Q62 444 120 478.5Q178 513 251 513ZM255 22Q237 6 207 -4.5Q177 -15 150 -15Q90 -15 52 19.5Q14 54 14 112Q14 162 46 196.5Q78 231 136 246L244 274V234L235 229Q205 213 191 190Q177 167 177 137Q177 99 194 76.5Q211 54 238 54H245Q245 46 247.5 37.5Q250 29 255 22ZM397 589H88V658H397Z" glyph-name="amacron.alt" horiz-adv-x="506" /><glyph d="M628 293Q609 261 600.5 247.5Q592 234 585 226Q653 154 679.5 133.5Q706 113 734 113Q748 113 759.5 116.5Q771 120 779 126L789 97Q775 47 734 16.5Q693 -14 639 -14Q592 -14 550.5 9Q509 32 468 81Q430 121 395 160.5Q360 200 331 235Q295 278 272.5 307.5Q250 337 231 363Q201 409 186 450Q171 491 171 530Q171 608 227.5 661.5Q284 715 368 715Q442 715 487.5 676.5Q533 638 533 581Q533 538 501.5 500Q470 462 427 454L405 484Q434 501 450.5 529.5Q467 558 467 585Q467 618 449.5 636Q432 654 402 654Q374 654 355 631.5Q336 609 336 579Q336 563 338.5 550.5Q341 538 346 523Q358 493 390.5 446.5Q423 400 465 352Q481 333 501 311Q521 289 547 260Q566 299 574.5 325.5Q583 352 583 370Q583 391 571 404.5Q559 418 532 425L513 432V465H761V432L738 424Q716 417 692.5 390.5Q669 364 628 293ZM343 90Q355 90 375.5 92Q396 94 411 97L437 66Q398 27 349.5 6Q301 -15 250 -15Q150 -15 85 40Q20 95 20 173Q20 237 66.5 290.5Q113 344 189 366L213 335Q209 316 205.5 284Q202 252 202 234Q202 168 241 129Q280 90 343 90Z" glyph-name="ampersand" horiz-adv-x="809" unicode="&amp;" /><glyph d="M440 -216Q390 -216 359 -191Q328 -166 328 -126Q328 -97 346 -68.5Q364 -40 398 -15Q396 -15 394.5 -15Q393 -15 391 -15Q344 -15 314.5 9Q285 33 285 75V322Q285 376 259.5 405Q234 434 189 434Q160 434 135.5 424Q111 414 111 403Q111 399 114 395Q117 391 126 384Q141 374 146 365Q151 356 151 345Q151 324 135.5 310Q120 296 100 296Q77 296 61 313Q45 330 45 355Q45 386 66 418.5Q87 451 122 474Q152 493 187.5 503Q223 513 263 513Q348 513 397.5 468Q447 423 447 344V100Q447 79 455.5 68.5Q464 58 481 58Q485 58 494 59.5Q503 61 508 63L512 36Q507 30 501 24.5Q495 19 487 13Q463 -29 452 -58Q441 -87 441 -108Q441 -134 460 -148.5Q479 -163 512 -163Q519 -163 524 -162.5Q529 -162 530 -162L518 -201Q496 -209 476.5 -212.5Q457 -216 440 -216ZM262 22Q244 6 214 -4.5Q184 -15 157 -15Q97 -15 59 19.5Q21 54 21 112Q21 162 53 196.5Q85 231 143 246L251 274V234L242 229Q212 213 198 190Q184 167 184 137Q184 99 201 76.5Q218 54 245 54H252Q252 46 254.5 37.5Q257 29 262 22Z" glyph-name="aogonek" horiz-adv-x="516" unicode="&#261;" /><glyph d="M432 -216Q382 -216 351 -191Q320 -166 320 -126Q320 -97 338 -68.5Q356 -40 390 -15Q387 -15 384.5 -15Q382 -15 379 -15Q332 -15 302.5 9Q273 33 273 75V332Q273 372 249 394Q225 416 182 416Q156 416 128 401.5Q100 387 81 363L36 383Q62 444 120 478.5Q178 513 251 513Q338 513 386.5 467Q435 421 435 334V100Q435 79 443.5 68.5Q452 58 469 58Q473 58 482 59.5Q491 61 496 63L500 36Q496 32 492 27.5Q488 23 483 19Q458 -22 445.5 -54Q433 -86 433 -108Q433 -134 452 -148.5Q471 -163 504 -163Q511 -163 516 -162.5Q521 -162 522 -162L510 -201Q488 -209 468.5 -212.5Q449 -216 432 -216ZM255 22Q237 6 207 -4.5Q177 -15 150 -15Q90 -15 52 19.5Q14 54 14 112Q14 162 46 196.5Q78 231 136 246L244 274V234L235 229Q205 213 191 190Q177 167 177 137Q177 99 194 76.5Q211 54 238 54H245Q245 46 247.5 37.5Q250 29 255 22Z" glyph-name="aogonek.alt" horiz-adv-x="506" /><glyph d="M246 593Q246 527 203 469.5Q160 412 79 372L63 402Q112 436 138.5 471.5Q165 507 172 551Q163 547 153.5 545Q144 543 134 543Q100 543 75.5 568Q51 593 51 627Q51 662 77 688.5Q103 715 142 715Q186 715 216 679Q246 643 246 593Z" glyph-name="apostrophemod" horiz-adv-x="295" unicode="&#700;" /><glyph d="M370 370Q357 370 335.5 374Q314 378 265 391Q213 404 189.5 408.5Q166 413 151 413Q129 413 116.5 401Q104 389 101 365L43 376Q52 450 85 487Q118 524 177 524Q193 524 215 520Q237 516 284 502Q333 489 355.5 484.5Q378 480 395 480Q418 480 431 492Q444 504 447 529L504 517Q496 444 462.5 407Q429 370 370 370ZM370 163Q357 163 335.5 167Q314 171 265 184Q213 197 189.5 201.5Q166 206 151 206Q129 206 116.5 194Q104 182 101 157L43 169Q52 242 85 279Q118 316 177 316Q193 316 215 312Q237 308 284 295Q333 281 355.5 277Q378 273 395 273Q418 273 431 285Q444 297 447 321L504 310Q496 237 462.5 200Q429 163 370 163Z" glyph-name="approxequal" horiz-adv-x="540" unicode="&#8776;" /><glyph d="M263 513Q348 513 397.5 468Q447 423 447 344V100Q447 79 455.5 68.5Q464 58 481 58Q485 58 494 59.5Q503 61 508 63L512 36Q493 13 460 -1Q427 -15 391 -15Q344 -15 314.5 9Q285 33 285 75V322Q285 376 259.5 405Q234 434 189 434Q160 434 135.5 424Q111 414 111 403Q111 399 114 395Q117 391 126 384Q141 374 146 365Q151 356 151 345Q151 324 135.5 310Q120 296 100 296Q77 296 61 313Q45 330 45 355Q45 386 66 418.5Q87 451 122 474Q152 493 187.5 503Q223 513 263 513ZM262 22Q244 6 214 -4.5Q184 -15 157 -15Q97 -15 59 19.5Q21 54 21 112Q21 162 53 196.5Q85 231 143 246L251 274V234L242 229Q212 213 198 190Q184 167 184 137Q184 99 201 76.5Q218 54 245 54H252Q252 46 254.5 37.5Q257 29 262 22ZM248 730Q226 730 209 716Q192 702 187 680H130Q136 724 169.5 752.5Q203 781 248 781Q293 781 326.5 752.5Q360 724 366 680H309Q304 702 286.5 716Q269 730 248 730ZM248 546Q202 546 169 575Q136 604 130 648H187Q192 626 209 612.5Q226 599 248 599Q269 599 286.5 613Q304 627 309 648H366Q360 604 326.5 575Q293 546 248 546Z" glyph-name="aring" horiz-adv-x="515" unicode="&#229;" /><glyph d="M251 513Q338 513 386.5 467Q435 421 435 334V100Q435 79 443.5 68.5Q452 58 469 58Q473 58 482 59.5Q491 61 496 63L500 36Q481 13 448 -1Q415 -15 379 -15Q332 -15 302.5 9Q273 33 273 75V332Q273 372 249 394Q225 416 182 416Q156 416 128 401.5Q100 387 81 363L36 383Q62 444 120 478.5Q178 513 251 513ZM255 22Q237 6 207 -4.5Q177 -15 150 -15Q90 -15 52 19.5Q14 54 14 112Q14 162 46 196.5Q78 231 136 246L244 274V234L235 229Q205 213 191 190Q177 167 177 137Q177 99 194 76.5Q211 54 238 54H245Q245 46 247.5 37.5Q250 29 255 22ZM241 730Q219 730 202 716Q185 702 180 680H123Q129 724 162.5 752.5Q196 781 241 781Q286 781 319.5 752.5Q353 724 359 680H302Q297 702 279.5 716Q262 730 241 730ZM241 546Q195 546 162 575Q129 604 123 648H180Q185 626 202 612.5Q219 599 241 599Q262 599 279.5 613Q297 627 302 648H359Q353 604 319.5 575Q286 546 241 546Z" glyph-name="aring.alt" horiz-adv-x="506" /><glyph d="M652 348 367 32 83 348 119 388 323 250 318 702H418L413 250L616 388Z" glyph-name="arrowdown" horiz-adv-x="735" unicode="&#8595;" /><glyph d="M549 109 123 86 146 512 199 514 247 272 562 596 633 525 309 210 551 162Z" glyph-name="arrowdownleft" horiz-adv-x="735" unicode="&#8601;" /><glyph d="M536 514 590 512 612 86 187 109 184 162 426 210 102 525 174 596 489 272Z" glyph-name="arrowdownright" horiz-adv-x="735" unicode="&#8600;" /><glyph d="M119 345 83 385 367 702 652 385 616 345 413 483 418 32H318L323 483Z" glyph-name="arrowup" horiz-adv-x="735" unicode="&#8593;" /><glyph d="M247 410 199 168 146 171 123 596 549 574 551 520 309 473 633 158 562 86Z" glyph-name="arrowupleft" horiz-adv-x="735" unicode="&#8598;" /><glyph d="M187 574 612 596 590 171 536 168 489 410 174 86 102 158 426 473 184 520Z" glyph-name="arrowupright" horiz-adv-x="735" unicode="&#8599;" /><glyph d="M83 345H19L228 715H314L521 345H457L271 562Z" glyph-name="asciicircum" horiz-adv-x="540" unicode="^" /><glyph d="M369 266Q356 266 334.5 270Q313 274 264 287Q212 301 188.5 305.5Q165 310 150 310Q128 310 115.5 298Q103 286 100 261L42 273Q51 346 84 383Q117 420 176 420Q192 420 214 416Q236 412 283 399Q332 385 354.5 381Q377 377 394 377Q417 377 430 389Q443 401 446 425L503 414Q495 341 461.5 303.5Q428 266 369 266Z" glyph-name="asciitilde" horiz-adv-x="540" unicode="~" /><glyph d="M279 446 168 269 65 366 235 483 35 518 88 650 252 527 208 724H349L305 527L470 650L522 518L322 483L493 366L389 269Z" glyph-name="asterisk" horiz-adv-x="558" unicode="*" /><glyph d="M531 191 567 374 683 460H717L702 393Q680 295 666 215Q652 135 652 114Q652 98 657.5 90.5Q663 83 675 83Q695 83 723.5 111Q752 139 771 182Q785 212 792 247.5Q799 283 799 321Q799 446 720.5 527.5Q642 609 518 609Q440 609 370 574Q300 539 247 474Q198 414 171.5 338.5Q145 263 145 183Q145 114 165 58Q185 2 224 -39Q265 -81 323 -104.5Q381 -128 441 -128Q497 -128 549.5 -112.5Q602 -97 646 -68L675 -99Q644 -131 569.5 -159Q495 -187 431 -187Q347 -187 276 -161Q205 -135 152 -85Q97 -33 67 37.5Q37 108 37 187Q37 280 71 367.5Q105 455 168 522Q232 591 316.5 627Q401 663 498 663Q569 663 634 638.5Q699 614 749 568Q800 521 826.5 458Q853 395 853 322Q853 204 787.5 112.5Q722 21 630 21Q568 21 541.5 66Q515 111 531 191ZM502 467Q526 467 551 460.5Q576 454 599 441L550 414Q544 419 538 421.5Q532 424 526 425Q499 424 470.5 390.5Q442 357 415 297Q396 251 383 203.5Q370 156 370 129Q370 119 374.5 114Q379 109 389 109Q403 109 426 121Q449 133 491 163Q488 147 487.5 135Q487 123 487 121Q450 77 402.5 49Q355 21 319 21Q279 21 257.5 46Q236 71 236 117Q236 164 257 225.5Q278 287 313 340Q353 401 402 434Q451 467 502 467Z" glyph-name="at" horiz-adv-x="893" unicode="@" /><glyph d="M537 293 573 476 689 562H723L708 495Q686 397 672 317Q658 237 658 216Q658 200 663.5 192.5Q669 185 681 185Q701 185 729.5 213Q758 241 777 284Q791 314 798 349.5Q805 385 805 423Q805 548 726.5 629.5Q648 711 524 711Q446 711 376 676Q306 641 253 576Q204 516 177.5 440.5Q151 365 151 285Q151 216 171 160Q191 104 230 63Q271 21 329 -2.5Q387 -26 447 -26Q503 -26 555.5 -10.5Q608 5 652 34L681 3Q650 -29 575.5 -57Q501 -85 437 -85Q353 -85 282 -59Q211 -33 158 17Q103 69 73 139.5Q43 210 43 289Q43 382 77 469.5Q111 557 174 624Q238 693 322.5 729Q407 765 504 765Q575 765 640 740.5Q705 716 755 670Q806 623 832.5 560Q859 497 859 424Q859 306 793.5 214.5Q728 123 636 123Q574 123 547.5 168Q521 213 537 293ZM508 569Q532 569 557 562.5Q582 556 605 543L556 516Q550 521 544 523.5Q538 526 532 527Q505 526 476.5 492.5Q448 459 421 399Q402 353 389 305.5Q376 258 376 231Q376 221 380.5 216Q385 211 395 211Q409 211 432 223Q455 235 497 265Q494 249 493.5 237Q493 225 493 223Q456 179 408.5 151Q361 123 325 123Q285 123 263.5 148Q242 173 242 219Q242 266 263 327.5Q284 389 319 442Q359 503 408 536Q457 569 508 569Z" glyph-name="at.case" horiz-adv-x="892" /><glyph d="M263 513Q348 513 397.5 468Q447 423 447 344V100Q447 79 455.5 68.5Q464 58 481 58Q485 58 494 59.5Q503 61 508 63L512 36Q493 13 460 -1Q427 -15 391 -15Q344 -15 314.5 9Q285 33 285 75V322Q285 376 259.5 405Q234 434 189 434Q160 434 135.5 424Q111 414 111 403Q111 399 114 395Q117 391 126 384Q141 374 146 365Q151 356 151 345Q151 324 135.5 310Q120 296 100 296Q77 296 61 313Q45 330 45 355Q45 386 66 418.5Q87 451 122 474Q152 493 187.5 503Q223 513 263 513ZM262 22Q244 6 214 -4.5Q184 -15 157 -15Q97 -15 59 19.5Q21 54 21 112Q21 162 53 196.5Q85 231 143 246L251 274V234L242 229Q212 213 198 190Q184 167 184 137Q184 99 201 76.5Q218 54 245 54H252Q252 46 254.5 37.5Q257 29 262 22ZM171 607Q156 607 147.5 600.5Q139 594 130 575L89 588Q93 649 118.5 680Q144 711 191 711Q204 711 221 707.5Q238 704 272 692Q297 683 308 680.5Q319 678 327 678Q342 678 351 684.5Q360 691 368 710L409 697Q405 636 379.5 604.5Q354 573 307 573Q294 573 277.5 576.5Q261 580 228 592Q202 601 190.5 604Q179 607 171 607Z" glyph-name="atilde" horiz-adv-x="515" unicode="&#227;" /><glyph d="M251 513Q338 513 386.5 467Q435 421 435 334V100Q435 79 443.5 68.5Q452 58 469 58Q473 58 482 59.5Q491 61 496 63L500 36Q481 13 448 -1Q415 -15 379 -15Q332 -15 302.5 9Q273 33 273 75V332Q273 372 249 394Q225 416 182 416Q156 416 128 401.5Q100 387 81 363L36 383Q62 444 120 478.5Q178 513 251 513ZM255 22Q237 6 207 -4.5Q177 -15 150 -15Q90 -15 52 19.5Q14 54 14 112Q14 162 46 196.5Q78 231 136 246L244 274V234L235 229Q205 213 191 190Q177 167 177 137Q177 99 194 76.5Q211 54 238 54H245Q245 46 247.5 37.5Q250 29 255 22ZM164 607Q149 607 140.5 600.5Q132 594 123 575L82 588Q86 649 111.5 680Q137 711 184 711Q197 711 214 707.5Q231 704 265 692Q290 683 301 680.5Q312 678 320 678Q335 678 344 684.5Q353 691 361 710L402 697Q398 636 372.5 604.5Q347 573 300 573Q287 573 270.5 576.5Q254 580 221 592Q195 601 183.5 604Q172 607 164 607Z" glyph-name="atilde.alt" horiz-adv-x="506" /><glyph d="M88 -11H53V646L-10 676V704Q44 709 98.5 719Q153 729 213 744H215V83ZM289 38Q342 38 371 85.5Q400 133 400 220Q400 328 368 381.5Q336 435 271 435Q266 435 260.5 435Q255 435 249 435V465Q271 488 301 500.5Q331 513 365 513Q460 513 517.5 447Q575 381 575 265Q573 145 499.5 65Q426 -15 309 -15Q277 -15 246 -5.5Q215 4 194 21L229 48Q242 43 256.5 40.5Q271 38 289 38Z" glyph-name="b" horiz-adv-x="598" unicode="b" /><glyph d="M446 -42 371 -72 27 752 103 781Z" glyph-name="backslash" horiz-adv-x="472" unicode="\" /><glyph d="M148 -66H81V789H148Z" glyph-name="bar" horiz-adv-x="229" unicode="|" /><glyph d="M308 -116 300 -184Q181 -184 125.5 -155Q70 -126 70 -59Q70 -41 76 -13.5Q82 14 102 77Q119 130 124 151.5Q129 173 129 186Q129 216 110.5 233Q92 250 57 252L17 254V313L57 316Q92 317 110.5 334.5Q129 352 129 382Q129 395 124 416.5Q119 438 102 491Q82 554 76 581.5Q70 609 70 627Q70 694 125.5 723Q181 752 300 752L308 683L301 682Q272 678 260 666.5Q248 655 248 632Q248 625 249.5 610Q251 595 257 554Q265 497 267.5 471.5Q270 446 270 431Q270 375 236.5 336Q203 297 141 284V282Q203 270 236.5 231.5Q270 193 270 137Q270 122 267.5 96.5Q265 71 257 14Q251 -27 249.5 -42Q248 -57 248 -64Q248 -86 259 -98Q270 -110 301 -115Z" glyph-name="braceleft" horiz-adv-x="340" unicode="{" /><glyph d="M317 -48 309 -116Q190 -116 134.5 -87Q79 -58 79 9Q79 27 85 54.5Q91 82 111 145Q128 198 133 219.5Q138 241 138 254Q138 284 119.5 301Q101 318 66 320L26 322V381L66 384Q101 385 119.5 402.5Q138 420 138 450Q138 463 133 484.5Q128 506 111 559Q91 622 85 649.5Q79 677 79 695Q79 762 134.5 791Q190 820 309 820L317 751L310 750Q281 746 269 734.5Q257 723 257 700Q257 693 258.5 678Q260 663 266 622Q274 565 276.5 539.5Q279 514 279 499Q279 443 245.5 404Q212 365 150 352V350Q212 338 245.5 299.5Q279 261 279 205Q279 190 276.5 164.5Q274 139 266 82Q260 41 258.5 26Q257 11 257 4Q257 -18 268 -30Q279 -42 310 -47Z" glyph-name="braceleft.case" horiz-adv-x="357" /><glyph d="M270 -59Q270 -126 214.5 -155Q159 -184 40 -184L32 -116L40 -115Q71 -110 82 -98Q93 -86 93 -64Q93 -57 91.5 -42Q90 -27 84 14Q76 71 73.5 96.5Q71 122 71 137Q71 193 104.5 231.5Q138 270 200 282V284Q138 297 104.5 336Q71 375 71 431Q71 446 73.5 471.5Q76 497 84 554Q90 595 91.5 610Q93 625 93 632Q93 655 81 666.5Q69 678 40 682L32 683L40 752Q159 752 214.5 723Q270 694 270 627Q270 609 264 581.5Q258 554 238 491Q221 438 216 416.5Q211 395 211 382Q211 352 230 334.5Q249 317 284 316L323 313V254L284 252Q248 250 229.5 233Q211 216 211 186Q211 173 216 151.5Q221 130 238 77Q258 14 264 -13.5Q270 -41 270 -59Z" glyph-name="braceright" horiz-adv-x="340" unicode="}" /><glyph d="M278 9Q278 -58 222.5 -87Q167 -116 48 -116L40 -48L48 -47Q79 -42 90 -30Q101 -18 101 4Q101 11 99.5 26Q98 41 92 82Q84 139 81.5 164.5Q79 190 79 205Q79 261 112.5 299.5Q146 338 208 350V352Q146 365 112.5 404Q79 443 79 499Q79 514 81.5 539.5Q84 565 92 622Q98 663 99.5 678Q101 693 101 700Q101 723 89 734.5Q77 746 48 750L40 751L48 820Q167 820 222.5 791Q278 762 278 695Q278 677 272 649.5Q266 622 246 559Q229 506 224 484.5Q219 463 219 450Q219 420 238 402.5Q257 385 292 384L331 381V322L292 320Q256 318 237.5 301Q219 284 219 254Q219 241 224 219.5Q229 198 246 145Q266 82 272 54.5Q278 27 278 9Z" glyph-name="braceright.case" horiz-adv-x="357" /><glyph d="M329 737V679H81V737ZM81 -102V648H147Q200 561 229 463.5Q258 366 258 273Q258 180 229 82.5Q200 -15 147 -102ZM329 -133V-191H81V-133Z" glyph-name="bracketleft" horiz-adv-x="348" unicode="[" /><glyph d="M337 807V749H89V807ZM89 -32V718H155Q208 631 237 533.5Q266 436 266 343Q266 250 237 152.5Q208 55 155 -32ZM337 -63V-121H89V-63Z" glyph-name="bracketleft.case" horiz-adv-x="369" /><glyph d="M267 679H19V737H267ZM201 648H267V-102H201Q148 -15 119 82.5Q90 180 90 273Q90 366 119 463.5Q148 561 201 648ZM267 -191H19V-133H267Z" glyph-name="bracketright" horiz-adv-x="348" unicode="]" /><glyph d="M280 749H32V807H280ZM214 718H280V-32H214Q161 55 132 152.5Q103 250 103 343Q103 436 132 533.5Q161 631 214 718ZM280 -121H32V-63H280Z" glyph-name="bracketright.case" horiz-adv-x="369" /><glyph d="M220 556Q150 556 112.5 593.5Q75 631 75 698V728H129V722Q129 691 151.5 676.5Q174 662 220 662Q266 662 288 676.5Q310 691 310 722V728H364V698Q364 631 326.5 593.5Q289 556 220 556Z" glyph-name="breve" horiz-adv-x="439" unicode="&#728;" /><glyph d="M147 420H80V789H147ZM147 -66H80V303H147Z" glyph-name="brokenbar" horiz-adv-x="227" unicode="&#166;" /><glyph d="M319 358Q319 304 281.5 267Q244 230 190 230Q136 230 99.5 267Q63 304 63 358Q63 411 100 448Q137 485 190 485Q244 485 281.5 448Q319 411 319 358Z" glyph-name="bullet" horiz-adv-x="382" unicode="&#8226;" /><glyph d="M196 288Q196 226 214.5 183.5Q233 141 270 116V-15Q160 -16 91 55.5Q22 127 22 247Q22 353 90.5 429.5Q159 506 270 513V469Q234 458 215 410Q196 362 196 288ZM349 375Q350 418 338.5 442Q327 466 304 471V513Q383 510 429.5 473Q476 436 476 389Q476 358 456 338Q436 318 406 318Q378 318 362.5 333.5Q347 349 349 375ZM304 -13V103Q347 91 391.5 103.5Q436 116 463 148L487 139Q471 72 419.5 30Q368 -12 304 -13Z" glyph-name="c" horiz-adv-x="494" unicode="c" /><glyph d="M413 484Q442 467 459 440.5Q476 414 476 389Q476 358 456 338Q436 318 406 318Q378 318 362.5 333.5Q347 349 349 375Q350 418 338.5 442Q327 466 304 471V513Q319 512 333.5 510Q348 508 362 505Q353 522 348 544Q343 566 343 592Q343 657 396.5 704.5Q450 752 535 752Q623 752 675 700Q727 648 727 564V498H852V440H491V491Q536 496 565 527Q594 558 594 599Q594 637 567.5 664Q541 691 497 691Q450 691 418 659Q386 627 386 581Q386 550 392.5 526.5Q399 503 413 484ZM196 288Q196 226 214.5 183.5Q233 141 270 116V-15Q160 -16 91 55.5Q22 127 22 247Q22 353 90.5 429.5Q159 506 270 513V469Q234 458 215 410Q196 362 196 288ZM565 117V408H727V178Q727 138 729.5 122.5Q732 107 737 96Q745 76 762 67Q779 58 806 58Q816 58 828 61.5Q840 65 842 67L854 30Q827 10 787 -2.5Q747 -15 708 -15Q634 -15 599.5 17Q565 49 565 117ZM304 -13V103Q347 91 391.5 103.5Q436 116 463 148L487 139Q471 72 419.5 30Q368 -12 304 -13Z" glyph-name="c_t" horiz-adv-x="851" unicode="&#57345;" /><glyph d="M196 288Q196 226 214.5 183.5Q233 141 270 116V-15Q160 -16 91 55.5Q22 127 22 247Q22 353 90.5 429.5Q159 506 270 513V469Q234 458 215 410Q196 362 196 288ZM349 375Q350 418 338.5 442Q327 466 304 471V513Q383 510 429.5 473Q476 436 476 389Q476 358 456 338Q436 318 406 318Q378 318 362.5 333.5Q347 349 349 375ZM304 -13V103Q347 91 391.5 103.5Q436 116 463 148L487 139Q471 72 419.5 30Q368 -12 304 -13ZM275 574H218L233 729H404Z" glyph-name="cacute" horiz-adv-x="494" unicode="&#263;" /><glyph d="M189 547 75 702H142L228 649L314 702H381L267 547Z" glyph-name="caron" horiz-adv-x="456" unicode="&#711;" /><glyph d="M196 288Q196 226 214.5 183.5Q233 141 270 116V-15Q160 -16 91 55.5Q22 127 22 247Q22 353 90.5 429.5Q159 506 270 513V469Q234 458 215 410Q196 362 196 288ZM349 375Q350 418 338.5 442Q327 466 304 471V513Q383 510 429.5 473Q476 436 476 389Q476 358 456 338Q436 318 406 318Q378 318 362.5 333.5Q347 349 349 375ZM304 -13V103Q347 91 391.5 103.5Q436 116 463 148L487 139Q471 72 419.5 30Q368 -12 304 -13ZM207 574 93 729H160L246 676L332 729H399L285 574Z" glyph-name="ccaron" horiz-adv-x="494" unicode="&#269;" /><glyph d="M349 375Q350 418 338.5 442Q327 466 304 471V513Q383 510 429.5 473Q476 436 476 389Q476 358 456 338Q436 318 406 318Q378 318 362.5 333.5Q347 349 349 375ZM304 -13V103Q347 91 391.5 103.5Q436 116 463 148L487 139Q471 72 419.5 30Q368 -12 304 -13ZM377 -148Q377 -191 339 -219.5Q301 -248 237 -248Q203 -248 168.5 -236.5Q134 -225 116 -210L134 -174Q150 -180 163.5 -182.5Q177 -185 190 -185Q221 -185 238.5 -173.5Q256 -162 256 -141Q256 -119 230 -104Q204 -89 164 -88L162 -79L228 -12Q134 1 78 70.5Q22 140 22 247Q22 353 90.5 429.5Q159 506 270 513V469Q234 458 215 410Q196 362 196 288Q196 226 214.5 183.5Q233 141 270 116V-50Q316 -58 346.5 -84Q377 -110 377 -148Z" glyph-name="ccedilla" horiz-adv-x="494" unicode="&#231;" /><glyph d="M196 288Q196 226 214.5 183.5Q233 141 270 116V-15Q160 -16 91 55.5Q22 127 22 247Q22 353 90.5 429.5Q159 506 270 513V469Q234 458 215 410Q196 362 196 288ZM349 375Q350 418 338.5 442Q327 466 304 471V513Q383 510 429.5 473Q476 436 476 389Q476 358 456 338Q436 318 406 318Q378 318 362.5 333.5Q347 349 349 375ZM304 -13V103Q347 91 391.5 103.5Q436 116 463 148L487 139Q471 72 419.5 30Q368 -12 304 -13ZM160 574H93L207 729H285L399 574H332L246 627Z" glyph-name="ccircumflex" horiz-adv-x="494" unicode="&#265;" /><glyph d="M196 288Q196 226 214.5 183.5Q233 141 270 116V-15Q160 -16 91 55.5Q22 127 22 247Q22 353 90.5 429.5Q159 506 270 513V469Q234 458 215 410Q196 362 196 288ZM349 375Q350 418 338.5 442Q327 466 304 471V513Q383 510 429.5 473Q476 436 476 389Q476 358 456 338Q436 318 406 318Q378 318 362.5 333.5Q347 349 349 375ZM304 -13V103Q347 91 391.5 103.5Q436 116 463 148L487 139Q471 72 419.5 30Q368 -12 304 -13ZM330 664Q330 629 305.5 604.5Q281 580 246 580Q212 580 187.5 604.5Q163 629 163 664Q163 699 187.5 724Q212 749 246 749Q281 749 305.5 724Q330 699 330 664Z" glyph-name="cdotaccent" horiz-adv-x="494" unicode="&#267;" /><glyph d="M304 -148Q304 -191 266 -219.5Q228 -248 164 -248Q130 -248 95.5 -236.5Q61 -225 44 -210L62 -174Q78 -180 91 -182.5Q104 -185 117 -185Q148 -185 165.5 -173.5Q183 -162 183 -141Q183 -119 157 -104Q131 -89 91 -88L89 -79L180 14H229L184 -49Q233 -53 268.5 -79.5Q304 -106 304 -148Z" glyph-name="cedilla" horiz-adv-x="348" unicode="&#184;" /><glyph d="M492 389Q492 358 472 338Q452 318 422 318Q394 318 378.5 333.5Q363 349 365 375Q366 418 354.5 442Q343 466 320 471V585H383V503Q433 489 462.5 456.5Q492 424 492 389ZM286 116V-117H224V-9Q138 11 88 78.5Q38 146 38 247Q38 353 106.5 429.5Q175 506 286 513V469Q250 458 231 410Q212 362 212 288Q212 226 230.5 183.5Q249 141 286 116ZM320 -13V103Q363 91 407.5 103.5Q452 116 479 148L503 139Q487 72 435.5 30Q384 -12 320 -13Z" glyph-name="cent" horiz-adv-x="538" unicode="&#162;" /><glyph d="M142 547H75L189 702H267L381 547H314L228 600Z" glyph-name="circumflex" horiz-adv-x="456" unicode="&#710;" /><glyph d="M248 397Q248 354 218.5 324.5Q189 295 147 295Q104 295 74.5 324.5Q45 354 45 397Q45 439 74.5 468.5Q104 498 147 498Q189 498 218.5 468.5Q248 439 248 397ZM248 87Q248 44 218.5 14.5Q189 -15 147 -15Q104 -15 74.5 14.5Q45 44 45 87Q45 129 74.5 158.5Q104 188 147 188Q189 188 218.5 158.5Q248 129 248 87Z" glyph-name="colon" horiz-adv-x="293" unicode=":" /><glyph d="M255 51Q255 -25 206.5 -90Q158 -155 68 -199L49 -166Q104 -127 134 -86.5Q164 -46 172 3Q162 -1 151 -3.5Q140 -6 129 -6Q90 -6 63 22Q36 50 36 89Q36 129 65 158.5Q94 188 138 188Q188 188 221.5 148Q255 108 255 51Z" glyph-name="comma" horiz-adv-x="293" unicode="," /><glyph d="M191 -156Q191 -209 158 -258.5Q125 -308 63 -347L33 -317Q61 -295 82.5 -265.5Q104 -236 117 -201Q110 -205 100.5 -207.5Q91 -210 80 -210Q45 -210 21 -185.5Q-3 -161 -3 -126Q-3 -91 23 -64.5Q49 -38 88 -38Q132 -38 161.5 -72.5Q191 -107 191 -156Z" glyph-name="commaaccent" horiz-adv-x="187" unicode="&#63171;" /><glyph d="M118 365H37Q44 523 159.5 635.5Q275 748 437 755V688Q307 681 215.5 588.5Q124 496 118 365ZM872 365H792Q786 496 694 588.5Q602 681 471 688V755Q633 748 749 635.5Q865 523 872 365ZM381 391Q381 318 417.5 270.5Q454 223 512 223Q549 223 577.5 239Q606 255 630 290L663 263Q642 192 586 151Q530 110 456 110Q356 110 290.5 174Q225 238 225 345Q225 447 297 524Q369 601 473 601Q552 601 599 570.5Q646 540 646 499Q646 470 624.5 449.5Q603 429 574 429Q552 429 538.5 440.5Q525 452 515 489Q506 523 494.5 533.5Q483 544 464 544Q425 544 403 502Q381 460 381 391ZM37 333H118Q124 202 215.5 109.5Q307 17 437 10V-57Q275 -50 159.5 62.5Q44 175 37 333ZM792 333H872Q865 175 749 62.5Q633 -50 471 -57V10Q602 17 694 109.5Q786 202 792 333Z" glyph-name="copyright" horiz-adv-x="909" unicode="&#169;" /><glyph d="M118 365H75Q78 407 94 449.5Q110 492 138 527L48 613L79 644L165 558Q196 585 238.5 602Q281 619 324 621V581Q238 575 180.5 514.5Q123 454 118 365ZM607 365H564Q559 454 501.5 514.5Q444 575 358 581V621Q401 619 443.5 602Q486 585 517 558L603 644L634 613L544 527Q572 492 588 449.5Q604 407 607 365ZM564 333H607Q604 291 588 248.5Q572 206 544 171L634 85L603 54L517 140Q486 113 443.5 96Q401 79 358 77V117Q444 123 501.5 183.5Q559 244 564 333ZM75 333H118Q123 244 180.5 183.5Q238 123 324 117V77Q281 79 238.5 96Q196 113 165 140L79 54L48 85L138 171Q110 206 94 248.5Q78 291 75 333Z" glyph-name="currency" horiz-adv-x="682" unicode="&#164;" /><glyph d="M381 -15V646L311 676V704Q368 710 426 720Q484 730 541 744H543V69L595 36V8Q533 4 483.5 -1.5Q434 -7 381 -15ZM282 513Q297 513 313.5 511Q330 509 347 504V467Q340 467 332.5 467Q325 467 318 467Q257 467 226.5 419.5Q196 372 196 277Q196 170 228.5 116.5Q261 63 326 63Q331 63 336.5 63Q342 63 347 63V32Q328 13 291.5 -1Q255 -15 219 -15Q133 -15 78 52Q23 119 23 233Q23 354 94 433.5Q165 513 282 513Z" glyph-name="d" horiz-adv-x="608" unicode="d" /><glyph d="M254 190H188V479H35V541H188V700H254V541H409V479H254Z" glyph-name="dagger" horiz-adv-x="444" unicode="&#8224;" /><glyph d="M265 190H199V336H46V398H199V492H46V554H199V700H265V554H420V492H265V398H420V336H265Z" glyph-name="daggerdbl" horiz-adv-x="466" unicode="&#8225;" /><glyph d="M381 -15V646L311 676V704Q368 710 426 720Q484 730 541 744H543V69L595 36V8Q533 4 483.5 -1.5Q434 -7 381 -15ZM282 513Q297 513 313.5 511Q330 509 347 504V467Q340 467 332.5 467Q325 467 318 467Q257 467 226.5 419.5Q196 372 196 277Q196 170 228.5 116.5Q261 63 326 63Q331 63 336.5 63Q342 63 347 63V32Q328 13 291.5 -1Q255 -15 219 -15Q133 -15 78 52Q23 119 23 233Q23 354 94 433.5Q165 513 282 513ZM757 582Q757 529 724 479.5Q691 430 629 391L599 421Q627 443 648.5 472.5Q670 502 683 537Q676 533 666.5 530.5Q657 528 646 528Q611 528 587 552.5Q563 577 563 612Q563 647 589 673.5Q615 700 654 700Q698 700 727.5 665.5Q757 631 757 582Z" glyph-name="dcaron" horiz-adv-x="706" unicode="&#271;" /><glyph d="M595 36V8Q533 4 483.5 -1.5Q434 -7 381 -15V556H277V604H381V646L311 676V704Q368 710 426 720Q484 730 541 744H543V604H590V556H543V69ZM282 513Q297 513 313.5 511Q330 509 347 504V469Q335 468 328 467.5Q321 467 318 467Q257 467 226.5 419.5Q196 372 196 277Q196 170 228.5 116.5Q261 63 326 63Q329 63 335.5 62.5Q342 62 347 62V32Q328 13 291.5 -1Q255 -15 219 -15Q133 -15 78 52Q23 119 23 233Q23 354 94 433.5Q165 513 282 513Z" glyph-name="dcroat" horiz-adv-x="603" unicode="&#273;" /><glyph d="M279 560Q279 596 257.5 623Q236 650 203 656V714Q262 708 302 663.5Q342 619 342 560Q342 501 302 456.5Q262 412 203 406V464Q236 470 257.5 497Q279 524 279 560ZM93 560Q93 524 114.5 497Q136 470 169 464V406Q110 412 70 456.5Q30 501 30 560Q30 619 70 663.5Q110 708 169 714V656Q136 650 114.5 623Q93 596 93 560Z" glyph-name="degree" horiz-adv-x="372" unicode="&#176;" /><glyph d="M422 652Q422 619 399.5 596Q377 573 345 573Q313 573 290.5 596Q268 619 268 652Q268 684 290.5 707Q313 730 345 730Q377 730 399.5 707Q422 684 422 652ZM223 652Q223 619 200.5 596Q178 573 146 573Q114 573 91.5 596Q69 619 69 652Q69 684 91.5 707Q114 730 146 730Q178 730 200.5 707Q223 684 223 652Z" glyph-name="dieresis" horiz-adv-x="491" unicode="&#168;" /><glyph d="M352 522Q352 489 329.5 467Q307 445 274 445Q241 445 218.5 467Q196 489 196 522Q196 555 218.5 577.5Q241 600 274 600Q307 600 329.5 577.5Q352 555 352 522ZM479 327H62V389H479ZM352 192Q352 160 329 136.5Q306 113 274 113Q241 113 218.5 136Q196 159 196 192Q196 225 218.5 247.5Q241 270 274 270Q306 270 329 247Q352 224 352 192Z" glyph-name="divide" horiz-adv-x="540" unicode="&#247;" /><glyph d="M410 127Q410 165 390.5 191Q371 217 322 242L257 -97H208L224 -13Q177 -9 134 2Q91 13 54 31L59 233H104Q123 156 155.5 107Q188 58 234 40L277 263Q274 264 270.5 266Q267 268 259 271Q249 275 244 277.5Q239 280 235 282Q135 326 92.5 379Q50 432 50 504Q50 595 125.5 656Q201 717 322 715V671Q279 667 251 638.5Q223 610 223 573Q223 539 244 513.5Q265 488 315 462L378 789H426L411 710Q444 707 478 703Q512 699 536 694L526 525H482Q470 574 449.5 606.5Q429 639 401 656L360 441Q423 413 453.5 396Q484 379 505 361Q540 332 557 296.5Q574 261 574 217Q574 119 502.5 55.5Q431 -8 315 -14V30Q357 36 383.5 64Q410 92 410 127Z" glyph-name="dollar" horiz-adv-x="609" unicode="$" /><glyph d="M242 658Q242 623 217.5 598.5Q193 574 158 574Q124 574 99.5 598.5Q75 623 75 658Q75 693 99.5 718Q124 743 158 743Q193 743 217.5 718Q242 693 242 658Z" glyph-name="dotaccent" horiz-adv-x="317" unicode="&#729;" /><glyph d="M76 90V416L26 446V474Q79 479 131.5 489Q184 499 236 514H238V90Q238 71 246.5 58Q255 45 274 36L288 29V0H27V29L40 36Q59 45 67.5 58Q76 71 76 90Z" glyph-name="dotlessi" horiz-adv-x="304" unicode="&#305;" /><glyph d="M37 -252 5 -226Q30 -222 47.5 -185Q65 -148 65 -99V416L15 446V474Q68 479 121 489Q174 499 226 514H228V-59Q228 -143 174 -196Q120 -249 37 -252Z" glyph-name="dotlessj" horiz-adv-x="282" unicode="&#567;" /><glyph d="M22 246Q22 353 85 429Q148 505 253 512V470Q226 458 213 419.5Q200 381 199 314L338 317Q344 386 330.5 426.5Q317 467 287 473V513Q379 509 435.5 449.5Q492 390 492 297V272H198V263Q198 216 211.5 182Q225 148 253 125V-14Q149 -8 85.5 62Q22 132 22 246ZM287 -15V106Q302 101 316.5 99Q331 97 346 97Q385 97 414 109.5Q443 122 463 148L487 139Q466 68 414 28Q362 -12 287 -15Z" glyph-name="e" horiz-adv-x="513" unicode="e" /><glyph d="M22 246Q22 353 85 429Q148 505 253 512V470Q226 458 213 419.5Q200 381 199 314L338 317Q344 386 330.5 426.5Q317 467 287 473V513Q379 509 435.5 449.5Q492 390 492 297V272H198V263Q198 216 211.5 182Q225 148 253 125V-14Q149 -8 85.5 62Q22 132 22 246ZM287 -15V106Q302 101 316.5 99Q331 97 346 97Q385 97 414 109.5Q443 122 463 148L487 139Q466 68 414 28Q362 -12 287 -15ZM282 574H225L240 729H411Z" glyph-name="eacute" horiz-adv-x="513" unicode="&#233;" /><glyph d="M22 246Q22 353 85 429Q148 505 253 512V470Q226 458 213 419.5Q200 381 199 314L338 317Q344 386 330.5 426.5Q317 467 287 473V513Q379 509 435.5 449.5Q492 390 492 297V272H198V263Q198 216 211.5 182Q225 148 253 125V-14Q149 -8 85.5 62Q22 132 22 246ZM287 -15V106Q302 101 316.5 99Q331 97 346 97Q385 97 414 109.5Q443 122 463 148L487 139Q466 68 414 28Q362 -12 287 -15ZM254 573Q184 573 146.5 610.5Q109 648 109 715V745H163V739Q163 708 185.5 693.5Q208 679 254 679Q300 679 322 693.5Q344 708 344 739V745H398V715Q398 648 360.5 610.5Q323 573 254 573Z" glyph-name="ebreve" horiz-adv-x="513" unicode="&#277;" /><glyph d="M22 246Q22 353 85 429Q148 505 253 512V470Q226 458 213 419.5Q200 381 199 314L338 317Q344 386 330.5 426.5Q317 467 287 473V513Q379 509 435.5 449.5Q492 390 492 297V272H198V263Q198 216 211.5 182Q225 148 253 125V-14Q149 -8 85.5 62Q22 132 22 246ZM287 -15V106Q302 101 316.5 99Q331 97 346 97Q385 97 414 109.5Q443 122 463 148L487 139Q466 68 414 28Q362 -12 287 -15ZM214 574 100 729H167L253 676L339 729H406L292 574Z" glyph-name="ecaron" horiz-adv-x="513" unicode="&#283;" /><glyph d="M22 246Q22 353 85 429Q148 505 253 512V470Q226 458 213 419.5Q200 381 199 314L338 317Q344 386 330.5 426.5Q317 467 287 473V513Q379 509 435.5 449.5Q492 390 492 297V272H198V263Q198 216 211.5 182Q225 148 253 125V-14Q149 -8 85.5 62Q22 132 22 246ZM287 -15V106Q302 101 316.5 99Q331 97 346 97Q385 97 414 109.5Q443 122 463 148L487 139Q466 68 414 28Q362 -12 287 -15ZM167 574H100L214 729H292L406 574H339L253 627Z" glyph-name="ecircumflex" horiz-adv-x="513" unicode="&#234;" /><glyph d="M22 246Q22 353 85 429Q148 505 253 512V470Q226 458 213 419.5Q200 381 199 314L338 317Q344 386 330.5 426.5Q317 467 287 473V513Q379 509 435.5 449.5Q492 390 492 297V272H198V263Q198 216 211.5 182Q225 148 253 125V-14Q149 -8 85.5 62Q22 132 22 246ZM287 -15V106Q302 101 316.5 99Q331 97 346 97Q385 97 414 109.5Q443 122 463 148L487 139Q466 68 414 28Q362 -12 287 -15ZM436 661Q436 628 413.5 605Q391 582 359 582Q327 582 304.5 605Q282 628 282 661Q282 693 304.5 716Q327 739 359 739Q391 739 413.5 716Q436 693 436 661ZM237 661Q237 628 214.5 605Q192 582 160 582Q128 582 105.5 605Q83 628 83 661Q83 693 105.5 716Q128 739 160 739Q192 739 214.5 716Q237 693 237 661Z" glyph-name="edieresis" horiz-adv-x="513" unicode="&#235;" /><glyph d="M22 246Q22 353 85 429Q148 505 253 512V470Q226 458 213 419.5Q200 381 199 314L338 317Q344 386 330.5 426.5Q317 467 287 473V513Q379 509 435.5 449.5Q492 390 492 297V272H198V263Q198 216 211.5 182Q225 148 253 125V-14Q149 -8 85.5 62Q22 132 22 246ZM287 -15V106Q302 101 316.5 99Q331 97 346 97Q385 97 414 109.5Q443 122 463 148L487 139Q466 68 414 28Q362 -12 287 -15ZM337 664Q337 629 312.5 604.5Q288 580 253 580Q219 580 194.5 604.5Q170 629 170 664Q170 699 194.5 724Q219 749 253 749Q288 749 312.5 724Q337 699 337 664Z" glyph-name="edotaccent" horiz-adv-x="513" unicode="&#279;" /><glyph d="M22 246Q22 353 85 429Q148 505 253 512V470Q226 458 213 419.5Q200 381 199 314L338 317Q344 386 330.5 426.5Q317 467 287 473V513Q379 509 435.5 449.5Q492 390 492 297V272H198V263Q198 216 211.5 182Q225 148 253 125V-14Q149 -8 85.5 62Q22 132 22 246ZM287 -15V106Q302 101 316.5 99Q331 97 346 97Q385 97 414 109.5Q443 122 463 148L487 139Q466 68 414 28Q362 -12 287 -15ZM283 574H226L97 729H268Z" glyph-name="egrave" horiz-adv-x="513" unicode="&#232;" /><glyph d="M431 441 387 464Q408 490 421.5 518Q435 546 435 568Q435 611 407 638.5Q379 666 334 669V715Q435 717 496.5 674.5Q558 632 558 567Q558 521 522 486Q486 451 431 441ZM318 269 183 340Q125 371 93.5 416Q62 461 62 515Q62 598 126.5 654Q191 710 300 714V668Q264 661 242.5 636Q221 611 221 574Q221 541 244 514.5Q267 488 317 463L413 415Q505 368 542.5 318.5Q580 269 580 202Q580 118 512 56Q444 -6 334 -14V44Q373 53 397.5 81.5Q422 110 422 149Q422 185 398.5 212Q375 239 318 269ZM159 313 206 288Q189 265 179 234.5Q169 204 169 174Q169 118 205 81Q241 44 300 42V-15Q186 -15 112 36Q38 87 38 164Q38 214 71.5 255Q105 296 159 313Z" glyph-name="eight" horiz-adv-x="619" unicode="8" /><glyph d="M51 308Q51 359 94 394Q137 429 208 429Q272 429 310 401.5Q348 374 348 333Q348 301 323 278Q298 255 263 250V248Q316 225 340 194.5Q364 164 364 122Q364 68 317 29.5Q270 -9 195 -9Q123 -9 80.5 22Q38 53 38 105Q38 140 62 167Q86 194 124 203V204Q90 224 70.5 251Q51 278 51 308ZM271 338Q271 367 254 384.5Q237 402 209 402Q183 402 165 385.5Q147 369 147 343Q147 322 161 306Q175 290 205 276L231 264Q247 276 259 297.5Q271 319 271 338ZM116 106Q116 71 138.5 48Q161 25 198 25Q229 25 248.5 43.5Q268 62 268 91Q268 117 247 136Q226 155 163 184L152 189Q135 174 125.5 151Q116 128 116 106Z" glyph-name="eight.dnom" horiz-adv-x="400" /><glyph d="M51 594Q51 645 94 680Q137 715 208 715Q272 715 310 687.5Q348 660 348 619Q348 587 323 564Q298 541 263 536V534Q316 511 340 480.5Q364 450 364 408Q364 354 317 315.5Q270 277 195 277Q123 277 80.5 308Q38 339 38 391Q38 426 62 453Q86 480 124 489V490Q90 510 70.5 537Q51 564 51 594ZM271 624Q271 653 254 670.5Q237 688 209 688Q183 688 165 671.5Q147 655 147 629Q147 608 161 592Q175 576 205 562L231 550Q247 562 259 583.5Q271 605 271 624ZM116 392Q116 357 138.5 334Q161 311 198 311Q229 311 248.5 329.5Q268 348 268 377Q268 403 247 422Q226 441 163 470L152 475Q135 460 125.5 437Q116 414 116 392Z" glyph-name="eight.numr" horiz-adv-x="400" /><glyph d="M390 404 351 425Q371 451 382.5 476Q394 501 394 521Q394 560 369 585.5Q344 611 303 615V657Q393 659 448.5 619.5Q504 580 504 521Q504 478 471.5 445.5Q439 413 390 404ZM290 246 167 312Q115 340 86.5 381.5Q58 423 58 473Q58 549 116 600.5Q174 652 273 656V613Q240 607 221 584Q202 561 202 527Q202 495 223 470Q244 445 294 420L373 380Q455 340 489 294Q523 248 523 184Q523 108 462 51Q401 -6 303 -14V40Q337 47 359.5 74Q382 101 382 136Q382 168 360.5 194Q339 220 290 246ZM146 287 188 264Q172 243 163.5 215Q155 187 155 160Q155 109 187.5 74.5Q220 40 273 37V-15Q170 -15 104 32Q38 79 38 150Q38 195 68.5 233.5Q99 272 146 287Z" glyph-name="eight.pnum" horiz-adv-x="562" /><glyph d="M422 441 378 464Q399 490 412.5 518Q426 546 426 568Q426 611 398 638.5Q370 666 325 669V715Q426 717 487.5 674.5Q549 632 549 567Q549 521 513 486Q477 451 422 441ZM309 269 174 340Q116 371 84.5 416Q53 461 53 515Q53 598 117.5 654Q182 710 291 714V668Q255 661 233.5 636Q212 611 212 574Q212 541 235 514.5Q258 488 308 463L404 415Q496 368 533.5 318.5Q571 269 571 202Q571 118 503 56Q435 -6 325 -14V44Q364 53 388.5 81.5Q413 110 413 149Q413 185 389.5 212Q366 239 309 269ZM150 313 197 288Q180 265 170 234.5Q160 204 160 174Q160 118 196 81Q232 44 291 42V-15Q177 -15 103 36Q29 87 29 164Q29 214 62.5 255Q96 296 150 313Z" glyph-name="eight.tnum" horiz-adv-x="600" /><glyph d="M51 208Q51 259 94 294Q137 329 208 329Q272 329 310 301.5Q348 274 348 233Q348 201 323 178Q298 155 263 150V148Q316 125 340 94.5Q364 64 364 22Q364 -32 317 -70.5Q270 -109 195 -109Q123 -109 80.5 -78Q38 -47 38 5Q38 40 62 67Q86 94 124 103V104Q90 124 70.5 151Q51 178 51 208ZM271 238Q271 267 254 284.5Q237 302 209 302Q183 302 165 285.5Q147 269 147 243Q147 222 161 206Q175 190 205 176L231 164Q247 176 259 197.5Q271 219 271 238ZM116 6Q116 -29 138.5 -52Q161 -75 198 -75Q229 -75 248.5 -56.5Q268 -38 268 -9Q268 17 247 36Q226 55 163 84L152 89Q135 74 125.5 51Q116 28 116 6Z" glyph-name="eightinferior" horiz-adv-x="400" unicode="&#8328;" /><glyph d="M51 694Q51 745 94 780Q137 815 208 815Q272 815 310 787.5Q348 760 348 719Q348 687 323 664Q298 641 263 636V634Q316 611 340 580.5Q364 550 364 508Q364 454 317 415.5Q270 377 195 377Q123 377 80.5 408Q38 439 38 491Q38 526 62 553Q86 580 124 589V590Q90 610 70.5 637Q51 664 51 694ZM271 724Q271 753 254 770.5Q237 788 209 788Q183 788 165 771.5Q147 755 147 729Q147 708 161 692Q175 676 205 662L231 650Q247 662 259 683.5Q271 705 271 724ZM116 492Q116 457 138.5 434Q161 411 198 411Q229 411 248.5 429.5Q268 448 268 477Q268 503 247 522Q226 541 163 570L152 575Q135 560 125.5 537Q116 514 116 492Z" glyph-name="eightsuperior" horiz-adv-x="400" unicode="&#8312;" /><glyph d="M972 87Q972 45 942.5 15Q913 -15 871 -15Q829 -15 799 15Q769 45 769 87Q769 129 798.5 158.5Q828 188 871 188Q913 188 942.5 158.5Q972 129 972 87ZM606 87Q606 45 576 15Q546 -15 504 -15Q462 -15 432 15Q402 45 402 87Q402 129 432 158.5Q462 188 504 188Q547 188 576.5 158.5Q606 129 606 87ZM240 87Q240 45 210 15Q180 -15 138 -15Q96 -15 66 15Q36 45 36 87Q36 129 66 158.5Q96 188 138 188Q180 188 210 158.5Q240 129 240 87Z" glyph-name="ellipsis" horiz-adv-x="1008" unicode="&#8230;" /><glyph d="M22 246Q22 353 85 429Q148 505 253 512V470Q226 458 213 419.5Q200 381 199 314L338 317Q344 386 330.5 426.5Q317 467 287 473V513Q379 509 435.5 449.5Q492 390 492 297V272H198V263Q198 216 211.5 182Q225 148 253 125V-14Q149 -8 85.5 62Q22 132 22 246ZM287 -15V106Q302 101 316.5 99Q331 97 346 97Q385 97 414 109.5Q443 122 463 148L487 139Q466 68 414 28Q362 -12 287 -15ZM408 589H99V658H408Z" glyph-name="emacron" horiz-adv-x="513" unicode="&#275;" /><glyph d="M980 251H60V314H980Z" glyph-name="emdash" horiz-adv-x="1040" unicode="&#8212;" /><glyph d="M989 317H69V380H989Z" glyph-name="emdash.case" horiz-adv-x="1057" /><glyph d="M480 251H60V314H480Z" glyph-name="endash" horiz-adv-x="540" unicode="&#8211;" /><glyph d="M489 317H69V380H489Z" glyph-name="endash.case" horiz-adv-x="557" /><glyph d="M236 514H238V90Q238 69 246.5 56.5Q255 44 274 37L294 29V0H26V29L40 36Q58 45 66.5 57.5Q75 70 75 90V416L25 446V474Q78 479 131 489Q184 499 236 514ZM284 -243Q232 -243 195.5 -216Q159 -189 159 -147Q159 -120 177 -102.5Q195 -85 219 -85Q244 -85 260 -101.5Q276 -118 276 -146Q276 -158 270 -172.5Q264 -187 255 -195Q259 -196 266.5 -197Q274 -198 278 -198Q326 -198 353 -162Q380 -126 380 -68V320Q380 368 362 390.5Q344 413 305 413Q295 413 289 413Q283 413 278 412V445Q299 475 331.5 494Q364 513 400 513Q472 513 507 468Q542 423 542 331V90Q542 71 550.5 58Q559 45 578 36L592 29V0H432V-68Q432 -146 390.5 -194.5Q349 -243 284 -243Z" glyph-name="eng" horiz-adv-x="605" unicode="&#331;" /><glyph d="M22 246Q22 353 85 429Q148 505 253 512V470Q226 458 213 419.5Q200 381 199 314L338 317Q344 386 330.5 426.5Q317 467 287 473V513Q379 509 435.5 449.5Q492 390 492 297V272H198V263Q198 216 211.5 182Q225 148 253 125V-14Q149 -8 85.5 62Q22 132 22 246ZM330 -216Q280 -216 249 -191Q218 -166 218 -126Q218 -98 236 -69Q254 -40 287 -15V106Q302 101 316.5 99Q331 97 346 97Q385 97 414 109.5Q443 122 463 148L487 139Q473 91 443.5 56.5Q414 22 372 4Q353 -29 342 -58.5Q331 -88 331 -108Q331 -134 350 -148.5Q369 -163 402 -163Q409 -163 414 -162.5Q419 -162 420 -162L408 -201Q386 -209 366.5 -212.5Q347 -216 330 -216Z" glyph-name="eogonek" horiz-adv-x="513" unicode="&#281;" /><glyph d="M478 424H61V488H478ZM478 227H61V291H478Z" glyph-name="equal" horiz-adv-x="540" unicode="=" /><glyph d="M422 21V-11Q264 -5 153.5 100.5Q43 206 43 353Q43 498 153 602Q263 706 422 712V682Q334 677 262.5 640Q191 603 191 552V384Q191 379 193 377Q195 375 200 375H677Q682 375 684 377Q686 379 686 384V552Q686 603 616.5 639.5Q547 676 456 681V712Q624 706 729.5 602.5Q835 499 835 344H200Q195 344 193 341.5Q191 339 191 332V160Q191 108 264.5 67.5Q338 27 422 21ZM456 -11V20Q532 24 596 52.5Q660 81 703 131H750Q698 66 622 29.5Q546 -7 456 -11Z" glyph-name="estimated" horiz-adv-x="869" unicode="&#8494;" /><glyph d="M547 272Q547 149 477.5 71Q408 -7 297 -14V27Q332 37 351.5 90.5Q371 144 371 234Q371 350 337.5 446Q304 542 237 619L134 559L109 601L203 656Q188 670 171.5 684.5Q155 699 124 723Q106 737 98.5 743.5Q91 750 86 755L106 781Q147 763 187.5 740.5Q228 718 267 693L377 757L401 715L311 662Q426 576 486.5 476.5Q547 377 547 272ZM285 475Q289 469 291.5 461.5Q294 454 298 439Q247 437 220 385.5Q193 334 193 236Q193 145 211 91Q229 37 263 27V-13Q156 -9 87.5 61Q19 131 19 238Q19 341 85 409Q151 477 250 477Q265 477 272 476.5Q279 476 285 475Z" glyph-name="eth" horiz-adv-x="570" unicode="&#240;" /><glyph d="M177 250H116L115 273Q113 316 103.5 361.5Q94 407 68 486Q49 543 43 568Q37 593 37 613Q37 661 65 688Q93 715 145 715H148Q200 715 228 688Q256 661 256 613Q256 593 250.5 567.5Q245 542 225 484Q199 406 189.5 360.5Q180 315 178 273ZM249 87Q249 44 219.5 14.5Q190 -15 148 -15Q106 -15 76 15Q46 45 46 87Q46 129 76 158.5Q106 188 148 188Q190 188 219.5 158.5Q249 129 249 87Z" glyph-name="exclam" horiz-adv-x="294" unicode="!" /><glyph d="M110 210 111 233H172L173 210Q175 168 184.5 122.5Q194 77 220 -1Q240 -59 245.5 -84.5Q251 -110 251 -130Q251 -178 223 -205Q195 -232 143 -232H140Q88 -232 60 -205Q32 -178 32 -130Q32 -110 38 -85Q44 -60 63 -3Q89 76 98.5 121.5Q108 167 110 210ZM41 396Q41 438 71 468Q101 498 143 498Q185 498 214.5 468.5Q244 439 244 396Q244 354 214.5 324.5Q185 295 143 295Q101 295 71 324.5Q41 354 41 396Z" glyph-name="exclamdown" horiz-adv-x="283" unicode="&#161;" /><glyph d="M123 427 124 450H185L186 427Q188 385 197.5 339.5Q207 294 233 216Q253 158 258.5 132.5Q264 107 264 87Q264 39 236 12Q208 -15 156 -15H153Q101 -15 73 12Q45 39 45 87Q45 107 51 132Q57 157 76 214Q102 293 111.5 338.5Q121 384 123 427ZM54 613Q54 655 84 685Q114 715 156 715Q198 715 227.5 685.5Q257 656 257 613Q257 571 227.5 541.5Q198 512 156 512Q114 512 84 541.5Q54 571 54 613Z" glyph-name="exclamdown.case" horiz-adv-x="310" /><glyph d="M89 498V585Q89 671 142.5 720.5Q196 770 284 770Q318 770 350.5 760.5Q383 751 414 732L388 690Q374 696 361.5 699.5Q349 703 337 703Q296 703 273.5 675Q251 647 251 594V498H382V440H8V498ZM89 90V408H251V90Q251 74 258.5 64Q266 54 285 45L319 29V0H39V29L56 38Q72 46 80.5 59.5Q89 73 89 90Z" glyph-name="f" horiz-adv-x="392" unicode="f" /><glyph d="M251 498H382V440H8V498H89V564Q89 654 149 712Q209 770 294 770Q363 770 408 735Q453 700 453 652Q453 628 436.5 610Q420 592 397 592Q373 592 357 607Q341 622 341 646Q341 651 342.5 656Q344 661 348 672Q352 682 353.5 687Q355 692 355 696Q355 705 346.5 709.5Q338 714 322 714Q289 714 270 687Q251 660 251 611ZM89 90V408H251V90Q251 74 258.5 64Q266 54 285 45L319 29V0H39V29L56 38Q72 46 80.5 59.5Q89 73 89 90Z" glyph-name="f.alt" horiz-adv-x="392" /><glyph d="M89 498V554Q89 640 142.5 689.5Q196 739 284 739Q318 739 350.5 729.5Q383 720 414 701L388 659Q374 665 361.5 668.5Q349 672 337 672Q296 672 273.5 644Q251 616 251 563V498H425V564Q425 654 485 712Q545 770 630 770Q699 770 744 735Q789 700 789 652Q789 629 772 610.5Q755 592 733 592Q709 592 693 607Q677 622 677 646Q677 651 678.5 656Q680 661 684 672Q688 682 689.5 687Q691 692 691 696Q691 705 682.5 709.5Q674 714 657 714Q625 714 606 687Q587 660 587 611V498H718V440H8V498ZM425 90V408H587V90Q587 74 594.5 64Q602 54 621 45L655 29V0H375V29L392 38Q408 46 416.5 59.5Q425 73 425 90ZM89 90V408H251V90Q251 74 258.5 64Q266 54 285 45L319 29V0H39V29L56 38Q72 46 80.5 59.5Q89 73 89 90Z" glyph-name="f_f" horiz-adv-x="728" unicode="&#64256;" /><glyph d="M958 36 972 29V0H711V29L725 36Q743 45 751.5 57.5Q760 70 760 90V440H8V498H89V554Q89 640 142.5 689.5Q196 739 284 739Q318 739 350.5 729.5Q383 720 414 701L388 659Q374 665 361.5 668.5Q349 672 337 672Q296 672 273.5 644Q251 616 251 563V498H425V564Q425 654 485 712Q545 770 630 770Q699 770 744 735Q789 700 789 652Q789 629 772 610.5Q755 592 733 592Q709 592 693 607Q677 622 677 646Q677 651 678.5 656Q680 661 684 672Q688 682 689.5 687Q691 692 691 696Q691 705 682.5 709.5Q674 714 657 714Q625 714 606 687Q587 660 587 611V498H817Q850 498 875.5 502Q901 506 921 514H923V90Q923 70 931.5 57.5Q940 45 958 36ZM89 90V408H251V90Q251 74 258.5 64Q266 54 285 45L319 29V0H39V29L56 38Q72 46 80.5 59.5Q89 73 89 90ZM425 90V408H587V90Q587 74 594.5 64Q602 54 621 45L655 29V0H375V29L392 38Q408 46 416.5 59.5Q425 73 425 90Z" glyph-name="f_f_i" horiz-adv-x="989" unicode="&#64259;" /><glyph d="M957 36 971 29V0H710V29L724 36Q743 45 751.5 58Q760 71 760 90V600Q754 596 746.5 594Q739 592 732 592Q708 592 692 607Q676 622 676 646Q676 651 677.5 656Q679 661 683 672Q687 682 688.5 687Q690 692 690 696Q690 705 681.5 709.5Q673 714 657 714Q624 714 605 687Q586 660 586 611V498H717V440H8V498H89V554Q89 640 142.5 689.5Q196 739 284 739Q318 739 350.5 729.5Q383 720 414 701L388 659Q374 665 361.5 668.5Q349 672 337 672Q296 672 273.5 644Q251 616 251 563V498H424V564Q424 654 484 712Q544 770 629 770Q673 770 708.5 755Q744 740 765 713Q818 721 853.5 728.5Q889 736 920 744H922V90Q922 70 930.5 57.5Q939 45 957 36ZM424 90V408H586V90Q586 74 593.5 64Q601 54 620 45L654 29V0H374V29L391 38Q407 46 415.5 59.5Q424 73 424 90ZM89 90V408H251V90Q251 74 258.5 64Q266 54 285 45L319 29V0H39V29L56 38Q72 46 80.5 59.5Q89 73 89 90Z" glyph-name="f_f_l" horiz-adv-x="989" unicode="&#64260;" /><glyph d="M89 90V408H251V90Q251 74 258.5 64Q266 54 285 45L319 29V0H39V29L56 38Q72 46 80.5 59.5Q89 73 89 90ZM222 -119Q222 -97 238 -80.5Q254 -64 276 -64Q299 -64 315.5 -80.5Q332 -97 332 -119Q332 -142 315.5 -157.5Q299 -173 276 -173Q254 -173 238 -157.5Q222 -142 222 -119ZM251 611V498H460Q493 498 518.5 502Q544 506 564 514H566V-51Q566 -138 517 -187Q468 -236 384 -236Q344 -236 307.5 -224Q271 -212 251 -195L255 -192Q263 -195 272 -196Q281 -197 294 -197Q341 -197 372.5 -165.5Q404 -134 404 -80V440H8V498H89V564Q89 654 149 712Q209 770 294 770Q363 770 408 735Q453 700 453 652Q453 628 436.5 610Q420 592 397 592Q373 592 357 607Q341 622 341 646Q341 651 342.5 656Q344 661 348 672Q352 682 353.5 687Q355 692 355 696Q355 705 346.5 709.5Q338 714 322 714Q289 714 270 687Q251 660 251 611Z" glyph-name="f_j" horiz-adv-x="620" /><glyph d="M8 498H89V564Q89 654 149 712Q209 770 294 770Q363 770 408 735Q453 700 453 652Q453 628 436.5 610Q420 592 397 592Q373 592 357 607Q341 622 341 646Q341 651 342.5 656Q344 661 348 672Q352 682 353.5 687Q355 692 355 696Q355 705 346.5 709.5Q338 714 322 714Q289 714 270 687Q251 660 251 611V498H481Q514 498 539.5 502Q565 506 585 514H587V90Q587 70 595.5 57.5Q604 45 622 36L636 29V0H375V29L389 36Q408 45 416.5 58Q425 71 425 90V440H8ZM89 90V408H251V90Q251 74 258.5 64Q266 54 285 45L319 29V0H39V29L56 38Q72 46 80.5 59.5Q89 73 89 90Z" glyph-name="fi" horiz-adv-x="653" unicode="&#64257;" /><glyph d="M471 537H86L103 700H511L490 558Q488 549 483 543Q478 537 471 537ZM64 329 83 506H134L133 479L173 477Q343 468 437 402.5Q531 337 531 223Q531 136 460 66Q389 -4 279 -14V31Q323 38 348 68.5Q373 99 373 146Q373 220 307.5 265Q242 310 111 324ZM171 115Q188 66 204.5 50Q221 34 245 31V-15Q152 -14 89.5 25Q27 64 27 123Q27 149 48.5 170Q70 191 99 191Q123 191 138.5 176.5Q154 162 171 115Z" glyph-name="five" horiz-adv-x="567" unicode="5" /><glyph d="M350 133Q350 77 301 34Q252 -9 179 -9Q123 -9 84.5 14.5Q46 38 46 73Q46 89 59 102Q72 115 90 115Q104 115 113 106Q122 97 133 68Q144 37 154.5 27Q165 17 182 17Q216 17 235 36Q254 55 254 88Q254 132 217 158.5Q180 185 104 194L69 198L85 420H334L325 336Q324 331 321 327Q318 323 314 323H111V287H127Q232 287 291 246.5Q350 206 350 133Z" glyph-name="five.dnom" horiz-adv-x="400" /><glyph d="M351 419Q351 363 302 320Q253 277 180 277Q124 277 85.5 300.5Q47 324 47 359Q47 375 60 388Q73 401 91 401Q105 401 114 392Q123 383 134 354Q145 323 155.5 313Q166 303 183 303Q217 303 236 322Q255 341 255 374Q255 418 218 444.5Q181 471 105 480L70 484L86 706H335L326 622Q325 617 322 613Q319 609 315 609H112V573H128Q233 573 292 532.5Q351 492 351 419Z" glyph-name="five.numr" horiz-adv-x="400" /><glyph d="M416 377H76L92 526H451L433 396Q432 389 427 383Q422 377 416 377ZM470 85Q470 7 407.5 -56.5Q345 -120 249 -130V-90Q286 -82 307.5 -53Q329 -24 329 17Q329 85 272.5 125.5Q216 166 99 180L55 185L73 346H118L116 323L143 321Q308 309 389 250Q470 191 470 85ZM150 -13Q166 -57 180 -72Q194 -87 215 -90V-132H202Q131 -132 76.5 -94.5Q22 -57 22 -5Q22 19 41.5 38.5Q61 58 87 58Q108 58 121.5 44.5Q135 31 150 -13Z" glyph-name="five.pnum" horiz-adv-x="502" /><glyph d="M488 537H103L120 700H528L507 558Q505 549 500 543Q495 537 488 537ZM81 329 100 506H151L150 479L190 477Q360 468 454 402.5Q548 337 548 223Q548 136 477 66Q406 -4 296 -14V31Q340 38 365 68.5Q390 99 390 146Q390 220 324.5 265Q259 310 128 324ZM188 115Q205 66 221.5 50Q238 34 262 31V-15Q169 -14 106.5 25Q44 64 44 123Q44 149 65.5 170Q87 191 116 191Q140 191 155.5 176.5Q171 162 188 115Z" glyph-name="five.tnum" horiz-adv-x="600" /><glyph d="M389 419Q389 363 340 320Q291 277 218 277Q162 277 123.5 300.5Q85 324 85 359Q85 375 98 388Q111 401 129 401Q143 401 152 392Q161 383 172 354Q183 323 193.5 313Q204 303 221 303Q255 303 274 322Q293 341 293 374Q293 418 256 444.5Q219 471 143 480L108 484L124 706H373L364 622Q363 617 360 613Q357 609 353 609H150V573H166Q271 573 330 532.5Q389 492 389 419ZM603 308Q603 359 646 394Q689 429 760 429Q824 429 862 401.5Q900 374 900 333Q900 301 875 278Q850 255 815 250V248Q868 225 892 194.5Q916 164 916 122Q916 68 869 29.5Q822 -9 747 -9Q675 -9 632.5 22Q590 53 590 105Q590 140 614 167Q638 194 676 203V204Q642 224 622.5 251Q603 278 603 308ZM823 338Q823 367 806 384.5Q789 402 761 402Q735 402 717 385.5Q699 369 699 343Q699 322 713 306Q727 290 757 276L783 264Q799 276 811 297.5Q823 319 823 338ZM668 106Q668 71 690.5 48Q713 25 750 25Q781 25 800.5 43.5Q820 62 820 91Q820 117 799 136Q778 155 715 184L704 189Q687 174 677.5 151Q668 128 668 106ZM790 700 229 0H174L735 700Z" glyph-name="fiveeights" horiz-adv-x="1000" unicode="&#8541;" /><glyph d="M350 33Q350 -23 301 -66Q252 -109 179 -109Q123 -109 84.5 -85.5Q46 -62 46 -27Q46 -11 59 2Q72 15 90 15Q104 15 113 6Q122 -3 133 -32Q144 -63 154.5 -73Q165 -83 182 -83Q216 -83 235 -64Q254 -45 254 -12Q254 32 217 58.5Q180 85 104 94L69 98L85 320H334L325 236Q324 231 321 227Q318 223 314 223H111V187H127Q232 187 291 146.5Q350 106 350 33Z" glyph-name="fiveinferior" horiz-adv-x="400" unicode="&#8325;" /><glyph d="M351 519Q351 463 302 420Q253 377 180 377Q124 377 85.5 400.5Q47 424 47 459Q47 475 60 488Q73 501 91 501Q105 501 114 492Q123 483 134 454Q145 423 155.5 413Q166 403 183 403Q217 403 236 422Q255 441 255 474Q255 518 218 544.5Q181 571 105 580L70 584L86 806H335L326 722Q325 717 322 713Q319 709 315 709H112V673H128Q233 673 292 632.5Q351 592 351 519Z" glyph-name="fivesuperior" horiz-adv-x="400" unicode="&#8309;" /><glyph d="M636 29V0H375V29L389 36Q408 45 416.5 58Q425 71 425 90V600Q419 596 411.5 594Q404 592 397 592Q373 592 357 607Q341 622 341 646Q341 651 342.5 656Q344 661 348 672Q352 682 353.5 687Q355 692 355 696Q355 705 346.5 709.5Q338 714 322 714Q289 714 270 687Q251 660 251 611V498H382V440H8V498H89V564Q89 654 149 712Q209 770 294 770Q338 770 373.5 755Q409 740 430 713Q483 721 518.5 728.5Q554 736 585 744H587V90Q587 70 595.5 57.5Q604 45 622 36ZM89 90V408H251V90Q251 74 258.5 64Q266 54 285 45L319 29V0H39V29L56 38Q72 46 80.5 59.5Q89 73 89 90Z" glyph-name="fl" horiz-adv-x="653" unicode="&#64258;" /><glyph d="M536 350 525 302H169L181 350H278L322 517Q356 648 427.5 718.5Q499 789 592 789Q651 789 689 757Q727 725 727 675Q727 646 705.5 624Q684 602 656 602Q626 602 606.5 621.5Q587 641 587 671Q587 693 599 711Q611 729 630 735V736Q584 741 551.5 711.5Q519 682 503 620L432 350ZM158 -115 256 270H412L338 -12Q304 -142 233 -212.5Q162 -283 69 -283Q10 -283 -28 -251Q-66 -219 -66 -169Q-66 -140 -45 -118Q-24 -96 4 -96Q34 -96 54 -115.5Q74 -135 74 -166Q74 -187 61.5 -205Q49 -223 31 -229V-231H40Q83 -231 113.5 -201.5Q144 -172 158 -115Z" glyph-name="florin" horiz-adv-x="742" unicode="&#402;" /><glyph d="M461 719 112 288H65L298 719ZM575 35V0H224V35L277 57Q299 67 305 76Q311 85 311 100V433L486 471V258H604L594 165H486V100Q486 85 492.5 76Q499 67 523 57ZM277 256V165H-1L49 256Z" glyph-name="four" horiz-adv-x="611" unicode="4" /><glyph d="M354 21V0H142V21L175 34Q188 41 191 46Q194 51 194 59V97H27L21 133L206 429H282L62 153H194V245L300 267V155H370L365 97H300V59Q300 51 303 46.5Q306 42 321 34Z" glyph-name="four.dnom" horiz-adv-x="400" /><glyph d="M354 307V286H142V307L175 320Q188 327 191 332Q194 337 194 345V383H27L21 419L206 715H282L62 439H194V531L300 553V441H370L365 383H300V345Q300 337 303 332.5Q306 328 321 320Z" glyph-name="four.numr" horiz-adv-x="400" /><glyph d="M399 536 117 147H68L273 536ZM452 28V-122H291V277L452 313V117H560L551 28ZM0 28 49 115H257V28Z" glyph-name="four.pnum" horiz-adv-x="565" /><glyph d="M455 719 106 288H59L292 719ZM569 35V0H218V35L271 57Q293 67 299 76Q305 85 305 100V433L480 471V258H598L588 165H480V100Q480 85 486.5 76Q493 67 517 57ZM271 256V165H-7L43 256Z" glyph-name="four.tnum" horiz-adv-x="600" /><glyph d="M354 -79V-100H142V-79L175 -66Q188 -59 191 -54Q194 -49 194 -41V-3H27L21 33L206 329H282L62 53H194V145L300 167V55H370L365 -3H300V-41Q300 -49 303 -53.5Q306 -58 321 -66Z" glyph-name="fourinferior" horiz-adv-x="400" unicode="&#8324;" /><glyph d="M354 407V386H142V407L175 420Q188 427 191 432Q194 437 194 445V483H27L21 519L206 815H282L62 539H194V631L300 653V541H370L365 483H300V445Q300 437 303 432.5Q306 428 321 420Z" glyph-name="foursuperior" horiz-adv-x="400" unicode="&#8308;" /><glyph d="M406 700 -155 0H-210L351 700Z" glyph-name="fraction" horiz-adv-x="200" unicode="&#8260;" /><glyph d="M204 333Q204 278 216 246Q228 214 251 206V156Q155 161 97 212Q39 263 39 333Q39 408 98 458Q157 508 251 512V461Q227 453 215.5 421Q204 389 204 333ZM327 333Q327 389 316.5 420.5Q306 452 285 460V510Q305 509 325.5 504Q346 499 365 491L564 513L555 411L431 452H430Q458 428 473 397Q488 366 488 331Q488 262 430 212.5Q372 163 285 157V207Q306 216 316.5 247.5Q327 279 327 333ZM556 -57Q556 -138 481 -194Q406 -250 285 -259V-206Q338 -204 373.5 -181.5Q409 -159 409 -126Q409 -97 390 -81.5Q371 -66 332 -63L217 -55Q170 -52 141.5 -46.5Q113 -41 96 -32Q66 -17 49.5 9Q33 35 33 65Q33 97 51 124.5Q69 152 102 171Q113 162 122 156.5Q131 151 141 148Q137 142 134.5 135Q132 128 132 123Q132 112 140.5 106Q149 100 166 99L388 90Q469 86 512.5 47.5Q556 9 556 -57ZM118 -111Q117 -150 153 -175Q189 -200 251 -205V-260Q132 -260 63.5 -226Q-5 -192 -5 -137Q-4 -107 17.5 -85Q39 -63 77 -56Q88 -62 99 -65Q110 -68 130 -72Q123 -84 120 -93Q117 -102 118 -111Z" glyph-name="g" horiz-adv-x="563" unicode="g" /><glyph d="M204 333Q204 278 216 246Q228 214 251 206V156Q155 161 97 212Q39 263 39 333Q39 408 98 458Q157 508 251 512V461Q227 453 215.5 421Q204 389 204 333ZM327 333Q327 389 316.5 420.5Q306 452 285 460V510Q305 509 325.5 504Q346 499 365 491L564 513L555 411L431 452H430Q458 428 473 397Q488 366 488 331Q488 262 430 212.5Q372 163 285 157V207Q306 216 316.5 247.5Q327 279 327 333ZM556 -57Q556 -138 481 -194Q406 -250 285 -259V-206Q338 -204 373.5 -181.5Q409 -159 409 -126Q409 -97 390 -81.5Q371 -66 332 -63L217 -55Q170 -52 141.5 -46.5Q113 -41 96 -32Q66 -17 49.5 9Q33 35 33 65Q33 97 51 124.5Q69 152 102 171Q113 162 122 156.5Q131 151 141 148Q137 142 134.5 135Q132 128 132 123Q132 112 140.5 106Q149 100 166 99L388 90Q469 86 512.5 47.5Q556 9 556 -57ZM118 -111Q117 -150 153 -175Q189 -200 251 -205V-260Q132 -260 63.5 -226Q-5 -192 -5 -137Q-4 -107 17.5 -85Q39 -63 77 -56Q88 -62 99 -65Q110 -68 130 -72Q123 -84 120 -93Q117 -102 118 -111ZM261 573Q191 573 153.5 610.5Q116 648 116 715V745H170V739Q170 708 192.5 693.5Q215 679 261 679Q307 679 329 693.5Q351 708 351 739V745H405V715Q405 648 367.5 610.5Q330 573 261 573Z" glyph-name="gbreve" horiz-adv-x="563" unicode="&#287;" /><glyph d="M204 333Q204 278 216 246Q228 214 251 206V156Q155 161 97 212Q39 263 39 333Q39 408 98 458Q157 508 251 512V461Q227 453 215.5 421Q204 389 204 333ZM327 333Q327 389 316.5 420.5Q306 452 285 460V510Q305 509 325.5 504Q346 499 365 491L564 513L555 411L431 452H430Q458 428 473 397Q488 366 488 331Q488 262 430 212.5Q372 163 285 157V207Q306 216 316.5 247.5Q327 279 327 333ZM556 -57Q556 -138 481 -194Q406 -250 285 -259V-206Q338 -204 373.5 -181.5Q409 -159 409 -126Q409 -97 390 -81.5Q371 -66 332 -63L217 -55Q170 -52 141.5 -46.5Q113 -41 96 -32Q66 -17 49.5 9Q33 35 33 65Q33 97 51 124.5Q69 152 102 171Q113 162 122 156.5Q131 151 141 148Q137 142 134.5 135Q132 128 132 123Q132 112 140.5 106Q149 100 166 99L388 90Q469 86 512.5 47.5Q556 9 556 -57ZM118 -111Q117 -150 153 -175Q189 -200 251 -205V-260Q132 -260 63.5 -226Q-5 -192 -5 -137Q-4 -107 17.5 -85Q39 -63 77 -56Q88 -62 99 -65Q110 -68 130 -72Q123 -84 120 -93Q117 -102 118 -111ZM175 574H108L222 729H300L414 574H347L261 627Z" glyph-name="gcircumflex" horiz-adv-x="563" unicode="&#285;" /><glyph d="M204 333Q204 278 216 246Q228 214 251 206V156Q155 161 97 212Q39 263 39 333Q39 408 98 458Q157 508 251 512V461Q227 453 215.5 421Q204 389 204 333ZM327 333Q327 389 316.5 420.5Q306 452 285 460V510Q305 509 325.5 504Q346 499 365 491L564 513L555 411L431 452H430Q458 428 473 397Q488 366 488 331Q488 262 430 212.5Q372 163 285 157V207Q306 216 316.5 247.5Q327 279 327 333ZM556 -57Q556 -138 481 -194Q406 -250 285 -259V-206Q338 -204 373.5 -181.5Q409 -159 409 -126Q409 -97 390 -81.5Q371 -66 332 -63L217 -55Q170 -52 141.5 -46.5Q113 -41 96 -32Q66 -17 49.5 9Q33 35 33 65Q33 97 51 124.5Q69 152 102 171Q113 162 122 156.5Q131 151 141 148Q137 142 134.5 135Q132 128 132 123Q132 112 140.5 106Q149 100 166 99L388 90Q469 86 512.5 47.5Q556 9 556 -57ZM118 -111Q117 -150 153 -175Q189 -200 251 -205V-260Q132 -260 63.5 -226Q-5 -192 -5 -137Q-4 -107 17.5 -85Q39 -63 77 -56Q88 -62 99 -65Q110 -68 130 -72Q123 -84 120 -93Q117 -102 118 -111ZM358 645Q358 609 332.5 583Q307 557 268 557Q223 557 193.5 592.5Q164 628 164 679Q164 745 207 802.5Q250 860 330 899L346 870Q298 836 271.5 801Q245 766 238 721Q247 724 256.5 726Q266 728 275 728Q309 728 333.5 703.5Q358 679 358 645Z" glyph-name="gcommaaccent" horiz-adv-x="563" unicode="&#291;" /><glyph d="M204 333Q204 278 216 246Q228 214 251 206V156Q155 161 97 212Q39 263 39 333Q39 408 98 458Q157 508 251 512V461Q227 453 215.5 421Q204 389 204 333ZM327 333Q327 389 316.5 420.5Q306 452 285 460V510Q305 509 325.5 504Q346 499 365 491L564 513L555 411L431 452H430Q458 428 473 397Q488 366 488 331Q488 262 430 212.5Q372 163 285 157V207Q306 216 316.5 247.5Q327 279 327 333ZM556 -57Q556 -138 481 -194Q406 -250 285 -259V-206Q338 -204 373.5 -181.5Q409 -159 409 -126Q409 -97 390 -81.5Q371 -66 332 -63L217 -55Q170 -52 141.5 -46.5Q113 -41 96 -32Q66 -17 49.5 9Q33 35 33 65Q33 97 51 124.5Q69 152 102 171Q113 162 122 156.5Q131 151 141 148Q137 142 134.5 135Q132 128 132 123Q132 112 140.5 106Q149 100 166 99L388 90Q469 86 512.5 47.5Q556 9 556 -57ZM118 -111Q117 -150 153 -175Q189 -200 251 -205V-260Q132 -260 63.5 -226Q-5 -192 -5 -137Q-4 -107 17.5 -85Q39 -63 77 -56Q88 -62 99 -65Q110 -68 130 -72Q123 -84 120 -93Q117 -102 118 -111ZM345 664Q345 629 320.5 604.5Q296 580 261 580Q227 580 202.5 604.5Q178 629 178 664Q178 699 202.5 724Q227 749 261 749Q296 749 320.5 724Q345 699 345 664Z" glyph-name="gdotaccent" horiz-adv-x="563" unicode="&#289;" /><glyph d="M341 767V706Q297 695 274 651Q251 607 251 536V441H8V498H89V500Q89 624 157.5 694.5Q226 765 341 767ZM89 90V409H251V0H40V29L56 38Q72 46 80.5 59Q89 72 89 90ZM314 362Q314 375 326.5 397.5Q339 420 380 474Q430 541 446 571.5Q462 602 462 623Q462 660 438.5 682.5Q415 705 375 709V765Q443 757 481 718Q519 679 519 621Q519 594 510 565Q501 536 476 488Q461 461 457 450Q453 439 453 431Q451 417 465 396Q479 375 547 310Q582 272 600.5 235Q619 198 622 162Q619 90 565 37.5Q511 -15 441 -15Q381 -15 344.5 8Q308 31 310 67Q308 92 324 109.5Q340 127 364 127Q385 127 397.5 116Q410 105 421 72Q429 46 436.5 38.5Q444 31 455 31Q471 31 482 43Q493 55 497 77Q495 104 480 130Q465 156 419 211L383 251Q347 288 330.5 312Q314 336 314 362Z" glyph-name="germandbls" horiz-adv-x="638" unicode="&#223;" /><glyph d="M255 547H198L69 702H240Z" glyph-name="grave" horiz-adv-x="324" unicode="`" /><glyph d="M496 327 79 146V218L409 358L79 498V570L496 389Z" glyph-name="greater" horiz-adv-x="540" unicode="&gt;" /><glyph d="M708 359 392 74 352 110 490 315 38 308V410L490 403L352 608L392 644Z" glyph-name="greater.alt" horiz-adv-x="735" unicode="&#8594;" /><glyph d="M485 327 68 146V218L398 358L68 498V570L485 389ZM485 0H68V64H485Z" glyph-name="greaterequal" horiz-adv-x="540" unicode="&#8805;" /><glyph d="M490 71 449 46 238 278 449 510 490 485 406 278ZM281 71 240 46 29 278 240 510 281 485 198 278Z" glyph-name="guillemotleft" horiz-adv-x="537" unicode="&#171;" /><glyph d="M501 143 460 118 249 350 460 582 501 557 417 350ZM292 143 251 118 40 350 251 582 292 557 209 350Z" glyph-name="guillemotleft.case" horiz-adv-x="559" /><glyph d="M507 278 297 46 255 71 338 278 255 485 297 510ZM298 278 89 46 47 71 130 278 47 485 89 510Z" glyph-name="guillemotright" horiz-adv-x="537" unicode="&#187;" /><glyph d="M518 350 308 118 266 143 349 350 266 557 308 582ZM309 350 100 118 58 143 141 350 58 557 100 582Z" glyph-name="guillemotright.case" horiz-adv-x="559" /><glyph d="M281 71 240 46 30 278 240 510 281 485 198 278Z" glyph-name="guilsinglleft" horiz-adv-x="328" unicode="&#8249;" /><glyph d="M292 143 251 118 41 350 251 582 292 557 209 350Z" glyph-name="guilsinglleft.case" horiz-adv-x="350" /><glyph d="M298 278 88 46 47 71 130 278 47 485 88 510Z" glyph-name="guilsinglright" horiz-adv-x="328" unicode="&#8250;" /><glyph d="M309 350 99 118 58 143 141 350 58 557 99 582Z" glyph-name="guilsinglright.case" horiz-adv-x="350" /><glyph d="M226 744H228V90Q228 69 237 56.5Q246 44 265 37L285 29V0H16V29L30 36Q49 45 57.5 58Q66 71 66 90V646L3 676V704Q57 709 111.5 719Q166 729 226 744ZM533 331V90Q533 70 541.5 57.5Q550 45 568 36L582 29V0H321V29L335 36Q353 45 361.5 57.5Q370 70 370 90V320Q370 368 352 390.5Q334 413 295 413Q285 413 279 413Q273 413 268 412V445Q289 475 321.5 494Q354 513 390 513Q462 513 497.5 468Q533 423 533 331Z" glyph-name="h" horiz-adv-x="595" unicode="h" /><glyph d="M267 37 287 29V0H18V29L32 36Q51 45 59.5 58Q68 71 68 90V556H0V604H68V646L5 676V704Q59 709 113.5 719Q168 729 228 744H230V604H312V556H230V90Q230 69 239 56.5Q248 44 267 37ZM535 331V90Q535 70 543.5 57.5Q552 45 570 36L584 29V0H323V29L337 36Q355 45 363.5 57.5Q372 70 372 90V320Q372 368 354 390.5Q336 413 297 413Q287 413 281 413Q275 413 270 412V445Q291 475 323.5 494Q356 513 392 513Q464 513 499.5 468Q535 423 535 331Z" glyph-name="hbar" horiz-adv-x="595" unicode="&#295;" /><glyph d="M226 744H228V90Q228 69 237 56.5Q246 44 265 37L285 29V0H16V29L30 36Q49 45 57.5 58Q66 71 66 90V646L3 676V704Q57 709 111.5 719Q166 729 226 744ZM533 331V90Q533 70 541.5 57.5Q550 45 568 36L582 29V0H321V29L335 36Q353 45 361.5 57.5Q370 70 370 90V320Q370 368 352 390.5Q334 413 295 413Q285 413 279 413Q273 413 268 412V445Q289 475 321.5 494Q354 513 390 513Q462 513 497.5 468Q533 423 533 331ZM177 797H110L224 952H302L416 797H349L263 850Z" glyph-name="hcircumflex" horiz-adv-x="595" unicode="&#293;" /><glyph d="M327 547H270L285 702H456ZM126 547H69L84 702H255Z" glyph-name="hungarumlaut" horiz-adv-x="525" unicode="&#733;" /><glyph d="M259 236H49V328H259Z" glyph-name="hyphen" horiz-adv-x="308" unicode="-" /><glyph d="M265 302H55V394H265Z" glyph-name="hyphen.case" horiz-adv-x="320" /><glyph d="M246 649Q246 609 219 582Q192 555 152 555Q113 555 85.5 582.5Q58 610 58 649Q58 689 85.5 716.5Q113 744 152 744Q192 744 219 716.5Q246 689 246 649ZM76 90V416L26 446V474Q79 479 131.5 489Q184 499 236 514H238V90Q238 71 246.5 58Q255 45 274 36L288 29V0H27V29L40 36Q59 45 67.5 58Q76 71 76 90Z" glyph-name="i" horiz-adv-x="304" unicode="i" /><glyph d="M246 649Q246 609 219 582Q192 555 152 555Q113 555 85.5 582.5Q58 610 58 649Q58 689 85.5 716.5Q113 744 152 744Q192 744 219 716.5Q246 689 246 649ZM76 90V416L26 446V474Q79 479 131.5 489Q184 499 236 514H238V90Q238 71 246.5 58Q255 45 274 36L288 29V0H27V29L40 36Q59 45 67.5 58Q76 71 76 90Z" glyph-name="i.TRK" horiz-adv-x="304" /><glyph d="M76 90V416L26 446V474Q79 479 131.5 489Q184 499 236 514H238V90Q238 71 246.5 58Q255 45 274 36L288 29V0H27V29L40 36Q59 45 67.5 58Q76 71 76 90ZM166 549H109L124 704H295Z" glyph-name="iacute" horiz-adv-x="304" unicode="&#237;" /><glyph d="M76 90V416L26 446V474Q79 479 131.5 489Q184 499 236 514H238V90Q238 71 246.5 58Q255 45 274 36L288 29V0H27V29L40 36Q59 45 67.5 58Q76 71 76 90ZM138 548Q68 548 30.5 585.5Q-7 623 -7 690V720H47V714Q47 683 69.5 668.5Q92 654 138 654Q184 654 206 668.5Q228 683 228 714V720H282V690Q282 623 244.5 585.5Q207 548 138 548Z" glyph-name="ibreve" horiz-adv-x="304" unicode="&#301;" /><glyph d="M76 90V416L26 446V474Q79 479 131.5 489Q184 499 236 514H238V90Q238 71 246.5 58Q255 45 274 36L288 29V0H27V29L40 36Q59 45 67.5 58Q76 71 76 90ZM52 549H-15L99 704H177L291 549H224L138 602Z" glyph-name="icircumflex" horiz-adv-x="304" unicode="&#238;" /><glyph d="M76 90V416L26 446V474Q79 479 131.5 489Q184 499 236 514H238V90Q238 71 246.5 58Q255 45 274 36L288 29V0H27V29L40 36Q59 45 67.5 58Q76 71 76 90ZM321 636Q321 603 298.5 580Q276 557 244 557Q212 557 189.5 580Q167 603 167 636Q167 668 189.5 691Q212 714 244 714Q276 714 298.5 691Q321 668 321 636ZM122 636Q122 603 99.5 580Q77 557 45 557Q13 557 -9.5 580Q-32 603 -32 636Q-32 668 -9.5 691Q13 714 45 714Q77 714 99.5 691Q122 668 122 636Z" glyph-name="idieresis" horiz-adv-x="304" unicode="&#239;" /><glyph d="M76 90V416L26 446V474Q79 479 131.5 489Q184 499 236 514H238V90Q238 71 246.5 58Q255 45 274 36L288 29V0H27V29L40 36Q59 45 67.5 58Q76 71 76 90ZM167 549H110L-19 704H152Z" glyph-name="igrave" horiz-adv-x="304" unicode="&#236;" /><glyph d="M246 649Q246 609 219 582Q192 555 152 555Q113 555 85.5 582.5Q58 610 58 649Q58 689 85.5 716.5Q113 744 152 744Q192 744 219 716.5Q246 689 246 649ZM76 90V416L26 446V474Q79 479 131.5 489Q184 499 236 514H238V90Q238 71 246.5 58Q255 45 274 36L288 29V0H27V29L40 36Q59 45 67.5 58Q76 71 76 90ZM530 650Q530 610 503 583Q476 556 436 556Q396 556 369 583Q342 610 342 650Q342 690 369 717Q396 744 436 744Q476 744 503 717Q530 690 530 650ZM177 -119Q177 -97 193.5 -80.5Q210 -64 232 -64Q254 -64 270.5 -80.5Q287 -97 287 -119Q287 -142 271 -157.5Q255 -173 232 -173Q209 -173 193 -157.5Q177 -142 177 -119ZM250 -197Q297 -197 328 -165.5Q359 -134 359 -80V416L309 446V474Q362 479 415 489Q468 499 520 514H522V-51Q522 -138 472.5 -187Q423 -236 339 -236Q300 -236 263.5 -224Q227 -212 207 -195L210 -192Q218 -195 227.5 -196Q237 -197 250 -197Z" glyph-name="ij" horiz-adv-x="586" unicode="&#307;" /><glyph d="M76 90V416L26 446V474Q79 479 131.5 489Q184 499 236 514H238V90Q238 71 246.5 58Q255 45 274 36L288 29V0H27V29L40 36Q59 45 67.5 58Q76 71 76 90ZM293 564H-16V633H293Z" glyph-name="imacron" horiz-adv-x="304" unicode="&#299;" /><glyph d="M389 656 239 355 194 376 357 700H422L584 376L539 354ZM88 51H369V0H29V47L176 339L221 318ZM690 51 558 317 603 338 749 47V0H410V51Z" glyph-name="increment" horiz-adv-x="778" unicode="&#8710;" /><glyph d="M805 352Q805 405 775.5 441.5Q746 478 701 478Q664 478 629.5 448.5Q595 419 530 320Q488 255 464 224Q440 193 417 170Q378 133 336.5 115Q295 97 249 97Q152 97 96 172Q40 247 40 364Q40 468 96.5 543Q153 618 239 618Q290 618 334 582Q378 546 400 492L371 450Q338 476 302 490Q266 504 234 504Q176 504 137 462.5Q98 421 98 363Q98 311 128 274Q158 237 203 237Q240 237 274.5 266Q309 295 372 394Q415 460 439 491.5Q463 523 486 545Q525 582 566.5 600Q608 618 655 618Q752 618 807.5 543Q863 468 863 351Q863 247 807 172Q751 97 665 97Q614 97 570 132.5Q526 168 503 223L533 265Q565 239 601 225Q637 211 670 211Q728 211 766.5 252.5Q805 294 805 352Z" glyph-name="infinity" horiz-adv-x="904" unicode="&#8734;" /><glyph d="M303 351Q303 296 265.5 257.5Q228 219 174 219Q120 219 82.5 257.5Q45 296 45 351Q45 406 82.5 444.5Q120 483 174 483Q228 483 265.5 444.5Q303 406 303 351Z" glyph-name="integral" horiz-adv-x="348" unicode="&#8747;" /><glyph d="M246 649Q246 609 219 582Q192 555 152 555Q113 555 85.5 582.5Q58 610 58 649Q58 689 85.5 716.5Q113 744 152 744Q192 744 219 716.5Q246 689 246 649ZM257 -162 245 -201Q223 -209 203.5 -212.5Q184 -216 167 -216Q117 -216 86 -191Q55 -166 55 -126Q55 -93 79 -60Q103 -27 146 0H27V29L40 36Q59 45 67.5 58Q76 71 76 90V416L26 446V474Q79 479 131.5 489Q184 499 236 514H238V90Q238 71 246.5 58Q255 45 274 36L288 29V0H207Q188 -32 178 -60Q168 -88 168 -108Q168 -134 187 -148.5Q206 -163 239 -163Q246 -163 251 -162.5Q256 -162 257 -162Z" glyph-name="iogonek" horiz-adv-x="304" unicode="&#303;" /><glyph d="M76 90V416L26 446V474Q79 479 131.5 489Q184 499 236 514H238V90Q238 71 246.5 58Q255 45 274 36L288 29V0H27V29L40 36Q59 45 67.5 58Q76 71 76 90ZM60 582Q45 582 36.5 575.5Q28 569 19 550L-22 563Q-18 624 7.5 655Q33 686 80 686Q93 686 110 682.5Q127 679 161 667Q186 658 197 655.5Q208 653 216 653Q231 653 240 659.5Q249 666 257 685L298 672Q294 611 268.5 579.5Q243 548 196 548Q183 548 166.5 551.5Q150 555 117 567Q91 576 79.5 579Q68 582 60 582Z" glyph-name="itilde" horiz-adv-x="304" unicode="&#297;" /><glyph d="M236 650Q236 610 209 583Q182 556 142 556Q102 556 75 583Q48 610 48 650Q48 690 75 717Q102 744 142 744Q182 744 209 717Q236 690 236 650ZM37 -252 5 -226Q30 -222 47.5 -185Q65 -148 65 -99V416L15 446V474Q68 479 121 489Q174 499 226 514H228V-59Q228 -143 174 -196Q120 -249 37 -252Z" glyph-name="j" horiz-adv-x="282" unicode="j" /><glyph d="M226 650Q226 610 199 583Q172 556 132 556Q92 556 65 583Q38 610 38 650Q38 690 65 717Q92 744 132 744Q172 744 199 717Q226 690 226 650ZM-127 -119Q-127 -97 -110.5 -80.5Q-94 -64 -72 -64Q-50 -64 -33.5 -80.5Q-17 -97 -17 -119Q-17 -142 -33 -157.5Q-49 -173 -72 -173Q-95 -173 -111 -157.5Q-127 -142 -127 -119ZM-54 -197Q-7 -197 24 -165.5Q55 -134 55 -80V416L5 446V474Q58 479 111 489Q164 499 216 514H218V-51Q218 -138 168.5 -187Q119 -236 35 -236Q-4 -236 -40.5 -224Q-77 -212 -97 -195L-94 -192Q-86 -195 -76.5 -196Q-67 -197 -54 -197Z" glyph-name="j.alt" horiz-adv-x="282" /><glyph d="M37 -252 5 -226Q30 -222 47.5 -185Q65 -148 65 -99V416L15 446V474Q68 479 121 489Q174 499 226 514H228V-59Q228 -143 174 -196Q120 -249 37 -252ZM36 549H-31L83 704H161L275 549H208L122 602Z" glyph-name="jcircumflex" horiz-adv-x="282" unicode="&#309;" /><glyph d="M236 744H238V90Q238 69 247 56.5Q256 44 275 37L295 29V0H26V29L40 36Q59 45 67.5 58Q76 71 76 90V646L6 676V704Q63 710 121 720Q179 730 236 744ZM444 386 278 243V298L352 377Q379 406 375 428.5Q371 451 340 461L315 468V498H587V468Q573 465 550 454.5Q527 444 509 433Q493 423 476 411Q459 399 444 386ZM372 39 286 205 409 309 475 193Q531 101 554.5 71Q578 41 594 34L606 29V0H457Q424 0 403.5 9.5Q383 19 372 39Z" glyph-name="k" horiz-adv-x="604" unicode="k" /><glyph d="M236 744H238V90Q238 69 247 56.5Q256 44 275 37L295 29V0H26V29L40 36Q59 45 67.5 58Q76 71 76 90V646L6 676V704Q63 710 121 720Q179 730 236 744ZM444 386 278 243V298L352 377Q379 406 375 428.5Q371 451 340 461L315 468V498H587V468Q573 465 550 454.5Q527 444 509 433Q493 423 476 411Q459 399 444 386ZM372 39 286 205 409 309 475 193Q531 101 554.5 71Q578 41 594 34L606 29V0H457Q424 0 403.5 9.5Q383 19 372 39ZM418 -173Q418 -226 385 -275.5Q352 -325 290 -364L260 -334Q288 -312 309.5 -282.5Q331 -253 344 -218Q337 -222 327.5 -224.5Q318 -227 307 -227Q272 -227 248 -202.5Q224 -178 224 -143Q224 -108 250 -81.5Q276 -55 315 -55Q359 -55 388.5 -89.5Q418 -124 418 -173Z" glyph-name="kcommaaccent" horiz-adv-x="604" unicode="&#311;" /><glyph d="M239 408V90Q239 71 247 59.5Q255 48 274 40L296 29V0H27V29L41 37Q59 45 67.5 58Q76 71 76 90V408Q76 427 67.5 440Q59 453 41 461L27 469V498H296V469L274 459Q255 450 247 438.5Q239 427 239 408ZM314 158 263 251 378 372Q405 400 405.5 425.5Q406 451 375 458L334 468V498H593V468Q566 458 537.5 438.5Q509 419 479 391L406 324L488 192Q533 123 566.5 82.5Q600 42 621 33L634 29V0H504Q454 0 431 8Q408 16 393 34Q381 49 370.5 64Q360 79 314 158Z" glyph-name="kgreenlandic" horiz-adv-x="629" unicode="&#312;" /><glyph d="M229 744V90Q229 70 237.5 57.5Q246 45 264 36L278 29V0H17V29L31 36Q49 45 57.5 57.5Q66 70 66 90V646L-3 676V704Q55 710 113 720Q171 730 227 744Z" glyph-name="l" horiz-adv-x="295" unicode="l" /><glyph d="M229 744V90Q229 70 237.5 57.5Q246 45 264 36L278 29V0H17V29L31 36Q49 45 57.5 57.5Q66 70 66 90V646L-3 676V704Q55 710 113 720Q171 730 227 744ZM170 799H113L128 954H299Z" glyph-name="lacute" horiz-adv-x="295" unicode="&#314;" /><glyph d="M449 582Q449 529 416 479.5Q383 430 321 391L291 421Q319 443 340.5 472.5Q362 502 375 537Q368 533 358.5 530.5Q349 528 338 528Q303 528 279 552.5Q255 577 255 612Q255 647 281 673.5Q307 700 346 700Q390 700 419.5 665.5Q449 631 449 582ZM229 744V90Q229 70 237.5 57.5Q246 45 264 36L278 29V0H17V29L31 36Q49 45 57.5 57.5Q66 70 66 90V646L-3 676V704Q55 710 113 720Q171 730 227 744Z" glyph-name="lcaron" horiz-adv-x="397" unicode="&#318;" /><glyph d="M229 744V90Q229 70 237.5 57.5Q246 45 264 36L278 29V0H17V29L31 36Q49 45 57.5 57.5Q66 70 66 90V646L-3 676V704Q55 710 113 720Q171 730 227 744ZM252 -173Q252 -226 219 -275.5Q186 -325 124 -364L94 -334Q122 -312 143.5 -282.5Q165 -253 178 -218Q171 -222 161.5 -224.5Q152 -227 141 -227Q106 -227 82 -202.5Q58 -178 58 -143Q58 -108 84 -81.5Q110 -55 149 -55Q193 -55 222.5 -89.5Q252 -124 252 -173Z" glyph-name="lcommaaccent" horiz-adv-x="295" unicode="&#316;" /><glyph d="M229 744V90Q229 70 237.5 57.5Q246 45 264 36L278 29V0H17V29L31 36Q49 45 57.5 57.5Q66 70 66 90V646L-3 676V704Q55 710 113 720Q171 730 227 744ZM462 328Q462 288 434.5 261Q407 234 367 234Q328 234 300.5 261.5Q273 289 273 328Q273 368 300.5 395.5Q328 423 367 423Q408 423 435 396Q462 369 462 328Z" glyph-name="ldot" horiz-adv-x="449" unicode="&#320;" /><glyph d="M461 218V146L44 327V389L461 570V498L131 358Z" glyph-name="less" horiz-adv-x="540" unicode="&lt;" /><glyph d="M384 110 344 74 27 359 344 644 384 608 246 403 697 410V308L246 315Z" glyph-name="less.alt" horiz-adv-x="735" unicode="&#8592;" /><glyph d="M472 218V146L55 327V389L472 570V498L142 358ZM472 0H55V64H472Z" glyph-name="lessequal" horiz-adv-x="540" unicode="&#8804;" /><glyph d="M474 247H407V406H57V468H474Z" glyph-name="logicalnot" horiz-adv-x="540" unicode="&#172;" /><glyph d="M621 -162Q603 -170 590 -170Q577 -170 559 -162Q330 -59 183.5 115.5Q37 290 37 475Q37 549 64 618Q91 687 139 737Q183 782 243.5 806Q304 830 374 830Q435 830 491.5 808Q548 786 596 744Q643 786 697.5 807Q752 828 813 828Q881 828 941 804Q1001 780 1045 734Q1093 685 1119.5 616Q1146 547 1146 473Q1146 288 998.5 114.5Q851 -59 621 -162ZM342 25Q403 -24 473 -66.5Q543 -109 581 -124Q586 -126 590 -126Q594 -126 599 -124Q638 -108 708.5 -66Q779 -24 840 24Q893 66 935.5 110.5Q978 155 1011 203Q1055 268 1078.5 337Q1102 406 1102 474Q1102 541 1077.5 602.5Q1053 664 1008 708Q967 747 917.5 767Q868 787 810 787Q751 787 695.5 765Q640 743 592 700Q541 744 485.5 766Q430 788 371 788Q315 788 265.5 768Q216 748 176 710Q131 666 106 603.5Q81 541 81 473Q81 406 104 337Q127 268 171 205Q204 156 247 111Q290 66 342 25ZM360 522Q360 512 368 504Q376 496 386 496Q391 496 395.5 498Q400 500 403 504Q409 510 410 519Q411 528 407 538L344 697Q341 704 334 707Q327 710 320 707Q313 704 310 697Q307 690 310 683L344 597L246 575Q239 574 234.5 567.5Q230 561 232 553Q233 546 239.5 541.5Q246 537 254 539L358 562L367 540Q363 536 361.5 531.5Q360 527 360 522ZM844 515Q858 511 872.5 513Q887 515 899 522Q924 535 933.5 561.5Q943 588 931 611L898 678Q895 685 887.5 687Q880 689 873 686L738 612Q731 608 729 601Q727 594 731 587Q735 580 742 578Q749 576 756 580L783 595L809 545Q814 535 823.5 527Q833 519 844 515ZM413 655Q413 641 422.5 631.5Q432 622 445 622Q458 622 467.5 631.5Q477 641 477 654Q477 668 468 677.5Q459 687 445 687Q431 687 422 677.5Q413 668 413 655ZM685 521Q664 514 639.5 510Q615 506 590 506Q566 506 542.5 509.5Q519 513 498 520Q522 561 545 593.5Q568 626 592 650Q614 628 636.5 596Q659 564 685 521ZM882 553Q870 547 858.5 549Q847 551 841 561L815 613L874 645L899 595Q905 584 899.5 572Q894 560 882 553ZM891 301Q898 304 901 311Q904 318 901 324L861 414L894 429L909 396Q912 389 919 386.5Q926 384 933 387Q940 390 942.5 397Q945 404 942 411L927 445L958 460L990 388Q993 381 1000 378.5Q1007 376 1014 379Q1021 382 1023.5 389Q1026 396 1023 403L983 492Q982 496 979.5 498.5Q977 501 973 502Q970 503 966 502.5Q962 502 959 501L830 439Q823 435 820.5 428.5Q818 422 821 415L868 310Q871 303 877.5 300.5Q884 298 891 301ZM462 90Q464 85 468.5 82Q473 79 479 79H720Q728 79 733.5 84Q739 89 739 97Q739 105 734 110Q729 115 721 115H542Q637 165 676 210Q715 255 715 304Q715 356 681 392Q647 428 592 428Q536 428 498.5 395Q461 362 461 312Q461 275 486 247Q511 219 548 219Q581 219 603.5 239Q626 259 626 292Q626 313 615.5 324.5Q605 336 590 336Q576 336 566.5 326.5Q557 317 557 304Q557 296 561 289Q565 282 572 277Q576 273 569 264Q562 255 546 255Q526 255 512.5 272.5Q499 290 499 313Q499 349 524 371Q549 393 590 393Q628 393 651.5 368Q675 343 675 305Q675 270 649.5 237Q624 204 566 166Q550 156 531.5 145.5Q513 135 485 121Q474 115 470.5 113Q467 111 466 110Q462 105 461 100Q460 95 462 90ZM178 350Q186 348 192.5 351.5Q199 355 201 362L218 412L332 372Q339 369 346 372Q353 375 355 383Q358 390 354.5 397Q351 404 344 406L229 447L244 494Q246 502 242.5 508.5Q239 515 232 517Q225 519 218 515.5Q211 512 209 505L166 373Q164 366 167.5 359Q171 352 178 350ZM817 53Q765 11 704.5 -26.5Q644 -64 590 -90Q539 -66 478 -27Q417 12 364 54Q313 95 272 138Q231 181 201 226Q161 284 139.5 348Q118 412 118 474Q118 535 140 590Q162 645 202 684Q237 718 280.5 735Q324 752 374 752Q424 752 472.5 732.5Q521 713 566 675Q539 646 514 612.5Q489 579 467 540Q429 474 397.5 392Q366 310 344 221L294 231Q287 233 280.5 229Q274 225 273 218Q271 211 275.5 205Q280 199 287 198L422 169Q429 168 434.5 171.5Q440 175 442 182Q443 189 439.5 195Q436 201 429 203L381 213Q400 289 425.5 358.5Q451 428 481 487Q507 478 534.5 473Q562 468 590 468Q619 468 647.5 473Q676 478 702 488Q732 428 757.5 356Q783 284 800 212L752 202Q745 201 741 195Q737 189 738 182Q739 175 745.5 170.5Q752 166 759 168L894 196Q901 198 904.5 203.5Q908 209 907 216Q906 223 900 227.5Q894 232 887 230L838 220Q838 221 837.5 222Q837 223 837 223Q814 314 783 395.5Q752 477 714 543Q692 582 668.5 615Q645 648 619 674Q663 712 711.5 731.5Q760 751 810 751Q861 751 904.5 733.5Q948 716 982 682Q1021 643 1043 588.5Q1065 534 1065 473Q1065 411 1043.5 348Q1022 285 981 223Q950 179 909 136.5Q868 94 817 53ZM558 3Q558 -11 567.5 -20.5Q577 -30 590 -30Q603 -30 612.5 -20.5Q622 -11 622 2Q622 16 613 25.5Q604 35 590 35Q576 35 567 25.5Q558 16 558 3Z" glyph-name="logo" horiz-adv-x="1184" /><glyph d="M250 611V440H7V498H88V564Q88 654 148 712Q208 770 293 770Q362 770 407 735Q452 700 452 652Q452 628 435.5 610Q419 592 396 592Q372 592 356 607Q340 622 340 646Q340 651 341.5 656Q343 661 347 672Q351 682 352.5 687Q354 692 354 696Q354 705 345.5 709.5Q337 714 321 714Q288 714 269 687Q250 660 250 611ZM88 90V408H250V90Q250 74 257.5 64Q265 54 284 45L318 29V0H38V29L55 38Q71 46 79.5 59.5Q88 73 88 90Z" glyph-name="longs" horiz-adv-x="345" unicode="&#383;" /><glyph d="M820 350 411 -66 3 350 411 767Z" glyph-name="lozenge" horiz-adv-x="823" unicode="&#9674;" /><glyph d="M284 29V0H23V29L37 36Q55 45 63.5 57.5Q72 70 72 90V241L0 205V268L72 304V646L3 676V704Q61 710 119 720Q177 730 233 744H235V387L307 423V360L235 324V90Q235 70 243.5 57.5Q252 45 270 36Z" glyph-name="lslash" horiz-adv-x="306" unicode="&#322;" /><glyph d="M284 29V0H26V29L40 36Q58 45 66.5 57.5Q75 70 75 90V416L25 446V474Q78 479 131 489Q184 499 236 514H238V90Q238 70 246.5 57.5Q255 45 273 36ZM594 413Q583 413 576.5 413Q570 413 568 412Q567 417 564 425Q561 433 556 445Q581 474 618 493.5Q655 513 692 513Q753 513 791 469Q829 425 829 347V90Q829 70 837.5 57.5Q846 45 864 36L878 29V0H617V29L631 36Q649 45 657.5 57.5Q666 70 666 90V322Q666 366 647 389.5Q628 413 594 413ZM402 513Q461 513 500 469.5Q539 426 539 351V90Q539 71 547.5 58Q556 45 575 36L589 29V0H328V29L342 36Q360 45 368.5 58Q377 71 377 90V313Q377 362 356.5 387.5Q336 413 297 413Q288 413 282.5 412.5Q277 412 272 411V445Q303 481 334.5 497Q366 513 402 513Z" glyph-name="m" horiz-adv-x="891" unicode="m" /><glyph d="M372 584H63V653H372Z" glyph-name="macron" horiz-adv-x="435" unicode="&#175;" /><glyph d="M478 327H61V389H478Z" glyph-name="minus" horiz-adv-x="540" unicode="&#8722;" /><glyph d="M378 -15V416L328 446V474Q381 479 433.5 489Q486 499 538 514H540V69L592 36V8Q530 4 480 -1.5Q430 -7 378 -15ZM214 -15Q189 -15 168.5 -8Q148 -1 133 13V-166H88V416L38 446V474Q91 479 143.5 489Q196 499 248 514H250V138Q250 105 268.5 86.5Q287 68 320 68Q324 68 332.5 69Q341 70 344 70V37Q321 14 285.5 -0.5Q250 -15 214 -15Z" glyph-name="mu" horiz-adv-x="633" unicode="&#181;" /><glyph d="M269 314 109 153 65 198 224 358 65 518 110 563 269 402 431 563 475 518 313 358 474 198 429 153Z" glyph-name="multiply" horiz-adv-x="540" unicode="&#215;" /><glyph d="M236 514H238V90Q238 69 246.5 56.5Q255 44 274 37L294 29V0H26V29L40 36Q58 45 66.5 57.5Q75 70 75 90V416L25 446V474Q78 479 131 489Q184 499 236 514ZM305 413Q295 413 289 413Q283 413 278 412V445Q299 475 331.5 494Q364 513 400 513Q472 513 507 468Q542 423 542 331V90Q542 71 550.5 58Q559 45 578 36L592 29V0H331V29L344 36Q363 45 371.5 58Q380 71 380 90V320Q380 368 362 390.5Q344 413 305 413Z" glyph-name="n" horiz-adv-x="605" unicode="n" /><glyph d="M236 514H238V90Q238 69 246.5 56.5Q255 44 274 37L294 29V0H26V29L40 36Q58 45 66.5 57.5Q75 70 75 90V416L25 446V474Q78 479 131 489Q184 499 236 514ZM305 413Q295 413 289 413Q283 413 278 412V445Q299 475 331.5 494Q364 513 400 513Q472 513 507 468Q542 423 542 331V90Q542 71 550.5 58Q559 45 578 36L592 29V0H331V29L344 36Q363 45 371.5 58Q380 71 380 90V320Q380 368 362 390.5Q344 413 305 413ZM327 584H270L285 739H456Z" glyph-name="nacute" horiz-adv-x="605" unicode="&#324;" /><glyph d="M390 514H392V90Q392 69 400.5 56.5Q409 44 428 37L448 29V0H180V29L194 36Q212 45 220.5 57.5Q229 70 229 90V416L179 446V474Q232 479 285 489Q338 499 390 514ZM459 413Q449 413 443 413Q437 413 432 412V445Q453 475 485.5 494Q518 513 554 513Q626 513 661 468Q696 423 696 331V90Q696 71 704.5 58Q713 45 732 36L746 29V0H485V29L498 36Q517 45 525.5 58Q534 71 534 90V320Q534 368 516 390.5Q498 413 459 413ZM203 621Q203 568 170 518.5Q137 469 75 430L45 460Q73 482 94.5 511.5Q116 541 129 576Q122 572 112.5 569.5Q103 567 92 567Q57 567 33 591.5Q9 616 9 651Q9 686 35 712.5Q61 739 100 739Q144 739 173.5 704.5Q203 670 203 621Z" glyph-name="napostrophe" horiz-adv-x="760" unicode="&#329;" /><glyph d="M236 514H238V90Q238 69 246.5 56.5Q255 44 274 37L294 29V0H26V29L40 36Q58 45 66.5 57.5Q75 70 75 90V416L25 446V474Q78 479 131 489Q184 499 236 514ZM305 413Q295 413 289 413Q283 413 278 412V445Q299 475 331.5 494Q364 513 400 513Q472 513 507 468Q542 423 542 331V90Q542 71 550.5 58Q559 45 578 36L592 29V0H331V29L344 36Q363 45 371.5 58Q380 71 380 90V320Q380 368 362 390.5Q344 413 305 413ZM260 584 146 739H213L299 686L385 739H452L338 584Z" glyph-name="ncaron" horiz-adv-x="605" unicode="&#328;" /><glyph d="M236 514H238V90Q238 69 246.5 56.5Q255 44 274 37L294 29V0H26V29L40 36Q58 45 66.5 57.5Q75 70 75 90V416L25 446V474Q78 479 131 489Q184 499 236 514ZM305 413Q295 413 289 413Q283 413 278 412V445Q299 475 331.5 494Q364 513 400 513Q472 513 507 468Q542 423 542 331V90Q542 71 550.5 58Q559 45 578 36L592 29V0H331V29L344 36Q363 45 371.5 58Q380 71 380 90V320Q380 368 362 390.5Q344 413 305 413ZM403 -163Q403 -216 370 -265.5Q337 -315 275 -354L245 -324Q273 -302 294.5 -272.5Q316 -243 329 -208Q322 -212 312.5 -214.5Q303 -217 292 -217Q257 -217 233 -192.5Q209 -168 209 -133Q209 -98 235 -71.5Q261 -45 300 -45Q344 -45 373.5 -79.5Q403 -114 403 -163Z" glyph-name="ncommaaccent" horiz-adv-x="605" unicode="&#326;" /><glyph d="M208 519Q208 449 240 386Q272 323 323 305Q319 292 316 283.5Q313 275 309 267Q294 263 277 261Q260 259 245 259Q153 259 87 318.5Q21 378 21 468Q21 566 90.5 637.5Q160 709 274 715V668Q242 661 225 622.5Q208 584 208 519ZM381 471Q381 557 362.5 606.5Q344 656 308 667V715Q429 709 504.5 630.5Q580 552 580 431Q580 349 541.5 269.5Q503 190 431 125Q368 67 286.5 28.5Q205 -10 117 -24L105 -3Q251 87 316 201.5Q381 316 381 471Z" glyph-name="nine" horiz-adv-x="614" unicode="9" /><glyph d="M363 259Q363 163 282.5 84Q202 5 86 -14L78 -2Q135 32 170 72Q205 112 223 161Q212 158 197 156.5Q182 155 165 155Q109 155 68.5 191Q28 227 28 281Q28 346 71.5 387.5Q115 429 191 429Q268 429 315.5 382Q363 335 363 259ZM188 402Q166 402 153.5 378Q141 354 141 311Q141 265 168 230.5Q195 196 234 196Q239 218 241.5 240Q244 262 244 284Q244 342 230 372Q216 402 188 402Z" glyph-name="nine.dnom" horiz-adv-x="400" /><glyph d="M363 545Q363 449 282.5 370Q202 291 86 272L78 284Q135 318 170 358Q205 398 223 447Q212 444 197 442.5Q182 441 165 441Q109 441 68.5 477Q28 513 28 567Q28 632 71.5 673.5Q115 715 191 715Q268 715 315.5 668Q363 621 363 545ZM188 688Q166 688 153.5 664Q141 640 141 597Q141 551 168 516.5Q195 482 234 482Q239 504 241.5 526Q244 548 244 570Q244 628 230 658Q216 688 188 688Z" glyph-name="nine.numr" horiz-adv-x="400" /><glyph d="M338 314Q338 393 322.5 438Q307 483 277 493V539Q383 532 449 459.5Q515 387 515 277Q515 130 396 8.5Q277 -113 106 -141L94 -122Q223 -39 280.5 66.5Q338 172 338 314ZM187 359Q187 286 212.5 236Q238 186 284 172Q282 162 280 153.5Q278 145 272 133Q259 130 244.5 128.5Q230 127 216 127Q132 127 75.5 179Q19 231 19 314Q19 404 80.5 468.5Q142 533 243 538V494Q216 487 201.5 452.5Q187 418 187 359Z" glyph-name="nine.pnum" horiz-adv-x="546" /><glyph d="M201 519Q201 449 233 386Q265 323 316 305Q312 292 309 283.5Q306 275 302 267Q287 263 270 261Q253 259 238 259Q146 259 80 318.5Q14 378 14 468Q14 566 83.5 637.5Q153 709 267 715V668Q235 661 218 622.5Q201 584 201 519ZM374 471Q374 557 355.5 606.5Q337 656 301 667V715Q422 709 497.5 630.5Q573 552 573 431Q573 349 534.5 269.5Q496 190 424 125Q361 67 279.5 28.5Q198 -10 110 -24L98 -3Q244 87 309 201.5Q374 316 374 471Z" glyph-name="nine.tnum" horiz-adv-x="600" /><glyph d="M363 159Q363 63 282.5 -16Q202 -95 86 -114L78 -102Q135 -68 170 -28Q205 12 223 61Q212 58 197 56.5Q182 55 165 55Q109 55 68.5 91Q28 127 28 181Q28 246 71.5 287.5Q115 329 191 329Q268 329 315.5 282Q363 235 363 159ZM188 302Q166 302 153.5 278Q141 254 141 211Q141 165 168 130.5Q195 96 234 96Q239 118 241.5 140Q244 162 244 184Q244 242 230 272Q216 302 188 302Z" glyph-name="nineinferior" horiz-adv-x="400" unicode="&#8329;" /><glyph d="M363 645Q363 549 282.5 470Q202 391 86 372L78 384Q135 418 170 458Q205 498 223 547Q212 544 197 542.5Q182 541 165 541Q109 541 68.5 577Q28 613 28 667Q28 732 71.5 773.5Q115 815 191 815Q268 815 315.5 768Q363 721 363 645ZM188 788Q166 788 153.5 764Q141 740 141 697Q141 651 168 616.5Q195 582 234 582Q239 604 241.5 626Q244 648 244 670Q244 728 230 758Q216 788 188 788Z" glyph-name="ninesuperior" horiz-adv-x="400" unicode="&#8313;" /><glyph d="M478 291V227H254L215 136L158 161L186 227H61V291H213L269 424H61V488H296L335 579L392 554L364 488H478V424H337L281 291Z" glyph-name="notequal" horiz-adv-x="540" unicode="&#8800;" /><glyph d="M236 514H238V90Q238 69 246.5 56.5Q255 44 274 37L294 29V0H26V29L40 36Q58 45 66.5 57.5Q75 70 75 90V416L25 446V474Q78 479 131 489Q184 499 236 514ZM305 413Q295 413 289 413Q283 413 278 412V445Q299 475 331.5 494Q364 513 400 513Q472 513 507 468Q542 423 542 331V90Q542 71 550.5 58Q559 45 578 36L592 29V0H331V29L344 36Q363 45 371.5 58Q380 71 380 90V320Q380 368 362 390.5Q344 413 305 413ZM221 617Q206 617 197.5 610.5Q189 604 180 585L139 598Q143 659 168.5 690Q194 721 241 721Q254 721 271 717.5Q288 714 322 702Q347 693 358 690.5Q369 688 377 688Q392 688 401 694.5Q410 701 418 720L459 707Q455 646 429.5 614.5Q404 583 357 583Q344 583 327.5 586.5Q311 590 278 602Q252 611 240.5 614Q229 617 221 617Z" glyph-name="ntilde" horiz-adv-x="605" unicode="&#241;" /><glyph d="M380 227H267V291H380V424H267V488H380V700H448V488H576V424H448V291H576V227H448V0H380ZM233 700V0H167V227H38V291H167V424H38V488H167V700Z" glyph-name="numbersign" horiz-adv-x="614" unicode="#" /><glyph d="M196 248Q196 152 214 96Q232 40 265 29V-14Q162 -7 91.5 68.5Q21 144 21 248Q21 353 91.5 429Q162 505 265 512V469Q231 458 213.5 401.5Q196 345 196 248ZM370 248Q370 346 352 402Q334 458 299 469V512Q403 505 474 429Q545 353 545 248Q545 144 473.5 68.5Q402 -7 299 -14V29Q334 40 352 95.5Q370 151 370 248Z" glyph-name="o" horiz-adv-x="566" unicode="o" /><glyph d="M196 248Q196 152 214 96Q232 40 265 29V-14Q162 -7 91.5 68.5Q21 144 21 248Q21 353 91.5 429Q162 505 265 512V469Q231 458 213.5 401.5Q196 345 196 248ZM370 248Q370 346 352 402Q334 458 299 469V512Q403 505 474 429Q545 353 545 248Q545 144 473.5 68.5Q402 -7 299 -14V29Q334 40 352 95.5Q370 151 370 248ZM311 574H254L269 729H440Z" glyph-name="oacute" horiz-adv-x="566" unicode="&#243;" /><glyph d="M196 248Q196 152 214 96Q232 40 265 29V-14Q162 -7 91.5 68.5Q21 144 21 248Q21 353 91.5 429Q162 505 265 512V469Q231 458 213.5 401.5Q196 345 196 248ZM370 248Q370 346 352 402Q334 458 299 469V512Q403 505 474 429Q545 353 545 248Q545 144 473.5 68.5Q402 -7 299 -14V29Q334 40 352 95.5Q370 151 370 248ZM283 573Q213 573 175.5 610.5Q138 648 138 715V745H192V739Q192 708 214.5 693.5Q237 679 283 679Q329 679 351 693.5Q373 708 373 739V745H427V715Q427 648 389.5 610.5Q352 573 283 573Z" glyph-name="obreve" horiz-adv-x="566" unicode="&#335;" /><glyph d="M196 248Q196 152 214 96Q232 40 265 29V-14Q162 -7 91.5 68.5Q21 144 21 248Q21 353 91.5 429Q162 505 265 512V469Q231 458 213.5 401.5Q196 345 196 248ZM370 248Q370 346 352 402Q334 458 299 469V512Q403 505 474 429Q545 353 545 248Q545 144 473.5 68.5Q402 -7 299 -14V29Q334 40 352 95.5Q370 151 370 248ZM196 574H129L243 729H321L435 574H368L282 627Z" glyph-name="ocircumflex" horiz-adv-x="566" unicode="&#244;" /><glyph d="M196 248Q196 152 214 96Q232 40 265 29V-14Q162 -7 91.5 68.5Q21 144 21 248Q21 353 91.5 429Q162 505 265 512V469Q231 458 213.5 401.5Q196 345 196 248ZM370 248Q370 346 352 402Q334 458 299 469V512Q403 505 474 429Q545 353 545 248Q545 144 473.5 68.5Q402 -7 299 -14V29Q334 40 352 95.5Q370 151 370 248ZM465 661Q465 628 442.5 605Q420 582 388 582Q356 582 333.5 605Q311 628 311 661Q311 693 333.5 716Q356 739 388 739Q420 739 442.5 716Q465 693 465 661ZM266 661Q266 628 243.5 605Q221 582 189 582Q157 582 134.5 605Q112 628 112 661Q112 693 134.5 716Q157 739 189 739Q221 739 243.5 716Q266 693 266 661Z" glyph-name="odieresis" horiz-adv-x="566" unicode="&#246;" /><glyph d="M601 125V-14Q558 -12 519.5 3.5Q481 19 451 45Q417 18 378 2.5Q339 -13 298 -14V29Q333 40 351 95.5Q369 151 369 248Q369 346 351 402Q333 458 298 469V512Q341 510 380.5 494.5Q420 479 454 451Q483 478 520 493.5Q557 509 601 512V470Q574 458 561 419.5Q548 381 547 314L686 317Q692 386 678.5 426.5Q665 467 635 473V513Q727 509 783.5 449.5Q840 390 840 297V272H546V263Q546 216 559.5 182Q573 148 601 125ZM20 248Q20 353 90.5 429Q161 505 264 512V469Q231 458 213.5 402Q196 346 196 248Q196 152 213.5 96Q231 40 264 29V-14Q161 -7 90.5 68.5Q20 144 20 248ZM635 -15V106Q650 101 664.5 99Q679 97 694 97Q733 97 762 109.5Q791 122 811 148L835 139Q814 68 762 28Q710 -12 635 -15Z" glyph-name="oe" horiz-adv-x="860" unicode="&#339;" /><glyph d="M248 -163Q255 -163 260 -162.5Q265 -162 266 -162L254 -201Q232 -209 212.5 -212.5Q193 -216 176 -216Q126 -216 95 -191Q64 -166 64 -126Q64 -81 105.5 -39Q147 3 210 27L228 21Q204 -18 190.5 -51.5Q177 -85 177 -108Q177 -134 196 -148.5Q215 -163 248 -163Z" glyph-name="ogonek" horiz-adv-x="287" unicode="&#731;" /><glyph d="M196 248Q196 152 214 96Q232 40 265 29V-14Q162 -7 91.5 68.5Q21 144 21 248Q21 353 91.5 429Q162 505 265 512V469Q231 458 213.5 401.5Q196 345 196 248ZM370 248Q370 346 352 402Q334 458 299 469V512Q403 505 474 429Q545 353 545 248Q545 144 473.5 68.5Q402 -7 299 -14V29Q334 40 352 95.5Q370 151 370 248ZM311 574H254L125 729H296Z" glyph-name="ograve" horiz-adv-x="566" unicode="&#242;" /><glyph d="M196 248Q196 152 214 96Q232 40 265 29V-14Q162 -7 91.5 68.5Q21 144 21 248Q21 353 91.5 429Q162 505 265 512V469Q231 458 213.5 401.5Q196 345 196 248ZM370 248Q370 346 352 402Q334 458 299 469V512Q403 505 474 429Q545 353 545 248Q545 144 473.5 68.5Q402 -7 299 -14V29Q334 40 352 95.5Q370 151 370 248ZM407 574H350L365 729H536ZM206 574H149L164 729H335Z" glyph-name="ohungarumlaut" horiz-adv-x="566" unicode="&#337;" /><glyph d="M196 248Q196 152 214 96Q232 40 265 29V-14Q162 -7 91.5 68.5Q21 144 21 248Q21 353 91.5 429Q162 505 265 512V469Q231 458 213.5 401.5Q196 345 196 248ZM370 248Q370 346 352 402Q334 458 299 469V512Q403 505 474 429Q545 353 545 248Q545 144 473.5 68.5Q402 -7 299 -14V29Q334 40 352 95.5Q370 151 370 248ZM437 589H128V658H437Z" glyph-name="omacron" horiz-adv-x="566" unicode="&#333;" /><glyph d="M335 715V645L34 540V609ZM149 122V546L335 610V122Q335 87 347 73.5Q359 60 387 57L445 52V0H40V52L96 57Q125 60 137 73Q149 86 149 122Z" glyph-name="one" horiz-adv-x="457" unicode="1" /><glyph d="M329 31V0H85V31L118 34Q136 36 143 43.5Q150 51 150 72V347L85 343V369L234 424H262V72Q262 52 269 44Q276 36 293 34Z" glyph-name="one.dnom" horiz-adv-x="400" /><glyph d="M329 317V286H85V317L118 320Q136 322 143 329.5Q150 337 150 358V633L85 629V655L234 710H262V358Q262 338 269 330Q276 322 293 320Z" glyph-name="one.numr" horiz-adv-x="400" /><glyph d="M277 533V479L33 392V447ZM120 104V390L277 444V104Q277 75 286 64Q295 53 322 46L354 36V0H42V36L75 46Q102 53 111 64Q120 75 120 104Z" glyph-name="one.pnum" horiz-adv-x="380" /><glyph d="M407 715V645L106 540V609ZM221 122V546L407 610V122Q407 87 419 73.5Q431 60 459 57L517 52V0H112V52L168 57Q197 60 209 73Q221 86 221 122Z" glyph-name="one.tnum" horiz-adv-x="600" /><glyph d="M320 317V286H76V317L109 320Q127 322 134 329.5Q141 337 141 358V633L76 629V655L225 710H253V358Q253 338 260 330Q267 322 284 320ZM611 308Q611 359 654 394Q697 429 768 429Q832 429 870 401.5Q908 374 908 333Q908 301 883 278Q858 255 823 250V248Q876 225 900 194.5Q924 164 924 122Q924 68 877 29.5Q830 -9 755 -9Q683 -9 640.5 22Q598 53 598 105Q598 140 622 167Q646 194 684 203V204Q650 224 630.5 251Q611 278 611 308ZM831 338Q831 367 814 384.5Q797 402 769 402Q743 402 725 385.5Q707 369 707 343Q707 322 721 306Q735 290 765 276L791 264Q807 276 819 297.5Q831 319 831 338ZM676 106Q676 71 698.5 48Q721 25 758 25Q789 25 808.5 43.5Q828 62 828 91Q828 117 807 136Q786 155 723 184L712 189Q695 174 685.5 151Q676 128 676 106ZM798 700 237 0H182L743 700Z" glyph-name="oneeight" horiz-adv-x="999" unicode="&#8539;" /><glyph d="M912 94 897 0H602V27L668 87Q728 142 755 188Q782 234 782 280Q782 314 760.5 335.5Q739 357 709 357Q683 357 660.5 342Q638 327 627 302L602 312Q620 366 663.5 397.5Q707 429 759 429Q822 429 860 395.5Q898 362 898 308Q898 265 864.5 220.5Q831 176 751 117L714 94ZM809 700 248 0H193L754 700ZM331 317V286H87V317L120 320Q138 322 145 329.5Q152 337 152 358V633L87 629V655L236 710H264V358Q264 338 271 330Q278 322 295 320Z" glyph-name="onehalf" horiz-adv-x="999" unicode="&#189;" /><glyph d="M329 -69V-100H85V-69L118 -66Q136 -64 143 -56.5Q150 -49 150 -28V247L85 243V269L234 324H262V-28Q262 -48 269 -56Q276 -64 293 -66Z" glyph-name="oneinferior" horiz-adv-x="400" unicode="&#8321;" /><glyph d="M811 700 250 0H195L756 700ZM897 21V0H685V21L718 34Q731 41 734 46Q737 51 737 59V97H570L564 133L749 429H825L605 153H737V245L843 267V155H913L908 97H843V59Q843 51 846 46.5Q849 42 864 34ZM331 317V286H87V317L120 320Q138 322 145 329.5Q152 337 152 358V633L87 629V655L236 710H264V358Q264 338 271 330Q278 322 295 320Z" glyph-name="onequarter" horiz-adv-x="1000" unicode="&#188;" /><glyph d="M329 417V386H85V417L118 420Q136 422 143 429.5Q150 437 150 458V733L85 729V755L234 810H262V458Q262 438 269 430Q276 422 293 420Z" glyph-name="onesuperior" horiz-adv-x="400" unicode="&#185;" /><glyph d="M911 122Q911 64 865 27.5Q819 -9 741 -9Q686 -9 647 14.5Q608 38 608 73Q608 89 621.5 102Q635 115 652 115Q666 115 675.5 106Q685 97 695 68Q705 37 716 27Q727 17 743 17Q772 17 791 36.5Q810 56 810 84Q810 112 789 137.5Q768 163 707 201L706 211L724 221Q763 242 782 264.5Q801 287 801 315Q801 341 782 357.5Q763 374 733 374Q705 374 683.5 363Q662 352 634 321L617 332Q632 371 676 400Q720 429 775 429Q830 429 864 402Q898 375 898 335Q898 304 878.5 281.5Q859 259 821 247L812 244Q857 226 884 193.5Q911 161 911 122ZM811 700 250 0H195L756 700ZM333 317V286H89V317L122 320Q140 322 147 329.5Q154 337 154 358V633L89 629V655L238 710H266V358Q266 338 273 330Q280 322 297 320Z" glyph-name="onethird" horiz-adv-x="1000" unicode="&#8531;" /><glyph d="M274 715Q359 715 408.5 670Q458 625 458 546V302Q458 281 466.5 270.5Q475 260 492 260Q496 260 505 261.5Q514 263 519 265L523 238Q504 215 471 201Q438 187 402 187Q355 187 325.5 211Q296 235 296 277V524Q296 578 270.5 607Q245 636 200 636Q171 636 146.5 626Q122 616 122 605Q122 601 125 597Q128 593 137 586Q152 576 157 567Q162 558 162 547Q162 526 146.5 512Q131 498 111 498Q88 498 72 515Q56 532 56 557Q56 588 77 620.5Q98 653 133 676Q163 695 198.5 705Q234 715 274 715ZM273 224Q255 208 225 197.5Q195 187 168 187Q108 187 70 221.5Q32 256 32 314Q32 364 64 398.5Q96 433 154 448L262 476V436L253 431Q223 415 209 392Q195 369 195 339Q195 301 212 278.5Q229 256 256 256H263Q263 248 265.5 239.5Q268 231 273 224Z" glyph-name="ordfeminine" horiz-adv-x="548" unicode="&#170;" /><glyph d="M208 450Q208 354 226 298Q244 242 277 231V188Q174 195 103.5 270.5Q33 346 33 450Q33 555 103.5 631Q174 707 277 714V671Q243 660 225.5 603.5Q208 547 208 450ZM382 450Q382 548 364 604Q346 660 311 671V714Q415 707 486 631Q557 555 557 450Q557 346 485.5 270.5Q414 195 311 188V231Q346 242 364 297.5Q382 353 382 450Z" glyph-name="ordmasculine" horiz-adv-x="590" unicode="&#186;" /><glyph d="M637 251Q637 142 558.5 63.5Q480 -15 370 -15Q228 -15 134.5 83Q41 181 41 336Q41 493 151.5 604Q262 715 419 715Q469 715 517.5 703Q566 691 608 668L599 653Q560 675 514 686.5Q468 698 420 698Q272 698 166.5 591.5Q61 485 61 336Q61 264 85.5 199.5Q110 135 155 86L157 88Q131 124 117 166Q103 208 103 251Q103 361 181.5 439Q260 517 371 517Q481 517 559 439Q637 361 637 251Z" glyph-name="orn.1" horiz-adv-x="675" /><glyph d="M633 364Q633 207 522.5 96Q412 -15 255 -15Q205 -15 156.5 -3Q108 9 66 32L75 47Q114 25 160 13.5Q206 2 254 2Q402 2 507.5 108.5Q613 215 613 364Q613 436 588.5 500.5Q564 565 519 614L517 612Q543 576 557 534Q571 492 571 449Q571 339 492.5 261Q414 183 303 183Q193 183 115 261Q37 339 37 449Q37 558 115.5 636.5Q194 715 304 715Q446 715 539.5 617Q633 519 633 364Z" glyph-name="orn.2" horiz-adv-x="675" /><glyph d="M865 501Q865 390 765 262Q665 134 467 -6V521Q467 612 520 666.5Q573 721 661 721Q751 721 808 659.5Q865 598 865 501ZM239 721Q327 721 380 666.5Q433 612 433 521V-6Q235 134 135 262Q35 390 35 501Q35 598 92 659.5Q149 721 239 721Z" glyph-name="orn.3" horiz-adv-x="900" /><glyph d="M743 726 808 661 613 494H576V531ZM288 531V494H252L53 661L120 726ZM432 258Q469 258 496.5 285.5Q524 313 524 350Q524 387 496.5 414.5Q469 442 432 442Q393 442 366 415Q339 388 339 350Q339 312 366 285Q393 258 432 258ZM479 350Q479 369 465 383Q451 397 432 397Q413 397 398.5 383Q384 369 384 350Q384 331 398 317Q412 303 432 303Q451 303 465 317Q479 331 479 350ZM127 281Q100 296 78 313Q56 330 38 350Q56 370 78 387Q100 404 127 419Q155 434 182.5 441.5Q210 449 236 449Q268 449 300 442Q332 435 357 423Q344 453 338 484Q332 515 332 546Q332 572 340 599Q348 626 363 654Q378 681 395 703Q412 725 432 743Q452 725 469 703Q486 681 500 654Q516 626 523.5 599Q531 572 531 546Q531 515 525 484Q519 453 506 423Q534 436 565 442.5Q596 449 628 449Q654 449 681 441.5Q708 434 736 419Q762 404 784.5 387Q807 370 825 350Q807 330 785 313Q763 296 736 282Q708 266 681 258.5Q654 251 628 251Q596 251 565.5 257.5Q535 264 506 276Q518 247 524.5 216.5Q531 186 531 154Q531 128 523.5 101Q516 74 501 46Q486 20 469 -2.5Q452 -25 432 -43Q412 -25 395 -3Q378 19 363 46Q348 74 340 101Q332 128 332 154Q332 186 338.5 216.5Q345 247 357 276Q331 264 299 257.5Q267 251 236 251Q210 251 182.5 258.5Q155 266 127 281ZM576 206H613L808 39L743 -26L576 169ZM53 39 252 206H288V169L120 -26Z" glyph-name="orn.4" horiz-adv-x="862" /><glyph d="M381 366H40Q46 508 144 608.5Q242 709 381 716ZM757 366H415V716Q554 709 652.5 608.5Q751 508 757 366ZM381 334V-15Q242 -8 144 92Q46 192 40 334ZM415 334H757Q751 193 652.5 92.5Q554 -8 415 -15Z" glyph-name="orn.5" horiz-adv-x="797" /><glyph d="M757 350Q757 199 652.5 92Q548 -15 399 -15Q250 -15 145 92Q40 199 40 350Q40 501 145 608.5Q250 716 399 716Q547 716 652 609Q757 502 757 350ZM412 80 444 112 247 323 652 321V378L247 377L444 588L412 620L134 350Z" glyph-name="orn.6" horiz-adv-x="797" /><glyph d="M757 350Q757 199 652 92Q547 -15 398 -15Q249 -15 144.5 92Q40 199 40 350Q40 502 145 609Q250 716 398 716Q547 716 652 608.5Q757 501 757 350ZM550 323 353 112 385 80 663 350 385 620 353 588 550 377 145 378V321Z" glyph-name="orn.7" horiz-adv-x="797" /><glyph d="M265 29V-14Q233 -12 202.5 -2Q172 8 145 25L99 -36L62 -8L108 53Q66 90 43.5 141Q21 192 21 248Q21 353 91.5 429Q162 505 265 512V469Q231 458 213.5 401.5Q196 345 196 248Q196 228 196.5 210Q197 192 199 175L357 385Q348 420 333.5 441.5Q319 463 299 469V512Q332 510 363.5 500Q395 490 422 472L468 534L505 507L458 444Q499 406 522 355Q545 304 545 248Q545 144 473.5 68.5Q402 -7 299 -14V29Q334 40 352 95.5Q370 151 370 248Q370 268 369 287Q368 306 367 322L209 112Q218 77 232 56Q246 35 265 29Z" glyph-name="oslash" horiz-adv-x="566" unicode="&#248;" /><glyph d="M196 248Q196 152 214 96Q232 40 265 29V-14Q162 -7 91.5 68.5Q21 144 21 248Q21 353 91.5 429Q162 505 265 512V469Q231 458 213.5 401.5Q196 345 196 248ZM370 248Q370 346 352 402Q334 458 299 469V512Q403 505 474 429Q545 353 545 248Q545 144 473.5 68.5Q402 -7 299 -14V29Q334 40 352 95.5Q370 151 370 248ZM205 607Q190 607 181.5 600.5Q173 594 164 575L123 588Q127 649 152.5 680Q178 711 225 711Q238 711 255 707.5Q272 704 306 692Q331 683 342 680.5Q353 678 361 678Q376 678 385 684.5Q394 691 402 710L443 697Q439 636 413.5 604.5Q388 573 341 573Q328 573 311.5 576.5Q295 580 262 592Q236 601 224.5 604Q213 607 205 607Z" glyph-name="otilde" horiz-adv-x="566" unicode="&#245;" /><glyph d="M263 -182 283 -190V-219H14V-190L28 -182Q47 -173 55.5 -160.5Q64 -148 64 -128V416L14 446V474Q67 479 119.5 489Q172 499 224 514H226V-128Q226 -150 234.5 -162.5Q243 -175 263 -182ZM319 -15Q305 -15 290.5 -13.5Q276 -12 260 -8V34Q266 32 272 31.5Q278 31 290 31Q349 31 379.5 78.5Q410 126 410 220Q410 329 378.5 382Q347 435 282 435Q277 435 271.5 435Q266 435 260 435V465Q280 487 310.5 500Q341 513 376 513Q471 513 528.5 447Q586 381 586 265Q586 146 511.5 65.5Q437 -15 319 -15Z" glyph-name="p" horiz-adv-x="609" unicode="p" /><glyph d="M584 -186H519V700H584ZM340 -57V199H283Q179 199 106 272Q33 345 33 449Q33 553 106 626.5Q179 700 283 700H405V-52Q405 -140 356 -191.5Q307 -243 230 -243Q170 -243 129.5 -212Q89 -181 89 -133Q89 -103 109 -83Q129 -63 156 -63Q183 -63 201.5 -83Q220 -103 220 -133Q220 -145 213 -160Q206 -175 196 -186Q201 -187 210 -188Q219 -189 223 -189Q275 -189 307.5 -151Q340 -113 340 -57Z" glyph-name="paragraph" horiz-adv-x="660" unicode="&#182;" /><glyph d="M305 -149 259 -191Q154 -100 90.5 26.5Q27 153 27 275Q27 399 91 526Q155 653 260 742L307 702Q216 609 167.5 499.5Q119 390 119 275Q119 161 166.5 53Q214 -55 305 -149Z" glyph-name="parenleft" horiz-adv-x="309" unicode="(" /><glyph d="M312 -79 266 -121Q161 -30 97.5 96.5Q34 223 34 345Q34 469 98 596Q162 723 267 812L314 772Q223 679 174.5 569.5Q126 460 126 345Q126 231 173.5 123Q221 15 312 -79Z" glyph-name="parenleft.case" horiz-adv-x="329" /><glyph d="M282 276Q282 152 218 25Q154 -102 49 -191L3 -151Q94 -58 142 51.5Q190 161 190 276Q190 390 142.5 498Q95 606 4 700L51 742Q155 651 218.5 524.5Q282 398 282 276Z" glyph-name="parenright" horiz-adv-x="309" unicode=")" /><glyph d="M295 346Q295 222 231 95Q167 -32 62 -121L16 -81Q107 12 155 121.5Q203 231 203 346Q203 460 155.5 568Q108 676 17 770L64 812Q168 721 231.5 594.5Q295 468 295 346Z" glyph-name="parenright.case" horiz-adv-x="329" /><glyph d="M372 234Q372 290 364.5 341Q357 392 341 438Q325 488 300 532.5Q275 577 240 617Q203 661 146.5 706.5Q90 752 87 755L107 781Q310 690 429 555.5Q548 421 548 272Q548 149 478.5 71Q409 -7 298 -14V27Q333 37 352.5 90.5Q372 144 372 234ZM286 475Q290 469 292.5 461.5Q295 454 299 439Q300 439 299 438.5Q298 438 298 438Q248 438 221 385.5Q194 333 194 236Q194 145 212 91Q230 37 264 27V-13Q157 -9 88.5 61Q20 131 20 238Q20 341 86 409Q152 477 251 477Q266 477 273 476.5Q280 476 286 475Z" glyph-name="partialdiff" horiz-adv-x="571" unicode="&#8706;" /><glyph d="M265 531Q265 615 256.5 639Q248 663 228 668V714Q298 708 343.5 654Q389 600 389 531Q389 463 343 409Q297 355 228 350V395Q248 400 256.5 424Q265 448 265 531ZM157 531Q157 454 165.5 427Q174 400 194 394V350Q125 355 79.5 409Q34 463 34 531Q34 600 79.5 654Q125 708 194 714V669Q174 663 165.5 636.5Q157 610 157 531ZM715 700 162 0H97L650 700ZM659 167Q659 251 650.5 275Q642 299 622 304V350Q692 344 737.5 290Q783 236 783 167Q783 99 737 45Q691 -9 622 -14V31Q642 36 650.5 60Q659 84 659 167ZM551 167Q551 90 559.5 63Q568 36 588 30V-14Q519 -9 473.5 45Q428 99 428 167Q428 236 473.5 290Q519 344 588 350V305Q568 299 559.5 272.5Q551 246 551 167Z" glyph-name="percent" horiz-adv-x="816" unicode="%" /><glyph d="M240 87Q240 45 210 15Q180 -15 138 -15Q96 -15 66 15Q36 45 36 87Q36 129 66 158.5Q96 188 138 188Q180 188 210 158.5Q240 129 240 87Z" glyph-name="period" horiz-adv-x="276" unicode="." /><glyph d="M227 398Q227 358 199.5 331Q172 304 132 304Q93 304 65.5 331.5Q38 359 38 398Q38 438 65.5 465.5Q93 493 132 493Q173 493 200 466Q227 439 227 398Z" glyph-name="periodcentered" horiz-adv-x="265" unicode="&#183;" /><glyph d="M265 531Q265 615 256.5 639Q248 663 228 668V714Q298 708 343.5 654Q389 600 389 531Q389 463 343 409Q297 355 228 350V395Q248 400 256.5 424Q265 448 265 531ZM157 531Q157 454 165.5 427Q174 400 194 394V350Q125 355 79.5 409Q34 463 34 531Q34 600 79.5 654Q125 708 194 714V669Q174 663 165.5 636.5Q157 610 157 531ZM715 700 162 0H97L650 700ZM659 167Q659 251 650.5 275Q642 299 622 304V350Q692 344 737.5 290Q783 236 783 167Q783 99 737 45Q691 -9 622 -14V31Q642 36 650.5 60Q659 84 659 167ZM551 167Q551 90 559.5 63Q568 36 588 30V-14Q519 -9 473.5 45Q428 99 428 167Q428 236 473.5 290Q519 344 588 350V305Q568 299 559.5 272.5Q551 246 551 167ZM1059 167Q1059 251 1050.5 275Q1042 299 1022 304V350Q1092 344 1137.5 290Q1183 236 1183 167Q1183 99 1137 45Q1091 -9 1022 -14V31Q1042 36 1050.5 60Q1059 84 1059 167ZM951 167Q951 90 959.5 63Q968 36 988 30V-14Q919 -9 873.5 45Q828 99 828 167Q828 236 873.5 290Q919 344 988 350V305Q968 299 959.5 272.5Q951 246 951 167Z" glyph-name="perthousand" horiz-adv-x="1214" unicode="&#8240;" /><glyph d="M647 67 659 30Q630 10 590.5 -2.5Q551 -15 513 -15Q439 -15 404 17Q369 49 369 117V440H27V498H644V440H531V178Q531 138 533.5 122.5Q536 107 541 96Q549 76 566 67Q583 58 610 58Q620 58 631 61Q642 64 647 67ZM77 90V407H240V90Q240 70 248.5 57.5Q257 45 275 36L289 29V0H28V29L42 36Q60 45 68.5 57.5Q77 70 77 90Z" glyph-name="pi" horiz-adv-x="667" unicode="&#960;" /><glyph d="M303 150H236V327H62V389H236V566H303V389H479V327H303Z" glyph-name="plus" horiz-adv-x="540" unicode="+" /><glyph d="M302 150H235V327H61V389H235V566H302V389H478V327H302ZM478 0H61V64H478Z" glyph-name="plusminus" horiz-adv-x="540" unicode="&#177;" /><glyph d="M741 643Q801 588 835 516Q869 444 872 365H792Q785 501 688 594.5Q591 688 454 688Q319 688 222 594.5Q125 501 118 365H37Q40 444 74 516Q108 588 167 643Q226 697 300 726Q374 755 454 755Q534 755 608.5 726Q683 697 741 643ZM167 55Q108 110 74 182Q40 254 37 333H118Q125 197 222 103.5Q319 10 454 10Q591 10 688 103.5Q785 197 792 333H872Q869 254 835 182Q801 110 741 55Q683 1 608.5 -28Q534 -57 454 -57Q374 -57 300 -28Q226 1 167 55ZM518 165V125H253V165L267 169Q286 177 294.5 187Q303 197 303 214V499Q303 516 294.5 526Q286 536 267 544L253 548V588H516Q600 588 652.5 544Q705 500 705 435Q705 370 651.5 327Q598 284 502 284H481V329Q519 328 539.5 355Q560 382 560 430Q560 487 533.5 516.5Q507 546 455 546V214Q455 198 463 189Q471 180 490 174Z" glyph-name="product" horiz-adv-x="909" unicode="&#8719;" /><glyph d="M592 -190V-219H324V-190L344 -182Q363 -175 372 -162Q381 -149 381 -128V414L508 504H543V-128Q543 -148 551 -160.5Q559 -173 578 -182ZM219 -15Q133 -15 78 52Q23 119 23 233Q23 353 96 433Q169 513 289 513Q321 513 354 503.5Q387 494 409 476L372 449Q358 454 343 456.5Q328 459 310 459Q254 459 225 413Q196 367 196 277Q196 177 233 120Q270 63 333 63Q335 63 339.5 62.5Q344 62 347 62V32Q328 13 291.5 -1Q255 -15 219 -15Z" glyph-name="q" horiz-adv-x="597" unicode="q" /><glyph d="M258 547Q258 583 240.5 606.5Q223 630 191 638V711Q203 713 214.5 714Q226 715 241 715Q326 715 381 670.5Q436 626 436 553Q436 526 426 499.5Q416 473 395 445Q381 424 352.5 393Q324 362 318 355Q293 325 282.5 303Q272 281 272 260V250H211V299Q211 317 215.5 342Q220 367 234 421Q249 477 253.5 502.5Q258 528 258 547ZM33 543Q33 595 66.5 639Q100 683 157 702V639Q133 636 114 621Q95 606 95 593Q95 576 122 572Q149 568 158 565Q172 559 182 543.5Q192 528 192 511Q192 484 172.5 463Q153 442 121 442Q83 442 58 470.5Q33 499 33 543ZM348 87Q348 44 318.5 14.5Q289 -15 247 -15Q204 -15 174.5 14.5Q145 44 145 87Q145 129 174.5 158.5Q204 188 247 188Q289 188 318.5 158.5Q348 129 348 87Z" glyph-name="question" horiz-adv-x="476" unicode="?" /><glyph d="M210 -64Q210 -100 227.5 -123.5Q245 -147 277 -155V-228Q265 -230 253.5 -231Q242 -232 227 -232Q142 -232 87 -187.5Q32 -143 32 -70Q32 -43 42 -16.5Q52 10 73 38Q87 59 115.5 90Q144 121 150 128Q175 158 185.5 180Q196 202 196 223V233H257V184Q257 166 252.5 141Q248 116 234 62Q219 6 214.5 -19.5Q210 -45 210 -64ZM435 -60Q435 -112 401.5 -156Q368 -200 311 -219V-156Q335 -153 354 -138Q373 -123 373 -110Q373 -93 346 -89Q319 -85 310 -82Q296 -76 286 -60.5Q276 -45 276 -28Q276 -1 295.5 20Q315 41 347 41Q385 41 410 12.5Q435 -16 435 -60ZM120 396Q120 439 149.5 468.5Q179 498 221 498Q264 498 293.5 468.5Q323 439 323 396Q323 354 293.5 324.5Q264 295 221 295Q179 295 149.5 324.5Q120 354 120 396Z" glyph-name="questiondown" horiz-adv-x="465" unicode="&#191;" /><glyph d="M217 153Q217 117 234.5 93.5Q252 70 284 62V-11Q272 -13 260.5 -14Q249 -15 234 -15Q149 -15 94 29.5Q39 74 39 147Q39 174 49 200.5Q59 227 80 255Q94 276 122.5 307Q151 338 157 345Q182 375 192.5 397Q203 419 203 440V450H264V401Q264 383 259.5 358Q255 333 241 279Q226 223 221.5 197.5Q217 172 217 153ZM442 157Q442 105 408.5 61Q375 17 318 -2V61Q342 64 361 79Q380 94 380 107Q380 124 353 128Q326 132 317 135Q303 141 293 156.5Q283 172 283 189Q283 216 302.5 237Q322 258 354 258Q392 258 417 229.5Q442 201 442 157ZM127 613Q127 656 156.5 685.5Q186 715 228 715Q271 715 300.5 685.5Q330 656 330 613Q330 571 300.5 541.5Q271 512 228 512Q186 512 156.5 541.5Q127 571 127 613Z" glyph-name="questiondown.case" horiz-adv-x="476" /><glyph d="M349 418H289V700H469ZM115 418H56V700H236Z" glyph-name="quotedbl" horiz-adv-x="477" unicode="&quot;" /><glyph d="M255 51Q255 -25 206.5 -90Q158 -155 68 -199L49 -166Q104 -127 134 -86.5Q164 -46 172 3Q162 -1 151 -3.5Q140 -6 129 -6Q90 -6 63 22Q36 50 36 89Q36 129 65 158.5Q94 188 138 188Q188 188 221.5 148Q255 108 255 51ZM511 51Q511 -25 462.5 -90Q414 -155 324 -199L305 -166Q360 -127 390 -86.5Q420 -46 428 3Q418 -1 407 -3.5Q396 -6 385 -6Q346 -6 319 22Q292 50 292 89Q292 129 321 158.5Q350 188 394 188Q444 188 477.5 148Q511 108 511 51Z" glyph-name="quotedblbase" horiz-adv-x="549" unicode="&#8222;" /><glyph d="M29 465Q29 541 77.5 606Q126 671 216 715L235 682Q180 643 150 602.5Q120 562 112 513Q122 517 133 519.5Q144 522 155 522Q194 522 221 494Q248 466 248 427Q248 387 219 357.5Q190 328 146 328Q96 328 62.5 368Q29 408 29 465ZM286 465Q286 541 334.5 606Q383 671 473 715L492 682Q437 643 407 602.5Q377 562 369 513Q379 517 390 519.5Q401 522 412 522Q451 522 478 494Q505 466 505 427Q505 387 476 357.5Q447 328 403 328Q353 328 319.5 368Q286 408 286 465Z" glyph-name="quotedblleft" horiz-adv-x="539" unicode="&#8220;" /><glyph d="M258 578Q258 502 209.5 437Q161 372 71 328L52 361Q107 400 137 440.5Q167 481 175 530Q165 526 154 523.5Q143 521 132 521Q93 521 66 549Q39 577 39 616Q39 656 68 685.5Q97 715 141 715Q191 715 224.5 675Q258 635 258 578ZM515 578Q515 502 466.5 437Q418 372 328 328L309 361Q364 400 394 440.5Q424 481 432 530Q422 526 411 523.5Q400 521 389 521Q350 521 323 549Q296 577 296 616Q296 656 325 685.5Q354 715 398 715Q448 715 481.5 675Q515 635 515 578Z" glyph-name="quotedblright" horiz-adv-x="540" unicode="&#8221;" /><glyph d="M29 465Q29 541 77.5 606Q126 671 216 715L235 682Q180 643 150 602.5Q120 562 112 513Q122 517 133 519.5Q144 522 155 522Q194 522 221 494Q248 466 248 427Q248 387 219 357.5Q190 328 146 328Q96 328 62.5 368Q29 408 29 465Z" glyph-name="quoteleft" horiz-adv-x="282" unicode="&#8216;" /><glyph d="M258 578Q258 502 209.5 437Q161 372 71 328L52 361Q107 400 137 440.5Q167 481 175 530Q165 526 154 523.5Q143 521 132 521Q93 521 66 549Q39 577 39 616Q39 656 68 685.5Q97 715 141 715Q191 715 224.5 675Q258 635 258 578Z" glyph-name="quoteright" horiz-adv-x="283" unicode="&#8217;" /><glyph d="M255 51Q255 -25 206.5 -90Q158 -155 68 -199L49 -166Q104 -127 134 -86.5Q164 -46 172 3Q162 -1 151 -3.5Q140 -6 129 -6Q90 -6 63 22Q36 50 36 89Q36 129 65 158.5Q94 188 138 188Q188 188 221.5 148Q255 108 255 51Z" glyph-name="quotesinglbase" horiz-adv-x="293" unicode="&#8218;" /><glyph d="M115 418H56V700H236Z" glyph-name="quotesingle" horiz-adv-x="243" unicode="'" /><glyph d="M236 514H238V90Q238 70 247.5 57Q257 44 277 37L298 29V0H26V29L40 36Q58 45 66.5 57.5Q75 70 75 90V416L25 446V474Q78 479 131 489Q184 499 236 514ZM333 360Q325 363 314.5 366Q304 369 272 375V409Q294 453 327.5 477.5Q361 502 397 502Q407 502 416 501Q425 500 439 497Q440 468 426.5 409Q413 350 394 323Q381 334 365 344Q349 354 333 360Z" glyph-name="r" horiz-adv-x="437" unicode="r" /><glyph d="M236 514H238V90Q238 70 247.5 57Q257 44 277 37L298 29V0H26V29L40 36Q58 45 66.5 57.5Q75 70 75 90V416L25 446V474Q78 479 131 489Q184 499 236 514ZM333 360Q325 363 314.5 366Q304 369 272 375V409Q294 453 327.5 477.5Q361 502 397 502Q407 502 416 501Q425 500 439 497Q440 468 426.5 409Q413 350 394 323Q381 334 365 344Q349 354 333 360ZM249 574H192L207 729H378Z" glyph-name="racute" horiz-adv-x="437" unicode="&#341;" /><glyph d="M568 743 279 37 248 118 497 743ZM11 417H82L246 0H179Z" glyph-name="radical" horiz-adv-x="561" unicode="&#8730;" /><glyph d="M236 514H238V90Q238 70 247.5 57Q257 44 277 37L298 29V0H26V29L40 36Q58 45 66.5 57.5Q75 70 75 90V416L25 446V474Q78 479 131 489Q184 499 236 514ZM333 360Q325 363 314.5 366Q304 369 272 375V409Q294 453 327.5 477.5Q361 502 397 502Q407 502 416 501Q425 500 439 497Q440 468 426.5 409Q413 350 394 323Q381 334 365 344Q349 354 333 360ZM181 574 67 729H134L220 676L306 729H373L259 574Z" glyph-name="rcaron" horiz-adv-x="437" unicode="&#345;" /><glyph d="M236 514H238V90Q238 70 247.5 57Q257 44 277 37L298 29V0H26V29L40 36Q58 45 66.5 57.5Q75 70 75 90V416L25 446V474Q78 479 131 489Q184 499 236 514ZM333 360Q325 363 314.5 366Q304 369 272 375V409Q294 453 327.5 477.5Q361 502 397 502Q407 502 416 501Q425 500 439 497Q440 468 426.5 409Q413 350 394 323Q381 334 365 344Q349 354 333 360ZM263 -173Q263 -226 230 -275.5Q197 -325 135 -364L105 -334Q133 -312 154.5 -282.5Q176 -253 189 -218Q182 -222 172.5 -224.5Q163 -227 152 -227Q117 -227 93 -202.5Q69 -178 69 -143Q69 -108 95 -81.5Q121 -55 160 -55Q204 -55 233.5 -89.5Q263 -124 263 -173Z" glyph-name="rcommaaccent" horiz-adv-x="437" unicode="&#343;" /><glyph d="M614 473Q614 357 529.5 274Q445 191 327 191Q209 191 124.5 274Q40 357 40 473Q40 589 124.5 672Q209 755 327 755Q445 755 529.5 672Q614 589 614 473ZM327 712Q228 712 158.5 642Q89 572 89 473Q89 374 158.5 304Q228 234 327 234Q426 234 495.5 304Q565 374 565 473Q565 572 495.5 642Q426 712 327 712ZM375 542Q375 568 360.5 585Q346 602 320 607V638H340Q397 638 431 614.5Q465 591 465 550Q465 525 448.5 505Q432 485 401 473L428 424Q449 385 462 367Q475 349 490 340L495 337V315H422Q404 315 393 322.5Q382 330 372 349L320 456V478H322Q344 478 359.5 496.5Q375 515 375 542ZM333 337V315H170V337L180 341Q194 346 200 353.5Q206 361 206 374V579Q206 591 199.5 599Q193 607 180 612L170 616V638H286V374Q286 362 292 355.5Q298 349 311 345Z" glyph-name="registered" horiz-adv-x="654" unicode="&#174;" /><glyph d="M245 462Q245 426 219.5 400Q194 374 155 374Q110 374 80.5 409.5Q51 445 51 496Q51 562 94 619.5Q137 677 217 716L233 687Q185 653 158.5 618Q132 583 125 538Q134 541 143.5 543Q153 545 162 545Q196 545 220.5 520.5Q245 496 245 462Z" glyph-name="revcommaaccent" horiz-adv-x="295" /><glyph d="M194 687Q172 687 155 673Q138 659 133 637H76Q82 681 115.5 709.5Q149 738 194 738Q239 738 272.5 709.5Q306 681 312 637H255Q250 659 232.5 673Q215 687 194 687ZM194 503Q148 503 115 532Q82 561 76 605H133Q138 583 155 569.5Q172 556 194 556Q215 556 232.5 570Q250 584 255 605H312Q306 561 272.5 532Q239 503 194 503Z" glyph-name="ring" horiz-adv-x="388" unicode="&#730;" /><glyph d="M435 155Q435 87 375 36Q315 -15 221 -15V27Q252 30 271 49Q290 68 290 93Q290 111 281 125Q272 139 252 152Q244 156 234.5 161Q225 166 185 184Q135 206 115.5 217.5Q96 229 82 242Q58 263 46 289Q34 315 34 347Q34 419 90 464.5Q146 510 236 513V470Q210 465 194.5 449.5Q179 434 179 411Q179 387 197 368.5Q215 350 280 321Q327 300 348.5 288Q370 276 386 262Q411 241 423 214.5Q435 188 435 155ZM270 471V513Q298 512 327 508Q356 504 403 494L392 377H359Q348 418 325 442Q302 466 270 471ZM187 28V-14Q148 -12 111.5 -4Q75 4 32 22L36 169H72Q83 110 113 72.5Q143 35 187 28Z" glyph-name="s" horiz-adv-x="455" unicode="s" /><glyph d="M352 504Q355 504 368 501.5Q381 499 403 494L392 377H359Q348 418 325 442Q302 466 270 471V513Q287 512 295.5 511.5Q304 511 311 510Q302 526 298 546.5Q294 567 294 592Q294 657 347.5 704.5Q401 752 486 752Q575 752 626.5 700Q678 648 678 564V498H804V440H442V491Q487 496 516 526.5Q545 557 545 599Q545 637 518.5 664Q492 691 448 691Q402 691 370 659.5Q338 628 338 581Q338 557 341.5 538Q345 519 352 504ZM435 155Q435 87 375 36Q315 -15 221 -15V27Q252 30 271 49Q290 68 290 93Q290 111 281 125Q272 139 252 152Q244 156 234.5 161Q225 166 185 184Q135 206 115.5 217.5Q96 229 82 242Q58 263 46 289Q34 315 34 347Q34 419 90 464.5Q146 510 236 513V470Q210 465 194.5 449.5Q179 434 179 411Q179 387 197 368.5Q215 350 280 321Q327 300 348.5 288Q370 276 386 262Q411 241 423 214.5Q435 188 435 155ZM516 117V408H678V178Q678 138 680.5 122.5Q683 107 688 96Q696 76 713 67Q730 58 757 58Q767 58 778.5 61Q790 64 794 67L806 30Q777 10 737.5 -2.5Q698 -15 660 -15Q586 -15 551 17Q516 49 516 117ZM187 28V-14Q148 -12 111.5 -4Q75 4 32 22L36 169H72Q83 110 113 72.5Q143 35 187 28Z" glyph-name="s_t" horiz-adv-x="808" unicode="&#64262;" /><glyph d="M435 155Q435 87 375 36Q315 -15 221 -15V27Q252 30 271 49Q290 68 290 93Q290 111 281 125Q272 139 252 152Q244 156 234.5 161Q225 166 185 184Q135 206 115.5 217.5Q96 229 82 242Q58 263 46 289Q34 315 34 347Q34 419 90 464.5Q146 510 236 513V470Q210 465 194.5 449.5Q179 434 179 411Q179 387 197 368.5Q215 350 280 321Q327 300 348.5 288Q370 276 386 262Q411 241 423 214.5Q435 188 435 155ZM270 471V513Q298 512 327 508Q356 504 403 494L392 377H359Q348 418 325 442Q302 466 270 471ZM187 28V-14Q148 -12 111.5 -4Q75 4 32 22L36 169H72Q83 110 113 72.5Q143 35 187 28ZM260 574H203L218 729H389Z" glyph-name="sacute" horiz-adv-x="455" unicode="&#347;" /><glyph d="M435 155Q435 87 375 36Q315 -15 221 -15V27Q252 30 271 49Q290 68 290 93Q290 111 281 125Q272 139 252 152Q244 156 234.5 161Q225 166 185 184Q135 206 115.5 217.5Q96 229 82 242Q58 263 46 289Q34 315 34 347Q34 419 90 464.5Q146 510 236 513V470Q210 465 194.5 449.5Q179 434 179 411Q179 387 197 368.5Q215 350 280 321Q327 300 348.5 288Q370 276 386 262Q411 241 423 214.5Q435 188 435 155ZM270 471V513Q298 512 327 508Q356 504 403 494L392 377H359Q348 418 325 442Q302 466 270 471ZM187 28V-14Q148 -12 111.5 -4Q75 4 32 22L36 169H72Q83 110 113 72.5Q143 35 187 28ZM192 574 78 729H145L231 676L317 729H384L270 574Z" glyph-name="scaron" horiz-adv-x="455" unicode="&#353;" /><glyph d="M270 471V513Q299 512 329.5 507.5Q360 503 400 494L389 377H356Q345 416 322.5 440.5Q300 465 270 471ZM184 27V-14Q151 -12 117 -4.5Q83 3 32 22L36 169H72Q84 106 112 70Q140 34 184 27ZM351 -148Q351 -191 313 -219.5Q275 -248 211 -248Q177 -248 142.5 -236.5Q108 -225 90 -210L108 -174Q124 -180 137.5 -182.5Q151 -185 164 -185Q195 -185 212.5 -173.5Q230 -162 230 -141Q230 -119 204 -104Q178 -89 138 -88L135 -79L221 27Q251 31 270.5 50.5Q290 70 290 95Q290 121 274.5 138.5Q259 156 197 184Q141 209 121.5 220Q102 231 88 243Q61 265 47.5 291.5Q34 318 34 350Q34 423 89.5 467Q145 511 236 513V471Q209 466 194 450.5Q179 435 179 411Q179 394 188 380Q197 366 217 354Q224 349 233 344Q242 339 283 320Q374 278 404.5 240.5Q435 203 435 153Q435 89 381 40.5Q327 -8 239 -14L244 -50Q290 -58 320.5 -84Q351 -110 351 -148Z" glyph-name="scedilla" horiz-adv-x="454" unicode="&#351;" /></font>
</defs>
</svg>
