<?xml version="1.0" standalone="no"?><!DOCTYPE svg PUBLIC "-//W3C//DTD SVG 1.1//EN" "http://www.w3.org/Graphics/SVG/1.1/DTD/svg11.dtd" ><svg version="1.1" xmlns="http://www.w3.org/2000/svg"><defs><font horiz-adv-x="0" id="font"><font-face ascent="750" bbox="-266 -339 1245 973" cap-height="700" descent="-250" font-family="Fresh Serif" font-stretch="normal" font-style="italic" font-weight="900" units-per-em="1000" x-height="517" /><missing-glyph d="M635 0H135V700H635ZM566 661H203L385 385ZM179 73 361 350 179 627ZM589 624 408 350 589 76ZM567 38 385 314 203 38Z" horiz-adv-x="711" /><glyph glyph-name=".null" horiz-adv-x="0" /><glyph d="M406 583H404L232 310H391ZM140 42 180 32 170 0H-99L-90 32L-66 41Q-25 56 1.5 81Q28 106 66 160L439 700H463Q494 700 524 706Q554 712 579 723H581L560 102Q559 77 566 61.5Q573 46 588 40L606 32L597 0H279L289 32L317 41Q349 50 363 64.5Q377 79 379 107L388 267H205L148 176Q100 101 99.5 76.5Q99 52 140 42Z" glyph-name="A" horiz-adv-x="672" unicode="A" /><glyph d="M441 310 521 591Q522 594 522.5 596Q523 598 523 599L280 310ZM125 43 173 32 163 0H-106L-96 32L-65 41Q-37 50 -15 65Q7 80 30 105L505 651Q504 652 501 653.5Q498 655 497 656L476 668L485 700H793Q852 700 908.5 702Q965 704 1020 708L962 517H929L925 533Q910 609 890 634Q870 659 827 660L721 663L643 388L725 391Q746 392 761.5 404.5Q777 417 803 461L827 504H863L784 230H749V273Q749 317 740.5 330Q732 343 710 343L631 346L562 106Q553 76 564.5 58Q576 40 605 40H690Q755 40 802 70Q849 100 902 184L937 236H974L899 0H284L294 32L322 44Q349 55 362 69Q375 83 383 109L428 267H244L121 120Q93 86 94 68Q95 50 125 43Z" glyph-name="AE" horiz-adv-x="991" unicode="&#198;" /><glyph d="M406 583H404L232 310H391ZM140 42 180 32 170 0H-99L-90 32L-66 41Q-25 56 1.5 81Q28 106 66 160L439 700H463Q494 700 524 706Q554 712 579 723H581L560 102Q559 77 566 61.5Q573 46 588 40L606 32L597 0H279L289 32L317 41Q349 50 363 64.5Q377 79 379 107L388 267H205L148 176Q100 101 99.5 76.5Q99 52 140 42ZM529 765H481L552 920H725Z" glyph-name="Aacute" horiz-adv-x="672" unicode="&#193;" /><glyph d="M406 583H404L232 310H391ZM140 42 180 32 170 0H-99L-90 32L-66 41Q-25 56 1.5 81Q28 106 66 160L439 700H463Q494 700 524 706Q554 712 579 723H581L560 102Q559 77 566 61.5Q573 46 588 40L606 32L597 0H279L289 32L317 41Q349 50 363 64.5Q377 79 379 107L388 267H205L148 176Q100 101 99.5 76.5Q99 52 140 42ZM519 764Q446 764 410.5 806.5Q375 849 391 911L397 937H452L451 931Q446 896 464 882.5Q482 869 524 869Q565 869 591 884.5Q617 900 629 931L631 937H687L679 898Q666 836 624 800Q582 764 519 764Z" glyph-name="Abreve" horiz-adv-x="672" unicode="&#258;" /><glyph d="M406 583H404L232 310H391ZM140 42 180 32 170 0H-99L-90 32L-66 41Q-25 56 1.5 81Q28 106 66 160L439 700H463Q494 700 524 706Q554 712 579 723H581L560 102Q559 77 566 61.5Q573 46 588 40L606 32L597 0H279L289 32L317 41Q349 50 363 64.5Q377 79 379 107L388 267H205L148 176Q100 101 99.5 76.5Q99 52 140 42ZM424 765H355L515 920H595L664 765H596L525 817Z" glyph-name="Acircumflex" horiz-adv-x="672" unicode="&#194;" /><glyph d="M406 583H404L232 310H391ZM140 42 180 32 170 0H-99L-90 32L-66 41Q-25 56 1.5 81Q28 106 66 160L439 700H463Q494 700 524 706Q554 712 579 723H581L560 102Q559 77 566 61.5Q573 46 588 40L606 32L597 0H279L289 32L317 41Q349 50 363 64.5Q377 79 379 107L388 267H205L148 176Q100 101 99.5 76.5Q99 52 140 42ZM682 842Q682 814 661.5 793Q641 772 612 772Q583 772 563.5 792.5Q544 813 544 842Q544 872 563.5 892.5Q583 913 612 913Q641 913 661.5 892Q682 871 682 842ZM505 842Q505 813 484.5 792.5Q464 772 436 772Q408 772 387.5 792.5Q367 813 367 842Q367 871 387.5 892Q408 913 436 913Q464 913 484.5 892Q505 871 505 842Z" glyph-name="Adieresis" horiz-adv-x="672" unicode="&#196;" /><glyph d="M406 583H404L232 310H391ZM140 42 180 32 170 0H-99L-90 32L-66 41Q-25 56 1.5 81Q28 106 66 160L439 700H463Q494 700 524 706Q554 712 579 723H581L560 102Q559 77 566 61.5Q573 46 588 40L606 32L597 0H279L289 32L317 41Q349 50 363 64.5Q377 79 379 107L388 267H205L148 176Q100 101 99.5 76.5Q99 52 140 42ZM538 765H489L328 920H479Z" glyph-name="Agrave" horiz-adv-x="672" unicode="&#192;" /><glyph d="M406 583H404L232 310H391ZM140 42 180 32 170 0H-99L-90 32L-66 41Q-25 56 1.5 81Q28 106 66 160L439 700H463Q494 700 524 706Q554 712 579 723H581L560 102Q559 77 566 61.5Q573 46 588 40L606 32L597 0H279L289 32L317 41Q349 50 363 64.5Q377 79 379 107L388 267H205L148 176Q100 101 99.5 76.5Q99 52 140 42ZM659 779H370L394 863H683Z" glyph-name="Amacron" horiz-adv-x="672" unicode="&#256;" /><glyph d="M406 583H404L232 310H391ZM518 -168 493 -211Q471 -218 452 -222Q433 -226 416 -226Q379 -226 353.5 -205Q328 -184 328 -152Q328 -119 356.5 -82.5Q385 -46 450 0H279L289 32L317 41Q349 50 363 64.5Q377 79 379 107L388 267H205L148 176Q100 101 99.5 76.5Q99 52 140 42L180 32L170 0H-99L-90 32L-66 41Q-25 56 1.5 81Q28 106 66 160L439 700H463Q494 700 524 706Q554 712 579 723H581L560 102Q559 77 566 61.5Q573 46 588 40L606 32L597 0H495Q461 -64 451.5 -88.5Q442 -113 442 -130Q442 -148 458 -158Q474 -168 503 -168Q505 -168 508 -168.5Q511 -169 518 -168Z" glyph-name="Aogonek" horiz-adv-x="672" unicode="&#260;" /><glyph d="M406 583H404L232 310H391ZM140 42 180 32 170 0H-99L-90 32L-66 41Q-25 56 1.5 81Q28 106 66 160L439 700H463Q494 700 524 706Q554 712 579 723H581L560 102Q559 77 566 61.5Q573 46 588 40L606 32L597 0H279L289 32L317 41Q349 50 363 64.5Q377 79 379 107L388 267H205L148 176Q100 101 99.5 76.5Q99 52 140 42ZM636 855Q636 805 601 770.5Q566 736 516 736Q466 736 431.5 770.5Q397 805 397 855Q397 904 432 938.5Q467 973 516 973Q565 973 600.5 938Q636 903 636 855ZM454 855Q454 828 472.5 809Q491 790 516 790Q542 790 560.5 809Q579 828 579 855Q579 882 560 901.5Q541 921 516 921Q491 921 472.5 901.5Q454 882 454 855Z" glyph-name="Aring" horiz-adv-x="672" unicode="&#197;" /><glyph d="M406 583H404L232 310H391ZM140 42 180 32 170 0H-99L-90 32L-66 41Q-25 56 1.5 81Q28 106 66 160L439 700H463Q494 700 524 706Q554 712 579 723H581L560 102Q559 77 566 61.5Q573 46 588 40L606 32L597 0H279L289 32L317 41Q349 50 363 64.5Q377 79 379 107L388 267H205L148 176Q100 101 99.5 76.5Q99 52 140 42ZM446 798Q430 798 417.5 790.5Q405 783 392 765L354 779Q377 842 408.5 873.5Q440 905 483 905Q496 905 512.5 901Q529 897 561 885Q587 876 598 873Q609 870 617 870Q633 870 645.5 877.5Q658 885 670 902L708 889Q686 826 654 794Q622 762 579 762Q566 762 549 766Q532 770 500 783Q475 792 464.5 795Q454 798 446 798Z" glyph-name="Atilde" horiz-adv-x="672" unicode="&#195;" /><glyph d="M342 0H-38L-28 32L0 44Q27 55 40 69.5Q53 84 60 109L198 591Q206 617 201 631Q196 645 175 656L153 668L163 700H455Q553 700 611.5 656.5Q670 613 670 540Q670 469 608 418.5Q546 368 446 356L445 353Q525 346 574.5 301.5Q624 257 624 192Q624 106 546.5 53Q469 0 342 0ZM397 662 315 375H343Q410 375 453.5 425.5Q497 476 497 554Q497 601 474 628.5Q451 656 406 661ZM277 41H283Q351 41 397.5 92Q444 143 444 222Q444 270 413 299Q382 328 326 334L305 336L240 107Q230 72 238.5 56.5Q247 41 277 41Z" glyph-name="B" horiz-adv-x="664" unicode="B" /><glyph d="M321 -15Q191 -15 118.5 58Q46 131 46 255Q46 280 49.5 306.5Q53 333 61 361Q110 532 239 623.5Q368 715 550 715Q599 715 655.5 708.5Q712 702 768 691L710 500H672L671 524Q669 571 664 592.5Q659 614 648 629Q634 650 610 660.5Q586 671 551 672Q452 672 376.5 591.5Q301 511 259 364Q246 318 239 275Q232 232 232 195Q232 114 264.5 71Q297 28 359 28Q423 28 475 64.5Q527 101 575 182L608 236H644L601 59Q536 24 462.5 4.5Q389 -15 321 -15Z" glyph-name="C" horiz-adv-x="683" unicode="C" /><glyph glyph-name="CR" horiz-adv-x="0" /><glyph d="M321 -15Q191 -15 118.5 58Q46 131 46 255Q46 280 49.5 306.5Q53 333 61 361Q110 532 239 623.5Q368 715 550 715Q599 715 655.5 708.5Q712 702 768 691L710 500H672L671 524Q669 571 664 592.5Q659 614 648 629Q634 650 610 660.5Q586 671 551 672Q452 672 376.5 591.5Q301 511 259 364Q246 318 239 275Q232 232 232 195Q232 114 264.5 71Q297 28 359 28Q423 28 475 64.5Q527 101 575 182L608 236H644L601 59Q536 24 462.5 4.5Q389 -15 321 -15ZM536 765H488L559 920H732Z" glyph-name="Cacute" horiz-adv-x="683" unicode="&#262;" /><glyph d="M321 -15Q191 -15 118.5 58Q46 131 46 255Q46 280 49.5 306.5Q53 333 61 361Q110 532 239 623.5Q368 715 550 715Q599 715 655.5 708.5Q712 702 768 691L710 500H672L671 524Q669 571 664 592.5Q659 614 648 629Q634 650 610 660.5Q586 671 551 672Q452 672 376.5 591.5Q301 511 259 364Q246 318 239 275Q232 232 232 195Q232 114 264.5 71Q297 28 359 28Q423 28 475 64.5Q527 101 575 182L608 236H644L601 59Q536 24 462.5 4.5Q389 -15 321 -15ZM477 765 408 920H476L547 868L648 920H716L557 765Z" glyph-name="Ccaron" horiz-adv-x="683" unicode="&#268;" /><glyph d="M417 -144Q417 -192 376 -222Q335 -252 270 -252Q248 -252 226.5 -248Q205 -244 184 -237L176 -192Q187 -194 200.5 -195.5Q214 -197 227 -197Q259 -197 277.5 -184.5Q296 -172 296 -150Q296 -128 274.5 -115Q253 -102 216 -101L218 -79L299 -15Q179 -9 112 64Q45 137 45 255Q45 280 48.5 306.5Q52 333 60 361Q109 532 238 623.5Q367 715 549 715Q598 715 654.5 708.5Q711 702 767 691L709 500H671L670 524Q668 571 663 592.5Q658 614 647 629Q633 650 609 660.5Q585 671 550 672Q451 672 375.5 591.5Q300 511 258 364Q245 318 238 275Q231 232 231 195Q231 114 263.5 71Q296 28 358 28Q422 28 474 64.5Q526 101 574 182L607 236H643L600 59Q545 30 483.5 11Q422 -8 363 -13L331 -48Q364 -55 390.5 -82Q417 -109 417 -144Z" glyph-name="Ccedilla" horiz-adv-x="683" unicode="&#199;" /><glyph d="M321 -15Q191 -15 118.5 58Q46 131 46 255Q46 280 49.5 306.5Q53 333 61 361Q110 532 239 623.5Q368 715 550 715Q599 715 655.5 708.5Q712 702 768 691L710 500H672L671 524Q669 571 664 592.5Q659 614 648 629Q634 650 610 660.5Q586 671 551 672Q452 672 376.5 591.5Q301 511 259 364Q246 318 239 275Q232 232 232 195Q232 114 264.5 71Q297 28 359 28Q423 28 475 64.5Q527 101 575 182L608 236H644L601 59Q536 24 462.5 4.5Q389 -15 321 -15ZM432 765H363L523 920H603L672 765H604L533 817Z" glyph-name="Ccircumflex" horiz-adv-x="683" unicode="&#264;" /><glyph d="M321 -15Q191 -15 118.5 58Q46 131 46 255Q46 280 49.5 306.5Q53 333 61 361Q110 532 239 623.5Q368 715 550 715Q599 715 655.5 708.5Q712 702 768 691L710 500H672L671 524Q669 571 664 592.5Q659 614 648 629Q634 650 610 660.5Q586 671 551 672Q452 672 376.5 591.5Q301 511 259 364Q246 318 239 275Q232 232 232 195Q232 114 264.5 71Q297 28 359 28Q423 28 475 64.5Q527 101 575 182L608 236H644L601 59Q536 24 462.5 4.5Q389 -15 321 -15ZM625 846Q625 812 600 787Q575 762 540 762Q506 762 481 787Q456 812 456 846Q456 881 481 906Q506 931 540 931Q575 931 600 906Q625 881 625 846Z" glyph-name="Cdotaccent" horiz-adv-x="683" unicode="&#266;" /><glyph d="M791 430Q791 405 787.5 380.5Q784 356 777 331Q732 175 600.5 87.5Q469 0 280 0H-38L-28 32L0 44Q27 55 40 69.5Q53 84 60 109L198 591Q206 617 201 631Q196 645 175 656L153 668L163 700H505Q627 700 709 624Q791 548 791 430ZM276 39H285Q388 39 463 112.5Q538 186 577 325Q587 361 592 394Q597 427 597 458Q597 553 549.5 608Q502 663 421 663H399L240 106Q230 71 238.5 55Q247 39 276 39Z" glyph-name="D" horiz-adv-x="780" unicode="D" /><glyph d="M791 430Q791 405 787.5 380.5Q784 356 777 331Q732 175 600.5 87.5Q469 0 280 0H-38L-28 32L0 44Q27 55 40 69.5Q53 84 60 109L198 591Q206 617 201 631Q196 645 175 656L153 668L163 700H505Q627 700 709 624Q791 548 791 430ZM276 39H285Q388 39 463 112.5Q538 186 577 325Q587 361 592 394Q597 427 597 458Q597 553 549.5 608Q502 663 421 663H399L240 106Q230 71 238.5 55Q247 39 276 39ZM456 765 387 920H455L526 868L627 920H695L536 765Z" glyph-name="Dcaron" horiz-adv-x="780" unicode="&#270;" /><glyph d="M779 331Q734 175 602.5 87.5Q471 0 282 0H-36L-26 32L2 44Q29 55 42 69.5Q55 84 62 109L127 336H41L59 396H144L200 591Q208 617 203 631Q198 645 177 656L155 668L165 700H507Q629 700 711 624Q793 548 793 430Q793 405 789.5 380.5Q786 356 779 331ZM278 39H287Q390 39 465 112.5Q540 186 579 325Q589 361 594 394Q599 427 599 458Q599 553 551.5 608Q504 663 423 663H401L325 396H469L451 336H308L242 106Q232 71 240.5 55Q249 39 278 39Z" glyph-name="Dcroat" horiz-adv-x="782" unicode="&#272;" /><glyph d="M652 236 576 0H-38L-28 32L0 44Q27 55 40 69.5Q53 84 60 109L198 591Q206 617 201 631Q196 645 175 656L153 668L163 700H471Q529 700 586 702Q643 704 698 708L640 517H607L602 533Q586 610 566.5 634.5Q547 659 505 660L399 663L321 388L402 391Q424 392 439.5 404.5Q455 417 481 461L505 504H541L462 230H426L427 273Q427 315 418.5 329Q410 343 388 343L308 346L240 106Q230 72 240.5 56Q251 40 283 40H367Q432 40 479.5 70.5Q527 101 580 184L614 236Z" glyph-name="E" horiz-adv-x="668" unicode="E" /><glyph d="M652 236 576 0H-38L-28 32L0 44Q27 55 40 69.5Q53 84 60 109L198 591Q206 617 201 631Q196 645 175 656L153 668L163 700H471Q529 700 586 702Q643 704 698 708L640 517H607L602 533Q586 610 566.5 634.5Q547 659 505 660L399 663L321 388L402 391Q424 392 439.5 404.5Q455 417 481 461L505 504H541L462 230H426L427 273Q427 315 418.5 329Q410 343 388 343L308 346L240 106Q230 72 240.5 56Q251 40 283 40H367Q432 40 479.5 70.5Q527 101 580 184L614 236ZM467 765H419L490 920H663Z" glyph-name="Eacute" horiz-adv-x="668" unicode="&#201;" /><glyph d="M652 236 576 0H-38L-28 32L0 44Q27 55 40 69.5Q53 84 60 109L198 591Q206 617 201 631Q196 645 175 656L153 668L163 700H471Q529 700 586 702Q643 704 698 708L640 517H607L602 533Q586 610 566.5 634.5Q547 659 505 660L399 663L321 388L402 391Q424 392 439.5 404.5Q455 417 481 461L505 504H541L462 230H426L427 273Q427 315 418.5 329Q410 343 388 343L308 346L240 106Q230 72 240.5 56Q251 40 283 40H367Q432 40 479.5 70.5Q527 101 580 184L614 236ZM457 764Q384 764 348.5 806.5Q313 849 329 911L335 937H390L389 931Q384 896 402 882.5Q420 869 462 869Q503 869 529 884.5Q555 900 567 931L569 937H625L617 898Q604 836 562 800Q520 764 457 764Z" glyph-name="Ebreve" horiz-adv-x="668" unicode="&#276;" /><glyph d="M652 236 576 0H-38L-28 32L0 44Q27 55 40 69.5Q53 84 60 109L198 591Q206 617 201 631Q196 645 175 656L153 668L163 700H471Q529 700 586 702Q643 704 698 708L640 517H607L602 533Q586 610 566.5 634.5Q547 659 505 660L399 663L321 388L402 391Q424 392 439.5 404.5Q455 417 481 461L505 504H541L462 230H426L427 273Q427 315 418.5 329Q410 343 388 343L308 346L240 106Q230 72 240.5 56Q251 40 283 40H367Q432 40 479.5 70.5Q527 101 580 184L614 236ZM408 765 339 920H407L478 868L579 920H647L488 765Z" glyph-name="Ecaron" horiz-adv-x="668" unicode="&#282;" /><glyph d="M652 236 576 0H-38L-28 32L0 44Q27 55 40 69.5Q53 84 60 109L198 591Q206 617 201 631Q196 645 175 656L153 668L163 700H471Q529 700 586 702Q643 704 698 708L640 517H607L602 533Q586 610 566.5 634.5Q547 659 505 660L399 663L321 388L402 391Q424 392 439.5 404.5Q455 417 481 461L505 504H541L462 230H426L427 273Q427 315 418.5 329Q410 343 388 343L308 346L240 106Q230 72 240.5 56Q251 40 283 40H367Q432 40 479.5 70.5Q527 101 580 184L614 236ZM362 765H293L453 920H533L602 765H534L463 817Z" glyph-name="Ecircumflex" horiz-adv-x="668" unicode="&#202;" /><glyph d="M652 236 576 0H-38L-28 32L0 44Q27 55 40 69.5Q53 84 60 109L198 591Q206 617 201 631Q196 645 175 656L153 668L163 700H471Q529 700 586 702Q643 704 698 708L640 517H607L602 533Q586 610 566.5 634.5Q547 659 505 660L399 663L321 388L402 391Q424 392 439.5 404.5Q455 417 481 461L505 504H541L462 230H426L427 273Q427 315 418.5 329Q410 343 388 343L308 346L240 106Q230 72 240.5 56Q251 40 283 40H367Q432 40 479.5 70.5Q527 101 580 184L614 236ZM620 842Q620 814 599.5 793Q579 772 550 772Q521 772 501.5 792.5Q482 813 482 842Q482 872 501.5 892.5Q521 913 550 913Q579 913 599.5 892Q620 871 620 842ZM443 842Q443 813 422.5 792.5Q402 772 374 772Q346 772 325.5 792.5Q305 813 305 842Q305 871 325.5 892Q346 913 374 913Q402 913 422.5 892Q443 871 443 842Z" glyph-name="Edieresis" horiz-adv-x="668" unicode="&#203;" /><glyph d="M652 236 576 0H-38L-28 32L0 44Q27 55 40 69.5Q53 84 60 109L198 591Q206 617 201 631Q196 645 175 656L153 668L163 700H471Q529 700 586 702Q643 704 698 708L640 517H607L602 533Q586 610 566.5 634.5Q547 659 505 660L399 663L321 388L402 391Q424 392 439.5 404.5Q455 417 481 461L505 504H541L462 230H426L427 273Q427 315 418.5 329Q410 343 388 343L308 346L240 106Q230 72 240.5 56Q251 40 283 40H367Q432 40 479.5 70.5Q527 101 580 184L614 236ZM556 846Q556 812 531 787Q506 762 471 762Q437 762 412 787Q387 812 387 846Q387 881 412 906Q437 931 471 931Q506 931 531 906Q556 881 556 846Z" glyph-name="Edotaccent" horiz-adv-x="668" unicode="&#278;" /><glyph d="M652 236 576 0H-38L-28 32L0 44Q27 55 40 69.5Q53 84 60 109L198 591Q206 617 201 631Q196 645 175 656L153 668L163 700H471Q529 700 586 702Q643 704 698 708L640 517H607L602 533Q586 610 566.5 634.5Q547 659 505 660L399 663L321 388L402 391Q424 392 439.5 404.5Q455 417 481 461L505 504H541L462 230H426L427 273Q427 315 418.5 329Q410 343 388 343L308 346L240 106Q230 72 240.5 56Q251 40 283 40H367Q432 40 479.5 70.5Q527 101 580 184L614 236ZM476 765H427L266 920H417Z" glyph-name="Egrave" horiz-adv-x="668" unicode="&#200;" /><glyph d="M652 236 576 0H-38L-28 32L0 44Q27 55 40 69.5Q53 84 60 109L198 591Q206 617 201 631Q196 645 175 656L153 668L163 700H471Q529 700 586 702Q643 704 698 708L640 517H607L602 533Q586 610 566.5 634.5Q547 659 505 660L399 663L321 388L402 391Q424 392 439.5 404.5Q455 417 481 461L505 504H541L462 230H426L427 273Q427 315 418.5 329Q410 343 388 343L308 346L240 106Q230 72 240.5 56Q251 40 283 40H367Q432 40 479.5 70.5Q527 101 580 184L614 236ZM598 779H309L333 863H622Z" glyph-name="Emacron" horiz-adv-x="668" unicode="&#274;" /><glyph d="M415 -241Q364 -241 325.5 -212.5Q287 -184 287 -140Q286 -112 304 -93.5Q322 -75 346 -75Q370 -75 387 -90.5Q404 -106 404 -131Q404 -147 396 -162.5Q388 -178 374 -187Q383 -191 394 -193.5Q405 -196 418 -196Q458 -196 485.5 -170.5Q513 -145 529 -91L554 -7H546L251 547H249L131 109Q123 79 129 64.5Q135 50 160 44L208 32L198 0H-55L-46 32L-6 44Q20 51 35.5 66.5Q51 82 60 109L216 608L205 628Q194 644 184.5 652.5Q175 661 165 663L152 666L162 700H392Q403 664 417 628Q431 592 449 556L619 223H620L709 591Q716 620 709.5 635Q703 650 681 657L643 668L653 700H889L879 668L839 656Q814 649 800 634Q786 619 777 591L616 24L582 -100Q563 -168 520 -204.5Q477 -241 415 -241Z" glyph-name="Eng" horiz-adv-x="772" unicode="&#330;" /><glyph d="M490 -168 465 -211Q443 -218 424 -222Q405 -226 388 -226Q351 -226 325.5 -205Q300 -184 300 -152Q300 -119 328.5 -82.5Q357 -46 422 0H-38L-28 32L0 44Q27 55 40 69.5Q53 84 60 109L198 591Q206 617 201 631Q196 645 175 656L153 668L163 700H471Q529 700 586 702Q643 704 698 708L640 517H607L602 533Q586 610 566.5 634.5Q547 659 505 660L399 663L321 388L402 391Q424 392 439.5 404.5Q455 417 481 461L505 504H541L462 230H426L427 273Q427 315 418.5 329Q410 343 388 343L308 346L240 106Q230 72 240.5 56Q251 40 283 40H367Q432 40 479.5 70.5Q527 101 580 184L614 236H652L576 0H467Q433 -64 423.5 -88.5Q414 -113 414 -130Q414 -148 430 -158Q446 -168 475 -168Q477 -168 480 -168.5Q483 -169 490 -168Z" glyph-name="Eogonek" horiz-adv-x="668" unicode="&#280;" /><glyph d="M779 331Q734 175 602.5 87.5Q471 0 282 0H-36L-26 32L2 44Q29 55 42 69.5Q55 84 62 109L127 336H41L59 396H144L200 591Q208 617 203 631Q198 645 177 656L155 668L165 700H507Q629 700 711 624Q793 548 793 430Q793 405 789.5 380.5Q786 356 779 331ZM278 39H287Q390 39 465 112.5Q540 186 579 325Q589 361 594 394Q599 427 599 458Q599 553 551.5 608Q504 663 423 663H401L325 396H469L451 336H308L242 106Q232 71 240.5 55Q249 39 278 39Z" glyph-name="Eth" horiz-adv-x="782" unicode="&#208;" /><glyph d="M613 17H614Q562 1 508 -7Q454 -15 398 -15Q279 -15 202.5 52Q126 119 119 223H17L36 288H120Q123 319 129 348Q135 377 144 406H69L88 471H170Q227 587 333 651Q439 715 576 715Q634 715 691.5 707.5Q749 700 807 684L752 501H699L698 537Q697 593 670 625.5Q643 658 593 658Q529 658 471.5 609Q414 560 371 471H597L579 406H344Q334 378 326.5 348.5Q319 319 314 288H545L526 223H306Q305 216 305 207Q305 198 305 182Q305 117 332 79.5Q359 42 408 42Q460 42 502.5 70.5Q545 99 574 152L599 199H652Z" glyph-name="Euro" horiz-adv-x="741" unicode="&#8364;" /><glyph d="M301 323 240 109Q233 83 240.5 67Q248 51 270 43L304 32L294 0H-38L-28 32L0 44Q27 55 40 69.5Q53 84 60 109L198 591Q206 617 201 631Q196 645 175 656L153 668L163 700H490Q549 700 605.5 702Q662 704 717 708L658 517H625L621 533Q605 609 586 634Q567 659 525 660L398 663L313 364L410 368Q433 369 453 384.5Q473 400 498 438L517 467H552L479 207H444L441 249Q438 289 428.5 303.5Q419 318 397 319Z" glyph-name="F" horiz-adv-x="603" unicode="F" /><glyph d="M564 672Q461 672 381.5 593.5Q302 515 263 377Q254 344 249 311Q244 278 244 246Q244 150 285.5 90.5Q327 31 395 31Q434 31 454.5 43Q475 55 482 80L523 232Q525 239 526 245Q527 251 527 257Q527 270 520.5 279.5Q514 289 498 297L476 309L484 341H778L770 309L754 303Q732 295 721 283Q710 271 699 232L656 82H691L679 41Q593 11 525.5 -2Q458 -15 393 -15Q231 -15 141 67Q51 149 51 284Q51 307 54.5 330Q58 353 64 376Q111 542 242 628.5Q373 715 567 715Q626 715 701 708Q776 701 823 691L766 500H728L727 523Q724 590 681.5 630.5Q639 671 564 672Z" glyph-name="G" horiz-adv-x="774" unicode="G" /><glyph d="M564 672Q461 672 381.5 593.5Q302 515 263 377Q254 344 249 311Q244 278 244 246Q244 150 285.5 90.5Q327 31 395 31Q434 31 454.5 43Q475 55 482 80L523 232Q525 239 526 245Q527 251 527 257Q527 270 520.5 279.5Q514 289 498 297L476 309L484 341H778L770 309L754 303Q732 295 721 283Q710 271 699 232L656 82H691L679 41Q593 11 525.5 -2Q458 -15 393 -15Q231 -15 141 67Q51 149 51 284Q51 307 54.5 330Q58 353 64 376Q111 542 242 628.5Q373 715 567 715Q626 715 701 708Q776 701 823 691L766 500H728L727 523Q724 590 681.5 630.5Q639 671 564 672ZM544 764Q471 764 435.5 806.5Q400 849 416 911L422 937H477L476 931Q471 896 489 882.5Q507 869 549 869Q590 869 616 884.5Q642 900 654 931L656 937H712L704 898Q691 836 649 800Q607 764 544 764Z" glyph-name="Gbreve" horiz-adv-x="774" unicode="&#286;" /><glyph d="M564 672Q461 672 381.5 593.5Q302 515 263 377Q254 344 249 311Q244 278 244 246Q244 150 285.5 90.5Q327 31 395 31Q434 31 454.5 43Q475 55 482 80L523 232Q525 239 526 245Q527 251 527 257Q527 270 520.5 279.5Q514 289 498 297L476 309L484 341H778L770 309L754 303Q732 295 721 283Q710 271 699 232L656 82H691L679 41Q593 11 525.5 -2Q458 -15 393 -15Q231 -15 141 67Q51 149 51 284Q51 307 54.5 330Q58 353 64 376Q111 542 242 628.5Q373 715 567 715Q626 715 701 708Q776 701 823 691L766 500H728L727 523Q724 590 681.5 630.5Q639 671 564 672ZM449 765H380L540 920H620L689 765H621L550 817Z" glyph-name="Gcircumflex" horiz-adv-x="774" unicode="&#284;" /><glyph d="M564 672Q461 672 381.5 593.5Q302 515 263 377Q254 344 249 311Q244 278 244 246Q244 150 285.5 90.5Q327 31 395 31Q434 31 454.5 43Q475 55 482 80L523 232Q525 239 526 245Q527 251 527 257Q527 270 520.5 279.5Q514 289 498 297L476 309L484 341H778L770 309L754 303Q732 295 721 283Q710 271 699 232L656 82H691L679 41Q593 11 525.5 -2Q458 -15 393 -15Q231 -15 141 67Q51 149 51 284Q51 307 54.5 330Q58 353 64 376Q111 542 242 628.5Q373 715 567 715Q626 715 701 708Q776 701 823 691L766 500H728L727 523Q724 590 681.5 630.5Q639 671 564 672ZM432 -122Q432 -172 383.5 -229Q335 -286 248 -339L222 -312Q269 -256 290.5 -220.5Q312 -185 312 -163Q312 -146 302.5 -137.5Q293 -129 275 -129Q273 -129 267 -130Q261 -131 252 -132L264 -86Q286 -70 309.5 -61Q333 -52 354 -52Q390 -52 411 -70.5Q432 -89 432 -122Z" glyph-name="Gcommaaccent" horiz-adv-x="774" unicode="&#290;" /><glyph d="M564 672Q461 672 381.5 593.5Q302 515 263 377Q254 344 249 311Q244 278 244 246Q244 150 285.5 90.5Q327 31 395 31Q434 31 454.5 43Q475 55 482 80L523 232Q525 239 526 245Q527 251 527 257Q527 270 520.5 279.5Q514 289 498 297L476 309L484 341H778L770 309L754 303Q732 295 721 283Q710 271 699 232L656 82H691L679 41Q593 11 525.5 -2Q458 -15 393 -15Q231 -15 141 67Q51 149 51 284Q51 307 54.5 330Q58 353 64 376Q111 542 242 628.5Q373 715 567 715Q626 715 701 708Q776 701 823 691L766 500H728L727 523Q724 590 681.5 630.5Q639 671 564 672ZM643 846Q643 812 618 787Q593 762 558 762Q524 762 499 787Q474 812 474 846Q474 881 499 906Q524 931 558 931Q593 931 618 906Q643 881 643 846Z" glyph-name="Gdotaccent" horiz-adv-x="774" unicode="&#288;" /><glyph d="M264 44 285 32 276 0H-38L-28 32L0 44Q27 55 40 69.5Q53 84 60 109L198 591Q206 617 201 631Q196 645 175 656L153 668L163 700H477L467 668L439 656Q412 646 399 632Q386 618 378 591L322 391H570L627 591Q634 616 629 630Q624 644 603 656L582 668L591 700H906L896 668L868 656Q840 644 827.5 630Q815 616 808 591L670 109Q662 82 667 68.5Q672 55 693 44L715 32L705 0H390L400 32L428 44Q455 55 468 69.5Q481 84 488 109L553 332H304L240 109Q233 82 238 68.5Q243 55 264 44Z" glyph-name="H" horiz-adv-x="809" unicode="H" /><glyph d="M349 489 322 391H570L598 489ZM264 44 285 32 276 0H-38L-28 32L0 44Q27 55 40 69.5Q53 84 60 109L169 489H92L108 548H186L198 591Q206 617 201 631Q196 645 175 656L153 668L163 700H477L467 668L439 656Q412 646 399 632Q386 618 378 591L366 548H615L627 591Q634 616 629 630Q624 644 603 656L582 668L591 700H906L896 668L868 656Q840 644 827.5 630Q815 616 808 591L796 548H869L852 489H779L670 109Q662 82 667 68.5Q672 55 693 44L715 32L705 0H390L400 32L428 44Q455 55 468 69.5Q481 84 488 109L553 332H304L240 109Q233 82 238 68.5Q243 55 264 44Z" glyph-name="Hbar" horiz-adv-x="809" unicode="&#294;" /><glyph d="M264 44 285 32 276 0H-38L-28 32L0 44Q27 55 40 69.5Q53 84 60 109L198 591Q206 617 201 631Q196 645 175 656L153 668L163 700H477L467 668L439 656Q412 646 399 632Q386 618 378 591L322 391H570L627 591Q634 616 629 630Q624 644 603 656L582 668L591 700H906L896 668L868 656Q840 644 827.5 630Q815 616 808 591L670 109Q662 82 667 68.5Q672 55 693 44L715 32L705 0H390L400 32L428 44Q455 55 468 69.5Q481 84 488 109L553 332H304L240 109Q233 82 238 68.5Q243 55 264 44ZM461 765H392L552 920H632L701 765H633L562 817Z" glyph-name="Hcircumflex" horiz-adv-x="809" unicode="&#292;" /><glyph d="M378 591 240 109Q233 83 238 68.5Q243 54 264 44L289 32L280 0H-37L-27 32L0 44Q28 56 40.5 70Q53 84 60 109L198 591Q206 617 201 631Q196 645 175 656L153 668L163 700H477L467 668L439 656Q412 646 399 632Q386 618 378 591Z" glyph-name="I" horiz-adv-x="379" unicode="I" /><glyph d="M378 591 240 109Q233 83 238 68.5Q243 54 264 44L289 32L280 0H-37L-27 32L0 44Q28 56 40.5 70Q53 84 60 109L198 591Q206 617 201 631Q196 645 175 656L153 668L163 700H477L467 668L439 656Q412 646 399 632Q386 618 378 591ZM662 -81 768 275H623L641 334H789Q809 396 858.5 456.5Q908 517 972 552V554Q951 550 924.5 548Q898 546 867 546Q848 546 819.5 547.5Q791 549 728 555Q672 560 648 561.5Q624 563 608 563Q563 563 531.5 539Q500 515 500 482Q500 466 503 459.5Q506 453 513 453Q518 453 522 455.5Q526 458 534 467Q547 482 556.5 486.5Q566 491 578 491Q596 491 608.5 478Q621 465 621 448Q621 424 602.5 408Q584 392 554 392Q512 392 484 426.5Q456 461 456 510Q456 550 475 591Q494 632 527 662Q559 692 599 707Q639 722 685 722Q715 722 754 711.5Q793 701 842 679Q878 664 930 637Q982 610 990 606Q999 646 1020 668.5Q1041 691 1067 691Q1088 691 1101.5 677.5Q1115 664 1115 645Q1115 616 1092.5 595Q1070 574 1030 570Q1030 569 1029.5 567.5Q1029 566 1027 562Q1016 527 1002 482Q988 437 972 377L960 334H1073L1053 275H946L928 202Q876 -3 790 -110.5Q704 -218 598 -218Q539 -218 502 -190Q465 -162 465 -122Q465 -99 479.5 -84Q494 -69 516 -69Q541 -69 555.5 -83Q570 -97 578 -139Q582 -162 586.5 -168.5Q591 -175 598 -175Q618 -175 632.5 -153.5Q647 -132 662 -81Z" glyph-name="IJ" horiz-adv-x="1063" unicode="&#306;" /><glyph d="M378 591 240 109Q233 83 238 68.5Q243 54 264 44L289 32L280 0H-37L-27 32L0 44Q28 56 40.5 70Q53 84 60 109L198 591Q206 617 201 631Q196 645 175 656L153 668L163 700H477L467 668L439 656Q412 646 399 632Q386 618 378 591ZM346 765H298L369 920H542Z" glyph-name="Iacute" horiz-adv-x="379" unicode="&#205;" /><glyph d="M378 591 240 109Q233 83 238 68.5Q243 54 264 44L289 32L280 0H-37L-27 32L0 44Q28 56 40.5 70Q53 84 60 109L198 591Q206 617 201 631Q196 645 175 656L153 668L163 700H477L467 668L439 656Q412 646 399 632Q386 618 378 591ZM351 764Q278 764 242.5 806.5Q207 849 223 911L229 937H284L283 931Q278 896 296 882.5Q314 869 356 869Q397 869 423 884.5Q449 900 461 931L463 937H519L511 898Q498 836 456 800Q414 764 351 764Z" glyph-name="Ibreve" horiz-adv-x="379" unicode="&#300;" /><glyph d="M378 591 240 109Q233 83 238 68.5Q243 54 264 44L289 32L280 0H-37L-27 32L0 44Q28 56 40.5 70Q53 84 60 109L198 591Q206 617 201 631Q196 645 175 656L153 668L163 700H477L467 668L439 656Q412 646 399 632Q386 618 378 591ZM241 765H172L332 920H412L481 765H413L342 817Z" glyph-name="Icircumflex" horiz-adv-x="379" unicode="&#206;" /><glyph d="M378 591 240 109Q233 83 238 68.5Q243 54 264 44L289 32L280 0H-37L-27 32L0 44Q28 56 40.5 70Q53 84 60 109L198 591Q206 617 201 631Q196 645 175 656L153 668L163 700H477L467 668L439 656Q412 646 399 632Q386 618 378 591ZM499 842Q499 814 478.5 793Q458 772 429 772Q400 772 380.5 792.5Q361 813 361 842Q361 872 380.5 892.5Q400 913 429 913Q458 913 478.5 892Q499 871 499 842ZM322 842Q322 813 301.5 792.5Q281 772 253 772Q225 772 204.5 792.5Q184 813 184 842Q184 871 204.5 892Q225 913 253 913Q281 913 301.5 892Q322 871 322 842Z" glyph-name="Idieresis" horiz-adv-x="379" unicode="&#207;" /><glyph d="M378 591 240 109Q233 83 238 68.5Q243 54 264 44L289 32L280 0H-37L-27 32L0 44Q28 56 40.5 70Q53 84 60 109L198 591Q206 617 201 631Q196 645 175 656L153 668L163 700H477L467 668L439 656Q412 646 399 632Q386 618 378 591ZM435 846Q435 812 410 787Q385 762 350 762Q316 762 291 787Q266 812 266 846Q266 881 291 906Q316 931 350 931Q385 931 410 906Q435 881 435 846Z" glyph-name="Idotaccent" horiz-adv-x="379" unicode="&#304;" /><glyph d="M378 591 240 109Q233 83 238 68.5Q243 54 264 44L289 32L280 0H-37L-27 32L0 44Q28 56 40.5 70Q53 84 60 109L198 591Q206 617 201 631Q196 645 175 656L153 668L163 700H477L467 668L439 656Q412 646 399 632Q386 618 378 591ZM355 765H306L145 920H296Z" glyph-name="Igrave" horiz-adv-x="379" unicode="&#204;" /><glyph d="M378 591 240 109Q233 83 238 68.5Q243 54 264 44L289 32L280 0H-37L-27 32L0 44Q28 56 40.5 70Q53 84 60 109L198 591Q206 617 201 631Q196 645 175 656L153 668L163 700H477L467 668L439 656Q412 646 399 632Q386 618 378 591ZM476 779H187L211 863H500Z" glyph-name="Imacron" horiz-adv-x="379" unicode="&#298;" /><glyph d="M234 -168 209 -211Q187 -218 168 -222Q149 -226 132 -226Q95 -226 69.5 -205Q44 -184 44 -152Q44 -119 72.5 -82.5Q101 -46 166 0H-37L-27 32L0 44Q28 56 40.5 70Q53 84 60 109L198 591Q206 617 201 631Q196 645 175 656L153 668L163 700H477L467 668L439 656Q412 646 399 632Q386 618 378 591L240 109Q233 83 238 68.5Q243 54 264 44L289 32L280 0H211Q177 -64 167.5 -88.5Q158 -113 158 -130Q158 -148 174 -158Q190 -168 219 -168Q221 -168 224 -168.5Q227 -169 234 -168Z" glyph-name="Iogonek" horiz-adv-x="379" unicode="&#302;" /><glyph d="M378 591 240 109Q233 83 238 68.5Q243 54 264 44L289 32L280 0H-37L-27 32L0 44Q28 56 40.5 70Q53 84 60 109L198 591Q206 617 201 631Q196 645 175 656L153 668L163 700H477L467 668L439 656Q412 646 399 632Q386 618 378 591ZM263 798Q247 798 234.5 790.5Q222 783 209 765L171 779Q194 842 225.5 873.5Q257 905 300 905Q313 905 329.5 901Q346 897 378 885Q404 876 415 873Q426 870 434 870Q450 870 462.5 877.5Q475 885 487 902L525 889Q503 826 471 794Q439 762 396 762Q383 762 366 766Q349 770 317 783Q292 792 281.5 795Q271 798 263 798Z" glyph-name="Itilde" horiz-adv-x="379" unicode="&#296;" /><glyph d="M283 -81 389 275H244L262 334H410Q430 396 479.5 456.5Q529 517 593 552V554Q572 550 545.5 548Q519 546 488 546Q469 546 440.5 547.5Q412 549 349 555Q293 560 269 561.5Q245 563 229 563Q184 563 152.5 539Q121 515 121 482Q121 466 124 459.5Q127 453 134 453Q139 453 143 455.5Q147 458 155 467Q168 482 177.5 486.5Q187 491 199 491Q217 491 229.5 478Q242 465 242 448Q242 424 223.5 408Q205 392 175 392Q133 392 105 426.5Q77 461 77 510Q77 550 96 591Q115 632 148 662Q180 692 220 707Q260 722 306 722Q336 722 375 711.5Q414 701 463 679Q499 664 551 637Q603 610 611 606Q620 646 641 668.5Q662 691 688 691Q709 691 722.5 677.5Q736 664 736 645Q736 616 713.5 595Q691 574 651 570Q651 569 650.5 567.5Q650 566 648 562Q637 527 623 482Q609 437 593 377L581 334H694L674 275H567L549 202Q497 -3 411 -110.5Q325 -218 219 -218Q160 -218 123 -190Q86 -162 86 -122Q86 -99 100.5 -84Q115 -69 137 -69Q162 -69 176.5 -83Q191 -97 199 -139Q203 -162 207.5 -168.5Q212 -175 219 -175Q239 -175 253.5 -153.5Q268 -132 283 -81Z" glyph-name="J" horiz-adv-x="684" unicode="J" /><glyph d="M283 -81 389 275H244L262 334H410Q430 396 479.5 456.5Q529 517 593 552V554Q572 550 545.5 548Q519 546 488 546Q469 546 440.5 547.5Q412 549 349 555Q293 560 269 561.5Q245 563 229 563Q184 563 152.5 539Q121 515 121 482Q121 466 124 459.5Q127 453 134 453Q139 453 143 455.5Q147 458 155 467Q168 482 177.5 486.5Q187 491 199 491Q217 491 229.5 478Q242 465 242 448Q242 424 223.5 408Q205 392 175 392Q133 392 105 426.5Q77 461 77 510Q77 550 96 591Q115 632 148 662Q180 692 220 707Q260 722 306 722Q336 722 375 711.5Q414 701 463 679Q499 664 551 637Q603 610 611 606Q620 646 641 668.5Q662 691 688 691Q709 691 722.5 677.5Q736 664 736 645Q736 616 713.5 595Q691 574 651 570Q651 569 650.5 567.5Q650 566 648 562Q637 527 623 482Q609 437 593 377L581 334H694L674 275H567L549 202Q497 -3 411 -110.5Q325 -218 219 -218Q160 -218 123 -190Q86 -162 86 -122Q86 -99 100.5 -84Q115 -69 137 -69Q162 -69 176.5 -83Q191 -97 199 -139Q203 -162 207.5 -168.5Q212 -175 219 -175Q239 -175 253.5 -153.5Q268 -132 283 -81ZM362 765H293L453 920H533L602 765H534L463 817Z" glyph-name="Jcircumflex" horiz-adv-x="684" unicode="&#308;" /><glyph d="M294 0H-38L-28 32L0 44Q27 55 40 69.5Q53 84 60 109L198 591Q206 617 201 631Q196 645 175 656L153 668L163 700H477L467 668L439 656Q412 646 399 632Q386 618 378 591L318 386H392L563 561Q600 597 599.5 621Q599 645 562 656L525 668L534 700H846L836 668L809 660Q775 651 737.5 628.5Q700 606 650 563L480 419L586 215Q629 131 653.5 92.5Q678 54 692 47L726 32L716 0H572Q525 0 498 20.5Q471 41 447 97L338 340H304L240 109Q233 83 240.5 67Q248 51 270 43L304 32Z" glyph-name="K" horiz-adv-x="745" unicode="K" /><glyph d="M877 -96Q877 -133 831.5 -161.5Q786 -190 721 -190Q639 -190 568.5 -139Q498 -88 452 5Q422 65 391.5 152Q361 239 342 323H297L240 109Q234 82 241 66Q248 50 270 43L304 32L294 0H-38L-28 32L0 44Q27 55 40 69.5Q53 84 60 109L198 591Q206 617 201 631Q196 645 175 656L153 668L163 700H477L467 668L439 656Q413 646 400 632.5Q387 619 378 591L310 369H384L566 556Q605 594 606.5 620.5Q608 647 572 656L525 668L534 700H846L836 668L809 660Q782 653 751 633Q720 613 653 554L489 413Q531 281 587 150Q643 19 686 -41Q727 -93 754.5 -113Q782 -133 811 -133Q820 -133 825 -130.5Q830 -128 830 -124Q830 -120 828 -117Q826 -114 819 -109Q810 -102 807 -96.5Q804 -91 804 -83Q804 -71 813 -60.5Q822 -50 836 -50Q855 -50 866 -63Q877 -76 877 -96Z" glyph-name="K.alt" horiz-adv-x="703" /><glyph d="M294 0H-38L-28 32L0 44Q27 55 40 69.5Q53 84 60 109L198 591Q206 617 201 631Q196 645 175 656L153 668L163 700H477L467 668L439 656Q412 646 399 632Q386 618 378 591L318 386H392L563 561Q600 597 599.5 621Q599 645 562 656L525 668L534 700H846L836 668L809 660Q775 651 737.5 628.5Q700 606 650 563L480 419L586 215Q629 131 653.5 92.5Q678 54 692 47L726 32L716 0H572Q525 0 498 20.5Q471 41 447 97L338 340H304L240 109Q233 83 240.5 67Q248 51 270 43L304 32ZM404 -122Q404 -172 355.5 -229Q307 -286 220 -339L194 -312Q241 -256 262.5 -220.5Q284 -185 284 -163Q284 -146 274.5 -137.5Q265 -129 247 -129Q245 -129 239 -130Q233 -131 224 -132L236 -86Q258 -70 281.5 -61Q305 -52 326 -52Q362 -52 383 -70.5Q404 -89 404 -122Z" glyph-name="Kcommaaccent" horiz-adv-x="745" unicode="&#310;" /><glyph d="M521 0H-38L-28 32L0 44Q27 55 40 69.5Q53 84 60 109L198 591Q206 617 201 631Q196 645 175 656L153 668L163 700H485L476 668L445 657Q417 647 401.5 631.5Q386 616 378 591L240 107Q230 73 240.5 57Q251 41 283 41H311Q369 41 415 70Q461 99 525 185L548 216H585Z" glyph-name="L" horiz-adv-x="613" unicode="L" /><glyph d="M521 0H-38L-28 32L0 44Q27 55 40 69.5Q53 84 60 109L198 591Q206 617 201 631Q196 645 175 656L153 668L163 700H485L476 668L445 657Q417 647 401.5 631.5Q386 616 378 591L240 107Q230 73 240.5 57Q251 41 283 41H311Q369 41 415 70Q461 99 525 185L548 216H585ZM343 765H295L366 920H539Z" glyph-name="Lacute" horiz-adv-x="613" unicode="&#313;" /><glyph d="M669 630Q669 580 620.5 523Q572 466 485 413L459 440Q506 496 527.5 531.5Q549 567 549 589Q549 606 539.5 614.5Q530 623 512 623Q510 623 504 622Q498 621 489 620L501 666Q523 682 546.5 691Q570 700 591 700Q627 700 648 681.5Q669 663 669 630ZM521 0H-38L-28 32L0 44Q27 55 40 69.5Q53 84 60 109L198 591Q206 617 201 631Q196 645 175 656L153 668L163 700H485L476 668L445 657Q417 647 401.5 631.5Q386 616 378 591L240 107Q230 73 240.5 57Q251 41 283 41H311Q369 41 415 70Q461 99 525 185L548 216H585Z" glyph-name="Lcaron" horiz-adv-x="616" unicode="&#317;" /><glyph d="M521 0H-38L-28 32L0 44Q27 55 40 69.5Q53 84 60 109L198 591Q206 617 201 631Q196 645 175 656L153 668L163 700H485L476 668L445 657Q417 647 401.5 631.5Q386 616 378 591L240 107Q230 73 240.5 57Q251 41 283 41H311Q369 41 415 70Q461 99 525 185L548 216H585ZM304 -122Q304 -172 255.5 -229Q207 -286 120 -339L94 -312Q141 -256 162.5 -220.5Q184 -185 184 -163Q184 -146 174.5 -137.5Q165 -129 147 -129Q145 -129 139 -130Q133 -131 124 -132L136 -86Q158 -70 181.5 -61Q205 -52 226 -52Q262 -52 283 -70.5Q304 -89 304 -122Z" glyph-name="Lcommaaccent" horiz-adv-x="613" unicode="&#315;" /><glyph d="M521 0H-38L-28 32L0 44Q27 55 40 69.5Q53 84 60 109L198 591Q206 617 201 631Q196 645 175 656L153 668L163 700H485L476 668L445 657Q417 647 401.5 631.5Q386 616 378 591L240 107Q230 73 240.5 57Q251 41 283 41H311Q369 41 415 70Q461 99 525 185L548 216H585Z" glyph-name="Ldot" horiz-adv-x="615" unicode="&#319;" /><glyph d="M588 216 524 0H-35L-25 32L3 44Q30 55 43 69.5Q56 84 63 109L109 268L-1 233L13 283L123 318L201 591Q209 617 204 631Q199 645 178 656L156 668L166 700H488L479 668L448 657Q420 647 404.5 631.5Q389 616 381 591L321 382L512 443L499 393L307 332L243 107Q233 73 243.5 57Q254 41 286 41H314Q372 41 418 70Q464 99 528 185L551 216Z" glyph-name="Lslash" horiz-adv-x="615" unicode="&#321;" /><glyph d="M929 591 870 109Q866 79 872 64Q878 49 894 42L917 32L908 0H587L597 32L628 43Q654 52 668.5 68.5Q683 85 686 109L746 569H744L412 0H344L300 569H298L120 109Q111 83 118.5 65.5Q126 48 149 43L197 32L187 0H-67L-57 32L-17 44Q7 51 22 65.5Q37 80 49 109L249 589Q259 612 253 629.5Q247 647 225 658L203 668L212 700H552L542 668L520 660Q498 652 489.5 637.5Q481 623 483 592L503 241H505L702 592Q720 625 718.5 639Q717 653 698 660L677 668L686 700H1030L1021 668L991 658Q964 649 948 632Q932 615 929 591Z" glyph-name="M" horiz-adv-x="982" unicode="M" /><glyph d="M620 223 709 591Q716 620 709.5 635Q703 650 681 657L643 668L653 700H889L879 668L839 656Q814 649 800 634Q786 619 777 591L607 -7H546L251 547H249L131 109Q123 79 129 64.5Q135 50 160 44L208 32L198 0H-55L-46 32L-6 44Q20 51 35.5 66.5Q51 82 60 109L216 608L205 628Q194 644 184.5 652.5Q175 661 165 663L152 666L162 700H392Q403 664 417 628Q431 592 449 556L619 223Z" glyph-name="N" horiz-adv-x="772" unicode="N" /><glyph d="M620 223 709 591Q716 620 709.5 635Q703 650 681 657L643 668L653 700H889L879 668L839 656Q814 649 800 634Q786 619 777 591L607 -7H546L251 547H249L131 109Q123 79 129 64.5Q135 50 160 44L208 32L198 0H-55L-46 32L-6 44Q20 51 35.5 66.5Q51 82 60 109L216 608L205 628Q194 644 184.5 652.5Q175 661 165 663L152 666L162 700H392Q403 664 417 628Q431 592 449 556L619 223ZM546 765H498L569 920H742Z" glyph-name="Nacute" horiz-adv-x="772" unicode="&#323;" /><glyph d="M620 223 709 591Q716 620 709.5 635Q703 650 681 657L643 668L653 700H889L879 668L839 656Q814 649 800 634Q786 619 777 591L607 -7H546L251 547H249L131 109Q123 79 129 64.5Q135 50 160 44L208 32L198 0H-55L-46 32L-6 44Q20 51 35.5 66.5Q51 82 60 109L216 608L205 628Q194 644 184.5 652.5Q175 661 165 663L152 666L162 700H392Q403 664 417 628Q431 592 449 556L619 223ZM487 765 418 920H486L557 868L658 920H726L567 765Z" glyph-name="Ncaron" horiz-adv-x="772" unicode="&#327;" /><glyph d="M620 223 709 591Q716 620 709.5 635Q703 650 681 657L643 668L653 700H889L879 668L839 656Q814 649 800 634Q786 619 777 591L607 -7H546L251 547H249L131 109Q123 79 129 64.5Q135 50 160 44L208 32L198 0H-55L-46 32L-6 44Q20 51 35.5 66.5Q51 82 60 109L216 608L205 628Q194 644 184.5 652.5Q175 661 165 663L152 666L162 700H392Q403 664 417 628Q431 592 449 556L619 223ZM363 -122Q363 -172 314.5 -229Q266 -286 179 -339L153 -312Q200 -256 221.5 -220.5Q243 -185 243 -163Q243 -146 233.5 -137.5Q224 -129 206 -129Q204 -129 198 -130Q192 -131 183 -132L195 -86Q217 -70 240.5 -61Q264 -52 285 -52Q321 -52 342 -70.5Q363 -89 363 -122Z" glyph-name="Ncommaaccent" horiz-adv-x="772" unicode="&#325;" /><glyph d="M620 223 709 591Q716 620 709.5 635Q703 650 681 657L643 668L653 700H889L879 668L839 656Q814 649 800 634Q786 619 777 591L607 -7H546L251 547H249L131 109Q123 79 129 64.5Q135 50 160 44L208 32L198 0H-55L-46 32L-6 44Q20 51 35.5 66.5Q51 82 60 109L216 608L205 628Q194 644 184.5 652.5Q175 661 165 663L152 666L162 700H392Q403 664 417 628Q431 592 449 556L619 223ZM463 798Q447 798 434.5 790.5Q422 783 409 765L371 779Q394 842 425.5 873.5Q457 905 500 905Q513 905 529.5 901Q546 897 578 885Q604 876 615 873Q626 870 634 870Q650 870 662.5 877.5Q675 885 687 902L725 889Q703 826 671 794Q639 762 596 762Q583 762 566 766Q549 770 517 783Q492 792 481.5 795Q471 798 463 798Z" glyph-name="Ntilde" horiz-adv-x="772" unicode="&#209;" /><glyph d="M457 714Q469 714 480.5 713.5Q492 713 504 711Q616 696 683 614.5Q750 533 750 415Q750 386 746 357.5Q742 329 734 301Q695 163 585.5 73Q476 -17 347 -17Q335 -17 323.5 -16.5Q312 -16 300 -14Q188 2 121 83.5Q54 165 54 283Q54 311 58 339.5Q62 368 70 396Q109 534 218.5 624Q328 714 457 714ZM229 153Q229 96 249.5 65.5Q270 35 313 28Q316 27 320 27Q324 27 331 27Q394 27 442.5 98Q491 169 536 329Q556 401 565.5 453.5Q575 506 575 545Q575 602 554.5 632.5Q534 663 491 669Q488 670 484 670Q480 670 472 670Q410 670 361 598Q312 526 268 368Q248 298 238.5 245Q229 192 229 153Z" glyph-name="O" horiz-adv-x="746" unicode="O" /><glyph d="M262 162Q278 103 319 70Q360 37 416 37H451L610 594Q619 624 608.5 642.5Q598 661 570 661Q457 660 387 591.5Q317 523 273 375Q255 313 252.5 259.5Q250 206 262 162ZM981 0H348Q275 0 212.5 29.5Q150 59 110 113Q71 166 61 233.5Q51 301 72 375Q117 533 245.5 616.5Q374 700 572 700H882Q940 700 997 702Q1054 704 1109 708L1050 517H1017L1013 533Q997 610 977.5 634.5Q958 659 916 660L810 663L732 388L813 391Q834 392 849.5 404.5Q865 417 892 461L916 504H951L873 230H837V273Q837 317 828.5 330Q820 343 798 343L719 346L651 106Q642 76 653 58Q664 40 693 40H772Q837 40 884 70Q931 100 984 184L1019 236H1056Z" glyph-name="OE" horiz-adv-x="1067" unicode="&#338;" /><glyph d="M457 714Q469 714 480.5 713.5Q492 713 504 711Q616 696 683 614.5Q750 533 750 415Q750 386 746 357.5Q742 329 734 301Q695 163 585.5 73Q476 -17 347 -17Q335 -17 323.5 -16.5Q312 -16 300 -14Q188 2 121 83.5Q54 165 54 283Q54 311 58 339.5Q62 368 70 396Q109 534 218.5 624Q328 714 457 714ZM229 153Q229 96 249.5 65.5Q270 35 313 28Q316 27 320 27Q324 27 331 27Q394 27 442.5 98Q491 169 536 329Q556 401 565.5 453.5Q575 506 575 545Q575 602 554.5 632.5Q534 663 491 669Q488 670 484 670Q480 670 472 670Q410 670 361 598Q312 526 268 368Q248 298 238.5 245Q229 192 229 153ZM515 765H467L538 920H711Z" glyph-name="Oacute" horiz-adv-x="746" unicode="&#211;" /><glyph d="M457 714Q469 714 480.5 713.5Q492 713 504 711Q616 696 683 614.5Q750 533 750 415Q750 386 746 357.5Q742 329 734 301Q695 163 585.5 73Q476 -17 347 -17Q335 -17 323.5 -16.5Q312 -16 300 -14Q188 2 121 83.5Q54 165 54 283Q54 311 58 339.5Q62 368 70 396Q109 534 218.5 624Q328 714 457 714ZM229 153Q229 96 249.5 65.5Q270 35 313 28Q316 27 320 27Q324 27 331 27Q394 27 442.5 98Q491 169 536 329Q556 401 565.5 453.5Q575 506 575 545Q575 602 554.5 632.5Q534 663 491 669Q488 670 484 670Q480 670 472 670Q410 670 361 598Q312 526 268 368Q248 298 238.5 245Q229 192 229 153ZM505 764Q432 764 396.5 806.5Q361 849 377 911L383 937H438L437 931Q432 896 450 882.5Q468 869 510 869Q551 869 577 884.5Q603 900 615 931L617 937H673L665 898Q652 836 610 800Q568 764 505 764Z" glyph-name="Obreve" horiz-adv-x="746" unicode="&#334;" /><glyph d="M457 714Q469 714 480.5 713.5Q492 713 504 711Q616 696 683 614.5Q750 533 750 415Q750 386 746 357.5Q742 329 734 301Q695 163 585.5 73Q476 -17 347 -17Q335 -17 323.5 -16.5Q312 -16 300 -14Q188 2 121 83.5Q54 165 54 283Q54 311 58 339.5Q62 368 70 396Q109 534 218.5 624Q328 714 457 714ZM229 153Q229 96 249.5 65.5Q270 35 313 28Q316 27 320 27Q324 27 331 27Q394 27 442.5 98Q491 169 536 329Q556 401 565.5 453.5Q575 506 575 545Q575 602 554.5 632.5Q534 663 491 669Q488 670 484 670Q480 670 472 670Q410 670 361 598Q312 526 268 368Q248 298 238.5 245Q229 192 229 153ZM410 765H341L501 920H581L650 765H582L511 817Z" glyph-name="Ocircumflex" horiz-adv-x="746" unicode="&#212;" /><glyph d="M457 714Q469 714 480.5 713.5Q492 713 504 711Q616 696 683 614.5Q750 533 750 415Q750 386 746 357.5Q742 329 734 301Q695 163 585.5 73Q476 -17 347 -17Q335 -17 323.5 -16.5Q312 -16 300 -14Q188 2 121 83.5Q54 165 54 283Q54 311 58 339.5Q62 368 70 396Q109 534 218.5 624Q328 714 457 714ZM229 153Q229 96 249.5 65.5Q270 35 313 28Q316 27 320 27Q324 27 331 27Q394 27 442.5 98Q491 169 536 329Q556 401 565.5 453.5Q575 506 575 545Q575 602 554.5 632.5Q534 663 491 669Q488 670 484 670Q480 670 472 670Q410 670 361 598Q312 526 268 368Q248 298 238.5 245Q229 192 229 153ZM668 842Q668 814 647.5 793Q627 772 598 772Q569 772 549.5 792.5Q530 813 530 842Q530 872 549.5 892.5Q569 913 598 913Q627 913 647.5 892Q668 871 668 842ZM491 842Q491 813 470.5 792.5Q450 772 422 772Q394 772 373.5 792.5Q353 813 353 842Q353 871 373.5 892Q394 913 422 913Q450 913 470.5 892Q491 871 491 842Z" glyph-name="Odieresis" horiz-adv-x="746" unicode="&#214;" /><glyph d="M457 714Q469 714 480.5 713.5Q492 713 504 711Q616 696 683 614.5Q750 533 750 415Q750 386 746 357.5Q742 329 734 301Q695 163 585.5 73Q476 -17 347 -17Q335 -17 323.5 -16.5Q312 -16 300 -14Q188 2 121 83.5Q54 165 54 283Q54 311 58 339.5Q62 368 70 396Q109 534 218.5 624Q328 714 457 714ZM229 153Q229 96 249.5 65.5Q270 35 313 28Q316 27 320 27Q324 27 331 27Q394 27 442.5 98Q491 169 536 329Q556 401 565.5 453.5Q575 506 575 545Q575 602 554.5 632.5Q534 663 491 669Q488 670 484 670Q480 670 472 670Q410 670 361 598Q312 526 268 368Q248 298 238.5 245Q229 192 229 153ZM524 765H475L314 920H465Z" glyph-name="Ograve" horiz-adv-x="746" unicode="&#210;" /><glyph d="M457 714Q469 714 480.5 713.5Q492 713 504 711Q616 696 683 614.5Q750 533 750 415Q750 386 746 357.5Q742 329 734 301Q695 163 585.5 73Q476 -17 347 -17Q335 -17 323.5 -16.5Q312 -16 300 -14Q188 2 121 83.5Q54 165 54 283Q54 311 58 339.5Q62 368 70 396Q109 534 218.5 624Q328 714 457 714ZM229 153Q229 96 249.5 65.5Q270 35 313 28Q316 27 320 27Q324 27 331 27Q394 27 442.5 98Q491 169 536 329Q556 401 565.5 453.5Q575 506 575 545Q575 602 554.5 632.5Q534 663 491 669Q488 670 484 670Q480 670 472 670Q410 670 361 598Q312 526 268 368Q248 298 238.5 245Q229 192 229 153ZM613 765H565L636 920H809ZM409 765H361L432 920H605Z" glyph-name="Ohungarumlaut" horiz-adv-x="746" unicode="&#336;" /><glyph d="M457 714Q469 714 480.5 713.5Q492 713 504 711Q616 696 683 614.5Q750 533 750 415Q750 386 746 357.5Q742 329 734 301Q695 163 585.5 73Q476 -17 347 -17Q335 -17 323.5 -16.5Q312 -16 300 -14Q188 2 121 83.5Q54 165 54 283Q54 311 58 339.5Q62 368 70 396Q109 534 218.5 624Q328 714 457 714ZM229 153Q229 96 249.5 65.5Q270 35 313 28Q316 27 320 27Q324 27 331 27Q394 27 442.5 98Q491 169 536 329Q556 401 565.5 453.5Q575 506 575 545Q575 602 554.5 632.5Q534 663 491 669Q488 670 484 670Q480 670 472 670Q410 670 361 598Q312 526 268 368Q248 298 238.5 245Q229 192 229 153ZM645 779H356L380 863H669Z" glyph-name="Omacron" horiz-adv-x="746" unicode="&#332;" /><glyph d="M303 351Q303 296 265.5 257.5Q228 219 174 219Q120 219 82.5 257.5Q45 296 45 351Q45 406 82.5 444.5Q120 483 174 483Q228 483 265.5 444.5Q303 406 303 351Z" glyph-name="Omega" horiz-adv-x="348" unicode="&#8486;" /><glyph d="M472 670Q410 670 361 598Q312 526 268 368Q255 321 246 282.5Q237 244 233 212L575 552Q573 606 552.5 634.5Q532 663 491 669Q488 670 484 670Q480 670 472 670ZM313 28Q316 27 320 27Q324 27 331 27Q394 27 442.5 98Q491 169 536 329Q548 372 556.5 408Q565 444 569 475L229 136Q232 87 253 60.5Q274 34 313 28ZM347 -17Q335 -17 323.5 -16.5Q312 -16 300 -14Q255 -7 217 10Q179 27 148 55L56 -37L13 -8L114 93Q85 131 69.5 179.5Q54 228 54 283Q54 311 58 339.5Q62 368 70 396Q109 534 218.5 624Q328 714 457 714Q469 714 480.5 713.5Q492 713 504 711Q550 705 589.5 686.5Q629 668 661 638L765 742L807 713L694 600Q721 561 735.5 514Q750 467 750 415Q750 386 746 357.5Q742 329 734 301Q695 163 585.5 73Q476 -17 347 -17Z" glyph-name="Oslash" horiz-adv-x="746" unicode="&#216;" /><glyph d="M457 714Q469 714 480.5 713.5Q492 713 504 711Q616 696 683 614.5Q750 533 750 415Q750 386 746 357.5Q742 329 734 301Q695 163 585.5 73Q476 -17 347 -17Q335 -17 323.5 -16.5Q312 -16 300 -14Q188 2 121 83.5Q54 165 54 283Q54 311 58 339.5Q62 368 70 396Q109 534 218.5 624Q328 714 457 714ZM229 153Q229 96 249.5 65.5Q270 35 313 28Q316 27 320 27Q324 27 331 27Q394 27 442.5 98Q491 169 536 329Q556 401 565.5 453.5Q575 506 575 545Q575 602 554.5 632.5Q534 663 491 669Q488 670 484 670Q480 670 472 670Q410 670 361 598Q312 526 268 368Q248 298 238.5 245Q229 192 229 153ZM432 798Q416 798 403.5 790.5Q391 783 378 765L340 779Q363 842 394.5 873.5Q426 905 469 905Q482 905 498.5 901Q515 897 547 885Q573 876 584 873Q595 870 603 870Q619 870 631.5 877.5Q644 885 656 902L694 889Q672 826 640 794Q608 762 565 762Q552 762 535 766Q518 770 486 783Q461 792 450.5 795Q440 798 432 798Z" glyph-name="Otilde" horiz-adv-x="746" unicode="&#213;" /><glyph d="M294 0H-38L-28 32L0 44Q27 55 40 69.5Q53 84 60 109L198 591Q206 615 201 630Q196 645 175 656L153 668L163 700H472Q574 700 640.5 646Q707 592 707 512Q707 463 683.5 417.5Q660 372 616 337Q576 303 525.5 284Q475 265 429 265Q388 265 363 284Q338 303 338 332Q338 352 352.5 367Q367 382 387 382Q407 382 420.5 368Q434 354 434 334Q434 330 432 318.5Q430 307 429 304L431 303Q466 329 492.5 405Q519 481 519 554Q519 608 495 635.5Q471 663 423 663H399L240 109Q232 85 240 68Q248 51 270 43L304 32Z" glyph-name="P" horiz-adv-x="655" unicode="P" /><glyph d="M966 -76Q966 -146 892.5 -193.5Q819 -241 714 -241Q664 -241 612.5 -227Q561 -213 506 -185Q473 -168 436.5 -144.5Q400 -121 325 -67Q264 -23 216.5 -1.5Q169 20 130 20Q103 20 84.5 6Q66 -8 66 -27Q66 -49 84 -63.5Q102 -78 131 -78Q152 -78 171 -69Q190 -60 213 -40L250 -57Q218 -87 185.5 -102.5Q153 -118 121 -118Q70 -118 38.5 -90.5Q7 -63 7 -21Q7 35 50.5 70.5Q94 106 164 106Q196 106 245 93.5Q294 81 359 56Q457 108 517 214Q577 320 577 437Q577 536 532.5 595Q488 654 413 654Q332 654 281 594.5Q230 535 230 453Q230 387 260 343Q290 299 341 299Q372 299 396 315.5Q420 332 424 357Q420 354 412.5 352.5Q405 351 397 351Q380 351 367.5 363.5Q355 376 355 393Q355 411 369 423.5Q383 436 402 436Q426 436 442 418Q458 400 458 373Q457 299 398 250Q339 201 261 201Q182 201 126 255.5Q70 310 70 399Q70 463 102 524Q134 585 192 631Q244 672 308.5 693.5Q373 715 444 715Q589 715 684 638Q779 561 779 429Q779 316 684 213.5Q589 111 414 41L407 38Q469 13 564 -28.5Q659 -70 665 -73Q732 -102 791.5 -121.5Q851 -141 875 -141Q892 -141 901.5 -133Q911 -125 911 -113Q911 -109 908.5 -104.5Q906 -100 899 -93Q890 -84 887 -78Q884 -72 884 -66Q884 -49 896 -38Q908 -27 925 -27Q942 -27 954 -41Q966 -55 966 -76Z" glyph-name="Q" horiz-adv-x="777" unicode="Q" /><glyph d="M838 -79Q838 -117 795 -145Q752 -173 688 -173Q606 -173 537.5 -126Q469 -79 431 3Q409 49 390.5 118.5Q372 188 352 303H296L240 109Q233 83 240 67.5Q247 52 270 43L304 32L294 0H-38L-28 32L0 44Q27 55 40 69.5Q53 84 60 109L198 591Q205 617 201 630.5Q197 644 175 656L153 668L163 700H483Q587 700 650 651Q713 602 713 526Q713 452 659 401.5Q605 351 511 333Q545 209 579 123.5Q613 38 650 -18Q688 -73 715.5 -94.5Q743 -116 772 -116Q781 -116 786 -112.5Q791 -109 791 -104Q791 -101 789 -98.5Q787 -96 781 -92Q772 -86 768.5 -80Q765 -74 765 -65Q765 -53 774.5 -43.5Q784 -34 798 -34Q816 -34 827 -47.5Q838 -61 838 -79ZM399 660 310 350H344Q417 350 472 408Q527 466 527 548Q527 601 500 630.5Q473 660 422 660Z" glyph-name="R" horiz-adv-x="700" unicode="R" /><glyph d="M398 660 313 371H364Q442 371 488 419Q534 467 534 551Q534 603 507 631.5Q480 660 429 660ZM270 43 304 32 294 0H-38L-28 32L0 44Q27 55 40 69.5Q53 84 60 109L198 591Q201 601 202 607Q203 613 203 618Q203 631 196.5 639.5Q190 648 175 656L153 668L163 700H479Q586 700 651 654.5Q716 609 716 537Q716 462 659.5 413Q603 364 503 350L580 214Q618 145 648.5 105.5Q679 66 708 49L735 32L725 0H577Q533 0 498 28.5Q463 57 434 118L333 325H299L240 109Q238 99 237 94.5Q236 90 236 86Q236 70 244.5 59.5Q253 49 270 43Z" glyph-name="R.alt" horiz-adv-x="740" /><glyph d="M838 -79Q838 -117 795 -145Q752 -173 688 -173Q606 -173 537.5 -126Q469 -79 431 3Q409 49 390.5 118.5Q372 188 352 303H296L240 109Q233 83 240 67.5Q247 52 270 43L304 32L294 0H-38L-28 32L0 44Q27 55 40 69.5Q53 84 60 109L198 591Q205 617 201 630.5Q197 644 175 656L153 668L163 700H483Q587 700 650 651Q713 602 713 526Q713 452 659 401.5Q605 351 511 333Q545 209 579 123.5Q613 38 650 -18Q688 -73 715.5 -94.5Q743 -116 772 -116Q781 -116 786 -112.5Q791 -109 791 -104Q791 -101 789 -98.5Q787 -96 781 -92Q772 -86 768.5 -80Q765 -74 765 -65Q765 -53 774.5 -43.5Q784 -34 798 -34Q816 -34 827 -47.5Q838 -61 838 -79ZM399 660 310 350H344Q417 350 472 408Q527 466 527 548Q527 601 500 630.5Q473 660 422 660ZM486 765H438L509 920H682Z" glyph-name="Racute" horiz-adv-x="700" unicode="&#340;" /><glyph d="M838 -79Q838 -117 795 -145Q752 -173 688 -173Q606 -173 537.5 -126Q469 -79 431 3Q409 49 390.5 118.5Q372 188 352 303H296L240 109Q233 83 240 67.5Q247 52 270 43L304 32L294 0H-38L-28 32L0 44Q27 55 40 69.5Q53 84 60 109L198 591Q205 617 201 630.5Q197 644 175 656L153 668L163 700H483Q587 700 650 651Q713 602 713 526Q713 452 659 401.5Q605 351 511 333Q545 209 579 123.5Q613 38 650 -18Q688 -73 715.5 -94.5Q743 -116 772 -116Q781 -116 786 -112.5Q791 -109 791 -104Q791 -101 789 -98.5Q787 -96 781 -92Q772 -86 768.5 -80Q765 -74 765 -65Q765 -53 774.5 -43.5Q784 -34 798 -34Q816 -34 827 -47.5Q838 -61 838 -79ZM399 660 310 350H344Q417 350 472 408Q527 466 527 548Q527 601 500 630.5Q473 660 422 660ZM427 765 358 920H426L497 868L598 920H666L507 765Z" glyph-name="Rcaron" horiz-adv-x="700" unicode="&#344;" /><glyph d="M838 -79Q838 -117 795 -145Q752 -173 688 -173Q606 -173 537.5 -126Q469 -79 431 3Q409 49 390.5 118.5Q372 188 352 303H296L240 109Q233 83 240 67.5Q247 52 270 43L304 32L294 0H-38L-28 32L0 44Q27 55 40 69.5Q53 84 60 109L198 591Q205 617 201 630.5Q197 644 175 656L153 668L163 700H483Q587 700 650 651Q713 602 713 526Q713 452 659 401.5Q605 351 511 333Q545 209 579 123.5Q613 38 650 -18Q688 -73 715.5 -94.5Q743 -116 772 -116Q781 -116 786 -112.5Q791 -109 791 -104Q791 -101 789 -98.5Q787 -96 781 -92Q772 -86 768.5 -80Q765 -74 765 -65Q765 -53 774.5 -43.5Q784 -34 798 -34Q816 -34 827 -47.5Q838 -61 838 -79ZM399 660 310 350H344Q417 350 472 408Q527 466 527 548Q527 601 500 630.5Q473 660 422 660ZM412 -122Q412 -172 363.5 -229Q315 -286 228 -339L202 -312Q249 -256 270.5 -220.5Q292 -185 292 -163Q292 -146 282.5 -137.5Q273 -129 255 -129Q253 -129 247 -130Q241 -131 232 -132L244 -86Q266 -70 289.5 -61Q313 -52 334 -52Q370 -52 391 -70.5Q412 -89 412 -122Z" glyph-name="Rcommaaccent" horiz-adv-x="700" unicode="&#342;" /><glyph d="M543 225Q543 123 457.5 54Q372 -15 246 -15Q191 -15 125.5 -2.5Q60 10 8 30L72 239H115Q113 228 112.5 215Q112 202 112 178Q112 111 152.5 70Q193 29 257 29Q310 29 342.5 59Q375 89 375 132Q375 164 353 195Q331 226 259 283Q211 321 192 337.5Q173 354 159 370Q134 399 122 428Q110 457 110 489Q110 590 192.5 652.5Q275 715 406 715Q458 715 516.5 705.5Q575 696 605 684L536 521H496Q498 529 498.5 538.5Q499 548 499 564Q499 619 474.5 645Q450 671 397 671Q353 671 319 643Q285 615 285 574Q285 543 305 513.5Q325 484 385 437Q451 385 464.5 372.5Q478 360 489 348Q517 318 530 288Q543 258 543 225Z" glyph-name="S" horiz-adv-x="577" unicode="S" /><glyph d="M543 225Q543 123 457.5 54Q372 -15 246 -15Q191 -15 125.5 -2.5Q60 10 8 30L72 239H115Q113 228 112.5 215Q112 202 112 178Q112 111 152.5 70Q193 29 257 29Q310 29 342.5 59Q375 89 375 132Q375 164 353 195Q331 226 259 283Q211 321 192 337.5Q173 354 159 370Q134 399 122 428Q110 457 110 489Q110 590 192.5 652.5Q275 715 406 715Q458 715 516.5 705.5Q575 696 605 684L536 521H496Q498 529 498.5 538.5Q499 548 499 564Q499 619 474.5 645Q450 671 397 671Q353 671 319 643Q285 615 285 574Q285 543 305 513.5Q325 484 385 437Q451 385 464.5 372.5Q478 360 489 348Q517 318 530 288Q543 258 543 225ZM445 765H397L468 920H641Z" glyph-name="Sacute" horiz-adv-x="577" unicode="&#346;" /><glyph d="M543 225Q543 123 457.5 54Q372 -15 246 -15Q191 -15 125.5 -2.5Q60 10 8 30L72 239H115Q113 228 112.5 215Q112 202 112 178Q112 111 152.5 70Q193 29 257 29Q310 29 342.5 59Q375 89 375 132Q375 164 353 195Q331 226 259 283Q211 321 192 337.5Q173 354 159 370Q134 399 122 428Q110 457 110 489Q110 590 192.5 652.5Q275 715 406 715Q458 715 516.5 705.5Q575 696 605 684L536 521H496Q498 529 498.5 538.5Q499 548 499 564Q499 619 474.5 645Q450 671 397 671Q353 671 319 643Q285 615 285 574Q285 543 305 513.5Q325 484 385 437Q451 385 464.5 372.5Q478 360 489 348Q517 318 530 288Q543 258 543 225ZM387 765 318 920H386L457 868L558 920H626L467 765Z" glyph-name="Scaron" horiz-adv-x="577" unicode="&#352;" /><glyph d="M337 -144Q337 -192 296 -222Q255 -252 190 -252Q168 -252 146.5 -248Q125 -244 104 -237L96 -192Q107 -194 120.5 -195.5Q134 -197 147 -197Q179 -197 197.5 -184.5Q216 -172 216 -150Q216 -128 194.5 -115Q173 -102 136 -101L138 -79L220 -14Q169 -11 111.5 1Q54 13 8 30L72 239H115Q113 228 112.5 215Q112 202 112 178Q112 111 152.5 70Q193 29 257 29Q310 29 342.5 59Q375 89 375 132Q375 164 353 195Q331 226 259 283Q211 321 192 337.5Q173 354 159 370Q134 399 122 428Q110 457 110 489Q110 590 192.5 652.5Q275 715 406 715Q458 715 516.5 705.5Q575 696 605 684L536 521H496Q498 529 498.5 538.5Q499 548 499 564Q499 619 474.5 645Q450 671 397 671Q353 671 319 643Q285 615 285 574Q285 543 305 513.5Q325 484 385 437Q451 385 464.5 372.5Q478 360 489 348Q517 318 530 288Q543 258 543 225Q543 131 469.5 64Q396 -3 282 -13L251 -48Q284 -55 310.5 -82Q337 -109 337 -144Z" glyph-name="Scedilla" horiz-adv-x="577" unicode="&#350;" /><glyph d="M543 225Q543 123 457.5 54Q372 -15 246 -15Q191 -15 125.5 -2.5Q60 10 8 30L72 239H115Q113 228 112.5 215Q112 202 112 178Q112 111 152.5 70Q193 29 257 29Q310 29 342.5 59Q375 89 375 132Q375 164 353 195Q331 226 259 283Q211 321 192 337.5Q173 354 159 370Q134 399 122 428Q110 457 110 489Q110 590 192.5 652.5Q275 715 406 715Q458 715 516.5 705.5Q575 696 605 684L536 521H496Q498 529 498.5 538.5Q499 548 499 564Q499 619 474.5 645Q450 671 397 671Q353 671 319 643Q285 615 285 574Q285 543 305 513.5Q325 484 385 437Q451 385 464.5 372.5Q478 360 489 348Q517 318 530 288Q543 258 543 225ZM341 765H272L432 920H512L581 765H513L442 817Z" glyph-name="Scircumflex" horiz-adv-x="577" unicode="&#348;" /><glyph d="M543 225Q543 123 457.5 54Q372 -15 246 -15Q191 -15 125.5 -2.5Q60 10 8 30L72 239H115Q113 228 112.5 215Q112 202 112 178Q112 111 152.5 70Q193 29 257 29Q310 29 342.5 59Q375 89 375 132Q375 164 353 195Q331 226 259 283Q211 321 192 337.5Q173 354 159 370Q134 399 122 428Q110 457 110 489Q110 590 192.5 652.5Q275 715 406 715Q458 715 516.5 705.5Q575 696 605 684L536 521H496Q498 529 498.5 538.5Q499 548 499 564Q499 619 474.5 645Q450 671 397 671Q353 671 319 643Q285 615 285 574Q285 543 305 513.5Q325 484 385 437Q451 385 464.5 372.5Q478 360 489 348Q517 318 530 288Q543 258 543 225ZM317 -122Q317 -172 268.5 -229Q220 -286 133 -339L107 -312Q154 -256 175.5 -220.5Q197 -185 197 -163Q197 -146 187.5 -137.5Q178 -129 160 -129Q158 -129 152 -130Q146 -131 137 -132L149 -86Q171 -70 194.5 -61Q218 -52 239 -52Q275 -52 296 -70.5Q317 -89 317 -122Z" glyph-name="Scommaaccent" horiz-adv-x="577" unicode="&#536;" /><glyph d="M484 43 516 32 506 0H171L181 32L209 43Q238 55 253.5 70.5Q269 86 276 109L413 560Q327 564 300.5 565Q274 566 255 566Q195 566 158.5 537.5Q122 509 122 463Q122 449 125.5 441Q129 433 136 433Q141 433 145 436Q149 439 156 449Q167 464 176 469Q185 474 197 474Q216 474 229.5 461.5Q243 449 243 432Q243 408 226.5 391.5Q210 375 182 373Q137 373 107 408Q77 443 77 496Q77 539 96 582.5Q115 626 149 659Q182 690 224 706Q266 722 316 722Q349 722 399.5 716.5Q450 711 562 694Q658 679 697.5 674.5Q737 670 760 670Q793 670 812 687.5Q831 705 831 732Q831 737 830.5 740.5Q830 744 828 747H825Q820 733 809.5 725Q799 717 785 717Q765 717 752 729.5Q739 742 739 760Q739 778 754 792.5Q769 807 790 807Q823 807 846 779Q869 751 869 712Q869 642 814.5 595Q760 548 682 548Q661 548 637 549Q613 550 586 551L456 109Q449 83 455.5 67Q462 51 484 43Z" glyph-name="T" horiz-adv-x="733" unicode="T" /><glyph d="M430 0H97L106 32L133 43Q163 55 179 70.5Q195 86 201 109L359 661H340Q276 661 234 632.5Q192 604 142 529L121 497H88L148 708Q171 705 221 702.5Q271 700 321 700H579Q632 700 696 703Q760 706 776 708L716 497H682L678 530Q669 605 644 633Q619 661 560 661H537L381 109Q374 83 380.5 67Q387 51 409 43L440 32Z" glyph-name="T.alt" horiz-adv-x="661" /><glyph d="M935 384Q887 333 838 235Q789 137 745 0L596 -17L762 546Q741 546 710.5 547Q680 548 587 552L456 109Q449 83 455.5 67Q462 51 484 43L516 32L506 0H171L181 32L209 43Q238 55 253.5 70.5Q269 86 276 109L413 561Q360 563 319.5 564.5Q279 566 255 566Q195 566 158.5 537.5Q122 509 122 463Q122 449 125.5 441Q129 433 136 433Q141 433 145 436Q149 439 156 449Q167 464 176 469Q185 474 197 474Q216 474 229.5 461.5Q243 449 243 432Q243 408 226.5 391.5Q210 375 182 373Q137 373 107 408Q77 443 77 496Q77 539 96 582.5Q115 626 149 659Q182 690 224 706Q266 722 316 722Q359 722 426 716Q493 710 637 692Q743 678 784 674Q825 670 847 670Q880 670 899 687.5Q918 705 918 732Q918 737 917.5 740.5Q917 744 915 747H912Q907 733 896.5 725Q886 717 872 717Q852 717 839 729.5Q826 742 826 760Q826 778 841 792.5Q856 807 877 807Q910 807 933 779Q956 751 956 712Q956 696 953 681Q950 666 944 653L822 297H829Q876 396 940 455Q1004 514 1064 514Q1101 514 1126.5 488Q1152 462 1152 420Q1152 397 1143 361.5Q1134 326 1085 179L1067 122Q1066 119 1065 116Q1064 113 1062 106Q1060 98 1059 95Q1058 92 1058 90Q1058 87 1059.5 86Q1061 85 1064 85Q1073 85 1096 100.5Q1119 116 1135 133L1158 110Q1117 52 1064 18.5Q1011 -15 961 -15Q932 -15 915.5 0.5Q899 16 899 42Q899 58 909 91Q919 124 954 219L964 247Q993 328 999 350.5Q1005 373 1005 387Q1005 399 999.5 406Q994 413 984 413Q974 413 961 405.5Q948 398 935 384Z" glyph-name="T_h" horiz-adv-x="1181" /><glyph d="M484 43 516 32 506 0H171L181 32L209 43Q238 55 253.5 70.5Q269 86 276 109L413 560Q327 564 300.5 565Q274 566 255 566Q195 566 158.5 537.5Q122 509 122 463Q122 449 125.5 441Q129 433 136 433Q141 433 145 436Q149 439 156 449Q167 464 176 469Q185 474 197 474Q216 474 229.5 461.5Q243 449 243 432Q243 408 226.5 391.5Q210 375 182 373Q137 373 107 408Q77 443 77 496Q77 539 96 582.5Q115 626 149 659Q182 690 224 706Q266 722 316 722Q349 722 399.5 716.5Q450 711 562 694Q658 679 697.5 674.5Q737 670 760 670Q793 670 812 687.5Q831 705 831 732Q831 737 830.5 740.5Q830 744 828 747H825Q820 733 809.5 725Q799 717 785 717Q765 717 752 729.5Q739 742 739 760Q739 778 754 792.5Q769 807 790 807Q823 807 846 779Q869 751 869 712Q869 642 814.5 595Q760 548 682 548Q661 548 637 549Q613 550 586 551L456 109Q449 83 455.5 67Q462 51 484 43ZM616 42Q616 61 627.5 95.5Q639 130 670 211L687 255Q712 320 725 360Q738 400 738 414Q738 423 733.5 428Q729 433 721 433Q706 433 687 421Q668 409 650 387L627 404Q657 454 705.5 484Q754 514 804 514Q838 514 860.5 490.5Q883 467 883 430Q883 412 873.5 376.5Q864 341 830 244L786 120Q781 105 779.5 99.5Q778 94 778 91Q778 88 780 86.5Q782 85 785 85Q794 85 819.5 101Q845 117 860 133L883 110Q852 62 789 23.5Q726 -15 675 -15Q647 -15 631.5 0Q616 15 616 42Z" glyph-name="T_i" horiz-adv-x="901" /><glyph d="M484 43 516 32 506 0H171L181 32L209 43Q238 55 253.5 70.5Q269 86 276 109L344 332H254L273 391H362L413 560Q327 564 300.5 565Q274 566 255 566Q195 566 158.5 537.5Q122 509 122 463Q122 449 125.5 441Q129 433 136 433Q141 433 145 436Q149 439 156 449Q167 464 176 469Q185 474 197 474Q216 474 229.5 461.5Q243 449 243 432Q243 408 226.5 391.5Q210 375 182 373Q137 373 107 408Q77 443 77 496Q77 539 96 582.5Q115 626 149 659Q182 690 224 706Q266 722 316 722Q349 722 399.5 716.5Q450 711 562 694Q658 679 697.5 674.5Q737 670 760 670Q793 670 812 687.5Q831 705 831 732Q831 737 830.5 740.5Q830 744 828 747H825Q820 733 809.5 725Q799 717 785 717Q765 717 752 729.5Q739 742 739 760Q739 778 754 792.5Q769 807 790 807Q823 807 846 779Q869 751 869 712Q869 642 814.5 595Q760 548 682 548Q661 548 637 549Q613 550 586 551L539 391H635L616 332H522L456 109Q449 83 455.5 67Q462 51 484 43Z" glyph-name="Tbar" horiz-adv-x="733" unicode="&#358;" /><glyph d="M484 43 516 32 506 0H171L181 32L209 43Q238 55 253.5 70.5Q269 86 276 109L413 560Q327 564 300.5 565Q274 566 255 566Q195 566 158.5 537.5Q122 509 122 463Q122 449 125.5 441Q129 433 136 433Q141 433 145 436Q149 439 156 449Q167 464 176 469Q185 474 197 474Q216 474 229.5 461.5Q243 449 243 432Q243 408 226.5 391.5Q210 375 182 373Q137 373 107 408Q77 443 77 496Q77 539 96 582.5Q115 626 149 659Q182 690 224 706Q266 722 316 722Q349 722 399.5 716.5Q450 711 562 694Q658 679 697.5 674.5Q737 670 760 670Q793 670 812 687.5Q831 705 831 732Q831 737 830.5 740.5Q830 744 828 747H825Q820 733 809.5 725Q799 717 785 717Q765 717 752 729.5Q739 742 739 760Q739 778 754 792.5Q769 807 790 807Q823 807 846 779Q869 751 869 712Q869 642 814.5 595Q760 548 682 548Q661 548 637 549Q613 550 586 551L456 109Q449 83 455.5 67Q462 51 484 43ZM509 765 440 920H508L579 868L680 920H748L589 765Z" glyph-name="Tcaron" horiz-adv-x="733" unicode="&#356;" /><glyph d="M420 -144Q420 -192 379 -222Q338 -252 273 -252Q251 -252 229.5 -248Q208 -244 187 -237L179 -192Q190 -194 203.5 -195.5Q217 -197 230 -197Q262 -197 280.5 -184.5Q299 -172 299 -150Q299 -128 277.5 -115Q256 -102 219 -101L221 -79L321 0H171L181 32L209 43Q238 55 253.5 70.5Q269 86 276 109L413 560Q327 564 300.5 565Q274 566 255 566Q195 566 158.5 537.5Q122 509 122 463Q122 449 125.5 441Q129 433 136 433Q141 433 145 436Q149 439 156 449Q167 464 176 469Q185 474 197 474Q216 474 229.5 461.5Q243 449 243 432Q243 408 226.5 391.5Q210 375 182 373Q137 373 107 408Q77 443 77 496Q77 539 96 582.5Q115 626 149 659Q182 690 224 706Q266 722 316 722Q349 722 399.5 716.5Q450 711 562 694Q658 679 697.5 674.5Q737 670 760 670Q793 670 812 687.5Q831 705 831 732Q831 737 830.5 740.5Q830 744 828 747H825Q820 733 809.5 725Q799 717 785 717Q765 717 752 729.5Q739 742 739 760Q739 778 754 792.5Q769 807 790 807Q823 807 846 779Q869 751 869 712Q869 642 814.5 595Q760 548 682 548Q661 548 637 549Q613 550 586 551L456 109Q449 83 455.5 67Q462 51 484 43L516 32L506 0H378L334 -48Q367 -55 393.5 -82Q420 -109 420 -144Z" glyph-name="Tcedilla" horiz-adv-x="733" /><glyph d="M484 43 516 32 506 0H171L181 32L209 43Q238 55 253.5 70.5Q269 86 276 109L413 560Q327 564 300.5 565Q274 566 255 566Q195 566 158.5 537.5Q122 509 122 463Q122 449 125.5 441Q129 433 136 433Q141 433 145 436Q149 439 156 449Q167 464 176 469Q185 474 197 474Q216 474 229.5 461.5Q243 449 243 432Q243 408 226.5 391.5Q210 375 182 373Q137 373 107 408Q77 443 77 496Q77 539 96 582.5Q115 626 149 659Q182 690 224 706Q266 722 316 722Q349 722 399.5 716.5Q450 711 562 694Q658 679 697.5 674.5Q737 670 760 670Q793 670 812 687.5Q831 705 831 732Q831 737 830.5 740.5Q830 744 828 747H825Q820 733 809.5 725Q799 717 785 717Q765 717 752 729.5Q739 742 739 760Q739 778 754 792.5Q769 807 790 807Q823 807 846 779Q869 751 869 712Q869 642 814.5 595Q760 548 682 548Q661 548 637 549Q613 550 586 551L456 109Q449 83 455.5 67Q462 51 484 43ZM419 -122Q419 -172 370.5 -229Q322 -286 235 -339L209 -312Q256 -256 277.5 -220.5Q299 -185 299 -163Q299 -146 289.5 -137.5Q280 -129 262 -129Q260 -129 254 -130Q248 -131 239 -132L251 -86Q273 -70 296.5 -61Q320 -52 341 -52Q377 -52 398 -70.5Q419 -89 419 -122Z" glyph-name="Tcommaaccent" horiz-adv-x="733" unicode="&#354;" /><glyph d="M371 515H360L243 109Q236 83 243 67Q250 51 272 43L307 32L297 0H-35L-26 32L2 44Q30 55 43 69.5Q56 84 63 109L202 591Q209 617 202 633Q195 649 173 657L138 668L148 700H480L471 668L442 658Q417 649 403.5 634Q390 619 382 591L370 552H434Q544 552 606 503.5Q668 455 668 374Q668 322 645.5 275Q623 228 580 192Q540 157 489 137Q438 117 390 117Q349 117 324 135.5Q299 154 299 183Q299 203 313.5 218Q328 233 348 233Q368 233 381.5 219.5Q395 206 395 186Q395 183 393.5 173Q392 163 391 155L393 154Q428 180 454 257Q480 334 480 406Q480 461 453 488Q426 515 371 515Z" glyph-name="Thorn" horiz-adv-x="655" unicode="&#222;" /><glyph d="M775 591 668 231Q634 116 550 50.5Q466 -15 348 -15Q280 -15 228.5 2Q177 19 143 53Q105 91 93 145.5Q81 200 97 258L191 591Q198 618 193 631.5Q188 645 167 656L147 668L156 700H469L459 668L433 656Q405 645 391.5 631Q378 617 370 591L260 207Q242 144 281.5 101Q321 58 390 58Q473 58 531.5 109.5Q590 161 620 261L718 591Q725 617 720 631Q715 645 694 656L673 668L682 700H875L865 668L837 656Q810 645 796.5 631Q783 617 775 591Z" glyph-name="U" horiz-adv-x="753" unicode="U" /><glyph d="M775 591 668 231Q634 116 550 50.5Q466 -15 348 -15Q280 -15 228.5 2Q177 19 143 53Q105 91 93 145.5Q81 200 97 258L191 591Q198 618 193 631.5Q188 645 167 656L147 668L156 700H469L459 668L433 656Q405 645 391.5 631Q378 617 370 591L260 207Q242 144 281.5 101Q321 58 390 58Q473 58 531.5 109.5Q590 161 620 261L718 591Q725 617 720 631Q715 645 694 656L673 668L682 700H875L865 668L837 656Q810 645 796.5 631Q783 617 775 591ZM543 765H495L566 920H739Z" glyph-name="Uacute" horiz-adv-x="753" unicode="&#218;" /><glyph d="M775 591 668 231Q634 116 550 50.5Q466 -15 348 -15Q280 -15 228.5 2Q177 19 143 53Q105 91 93 145.5Q81 200 97 258L191 591Q198 618 193 631.5Q188 645 167 656L147 668L156 700H469L459 668L433 656Q405 645 391.5 631Q378 617 370 591L260 207Q242 144 281.5 101Q321 58 390 58Q473 58 531.5 109.5Q590 161 620 261L718 591Q725 617 720 631Q715 645 694 656L673 668L682 700H875L865 668L837 656Q810 645 796.5 631Q783 617 775 591ZM533 764Q460 764 424.5 806.5Q389 849 405 911L411 937H466L465 931Q460 896 478 882.5Q496 869 538 869Q579 869 605 884.5Q631 900 643 931L645 937H701L693 898Q680 836 638 800Q596 764 533 764Z" glyph-name="Ubreve" horiz-adv-x="753" unicode="&#364;" /><glyph d="M775 591 668 231Q634 116 550 50.5Q466 -15 348 -15Q280 -15 228.5 2Q177 19 143 53Q105 91 93 145.5Q81 200 97 258L191 591Q198 618 193 631.5Q188 645 167 656L147 668L156 700H469L459 668L433 656Q405 645 391.5 631Q378 617 370 591L260 207Q242 144 281.5 101Q321 58 390 58Q473 58 531.5 109.5Q590 161 620 261L718 591Q725 617 720 631Q715 645 694 656L673 668L682 700H875L865 668L837 656Q810 645 796.5 631Q783 617 775 591ZM438 765H369L529 920H609L678 765H610L539 817Z" glyph-name="Ucircumflex" horiz-adv-x="753" unicode="&#219;" /><glyph d="M775 591 668 231Q634 116 550 50.5Q466 -15 348 -15Q280 -15 228.5 2Q177 19 143 53Q105 91 93 145.5Q81 200 97 258L191 591Q198 618 193 631.5Q188 645 167 656L147 668L156 700H469L459 668L433 656Q405 645 391.5 631Q378 617 370 591L260 207Q242 144 281.5 101Q321 58 390 58Q473 58 531.5 109.5Q590 161 620 261L718 591Q725 617 720 631Q715 645 694 656L673 668L682 700H875L865 668L837 656Q810 645 796.5 631Q783 617 775 591ZM696 842Q696 814 675.5 793Q655 772 626 772Q597 772 577.5 792.5Q558 813 558 842Q558 872 577.5 892.5Q597 913 626 913Q655 913 675.5 892Q696 871 696 842ZM519 842Q519 813 498.5 792.5Q478 772 450 772Q422 772 401.5 792.5Q381 813 381 842Q381 871 401.5 892Q422 913 450 913Q478 913 498.5 892Q519 871 519 842Z" glyph-name="Udieresis" horiz-adv-x="753" unicode="&#220;" /><glyph d="M775 591 668 231Q634 116 550 50.5Q466 -15 348 -15Q280 -15 228.5 2Q177 19 143 53Q105 91 93 145.5Q81 200 97 258L191 591Q198 618 193 631.5Q188 645 167 656L147 668L156 700H469L459 668L433 656Q405 645 391.5 631Q378 617 370 591L260 207Q242 144 281.5 101Q321 58 390 58Q473 58 531.5 109.5Q590 161 620 261L718 591Q725 617 720 631Q715 645 694 656L673 668L682 700H875L865 668L837 656Q810 645 796.5 631Q783 617 775 591ZM552 765H503L342 920H493Z" glyph-name="Ugrave" horiz-adv-x="753" unicode="&#217;" /><glyph d="M775 591 668 231Q634 116 550 50.5Q466 -15 348 -15Q280 -15 228.5 2Q177 19 143 53Q105 91 93 145.5Q81 200 97 258L191 591Q198 618 193 631.5Q188 645 167 656L147 668L156 700H469L459 668L433 656Q405 645 391.5 631Q378 617 370 591L260 207Q242 144 281.5 101Q321 58 390 58Q473 58 531.5 109.5Q590 161 620 261L718 591Q725 617 720 631Q715 645 694 656L673 668L682 700H875L865 668L837 656Q810 645 796.5 631Q783 617 775 591ZM641 765H593L664 920H837ZM437 765H389L460 920H633Z" glyph-name="Uhungarumlaut" horiz-adv-x="753" unicode="&#368;" /><glyph d="M775 591 668 231Q634 116 550 50.5Q466 -15 348 -15Q280 -15 228.5 2Q177 19 143 53Q105 91 93 145.5Q81 200 97 258L191 591Q198 618 193 631.5Q188 645 167 656L147 668L156 700H469L459 668L433 656Q405 645 391.5 631Q378 617 370 591L260 207Q242 144 281.5 101Q321 58 390 58Q473 58 531.5 109.5Q590 161 620 261L718 591Q725 617 720 631Q715 645 694 656L673 668L682 700H875L865 668L837 656Q810 645 796.5 631Q783 617 775 591ZM673 779H384L408 863H697Z" glyph-name="Umacron" horiz-adv-x="753" unicode="&#362;" /><glyph d="M349 -226Q312 -226 286.5 -205Q261 -184 261 -152Q261 -121 286 -87.5Q311 -54 363 -15Q359 -15 355.5 -15Q352 -15 348 -15Q280 -15 228.5 2Q177 19 143 53Q105 91 93 145.5Q81 200 97 258L191 591Q198 618 193 631.5Q188 645 167 656L147 668L156 700H469L459 668L433 656Q405 645 391.5 631Q378 617 370 591L260 207Q242 144 281.5 101Q321 58 390 58Q473 58 531.5 109.5Q590 161 620 261L718 591Q725 617 720 631Q715 645 694 656L673 668L682 700H875L865 668L837 656Q810 645 796.5 631Q783 617 775 591L668 231Q640 136 576.5 73.5Q513 11 424 -7Q393 -66 384 -90Q375 -114 375 -130Q375 -148 391 -158Q407 -168 436 -168Q438 -168 441 -168.5Q444 -169 451 -168L426 -211Q404 -218 385 -222Q366 -226 349 -226Z" glyph-name="Uogonek" horiz-adv-x="752" unicode="&#370;" /><glyph d="M775 591 668 231Q634 116 550 50.5Q466 -15 348 -15Q280 -15 228.5 2Q177 19 143 53Q105 91 93 145.5Q81 200 97 258L191 591Q198 618 193 631.5Q188 645 167 656L147 668L156 700H469L459 668L433 656Q405 645 391.5 631Q378 617 370 591L260 207Q242 144 281.5 101Q321 58 390 58Q473 58 531.5 109.5Q590 161 620 261L718 591Q725 617 720 631Q715 645 694 656L673 668L682 700H875L865 668L837 656Q810 645 796.5 631Q783 617 775 591ZM650 855Q650 805 615 770.5Q580 736 530 736Q480 736 445.5 770.5Q411 805 411 855Q411 904 446 938.5Q481 973 530 973Q579 973 614.5 938Q650 903 650 855ZM468 855Q468 828 486.5 809Q505 790 530 790Q556 790 574.5 809Q593 828 593 855Q593 882 574 901.5Q555 921 530 921Q505 921 486.5 901.5Q468 882 468 855Z" glyph-name="Uring" horiz-adv-x="753" unicode="&#366;" /><glyph d="M775 591 668 231Q634 116 550 50.5Q466 -15 348 -15Q280 -15 228.5 2Q177 19 143 53Q105 91 93 145.5Q81 200 97 258L191 591Q198 618 193 631.5Q188 645 167 656L147 668L156 700H469L459 668L433 656Q405 645 391.5 631Q378 617 370 591L260 207Q242 144 281.5 101Q321 58 390 58Q473 58 531.5 109.5Q590 161 620 261L718 591Q725 617 720 631Q715 645 694 656L673 668L682 700H875L865 668L837 656Q810 645 796.5 631Q783 617 775 591ZM460 798Q444 798 431.5 790.5Q419 783 406 765L368 779Q391 842 422.5 873.5Q454 905 497 905Q510 905 526.5 901Q543 897 575 885Q601 876 612 873Q623 870 631 870Q647 870 659.5 877.5Q672 885 684 902L722 889Q700 826 668 794Q636 762 593 762Q580 762 563 766Q546 770 514 783Q489 792 478.5 795Q468 798 460 798Z" glyph-name="Utilde" horiz-adv-x="753" unicode="&#360;" /><glyph d="M670 540 292 0H151L171 598Q172 622 165 637Q158 652 143 660L129 668L138 700H452L442 668L414 659Q382 650 368 635.5Q354 621 352 593L325 117H327L596 534Q637 596 637 620.5Q637 645 595 658L561 668L571 700H830L821 668L792 657Q757 644 735 622.5Q713 601 670 540Z" glyph-name="V" horiz-adv-x="673" unicode="V" /><glyph d="M1006 541 701 0H574L559 419H557L301 0H172L169 600Q170 622 163 636.5Q156 651 140 658L119 668L129 700H438L429 668L394 659Q373 653 360.5 635Q348 617 349 593L347 183H349L552 503L542 700H721L745 183H747L925 525Q944 563 950.5 577Q957 591 960 600Q968 624 959.5 637Q951 650 922 658L891 668L901 700H1159L1149 668L1120 658Q1081 643 1059 619Q1037 595 1006 541Z" glyph-name="W" horiz-adv-x="1013" unicode="W" /><glyph d="M1006 541 701 0H574L559 419H557L301 0H172L169 600Q170 622 163 636.5Q156 651 140 658L119 668L129 700H438L429 668L394 659Q373 653 360.5 635Q348 617 349 593L347 183H349L552 503L542 700H721L745 183H747L925 525Q944 563 950.5 577Q957 591 960 600Q968 624 959.5 637Q951 650 922 658L891 668L901 700H1159L1149 668L1120 658Q1081 643 1059 619Q1037 595 1006 541ZM647 765H599L670 920H843Z" glyph-name="Wacute" horiz-adv-x="1013" unicode="&#7810;" /><glyph d="M1006 541 701 0H574L559 419H557L301 0H172L169 600Q170 622 163 636.5Q156 651 140 658L119 668L129 700H438L429 668L394 659Q373 653 360.5 635Q348 617 349 593L347 183H349L552 503L542 700H721L745 183H747L925 525Q944 563 950.5 577Q957 591 960 600Q968 624 959.5 637Q951 650 922 658L891 668L901 700H1159L1149 668L1120 658Q1081 643 1059 619Q1037 595 1006 541ZM543 765H474L634 920H714L783 765H715L644 817Z" glyph-name="Wcircumflex" horiz-adv-x="1013" unicode="&#372;" /><glyph d="M1006 541 701 0H574L559 419H557L301 0H172L169 600Q170 622 163 636.5Q156 651 140 658L119 668L129 700H438L429 668L394 659Q373 653 360.5 635Q348 617 349 593L347 183H349L552 503L542 700H721L745 183H747L925 525Q944 563 950.5 577Q957 591 960 600Q968 624 959.5 637Q951 650 922 658L891 668L901 700H1159L1149 668L1120 658Q1081 643 1059 619Q1037 595 1006 541ZM800 842Q800 814 779.5 793Q759 772 730 772Q701 772 681.5 792.5Q662 813 662 842Q662 872 681.5 892.5Q701 913 730 913Q759 913 779.5 892Q800 871 800 842ZM623 842Q623 813 602.5 792.5Q582 772 554 772Q526 772 505.5 792.5Q485 813 485 842Q485 871 505.5 892Q526 913 554 913Q582 913 602.5 892Q623 871 623 842Z" glyph-name="Wdieresis" horiz-adv-x="1013" unicode="&#7812;" /><glyph d="M1006 541 701 0H574L559 419H557L301 0H172L169 600Q170 622 163 636.5Q156 651 140 658L119 668L129 700H438L429 668L394 659Q373 653 360.5 635Q348 617 349 593L347 183H349L552 503L542 700H721L745 183H747L925 525Q944 563 950.5 577Q957 591 960 600Q968 624 959.5 637Q951 650 922 658L891 668L901 700H1159L1149 668L1120 658Q1081 643 1059 619Q1037 595 1006 541ZM657 765H608L447 920H598Z" glyph-name="Wgrave" horiz-adv-x="1013" unicode="&#7808;" /><glyph d="M164 0H-82L-72 32L-42 40Q-19 46 3.5 60.5Q26 75 50 100L277 331L201 591Q192 619 178.5 635.5Q165 652 145 658L113 668L122 700H368L434 444L577 605Q594 624 591 639Q588 654 567 659L529 668L538 700H775L765 668L738 658Q717 651 698 637.5Q679 624 652 598L448 399L537 102Q545 76 555 62Q565 48 579 44L617 32L607 0H370L292 287L126 92Q110 72 110.5 59.5Q111 47 127 43L174 32Z" glyph-name="X" horiz-adv-x="650" unicode="X" /><glyph d="M472 0H110L120 33L158 45Q184 53 199.5 66.5Q215 80 225 109L236 142Q258 205 273.5 292.5Q289 380 289 445Q289 524 271 561.5Q253 599 217 599Q190 599 167 575.5Q144 552 125 507L87 513Q104 608 167.5 668Q231 728 313 728Q385 728 421.5 676.5Q458 625 458 524Q458 479 452 429.5Q446 380 435 328H443Q510 521 582.5 617Q655 713 734 713Q775 713 798.5 692.5Q822 672 822 640Q822 619 806 601Q790 583 768 583Q751 583 738.5 595Q726 607 726 623Q726 635 731.5 645Q737 655 749 663L747 665Q742 664 737.5 663Q733 662 725 659Q689 645 636.5 581Q584 517 533 423Q497 356 466.5 283.5Q436 211 414 138L405 107Q400 83 408 67Q416 51 437 45L481 33Z" glyph-name="Y" horiz-adv-x="688" unicode="Y" /><glyph d="M422 43 447 32 437 0H105L115 32L146 43Q173 53 188.5 68.5Q204 84 211 109L258 274L183 600Q176 628 165 643.5Q154 659 138 662L106 668L115 700H461L452 668L420 657Q394 648 382 631.5Q370 615 374 592L422 331H423L614 592Q634 619 631.5 634Q629 649 604 656L561 668L570 700H814L805 668L778 659Q758 652 741 638.5Q724 625 703 600L439 275L391 109Q384 85 391.5 69Q399 53 422 43Z" glyph-name="Y.alt" horiz-adv-x="682" /><glyph d="M472 0H110L120 33L158 45Q184 53 199.5 66.5Q215 80 225 109L236 142Q258 205 273.5 292.5Q289 380 289 445Q289 524 271 561.5Q253 599 217 599Q190 599 167 575.5Q144 552 125 507L87 513Q104 608 167.5 668Q231 728 313 728Q385 728 421.5 676.5Q458 625 458 524Q458 479 452 429.5Q446 380 435 328H443Q510 521 582.5 617Q655 713 734 713Q775 713 798.5 692.5Q822 672 822 640Q822 619 806 601Q790 583 768 583Q751 583 738.5 595Q726 607 726 623Q726 635 731.5 645Q737 655 749 663L747 665Q742 664 737.5 663Q733 662 725 659Q689 645 636.5 581Q584 517 533 423Q497 356 466.5 283.5Q436 211 414 138L405 107Q400 83 408 67Q416 51 437 45L481 33ZM515 765H467L538 920H711Z" glyph-name="Yacute" horiz-adv-x="688" unicode="&#221;" /><glyph d="M472 0H110L120 33L158 45Q184 53 199.5 66.5Q215 80 225 109L236 142Q258 205 273.5 292.5Q289 380 289 445Q289 524 271 561.5Q253 599 217 599Q190 599 167 575.5Q144 552 125 507L87 513Q104 608 167.5 668Q231 728 313 728Q385 728 421.5 676.5Q458 625 458 524Q458 479 452 429.5Q446 380 435 328H443Q510 521 582.5 617Q655 713 734 713Q775 713 798.5 692.5Q822 672 822 640Q822 619 806 601Q790 583 768 583Q751 583 738.5 595Q726 607 726 623Q726 635 731.5 645Q737 655 749 663L747 665Q742 664 737.5 663Q733 662 725 659Q689 645 636.5 581Q584 517 533 423Q497 356 466.5 283.5Q436 211 414 138L405 107Q400 83 408 67Q416 51 437 45L481 33ZM411 765H342L502 920H582L651 765H583L512 817Z" glyph-name="Ycircumflex" horiz-adv-x="688" unicode="&#374;" /><glyph d="M472 0H110L120 33L158 45Q184 53 199.5 66.5Q215 80 225 109L236 142Q258 205 273.5 292.5Q289 380 289 445Q289 524 271 561.5Q253 599 217 599Q190 599 167 575.5Q144 552 125 507L87 513Q104 608 167.5 668Q231 728 313 728Q385 728 421.5 676.5Q458 625 458 524Q458 479 452 429.5Q446 380 435 328H443Q510 521 582.5 617Q655 713 734 713Q775 713 798.5 692.5Q822 672 822 640Q822 619 806 601Q790 583 768 583Q751 583 738.5 595Q726 607 726 623Q726 635 731.5 645Q737 655 749 663L747 665Q742 664 737.5 663Q733 662 725 659Q689 645 636.5 581Q584 517 533 423Q497 356 466.5 283.5Q436 211 414 138L405 107Q400 83 408 67Q416 51 437 45L481 33ZM668 842Q668 814 647.5 793Q627 772 598 772Q569 772 549.5 792.5Q530 813 530 842Q530 872 549.5 892.5Q569 913 598 913Q627 913 647.5 892Q668 871 668 842ZM491 842Q491 813 470.5 792.5Q450 772 422 772Q394 772 373.5 792.5Q353 813 353 842Q353 871 373.5 892Q394 913 422 913Q450 913 470.5 892Q491 871 491 842Z" glyph-name="Ydieresis" horiz-adv-x="688" unicode="&#376;" /><glyph d="M472 0H110L120 33L158 45Q184 53 199.5 66.5Q215 80 225 109L236 142Q258 205 273.5 292.5Q289 380 289 445Q289 524 271 561.5Q253 599 217 599Q190 599 167 575.5Q144 552 125 507L87 513Q104 608 167.5 668Q231 728 313 728Q385 728 421.5 676.5Q458 625 458 524Q458 479 452 429.5Q446 380 435 328H443Q510 521 582.5 617Q655 713 734 713Q775 713 798.5 692.5Q822 672 822 640Q822 619 806 601Q790 583 768 583Q751 583 738.5 595Q726 607 726 623Q726 635 731.5 645Q737 655 749 663L747 665Q742 664 737.5 663Q733 662 725 659Q689 645 636.5 581Q584 517 533 423Q497 356 466.5 283.5Q436 211 414 138L405 107Q400 83 408 67Q416 51 437 45L481 33ZM525 765H476L315 920H466Z" glyph-name="Ygrave" horiz-adv-x="688" unicode="&#7922;" /><glyph d="M-40 32 510 664 333 660Q290 659 256.5 634Q223 609 164 533L149 517H115L167 708Q217 704 271.5 702Q326 700 384 700H740L730 668L183 41L351 40Q413 40 459 69Q505 98 565 185L599 236H635L557 0H-50Z" glyph-name="Z" horiz-adv-x="655" unicode="Z" /><glyph d="M-40 32 510 664 333 660Q290 659 256.5 634Q223 609 164 533L149 517H115L167 708Q217 704 271.5 702Q326 700 384 700H740L730 668L183 41L351 40Q413 40 459 69Q505 98 565 185L599 236H635L557 0H-50ZM460 765H412L483 920H656Z" glyph-name="Zacute" horiz-adv-x="655" unicode="&#377;" /><glyph d="M-40 32 510 664 333 660Q290 659 256.5 634Q223 609 164 533L149 517H115L167 708Q217 704 271.5 702Q326 700 384 700H740L730 668L183 41L351 40Q413 40 459 69Q505 98 565 185L599 236H635L557 0H-50ZM401 765 332 920H400L471 868L572 920H640L481 765Z" glyph-name="Zcaron" horiz-adv-x="655" unicode="&#381;" /><glyph d="M-40 32 510 664 333 660Q290 659 256.5 634Q223 609 164 533L149 517H115L167 708Q217 704 271.5 702Q326 700 384 700H740L730 668L183 41L351 40Q413 40 459 69Q505 98 565 185L599 236H635L557 0H-50ZM549 846Q549 812 524 787Q499 762 464 762Q430 762 405 787Q380 812 380 846Q380 881 405 906Q430 931 464 931Q499 931 524 906Q549 881 549 846Z" glyph-name="Zdotaccent" horiz-adv-x="655" unicode="&#379;" /><glyph d="M380 -15Q350 -15 330.5 5Q311 25 311 56Q311 82 316.5 115.5Q322 149 334 191L330 193Q273 93 211 39Q149 -15 92 -15Q48 -15 23.5 17Q-1 49 -1 102Q-1 159 22.5 231Q46 303 85 362Q130 429 187.5 464.5Q245 500 311 500Q343 500 380 491Q417 482 450 466L522 495H560L502 275Q486 216 476 169Q466 122 466 110Q466 99 469.5 94Q473 89 481 89Q492 89 507.5 99Q523 109 547 133L570 110Q532 55 480.5 20Q429 -15 380 -15ZM159 110Q159 98 161.5 92.5Q164 87 170 87Q195 87 250.5 154.5Q306 222 372 336L393 425Q377 441 359.5 449.5Q342 458 325 458Q296 458 263.5 415Q231 372 199 291Q180 239 169.5 192.5Q159 146 159 110Z" glyph-name="a" horiz-adv-x="584" unicode="a" /><glyph d="M380 -15Q350 -15 330.5 5Q311 25 311 56Q311 82 316.5 115.5Q322 149 334 191L330 193Q273 93 211 39Q149 -15 92 -15Q48 -15 23.5 17Q-1 49 -1 102Q-1 159 22.5 231Q46 303 85 362Q130 429 187.5 464.5Q245 500 311 500Q343 500 380 491Q417 482 450 466L522 495H560L502 275Q486 216 476 169Q466 122 466 110Q466 99 469.5 94Q473 89 481 89Q492 89 507.5 99Q523 109 547 133L570 110Q532 55 480.5 20Q429 -15 380 -15ZM159 110Q159 98 161.5 92.5Q164 87 170 87Q195 87 250.5 154.5Q306 222 372 336L393 425Q377 441 359.5 449.5Q342 458 325 458Q296 458 263.5 415Q231 372 199 291Q180 239 169.5 192.5Q159 146 159 110ZM369 575H321L392 730H565Z" glyph-name="aacute" horiz-adv-x="584" unicode="&#225;" /><glyph d="M380 -15Q350 -15 330.5 5Q311 25 311 56Q311 82 316.5 115.5Q322 149 334 191L330 193Q273 93 211 39Q149 -15 92 -15Q48 -15 23.5 17Q-1 49 -1 102Q-1 159 22.5 231Q46 303 85 362Q130 429 187.5 464.5Q245 500 311 500Q343 500 380 491Q417 482 450 466L522 495H560L502 275Q486 216 476 169Q466 122 466 110Q466 99 469.5 94Q473 89 481 89Q492 89 507.5 99Q523 109 547 133L570 110Q532 55 480.5 20Q429 -15 380 -15ZM159 110Q159 98 161.5 92.5Q164 87 170 87Q195 87 250.5 154.5Q306 222 372 336L393 425Q377 441 359.5 449.5Q342 458 325 458Q296 458 263.5 415Q231 372 199 291Q180 239 169.5 192.5Q159 146 159 110ZM359 574Q286 574 250.5 616.5Q215 659 231 721L237 747H292L291 741Q286 706 304 692.5Q322 679 364 679Q405 679 431 694.5Q457 710 469 741L471 747H527L519 708Q506 646 464 610Q422 574 359 574Z" glyph-name="abreve" horiz-adv-x="584" unicode="&#259;" /><glyph d="M380 -15Q350 -15 330.5 5Q311 25 311 56Q311 82 316.5 115.5Q322 149 334 191L330 193Q273 93 211 39Q149 -15 92 -15Q48 -15 23.5 17Q-1 49 -1 102Q-1 159 22.5 231Q46 303 85 362Q130 429 187.5 464.5Q245 500 311 500Q343 500 380 491Q417 482 450 466L522 495H560L502 275Q486 216 476 169Q466 122 466 110Q466 99 469.5 94Q473 89 481 89Q492 89 507.5 99Q523 109 547 133L570 110Q532 55 480.5 20Q429 -15 380 -15ZM159 110Q159 98 161.5 92.5Q164 87 170 87Q195 87 250.5 154.5Q306 222 372 336L393 425Q377 441 359.5 449.5Q342 458 325 458Q296 458 263.5 415Q231 372 199 291Q180 239 169.5 192.5Q159 146 159 110ZM264 575H195L355 730H435L504 575H436L365 627Z" glyph-name="acircumflex" horiz-adv-x="584" unicode="&#226;" /><glyph d="M239 547H191L262 702H435Z" glyph-name="acute" horiz-adv-x="331" unicode="&#180;" /><glyph d="M380 -15Q350 -15 330.5 5Q311 25 311 56Q311 82 316.5 115.5Q322 149 334 191L330 193Q273 93 211 39Q149 -15 92 -15Q48 -15 23.5 17Q-1 49 -1 102Q-1 159 22.5 231Q46 303 85 362Q130 429 187.5 464.5Q245 500 311 500Q343 500 380 491Q417 482 450 466L522 495H560L502 275Q486 216 476 169Q466 122 466 110Q466 99 469.5 94Q473 89 481 89Q492 89 507.5 99Q523 109 547 133L570 110Q532 55 480.5 20Q429 -15 380 -15ZM159 110Q159 98 161.5 92.5Q164 87 170 87Q195 87 250.5 154.5Q306 222 372 336L393 425Q377 441 359.5 449.5Q342 458 325 458Q296 458 263.5 415Q231 372 199 291Q180 239 169.5 192.5Q159 146 159 110ZM522 652Q522 624 501.5 603Q481 582 452 582Q423 582 403.5 602.5Q384 623 384 652Q384 682 403.5 702.5Q423 723 452 723Q481 723 501.5 702Q522 681 522 652ZM345 652Q345 623 324.5 602.5Q304 582 276 582Q248 582 227.5 602.5Q207 623 207 652Q207 681 227.5 702Q248 723 276 723Q304 723 324.5 702Q345 681 345 652Z" glyph-name="adieresis" horiz-adv-x="584" unicode="&#228;" /><glyph d="M494 302H508Q572 302 620.5 338Q669 374 669 424Q669 446 657 459Q645 472 624 472Q589 472 552 423Q515 374 494 302ZM160 110Q160 98 162.5 92.5Q165 87 170 87Q189 87 233.5 124Q278 161 319 216Q327 263 348.5 310.5Q370 358 403 398V399Q388 425 367 442.5Q346 460 329 460Q297 460 261 409Q225 358 192 266Q177 222 168.5 181.5Q160 141 160 110ZM674 157 704 134Q672 64 614 24.5Q556 -15 487 -15Q420 -15 373.5 27.5Q327 70 317 140H311Q256 66 197.5 25.5Q139 -15 89 -15Q46 -15 22.5 14Q-1 43 -1 90Q-1 151 22.5 224Q46 297 85 357Q131 426 190 462.5Q249 499 316 499Q357 499 394.5 490.5Q432 482 472 464Q506 489 543.5 501.5Q581 514 620 514Q672 514 704 486.5Q736 459 736 417Q736 353 679.5 308Q623 263 533 263Q522 263 510 264Q498 265 485 266Q482 250 480 233Q478 216 478 199Q479 147 502 118Q525 89 562 89Q594 89 620 105Q646 121 674 157Z" glyph-name="ae" horiz-adv-x="739" unicode="&#230;" /><glyph d="M380 -15Q350 -15 330.5 5Q311 25 311 56Q311 82 316.5 115.5Q322 149 334 191L330 193Q273 93 211 39Q149 -15 92 -15Q48 -15 23.5 17Q-1 49 -1 102Q-1 159 22.5 231Q46 303 85 362Q130 429 187.5 464.5Q245 500 311 500Q343 500 380 491Q417 482 450 466L522 495H560L502 275Q486 216 476 169Q466 122 466 110Q466 99 469.5 94Q473 89 481 89Q492 89 507.5 99Q523 109 547 133L570 110Q532 55 480.5 20Q429 -15 380 -15ZM159 110Q159 98 161.5 92.5Q164 87 170 87Q195 87 250.5 154.5Q306 222 372 336L393 425Q377 441 359.5 449.5Q342 458 325 458Q296 458 263.5 415Q231 372 199 291Q180 239 169.5 192.5Q159 146 159 110ZM378 575H329L168 730H319Z" glyph-name="agrave" horiz-adv-x="584" unicode="&#224;" /><glyph d="M380 -15Q350 -15 330.5 5Q311 25 311 56Q311 82 316.5 115.5Q322 149 334 191L330 193Q273 93 211 39Q149 -15 92 -15Q48 -15 23.5 17Q-1 49 -1 102Q-1 159 22.5 231Q46 303 85 362Q130 429 187.5 464.5Q245 500 311 500Q343 500 380 491Q417 482 450 466L522 495H560L502 275Q486 216 476 169Q466 122 466 110Q466 99 469.5 94Q473 89 481 89Q492 89 507.5 99Q523 109 547 133L570 110Q532 55 480.5 20Q429 -15 380 -15ZM159 110Q159 98 161.5 92.5Q164 87 170 87Q195 87 250.5 154.5Q306 222 372 336L393 425Q377 441 359.5 449.5Q342 458 325 458Q296 458 263.5 415Q231 372 199 291Q180 239 169.5 192.5Q159 146 159 110ZM499 589H210L234 673H523Z" glyph-name="amacron" horiz-adv-x="584" unicode="&#257;" /><glyph d="M353 -77Q217 -77 123.5 0.5Q30 78 30 188Q30 291 104 359.5Q178 428 278 430V432Q240 452 217 489Q194 526 194 568Q194 646 254 699Q314 752 404 752Q486 752 536 712Q586 672 586 610Q586 557 552 523.5Q518 490 470 490Q455 490 443.5 491.5Q432 493 421 497L430 535Q437 533 441.5 532.5Q446 532 451 532Q478 532 493.5 549.5Q509 567 509 594Q509 622 486 640Q463 658 425 658Q375 658 340.5 618.5Q306 579 306 527Q306 491 327.5 463.5Q349 436 383 426L360 386H344Q273 386 225.5 339Q178 292 178 225Q178 146 245.5 97.5Q313 49 417 49Q531 49 603 107Q675 165 675 252Q675 311 638.5 347Q602 383 554 383Q502 383 465.5 349.5Q429 316 429 266Q429 226 454 201Q479 176 515 176Q540 176 557 187.5Q574 199 574 218Q574 220 572.5 222Q571 224 569 225Q566 225 562 224Q558 223 551 221Q542 218 537 217Q532 216 527 216Q503 216 489 230.5Q475 245 475 270Q475 295 492.5 312Q510 329 537 330Q569 330 592.5 304.5Q616 279 617 241Q616 197 584 168.5Q552 140 506 140Q451 140 412.5 178Q374 216 374 276Q374 352 434.5 405.5Q495 459 600 459Q604 459 611 459Q618 459 634 458Q666 456 684.5 455.5Q703 455 720 455Q815 455 861 486Q907 517 907 579Q907 617 881 641.5Q855 666 820 666Q794 666 772 653.5Q750 641 750 627Q750 619 756 612.5Q762 606 774 602Q803 591 813 577.5Q823 564 823 544Q823 521 803.5 502.5Q784 484 756 484Q721 484 699 511Q677 538 677 578Q677 628 719.5 666.5Q762 705 825 705Q885 705 926.5 664Q968 623 968 557Q968 468 900.5 399.5Q833 331 731 331Q726 331 724 331Q722 331 720 330L721 327Q727 310 730.5 289Q734 268 734 243Q734 103 627 13Q520 -77 353 -77Z" glyph-name="ampersand" horiz-adv-x="900" unicode="&amp;" /><glyph d="M379 -226Q342 -226 316.5 -205Q291 -184 291 -152Q291 -122 315.5 -88.5Q340 -55 394 -14Q391 -15 388.5 -15Q386 -15 380 -15Q350 -15 330.5 5Q311 25 311 56Q311 82 316.5 115.5Q322 149 334 191L330 193Q273 93 211 39Q149 -15 92 -15Q48 -15 23.5 17Q-1 49 -1 102Q-1 159 22.5 231Q46 303 85 362Q130 429 187.5 464.5Q245 500 311 500Q343 500 380 491Q417 482 450 466L522 495H560L502 275Q486 216 476 169Q466 122 466 110Q466 99 469.5 94Q473 89 481 89Q492 89 507.5 99Q523 109 547 133L570 110Q548 79 520 52.5Q492 26 463 9Q426 -58 415.5 -85Q405 -112 405 -130Q405 -148 421 -158Q437 -168 466 -168Q468 -168 471 -168.5Q474 -169 481 -168L456 -211Q434 -218 415 -222Q396 -226 379 -226ZM159 110Q159 98 161.5 92.5Q164 87 170 87Q195 87 250.5 154.5Q306 222 372 336L393 425Q377 441 359.5 449.5Q342 458 325 458Q296 458 263.5 415Q231 372 199 291Q180 239 169.5 192.5Q159 146 159 110Z" glyph-name="aogonek" horiz-adv-x="584" unicode="&#261;" /><glyph d="M390 650Q390 599 341 541.5Q292 484 206 433L181 459Q227 514 249 550.5Q271 587 271 609Q271 626 262 634Q253 642 233 642Q229 642 221.5 641Q214 640 211 640L222 686Q245 702 268.5 711Q292 720 312 720Q348 720 369 701.5Q390 683 390 650Z" glyph-name="apostrophemod" horiz-adv-x="296" unicode="&#700;" /><glyph d="M395 368Q383 368 364.5 372Q346 376 303 389Q257 402 236 406.5Q215 411 200 411Q179 411 164 399Q149 387 138 362L85 374Q114 449 156.5 486.5Q199 524 256 524Q271 524 291 520Q311 516 352 503Q394 489 414.5 485Q435 481 451 481Q472 481 488 493.5Q504 506 515 530L566 518Q537 443 494.5 405.5Q452 368 395 368ZM342 160Q329 160 310.5 164Q292 168 249 181Q203 194 182.5 198.5Q162 203 147 203Q126 203 110.5 191Q95 179 85 154L32 166Q61 241 103.5 278.5Q146 316 203 316Q218 316 237.5 312Q257 308 298 295Q340 281 360.5 277Q381 273 398 273Q420 273 435.5 285Q451 297 461 321L513 310Q485 235 442.5 197.5Q400 160 342 160Z" glyph-name="approxequal" horiz-adv-x="540" unicode="&#8776;" /><glyph d="M380 -15Q350 -15 330.5 5Q311 25 311 56Q311 82 316.5 115.5Q322 149 334 191L330 193Q273 93 211 39Q149 -15 92 -15Q48 -15 23.5 17Q-1 49 -1 102Q-1 159 22.5 231Q46 303 85 362Q130 429 187.5 464.5Q245 500 311 500Q343 500 380 491Q417 482 450 466L522 495H560L502 275Q486 216 476 169Q466 122 466 110Q466 99 469.5 94Q473 89 481 89Q492 89 507.5 99Q523 109 547 133L570 110Q532 55 480.5 20Q429 -15 380 -15ZM159 110Q159 98 161.5 92.5Q164 87 170 87Q195 87 250.5 154.5Q306 222 372 336L393 425Q377 441 359.5 449.5Q342 458 325 458Q296 458 263.5 415Q231 372 199 291Q180 239 169.5 192.5Q159 146 159 110ZM477 665Q477 615 442 580.5Q407 546 357 546Q307 546 272.5 580.5Q238 615 238 665Q238 714 273 748.5Q308 783 357 783Q406 783 441.5 748Q477 713 477 665ZM295 665Q295 638 313.5 619Q332 600 357 600Q383 600 401.5 619Q420 638 420 665Q420 692 401 711.5Q382 731 357 731Q332 731 313.5 711.5Q295 692 295 665Z" glyph-name="aring" horiz-adv-x="584" unicode="&#229;" /><glyph d="M681 349 397 32 113 349 149 389 352 254 346 702H448L443 254L646 389Z" glyph-name="arrowdown" horiz-adv-x="735" unicode="&#8595;" /><glyph d="M588 109 162 86 185 512 239 515 288 275 600 596 672 524 351 212 591 163Z" glyph-name="arrowdownleft" horiz-adv-x="735" unicode="&#8601;" /><glyph d="M558 515 612 512 635 86 209 109 206 163 446 212 125 524 197 596 509 275Z" glyph-name="arrowdownright" horiz-adv-x="735" unicode="&#8600;" /><glyph d="M158 344 122 384 406 702 690 384 655 344 452 480 457 32H355L361 480Z" glyph-name="arrowup" horiz-adv-x="735" unicode="&#8593;" /><glyph d="M231 167 177 170 154 596 580 573 583 519 343 470 664 158 592 86 280 407Z" glyph-name="arrowupleft" horiz-adv-x="735" unicode="&#8598;" /><glyph d="M201 573 627 596 604 170 550 167 501 407 189 86 117 158 438 470 198 519Z" glyph-name="arrowupright" horiz-adv-x="735" unicode="&#8599;" /><glyph d="M124 345H65L354 715H440L537 345H473L364 557Z" glyph-name="asciicircum" horiz-adv-x="540" unicode="^" /><glyph d="M366 264Q353 264 334.5 268Q316 272 273 285Q228 299 207.5 303.5Q187 308 173 308Q151 308 135.5 295.5Q120 283 110 259L58 271Q87 346 128.5 383Q170 420 228 420Q243 420 262.5 416Q282 412 323 399Q365 385 385.5 381Q406 377 422 377Q444 377 460 389Q476 401 486 426L537 414Q509 339 466.5 301.5Q424 264 366 264Z" glyph-name="asciitilde" horiz-adv-x="540" unicode="~" /><glyph d="M488 340 364 255 323 442 177 281 111 392 290 485 123 547 213 673 321 534 344 732 473 714 375 530 560 626 569 486 374 471Z" glyph-name="asterisk" horiz-adv-x="536" unicode="*" /><glyph d="M436 -187Q352 -187 281 -161Q210 -135 157 -85Q101 -33 71 38Q41 109 41 187Q41 281 75.5 369Q110 457 172 524Q237 592 322 628.5Q407 665 504 665Q575 665 640.5 640Q706 615 755 569Q806 522 832.5 459Q859 396 859 322Q859 203 792 112Q725 21 631 21Q573 21 547 68Q521 115 538 198H535Q501 126 438 73.5Q375 21 324 21Q287 21 266.5 47Q246 73 246 117Q246 167 267 229Q288 291 323 341Q363 397 414 427Q465 457 522 458Q549 457 568 452.5Q587 448 621 435L692 460H729L710 399Q684 311 670 229.5Q656 148 656 99Q656 87 662 80.5Q668 74 679 74Q693 74 723 105.5Q753 137 774 180Q789 213 797 248.5Q805 284 805 322Q805 446 726.5 527.5Q648 609 523 609Q445 609 375 573.5Q305 538 253 473Q204 413 178 337.5Q152 262 152 182Q152 113 172 57Q192 1 231 -41Q272 -84 330 -108Q388 -132 447 -132Q497 -132 551 -115Q605 -98 652 -67L680 -98Q649 -131 574.5 -159Q500 -187 436 -187ZM377 124Q377 117 378 113.5Q379 110 381 110Q414 110 455.5 148.5Q497 187 545 263L575 384Q572 400 559.5 412.5Q547 425 533 426Q506 425 477.5 390.5Q449 356 423 295Q403 249 390 200.5Q377 152 377 124Z" glyph-name="at" horiz-adv-x="893" unicode="@" /><glyph d="M476 -73Q392 -73 321 -47Q250 -21 197 29Q141 81 111 152Q81 223 81 301Q81 395 115.5 483Q150 571 212 638Q277 706 362 742.5Q447 779 544 779Q615 779 680.5 754Q746 729 795 683Q846 636 872.5 573Q899 510 899 436Q899 317 832 226Q765 135 671 135Q613 135 587 182Q561 229 578 312H575Q541 240 478 187.5Q415 135 364 135Q327 135 306.5 161Q286 187 286 231Q286 281 307 343Q328 405 363 455Q403 511 454 541Q505 571 562 572Q589 571 608 566.5Q627 562 661 549L732 574H769L750 513Q724 425 710 343.5Q696 262 696 213Q696 201 702 194.5Q708 188 719 188Q733 188 763 219.5Q793 251 814 294Q829 327 837 362.5Q845 398 845 436Q845 560 766.5 641.5Q688 723 563 723Q485 723 415 687.5Q345 652 293 587Q244 527 218 451.5Q192 376 192 296Q192 227 212 171Q232 115 271 73Q312 30 370 6Q428 -18 487 -18Q537 -18 591 -1Q645 16 692 47L720 16Q689 -17 614.5 -45Q540 -73 476 -73ZM417 238Q417 231 418 227.5Q419 224 421 224Q454 224 495.5 262.5Q537 301 585 377L615 498Q612 514 599.5 526.5Q587 539 573 540Q546 539 517.5 504.5Q489 470 463 409Q443 363 430 314.5Q417 266 417 238Z" glyph-name="at.case" horiz-adv-x="896" /><glyph d="M380 -15Q350 -15 330.5 5Q311 25 311 56Q311 82 316.5 115.5Q322 149 334 191L330 193Q273 93 211 39Q149 -15 92 -15Q48 -15 23.5 17Q-1 49 -1 102Q-1 159 22.5 231Q46 303 85 362Q130 429 187.5 464.5Q245 500 311 500Q343 500 380 491Q417 482 450 466L522 495H560L502 275Q486 216 476 169Q466 122 466 110Q466 99 469.5 94Q473 89 481 89Q492 89 507.5 99Q523 109 547 133L570 110Q532 55 480.5 20Q429 -15 380 -15ZM159 110Q159 98 161.5 92.5Q164 87 170 87Q195 87 250.5 154.5Q306 222 372 336L393 425Q377 441 359.5 449.5Q342 458 325 458Q296 458 263.5 415Q231 372 199 291Q180 239 169.5 192.5Q159 146 159 110ZM286 608Q270 608 257.5 600.5Q245 593 232 575L194 589Q217 652 248.5 683.5Q280 715 323 715Q336 715 352.5 711Q369 707 401 695Q427 686 438 683Q449 680 457 680Q473 680 485.5 687.5Q498 695 510 712L548 699Q526 636 494 604Q462 572 419 572Q406 572 389 576Q372 580 340 593Q315 602 304.5 605Q294 608 286 608Z" glyph-name="atilde" horiz-adv-x="584" unicode="&#227;" /><glyph d="M424 132Q362 62 294.5 23.5Q227 -15 165 -15Q124 -15 94 -0.5Q64 14 49 42Q30 75 31 129Q32 183 52 250L173 659L105 675L114 704Q172 708 233 718Q294 728 349 744H354L220 324L224 321Q278 420 334.5 467Q391 514 457 514Q502 514 528 483.5Q554 453 554 404Q554 347 518.5 273Q483 199 424 132ZM144 43Q144 33 148.5 28Q153 23 162 23Q194 23 233.5 63Q273 103 312 175Q343 232 364.5 290Q386 348 387 381Q388 395 382.5 403Q377 411 365 411Q338 411 299.5 367.5Q261 324 221 250Q187 189 165.5 131Q144 73 144 43Z" glyph-name="b" horiz-adv-x="539" unicode="b" /><glyph d="M354 -65 298 -77 169 759 223 770Z" glyph-name="backslash" horiz-adv-x="467" unicode="\" /><glyph d="M61 -66H-4L234 789H299Z" glyph-name="bar" horiz-adv-x="230" unicode="|" /><glyph d="M201 -133 174 -184Q77 -184 30.5 -163Q-16 -142 -16 -96Q-16 -87 -14.5 -78Q-13 -69 -10 -59Q-5 -42 8 -14.5Q21 13 56 74Q93 141 104.5 167Q116 193 116 205Q116 223 103.5 233Q91 243 65 245L26 247L45 321L85 323Q135 325 153.5 352.5Q172 380 172 449Q172 456 172 465Q172 474 172 493Q171 513 171 522.5Q171 532 171 540Q171 619 187 655.5Q203 692 239 714Q271 733 318.5 742.5Q366 752 431 752L420 696L411 695Q384 691 370.5 680Q357 669 351 647Q349 639 346 621.5Q343 604 337 557Q327 491 322 462Q317 433 313 416Q296 362 254 328Q212 294 146 283V281Q193 271 217 243.5Q241 216 241 175Q241 155 229.5 114.5Q218 74 185 -17Q167 -65 162 -81Q157 -97 157 -102Q157 -114 165.5 -121Q174 -128 196 -132Z" glyph-name="braceleft" horiz-adv-x="336" unicode="{" /><glyph d="M227 -65 200 -116Q103 -116 56.5 -95Q10 -74 10 -28Q10 -19 11.5 -10Q13 -1 16 9Q21 26 34 53.5Q47 81 82 142Q119 209 130.5 235Q142 261 142 273Q142 291 129.5 301Q117 311 91 313L52 315L71 389L111 391Q161 393 179.5 420.5Q198 448 198 517Q198 524 198 533Q198 542 198 561Q197 581 197 590.5Q197 600 197 608Q197 687 213 723.5Q229 760 265 782Q297 801 344.5 810.5Q392 820 457 820L446 764L437 763Q410 759 396.5 748Q383 737 377 715Q375 707 372 689.5Q369 672 363 625Q353 559 348 530Q343 501 339 484Q322 430 280 396Q238 362 172 351V349Q219 339 243 311.5Q267 284 267 243Q267 223 255.5 182.5Q244 142 211 51Q193 3 188 -13Q183 -29 183 -34Q183 -46 191.5 -53Q200 -60 222 -64Z" glyph-name="braceleft.case" horiz-adv-x="350" /><glyph d="M118 -146Q86 -165 38.5 -174.5Q-9 -184 -74 -184L-63 -128L-55 -127Q-25 -122 -12 -111Q1 -100 6 -78Q8 -71 10.5 -54.5Q13 -38 20 8Q29 75 34 105Q39 135 44 152Q62 207 104 241Q146 275 211 285V287Q164 297 139.5 324.5Q115 352 115 393Q115 413 126.5 453.5Q138 494 171 585Q189 633 194 649Q199 665 199 670Q199 682 191 689Q183 696 160 700L156 701L183 752Q280 752 326.5 731Q373 710 373 664Q373 656 371.5 646Q370 636 367 627Q362 610 349 583Q336 556 302 495Q264 427 252.5 401Q241 375 241 363Q241 345 254 335Q267 325 292 324L331 321L311 248L272 245Q222 243 203.5 215.5Q185 188 185 119Q185 112 185 103Q185 94 185 75Q186 55 186 45.5Q186 36 186 28Q186 -51 170 -87.5Q154 -124 118 -146Z" glyph-name="braceright" horiz-adv-x="335" unicode="}" /><glyph d="M144 -78Q112 -97 64.5 -106.5Q17 -116 -48 -116L-37 -60L-29 -59Q1 -54 14 -43Q27 -32 32 -10Q34 -3 36.5 13.5Q39 30 46 76Q55 143 60 173Q65 203 70 220Q88 275 130 309Q172 343 237 353V355Q190 365 165.5 392.5Q141 420 141 461Q141 481 152.5 521.5Q164 562 197 653Q215 701 220 717Q225 733 225 738Q225 750 217 757Q209 764 186 768L182 769L209 820Q306 820 352.5 799Q399 778 399 732Q399 724 397.5 714Q396 704 393 695Q388 678 375 651Q362 624 328 563Q290 495 278.5 469Q267 443 267 431Q267 413 280 403Q293 393 318 392L357 389L337 316L298 313Q248 311 229.5 283.5Q211 256 211 187Q211 180 211 171Q211 162 211 143Q212 123 212 113.5Q212 104 212 96Q212 17 196 -19.5Q180 -56 144 -78Z" glyph-name="braceright.case" horiz-adv-x="349" /><glyph d="M197 -191H-40L220 737H459L440 678H284Q298 582 291.5 476.5Q285 371 258 273Q230 174 178.5 68.5Q127 -37 60 -132H215Z" glyph-name="bracketleft" horiz-adv-x="344" unicode="[" /><glyph d="M227 -121H-10L250 807H489L470 748H314Q328 652 321.5 546.5Q315 441 288 343Q260 244 208.5 138.5Q157 33 90 -62H245Z" glyph-name="bracketleft.case" horiz-adv-x="363" /><glyph d="M138 -191H-98L-80 -132H74Q60 -33 67 72Q74 177 101 273Q127 369 178.5 474Q230 579 299 678H144L162 737H399Z" glyph-name="bracketright" horiz-adv-x="344" unicode="]" /><glyph d="M167 -121H-69L-51 -62H103Q89 37 96 142Q103 247 130 343Q156 439 207.5 544Q259 649 328 748H173L191 807H428Z" glyph-name="bracketright.case" horiz-adv-x="363" /><glyph d="M358 556Q285 556 249.5 598.5Q214 641 230 703L236 729H291L290 723Q285 688 303 674.5Q321 661 363 661Q404 661 430 676.5Q456 692 468 723L470 729H526L518 690Q505 628 463 592Q421 556 358 556Z" glyph-name="breve" horiz-adv-x="446" unicode="&#728;" /><glyph d="M195 420H129L233 789H298ZM60 -66H-4L98 303H163Z" glyph-name="brokenbar" horiz-adv-x="228" unicode="&#166;" /><glyph d="M349 357Q347 302 311.5 265Q276 228 225 228Q174 228 139 265.5Q104 303 105 357Q104 411 139 448.5Q174 486 225 486Q276 486 311.5 449Q347 412 349 357Z" glyph-name="bullet" horiz-adv-x="391" unicode="&#8226;" /><glyph d="M177 199Q176 147 199 118Q222 89 260 89Q292 89 318 105Q344 121 372 157L402 134Q370 65 311.5 25Q253 -15 185 -15Q108 -15 60.5 35.5Q13 86 13 169Q13 224 37 286.5Q61 349 103 400Q148 455 203.5 484.5Q259 514 318 514Q386 514 427 480.5Q468 447 468 402Q468 370 450.5 350Q433 330 402 330Q381 330 366 345Q351 360 351 380Q351 384 351 388.5Q351 393 352 401Q353 412 353.5 418.5Q354 425 354 432Q354 451 346 461Q338 471 322 471Q293 471 265.5 441.5Q238 412 215 357Q198 317 187.5 273Q177 229 177 199Z" glyph-name="c" horiz-adv-x="445" unicode="c" /><glyph d="M832 700Q820 700 809 690Q798 680 794 667Q800 665 805.5 664.5Q811 664 819 664Q830 664 838.5 670.5Q847 677 847 685Q847 691 842.5 695.5Q838 700 832 700ZM733 133 755 110Q712 53 656.5 19Q601 -15 547 -15Q512 -15 492 3.5Q472 22 472 56Q472 72 478 99.5Q484 127 495 164L576 428H513L530 479H593Q619 550 630.5 583Q642 616 639 611Q614 614 513.5 619Q413 624 374 624Q343 624 326 606Q309 588 309 555Q309 544 310 533.5Q311 523 314 514H318Q386 514 427 480.5Q468 447 468 402Q468 370 450.5 350Q433 330 402 330Q381 330 366 345Q351 360 351 380Q351 384 351 388.5Q351 393 352 401Q353 412 353.5 418.5Q354 425 354 432Q354 451 346 461Q338 471 322 471Q293 471 265.5 441.5Q238 412 215 357Q198 317 187.5 273Q177 229 177 199Q176 147 199 118Q222 89 260 89Q292 89 318 105Q344 121 372 157L402 134Q370 65 311.5 25Q253 -15 185 -15Q108 -15 60.5 35.5Q13 86 13 169Q13 219 33 275Q53 331 88 380Q124 431 170.5 464Q217 497 268 508Q250 532 239 563.5Q228 595 228 624Q228 675 263.5 704.5Q299 734 354 734Q395 734 481.5 718Q568 702 668 677Q689 716 726 740Q763 764 807 764Q846 764 872 742Q898 720 898 689Q898 653 868 627.5Q838 602 796 602Q771 602 771 602Q771 602 771 602Q777 620 757 553Q737 486 734 479H843L826 428H718L660 233Q642 173 632 138Q622 103 622 95Q622 90 624.5 88Q627 86 632 86Q652 86 679 98.5Q706 111 733 133Z" glyph-name="c_t" horiz-adv-x="794" unicode="&#57345;" /><glyph d="M177 199Q176 147 199 118Q222 89 260 89Q292 89 318 105Q344 121 372 157L402 134Q370 65 311.5 25Q253 -15 185 -15Q108 -15 60.5 35.5Q13 86 13 169Q13 224 37 286.5Q61 349 103 400Q148 455 203.5 484.5Q259 514 318 514Q386 514 427 480.5Q468 447 468 402Q468 370 450.5 350Q433 330 402 330Q381 330 366 345Q351 360 351 380Q351 384 351 388.5Q351 393 352 401Q353 412 353.5 418.5Q354 425 354 432Q354 451 346 461Q338 471 322 471Q293 471 265.5 441.5Q238 412 215 357Q198 317 187.5 273Q177 229 177 199ZM350 575H302L373 730H546Z" glyph-name="cacute" horiz-adv-x="445" unicode="&#263;" /><glyph d="M302 547 233 702H301L372 650L473 702H541L382 547Z" glyph-name="caron" horiz-adv-x="464" unicode="&#711;" /><glyph d="M177 199Q176 147 199 118Q222 89 260 89Q292 89 318 105Q344 121 372 157L402 134Q370 65 311.5 25Q253 -15 185 -15Q108 -15 60.5 35.5Q13 86 13 169Q13 224 37 286.5Q61 349 103 400Q148 455 203.5 484.5Q259 514 318 514Q386 514 427 480.5Q468 447 468 402Q468 370 450.5 350Q433 330 402 330Q381 330 366 345Q351 360 351 380Q351 384 351 388.5Q351 393 352 401Q353 412 353.5 418.5Q354 425 354 432Q354 451 346 461Q338 471 322 471Q293 471 265.5 441.5Q238 412 215 357Q198 317 187.5 273Q177 229 177 199ZM291 575 222 730H290L361 678L462 730H530L371 575Z" glyph-name="ccaron" horiz-adv-x="445" unicode="&#269;" /><glyph d="M270 -144Q270 -192 229 -222Q188 -252 123 -252Q101 -252 79.5 -248Q58 -244 37 -237L29 -192Q40 -194 53.5 -195.5Q67 -197 80 -197Q112 -197 130.5 -184.5Q149 -172 149 -150Q149 -128 127.5 -115Q106 -102 69 -101L71 -79L155 -13Q90 -3 51.5 46Q13 95 13 169Q13 224 37 286.5Q61 349 103 400Q148 455 203.5 484.5Q259 514 318 514Q386 514 427 480.5Q468 447 468 402Q468 370 450.5 350Q433 330 402 330Q381 330 366 345Q351 360 351 380Q351 384 351 388.5Q351 393 352 401Q353 412 353.5 418.5Q354 425 354 432Q354 451 346 461Q338 471 322 471Q293 471 265.5 441.5Q238 412 215 357Q198 317 187.5 273Q177 229 177 199Q176 147 199 118Q222 89 260 89Q292 89 318 105Q344 121 372 157L402 134Q374 73 325 34.5Q276 -4 216 -13L184 -48Q217 -55 243.5 -82Q270 -109 270 -144Z" glyph-name="ccedilla" horiz-adv-x="445" unicode="&#231;" /><glyph d="M177 199Q176 147 199 118Q222 89 260 89Q292 89 318 105Q344 121 372 157L402 134Q370 65 311.5 25Q253 -15 185 -15Q108 -15 60.5 35.5Q13 86 13 169Q13 224 37 286.5Q61 349 103 400Q148 455 203.5 484.5Q259 514 318 514Q386 514 427 480.5Q468 447 468 402Q468 370 450.5 350Q433 330 402 330Q381 330 366 345Q351 360 351 380Q351 384 351 388.5Q351 393 352 401Q353 412 353.5 418.5Q354 425 354 432Q354 451 346 461Q338 471 322 471Q293 471 265.5 441.5Q238 412 215 357Q198 317 187.5 273Q177 229 177 199ZM245 575H176L336 730H416L485 575H417L346 627Z" glyph-name="ccircumflex" horiz-adv-x="445" unicode="&#265;" /><glyph d="M177 199Q176 147 199 118Q222 89 260 89Q292 89 318 105Q344 121 372 157L402 134Q370 65 311.5 25Q253 -15 185 -15Q108 -15 60.5 35.5Q13 86 13 169Q13 224 37 286.5Q61 349 103 400Q148 455 203.5 484.5Q259 514 318 514Q386 514 427 480.5Q468 447 468 402Q468 370 450.5 350Q433 330 402 330Q381 330 366 345Q351 360 351 380Q351 384 351 388.5Q351 393 352 401Q353 412 353.5 418.5Q354 425 354 432Q354 451 346 461Q338 471 322 471Q293 471 265.5 441.5Q238 412 215 357Q198 317 187.5 273Q177 229 177 199ZM439 656Q439 622 414 597Q389 572 354 572Q320 572 295 597Q270 622 270 656Q270 691 295 716Q320 741 354 741Q389 741 414 716Q439 691 439 656Z" glyph-name="cdotaccent" horiz-adv-x="445" unicode="&#267;" /><glyph d="M207 -144Q207 -192 166 -222Q125 -252 60 -252Q38 -252 16.5 -248Q-5 -244 -26 -237L-34 -192Q-23 -194 -9.5 -195.5Q4 -197 17 -197Q49 -197 67.5 -184.5Q86 -172 86 -150Q86 -128 64.5 -115Q43 -102 6 -101L8 -79L128 16L180 17L121 -48Q154 -55 180.5 -82Q207 -109 207 -144Z" glyph-name="cedilla" horiz-adv-x="353" unicode="&#184;" /><glyph d="M229 357Q212 317 201.5 273Q191 229 191 199Q191 178 194.5 160.5Q198 143 205 131L343 470Q342 471 340.5 471Q339 471 336 471Q307 471 279.5 441.5Q252 412 229 357ZM199 -15H197L161 -103H110L148 -8Q92 7 59.5 54.5Q27 102 27 169Q27 224 51 286.5Q75 349 117 400Q162 455 217.5 484.5Q273 514 332 514Q338 514 345 513.5Q352 513 360 512L386 575H437L407 501Q442 487 462 459Q482 431 482 402Q482 370 464.5 350Q447 330 416 330Q395 330 380 345Q365 360 365 380Q365 384 365.5 391Q366 398 366 401L242 96Q249 93 257 91Q265 89 274 89Q306 89 332 105Q358 121 386 157L416 134Q384 65 325.5 25Q267 -15 199 -15Z" glyph-name="cent" horiz-adv-x="491" unicode="&#162;" /><glyph d="M243 547H174L334 702H414L483 547H415L344 599Z" glyph-name="circumflex" horiz-adv-x="464" unicode="&#710;" /><glyph d="M268 394Q268 359 242.5 334Q217 309 181 309Q145 309 119 334Q93 359 93 394Q93 432 118.5 458Q144 484 181 484Q217 484 242.5 458Q268 432 268 394ZM187 73Q187 36 161.5 10.5Q136 -15 99 -15Q63 -15 37.5 10.5Q12 36 12 73Q12 109 37.5 135Q63 161 99 161Q135 161 161 135Q187 109 187 73Z" glyph-name="colon" horiz-adv-x="287" unicode=":" /><glyph d="M207 138Q207 81 146 13Q85 -55 -39 -136L-69 -110Q7 -36 41 14Q75 64 75 99Q75 116 65.5 124.5Q56 133 37 133Q34 133 26 132Q18 131 14 131L26 174Q49 190 75.5 199Q102 208 126 208Q163 208 185 189Q207 170 207 138Z" glyph-name="comma" horiz-adv-x="289" unicode="," /><glyph d="M165 -105Q165 -155 116.5 -212Q68 -269 -19 -322L-45 -295Q2 -239 23.5 -203.5Q45 -168 45 -146Q45 -129 35.5 -120.5Q26 -112 8 -112Q6 -112 0 -113Q-6 -114 -15 -115L-3 -69Q19 -53 42.5 -44Q66 -35 87 -35Q123 -35 144 -53.5Q165 -72 165 -105Z" glyph-name="commaaccent" horiz-adv-x="296" unicode="&#63171;" /><glyph d="M794 60Q735 4 659 -26.5Q583 -57 501 -57Q419 -57 343 -26.5Q267 4 208 60Q148 118 115.5 193Q83 268 83 349Q83 430 115.5 505Q148 580 208 638Q267 694 343 724.5Q419 755 501 755Q583 755 659 724.5Q735 694 794 638Q854 580 886.5 505Q919 430 919 349Q919 268 886.5 193Q854 118 794 60ZM166 349Q166 209 264 110.5Q362 12 501 12Q641 12 739 110.5Q837 209 837 349Q837 489 739 587.5Q641 686 501 686Q362 686 264 587.5Q166 489 166 349ZM503 110Q402 110 336 174Q270 238 270 345Q270 448 338.5 524.5Q407 601 510 601Q543 601 572 594.5Q601 588 625 575Q657 558 676.5 532.5Q696 507 696 485Q696 457 673 436Q650 415 620 415Q597 415 584 428Q571 441 561 482Q552 521 540.5 532.5Q529 544 510 544Q472 544 451 502Q430 460 430 392Q430 319 466 272Q502 225 560 225Q596 225 624 240.5Q652 256 677 291L710 263Q689 191 633.5 150.5Q578 110 503 110Z" glyph-name="copyright" horiz-adv-x="944" unicode="&#169;" /><glyph d="M644 47 610 20 538 118Q509 98 472.5 87Q436 76 397 76Q387 76 378 76.5Q369 77 360 79Q314 86 270 109.5Q226 133 199 167L104 93L79 128L178 201Q158 235 147.5 273.5Q137 312 137 350Q137 360 138 369Q139 378 140 386Q146 431 168.5 475Q191 519 226 554L151 651L184 678L256 580Q285 600 321.5 611Q358 622 396 622Q406 622 415.5 621Q425 620 434 619Q479 613 523.5 588.5Q568 564 595 531L690 605L715 570L617 497Q637 463 647.5 424.5Q658 386 658 348Q658 338 657.5 329Q657 320 655 312Q649 267 626.5 223Q604 179 568 144ZM179 345Q179 257 230.5 193.5Q282 130 366 118Q372 117 378.5 116.5Q385 116 398 116Q480 116 540.5 172.5Q601 229 613 318Q614 324 614.5 331.5Q615 339 615 354Q615 442 563.5 505Q512 568 428 580Q422 581 415.5 581.5Q409 582 396 582Q314 582 253.5 525.5Q193 469 181 380Q180 364 179.5 357.5Q179 351 179 345Z" glyph-name="currency" horiz-adv-x="737" unicode="&#164;" /><glyph d="M376 -15Q345 -15 326 5Q307 25 307 58Q307 83 312.5 115.5Q318 148 330 191L326 193Q268 94 206.5 39.5Q145 -15 89 -15Q48 -15 24 18Q0 51 0 102Q0 159 23 231Q46 303 84 361Q128 429 185 464.5Q242 500 308 500Q331 500 357 495.5Q383 491 409 482L455 658L374 675L383 704Q446 708 513.5 719Q581 730 632 744H637L500 275Q483 217 472.5 170Q462 123 462 110Q462 99 465.5 94Q469 89 476 89Q488 89 503 99Q518 109 543 133L566 110Q527 55 475.5 20Q424 -15 376 -15ZM159 110Q159 99 162 93Q165 87 170 87Q196 87 252 155Q308 223 370 336L393 421Q375 440 357.5 449Q340 458 322 458Q295 458 264.5 416.5Q234 375 200 291Q180 240 169.5 193Q159 146 159 110Z" glyph-name="d" horiz-adv-x="579" unicode="d" /><glyph d="M227 190H165L248 478H102L120 541H265L312 700H374L328 541H475L457 478H310Z" glyph-name="dagger" horiz-adv-x="429" unicode="&#8224;" /><glyph d="M236 190H173L215 336H70L88 399H233L259 491H113L132 554H278L319 700H382L341 554H487L468 491H322L297 399H443L424 336H278Z" glyph-name="daggerdbl" horiz-adv-x="445" unicode="&#8225;" /><glyph d="M376 -15Q345 -15 326 5Q307 25 307 58Q307 83 312.5 115.5Q318 148 330 191L326 193Q268 94 206.5 39.5Q145 -15 89 -15Q48 -15 24 18Q0 51 0 102Q0 159 23 231Q46 303 84 361Q128 429 185 464.5Q242 500 308 500Q331 500 357 495.5Q383 491 409 482L455 658L374 675L383 704Q446 708 513.5 719Q581 730 632 744H637L500 275Q483 217 472.5 170Q462 123 462 110Q462 99 465.5 94Q469 89 476 89Q488 89 503 99Q518 109 543 133L566 110Q527 55 475.5 20Q424 -15 376 -15ZM159 110Q159 99 162 93Q165 87 170 87Q196 87 252 155Q308 223 370 336L393 421Q375 440 357.5 449Q340 458 322 458Q295 458 264.5 416.5Q234 375 200 291Q180 240 169.5 193Q159 146 159 110ZM802 631Q802 580 753 522.5Q704 465 618 414L593 440Q639 495 661 531.5Q683 568 683 590Q683 607 674 615Q665 623 645 623Q641 623 633.5 622Q626 621 623 621L634 667Q657 683 680.5 692Q704 701 724 701Q760 701 781 682.5Q802 664 802 631Z" glyph-name="dcaron" horiz-adv-x="650" unicode="&#271;" /><glyph d="M376 -15Q345 -15 326 5Q307 25 307 58Q307 83 312.5 115.5Q318 148 330 191L326 193Q268 94 206.5 39.5Q145 -15 89 -15Q48 -15 24 18Q0 51 0 102Q0 159 23 231Q46 303 84 361Q128 429 185 464.5Q242 500 308 500Q331 500 357 495.5Q383 491 409 482L428 556H330L344 605H441L455 658L374 675L383 704Q446 708 513.5 719Q581 730 632 744H637L596 605H651L636 556H582L500 275Q483 217 472.5 170Q462 123 462 110Q462 99 465.5 94Q469 89 476 89Q488 89 503 99Q518 109 543 133L566 110Q527 55 475.5 20Q424 -15 376 -15ZM159 110Q159 99 162 93Q165 87 170 87Q196 87 252 155Q308 223 370 336L393 421Q375 440 357.5 449Q340 458 322 458Q295 458 264.5 416.5Q234 375 200 291Q180 240 169.5 193Q159 146 159 110Z" glyph-name="dcroat" horiz-adv-x="579" unicode="&#273;" /><glyph d="M427 560Q427 496 382.5 450.5Q338 405 275 405Q212 405 167 450.5Q122 496 122 560Q122 624 167 669.5Q212 715 275 715Q338 715 382.5 669.5Q427 624 427 560ZM185 560Q185 519 210.5 491.5Q236 464 274 464Q312 464 338 491.5Q364 519 364 560Q364 601 338 628.5Q312 656 274 656Q236 656 210.5 628.5Q185 601 185 560Z" glyph-name="degree" horiz-adv-x="378" unicode="&#176;" /><glyph d="M515 652Q515 624 494.5 603Q474 582 445 582Q416 582 396.5 602.5Q377 623 377 652Q377 682 396.5 702.5Q416 723 445 723Q474 723 494.5 702Q515 681 515 652ZM338 652Q338 623 317.5 602.5Q297 582 269 582Q241 582 220.5 602.5Q200 623 200 652Q200 681 220.5 702Q241 723 269 723Q297 723 317.5 702Q338 681 338 652Z" glyph-name="dieresis" horiz-adv-x="440" unicode="&#168;" /><glyph d="M435 522Q435 489 412.5 467Q390 445 357 445Q324 445 301.5 467Q279 489 279 522Q279 555 301.5 577.5Q324 600 357 600Q390 600 412.5 577.5Q435 555 435 522ZM491 327H93L111 389H510ZM333 192Q333 160 310 136.5Q287 113 255 113Q222 113 199.5 136Q177 159 177 192Q177 225 199.5 247.5Q222 270 255 270Q287 270 310 247Q333 224 333 192Z" glyph-name="divide" horiz-adv-x="540" unicode="&#247;" /><glyph d="M409 671Q365 671 331 643Q297 615 297 574Q297 548 311.5 523Q326 498 359 468L426 670Q423 671 419.5 671Q416 671 409 671ZM266 29H269Q322 29 354.5 59Q387 89 387 132Q387 157 374 181Q361 205 332 232ZM555 225Q555 123 469.5 54Q384 -15 258 -15Q256 -15 254.5 -15Q253 -15 251 -15L224 -97H173L201 -12Q156 -7 107.5 4Q59 15 20 30L84 239H127Q125 228 124.5 215Q124 202 124 178Q124 127 148.5 89.5Q173 52 217 37L293 266Q290 269 282.5 274.5Q275 280 271 283Q223 321 204 337.5Q185 354 171 370Q146 399 134 428Q122 457 122 489Q122 590 204.5 652.5Q287 715 418 715Q424 715 429.5 715Q435 715 440 715L465 789H516L490 711Q528 707 562.5 699.5Q597 692 617 684L548 521H508Q510 529 510.5 538.5Q511 548 511 564Q511 598 501.5 621Q492 644 472 656L399 435Q457 390 473.5 375Q490 360 502 347Q529 317 542 287Q555 257 555 225Z" glyph-name="dollar" horiz-adv-x="604" unicode="$" /><glyph d="M348 659Q348 625 323 600Q298 575 263 575Q229 575 204 600Q179 625 179 659Q179 694 204 719Q229 744 263 744Q298 744 323 719Q348 694 348 659Z" glyph-name="dotaccent" horiz-adv-x="285" unicode="&#729;" /><glyph d="M20 42Q20 61 31.5 95.5Q43 130 74 211L91 255Q116 320 129 360Q142 400 142 414Q142 423 137.5 428Q133 433 125 433Q110 433 91 421Q72 409 54 387L31 404Q61 454 109.5 484Q158 514 208 514Q242 514 264.5 490.5Q287 467 287 430Q287 412 277.5 376.5Q268 341 234 244L190 120Q185 105 183.5 99.5Q182 94 182 91Q182 88 184 86.5Q186 85 189 85Q198 85 223.5 101Q249 117 264 133L287 110Q256 62 193 23.5Q130 -15 79 -15Q51 -15 35.5 0Q20 15 20 42Z" glyph-name="dotlessi" horiz-adv-x="313" unicode="&#305;" /><glyph d="M-79 -245Q-67 -245 -52 -209.5Q-37 -174 -1 -57L88 234Q113 316 124 358.5Q135 401 135 424Q135 430 130 435Q125 440 117 440Q102 440 83 428.5Q64 417 46 395L23 410Q54 462 99 491.5Q144 521 193 521Q229 521 251.5 497Q274 473 274 431Q274 400 259 338Q244 276 215 184L166 35Q108 -143 44 -215.5Q-20 -288 -109 -288Q-160 -288 -189.5 -267.5Q-219 -247 -219 -213Q-219 -186 -203 -171Q-187 -156 -161 -156Q-144 -156 -131 -167.5Q-118 -179 -104 -212Q-95 -233 -90 -239Q-85 -245 -79 -245Z" glyph-name="dotlessj" horiz-adv-x="285" unicode="&#567;" /><glyph d="M192 302Q196 302 199.5 302Q203 302 206 302Q268 302 316 338Q364 374 364 424Q364 446 352 459Q340 472 319 472Q284 472 248 423.5Q212 375 192 302ZM372 157 402 134Q370 64 312 24.5Q254 -15 185 -15Q110 -15 62 36.5Q14 88 13 169Q13 226 37 287.5Q61 349 102 400Q147 455 202.5 484.5Q258 514 318 514Q370 514 402 486.5Q434 459 434 417Q434 353 377.5 308Q321 263 231 263Q220 263 208 264Q196 265 183 266Q180 250 178 233Q176 216 176 199Q177 147 200 118Q223 89 260 89Q292 89 318 105Q344 121 372 157Z" glyph-name="e" horiz-adv-x="437" unicode="e" /><glyph d="M192 302Q196 302 199.5 302Q203 302 206 302Q272 302 324.5 338.5Q377 375 377 424Q377 446 363.5 459Q350 472 327 472Q289 472 251 423.5Q213 375 192 302ZM372 157 402 134Q370 64 312 24.5Q254 -15 185 -15Q110 -15 62 36.5Q14 88 13 169Q13 226 37 287.5Q61 349 102 400Q147 455 202.5 484.5Q258 514 318 514Q370 514 402 486.5Q434 459 434 417Q434 369 397.5 332.5Q361 296 297 284Q299 284 301 284Q303 284 305 284Q511 284 627 353.5Q743 423 743 540Q743 566 730 581.5Q717 597 700 597Q690 597 681.5 592Q673 587 659 572Q646 558 638.5 553.5Q631 549 623 549Q602 549 588 563.5Q574 578 574 598Q574 624 595.5 641.5Q617 659 648 659Q713 659 760.5 605Q808 551 808 470Q808 352 715 281Q622 210 466 210Q402 210 331 223.5Q260 237 182 263Q179 247 177.5 230.5Q176 214 176 199Q177 147 200 118Q223 89 260 89Q292 89 318 105Q344 121 372 157Z" glyph-name="e.swash" horiz-adv-x="758" /><glyph d="M192 302Q196 302 199.5 302Q203 302 206 302Q268 302 316 338Q364 374 364 424Q364 446 352 459Q340 472 319 472Q284 472 248 423.5Q212 375 192 302ZM372 157 402 134Q370 64 312 24.5Q254 -15 185 -15Q110 -15 62 36.5Q14 88 13 169Q13 226 37 287.5Q61 349 102 400Q147 455 202.5 484.5Q258 514 318 514Q370 514 402 486.5Q434 459 434 417Q434 353 377.5 308Q321 263 231 263Q220 263 208 264Q196 265 183 266Q180 250 178 233Q176 216 176 199Q177 147 200 118Q223 89 260 89Q292 89 318 105Q344 121 372 157ZM332 580H284L355 735H528Z" glyph-name="eacute" horiz-adv-x="437" unicode="&#233;" /><glyph d="M192 302Q196 302 199.5 302Q203 302 206 302Q268 302 316 338Q364 374 364 424Q364 446 352 459Q340 472 319 472Q284 472 248 423.5Q212 375 192 302ZM372 157 402 134Q370 64 312 24.5Q254 -15 185 -15Q110 -15 62 36.5Q14 88 13 169Q13 226 37 287.5Q61 349 102 400Q147 455 202.5 484.5Q258 514 318 514Q370 514 402 486.5Q434 459 434 417Q434 353 377.5 308Q321 263 231 263Q220 263 208 264Q196 265 183 266Q180 250 178 233Q176 216 176 199Q177 147 200 118Q223 89 260 89Q292 89 318 105Q344 121 372 157ZM322 579Q249 579 213.5 621.5Q178 664 194 726L200 752H255L254 746Q249 711 267 697.5Q285 684 327 684Q368 684 394 699.5Q420 715 432 746L434 752H490L482 713Q469 651 427 615Q385 579 322 579Z" glyph-name="ebreve" horiz-adv-x="437" unicode="&#277;" /><glyph d="M192 302Q196 302 199.5 302Q203 302 206 302Q268 302 316 338Q364 374 364 424Q364 446 352 459Q340 472 319 472Q284 472 248 423.5Q212 375 192 302ZM372 157 402 134Q370 64 312 24.5Q254 -15 185 -15Q110 -15 62 36.5Q14 88 13 169Q13 226 37 287.5Q61 349 102 400Q147 455 202.5 484.5Q258 514 318 514Q370 514 402 486.5Q434 459 434 417Q434 353 377.5 308Q321 263 231 263Q220 263 208 264Q196 265 183 266Q180 250 178 233Q176 216 176 199Q177 147 200 118Q223 89 260 89Q292 89 318 105Q344 121 372 157ZM273 580 204 735H272L343 683L444 735H512L353 580Z" glyph-name="ecaron" horiz-adv-x="437" unicode="&#283;" /><glyph d="M192 302Q196 302 199.5 302Q203 302 206 302Q268 302 316 338Q364 374 364 424Q364 446 352 459Q340 472 319 472Q284 472 248 423.5Q212 375 192 302ZM372 157 402 134Q370 64 312 24.5Q254 -15 185 -15Q110 -15 62 36.5Q14 88 13 169Q13 226 37 287.5Q61 349 102 400Q147 455 202.5 484.5Q258 514 318 514Q370 514 402 486.5Q434 459 434 417Q434 353 377.5 308Q321 263 231 263Q220 263 208 264Q196 265 183 266Q180 250 178 233Q176 216 176 199Q177 147 200 118Q223 89 260 89Q292 89 318 105Q344 121 372 157ZM227 580H158L318 735H398L467 580H399L328 632Z" glyph-name="ecircumflex" horiz-adv-x="437" unicode="&#234;" /><glyph d="M192 302Q196 302 199.5 302Q203 302 206 302Q268 302 316 338Q364 374 364 424Q364 446 352 459Q340 472 319 472Q284 472 248 423.5Q212 375 192 302ZM372 157 402 134Q370 64 312 24.5Q254 -15 185 -15Q110 -15 62 36.5Q14 88 13 169Q13 226 37 287.5Q61 349 102 400Q147 455 202.5 484.5Q258 514 318 514Q370 514 402 486.5Q434 459 434 417Q434 353 377.5 308Q321 263 231 263Q220 263 208 264Q196 265 183 266Q180 250 178 233Q176 216 176 199Q177 147 200 118Q223 89 260 89Q292 89 318 105Q344 121 372 157ZM485 657Q485 629 464.5 608Q444 587 415 587Q386 587 366.5 607.5Q347 628 347 657Q347 687 366.5 707.5Q386 728 415 728Q444 728 464.5 707Q485 686 485 657ZM308 657Q308 628 287.5 607.5Q267 587 239 587Q211 587 190.5 607.5Q170 628 170 657Q170 686 190.5 707Q211 728 239 728Q267 728 287.5 707Q308 686 308 657Z" glyph-name="edieresis" horiz-adv-x="437" unicode="&#235;" /><glyph d="M192 302Q196 302 199.5 302Q203 302 206 302Q268 302 316 338Q364 374 364 424Q364 446 352 459Q340 472 319 472Q284 472 248 423.5Q212 375 192 302ZM372 157 402 134Q370 64 312 24.5Q254 -15 185 -15Q110 -15 62 36.5Q14 88 13 169Q13 226 37 287.5Q61 349 102 400Q147 455 202.5 484.5Q258 514 318 514Q370 514 402 486.5Q434 459 434 417Q434 353 377.5 308Q321 263 231 263Q220 263 208 264Q196 265 183 266Q180 250 178 233Q176 216 176 199Q177 147 200 118Q223 89 260 89Q292 89 318 105Q344 121 372 157ZM421 661Q421 627 396 602Q371 577 336 577Q302 577 277 602Q252 627 252 661Q252 696 277 721Q302 746 336 746Q371 746 396 721Q421 696 421 661Z" glyph-name="edotaccent" horiz-adv-x="437" unicode="&#279;" /><glyph d="M192 302Q196 302 199.5 302Q203 302 206 302Q268 302 316 338Q364 374 364 424Q364 446 352 459Q340 472 319 472Q284 472 248 423.5Q212 375 192 302ZM372 157 402 134Q370 64 312 24.5Q254 -15 185 -15Q110 -15 62 36.5Q14 88 13 169Q13 226 37 287.5Q61 349 102 400Q147 455 202.5 484.5Q258 514 318 514Q370 514 402 486.5Q434 459 434 417Q434 353 377.5 308Q321 263 231 263Q220 263 208 264Q196 265 183 266Q180 250 178 233Q176 216 176 199Q177 147 200 118Q223 89 260 89Q292 89 318 105Q344 121 372 157ZM341 580H292L131 735H282Z" glyph-name="egrave" horiz-adv-x="437" unicode="&#232;" /><glyph d="M561 205Q561 114 484 49.5Q407 -15 285 -15Q172 -15 100.5 39Q29 93 29 179Q29 246 80 293.5Q131 341 219 359Q181 388 157 432Q133 476 133 520Q133 607 203.5 661Q274 715 390 715Q480 715 541 670.5Q602 626 602 562Q602 504 554.5 462.5Q507 421 428 407L458 381Q514 335 537.5 293Q561 251 561 205ZM499 575Q499 616 472.5 643Q446 670 406 670Q365 670 337.5 642.5Q310 615 310 576Q310 547 324 520Q338 493 366 466L396 438Q451 470 475 503Q499 536 499 575ZM156 161Q156 107 192.5 69Q229 31 280 31Q330 31 361.5 61.5Q393 92 393 131Q393 166 372 201.5Q351 237 293 289L253 324Q209 298 182.5 254.5Q156 211 156 161Z" glyph-name="eight" horiz-adv-x="599" unicode="8" /><glyph d="M326 129Q326 73 276.5 32Q227 -9 151 -9Q88 -9 44.5 22Q1 53 1 103Q1 144 31 173Q61 202 113 213Q90 230 76.5 255Q63 280 63 307Q63 359 109.5 394Q156 429 227 429Q285 429 322.5 404Q360 379 360 340Q360 301 326 273Q292 245 252 243Q287 218 306.5 188.5Q326 159 326 129ZM293 344Q293 370 275 385.5Q257 401 229 401Q204 401 187 384.5Q170 368 170 345Q170 330 179.5 313.5Q189 297 207 282L232 261Q263 278 278 298.5Q293 319 293 344ZM80 97Q80 63 101 42Q122 21 154 21Q186 21 205 38.5Q224 56 224 80Q224 100 211.5 120Q199 140 159 174L136 194Q113 180 96.5 152.5Q80 125 80 97Z" glyph-name="eight.dnom" horiz-adv-x="400" /><glyph d="M408 415Q408 359 358.5 318Q309 277 233 277Q170 277 126.5 308Q83 339 83 389Q83 430 113 459Q143 488 195 499Q172 516 158.5 541Q145 566 145 593Q145 645 191.5 680Q238 715 309 715Q367 715 404.5 690Q442 665 442 626Q442 587 408 559Q374 531 334 529Q369 504 388.5 474.5Q408 445 408 415ZM375 630Q375 656 357 671.5Q339 687 311 687Q286 687 269 670.5Q252 654 252 631Q252 616 261.5 599.5Q271 583 289 568L314 547Q345 564 360 584.5Q375 605 375 630ZM162 383Q162 349 183 328Q204 307 236 307Q268 307 287 324.5Q306 342 306 366Q306 386 293.5 406Q281 426 241 460L218 480Q195 466 178.5 438.5Q162 411 162 383Z" glyph-name="eight.numr" horiz-adv-x="400" /><glyph d="M510 197Q510 109 438.5 48.5Q367 -12 249 -12Q165 -12 102 35Q39 82 39 158Q39 221 84.5 267.5Q130 314 204 329Q164 360 141 398.5Q118 437 118 476Q118 556 184 608Q250 660 354 660Q440 660 498 620Q556 580 556 520Q556 464 506 424Q456 384 391 377Q452 331 481 286.5Q510 242 510 197ZM456 530Q456 569 430.5 593.5Q405 618 366 618Q329 618 303 593.5Q277 569 277 532Q277 507 289.5 483.5Q302 460 328 437L363 405Q408 429 432 461Q456 493 456 530ZM151 152Q151 99 183 65Q215 31 263 31Q310 31 338 58.5Q366 86 366 125Q366 157 348.5 187.5Q331 218 277 266L238 300Q205 280 178 235Q151 190 151 152Z" glyph-name="eight.pnum" horiz-adv-x="566" /><glyph d="M559 205Q559 114 482 49.5Q405 -15 283 -15Q170 -15 98.5 39Q27 93 27 179Q27 246 78 293.5Q129 341 217 359Q179 388 155 432Q131 476 131 520Q131 607 201.5 661Q272 715 388 715Q478 715 539 670.5Q600 626 600 562Q600 504 552.5 462.5Q505 421 426 407L456 381Q512 335 535.5 293Q559 251 559 205ZM497 575Q497 616 470.5 643Q444 670 404 670Q363 670 335.5 642.5Q308 615 308 576Q308 547 322 520Q336 493 364 466L394 438Q449 470 473 503Q497 536 497 575ZM154 161Q154 107 190.5 69Q227 31 278 31Q328 31 359.5 61.5Q391 92 391 131Q391 166 370 201.5Q349 237 291 289L251 324Q207 298 180.5 254.5Q154 211 154 161Z" glyph-name="eight.tnum" horiz-adv-x="600" /><glyph d="M297 29Q297 -27 247.5 -68Q198 -109 122 -109Q59 -109 15.5 -78Q-28 -47 -28 3Q-28 44 2 73Q32 102 84 113Q61 130 47.5 155Q34 180 34 207Q34 259 80.5 294Q127 329 198 329Q256 329 293.5 304Q331 279 331 240Q331 201 297 173Q263 145 223 143Q258 118 277.5 88.5Q297 59 297 29ZM264 244Q264 270 246 285.5Q228 301 200 301Q175 301 158 284.5Q141 268 141 245Q141 230 150.5 213.5Q160 197 178 182L203 161Q234 178 249 198.5Q264 219 264 244ZM51 -3Q51 -37 72 -58Q93 -79 125 -79Q157 -79 176 -61.5Q195 -44 195 -20Q195 0 182.5 20Q170 40 130 74L107 94Q84 80 67.5 52.5Q51 25 51 -3Z" glyph-name="eightinferior" horiz-adv-x="400" unicode="&#8328;" /><glyph d="M437 515Q437 459 387.5 418Q338 377 262 377Q199 377 155.5 408Q112 439 112 489Q112 530 142 559Q172 588 224 599Q201 616 187.5 641Q174 666 174 693Q174 745 220.5 780Q267 815 338 815Q396 815 433.5 790Q471 765 471 726Q471 687 437 659Q403 631 363 629Q398 604 417.5 574.5Q437 545 437 515ZM404 730Q404 756 386 771.5Q368 787 340 787Q315 787 298 770.5Q281 754 281 731Q281 716 290.5 699.5Q300 683 318 668L343 647Q374 664 389 684.5Q404 705 404 730ZM191 483Q191 449 212 428Q233 407 265 407Q297 407 316 424.5Q335 442 335 466Q335 486 322.5 506Q310 526 270 560L247 580Q224 566 207.5 538.5Q191 511 191 483Z" glyph-name="eightsuperior" horiz-adv-x="400" unicode="&#8312;" /><glyph d="M792 73Q792 37 767 11Q742 -15 706 -15Q669 -15 643 10.5Q617 36 617 73Q617 109 643 135Q669 161 706 161Q741 161 766.5 135Q792 109 792 73ZM482 73Q482 36 457 10.5Q432 -15 396 -15Q358 -15 332 10.5Q306 36 306 73Q306 109 332.5 135Q359 161 396 161Q432 161 457 135Q482 109 482 73ZM172 73Q172 36 146.5 10.5Q121 -15 85 -15Q48 -15 22.5 10.5Q-3 36 -3 73Q-3 109 23 135Q49 161 85 161Q121 161 146.5 135Q172 109 172 73Z" glyph-name="ellipsis" horiz-adv-x="879" unicode="&#8230;" /><glyph d="M192 302Q196 302 199.5 302Q203 302 206 302Q268 302 316 338Q364 374 364 424Q364 446 352 459Q340 472 319 472Q284 472 248 423.5Q212 375 192 302ZM372 157 402 134Q370 64 312 24.5Q254 -15 185 -15Q110 -15 62 36.5Q14 88 13 169Q13 226 37 287.5Q61 349 102 400Q147 455 202.5 484.5Q258 514 318 514Q370 514 402 486.5Q434 459 434 417Q434 353 377.5 308Q321 263 231 263Q220 263 208 264Q196 265 183 266Q180 250 178 233Q176 216 176 199Q177 147 200 118Q223 89 260 89Q292 89 318 105Q344 121 372 157ZM462 594H173L197 678H486Z" glyph-name="emacron" horiz-adv-x="437" unicode="&#275;" /><glyph d="M962 251H65L84 315H980Z" glyph-name="emdash" horiz-adv-x="1027" unicode="&#8212;" /><glyph d="M985 317H88L107 381H1003Z" glyph-name="emdash.case" horiz-adv-x="1039" /><glyph d="M475 251H65L84 315H493Z" glyph-name="endash" horiz-adv-x="540" unicode="&#8211;" /><glyph d="M498 317H88L107 381H516Z" glyph-name="endash.case" horiz-adv-x="552" /><glyph d="M447 -2Q388 -137 305 -210Q222 -283 133 -283Q78 -283 41 -253Q4 -223 4 -178Q4 -143 25.5 -121Q47 -99 78 -99Q105 -99 126 -120Q147 -141 147 -171Q147 -188 138 -204.5Q129 -221 115 -232V-236Q116 -236 118 -236.5Q120 -237 122 -237Q157 -237 196.5 -196.5Q236 -156 262 -86Q298 11 322 77Q346 143 374 220L382 246Q407 316 414.5 343.5Q422 371 422 387Q422 401 415.5 407.5Q409 414 396 414Q375 414 335 362.5Q295 311 255 226Q233 178 212 121.5Q191 65 171 0L17 -3L72 172Q102 271 118.5 335Q135 399 135 418Q135 424 130 428.5Q125 433 117 433Q101 433 83 421.5Q65 410 46 387L22 404Q54 457 98 485.5Q142 514 191 514Q226 514 248 489Q270 464 270 421Q270 408 267 389Q264 370 255 336Q251 322 250 317Q249 312 249 310H256Q303 407 362 460.5Q421 514 482 514Q519 514 545.5 487.5Q572 461 572 420Q572 388 558.5 337.5Q545 287 508 180Q490 128 484.5 110.5Q479 93 479 90Q479 87 480.5 86Q482 85 485 85Q494 85 518 100.5Q542 116 559 133L582 110Q554 71 518.5 42Q483 13 447 -2Z" glyph-name="eng" horiz-adv-x="605" unicode="&#331;" /><glyph d="M192 302H206Q268 302 316 338Q364 374 364 424Q364 446 352 459Q340 472 319 472Q284 472 248 423.5Q212 375 192 302ZM307 -168 282 -211Q260 -218 241 -222Q222 -226 205 -226Q168 -226 142.5 -205Q117 -184 117 -152Q117 -121 143 -86Q169 -51 223 -12Q213 -14 203.5 -14.5Q194 -15 185 -15Q110 -15 62 36.5Q14 88 13 169Q13 226 37 287.5Q61 349 102 400Q147 455 202.5 484.5Q258 514 318 514Q370 514 402 486.5Q434 459 434 417Q434 353 377.5 308Q321 263 231 263Q220 263 208 264Q196 265 183 266Q180 250 178 233Q176 216 176 199Q177 147 200 118Q223 89 260 89Q292 89 318 105Q344 121 372 157L402 134Q383 93 354.5 61.5Q326 30 290 11Q251 -61 241 -87Q231 -113 231 -130Q231 -148 247 -158Q263 -168 292 -168Q294 -168 297 -168.5Q300 -169 307 -168Z" glyph-name="eogonek" horiz-adv-x="437" unicode="&#281;" /><glyph d="M509 424H118L135 488H526ZM466 227H75L92 291H483Z" glyph-name="equal" horiz-adv-x="540" unicode="=" /><glyph d="M471 -11Q396 -11 326.5 16Q257 43 203 92Q147 144 117 211.5Q87 279 87 353Q87 502 199 607Q311 712 471 712Q641 712 749.5 608Q858 504 858 344H240Q235 344 233 341.5Q231 339 231 332V160Q231 130 256 103Q281 76 327 55Q362 39 401.5 29.5Q441 20 471 20Q549 20 616.5 49Q684 78 730 131H775Q722 63 643 26Q564 -11 471 -11ZM240 375H704Q709 375 711 377Q713 379 713 384V552Q713 607 636 644.5Q559 682 471 682Q388 682 309.5 644Q231 606 231 552V384Q231 379 233 377Q235 375 240 375Z" glyph-name="estimated" horiz-adv-x="867" unicode="&#8494;" /><glyph d="M436 112Q396 52 338.5 18.5Q281 -15 218 -15Q135 -15 82.5 42Q30 99 30 177Q30 315 104.5 414.5Q179 514 291 514Q325 514 349 502.5Q373 491 387 468Q382 503 372.5 539.5Q363 576 350 615L217 579L219 618L337 650Q329 670 319.5 691Q310 712 298 735Q288 755 273 782.5Q258 810 255 817L288 832Q322 794 353 752.5Q384 711 409 669L528 701L526 662L428 636Q465 565 484 496.5Q503 428 503 364Q503 290 486 226.5Q469 163 436 112ZM179 108Q179 70 189.5 50.5Q200 31 222 31Q246 31 271 74.5Q296 118 319 196Q334 249 344 304Q354 359 354 391Q354 429 343.5 448.5Q333 468 312 468Q288 468 262.5 424.5Q237 381 214 304Q199 250 189 195Q179 140 179 108Z" glyph-name="eth" horiz-adv-x="533" unicode="&#240;" /><glyph d="M175 246 171 237 116 249 117 250Q124 288 129.5 340.5Q135 393 141 498Q144 549 145.5 570.5Q147 592 149 608Q155 657 184 686Q213 715 257 715Q311 715 339 682Q367 649 360 599Q356 573 337.5 534.5Q319 496 264 407Q223 339 204.5 305.5Q186 272 175 246ZM182 73Q182 37 156 11Q130 -15 94 -15Q57 -15 31.5 10.5Q6 36 6 73Q6 109 32 135Q58 161 94 161Q130 161 156 135Q182 109 182 73Z" glyph-name="exclam" horiz-adv-x="298" unicode="!" /><glyph d="M120 238 124 247 179 235 177 227Q168 189 162 137Q156 85 152 -20Q150 -67 149 -88Q148 -109 146 -124Q140 -173 111 -202Q82 -231 38 -231Q-16 -231 -44 -198Q-72 -165 -65 -115Q-61 -89 -42.5 -50.5Q-24 -12 31 77Q72 145 90.5 178.5Q109 212 120 238ZM113 411Q113 447 139 473Q165 499 201 499Q238 499 263.5 473.5Q289 448 289 411Q289 375 263 349Q237 323 201 323Q165 323 139 349Q113 375 113 411Z" glyph-name="exclamdown" horiz-adv-x="285" unicode="&#161;" /><glyph d="M195 454 199 463 254 451 252 443Q243 405 237 353Q231 301 227 196Q225 149 224 128Q223 107 221 92Q215 43 186 14Q157 -15 113 -15Q59 -15 31 18Q3 51 10 101Q14 127 32.5 165.5Q51 204 106 293Q147 361 165.5 394.5Q184 428 195 454ZM188 627Q188 663 214 689Q240 715 276 715Q313 715 338.5 689.5Q364 664 364 627Q364 591 338 565Q312 539 276 539Q240 539 214 565Q188 591 188 627Z" glyph-name="exclamdown.case" horiz-adv-x="313" /><glyph d="M-115 -294Q-166 -294 -195 -273.5Q-224 -253 -224 -220Q-224 -193 -208.5 -177.5Q-193 -162 -167 -162Q-149 -162 -136 -173.5Q-123 -185 -109 -219Q-100 -239 -95 -245Q-90 -251 -84 -251Q-69 -251 -50 -206Q-31 -161 -5 -64L132 430H60L72 479H147L162 520Q211 656 282 724.5Q353 793 446 793Q507 793 542 769.5Q577 746 577 709Q577 686 559.5 668.5Q542 651 518 651Q494 651 477.5 663Q461 675 445 711Q435 733 428.5 739.5Q422 746 414 746Q392 746 373.5 707.5Q355 669 324 558L302 479H388L377 430H289L168 35Q115 -135 46 -214.5Q-23 -294 -115 -294Z" glyph-name="f" horiz-adv-x="325" unicode="f" /><glyph d="M337 624 297 479H400L389 430H284L198 90Q168 -26 124 -107.5Q80 -189 25 -233Q-7 -258 -42.5 -270.5Q-78 -283 -117 -283Q-172 -283 -209 -253.5Q-246 -224 -246 -178Q-246 -144 -225 -121.5Q-204 -99 -173 -99Q-145 -99 -124 -120Q-103 -141 -103 -171Q-103 -187 -112.5 -204Q-122 -221 -136 -232V-236H-128Q-104 -236 -78.5 -219.5Q-53 -203 -33 -173Q-21 -151 -12 -129Q-3 -107 2 -84L131 430H49L61 479H146L158 518Q198 652 265 721Q332 790 421 790Q482 790 520.5 757.5Q559 725 559 674Q559 645 537 622.5Q515 600 487 600Q457 600 437 620Q417 640 417 671Q417 693 429 711Q441 729 460 735V738Q458 737 456.5 736.5Q455 736 452 736Q411 736 382 708Q353 680 337 624Z" glyph-name="f.alt" horiz-adv-x="344" /><glyph d="M210 -199H217Q244 -199 262 -186Q280 -173 293 -145Q299 -131 305 -112.5Q311 -94 323 -48L446 430H284L198 90Q186 45 172.5 5.5Q159 -34 144 -67Q151 -64 158.5 -62.5Q166 -61 174 -61Q201 -61 221.5 -82Q242 -103 242 -133Q242 -149 233 -166Q224 -183 210 -194ZM100 -147Q83 -174 64 -195.5Q45 -217 25 -233Q-7 -258 -42.5 -270.5Q-78 -283 -117 -283Q-172 -283 -209 -253.5Q-246 -224 -246 -178Q-246 -144 -225 -121.5Q-204 -99 -173 -99Q-145 -99 -124 -120Q-103 -141 -103 -171Q-103 -187 -112.5 -204Q-122 -221 -136 -232V-236H-128Q-104 -236 -78.5 -219.5Q-53 -203 -33 -173Q-21 -151 -12 -129Q-3 -107 2 -84L131 430H49L61 479H148L158 517Q194 645 273.5 717.5Q353 790 450 790Q466 790 479.5 788.5Q493 787 504 783L481 740Q477 741 472.5 740.5Q468 740 467 740Q417 740 379.5 694Q342 648 318 556L297 479H460L466 498Q505 635 582.5 712Q660 789 756 789Q822 789 866.5 764.5Q911 740 911 708Q911 685 893.5 668Q876 651 852 651Q833 651 817.5 663Q802 675 782 711Q769 733 763 739.5Q757 746 750 746Q716 746 683 693.5Q650 641 632 559L612 479H729L692 430H599L521 127Q497 37 476 -18Q455 -73 430 -114Q391 -181 339.5 -214.5Q288 -248 224 -250Q173 -250 138.5 -221Q104 -192 100 -147Z" glyph-name="f_f" horiz-adv-x="662" unicode="&#64256;" /><glyph d="M210 -199H217Q244 -199 262 -186Q280 -173 293 -145Q299 -131 305 -112.5Q311 -94 323 -48L446 430H284L198 90Q186 45 172.5 5.5Q159 -34 144 -67Q151 -64 158.5 -62.5Q166 -61 174 -61Q201 -61 221.5 -82Q242 -103 242 -133Q242 -149 233 -166Q224 -183 210 -194ZM100 -147Q83 -174 64 -195.5Q45 -217 25 -233Q-7 -258 -42.5 -270.5Q-78 -283 -117 -283Q-172 -283 -209 -253.5Q-246 -224 -246 -178Q-246 -144 -225 -121.5Q-204 -99 -173 -99Q-145 -99 -124 -120Q-103 -141 -103 -171Q-103 -187 -112.5 -204Q-122 -221 -136 -232V-236H-128Q-104 -236 -78.5 -219.5Q-53 -203 -33 -173Q-21 -151 -12 -129Q-3 -107 2 -84L131 430H49L61 479H148L158 517Q194 645 273.5 717.5Q353 790 450 790Q466 790 479.5 788.5Q493 787 504 783L481 740Q477 741 472.5 740.5Q468 740 467 740Q417 740 379.5 694Q342 648 318 556L297 479H460L466 498Q505 635 582.5 712Q660 789 756 789Q822 789 865.5 764.5Q909 740 909 708Q909 685 892.5 668Q876 651 852 651Q833 651 817.5 663Q802 675 782 711Q769 733 763 739.5Q757 746 750 746Q716 746 683 693.5Q650 641 632 559L612 479H718Q743 496 771 505Q799 514 825 514Q859 514 881.5 490.5Q904 467 904 430Q904 412 894.5 376.5Q885 341 851 244L807 120Q802 105 800.5 99.5Q799 94 799 91Q799 88 801 86.5Q803 85 806 85Q815 85 840.5 101Q866 117 881 133L904 110Q873 62 810 23.5Q747 -15 696 -15Q668 -15 652.5 0Q637 15 637 42Q637 61 648.5 95.5Q660 130 691 211L708 255Q733 320 746 360Q759 400 759 414Q759 423 754.5 428Q750 433 742 433Q727 433 708 421Q689 409 671 387L648 404Q652 411 656.5 417.5Q661 424 666 430H599L521 127Q497 37 476 -18Q455 -73 430 -114Q391 -181 339.5 -214.5Q288 -248 224 -250Q173 -250 138.5 -221Q104 -192 100 -147Z" glyph-name="f_f_i" horiz-adv-x="930" unicode="&#64259;" /><glyph d="M210 -199H217Q244 -199 262 -186Q280 -173 293 -145Q299 -131 305 -112.5Q311 -94 323 -48L446 430H284L198 90Q186 45 172.5 5.5Q159 -34 144 -67Q151 -64 158.5 -62.5Q166 -61 174 -61Q201 -61 221.5 -82Q242 -103 242 -133Q242 -149 233 -166Q224 -183 210 -194ZM100 -147Q83 -174 64 -195.5Q45 -217 25 -233Q-7 -258 -42.5 -270.5Q-78 -283 -117 -283Q-172 -283 -209 -253.5Q-246 -224 -246 -178Q-246 -144 -225 -121.5Q-204 -99 -173 -99Q-145 -99 -124 -120Q-103 -141 -103 -171Q-103 -187 -112.5 -204Q-122 -221 -136 -232V-236H-128Q-104 -236 -78.5 -219.5Q-53 -203 -33 -173Q-21 -151 -12 -129Q-3 -107 2 -84L131 430H49L61 479H148L158 517Q194 645 273.5 717.5Q353 790 450 790Q466 790 479.5 788.5Q493 787 504 783L481 740Q477 741 472.5 740.5Q468 740 467 740Q417 740 379.5 694Q342 648 318 556L297 479H460L466 498Q505 635 582.5 712Q660 789 756 789Q811 789 851.5 771.5Q892 754 906 727Q919 730 933.5 733Q948 736 971 740Q983 743 986 743.5Q989 744 988 744H993L811 154Q808 144 804.5 134Q801 124 796 110Q793 100 792 97Q791 94 791 92Q791 89 792.5 87.5Q794 86 798 86Q809 86 833.5 99.5Q858 113 881 133L900 110Q868 59 811.5 22Q755 -15 706 -15Q679 -15 660 2.5Q641 20 641 46Q641 64 646.5 89Q652 114 666 162Q670 175 681.5 213Q693 251 701 276L816 659L804 676Q801 680 798 684.5Q795 689 789 699L788 700Q788 700 788 700Q788 700 788 700Q768 735 762 740.5Q756 746 750 746Q716 746 683 693.5Q650 641 632 559L612 479H729L692 430H599L521 127Q497 37 476 -18Q455 -73 430 -114Q391 -181 339.5 -214.5Q288 -248 224 -250Q173 -250 138.5 -221Q104 -192 100 -147Z" glyph-name="f_f_l" horiz-adv-x="921" unicode="&#64260;" /><glyph d="M-115 -294Q-166 -294 -195 -273.5Q-224 -253 -224 -220Q-224 -193 -208.5 -177.5Q-193 -162 -167 -162Q-149 -162 -136 -173.5Q-123 -185 -109 -219Q-100 -239 -95 -245Q-90 -251 -84 -251Q-69 -251 -50 -206Q-31 -161 -5 -64L132 430H60L72 479H147L162 520Q211 656 282 724.5Q353 793 446 793Q507 793 542 769.5Q577 746 577 709Q577 686 559.5 668.5Q542 651 518 651Q494 651 477.5 663Q461 675 445 711Q435 733 428.5 739.5Q422 746 414 746Q390 746 369 703.5Q348 661 319 558L297 479H371Q396 500 424.5 510.5Q453 521 482 521Q518 521 540.5 497Q563 473 563 431Q563 400 548 338Q533 276 504 184L455 35Q399 -141 334 -214.5Q269 -288 180 -288Q129 -288 99.5 -267.5Q70 -247 70 -213Q70 -186 86 -171Q102 -156 128 -156Q145 -156 158 -167Q171 -178 185 -212Q194 -233 199.5 -239Q205 -245 211 -245Q223 -245 239 -206Q255 -167 288 -57L377 234Q402 316 413 358.5Q424 401 424 424Q424 430 419 435Q414 440 407 440Q392 440 372.5 428.5Q353 417 335 395L312 410Q313 412 316.5 417Q320 422 325 430H284L163 35Q111 -138 43.5 -216Q-24 -294 -115 -294Z" glyph-name="f_j" horiz-adv-x="574" /><glyph d="M-115 -294Q-166 -294 -195 -273.5Q-224 -253 -224 -220Q-224 -193 -208.5 -177.5Q-193 -162 -167 -162Q-149 -162 -136 -173.5Q-123 -185 -109 -219Q-100 -239 -95 -245Q-90 -251 -84 -251Q-69 -251 -50 -206Q-31 -161 -5 -64L132 430H60L72 479H147L162 520Q211 656 282 724.5Q353 793 446 793Q507 793 542 769.5Q577 746 577 709Q577 686 559.5 668.5Q542 651 518 651Q494 651 477.5 663Q461 675 445 711Q435 733 428.5 739.5Q422 746 414 746Q390 746 369 703.5Q348 661 319 558L297 479H385Q410 496 438 505Q466 514 492 514Q526 514 548.5 490.5Q571 467 571 430Q571 412 561.5 376.5Q552 341 518 244L474 120Q469 105 467.5 99.5Q466 94 466 91Q466 88 468 86.5Q470 85 473 85Q482 85 507.5 101Q533 117 548 133L571 110Q540 62 477 23.5Q414 -15 363 -15Q335 -15 319.5 0Q304 15 304 42Q304 61 315.5 95.5Q327 130 358 211L375 255Q400 320 413 360Q426 400 426 414Q426 423 421.5 428Q417 433 409 433Q394 433 375 421Q356 409 338 387L315 404Q319 411 323.5 417.5Q328 424 333 430H284L163 35Q111 -138 43.5 -216Q-24 -294 -115 -294Z" glyph-name="fi" horiz-adv-x="590" unicode="&#64257;" /><glyph d="M214 31Q268 31 310.5 75.5Q353 120 353 182Q353 253 293.5 299Q234 345 124 360L75 367L214 700L615 713L560 575Q555 563 546.5 557.5Q538 552 525 552H210L187 495L219 492Q348 480 427.5 415Q507 350 507 255Q507 201 482 149.5Q457 98 412 59Q370 23 317 4Q264 -15 205 -15Q112 -15 51.5 21.5Q-9 58 -9 109Q-9 140 11.5 161Q32 182 63 182Q83 182 97.5 175Q112 168 121 154Q126 147 130 137Q134 127 144 91Q152 61 169 46Q186 31 214 31Z" glyph-name="five" horiz-adv-x="552" unicode="5" /><glyph d="M136 19Q169 19 195.5 46Q222 73 222 110Q222 146 190 170.5Q158 195 79 213L52 219L140 415L387 424L351 341Q349 337 344.5 332Q340 327 337 327H139L124 296L135 294Q224 278 270 242Q316 206 316 152Q316 86 261 38.5Q206 -9 122 -9Q68 -9 33 13.5Q-2 36 -2 66Q-2 85 10.5 98.5Q23 112 42 112Q55 112 64.5 108Q74 104 80 95Q86 87 90.5 71Q95 55 95 55Q100 34 109.5 26.5Q119 19 136 19Z" glyph-name="five.dnom" horiz-adv-x="400" /><glyph d="M217 305Q250 305 276.5 332Q303 359 303 396Q303 432 271 456.5Q239 481 160 499L133 505L221 701L468 710L432 627Q430 623 425.5 618Q421 613 418 613H220L205 582L216 580Q305 564 351 528Q397 492 397 438Q397 372 342 324.5Q287 277 203 277Q149 277 114 299.5Q79 322 79 352Q79 371 91.5 384.5Q104 398 123 398Q136 398 145.5 394Q155 390 161 381Q167 373 171.5 357Q176 341 176 341Q181 320 190.5 312.5Q200 305 217 305Z" glyph-name="five.numr" horiz-adv-x="400" /><glyph d="M158 -75Q208 -75 249 -33.5Q290 8 290 64Q290 126 233.5 168.5Q177 211 76 228L40 234L167 532L527 546L475 415Q471 406 463.5 400.5Q456 395 447 395H163L146 352L173 348Q294 330 363 272Q432 214 432 128Q432 27 347.5 -45.5Q263 -118 137 -118Q59 -118 9.5 -84.5Q-40 -51 -40 -4Q-40 24 -21 43.5Q-2 63 25 63Q44 63 57.5 57Q71 51 79 38Q84 32 87.5 23.5Q91 15 100 -20Q109 -53 122 -64Q135 -75 158 -75Z" glyph-name="five.pnum" horiz-adv-x="503" /><glyph d="M239 31Q293 31 335.5 75.5Q378 120 378 182Q378 253 318.5 299Q259 345 149 360L100 367L239 700L640 713L585 575Q580 563 571.5 557.5Q563 552 550 552H235L212 495L244 492Q373 480 452.5 415Q532 350 532 255Q532 201 507 149.5Q482 98 437 59Q395 23 342 4Q289 -15 230 -15Q137 -15 76.5 21.5Q16 58 16 109Q16 140 36.5 161Q57 182 88 182Q108 182 122.5 175Q137 168 146 154Q151 147 155 137Q159 127 169 91Q177 61 194 46Q211 31 239 31Z" glyph-name="five.tnum" horiz-adv-x="600" /><glyph d="M208 305Q241 305 267.5 332Q294 359 294 396Q294 432 262 456.5Q230 481 151 499L124 505L212 701L459 710L423 627Q421 623 416.5 618Q412 613 409 613H211L196 582L207 580Q296 564 342 528Q388 492 388 438Q388 372 333 324.5Q278 277 194 277Q140 277 105 299.5Q70 322 70 352Q70 371 82.5 384.5Q95 398 114 398Q127 398 136.5 394Q146 390 152 381Q158 373 162.5 357Q167 341 167 341Q172 320 181.5 312.5Q191 305 208 305ZM897 129Q897 73 847.5 32Q798 -9 722 -9Q659 -9 615.5 22Q572 53 572 103Q572 144 602 173Q632 202 684 213Q661 230 647.5 255Q634 280 634 307Q634 359 680.5 394Q727 429 798 429Q856 429 893.5 404Q931 379 931 340Q931 301 897 273Q863 245 823 243Q858 218 877.5 188.5Q897 159 897 129ZM864 344Q864 370 846 385.5Q828 401 800 401Q775 401 758 384.5Q741 368 741 345Q741 330 750.5 313.5Q760 297 778 282L803 261Q834 278 849 298.5Q864 319 864 344ZM651 97Q651 63 672 42Q693 21 725 21Q757 21 776 38.5Q795 56 795 80Q795 100 782.5 120Q770 140 730 174L707 194Q684 180 667.5 152.5Q651 125 651 97ZM199 0H139L797 700H856Z" glyph-name="fiveeights" horiz-adv-x="1000" unicode="&#8541;" /><glyph d="M107 -81Q140 -81 166.5 -54Q193 -27 193 10Q193 46 161 70.5Q129 95 50 113L23 119L111 315L358 324L322 241Q320 237 315.5 232Q311 227 308 227H110L95 196L106 194Q195 178 241 142Q287 106 287 52Q287 -14 232 -61.5Q177 -109 93 -109Q39 -109 4 -86.5Q-31 -64 -31 -34Q-31 -15 -18.5 -1.5Q-6 12 13 12Q26 12 35.5 8Q45 4 51 -5Q57 -13 61.5 -29Q66 -45 66 -45Q71 -66 80.5 -73.5Q90 -81 107 -81Z" glyph-name="fiveinferior" horiz-adv-x="400" unicode="&#8325;" /><glyph d="M246 405Q279 405 305.5 432Q332 459 332 496Q332 532 300 556.5Q268 581 189 599L162 605L250 801L497 810L461 727Q459 723 454.5 718Q450 713 447 713H249L234 682L245 680Q334 664 380 628Q426 592 426 538Q426 472 371 424.5Q316 377 232 377Q178 377 143 399.5Q108 422 108 452Q108 471 120.5 484.5Q133 498 152 498Q165 498 174.5 494Q184 490 190 481Q196 473 200.5 457Q205 441 205 441Q210 420 219.5 412.5Q229 405 246 405Z" glyph-name="fivesuperior" horiz-adv-x="400" unicode="&#8309;" /><glyph d="M-115 -294Q-166 -294 -195 -273.5Q-224 -253 -224 -220Q-224 -193 -208.5 -177.5Q-193 -162 -167 -162Q-149 -162 -136 -173.5Q-123 -185 -109 -219Q-100 -239 -95 -245Q-90 -251 -84 -251Q-69 -251 -50 -206Q-31 -161 -5 -64L132 430H60L72 479H147L162 520Q211 656 282 724.5Q353 793 446 793Q501 793 534.5 774Q568 755 575 723Q625 734 650 739Q675 744 674 744H678L496 154Q491 137 484 116.5Q477 96 477 92Q477 89 478.5 87.5Q480 86 484 86Q495 86 519.5 99.5Q544 113 567 133L585 110Q554 60 498 22.5Q442 -15 392 -15Q364 -15 345 2.5Q326 20 326 46Q326 64 331.5 89.5Q337 115 351 162Q356 177 368 215Q380 253 387 276L499 653Q483 657 471 669Q459 681 446 711Q436 733 429.5 739.5Q423 746 414 746Q390 746 369 703.5Q348 661 319 558L297 479H383L372 430H284L163 35Q111 -138 43.5 -216Q-24 -294 -115 -294Z" glyph-name="fl" horiz-adv-x="606" unicode="&#64258;" /><glyph d="M416 625 345 351H448L437 302H332L280 90Q252 -23 208.5 -104Q165 -185 106 -233Q74 -258 38 -270.5Q2 -283 -37 -283Q-92 -283 -128.5 -253.5Q-165 -224 -165 -178Q-165 -144 -144 -121.5Q-123 -99 -93 -99Q-65 -99 -44 -120Q-23 -141 -23 -171Q-23 -187 -32.5 -204Q-42 -221 -56 -232V-236H-48Q-26 -236 -2.5 -220Q21 -204 41 -173Q53 -151 61.5 -128.5Q70 -106 75 -84L173 302H78L90 351H188L231 518Q265 649 336.5 719.5Q408 790 502 790Q562 790 600.5 757.5Q639 725 639 674Q639 644 617.5 622Q596 600 567 600Q537 600 517 620Q497 640 497 671Q497 693 509 711Q521 729 540 735V738Q539 737 537 736.5Q535 736 532 736Q489 736 459.5 708Q430 680 416 625Z" glyph-name="florin" horiz-adv-x="534" unicode="&#402;" /><glyph d="M262 112 276 162H-4L-1 205L412 716H533L75 234H296L346 405L533 450L471 237H590L555 162H449L435 112Q425 78 431 65Q437 52 462 45L500 35L490 0H141L151 35L194 45Q224 52 238 65.5Q252 79 262 112Z" glyph-name="four" horiz-adv-x="605" unicode="4" /><glyph d="M143 67 152 97H-25V123L247 430H321L23 141H166L198 244L313 270L272 142H357L336 97H259L250 67Q243 46 247 38Q251 30 267 27L299 20L293 0H63L70 20L101 27Q120 31 128 38.5Q136 46 143 67Z" glyph-name="four.dnom" horiz-adv-x="400" /><glyph d="M225 353 234 383H57V409L329 716H403L105 427H248L280 530L395 556L354 428H439L418 383H341L332 353Q325 332 329 324Q333 316 349 313L381 306L375 286H145L152 306L183 313Q202 317 210 324.5Q218 332 225 353Z" glyph-name="four.numr" horiz-adv-x="400" /><glyph d="M351 543H456L31 88H235L284 256L456 298L396 90H505L472 21H375L335 -116H174L215 21H-41L-39 61Z" glyph-name="four.pnum" horiz-adv-x="558" /><glyph d="M260 112 274 162H-6L-3 205L410 716H531L73 234H294L344 405L531 450L469 237H588L553 162H447L433 112Q423 78 429 65Q435 52 460 45L498 35L488 0H139L149 35L192 45Q222 52 236 65.5Q250 79 260 112Z" glyph-name="four.tnum" horiz-adv-x="600" /><glyph d="M114 -33 123 -3H-54V23L218 330H292L-6 41H137L169 144L284 170L243 42H328L307 -3H230L221 -33Q214 -54 218 -62Q222 -70 238 -73L270 -80L264 -100H34L41 -80L72 -73Q91 -69 99 -61.5Q107 -54 114 -33Z" glyph-name="fourinferior" horiz-adv-x="400" unicode="&#8324;" /><glyph d="M255 453 264 483H87V509L359 816H433L135 527H278L310 630L425 656L384 528H469L448 483H371L362 453Q355 432 359 424Q363 416 379 413L411 406L405 386H175L182 406L213 413Q232 417 240 424.5Q248 432 255 453Z" glyph-name="foursuperior" horiz-adv-x="400" unicode="&#8308;" /><glyph d="M-171 0H-231L427 700H486Z" glyph-name="fraction" horiz-adv-x="200" unicode="&#8260;" /><glyph d="M322 398Q322 432 311.5 450.5Q301 469 281 469Q248 469 220 403.5Q192 338 192 268Q192 234 202.5 215.5Q213 197 233 197Q266 197 294 262.5Q322 328 322 398ZM468 -84Q468 -161 383 -217Q298 -273 173 -273Q64 -273 -8 -232.5Q-80 -192 -80 -130Q-80 -90 -47 -61Q-14 -32 43 -25L63 -46Q50 -67 43.5 -85.5Q37 -104 37 -121Q37 -169 80 -196.5Q123 -224 194 -224Q248 -224 285 -202Q322 -180 322 -145Q322 -119 305 -104Q288 -89 243 -75L129 -40Q76 -24 49 3.5Q22 31 22 69Q22 104 47.5 136Q73 168 118 190Q85 213 67 245Q49 277 49 313Q49 398 115.5 456Q182 514 281 514Q307 514 331.5 508Q356 502 378 491L582 497L546 408L438 446L436 443Q451 424 459 401.5Q467 379 467 355Q467 270 400.5 212Q334 154 235 154Q217 154 198.5 157.5Q180 161 161 167Q153 157 149 149Q145 141 145 134Q145 117 161 104Q177 91 210 83L305 59Q400 33 434 1Q468 -31 468 -84Z" glyph-name="g" horiz-adv-x="515" unicode="g" /><glyph d="M723 734Q758 734 782.5 709.5Q807 685 807 650Q807 616 782.5 591Q758 566 723 566Q689 566 664.5 591Q640 616 640 650Q640 684 664.5 709Q689 734 723 734ZM322 398Q322 432 311.5 450.5Q301 469 281 469Q248 469 220 403.5Q192 338 192 268Q192 234 202.5 215.5Q213 197 233 197Q266 197 294 262.5Q322 328 322 398ZM468 -84Q468 -161 383 -217Q298 -273 173 -273Q64 -273 -8 -232.5Q-80 -192 -80 -130Q-80 -90 -47 -61Q-14 -32 43 -25L63 -46Q50 -67 43.5 -85.5Q37 -104 37 -121Q37 -169 80 -196.5Q123 -224 194 -224Q248 -224 285 -202Q322 -180 322 -145Q322 -119 305 -104Q288 -89 243 -75L129 -40Q76 -24 49 3.5Q22 31 22 69Q22 104 47.5 136Q73 168 118 190Q85 213 67 245Q49 277 49 313Q49 398 115.5 456Q182 514 281 514Q336 514 381.5 489Q427 464 450 421Q506 466 559.5 490Q613 514 659 514Q694 514 717 491Q740 468 740 431Q740 413 730.5 377.5Q721 342 687 245L642 119Q637 104 635.5 98.5Q634 93 634 90Q634 87 635.5 86Q637 85 640 85Q649 85 675 101Q701 117 716 133L739 110Q708 62 646 24Q584 -14 533 -14Q505 -14 489 1Q473 16 473 43Q473 61 483.5 93Q494 125 525 207L543 254Q569 323 582 363Q595 403 595 414Q595 423 590.5 428Q586 433 577 433Q558 433 530.5 421.5Q503 410 463 386Q465 379 466 371.5Q467 364 467 355Q467 270 400.5 212Q334 154 235 154Q217 154 198.5 157.5Q180 161 161 167Q153 157 149 149Q145 141 145 134Q145 117 161 104Q177 91 210 83L305 59Q400 33 434 1Q468 -31 468 -84Z" glyph-name="g_i" horiz-adv-x="765" /><glyph d="M322 398Q322 432 311.5 450.5Q301 469 281 469Q248 469 220 403.5Q192 338 192 268Q192 234 202.5 215.5Q213 197 233 197Q266 197 294 262.5Q322 328 322 398ZM721 -76Q603 -162 468.5 -207.5Q334 -253 194 -253Q77 -253 0.5 -210Q-76 -167 -76 -101Q-76 -63 -53.5 -38Q-31 -13 14 -1L47 -32Q37 -43 32 -56.5Q27 -70 27 -93Q27 -144 78.5 -173Q130 -202 213 -202Q304 -202 381.5 -182Q459 -162 569 -109Q568 62 566 182Q564 302 560 428Q560 431 557.5 434Q555 437 552 437Q543 437 519 425Q495 413 462 392Q465 382 466 373Q467 364 467 355Q467 270 400.5 212Q334 154 235 154Q207 154 179.5 161.5Q152 169 128 183Q124 177 122 171Q120 165 120 158Q120 141 133.5 130.5Q147 120 205 102L340 63Q399 46 431 1.5Q463 -43 451 -96Q421 -111 385 -122.5Q349 -134 308 -142Q309 -139 309.5 -135Q310 -131 310 -127Q310 -107 291.5 -95Q273 -83 225 -67L124 -34Q74 -18 46 14.5Q18 47 18 84Q18 119 41 152Q64 185 103 201Q77 224 63 253Q49 282 49 313Q49 398 115.5 456Q182 514 281 514Q333 514 377.5 490.5Q422 467 446 428Q492 469 541.5 491.5Q591 514 635 514Q665 514 686.5 492.5Q708 471 709 442Q712 368 711.5 226.5Q711 85 708 -20L713 -21Q826 90 881.5 182.5Q937 275 937 357Q937 387 921 405.5Q905 424 880 424Q866 424 854 418Q842 412 834 402L835 399Q852 402 866 391Q880 380 880 360Q880 344 869 333Q858 322 840 322Q822 322 808.5 338.5Q795 355 795 379Q795 432 832 472.5Q869 513 920 513Q969 513 997 476.5Q1025 440 1025 380Q1026 279 941.5 151Q857 23 721 -76Z" glyph-name="g_y" horiz-adv-x="1022" /><glyph d="M322 398Q322 432 311.5 450.5Q301 469 281 469Q248 469 220 403.5Q192 338 192 268Q192 234 202.5 215.5Q213 197 233 197Q266 197 294 262.5Q322 328 322 398ZM468 -84Q468 -161 383 -217Q298 -273 173 -273Q64 -273 -8 -232.5Q-80 -192 -80 -130Q-80 -90 -47 -61Q-14 -32 43 -25L63 -46Q50 -67 43.5 -85.5Q37 -104 37 -121Q37 -169 80 -196.5Q123 -224 194 -224Q248 -224 285 -202Q322 -180 322 -145Q322 -119 305 -104Q288 -89 243 -75L129 -40Q76 -24 49 3.5Q22 31 22 69Q22 104 47.5 136Q73 168 118 190Q85 213 67 245Q49 277 49 313Q49 398 115.5 456Q182 514 281 514Q307 514 331.5 508Q356 502 378 491L582 497L546 408L438 446L436 443Q451 424 459 401.5Q467 379 467 355Q467 270 400.5 212Q334 154 235 154Q217 154 198.5 157.5Q180 161 161 167Q153 157 149 149Q145 141 145 134Q145 117 161 104Q177 91 210 83L305 59Q400 33 434 1Q468 -31 468 -84ZM297 574Q224 574 188.5 616.5Q153 659 169 721L175 747H230L229 741Q224 706 242 692.5Q260 679 302 679Q343 679 369 694.5Q395 710 407 741L409 747H465L457 708Q444 646 402 610Q360 574 297 574Z" glyph-name="gbreve" horiz-adv-x="515" unicode="&#287;" /><glyph d="M322 398Q322 432 311.5 450.5Q301 469 281 469Q248 469 220 403.5Q192 338 192 268Q192 234 202.5 215.5Q213 197 233 197Q266 197 294 262.5Q322 328 322 398ZM468 -84Q468 -161 383 -217Q298 -273 173 -273Q64 -273 -8 -232.5Q-80 -192 -80 -130Q-80 -90 -47 -61Q-14 -32 43 -25L63 -46Q50 -67 43.5 -85.5Q37 -104 37 -121Q37 -169 80 -196.5Q123 -224 194 -224Q248 -224 285 -202Q322 -180 322 -145Q322 -119 305 -104Q288 -89 243 -75L129 -40Q76 -24 49 3.5Q22 31 22 69Q22 104 47.5 136Q73 168 118 190Q85 213 67 245Q49 277 49 313Q49 398 115.5 456Q182 514 281 514Q307 514 331.5 508Q356 502 378 491L582 497L546 408L438 446L436 443Q451 424 459 401.5Q467 379 467 355Q467 270 400.5 212Q334 154 235 154Q217 154 198.5 157.5Q180 161 161 167Q153 157 149 149Q145 141 145 134Q145 117 161 104Q177 91 210 83L305 59Q400 33 434 1Q468 -31 468 -84ZM202 575H133L293 730H373L442 575H374L303 627Z" glyph-name="gcircumflex" horiz-adv-x="515" unicode="&#285;" /><glyph d="M322 398Q322 432 311.5 450.5Q301 469 281 469Q248 469 220 403.5Q192 338 192 268Q192 234 202.5 215.5Q213 197 233 197Q266 197 294 262.5Q322 328 322 398ZM468 -84Q468 -161 383 -217Q298 -273 173 -273Q64 -273 -8 -232.5Q-80 -192 -80 -130Q-80 -90 -47 -61Q-14 -32 43 -25L63 -46Q50 -67 43.5 -85.5Q37 -104 37 -121Q37 -169 80 -196.5Q123 -224 194 -224Q248 -224 285 -202Q322 -180 322 -145Q322 -119 305 -104Q288 -89 243 -75L129 -40Q76 -24 49 3.5Q22 31 22 69Q22 104 47.5 136Q73 168 118 190Q85 213 67 245Q49 277 49 313Q49 398 115.5 456Q182 514 281 514Q307 514 331.5 508Q356 502 378 491L582 497L546 408L438 446L436 443Q451 424 459 401.5Q467 379 467 355Q467 270 400.5 212Q334 154 235 154Q217 154 198.5 157.5Q180 161 161 167Q153 157 149 149Q145 141 145 134Q145 117 161 104Q177 91 210 83L305 59Q400 33 434 1Q468 -31 468 -84ZM225 625Q225 675 274 732.5Q323 790 409 842L434 816Q387 759 366 723.5Q345 688 345 666Q345 649 354 641Q363 633 382 633Q386 633 394 634Q402 635 405 635L393 589Q371 573 347.5 564Q324 555 303 555Q267 555 246 573.5Q225 592 225 625Z" glyph-name="gcommaaccent" horiz-adv-x="515" unicode="&#291;" /><glyph d="M322 398Q322 432 311.5 450.5Q301 469 281 469Q248 469 220 403.5Q192 338 192 268Q192 234 202.5 215.5Q213 197 233 197Q266 197 294 262.5Q322 328 322 398ZM468 -84Q468 -161 383 -217Q298 -273 173 -273Q64 -273 -8 -232.5Q-80 -192 -80 -130Q-80 -90 -47 -61Q-14 -32 43 -25L63 -46Q50 -67 43.5 -85.5Q37 -104 37 -121Q37 -169 80 -196.5Q123 -224 194 -224Q248 -224 285 -202Q322 -180 322 -145Q322 -119 305 -104Q288 -89 243 -75L129 -40Q76 -24 49 3.5Q22 31 22 69Q22 104 47.5 136Q73 168 118 190Q85 213 67 245Q49 277 49 313Q49 398 115.5 456Q182 514 281 514Q307 514 331.5 508Q356 502 378 491L582 497L546 408L438 446L436 443Q451 424 459 401.5Q467 379 467 355Q467 270 400.5 212Q334 154 235 154Q217 154 198.5 157.5Q180 161 161 167Q153 157 149 149Q145 141 145 134Q145 117 161 104Q177 91 210 83L305 59Q400 33 434 1Q468 -31 468 -84ZM396 656Q396 622 371 597Q346 572 311 572Q277 572 252 597Q227 622 227 656Q227 691 252 716Q277 741 311 741Q346 741 371 716Q396 691 396 656Z" glyph-name="gdotaccent" horiz-adv-x="515" unicode="&#289;" /><glyph d="M-4 -64 132 430H61L73 479H148L162 519Q204 639 279 703Q354 767 454 767Q530 767 577.5 729.5Q625 692 625 635Q625 601 605.5 571Q586 541 526 496Q487 468 476 453.5Q465 439 465 426Q465 415 470.5 395.5Q476 376 496 325Q524 250 533.5 213.5Q543 177 543 152Q543 75 493 31.5Q443 -12 363 -12Q339 -12 315.5 -7Q292 -2 270 8L262 60Q277 53 294.5 49Q312 45 327 45Q355 45 374 62.5Q393 80 393 108Q393 127 388.5 154Q384 181 370 240Q356 294 352 318.5Q348 343 348 359Q348 373 362.5 393.5Q377 414 427 462Q501 534 525.5 573.5Q550 613 550 647Q550 681 527 703.5Q504 726 469 726Q410 726 372 674Q334 622 289 466L168 39Q120 -128 49.5 -211Q-21 -294 -114 -294Q-165 -294 -194.5 -274Q-224 -254 -224 -222Q-224 -195 -207.5 -178.5Q-191 -162 -168 -162Q-150 -162 -137 -173.5Q-124 -185 -109 -218Q-100 -239 -94.5 -245Q-89 -251 -83 -251Q-68 -251 -49 -206Q-30 -161 -4 -64Z" glyph-name="germandbls" horiz-adv-x="584" unicode="&#223;" /><glyph d="M398 547H349L188 702H339Z" glyph-name="grave" horiz-adv-x="331" unicode="`" /><glyph d="M510 326 62 145 84 225 437 365 163 505 180 571 526 390Z" glyph-name="greater" horiz-adv-x="540" unicode="&gt;" /><glyph d="M722 359 424 74 385 110 512 314 95 307V411L512 404L385 608L424 644Z" glyph-name="greater.alt" horiz-adv-x="735" unicode="&#8594;" /><glyph d="M501 326 52 145 76 225 429 365 153 505 172 571 518 390ZM409 0H12L30 65H428Z" glyph-name="greaterequal" horiz-adv-x="540" unicode="&#8805;" /><glyph d="M437 61 397 45 244 298 515 511 545 486 396 278ZM243 61 203 45 50 298 321 511 353 486 202 278Z" glyph-name="guillemotleft" horiz-adv-x="536" unicode="&#171;" /><glyph d="M467 133 427 117 274 370 545 583 575 558 426 350ZM273 133 233 117 80 370 351 583 383 558 232 350Z" glyph-name="guillemotleft.case" horiz-adv-x="554" /><glyph d="M503 258 233 45 201 71 352 279 311 496 351 511ZM310 258 40 45 10 71 159 279 117 496 158 511Z" glyph-name="guillemotright" horiz-adv-x="535" unicode="&#187;" /><glyph d="M532 330 262 117 230 143 381 351 340 568 380 583ZM339 330 69 117 39 143 188 351 146 568 187 583Z" glyph-name="guillemotright.case" horiz-adv-x="554" /><glyph d="M243 61 203 45 50 298 321 511 353 486 202 278Z" glyph-name="guilsinglleft" horiz-adv-x="343" unicode="&#8249;" /><glyph d="M273 133 233 117 80 370 351 583 383 558 232 350Z" glyph-name="guilsinglleft.case" horiz-adv-x="361" /><glyph d="M310 258 40 45 9 71 159 279 118 496 158 511Z" glyph-name="guilsinglright" horiz-adv-x="342" unicode="&#8250;" /><glyph d="M339 330 69 117 38 143 188 351 147 568 187 583Z" glyph-name="guilsinglright.case" horiz-adv-x="361" /><glyph d="M322 384Q270 330 220 231.5Q170 133 127 0L-22 -17L174 659L112 675L121 704Q178 708 237 718Q296 728 352 744H357L204 297H211Q257 394 323.5 454Q390 514 451 514Q488 514 513.5 488Q539 462 539 420Q539 389 506.5 287Q474 185 472 179L454 122Q447 102 446 97.5Q445 93 445 91Q445 88 446.5 86.5Q448 85 451 85Q460 85 483 100.5Q506 116 522 133L545 110Q504 52 451 18.5Q398 -15 348 -15Q319 -15 302.5 0.5Q286 16 286 42Q286 56 294 82.5Q302 109 341 219L351 247Q380 328 386 350.5Q392 373 392 387Q392 399 386.5 406Q381 413 371 413Q361 413 348 405.5Q335 398 322 384Z" glyph-name="h" horiz-adv-x="568" unicode="h" /><glyph d="M458 513Q501 513 530 481Q559 449 559 402Q559 339 533.5 270.5Q508 202 461 140Q409 69 347 27Q285 -15 233 -15Q215 -15 202 -2.5Q189 10 189 27Q189 46 200 57.5Q211 69 230 69Q242 69 253 58Q264 47 265 35H270Q327 123 368 234Q409 345 409 397Q409 416 403.5 424.5Q398 433 386 433Q357 433 312 381Q267 329 221 241Q195 190 170 129Q145 68 123 0L-22 -10L183 665L125 679L134 708Q185 714 242 724.5Q299 735 355 748L359 749L205 290H209Q268 405 328 459Q388 513 458 513Z" glyph-name="h.alt" horiz-adv-x="553" /><glyph d="M322 384Q270 330 220 231.5Q170 133 127 0L-22 -17L144 556H73L87 605H158L174 659L112 675L121 704Q178 708 237 718Q296 728 352 744H357L309 605H393L379 556H293L204 297H211Q257 394 323.5 454Q390 514 451 514Q488 514 513.5 488Q539 462 539 420Q539 389 506.5 287Q474 185 472 179L454 122Q447 102 446 97.5Q445 93 445 91Q445 88 446.5 86.5Q448 85 451 85Q460 85 483 100.5Q506 116 522 133L545 110Q504 52 451 18.5Q398 -15 348 -15Q319 -15 302.5 0.5Q286 16 286 42Q286 56 294 82.5Q302 109 341 219L351 247Q380 328 386 350.5Q392 373 392 387Q392 399 386.5 406Q381 413 371 413Q361 413 348 405.5Q335 398 322 384Z" glyph-name="hbar" horiz-adv-x="564" unicode="&#295;" /><glyph d="M322 384Q270 330 220 231.5Q170 133 127 0L-22 -17L174 659L112 675L121 704Q178 708 237 718Q296 728 352 744H357L204 297H211Q257 394 323.5 454Q390 514 451 514Q488 514 513.5 488Q539 462 539 420Q539 389 506.5 287Q474 185 472 179L454 122Q447 102 446 97.5Q445 93 445 91Q445 88 446.5 86.5Q448 85 451 85Q460 85 483 100.5Q506 116 522 133L545 110Q504 52 451 18.5Q398 -15 348 -15Q319 -15 302.5 0.5Q286 16 286 42Q286 56 294 82.5Q302 109 341 219L351 247Q380 328 386 350.5Q392 373 392 387Q392 399 386.5 406Q381 413 371 413Q361 413 348 405.5Q335 398 322 384ZM333 798H264L424 953H504L573 798H505L434 850Z" glyph-name="hcircumflex" horiz-adv-x="568" unicode="&#293;" /><glyph d="M433 547H385L456 702H629ZM229 547H181L252 702H425Z" glyph-name="hungarumlaut" horiz-adv-x="535" unicode="&#733;" /><glyph d="M256 237H51L79 330H284Z" glyph-name="hyphen" horiz-adv-x="315" unicode="-" /><glyph d="M283 327H78L106 420H311Z" glyph-name="hyphen.case" horiz-adv-x="323" /><glyph d="M268 734Q303 734 327.5 709.5Q352 685 352 650Q352 616 327.5 591Q303 566 268 566Q234 566 209.5 591Q185 616 185 650Q185 684 209.5 709Q234 734 268 734ZM20 42Q20 61 31.5 95.5Q43 130 74 211L91 255Q116 320 129 360Q142 400 142 414Q142 423 137.5 428Q133 433 125 433Q110 433 91 421Q72 409 54 387L31 404Q61 454 109.5 484Q158 514 208 514Q242 514 264.5 490.5Q287 467 287 430Q287 412 277.5 376.5Q268 341 234 244L190 120Q185 105 183.5 99.5Q182 94 182 91Q182 88 184 86.5Q186 85 189 85Q198 85 223.5 101Q249 117 264 133L287 110Q256 62 193 23.5Q130 -15 79 -15Q51 -15 35.5 0Q20 15 20 42Z" glyph-name="i" horiz-adv-x="313" unicode="i" /><glyph d="M268 734Q303 734 327.5 709.5Q352 685 352 650Q352 616 327.5 591Q303 566 268 566Q234 566 209.5 591Q185 616 185 650Q185 684 209.5 709Q234 734 268 734ZM20 42Q20 61 31.5 95.5Q43 130 74 211L91 255Q116 320 129 360Q142 400 142 414Q142 423 137.5 428Q133 433 125 433Q110 433 91 421Q72 409 54 387L31 404Q61 454 109.5 484Q158 514 208 514Q242 514 264.5 490.5Q287 467 287 430Q287 412 277.5 376.5Q268 341 234 244L190 120Q185 105 183.5 99.5Q182 94 182 91Q182 88 184 86.5Q186 85 189 85Q198 85 223.5 101Q249 117 264 133L287 110Q256 62 193 23.5Q130 -15 79 -15Q51 -15 35.5 0Q20 15 20 42Z" glyph-name="i.TRK" horiz-adv-x="313" /><glyph d="M20 42Q20 61 31.5 95.5Q43 130 74 211L91 255Q116 320 129 360Q142 400 142 414Q142 423 137.5 428Q133 433 125 433Q110 433 91 421Q72 409 54 387L31 404Q61 454 109.5 484Q158 514 208 514Q242 514 264.5 490.5Q287 467 287 430Q287 412 277.5 376.5Q268 341 234 244L190 120Q185 105 183.5 99.5Q182 94 182 91Q182 88 184 86.5Q186 85 189 85Q198 85 223.5 101Q249 117 264 133L287 110Q256 62 193 23.5Q130 -15 79 -15Q51 -15 35.5 0Q20 15 20 42ZM248 549H200L271 704H444Z" glyph-name="iacute" horiz-adv-x="313" unicode="&#237;" /><glyph d="M20 42Q20 61 31.5 95.5Q43 130 74 211L91 255Q116 320 129 360Q142 400 142 414Q142 423 137.5 428Q133 433 125 433Q110 433 91 421Q72 409 54 387L31 404Q61 454 109.5 484Q158 514 208 514Q242 514 264.5 490.5Q287 467 287 430Q287 412 277.5 376.5Q268 341 234 244L190 120Q185 105 183.5 99.5Q182 94 182 91Q182 88 184 86.5Q186 85 189 85Q198 85 223.5 101Q249 117 264 133L287 110Q256 62 193 23.5Q130 -15 79 -15Q51 -15 35.5 0Q20 15 20 42ZM238 548Q165 548 129.5 590.5Q94 633 110 695L116 721H171L170 715Q165 680 183 666.5Q201 653 243 653Q284 653 310 668.5Q336 684 348 715L350 721H406L398 682Q385 620 343 584Q301 548 238 548Z" glyph-name="ibreve" horiz-adv-x="313" unicode="&#301;" /><glyph d="M20 42Q20 61 31.5 95.5Q43 130 74 211L91 255Q116 320 129 360Q142 400 142 414Q142 423 137.5 428Q133 433 125 433Q110 433 91 421Q72 409 54 387L31 404Q61 454 109.5 484Q158 514 208 514Q242 514 264.5 490.5Q287 467 287 430Q287 412 277.5 376.5Q268 341 234 244L190 120Q185 105 183.5 99.5Q182 94 182 91Q182 88 184 86.5Q186 85 189 85Q198 85 223.5 101Q249 117 264 133L287 110Q256 62 193 23.5Q130 -15 79 -15Q51 -15 35.5 0Q20 15 20 42ZM143 549H74L234 704H314L383 549H315L244 601Z" glyph-name="icircumflex" horiz-adv-x="313" unicode="&#238;" /><glyph d="M20 42Q20 61 31.5 95.5Q43 130 74 211L91 255Q116 320 129 360Q142 400 142 414Q142 423 137.5 428Q133 433 125 433Q110 433 91 421Q72 409 54 387L31 404Q61 454 109.5 484Q158 514 208 514Q242 514 264.5 490.5Q287 467 287 430Q287 412 277.5 376.5Q268 341 234 244L190 120Q185 105 183.5 99.5Q182 94 182 91Q182 88 184 86.5Q186 85 189 85Q198 85 223.5 101Q249 117 264 133L287 110Q256 62 193 23.5Q130 -15 79 -15Q51 -15 35.5 0Q20 15 20 42ZM401 626Q401 598 380.5 577Q360 556 331 556Q302 556 282.5 576.5Q263 597 263 626Q263 656 282.5 676.5Q302 697 331 697Q360 697 380.5 676Q401 655 401 626ZM224 626Q224 597 203.5 576.5Q183 556 155 556Q127 556 106.5 576.5Q86 597 86 626Q86 655 106.5 676Q127 697 155 697Q183 697 203.5 676Q224 655 224 626Z" glyph-name="idieresis" horiz-adv-x="313" unicode="&#239;" /><glyph d="M20 42Q20 61 31.5 95.5Q43 130 74 211L91 255Q116 320 129 360Q142 400 142 414Q142 423 137.5 428Q133 433 125 433Q110 433 91 421Q72 409 54 387L31 404Q61 454 109.5 484Q158 514 208 514Q242 514 264.5 490.5Q287 467 287 430Q287 412 277.5 376.5Q268 341 234 244L190 120Q185 105 183.5 99.5Q182 94 182 91Q182 88 184 86.5Q186 85 189 85Q198 85 223.5 101Q249 117 264 133L287 110Q256 62 193 23.5Q130 -15 79 -15Q51 -15 35.5 0Q20 15 20 42ZM257 549H208L47 704H198Z" glyph-name="igrave" horiz-adv-x="313" unicode="&#236;" /><glyph d="M268 734Q303 734 327.5 709.5Q352 685 352 650Q352 616 327.5 591Q303 566 268 566Q234 566 209.5 591Q185 616 185 650Q185 684 209.5 709Q234 734 268 734ZM20 42Q20 61 31.5 95.5Q43 130 74 211L91 255Q116 320 129 360Q142 400 142 414Q142 423 137.5 428Q133 433 125 433Q110 433 91 421Q72 409 54 387L31 404Q61 454 109.5 484Q158 514 208 514Q242 514 264.5 490.5Q287 467 287 430Q287 412 277.5 376.5Q268 341 234 244L190 120Q185 105 183.5 99.5Q182 94 182 91Q182 88 184 86.5Q186 85 189 85Q198 85 223.5 101Q249 117 264 133L287 110Q256 62 193 23.5Q130 -15 79 -15Q51 -15 35.5 0Q20 15 20 42ZM621 650Q621 616 596.5 591Q572 566 537 566Q503 566 478 591Q453 616 453 650Q453 685 478 709.5Q503 734 537 734Q572 734 596.5 709.5Q621 685 621 650ZM229 -251Q241 -251 256 -215.5Q271 -180 307 -64L396 227Q422 311 432.5 353Q443 395 443 418Q443 424 438 428.5Q433 433 425 433Q410 433 391 421.5Q372 410 354 388L331 404Q362 456 407 485Q452 514 501 514Q537 514 559.5 490Q582 466 582 424Q582 393 566.5 329Q551 265 522 178L474 28Q417 -148 352 -221Q287 -294 198 -294Q147 -294 118 -273.5Q89 -253 89 -220Q89 -193 104.5 -177.5Q120 -162 146 -162Q164 -162 177 -173.5Q190 -185 204 -219Q213 -239 218 -245Q223 -251 229 -251Z" glyph-name="ij" horiz-adv-x="594" unicode="&#307;" /><glyph d="M20 42Q20 61 31.5 95.5Q43 130 74 211L91 255Q116 320 129 360Q142 400 142 414Q142 423 137.5 428Q133 433 125 433Q110 433 91 421Q72 409 54 387L31 404Q61 454 109.5 484Q158 514 208 514Q242 514 264.5 490.5Q287 467 287 430Q287 412 277.5 376.5Q268 341 234 244L190 120Q185 105 183.5 99.5Q182 94 182 91Q182 88 184 86.5Q186 85 189 85Q198 85 223.5 101Q249 117 264 133L287 110Q256 62 193 23.5Q130 -15 79 -15Q51 -15 35.5 0Q20 15 20 42ZM378 563H89L113 647H402Z" glyph-name="imacron" horiz-adv-x="313" unicode="&#299;" /><glyph d="M700 0H-2V47L318 700H381L700 47ZM349 656 56 51H642Z" glyph-name="increment" horiz-adv-x="793" unicode="&#8710;" /><glyph d="M425 430Q380 466 344.5 479.5Q309 493 272 493Q213 493 180 456.5Q147 420 147 363Q147 311 175.5 274.5Q204 238 247 238Q273 238 298 256.5Q323 275 352 316Q366 336 391 376.5Q416 417 425 430ZM552 288Q597 252 632.5 238.5Q668 225 705 225Q764 225 797 261.5Q830 298 830 355Q830 407 801.5 443.5Q773 480 730 480Q704 480 679 461.5Q654 443 625 402Q611 382 586 341.5Q561 301 552 288ZM699 98Q642 98 594 133Q546 168 512 235Q473 165 421 130.5Q369 96 302 96Q206 96 147.5 174Q89 252 89 364Q89 471 142 545.5Q195 620 278 620Q335 620 383 585Q431 550 465 483Q504 553 556 587.5Q608 622 675 622Q771 622 829.5 544Q888 466 888 354Q888 247 835 172.5Q782 98 699 98Z" glyph-name="infinity" horiz-adv-x="914" unicode="&#8734;" /><glyph d="M303 351Q303 296 265.5 257.5Q228 219 174 219Q120 219 82.5 257.5Q45 296 45 351Q45 406 82.5 444.5Q120 483 174 483Q228 483 265.5 444.5Q303 406 303 351Z" glyph-name="integral" horiz-adv-x="348" unicode="&#8747;" /><glyph d="M268 734Q303 734 327.5 709.5Q352 685 352 650Q352 616 327.5 591Q303 566 268 566Q234 566 209.5 591Q185 616 185 650Q185 684 209.5 709Q234 734 268 734ZM50 -226Q13 -226 -12.5 -205Q-38 -184 -38 -152Q-38 -121 -12.5 -87Q13 -53 65 -14Q43 -10 31.5 4.5Q20 19 20 42Q20 61 31.5 95.5Q43 130 74 211L91 255Q116 320 129 360Q142 400 142 414Q142 423 137.5 428Q133 433 125 433Q110 433 91 421Q72 409 54 387L31 404Q61 454 109.5 484Q158 514 208 514Q242 514 264.5 490.5Q287 467 287 430Q287 412 277.5 376.5Q268 341 234 244L190 120Q185 105 183.5 99.5Q182 94 182 91Q182 88 184 86.5Q186 85 189 85Q198 85 223.5 101Q249 117 264 133L287 110Q262 73 216.5 39.5Q171 6 125 -8Q94 -65 85 -89Q76 -113 76 -130Q76 -148 92 -158Q108 -168 137 -168Q139 -168 142 -168.5Q145 -169 152 -168L127 -211Q105 -218 86 -222Q67 -226 50 -226Z" glyph-name="iogonek" horiz-adv-x="313" unicode="&#303;" /><glyph d="M20 42Q20 61 31.5 95.5Q43 130 74 211L91 255Q116 320 129 360Q142 400 142 414Q142 423 137.5 428Q133 433 125 433Q110 433 91 421Q72 409 54 387L31 404Q61 454 109.5 484Q158 514 208 514Q242 514 264.5 490.5Q287 467 287 430Q287 412 277.5 376.5Q268 341 234 244L190 120Q185 105 183.5 99.5Q182 94 182 91Q182 88 184 86.5Q186 85 189 85Q198 85 223.5 101Q249 117 264 133L287 110Q256 62 193 23.5Q130 -15 79 -15Q51 -15 35.5 0Q20 15 20 42ZM165 582Q149 582 136.5 574.5Q124 567 111 549L73 563Q96 626 127.5 657.5Q159 689 202 689Q215 689 231.5 685Q248 681 280 669Q306 660 317 657Q328 654 336 654Q352 654 364.5 661.5Q377 669 389 686L427 673Q405 610 373 578Q341 546 298 546Q285 546 268 550Q251 554 219 567Q194 576 183.5 579Q173 582 165 582Z" glyph-name="itilde" horiz-adv-x="313" unicode="&#297;" /><glyph d="M312 650Q312 616 287.5 591Q263 566 228 566Q194 566 169 591Q144 616 144 650Q144 685 169 709.5Q194 734 228 734Q263 734 287.5 709.5Q312 685 312 650ZM-80 -251Q-68 -251 -53 -215.5Q-38 -180 -2 -64L87 227Q113 311 123.5 353Q134 395 134 418Q134 424 129 428.5Q124 433 116 433Q101 433 82 421.5Q63 410 45 388L22 404Q53 456 98 485Q143 514 192 514Q228 514 250.5 490Q273 466 273 424Q273 393 257.5 329Q242 265 213 178L165 28Q108 -148 43 -221Q-22 -294 -111 -294Q-162 -294 -191 -273.5Q-220 -253 -220 -220Q-220 -193 -204.5 -177.5Q-189 -162 -163 -162Q-145 -162 -132 -173.5Q-119 -185 -105 -219Q-96 -239 -91 -245Q-86 -251 -80 -251Z" glyph-name="j" horiz-adv-x="285" unicode="j" /><glyph d="M312 656Q312 622 287.5 597Q263 572 228 572Q194 572 169 597Q144 622 144 656Q144 691 169 715.5Q194 740 228 740Q263 740 287.5 715.5Q312 691 312 656ZM192 514Q228 514 250.5 490Q273 466 273 424Q273 398 258 338Q243 278 210 171L185 90Q151 -16 118 -83Q85 -150 40 -198Q1 -238 -47 -260.5Q-95 -283 -140 -283Q-193 -283 -229.5 -251.5Q-266 -220 -266 -175Q-266 -142 -244.5 -119.5Q-223 -97 -192 -97Q-165 -97 -144.5 -117.5Q-124 -138 -124 -168Q-124 -184 -133 -200.5Q-142 -217 -156 -229V-234H-149Q-126 -234 -103 -218Q-80 -202 -60 -172Q-38 -137 -20 -92.5Q-2 -48 20 19L84 222Q108 297 121 347.5Q134 398 134 418Q134 424 129 428.5Q124 433 116 433Q101 433 82 421.5Q63 410 45 388L22 404Q53 456 98 485Q143 514 192 514Z" glyph-name="j.alt" horiz-adv-x="284" /><glyph d="M-79 -245Q-67 -245 -52 -209.5Q-37 -174 -1 -57L88 234Q113 316 124 358.5Q135 401 135 424Q135 430 130 435Q125 440 117 440Q102 440 83 428.5Q64 417 46 395L23 410Q54 462 99 491.5Q144 521 193 521Q229 521 251.5 497Q274 473 274 431Q274 400 259 338Q244 276 215 184L166 35Q108 -143 44 -215.5Q-20 -288 -109 -288Q-160 -288 -189.5 -267.5Q-219 -247 -219 -213Q-219 -186 -203 -171Q-187 -156 -161 -156Q-144 -156 -131 -167.5Q-118 -179 -104 -212Q-95 -233 -90 -239Q-85 -245 -79 -245ZM125 549H56L216 704H296L365 549H297L226 601Z" glyph-name="jcircumflex" horiz-adv-x="285" unicode="&#309;" /><glyph d="M333 -15Q298 -15 278.5 9Q259 33 259 78Q259 90 260.5 124Q262 158 265 213Q266 233 264 248Q262 263 257 275Q223 225 189.5 156.5Q156 88 122 0L-24 -10L185 658L114 675L123 704Q181 707 239 717.5Q297 728 355 744H360Q322 634 290.5 543Q259 452 226 355Q205 297 199.5 280Q194 263 187 241H194Q253 361 328 428Q403 495 474 495Q510 495 534 475.5Q558 456 558 427Q558 398 540 379Q522 360 495 360Q475 360 459 371.5Q443 383 433 403L423 424Q389 415 354 387Q319 359 284 313Q336 300 365.5 260Q395 220 400 154L403 114Q405 98 411.5 89.5Q418 81 429 81Q442 81 456 90Q470 99 490 121L520 101Q485 45 437.5 15Q390 -15 333 -15Z" glyph-name="k" horiz-adv-x="530" unicode="k" /><glyph d="M333 -15Q298 -15 278.5 9Q259 33 259 78Q259 90 260.5 124Q262 158 265 213Q266 233 264 248Q262 263 257 275Q223 225 189.5 156.5Q156 88 122 0L-24 -10L185 658L114 675L123 704Q181 707 239 717.5Q297 728 355 744H360Q322 634 290.5 543Q259 452 226 355Q205 297 199.5 280Q194 263 187 241H194Q253 361 328 428Q403 495 474 495Q510 495 534 475.5Q558 456 558 427Q558 398 540 379Q522 360 495 360Q475 360 459 371.5Q443 383 433 403L423 424Q389 415 354 387Q319 359 284 313Q336 300 365.5 260Q395 220 400 154L403 114Q405 98 411.5 89.5Q418 81 429 81Q442 81 456 90Q470 99 490 121L520 101Q485 45 437.5 15Q390 -15 333 -15ZM309 -122Q309 -172 260.5 -229Q212 -286 125 -339L99 -312Q146 -256 167.5 -220.5Q189 -185 189 -163Q189 -146 179.5 -137.5Q170 -129 152 -129Q150 -129 144 -130Q138 -131 129 -132L141 -86Q163 -70 186.5 -61Q210 -52 231 -52Q267 -52 288 -70.5Q309 -89 309 -122Z" glyph-name="kcommaaccent" horiz-adv-x="530" unicode="&#311;" /><glyph d="M362 -11Q327 -11 307 10.5Q287 32 287 71Q287 86 288.5 105.5Q290 125 296 165Q298 184 299 192.5Q300 201 301 208Q304 238 300.5 258.5Q297 279 287 292Q264 266 240 236Q216 206 192 173L133 0L-13 -10L113 432L53 442L60 471Q98 477 154 487.5Q210 498 284 514L263 445Q260 433 251.5 407.5Q243 382 223 319Q211 280 206 264Q201 248 198 239L200 238Q212 262 252.5 313Q293 364 335 406Q389 459 435 486.5Q481 514 517 514Q554 514 579 493Q604 472 604 438Q604 412 585.5 392.5Q567 373 542 373Q517 373 499.5 390Q482 407 482 432Q482 442 485 452Q488 462 494 470L493 472Q457 453 407.5 411Q358 369 308 315Q371 301 403 261Q435 221 432 158L430 115Q429 104 434 97.5Q439 91 449 91Q460 91 478 102Q496 113 516 133L534 108Q506 59 454.5 24Q403 -11 362 -11Z" glyph-name="kgreenlandic" horiz-adv-x="553" unicode="&#312;" /><glyph d="M73 -15Q43 -15 26 1Q9 17 9 46Q9 70 17.5 107Q26 144 67 276L184 658L112 675L121 704Q179 707 237 717.5Q295 728 353 744H359L177 158Q168 127 163 110.5Q158 94 158 92Q158 89 160 87.5Q162 86 165 86Q175 86 197.5 99Q220 112 244 133L267 110Q235 59 178.5 22Q122 -15 73 -15Z" glyph-name="l" horiz-adv-x="287" unicode="l" /><glyph d="M73 -15Q43 -15 26 1Q9 17 9 46Q9 70 17.5 107Q26 144 67 276L184 658L112 675L121 704Q179 707 237 717.5Q295 728 353 744H359L177 158Q168 127 163 110.5Q158 94 158 92Q158 89 160 87.5Q162 86 165 86Q175 86 197.5 99Q220 112 244 133L267 110Q235 59 178.5 22Q122 -15 73 -15ZM321 800H273L344 955H517Z" glyph-name="lacute" horiz-adv-x="287" unicode="&#314;" /><glyph d="M73 -15Q43 -15 26 1Q9 17 9 46Q9 70 17.5 107Q26 144 67 276L184 658L112 675L121 704Q179 707 237 717.5Q295 728 353 744H359L177 158Q168 127 163 110.5Q158 94 158 92Q158 89 160 87.5Q162 86 165 86Q175 86 197.5 99Q220 112 244 133L267 110Q235 59 178.5 22Q122 -15 73 -15ZM527 630Q527 579 478 521.5Q429 464 343 413L318 439Q364 494 386 530.5Q408 567 408 589Q408 606 399 614Q390 622 370 622Q366 622 358.5 621Q351 620 348 620L359 666Q382 682 405.5 691Q429 700 449 700Q485 700 506 681.5Q527 663 527 630Z" glyph-name="lcaron" horiz-adv-x="369" unicode="&#318;" /><glyph d="M73 -15Q43 -15 26 1Q9 17 9 46Q9 70 17.5 107Q26 144 67 276L184 658L112 675L121 704Q179 707 237 717.5Q295 728 353 744H359L177 158Q168 127 163 110.5Q158 94 158 92Q158 89 160 87.5Q162 86 165 86Q175 86 197.5 99Q220 112 244 133L267 110Q235 59 178.5 22Q122 -15 73 -15ZM141 -122Q141 -172 92.5 -229Q44 -286 -43 -339L-69 -312Q-22 -256 -0.5 -220.5Q21 -185 21 -163Q21 -146 11.5 -137.5Q2 -129 -16 -129Q-18 -129 -24 -130Q-30 -131 -39 -132L-27 -86Q-5 -70 18.5 -61Q42 -52 63 -52Q99 -52 120 -70.5Q141 -89 141 -122Z" glyph-name="lcommaaccent" horiz-adv-x="287" unicode="&#316;" /><glyph d="M73 -15Q43 -15 26 1Q9 17 9 46Q9 70 17.5 107Q26 144 67 276L184 658L112 675L121 704Q179 707 237 717.5Q295 728 353 744H359L177 158Q168 127 163 110.5Q158 94 158 92Q158 89 160 87.5Q162 86 165 86Q175 86 197.5 99Q220 112 244 133L267 110Q235 59 178.5 22Q122 -15 73 -15ZM470 315Q470 275 442 247Q414 219 373 219Q333 219 305.5 247Q278 275 278 315Q278 355 305.5 383Q333 411 373 411Q414 411 442 383.5Q470 356 470 315Z" glyph-name="ldot" horiz-adv-x="439" unicode="&#320;" /><glyph d="M443 211 425 145 77 326 93 390 543 571 521 491 167 351Z" glyph-name="less" horiz-adv-x="540" unicode="&lt;" /><glyph d="M412 110 373 74 77 359 373 644 412 608 285 404 703 411V307L285 314Z" glyph-name="less.alt" horiz-adv-x="735" unicode="&#8592;" /><glyph d="M454 211 436 145 89 326 105 390 555 571 532 491 178 351ZM395 0H-2L16 65H413Z" glyph-name="lessequal" horiz-adv-x="540" unicode="&#8804;" /><glyph d="M462 247H392L435 403H106L125 468H523Z" glyph-name="logicalnot" horiz-adv-x="540" unicode="&#172;" /><glyph d="M701 -162Q683 -170 670 -170Q657 -170 639 -162Q410 -59 263.5 115.5Q117 290 117 475Q117 549 144 618Q171 687 219 737Q263 782 323.5 806Q384 830 454 830Q515 830 571.5 808Q628 786 676 744Q723 786 777.5 807Q832 828 893 828Q961 828 1021 804Q1081 780 1125 734Q1173 685 1199.5 616Q1226 547 1226 473Q1226 288 1078.5 114.5Q931 -59 701 -162ZM422 25Q483 -24 553 -66.5Q623 -109 661 -124Q666 -126 670 -126Q674 -126 679 -124Q718 -108 788.5 -66Q859 -24 920 24Q973 66 1015.5 110.5Q1058 155 1091 203Q1135 268 1158.5 337Q1182 406 1182 474Q1182 541 1157.5 602.5Q1133 664 1088 708Q1047 747 997.5 767Q948 787 890 787Q831 787 775.5 765Q720 743 672 700Q621 744 565.5 766Q510 788 451 788Q395 788 345.5 768Q296 748 256 710Q211 666 186 603.5Q161 541 161 473Q161 406 184 337Q207 268 251 205Q284 156 327 111Q370 66 422 25ZM440 522Q440 512 448 504Q456 496 466 496Q471 496 475.5 498Q480 500 483 504Q489 510 490 519Q491 528 487 538L424 697Q421 704 414 707Q407 710 400 707Q393 704 390 697Q387 690 390 683L424 597L326 575Q319 574 314.5 567.5Q310 561 312 553Q313 546 319.5 541.5Q326 537 334 539L438 562L447 540Q443 536 441.5 531.5Q440 527 440 522ZM924 515Q938 511 952.5 513Q967 515 979 522Q1004 535 1013.5 561.5Q1023 588 1011 611L978 678Q975 685 967.5 687Q960 689 953 686L818 612Q811 608 809 601Q807 594 811 587Q815 580 822 578Q829 576 836 580L863 595L889 545Q894 535 903.5 527Q913 519 924 515ZM493 655Q493 641 502.5 631.5Q512 622 525 622Q538 622 547.5 631.5Q557 641 557 654Q557 668 548 677.5Q539 687 525 687Q511 687 502 677.5Q493 668 493 655ZM765 521Q744 514 719.5 510Q695 506 670 506Q646 506 622.5 509.5Q599 513 578 520Q602 561 625 593.5Q648 626 672 650Q694 628 716.5 596Q739 564 765 521ZM962 553Q950 547 938.5 549Q927 551 921 561L895 613L954 645L979 595Q985 584 979.5 572Q974 560 962 553ZM971 301Q978 304 981 311Q984 318 981 324L941 414L974 429L989 396Q992 389 999 386.5Q1006 384 1013 387Q1020 390 1022.5 397Q1025 404 1022 411L1007 445L1038 460L1070 388Q1073 381 1080 378.5Q1087 376 1094 379Q1101 382 1103.5 389Q1106 396 1103 403L1063 492Q1062 496 1059.5 498.5Q1057 501 1053 502Q1050 503 1046 502.5Q1042 502 1039 501L910 439Q903 435 900.5 428.5Q898 422 901 415L948 310Q951 303 957.5 300.5Q964 298 971 301ZM542 90Q544 85 548.5 82Q553 79 559 79H800Q808 79 813.5 84Q819 89 819 97Q819 105 814 110Q809 115 801 115H622Q717 165 756 210Q795 255 795 304Q795 356 761 392Q727 428 672 428Q616 428 578.5 395Q541 362 541 312Q541 275 566 247Q591 219 628 219Q661 219 683.5 239Q706 259 706 292Q706 313 695.5 324.5Q685 336 670 336Q656 336 646.5 326.5Q637 317 637 304Q637 296 641 289Q645 282 652 277Q656 273 649 264Q642 255 626 255Q606 255 592.5 272.5Q579 290 579 313Q579 349 604 371Q629 393 670 393Q708 393 731.5 368Q755 343 755 305Q755 270 729.5 237Q704 204 646 166Q630 156 611.5 145.5Q593 135 565 121Q554 115 550.5 113Q547 111 546 110Q542 105 541 100Q540 95 542 90ZM258 350Q266 348 272.5 351.5Q279 355 281 362L298 412L412 372Q419 369 426 372Q433 375 435 383Q438 390 434.5 397Q431 404 424 406L309 447L324 494Q326 502 322.5 508.5Q319 515 312 517Q305 519 298 515.5Q291 512 289 505L246 373Q244 366 247.5 359Q251 352 258 350ZM897 53Q845 11 784.5 -26.5Q724 -64 670 -90Q619 -66 558 -27Q497 12 444 54Q393 95 352 138Q311 181 281 226Q241 284 219.5 348Q198 412 198 474Q198 535 220 590Q242 645 282 684Q317 718 360.5 735Q404 752 454 752Q504 752 552.5 732.5Q601 713 646 675Q619 646 594 612.5Q569 579 547 540Q509 474 477.5 392Q446 310 424 221L374 231Q367 233 360.5 229Q354 225 353 218Q351 211 355.5 205Q360 199 367 198L502 169Q509 168 514.5 171.5Q520 175 522 182Q523 189 519.5 195Q516 201 509 203L461 213Q480 289 505.5 358.5Q531 428 561 487Q587 478 614.5 473Q642 468 670 468Q699 468 727.5 473Q756 478 782 488Q812 428 837.5 356Q863 284 880 212L832 202Q825 201 821 195Q817 189 818 182Q819 175 825.5 170.5Q832 166 839 168L974 196Q981 198 984.5 203.5Q988 209 987 216Q986 223 980 227.5Q974 232 967 230L918 220Q918 221 917.5 222Q917 223 917 223Q894 314 863 395.5Q832 477 794 543Q772 582 748.5 615Q725 648 699 674Q743 712 791.5 731.5Q840 751 890 751Q941 751 984.5 733.5Q1028 716 1062 682Q1101 643 1123 588.5Q1145 534 1145 473Q1145 411 1123.5 348Q1102 285 1061 223Q1030 179 989 136.5Q948 94 897 53ZM638 3Q638 -11 647.5 -20.5Q657 -30 670 -30Q683 -30 692.5 -20.5Q702 -11 702 2Q702 16 693 25.5Q684 35 670 35Q656 35 647 25.5Q638 16 638 3Z" glyph-name="logo" horiz-adv-x="1186" /><glyph d="M-115 -294Q-166 -294 -195 -273.5Q-224 -253 -224 -220Q-224 -193 -208.5 -177.5Q-193 -162 -167 -162Q-149 -162 -136 -173.5Q-123 -185 -109 -219Q-100 -239 -95 -245Q-90 -251 -84 -251Q-69 -251 -50 -206Q-31 -161 -5 -64L132 430H60L72 479H147L162 520Q211 656 282 724.5Q353 793 446 793Q507 793 542 769.5Q577 746 577 709Q577 686 559.5 668.5Q542 651 518 651Q494 651 477.5 663Q461 675 445 711Q435 733 428.5 739.5Q422 746 414 746Q393 746 376 710.5Q359 675 324 558L168 35Q118 -132 48 -213Q-22 -294 -115 -294Z" glyph-name="longs" horiz-adv-x="303" unicode="&#383;" /><glyph d="M849 350 440 -66 32 350 440 767Z" glyph-name="lozenge" horiz-adv-x="823" unicode="&#9674;" /><glyph d="M87 -15Q57 -15 40 1Q23 17 23 46Q23 72 32.5 111.5Q42 151 73 250L-5 215L13 279L93 315L198 658L126 675L135 704Q193 707 251 717.5Q309 728 367 744H373L264 392L359 435L341 371L244 327L191 158Q182 127 177 110.5Q172 94 172 92Q172 89 174 87.5Q176 86 179 86Q189 86 211.5 99Q234 112 258 133L281 110Q249 59 192.5 22Q136 -15 87 -15Z" glyph-name="lslash" horiz-adv-x="305" unicode="&#322;" /><glyph d="M17 -3 72 172Q102 269 118.5 333Q135 397 135 415Q135 423 130 428Q125 433 117 433Q101 433 83 421.5Q65 410 46 387L22 404Q54 456 97.5 485Q141 514 187 514Q225 514 247.5 489Q270 464 270 421Q270 408 267 389Q264 370 255 336Q251 322 250 317Q249 312 249 310Q249 310 249 310Q249 310 249 310Q249 310 249 310Q249 310 249 310Q249 310 249 310Q249 310 249 310Q249 310 249 310Q249 310 249 310H256Q306 413 358 463.5Q410 514 467 514Q501 514 521 490.5Q541 467 541 426Q541 403 533 366.5Q525 330 516 310H524Q572 411 626 462.5Q680 514 739 514Q778 514 803.5 488Q829 462 829 420Q829 394 818.5 353Q808 312 765 180L748 122Q742 103 740.5 98Q739 93 739 92Q739 92 739 92Q739 92 739 92Q739 92 739 92Q739 92 739 92Q739 92 739 92Q739 92 739 92Q739 91 739 91Q739 91 739 91Q739 91 739 91Q739 91 739 91Q739 91 739 91Q739 91 739 91Q739 91 739 91Q739 91 739 91Q739 91 739 91Q739 91 739 91Q739 88 740.5 86.5Q742 85 745 85Q754 85 777 100.5Q800 116 816 133L839 110Q798 53 745 19Q692 -15 641 -15Q612 -15 595.5 0.5Q579 16 579 42Q579 60 590 98Q601 136 631 220L641 248Q662 307 670.5 338Q679 369 679 387Q679 400 674 407Q669 414 660 414Q649 414 636 404Q623 394 609 375Q565 315 521 218.5Q477 122 438 0L282 -3L351 184Q383 272 398 321.5Q413 371 413 387Q413 399 407 406.5Q401 414 392 414Q381 414 367.5 404.5Q354 395 340 378Q298 327 254.5 230Q211 133 171 0Z" glyph-name="m" horiz-adv-x="861" unicode="m" /><glyph d="M488 583H199L223 667H512Z" glyph-name="macron" horiz-adv-x="440" unicode="&#175;" /><glyph d="M489 326H91L110 390H508Z" glyph-name="minus" horiz-adv-x="540" unicode="&#8722;" /><glyph d="M127 -15Q106 -15 89 -7.5Q72 0 61 14L7 -196H-58L119 349Q127 372 130.5 388.5Q134 405 134 417Q134 424 129 429Q124 434 116 434Q101 434 83.5 422.5Q66 411 47 388L23 404Q55 457 98 486Q141 515 186 515Q224 515 247.5 492Q271 469 271 430Q271 409 264 377Q257 345 242 296L216 214Q195 148 187.5 122Q180 96 180 88Q180 80 185 74.5Q190 69 198 69Q230 69 273.5 121.5Q317 174 352 254Q378 313 393 375Q408 437 409 494L579 513L561 444Q519 284 499.5 203.5Q480 123 480 111Q480 100 484.5 94.5Q489 89 498 89Q508 89 521.5 98.5Q535 108 560 133L582 110Q538 45 496.5 15Q455 -15 410 -15Q378 -15 359 4.5Q340 24 340 57Q340 75 344 101Q348 127 358 169L363 190H360Q306 85 249 35Q192 -15 127 -15Z" glyph-name="mu" horiz-adv-x="599" unicode="&#181;" /><glyph d="M447 167 393 134 291 320 99 180 64 230 263 370 164 551 218 583 315 405 495 537 529 487 343 354Z" glyph-name="multiply" horiz-adv-x="540" unicode="&#215;" /><glyph d="M403 413Q393 413 380 405Q367 397 354 383Q303 327 258 232Q213 137 171 0L17 -3L72 172Q101 268 118 332.5Q135 397 135 414Q135 423 130.5 428Q126 433 117 433Q101 433 83 421.5Q65 410 46 387L22 404Q54 456 97.5 485Q141 514 187 514Q225 514 247.5 489Q270 464 270 421Q270 408 267 389Q264 370 255 336Q251 322 250 317Q249 312 249 310H256Q303 407 362 460.5Q421 514 482 514Q519 514 545.5 487.5Q572 461 572 420Q572 394 561.5 353Q551 312 508 180L491 122Q484 102 483 97.5Q482 93 482 91Q482 88 483.5 86.5Q485 85 488 85Q497 85 519.5 100.5Q542 116 559 133L582 110Q541 53 488 19Q435 -15 384 -15Q355 -15 338.5 0.5Q322 16 322 42Q322 61 333.5 100.5Q345 140 373 219L384 250Q411 325 417.5 348.5Q424 372 424 387Q424 399 418.5 406Q413 413 403 413Z" glyph-name="n" horiz-adv-x="605" unicode="n" /><glyph d="M403 413Q393 413 380 405Q367 397 354 383Q303 327 258 232Q213 137 171 0L17 -3L72 172Q101 268 118 332.5Q135 397 135 414Q135 423 130.5 428Q126 433 117 433Q101 433 83 421.5Q65 410 46 387L22 404Q54 456 97.5 485Q141 514 187 514Q225 514 247.5 489Q270 464 270 421Q270 408 267 389Q264 370 255 336Q251 322 250 317Q249 312 249 310H256Q303 407 362 460.5Q421 514 482 514Q519 514 545.5 487.5Q572 461 572 420Q572 394 561.5 353Q551 312 508 180L491 122Q484 102 483 97.5Q482 93 482 91Q482 88 483.5 86.5Q485 85 488 85Q497 85 519.5 100.5Q542 116 559 133L582 110Q541 53 488 19Q435 -15 384 -15Q355 -15 338.5 0.5Q322 16 322 42Q322 61 333.5 100.5Q345 140 373 219L384 250Q411 325 417.5 348.5Q424 372 424 387Q424 399 418.5 406Q413 413 403 413ZM384 585H336L407 740H580Z" glyph-name="nacute" horiz-adv-x="605" unicode="&#324;" /><glyph d="M585 413Q575 413 562 405Q549 397 536 383Q485 327 440 232Q395 137 353 0L199 -3L254 172Q283 268 300 332.5Q317 397 317 414Q317 423 312.5 428Q308 433 299 433Q283 433 265 421.5Q247 410 228 387L204 404Q236 456 279.5 485Q323 514 369 514Q407 514 429.5 489Q452 464 452 421Q452 408 449 389Q446 370 437 336Q433 322 432 317Q431 312 431 310H438Q485 407 544 460.5Q603 514 664 514Q701 514 727.5 487.5Q754 461 754 420Q754 394 743.5 353Q733 312 690 180L673 122Q666 102 665 97.5Q664 93 664 91Q664 88 665.5 86.5Q667 85 670 85Q679 85 701.5 100.5Q724 116 741 133L764 110Q723 53 670 19Q617 -15 566 -15Q537 -15 520.5 0.5Q504 16 504 42Q504 61 515.5 100.5Q527 140 555 219L566 250Q593 325 599.5 348.5Q606 372 606 387Q606 399 600.5 406Q595 413 585 413ZM290 630Q290 580 241.5 523Q193 466 106 413L80 440Q127 496 148.5 531.5Q170 567 170 589Q170 606 160.5 614.5Q151 623 133 623Q131 623 125 622Q119 621 110 620L122 666Q144 682 167.5 691Q191 700 212 700Q248 700 269 681.5Q290 663 290 630Z" glyph-name="napostrophe" horiz-adv-x="787" unicode="&#329;" /><glyph d="M403 413Q393 413 380 405Q367 397 354 383Q303 327 258 232Q213 137 171 0L17 -3L72 172Q101 268 118 332.5Q135 397 135 414Q135 423 130.5 428Q126 433 117 433Q101 433 83 421.5Q65 410 46 387L22 404Q54 456 97.5 485Q141 514 187 514Q225 514 247.5 489Q270 464 270 421Q270 408 267 389Q264 370 255 336Q251 322 250 317Q249 312 249 310H256Q303 407 362 460.5Q421 514 482 514Q519 514 545.5 487.5Q572 461 572 420Q572 394 561.5 353Q551 312 508 180L491 122Q484 102 483 97.5Q482 93 482 91Q482 88 483.5 86.5Q485 85 488 85Q497 85 519.5 100.5Q542 116 559 133L582 110Q541 53 488 19Q435 -15 384 -15Q355 -15 338.5 0.5Q322 16 322 42Q322 61 333.5 100.5Q345 140 373 219L384 250Q411 325 417.5 348.5Q424 372 424 387Q424 399 418.5 406Q413 413 403 413ZM325 585 256 740H324L395 688L496 740H564L405 585Z" glyph-name="ncaron" horiz-adv-x="605" unicode="&#328;" /><glyph d="M403 413Q393 413 380 405Q367 397 354 383Q303 327 258 232Q213 137 171 0L17 -3L72 172Q101 268 118 332.5Q135 397 135 414Q135 423 130.5 428Q126 433 117 433Q101 433 83 421.5Q65 410 46 387L22 404Q54 456 97.5 485Q141 514 187 514Q225 514 247.5 489Q270 464 270 421Q270 408 267 389Q264 370 255 336Q251 322 250 317Q249 312 249 310H256Q303 407 362 460.5Q421 514 482 514Q519 514 545.5 487.5Q572 461 572 420Q572 394 561.5 353Q551 312 508 180L491 122Q484 102 483 97.5Q482 93 482 91Q482 88 483.5 86.5Q485 85 488 85Q497 85 519.5 100.5Q542 116 559 133L582 110Q541 53 488 19Q435 -15 384 -15Q355 -15 338.5 0.5Q322 16 322 42Q322 61 333.5 100.5Q345 140 373 219L384 250Q411 325 417.5 348.5Q424 372 424 387Q424 399 418.5 406Q413 413 403 413ZM303 -112Q303 -162 254.5 -219Q206 -276 119 -329L93 -302Q140 -246 161.5 -210.5Q183 -175 183 -153Q183 -136 173.5 -127.5Q164 -119 146 -119Q144 -119 138 -120Q132 -121 123 -122L135 -76Q157 -60 180.5 -51Q204 -42 225 -42Q261 -42 282 -60.5Q303 -79 303 -112Z" glyph-name="ncommaaccent" horiz-adv-x="605" unicode="&#326;" /><glyph d="M434 136Q368 75 283 25.5Q198 -24 94 -61L69 -32Q160 32 229.5 100Q299 168 345 240Q328 234 310 231.5Q292 229 268 229Q182 229 128 281Q74 333 74 416Q74 472 97.5 528.5Q121 585 163 627Q205 670 258.5 692.5Q312 715 374 715Q476 715 543.5 648Q611 581 611 477Q611 398 564.5 306.5Q518 215 434 136ZM378 672Q326 672 288 595.5Q250 519 250 422Q250 360 282 323.5Q314 287 371 282Q407 348 425.5 418Q444 488 444 560Q444 615 427.5 643.5Q411 672 378 672Z" glyph-name="nine" horiz-adv-x="597" unicode="9" /><glyph d="M370 276Q364 185 276 99Q188 13 44 -37L26 -19Q85 19 130 60Q175 101 206 145Q192 140 180 138.5Q168 137 152 137Q96 137 61 171.5Q26 206 29 257Q33 327 90.5 378Q148 429 225 429Q292 429 333 386Q374 343 370 276ZM225 404Q194 404 170.5 363Q147 322 143 262Q141 220 161.5 195.5Q182 171 221 169Q241 204 253 242Q265 280 268 322Q268 365 257.5 384.5Q247 404 225 404Z" glyph-name="nine.dnom" horiz-adv-x="400" /><glyph d="M453 562Q447 471 359 385Q271 299 127 249L109 267Q168 305 213 346Q258 387 289 431Q275 426 263 424.5Q251 423 235 423Q179 423 144 457.5Q109 492 112 543Q116 613 173.5 664Q231 715 308 715Q375 715 416 672Q457 629 453 562ZM308 690Q277 690 253.5 649Q230 608 226 548Q224 506 244.5 481.5Q265 457 304 455Q324 490 336 528Q348 566 351 608Q351 651 340.5 670.5Q330 690 308 690Z" glyph-name="nine.numr" horiz-adv-x="400" /><glyph d="M362 11Q302 -45 223 -90.5Q144 -136 47 -172L23 -145Q108 -85 173 -22Q238 41 283 107Q266 101 248 98.5Q230 96 206 96Q128 96 78.5 143.5Q29 191 29 269Q29 321 51.5 373Q74 425 113 464Q152 503 202.5 523Q253 543 311 543Q406 543 465 483Q524 423 524 326Q524 249 482 165.5Q440 82 362 11ZM307 503Q259 503 224.5 432.5Q190 362 190 272Q190 214 220.5 180.5Q251 147 306 144Q339 202 355.5 261.5Q372 321 372 381Q372 444 356 473.5Q340 503 307 503Z" glyph-name="nine.pnum" horiz-adv-x="547" /><glyph d="M436 136Q370 75 285 25.5Q200 -24 96 -61L71 -32Q162 32 231.5 100Q301 168 347 240Q330 234 312 231.5Q294 229 270 229Q184 229 130 281Q76 333 76 416Q76 472 99.5 528.5Q123 585 165 627Q207 670 260.5 692.5Q314 715 376 715Q478 715 545.5 648Q613 581 613 477Q613 398 566.5 306.5Q520 215 436 136ZM380 672Q328 672 290 595.5Q252 519 252 422Q252 360 284 323.5Q316 287 373 282Q409 348 427.5 418Q446 488 446 560Q446 615 429.5 643.5Q413 672 380 672Z" glyph-name="nine.tnum" horiz-adv-x="600" /><glyph d="M342 176Q336 85 248 -1Q160 -87 16 -137L-2 -119Q57 -81 102 -40Q147 1 178 45Q164 40 152 38.5Q140 37 124 37Q68 37 33 71.5Q-2 106 1 157Q5 227 62.5 278Q120 329 197 329Q264 329 305 286Q346 243 342 176ZM197 304Q166 304 142.5 263Q119 222 115 162Q113 120 133.5 95.5Q154 71 193 69Q213 104 225 142Q237 180 240 222Q240 265 229.5 284.5Q219 304 197 304Z" glyph-name="nineinferior" horiz-adv-x="400" unicode="&#8329;" /><glyph d="M480 662Q474 571 386 485Q298 399 154 349L136 367Q195 405 240 446Q285 487 316 531Q302 526 290 524.5Q278 523 262 523Q206 523 171 557.5Q136 592 139 643Q143 713 200.5 764Q258 815 335 815Q402 815 443 772Q484 729 480 662ZM335 790Q304 790 280.5 749Q257 708 253 648Q251 606 271.5 581.5Q292 557 331 555Q351 590 363 628Q375 666 378 708Q378 751 367.5 770.5Q357 790 335 790Z" glyph-name="ninesuperior" horiz-adv-x="400" unicode="&#8313;" /><glyph d="M483 291 466 227H240L189 156L141 181L174 227H75L92 291H221L317 424H118L135 488H364L415 559L462 534L429 488H526L509 424H383L287 291Z" glyph-name="notequal" horiz-adv-x="540" unicode="&#8800;" /><glyph d="M403 413Q393 413 380 405Q367 397 354 383Q303 327 258 232Q213 137 171 0L17 -3L72 172Q101 268 118 332.5Q135 397 135 414Q135 423 130.5 428Q126 433 117 433Q101 433 83 421.5Q65 410 46 387L22 404Q54 456 97.5 485Q141 514 187 514Q225 514 247.5 489Q270 464 270 421Q270 408 267 389Q264 370 255 336Q251 322 250 317Q249 312 249 310H256Q303 407 362 460.5Q421 514 482 514Q519 514 545.5 487.5Q572 461 572 420Q572 394 561.5 353Q551 312 508 180L491 122Q484 102 483 97.5Q482 93 482 91Q482 88 483.5 86.5Q485 85 488 85Q497 85 519.5 100.5Q542 116 559 133L582 110Q541 53 488 19Q435 -15 384 -15Q355 -15 338.5 0.5Q322 16 322 42Q322 61 333.5 100.5Q345 140 373 219L384 250Q411 325 417.5 348.5Q424 372 424 387Q424 399 418.5 406Q413 413 403 413ZM301 618Q285 618 272.5 610.5Q260 603 247 585L209 599Q232 662 263.5 693.5Q295 725 338 725Q351 725 367.5 721Q384 717 416 705Q442 696 453 693Q464 690 472 690Q488 690 500.5 697.5Q513 705 525 722L563 709Q541 646 509 614Q477 582 434 582Q421 582 404 586Q387 590 355 603Q330 612 319.5 615Q309 618 301 618Z" glyph-name="ntilde" horiz-adv-x="605" unicode="&#241;" /><glyph d="M273 423 236 292H374L411 423ZM155 0H93L155 227H34L53 292H173L210 423H90L107 488H229L288 700H351L291 488H429L489 700H553L494 488H614L595 423H476L439 292H559L541 227H421L357 0H293L356 227H218Z" glyph-name="numbersign" horiz-adv-x="586" unicode="#" /><glyph d="M99 404Q141 457 195.5 485.5Q250 514 309 514Q392 514 442 458.5Q492 403 492 322Q492 262 470.5 203Q449 144 411 95Q368 43 313.5 14Q259 -15 201 -15Q118 -15 68 41Q18 97 18 177Q18 237 39.5 296.5Q61 356 99 404ZM167 108Q167 70 178 50.5Q189 31 210 31Q234 31 259.5 74.5Q285 118 307 196Q323 249 333 304Q343 359 343 391Q343 429 332.5 448.5Q322 468 301 468Q277 468 251 425Q225 382 202 304Q187 250 177 195Q167 140 167 108Z" glyph-name="o" horiz-adv-x="509" unicode="o" /><glyph d="M99 404Q141 457 195.5 485.5Q250 514 309 514Q392 514 442 458.5Q492 403 492 322Q492 262 470.5 203Q449 144 411 95Q368 43 313.5 14Q259 -15 201 -15Q118 -15 68 41Q18 97 18 177Q18 237 39.5 296.5Q61 356 99 404ZM167 108Q167 70 178 50.5Q189 31 210 31Q234 31 259.5 74.5Q285 118 307 196Q323 249 333 304Q343 359 343 391Q343 429 332.5 448.5Q322 468 301 468Q277 468 251 425Q225 382 202 304Q187 250 177 195Q167 140 167 108ZM333 575H285L356 730H529Z" glyph-name="oacute" horiz-adv-x="509" unicode="&#243;" /><glyph d="M99 404Q141 457 195.5 485.5Q250 514 309 514Q392 514 442 458.5Q492 403 492 322Q492 262 470.5 203Q449 144 411 95Q368 43 313.5 14Q259 -15 201 -15Q118 -15 68 41Q18 97 18 177Q18 237 39.5 296.5Q61 356 99 404ZM167 108Q167 70 178 50.5Q189 31 210 31Q234 31 259.5 74.5Q285 118 307 196Q323 249 333 304Q343 359 343 391Q343 429 332.5 448.5Q322 468 301 468Q277 468 251 425Q225 382 202 304Q187 250 177 195Q167 140 167 108ZM323 574Q250 574 214.5 616.5Q179 659 195 721L201 747H256L255 741Q250 706 268 692.5Q286 679 328 679Q369 679 395 694.5Q421 710 433 741L435 747H491L483 708Q470 646 428 610Q386 574 323 574Z" glyph-name="obreve" horiz-adv-x="509" unicode="&#335;" /><glyph d="M99 404Q141 457 195.5 485.5Q250 514 309 514Q392 514 442 458.5Q492 403 492 322Q492 262 470.5 203Q449 144 411 95Q368 43 313.5 14Q259 -15 201 -15Q118 -15 68 41Q18 97 18 177Q18 237 39.5 296.5Q61 356 99 404ZM167 108Q167 70 178 50.5Q189 31 210 31Q234 31 259.5 74.5Q285 118 307 196Q323 249 333 304Q343 359 343 391Q343 429 332.5 448.5Q322 468 301 468Q277 468 251 425Q225 382 202 304Q187 250 177 195Q167 140 167 108ZM228 575H159L319 730H399L468 575H400L329 627Z" glyph-name="ocircumflex" horiz-adv-x="509" unicode="&#244;" /><glyph d="M99 404Q141 457 195.5 485.5Q250 514 309 514Q392 514 442 458.5Q492 403 492 322Q492 262 470.5 203Q449 144 411 95Q368 43 313.5 14Q259 -15 201 -15Q118 -15 68 41Q18 97 18 177Q18 237 39.5 296.5Q61 356 99 404ZM167 108Q167 70 178 50.5Q189 31 210 31Q234 31 259.5 74.5Q285 118 307 196Q323 249 333 304Q343 359 343 391Q343 429 332.5 448.5Q322 468 301 468Q277 468 251 425Q225 382 202 304Q187 250 177 195Q167 140 167 108ZM486 652Q486 624 465.5 603Q445 582 416 582Q387 582 367.5 602.5Q348 623 348 652Q348 682 367.5 702.5Q387 723 416 723Q445 723 465.5 702Q486 681 486 652ZM309 652Q309 623 288.5 602.5Q268 582 240 582Q212 582 191.5 602.5Q171 623 171 652Q171 681 191.5 702Q212 723 240 723Q268 723 288.5 702Q309 681 309 652Z" glyph-name="odieresis" horiz-adv-x="509" unicode="&#246;" /><glyph d="M490 302Q494 302 497.5 302Q501 302 504 302Q566 302 614 338Q662 374 662 424Q662 446 650 459Q638 472 617 472Q582 472 546 423.5Q510 375 490 302ZM167 108Q167 70 178 50.5Q189 31 210 31Q234 31 259.5 74.5Q285 118 307 196Q323 249 333 304Q343 359 343 391Q343 428 332.5 447.5Q322 467 301 467Q277 467 251.5 424Q226 381 203 303Q187 250 177 195Q167 140 167 108ZM670 157 700 134Q668 64 610 24.5Q552 -15 483 -15Q444 -15 410.5 0.5Q377 16 353 45Q317 15 279.5 0Q242 -15 201 -15Q118 -15 68 41Q18 97 18 177Q18 234 38 293Q58 352 94 401Q135 455 187 484.5Q239 514 296 514Q344 514 383 496Q422 478 444 446Q483 479 527 496.5Q571 514 616 514Q668 514 700 486.5Q732 459 732 417Q732 353 675.5 308Q619 263 529 263Q518 263 506 264Q494 265 481 266Q478 250 476 233Q474 216 474 199Q475 147 498 118Q521 89 558 89Q590 89 616 105Q642 121 670 157Z" glyph-name="oe" horiz-adv-x="735" unicode="&#339;" /><glyph d="M168 -168Q170 -168 173 -168.5Q176 -169 183 -168L158 -211Q136 -218 117 -222Q98 -226 81 -226Q44 -226 18.5 -205Q-7 -184 -7 -152Q-7 -118 24 -80Q55 -42 154 27L168 15Q126 -62 116.5 -87.5Q107 -113 107 -130Q107 -148 123 -158Q139 -168 168 -168Z" glyph-name="ogonek" horiz-adv-x="292" unicode="&#731;" /><glyph d="M99 404Q141 457 195.5 485.5Q250 514 309 514Q392 514 442 458.5Q492 403 492 322Q492 262 470.5 203Q449 144 411 95Q368 43 313.5 14Q259 -15 201 -15Q118 -15 68 41Q18 97 18 177Q18 237 39.5 296.5Q61 356 99 404ZM167 108Q167 70 178 50.5Q189 31 210 31Q234 31 259.5 74.5Q285 118 307 196Q323 249 333 304Q343 359 343 391Q343 429 332.5 448.5Q322 468 301 468Q277 468 251 425Q225 382 202 304Q187 250 177 195Q167 140 167 108ZM342 575H293L132 730H283Z" glyph-name="ograve" horiz-adv-x="509" unicode="&#242;" /><glyph d="M99 404Q141 457 195.5 485.5Q250 514 309 514Q392 514 442 458.5Q492 403 492 322Q492 262 470.5 203Q449 144 411 95Q368 43 313.5 14Q259 -15 201 -15Q118 -15 68 41Q18 97 18 177Q18 237 39.5 296.5Q61 356 99 404ZM167 108Q167 70 178 50.5Q189 31 210 31Q234 31 259.5 74.5Q285 118 307 196Q323 249 333 304Q343 359 343 391Q343 429 332.5 448.5Q322 468 301 468Q277 468 251 425Q225 382 202 304Q187 250 177 195Q167 140 167 108ZM431 575H383L454 730H627ZM227 575H179L250 730H423Z" glyph-name="ohungarumlaut" horiz-adv-x="509" unicode="&#337;" /></font>
</defs>
</svg>
