<?xml version="1.0" standalone="no"?><!DOCTYPE svg PUBLIC "-//W3C//DTD SVG 1.1//EN" "http://www.w3.org/Graphics/SVG/1.1/DTD/svg11.dtd" ><svg version="1.1" xmlns="http://www.w3.org/2000/svg"><defs><font horiz-adv-x="0" id="font"><font-face ascent="750" bbox="-228 -297 1154 951" cap-height="700" descent="-250" font-family="Fresh Serif" font-stretch="normal" font-style="italic" font-weight="300" units-per-em="1000" x-height="494" /><missing-glyph d="M652 0H152V700H652ZM583 661H220L402 385ZM196 73 378 350 196 627ZM606 624 425 350 606 76ZM584 38 402 314 220 38Z" horiz-adv-x="740" /><glyph glyph-name=".null" horiz-adv-x="0" /><glyph d="M484 647H482L249 306H467ZM118 34 162 23 155 0H-83L-76 23L-46 32Q-15 41 8 56.5Q31 72 48 95L489 700H494Q511 700 523.5 704Q536 708 549 719H551L528 95Q527 67 535.5 53.5Q544 40 566 32L591 23L584 0H344L351 23L405 32Q432 36 444 52.5Q456 69 457 99L465 271H225L105 96Q87 70 90.5 55Q94 40 118 34Z" glyph-name="A" horiz-adv-x="680" unicode="A" /><glyph d="M461 306 547 605Q551 620 551.5 630.5Q552 641 548 648L272 306ZM116 33 161 23 154 0H-90L-83 23L-56 32Q-23 43 0.5 58.5Q24 74 46 100L524 666L518 668L481 677L488 700H754Q814 700 866.5 702Q919 704 964 708L916 546H887L884 619Q885 646 877.5 655Q870 664 851 664L635 667L553 381L658 384Q686 385 702 394.5Q718 404 730 426L762 480H782L715 246H695L694 300Q694 321 684 330Q674 339 646 342L543 345L472 97Q462 64 473 48.5Q484 33 516 34L687 36Q731 37 756.5 54Q782 71 833 145L866 194H894L820 0H287L294 23L335 32Q362 38 378 53Q394 68 401 95L451 271H243L105 100Q83 73 86 56Q89 39 116 33Z" glyph-name="AE" horiz-adv-x="938" unicode="&#198;" /><glyph d="M484 647H482L249 306H467ZM118 34 162 23 155 0H-83L-76 23L-46 32Q-15 41 8 56.5Q31 72 48 95L489 700H494Q511 700 523.5 704Q536 708 549 719H551L528 95Q527 67 535.5 53.5Q544 40 566 32L591 23L584 0H344L351 23L405 32Q432 36 444 52.5Q456 69 457 99L465 271H225L105 96Q87 70 90.5 55Q94 40 118 34ZM533 765H514L619 912H714Z" glyph-name="Aacute" horiz-adv-x="680" unicode="&#193;" /><glyph d="M484 647H482L249 306H467ZM118 34 162 23 155 0H-83L-76 23L-46 32Q-15 41 8 56.5Q31 72 48 95L489 700H494Q511 700 523.5 704Q536 708 549 719H551L528 95Q527 67 535.5 53.5Q544 40 566 32L591 23L584 0H344L351 23L405 32Q432 36 444 52.5Q456 69 457 99L465 271H225L105 96Q87 70 90.5 55Q94 40 118 34ZM544 764Q484 764 455.5 799.5Q427 835 440 881L445 898H479L477 892Q470 862 489.5 842.5Q509 823 550 823Q591 823 619.5 842.5Q648 862 655 892L657 898H691L685 874Q672 822 635.5 793Q599 764 544 764Z" glyph-name="Abreve" horiz-adv-x="680" unicode="&#258;" /><glyph d="M484 647H482L249 306H467ZM118 34 162 23 155 0H-83L-76 23L-46 32Q-15 41 8 56.5Q31 72 48 95L489 700H494Q511 700 523.5 704Q536 708 549 719H551L528 95Q527 67 535.5 53.5Q544 40 566 32L591 23L584 0H344L351 23L405 32Q432 36 444 52.5Q456 69 457 99L465 271H225L105 96Q87 70 90.5 55Q94 40 118 34ZM440 765H411L543 912H589L641 765H612L549 848Z" glyph-name="Acircumflex" horiz-adv-x="680" unicode="&#194;" /><glyph d="M484 647H482L249 306H467ZM118 34 162 23 155 0H-83L-76 23L-46 32Q-15 41 8 56.5Q31 72 48 95L489 700H494Q511 700 523.5 704Q536 708 549 719H551L528 95Q527 67 535.5 53.5Q544 40 566 32L591 23L584 0H344L351 23L405 32Q432 36 444 52.5Q456 69 457 99L465 271H225L105 96Q87 70 90.5 55Q94 40 118 34ZM665 838Q665 816 650 801Q635 786 613 786Q591 786 576 801Q561 816 561 838Q561 860 576 875Q591 890 613 890Q635 890 650 875Q665 860 665 838ZM509 838Q509 816 494 801Q479 786 457 786Q435 786 420 801Q405 816 405 838Q405 860 420 875Q435 890 457 890Q479 890 494 875Q509 860 509 838Z" glyph-name="Adieresis" horiz-adv-x="680" unicode="&#196;" /><glyph d="M484 647H482L249 306H467ZM118 34 162 23 155 0H-83L-76 23L-46 32Q-15 41 8 56.5Q31 72 48 95L489 700H494Q511 700 523.5 704Q536 708 549 719H551L528 95Q527 67 535.5 53.5Q544 40 566 32L591 23L584 0H344L351 23L405 32Q432 36 444 52.5Q456 69 457 99L465 271H225L105 96Q87 70 90.5 55Q94 40 118 34ZM537 765H518L387 912H470Z" glyph-name="Agrave" horiz-adv-x="680" unicode="&#192;" /><glyph d="M484 647H482L249 306H467ZM118 34 162 23 155 0H-83L-76 23L-46 32Q-15 41 8 56.5Q31 72 48 95L489 700H494Q511 700 523.5 704Q536 708 549 719H551L528 95Q527 67 535.5 53.5Q544 40 566 32L591 23L584 0H344L351 23L405 32Q432 36 444 52.5Q456 69 457 99L465 271H225L105 96Q87 70 90.5 55Q94 40 118 34ZM669 791H398L413 838H684Z" glyph-name="Amacron" horiz-adv-x="680" unicode="&#256;" /><glyph d="M484 647H482L249 306H467ZM547 -152 538 -173Q525 -181 508.5 -185Q492 -189 475 -189Q443 -189 422.5 -172Q402 -155 402 -126Q402 -98 431.5 -64.5Q461 -31 511 0H344L351 23L405 32Q432 36 444 52.5Q456 69 457 99L465 271H225L105 96Q87 70 90.5 55Q94 40 118 34L162 23L155 0H-83L-76 23L-46 32Q-15 41 8 56.5Q31 72 48 95L489 700H494Q511 700 523.5 704Q536 708 549 719H551L528 95Q527 67 535.5 53.5Q544 40 566 32L591 23L584 0H535Q499 -48 485 -74.5Q471 -101 471 -118Q471 -135 483.5 -144.5Q496 -154 516 -154Q525 -154 533 -153.5Q541 -153 547 -152Z" glyph-name="Aogonek" horiz-adv-x="680" unicode="&#260;" /><glyph d="M484 647H482L249 306H467ZM118 34 162 23 155 0H-83L-76 23L-46 32Q-15 41 8 56.5Q31 72 48 95L489 700H494Q511 700 523.5 704Q536 708 549 719H551L528 95Q527 67 535.5 53.5Q544 40 566 32L591 23L584 0H344L351 23L405 32Q432 36 444 52.5Q456 69 457 99L465 271H225L105 96Q87 70 90.5 55Q94 40 118 34ZM642 855Q642 816 613.5 788Q585 760 546 760Q506 760 478 787.5Q450 815 450 855Q450 894 478.5 922.5Q507 951 546 951Q585 951 613.5 922.5Q642 894 642 855ZM482 855Q482 828 500.5 809Q519 790 546 790Q572 790 591 809Q610 828 610 855Q610 882 591 901.5Q572 921 546 921Q519 921 500.5 901.5Q482 882 482 855Z" glyph-name="Aring" horiz-adv-x="680" unicode="&#197;" /><glyph d="M484 647H482L249 306H467ZM118 34 162 23 155 0H-83L-76 23L-46 32Q-15 41 8 56.5Q31 72 48 95L489 700H494Q511 700 523.5 704Q536 708 549 719H551L528 95Q527 67 535.5 53.5Q544 40 566 32L591 23L584 0H344L351 23L405 32Q432 36 444 52.5Q456 69 457 99L465 271H225L105 96Q87 70 90.5 55Q94 40 118 34ZM459 816Q444 816 434.5 807Q425 798 416 772L396 776Q409 824 430.5 847Q452 870 486 870Q497 870 512 866.5Q527 863 560 853Q590 843 603.5 840Q617 837 626 837Q641 837 650.5 846Q660 855 669 881L689 877Q676 829 654.5 806Q633 783 599 783Q588 783 573 786.5Q558 790 525 800Q495 810 481.5 813Q468 816 459 816Z" glyph-name="Atilde" horiz-adv-x="680" unicode="&#195;" /><glyph d="M265 0H-15L-8 23L33 32Q60 38 76 53Q92 68 99 95L245 605Q254 632 246.5 647Q239 662 216 668L179 677L186 700H392Q484 700 540 657.5Q596 615 596 549Q596 483 538 434Q480 385 390 370L389 367Q463 353 512 308Q561 263 561 205Q561 113 478 56.5Q395 0 265 0ZM334 672 252 385 330 388Q413 392 469 435Q525 478 525 545Q525 602 486 637Q447 672 377 672ZM208 32H259Q365 32 425 78.5Q485 125 485 208Q485 268 437.5 308Q390 348 318 352L244 356L169 95Q160 60 168.5 46Q177 32 208 32Z" glyph-name="B" horiz-adv-x="623" unicode="B" /><glyph d="M364 -15Q236 -15 159.5 68Q83 151 83 281Q83 308 87 335.5Q91 363 98 390Q140 537 260.5 626Q381 715 542 715Q594 715 652 704.5Q710 694 750 677L702 516H672L669 566Q665 635 635.5 657.5Q606 680 535 680Q414 680 316.5 599.5Q219 519 179 380Q172 353 168 326Q164 299 164 273Q164 162 224 91Q284 20 381 20Q417 20 442 28Q467 36 487 54Q498 63 509.5 77Q521 91 558 145L591 194H619L554 24Q504 3 459 -6Q414 -15 364 -15Z" glyph-name="C" horiz-adv-x="684" unicode="C" /><glyph glyph-name="CR" horiz-adv-x="0" /><glyph d="M364 -15Q236 -15 159.5 68Q83 151 83 281Q83 308 87 335.5Q91 363 98 390Q140 537 260.5 626Q381 715 542 715Q594 715 652 704.5Q710 694 750 677L702 516H672L669 566Q665 635 635.5 657.5Q606 680 535 680Q414 680 316.5 599.5Q219 519 179 380Q172 353 168 326Q164 299 164 273Q164 162 224 91Q284 20 381 20Q417 20 442 28Q467 36 487 54Q498 63 509.5 77Q521 91 558 145L591 194H619L554 24Q504 3 459 -6Q414 -15 364 -15ZM519 765H500L605 912H700Z" glyph-name="Cacute" horiz-adv-x="684" unicode="&#262;" /><glyph d="M364 -15Q236 -15 159.5 68Q83 151 83 281Q83 308 87 335.5Q91 363 98 390Q140 537 260.5 626Q381 715 542 715Q594 715 652 704.5Q710 694 750 677L702 516H672L669 566Q665 635 635.5 657.5Q606 680 535 680Q414 680 316.5 599.5Q219 519 179 380Q172 353 168 326Q164 299 164 273Q164 162 224 91Q284 20 381 20Q417 20 442 28Q467 36 487 54Q498 63 509.5 77Q521 91 558 145L591 194H619L554 24Q504 3 459 -6Q414 -15 364 -15ZM489 765 437 912H466L529 829L638 912H667L535 765Z" glyph-name="Ccaron" horiz-adv-x="684" unicode="&#268;" /><glyph d="M380 -140Q380 -178 349 -201.5Q318 -225 273 -225Q253 -225 234 -221Q215 -217 197 -209V-179Q209 -185 225 -188.5Q241 -192 254 -192Q282 -192 299.5 -179Q317 -166 317 -144Q317 -124 297.5 -106.5Q278 -89 253 -83V-80L318 -12Q210 3 146.5 83.5Q83 164 83 281Q83 308 87 335.5Q91 363 98 390Q140 537 260.5 626Q381 715 542 715Q594 715 652 704.5Q710 694 750 677L702 516H672L669 566Q665 635 635.5 657.5Q606 680 535 680Q414 680 316.5 599.5Q219 519 179 380Q172 353 168 326Q164 299 164 273Q164 162 224 91Q284 20 381 20Q417 20 442 28Q467 36 487 54Q498 63 509.5 77Q521 91 558 145L591 194H619L554 24Q504 3 459 -6Q414 -15 364 -15Q354 -15 349 -15Q344 -15 340 -14L312 -64Q338 -69 359 -90.5Q380 -112 380 -140Z" glyph-name="Ccedilla" horiz-adv-x="684" unicode="&#199;" /><glyph d="M364 -15Q236 -15 159.5 68Q83 151 83 281Q83 308 87 335.5Q91 363 98 390Q140 537 260.5 626Q381 715 542 715Q594 715 652 704.5Q710 694 750 677L702 516H672L669 566Q665 635 635.5 657.5Q606 680 535 680Q414 680 316.5 599.5Q219 519 179 380Q172 353 168 326Q164 299 164 273Q164 162 224 91Q284 20 381 20Q417 20 442 28Q467 36 487 54Q498 63 509.5 77Q521 91 558 145L591 194H619L554 24Q504 3 459 -6Q414 -15 364 -15ZM426 765H397L529 912H575L627 765H598L535 848Z" glyph-name="Ccircumflex" horiz-adv-x="684" unicode="&#264;" /><glyph d="M364 -15Q236 -15 159.5 68Q83 151 83 281Q83 308 87 335.5Q91 363 98 390Q140 537 260.5 626Q381 715 542 715Q594 715 652 704.5Q710 694 750 677L702 516H672L669 566Q665 635 635.5 657.5Q606 680 535 680Q414 680 316.5 599.5Q219 519 179 380Q172 353 168 326Q164 299 164 273Q164 162 224 91Q284 20 381 20Q417 20 442 28Q467 36 487 54Q498 63 509.5 77Q521 91 558 145L591 194H619L554 24Q504 3 459 -6Q414 -15 364 -15ZM570 834Q570 812 554.5 796.5Q539 781 517 781Q495 781 479.5 796.5Q464 812 464 834Q464 856 479.5 871Q495 886 517 886Q539 886 554.5 871Q570 856 570 834Z" glyph-name="Cdotaccent" horiz-adv-x="684" unicode="&#266;" /><glyph d="M746 417Q746 392 742.5 367.5Q739 343 732 318Q689 168 559.5 84Q430 0 251 0H-15L-8 23L33 32Q60 38 76 53Q92 68 99 95L245 605Q253 632 246 647Q239 662 216 668L179 677L186 700H417Q563 700 654.5 621.5Q746 543 746 417ZM222 34H248Q399 34 504.5 106Q610 178 651 313Q659 341 663.5 368.5Q668 396 668 423Q668 534 592.5 600.5Q517 667 393 667H333L170 97Q161 67 174.5 50.5Q188 34 222 34Z" glyph-name="D" horiz-adv-x="763" unicode="D" /><glyph d="M746 417Q746 392 742.5 367.5Q739 343 732 318Q689 168 559.5 84Q430 0 251 0H-15L-8 23L33 32Q60 38 76 53Q92 68 99 95L245 605Q253 632 246 647Q239 662 216 668L179 677L186 700H417Q563 700 654.5 621.5Q746 543 746 417ZM222 34H248Q399 34 504.5 106Q610 178 651 313Q659 341 663.5 368.5Q668 396 668 423Q668 534 592.5 600.5Q517 667 393 667H333L170 97Q161 67 174.5 50.5Q188 34 222 34ZM470 765 418 912H447L510 829L619 912H648L516 765Z" glyph-name="Dcaron" horiz-adv-x="763" unicode="&#270;" /><glyph d="M733 318Q690 168 560.5 84Q431 0 252 0H-14L-7 23L34 32Q61 38 77 53Q93 68 100 95L168 333H81L91 366H178L246 605Q254 632 247 647Q240 662 217 668L180 677L187 700H418Q564 700 655.5 621.5Q747 543 747 417Q747 392 743.5 367.5Q740 343 733 318ZM223 34H249Q400 34 505.5 106Q611 178 652 313Q660 341 664.5 368.5Q669 396 669 423Q669 534 593.5 600.5Q518 667 394 667H334L248 366H474L464 333H238L171 97Q162 67 175.5 50.5Q189 34 223 34Z" glyph-name="Dcroat" horiz-adv-x="764" unicode="&#272;" /><glyph d="M592 194 518 0H-15L-8 23L33 32Q60 38 76 53Q92 68 99 95L245 605Q253 632 246 647Q239 662 216 668L179 677L186 700H452Q512 700 564.5 702Q617 704 662 708L614 546H585L582 619Q583 646 575.5 655Q568 664 549 664L333 667L251 381L356 384Q384 385 400 394.5Q416 404 428 426L460 480H480L413 246H393L392 300Q392 321 382 330Q372 339 344 342L241 345L170 97Q160 64 171 48.5Q182 33 214 34L385 36Q429 37 454.5 54Q480 71 531 145L564 194Z" glyph-name="E" horiz-adv-x="636" unicode="E" /><glyph d="M592 194 518 0H-15L-8 23L33 32Q60 38 76 53Q92 68 99 95L245 605Q253 632 246 647Q239 662 216 668L179 677L186 700H452Q512 700 564.5 702Q617 704 662 708L614 546H585L582 619Q583 646 575.5 655Q568 664 549 664L333 667L251 381L356 384Q384 385 400 394.5Q416 404 428 426L460 480H480L413 246H393L392 300Q392 321 382 330Q372 339 344 342L241 345L170 97Q160 64 171 48.5Q182 33 214 34L385 36Q429 37 454.5 54Q480 71 531 145L564 194ZM465 765H446L551 912H646Z" glyph-name="Eacute" horiz-adv-x="636" unicode="&#201;" /><glyph d="M592 194 518 0H-15L-8 23L33 32Q60 38 76 53Q92 68 99 95L245 605Q253 632 246 647Q239 662 216 668L179 677L186 700H452Q512 700 564.5 702Q617 704 662 708L614 546H585L582 619Q583 646 575.5 655Q568 664 549 664L333 667L251 381L356 384Q384 385 400 394.5Q416 404 428 426L460 480H480L413 246H393L392 300Q392 321 382 330Q372 339 344 342L241 345L170 97Q160 64 171 48.5Q182 33 214 34L385 36Q429 37 454.5 54Q480 71 531 145L564 194ZM476 764Q416 764 387.5 799.5Q359 835 372 881L377 898H411L409 892Q402 862 421.5 842.5Q441 823 482 823Q523 823 551.5 842.5Q580 862 587 892L589 898H623L617 874Q604 822 567.5 793Q531 764 476 764Z" glyph-name="Ebreve" horiz-adv-x="636" unicode="&#276;" /><glyph d="M592 194 518 0H-15L-8 23L33 32Q60 38 76 53Q92 68 99 95L245 605Q253 632 246 647Q239 662 216 668L179 677L186 700H452Q512 700 564.5 702Q617 704 662 708L614 546H585L582 619Q583 646 575.5 655Q568 664 549 664L333 667L251 381L356 384Q384 385 400 394.5Q416 404 428 426L460 480H480L413 246H393L392 300Q392 321 382 330Q372 339 344 342L241 345L170 97Q160 64 171 48.5Q182 33 214 34L385 36Q429 37 454.5 54Q480 71 531 145L564 194ZM435 765 383 912H412L475 829L584 912H613L481 765Z" glyph-name="Ecaron" horiz-adv-x="636" unicode="&#282;" /><glyph d="M592 194 518 0H-15L-8 23L33 32Q60 38 76 53Q92 68 99 95L245 605Q253 632 246 647Q239 662 216 668L179 677L186 700H452Q512 700 564.5 702Q617 704 662 708L614 546H585L582 619Q583 646 575.5 655Q568 664 549 664L333 667L251 381L356 384Q384 385 400 394.5Q416 404 428 426L460 480H480L413 246H393L392 300Q392 321 382 330Q372 339 344 342L241 345L170 97Q160 64 171 48.5Q182 33 214 34L385 36Q429 37 454.5 54Q480 71 531 145L564 194ZM372 765H343L475 912H521L573 765H544L481 848Z" glyph-name="Ecircumflex" horiz-adv-x="636" unicode="&#202;" /><glyph d="M592 194 518 0H-15L-8 23L33 32Q60 38 76 53Q92 68 99 95L245 605Q253 632 246 647Q239 662 216 668L179 677L186 700H452Q512 700 564.5 702Q617 704 662 708L614 546H585L582 619Q583 646 575.5 655Q568 664 549 664L333 667L251 381L356 384Q384 385 400 394.5Q416 404 428 426L460 480H480L413 246H393L392 300Q392 321 382 330Q372 339 344 342L241 345L170 97Q160 64 171 48.5Q182 33 214 34L385 36Q429 37 454.5 54Q480 71 531 145L564 194ZM597 838Q597 816 582 801Q567 786 545 786Q523 786 508 801Q493 816 493 838Q493 860 508 875Q523 890 545 890Q567 890 582 875Q597 860 597 838ZM441 838Q441 816 426 801Q411 786 389 786Q367 786 352 801Q337 816 337 838Q337 860 352 875Q367 890 389 890Q411 890 426 875Q441 860 441 838Z" glyph-name="Edieresis" horiz-adv-x="636" unicode="&#203;" /><glyph d="M592 194 518 0H-15L-8 23L33 32Q60 38 76 53Q92 68 99 95L245 605Q253 632 246 647Q239 662 216 668L179 677L186 700H452Q512 700 564.5 702Q617 704 662 708L614 546H585L582 619Q583 646 575.5 655Q568 664 549 664L333 667L251 381L356 384Q384 385 400 394.5Q416 404 428 426L460 480H480L413 246H393L392 300Q392 321 382 330Q372 339 344 342L241 345L170 97Q160 64 171 48.5Q182 33 214 34L385 36Q429 37 454.5 54Q480 71 531 145L564 194ZM516 834Q516 812 500.5 796.5Q485 781 463 781Q441 781 425.5 796.5Q410 812 410 834Q410 856 425.5 871Q441 886 463 886Q485 886 500.5 871Q516 856 516 834Z" glyph-name="Edotaccent" horiz-adv-x="636" unicode="&#278;" /><glyph d="M592 194 518 0H-15L-8 23L33 32Q60 38 76 53Q92 68 99 95L245 605Q253 632 246 647Q239 662 216 668L179 677L186 700H452Q512 700 564.5 702Q617 704 662 708L614 546H585L582 619Q583 646 575.5 655Q568 664 549 664L333 667L251 381L356 384Q384 385 400 394.5Q416 404 428 426L460 480H480L413 246H393L392 300Q392 321 382 330Q372 339 344 342L241 345L170 97Q160 64 171 48.5Q182 33 214 34L385 36Q429 37 454.5 54Q480 71 531 145L564 194ZM469 765H450L319 912H402Z" glyph-name="Egrave" horiz-adv-x="636" unicode="&#200;" /><glyph d="M592 194 518 0H-15L-8 23L33 32Q60 38 76 53Q92 68 99 95L245 605Q253 632 246 647Q239 662 216 668L179 677L186 700H452Q512 700 564.5 702Q617 704 662 708L614 546H585L582 619Q583 646 575.5 655Q568 664 549 664L333 667L251 381L356 384Q384 385 400 394.5Q416 404 428 426L460 480H480L413 246H393L392 300Q392 321 382 330Q372 339 344 342L241 345L170 97Q160 64 171 48.5Q182 33 214 34L385 36Q429 37 454.5 54Q480 71 531 145L564 194ZM601 791H330L345 838H616Z" glyph-name="Emacron" horiz-adv-x="636" unicode="&#274;" /><glyph d="M399 -215Q354 -215 322 -193Q290 -171 290 -136Q291 -114 306.5 -98Q322 -82 343 -82Q365 -82 382 -98.5Q399 -115 398 -136Q399 -148 394 -160Q389 -172 381 -180Q384 -181 390.5 -182Q397 -183 401 -183Q444 -183 476 -154Q508 -125 523 -75L545 3L288 596H287L144 95Q136 67 144 52.5Q152 38 177 33L231 23L224 0H-19L-12 23L29 32Q55 38 70.5 52.5Q86 67 95 95L258 629L254 637Q246 651 234 659.5Q222 668 205 672L177 678L184 700H325Q346 647 364 602.5Q382 558 397 521L579 97H580L706 605Q712 632 704 646.5Q696 661 673 667L630 677L637 700H870L863 677L822 668Q796 662 780.5 647.5Q765 633 756 605L580 -10H579L563 -68Q542 -140 500.5 -177.5Q459 -215 399 -215Z" glyph-name="Eng" horiz-adv-x="780" unicode="&#330;" /><glyph d="M461 -152 452 -173Q439 -181 422.5 -185Q406 -189 389 -189Q357 -189 336.5 -172Q316 -155 316 -126Q316 -98 345.5 -64.5Q375 -31 425 0H-15L-8 23L33 32Q60 38 76 53Q92 68 99 95L245 605Q253 632 246 647Q239 662 216 668L179 677L186 700H452Q512 700 564.5 702Q617 704 662 708L614 546H585L582 619Q583 646 575.5 655Q568 664 549 664L333 667L251 381L356 384Q384 385 400 394.5Q416 404 428 426L460 480H480L413 246H393L392 300Q392 321 382 330Q372 339 344 342L241 345L170 97Q160 64 171 48.5Q182 33 214 34L385 36Q429 37 454.5 54Q480 71 531 145L564 194H592L518 0H449Q413 -48 399 -74.5Q385 -101 385 -118Q385 -135 397.5 -144.5Q410 -154 430 -154Q439 -154 447 -153.5Q455 -153 461 -152Z" glyph-name="Eogonek" horiz-adv-x="636" unicode="&#280;" /><glyph d="M733 318Q690 168 560.5 84Q431 0 252 0H-14L-7 23L34 32Q61 38 77 53Q93 68 100 95L168 333H81L91 366H178L246 605Q254 632 247 647Q240 662 217 668L180 677L187 700H418Q564 700 655.5 621.5Q747 543 747 417Q747 392 743.5 367.5Q740 343 733 318ZM223 34H249Q400 34 505.5 106Q611 178 652 313Q660 341 664.5 368.5Q669 396 669 423Q669 534 593.5 600.5Q518 667 394 667H334L248 366H474L464 333H238L171 97Q162 67 175.5 50.5Q189 34 223 34Z" glyph-name="Eth" horiz-adv-x="764" unicode="&#208;" /><glyph d="M616 175 555 14Q506 -1 465.5 -8Q425 -15 386 -15Q272 -15 211.5 55Q151 125 156 247H55L67 288H160Q164 322 172.5 357Q181 392 194 427H105L117 468H212Q267 584 357.5 649.5Q448 715 556 715Q580 715 603.5 713Q627 711 650 707Q679 703 702 697Q725 691 742 684L688 525H656L660 565Q667 625 640 653.5Q613 682 550 682Q472 682 405.5 626.5Q339 571 293 468H526L514 427H276Q263 392 254 357Q245 322 240 288H476L464 247H235Q234 245 234 243.5Q234 242 234 238Q230 191 237 151Q244 111 262 82Q282 50 312.5 34Q343 18 383 18Q415 18 442 26Q469 34 491 50Q506 60 519 75Q532 90 561 138L584 175Z" glyph-name="Euro" horiz-adv-x="695" unicode="&#8364;" /><glyph d="M238 335 169 95Q161 66 168.5 52Q176 38 201 33L255 23L248 0H-15L-8 23L33 32Q60 38 76 53Q92 68 99 95L245 605Q253 632 246 647Q239 662 216 668L179 677L186 700H472Q532 700 584.5 702Q637 704 682 708L634 546H605L602 619Q603 646 595.5 655Q588 664 569 664L333 667L248 371L391 374Q420 375 435.5 384.5Q451 394 463 416L495 470H515L448 236H428L427 290Q427 312 416 321.5Q405 331 379 332Z" glyph-name="F" horiz-adv-x="587" unicode="F" /><glyph d="M543 680Q416 680 317 600Q218 520 178 380Q171 356 167.5 331Q164 306 164 280Q164 168 231.5 96Q299 24 406 24Q472 24 502.5 38Q533 52 544 93L582 225Q591 253 583.5 267.5Q576 282 553 287L507 297L514 320H748L741 297L716 291Q692 285 677 270.5Q662 256 653 225L610 74H652L645 49Q560 13 502 -1Q444 -15 390 -15Q253 -15 167.5 68Q82 151 82 281Q82 307 86 333Q90 359 97 386Q140 536 259.5 625.5Q379 715 543 715Q593 715 659 704Q725 693 768 677L720 516H690L687 566Q684 625 649 652.5Q614 680 543 680Z" glyph-name="G" horiz-adv-x="762" unicode="G" /><glyph d="M543 680Q416 680 317 600Q218 520 178 380Q171 356 167.5 331Q164 306 164 280Q164 168 231.5 96Q299 24 406 24Q472 24 502.5 38Q533 52 544 93L582 225Q591 253 583.5 267.5Q576 282 553 287L507 297L514 320H748L741 297L716 291Q692 285 677 270.5Q662 256 653 225L610 74H652L645 49Q560 13 502 -1Q444 -15 390 -15Q253 -15 167.5 68Q82 151 82 281Q82 307 86 333Q90 359 97 386Q140 536 259.5 625.5Q379 715 543 715Q593 715 659 704Q725 693 768 677L720 516H690L687 566Q684 625 649 652.5Q614 680 543 680ZM549 764Q489 764 460.5 799.5Q432 835 445 881L450 898H484L482 892Q475 862 494.5 842.5Q514 823 555 823Q596 823 624.5 842.5Q653 862 660 892L662 898H696L690 874Q677 822 640.5 793Q604 764 549 764Z" glyph-name="Gbreve" horiz-adv-x="762" unicode="&#286;" /><glyph d="M543 680Q416 680 317 600Q218 520 178 380Q171 356 167.5 331Q164 306 164 280Q164 168 231.5 96Q299 24 406 24Q472 24 502.5 38Q533 52 544 93L582 225Q591 253 583.5 267.5Q576 282 553 287L507 297L514 320H748L741 297L716 291Q692 285 677 270.5Q662 256 653 225L610 74H652L645 49Q560 13 502 -1Q444 -15 390 -15Q253 -15 167.5 68Q82 151 82 281Q82 307 86 333Q90 359 97 386Q140 536 259.5 625.5Q379 715 543 715Q593 715 659 704Q725 693 768 677L720 516H690L687 566Q684 625 649 652.5Q614 680 543 680ZM445 765H416L548 912H594L646 765H617L554 848Z" glyph-name="Gcircumflex" horiz-adv-x="762" unicode="&#284;" /><glyph d="M543 680Q416 680 317 600Q218 520 178 380Q171 356 167.5 331Q164 306 164 280Q164 168 231.5 96Q299 24 406 24Q472 24 502.5 38Q533 52 544 93L582 225Q591 253 583.5 267.5Q576 282 553 287L507 297L514 320H748L741 297L716 291Q692 285 677 270.5Q662 256 653 225L610 74H652L645 49Q560 13 502 -1Q444 -15 390 -15Q253 -15 167.5 68Q82 151 82 281Q82 307 86 333Q90 359 97 386Q140 536 259.5 625.5Q379 715 543 715Q593 715 659 704Q725 693 768 677L720 516H690L687 566Q684 625 649 652.5Q614 680 543 680ZM420 -110Q420 -149 384 -197.5Q348 -246 283 -297L263 -281Q303 -236 324 -196Q345 -156 345 -125Q345 -110 337 -102Q329 -94 314 -94Q308 -94 300.5 -95.5Q293 -97 286 -99L295 -79Q314 -69 332 -63Q350 -57 364 -57Q390 -57 405 -73.5Q420 -90 420 -110Z" glyph-name="Gcommaaccent" horiz-adv-x="762" unicode="&#290;" /><glyph d="M543 680Q416 680 317 600Q218 520 178 380Q171 356 167.5 331Q164 306 164 280Q164 168 231.5 96Q299 24 406 24Q472 24 502.5 38Q533 52 544 93L582 225Q591 253 583.5 267.5Q576 282 553 287L507 297L514 320H748L741 297L716 291Q692 285 677 270.5Q662 256 653 225L610 74H652L645 49Q560 13 502 -1Q444 -15 390 -15Q253 -15 167.5 68Q82 151 82 281Q82 307 86 333Q90 359 97 386Q140 536 259.5 625.5Q379 715 543 715Q593 715 659 704Q725 693 768 677L720 516H690L687 566Q684 625 649 652.5Q614 680 543 680ZM589 834Q589 812 573.5 796.5Q558 781 536 781Q514 781 498.5 796.5Q483 812 483 834Q483 856 498.5 871Q514 886 536 886Q558 886 573.5 871Q589 856 589 834Z" glyph-name="Gdotaccent" horiz-adv-x="762" unicode="&#288;" /><glyph d="M198 32 235 23 228 0H-15L-8 23L33 32Q60 38 76 53Q92 68 99 95L245 605Q253 632 246 647Q239 662 216 668L179 677L186 700H429L422 677L381 668Q355 662 339 647.5Q323 633 315 605L252 382H635L698 605Q706 632 699 647Q692 662 669 668L632 677L639 700H883L876 677L835 668Q808 662 792 647.5Q776 633 768 605L622 95Q615 67 622 52.5Q629 38 652 32L689 23L682 0H438L445 23L486 32Q513 38 529 53Q545 68 552 95L624 344H241L169 95Q162 67 169 52.5Q176 38 198 32Z" glyph-name="H" horiz-adv-x="803" unicode="H" /><glyph d="M286 494 254 382H637L669 494ZM200 32 237 23 230 0H-13L-6 23L35 32Q62 38 78 53Q94 68 101 95L215 494H112L123 532H226L247 605Q255 632 248 647Q241 662 218 668L181 677L188 700H431L424 677L383 668Q357 662 341 647.5Q325 633 317 605L296 532H679L700 605Q708 632 701 647Q694 662 671 668L634 677L641 700H885L878 677L837 668Q810 662 794 647.5Q778 633 770 605L749 532H852L841 494H738L624 95Q617 67 624 52.5Q631 38 654 32L691 23L684 0H440L447 23L488 32Q515 38 531 53Q547 68 554 95L626 344H243L171 95Q164 67 171 52.5Q178 38 200 32Z" glyph-name="Hbar" horiz-adv-x="804" unicode="&#294;" /><glyph d="M198 32 235 23 228 0H-15L-8 23L33 32Q60 38 76 53Q92 68 99 95L245 605Q253 632 246 647Q239 662 216 668L179 677L186 700H429L422 677L381 668Q355 662 339 647.5Q323 633 315 605L252 382H635L698 605Q706 632 699 647Q692 662 669 668L632 677L639 700H883L876 677L835 668Q808 662 792 647.5Q776 633 768 605L622 95Q615 67 622 52.5Q629 38 652 32L689 23L682 0H438L445 23L486 32Q513 38 529 53Q545 68 552 95L624 344H241L169 95Q162 67 169 52.5Q176 38 198 32ZM457 765H428L560 912H606L658 765H629L566 848Z" glyph-name="Hcircumflex" horiz-adv-x="803" unicode="&#292;" /><glyph d="M315 605 169 95Q162 67 169 52.5Q176 38 198 32L235 23L228 0H-15L-8 23L33 32Q60 38 76 53Q92 68 99 95L245 605Q253 632 246 647Q239 662 216 668L179 677L186 700H429L422 677L381 668Q355 662 339 647.5Q323 633 315 605Z" glyph-name="I" horiz-adv-x="349" unicode="I" /><glyph d="M315 605 169 95Q162 67 169 52.5Q176 38 198 32L235 23L228 0H-15L-8 23L33 32Q60 38 76 53Q92 68 99 95L245 605Q253 632 246 647Q239 662 216 668L179 677L186 700H429L422 677L381 668Q355 662 339 647.5Q323 633 315 605ZM690 123 754 337H639L650 375H764Q788 449 796.5 470Q805 491 814 509Q832 548 854.5 575.5Q877 603 902 621V623H885Q857 623 820 625.5Q783 628 711 636Q662 641 642 642.5Q622 644 610 644Q554 644 519.5 614Q485 584 485 545Q485 524 495 508Q505 492 520 492Q524 492 528.5 493Q533 494 542 498Q551 501 555.5 502Q560 503 564 503Q575 503 582.5 495Q590 487 590 475Q590 460 577.5 450Q565 440 546 440Q512 440 486.5 471Q461 502 461 547Q461 617 511 666Q561 715 639 715Q659 715 685 709.5Q711 704 768 685Q824 667 854 659.5Q884 652 911 648Q915 677 929.5 692.5Q944 708 966 708Q978 708 988 698.5Q998 689 998 675Q998 652 979.5 638Q961 624 926 622Q908 592 886 534.5Q864 477 843 406L834 375H944L931 337H825L817 307Q747 41 671 -73.5Q595 -188 487 -188Q452 -188 430 -173.5Q408 -159 408 -138Q408 -123 419 -111Q430 -99 446 -99Q451 -99 455.5 -102.5Q460 -106 468 -117Q483 -137 495 -144Q507 -151 522 -151Q571 -151 608.5 -87.5Q646 -24 690 123Z" glyph-name="IJ" horiz-adv-x="945" unicode="&#306;" /><glyph d="M315 605 169 95Q162 67 169 52.5Q176 38 198 32L235 23L228 0H-15L-8 23L33 32Q60 38 76 53Q92 68 99 95L245 605Q253 632 246 647Q239 662 216 668L179 677L186 700H429L422 677L381 668Q355 662 339 647.5Q323 633 315 605ZM331 765H312L417 912H512Z" glyph-name="Iacute" horiz-adv-x="349" unicode="&#205;" /><glyph d="M315 605 169 95Q162 67 169 52.5Q176 38 198 32L235 23L228 0H-15L-8 23L33 32Q60 38 76 53Q92 68 99 95L245 605Q253 632 246 647Q239 662 216 668L179 677L186 700H429L422 677L381 668Q355 662 339 647.5Q323 633 315 605ZM342 764Q282 764 253.5 799.5Q225 835 238 881L243 898H277L275 892Q268 862 287.5 842.5Q307 823 348 823Q389 823 417.5 842.5Q446 862 453 892L455 898H489L483 874Q470 822 433.5 793Q397 764 342 764Z" glyph-name="Ibreve" horiz-adv-x="349" unicode="&#300;" /><glyph d="M315 605 169 95Q162 67 169 52.5Q176 38 198 32L235 23L228 0H-15L-8 23L33 32Q60 38 76 53Q92 68 99 95L245 605Q253 632 246 647Q239 662 216 668L179 677L186 700H429L422 677L381 668Q355 662 339 647.5Q323 633 315 605ZM238 765H209L341 912H387L439 765H410L347 848Z" glyph-name="Icircumflex" horiz-adv-x="349" unicode="&#206;" /><glyph d="M315 605 169 95Q162 67 169 52.5Q176 38 198 32L235 23L228 0H-15L-8 23L33 32Q60 38 76 53Q92 68 99 95L245 605Q253 632 246 647Q239 662 216 668L179 677L186 700H429L422 677L381 668Q355 662 339 647.5Q323 633 315 605ZM463 838Q463 816 448 801Q433 786 411 786Q389 786 374 801Q359 816 359 838Q359 860 374 875Q389 890 411 890Q433 890 448 875Q463 860 463 838ZM307 838Q307 816 292 801Q277 786 255 786Q233 786 218 801Q203 816 203 838Q203 860 218 875Q233 890 255 890Q277 890 292 875Q307 860 307 838Z" glyph-name="Idieresis" horiz-adv-x="349" unicode="&#207;" /><glyph d="M315 605 169 95Q162 67 169 52.5Q176 38 198 32L235 23L228 0H-15L-8 23L33 32Q60 38 76 53Q92 68 99 95L245 605Q253 632 246 647Q239 662 216 668L179 677L186 700H429L422 677L381 668Q355 662 339 647.5Q323 633 315 605ZM382 834Q382 812 366.5 796.5Q351 781 329 781Q307 781 291.5 796.5Q276 812 276 834Q276 856 291.5 871Q307 886 329 886Q351 886 366.5 871Q382 856 382 834Z" glyph-name="Idotaccent" horiz-adv-x="349" unicode="&#304;" /><glyph d="M315 605 169 95Q162 67 169 52.5Q176 38 198 32L235 23L228 0H-15L-8 23L33 32Q60 38 76 53Q92 68 99 95L245 605Q253 632 246 647Q239 662 216 668L179 677L186 700H429L422 677L381 668Q355 662 339 647.5Q323 633 315 605ZM335 765H316L185 912H268Z" glyph-name="Igrave" horiz-adv-x="349" unicode="&#204;" /><glyph d="M315 605 169 95Q162 67 169 52.5Q176 38 198 32L235 23L228 0H-15L-8 23L33 32Q60 38 76 53Q92 68 99 95L245 605Q253 632 246 647Q239 662 216 668L179 677L186 700H429L422 677L381 668Q355 662 339 647.5Q323 633 315 605ZM467 791H196L211 838H482Z" glyph-name="Imacron" horiz-adv-x="349" unicode="&#298;" /><glyph d="M215 -152 206 -173Q193 -181 176.5 -185Q160 -189 143 -189Q111 -189 90.5 -172Q70 -155 70 -126Q70 -98 99.5 -64.5Q129 -31 179 0H-15L-8 23L33 32Q60 38 76 53Q92 68 99 95L245 605Q253 632 246 647Q239 662 216 668L179 677L186 700H429L422 677L381 668Q355 662 339 647.5Q323 633 315 605L169 95Q162 67 169 52.5Q176 38 198 32L235 23L228 0H203Q167 -48 153 -74.5Q139 -101 139 -118Q139 -135 151.5 -144.5Q164 -154 184 -154Q193 -154 201 -153.5Q209 -153 215 -152Z" glyph-name="Iogonek" horiz-adv-x="349" unicode="&#302;" /><glyph d="M315 605 169 95Q162 67 169 52.5Q176 38 198 32L235 23L228 0H-15L-8 23L33 32Q60 38 76 53Q92 68 99 95L245 605Q253 632 246 647Q239 662 216 668L179 677L186 700H429L422 677L381 668Q355 662 339 647.5Q323 633 315 605ZM257 816Q242 816 232.5 807Q223 798 214 772L194 776Q207 824 228.5 847Q250 870 284 870Q295 870 310 866.5Q325 863 358 853Q388 843 401.5 840Q415 837 424 837Q439 837 448.5 846Q458 855 467 881L487 877Q474 829 452.5 806Q431 783 397 783Q386 783 371 786.5Q356 790 323 800Q293 810 279.5 813Q266 816 257 816Z" glyph-name="Itilde" horiz-adv-x="349" unicode="&#296;" /><glyph d="M341 123 405 337H290L301 375H415Q439 449 447.5 470Q456 491 465 509Q483 548 505.5 575.5Q528 603 553 621V623H536Q508 623 471 625.5Q434 628 362 636Q313 641 293 642.5Q273 644 261 644Q205 644 170.5 614Q136 584 136 545Q136 524 146 508Q156 492 171 492Q175 492 179.5 493Q184 494 193 498Q202 501 206.5 502Q211 503 215 503Q226 503 233.5 495Q241 487 241 475Q241 460 228.5 450Q216 440 197 440Q163 440 137.5 471Q112 502 112 547Q112 617 162 666Q212 715 290 715Q310 715 336 709.5Q362 704 419 685Q475 667 505 659.5Q535 652 562 648Q566 677 580.5 692.5Q595 708 617 708Q629 708 639 698.5Q649 689 649 675Q649 652 630.5 638Q612 624 577 622Q559 592 537 534.5Q515 477 494 406L485 375H595L582 337H476L468 307Q398 41 322 -73.5Q246 -188 138 -188Q103 -188 81 -173.5Q59 -159 59 -138Q59 -123 70 -111Q81 -99 97 -99Q102 -99 106.5 -102.5Q111 -106 119 -117Q134 -137 146 -144Q158 -151 173 -151Q222 -151 259.5 -87.5Q297 -24 341 123Z" glyph-name="J" horiz-adv-x="596" unicode="J" /><glyph d="M341 123 405 337H290L301 375H415Q439 449 447.5 470Q456 491 465 509Q483 548 505.5 575.5Q528 603 553 621V623H536Q508 623 471 625.5Q434 628 362 636Q313 641 293 642.5Q273 644 261 644Q205 644 170.5 614Q136 584 136 545Q136 524 146 508Q156 492 171 492Q175 492 179.5 493Q184 494 193 498Q202 501 206.5 502Q211 503 215 503Q226 503 233.5 495Q241 487 241 475Q241 460 228.5 450Q216 440 197 440Q163 440 137.5 471Q112 502 112 547Q112 617 162 666Q212 715 290 715Q310 715 336 709.5Q362 704 419 685Q475 667 505 659.5Q535 652 562 648Q566 677 580.5 692.5Q595 708 617 708Q629 708 639 698.5Q649 689 649 675Q649 652 630.5 638Q612 624 577 622Q559 592 537 534.5Q515 477 494 406L485 375H595L582 337H476L468 307Q398 41 322 -73.5Q246 -188 138 -188Q103 -188 81 -173.5Q59 -159 59 -138Q59 -123 70 -111Q81 -99 97 -99Q102 -99 106.5 -102.5Q111 -106 119 -117Q134 -137 146 -144Q158 -151 173 -151Q222 -151 259.5 -87.5Q297 -24 341 123ZM344 765H315L447 912H493L545 765H516L453 848Z" glyph-name="Jcircumflex" horiz-adv-x="596" unicode="&#308;" /><glyph d="M248 0H-15L-8 23L33 32Q60 38 76 53Q92 68 99 95L245 605Q253 632 246 647Q239 662 216 668L179 677L186 700H429L422 677L381 668Q355 662 339 647.5Q323 633 315 605L252 382H313L575 604Q599 624 598.5 643Q598 662 573 668L532 677L539 700H780L773 677L756 672Q734 666 706 648.5Q678 631 638 600L356 381L474 191Q527 106 556.5 70.5Q586 35 609 29L634 23L629 0H554Q526 0 499 25Q472 50 424 131L298 344H241L169 95Q161 66 168.5 52Q176 38 201 33L255 23Z" glyph-name="K" horiz-adv-x="684" unicode="K" /><glyph d="M740 -40Q740 -67 715.5 -86.5Q691 -106 651 -106Q587 -106 528 -49.5Q469 7 411 123Q387 171 365 225.5Q343 280 321 348L241 344L169 95Q161 66 168.5 52Q176 38 201 33L255 23L248 0H-15L-8 23L33 32Q60 38 76 53Q92 68 99 95L245 605Q253 632 246 647Q239 662 216 668L179 677L186 700H429L422 677L381 668Q355 662 339 647.5Q323 633 315 605L252 382H313L575 604Q599 624 598.5 643Q598 662 573 668L532 677L539 700H780L773 677L756 672Q734 666 706 648.5Q678 631 638 600L376 396Q405 308 440 229Q475 150 518 76Q563 -2 603.5 -39.5Q644 -77 683 -77Q696 -77 705.5 -72Q715 -67 715 -59Q715 -55 713 -52.5Q711 -50 705 -46Q698 -42 695.5 -38Q693 -34 693 -27Q693 -20 699.5 -14Q706 -8 714 -8Q725 -8 732.5 -17Q740 -26 740 -40Z" glyph-name="K.alt" horiz-adv-x="644" /><glyph d="M248 0H-15L-8 23L33 32Q60 38 76 53Q92 68 99 95L245 605Q253 632 246 647Q239 662 216 668L179 677L186 700H429L422 677L381 668Q355 662 339 647.5Q323 633 315 605L252 382H313L575 604Q599 624 598.5 643Q598 662 573 668L532 677L539 700H780L773 677L756 672Q734 666 706 648.5Q678 631 638 600L356 381L474 191Q527 106 556.5 70.5Q586 35 609 29L634 23L629 0H554Q526 0 499 25Q472 50 424 131L298 344H241L169 95Q161 66 168.5 52Q176 38 201 33L255 23ZM353 -110Q353 -149 317 -197.5Q281 -246 216 -297L196 -281Q236 -236 257 -196Q278 -156 278 -125Q278 -110 270 -102Q262 -94 247 -94Q241 -94 233.5 -95.5Q226 -97 219 -99L228 -79Q247 -69 265 -63Q283 -57 297 -57Q323 -57 338 -73.5Q353 -90 353 -110Z" glyph-name="Kcommaaccent" horiz-adv-x="684" unicode="&#310;" /><glyph d="M490 0H-15L-8 23L33 32Q60 38 76 53Q92 68 99 95L245 605Q253 632 246 647Q239 662 216 668L179 677L186 700H439L432 677L382 667Q356 662 339.5 647Q323 632 315 605L169 95Q160 62 170.5 46.5Q181 31 213 32L358 34Q402 35 429 53.5Q456 72 502 142L536 194H564Z" glyph-name="L" horiz-adv-x="599" unicode="L" /><glyph d="M490 0H-15L-8 23L33 32Q60 38 76 53Q92 68 99 95L245 605Q253 632 246 647Q239 662 216 668L179 677L186 700H439L432 677L382 667Q356 662 339.5 647Q323 632 315 605L169 95Q160 62 170.5 46.5Q181 31 213 32L358 34Q402 35 429 53.5Q456 72 502 142L536 194H564ZM328 765H309L414 912H509Z" glyph-name="Lacute" horiz-adv-x="599" unicode="&#313;" /><glyph d="M706 658Q706 619 670 570.5Q634 522 569 471L549 487Q589 532 610 572Q631 612 631 643Q631 658 623 666Q615 674 600 674Q594 674 586.5 672.5Q579 671 572 669L581 689Q600 699 618 705Q636 711 650 711Q676 711 691 694.5Q706 678 706 658ZM490 0H-15L-8 23L33 32Q60 38 76 53Q92 68 99 95L245 605Q253 632 246 647Q239 662 216 668L179 677L186 700H439L432 677L382 667Q356 662 339.5 647Q323 632 315 605L169 95Q160 62 170.5 46.5Q181 31 213 32L358 34Q402 35 429 53.5Q456 72 502 142L536 194H564Z" glyph-name="Lcaron" horiz-adv-x="660" unicode="&#317;" /><glyph d="M490 0H-15L-8 23L33 32Q60 38 76 53Q92 68 99 95L245 605Q253 632 246 647Q239 662 216 668L179 677L186 700H439L432 677L382 667Q356 662 339.5 647Q323 632 315 605L169 95Q160 62 170.5 46.5Q181 31 213 32L358 34Q402 35 429 53.5Q456 72 502 142L536 194H564ZM306 -110Q306 -149 270 -197.5Q234 -246 169 -297L149 -281Q189 -236 210 -196Q231 -156 231 -125Q231 -110 223 -102Q215 -94 200 -94Q194 -94 186.5 -95.5Q179 -97 172 -99L181 -79Q200 -69 218 -63Q236 -57 250 -57Q276 -57 291 -73.5Q306 -90 306 -110Z" glyph-name="Lcommaaccent" horiz-adv-x="599" unicode="&#315;" /><glyph d="M490 0H-15L-8 23L33 32Q60 38 76 53Q92 68 99 95L245 605Q253 632 246 647Q239 662 216 668L179 677L186 700H439L432 677L382 667Q356 662 339.5 647Q323 632 315 605L169 95Q160 62 170.5 46.5Q181 31 213 32L358 34Q402 35 429 53.5Q456 72 502 142L536 194H564ZM561 355Q561 328 542.5 309.5Q524 291 497 291Q470 291 451.5 309.5Q433 328 433 355Q433 382 451.5 401Q470 420 497 420Q523 420 542 400.5Q561 381 561 355Z" glyph-name="Ldot" horiz-adv-x="600" unicode="&#319;" /><glyph d="M568 194 494 0H-11L-4 23L37 32Q64 38 80 53Q96 68 103 95L158 287L25 243L35 278L168 322L249 605Q257 632 250 647Q243 662 220 668L183 677L190 700H443L436 677L386 667Q360 662 343.5 647Q327 632 319 605L245 347L521 438L511 403L235 312L173 95Q164 62 174.5 46.5Q185 31 217 32L362 34Q406 35 433 53.5Q460 72 506 142L540 194Z" glyph-name="Lslash" horiz-adv-x="602" unicode="&#321;" /><glyph d="M921 605 832 95Q827 62 834 49.5Q841 37 861 32L898 23L891 0H638L645 23L692 33Q723 40 739.5 54.5Q756 69 762 95L863 640H861L433 0H406L335 640H333L120 95Q110 70 118.5 54Q127 38 153 33L207 23L200 0H-43L-36 23L5 32Q27 37 40.5 48.5Q54 60 70 95L290 605Q301 630 295.5 646.5Q290 663 269 668L234 677L241 700H484L477 677L447 673Q425 670 414.5 654Q404 638 406 614L459 101H461L797 614Q813 639 811.5 654.5Q810 670 790 673L762 677L769 700H1026L1019 677L980 668Q956 663 940.5 646.5Q925 630 921 605Z" glyph-name="M" horiz-adv-x="993" unicode="M" /><glyph d="M580 97 706 605Q712 632 704 646.5Q696 661 673 667L630 677L637 700H870L863 677L822 668Q796 662 780.5 647.5Q765 633 756 605L580 -10H551L288 596H287L144 95Q136 67 144 52.5Q152 38 177 33L231 23L224 0H-19L-12 23L29 32Q55 38 70.5 52.5Q86 67 95 95L258 629L254 637Q246 651 234 659.5Q222 668 205 672L177 678L184 700H325Q346 647 364 602.5Q382 558 397 521L579 97Z" glyph-name="N" horiz-adv-x="780" unicode="N" /><glyph d="M580 97 706 605Q712 632 704 646.5Q696 661 673 667L630 677L637 700H870L863 677L822 668Q796 662 780.5 647.5Q765 633 756 605L580 -10H551L288 596H287L144 95Q136 67 144 52.5Q152 38 177 33L231 23L224 0H-19L-12 23L29 32Q55 38 70.5 52.5Q86 67 95 95L258 629L254 637Q246 651 234 659.5Q222 668 205 672L177 678L184 700H325Q346 647 364 602.5Q382 558 397 521L579 97ZM518 765H499L604 912H699Z" glyph-name="Nacute" horiz-adv-x="780" unicode="&#323;" /><glyph d="M580 97 706 605Q712 632 704 646.5Q696 661 673 667L630 677L637 700H870L863 677L822 668Q796 662 780.5 647.5Q765 633 756 605L580 -10H551L288 596H287L144 95Q136 67 144 52.5Q152 38 177 33L231 23L224 0H-19L-12 23L29 32Q55 38 70.5 52.5Q86 67 95 95L258 629L254 637Q246 651 234 659.5Q222 668 205 672L177 678L184 700H325Q346 647 364 602.5Q382 558 397 521L579 97ZM488 765 436 912H465L528 829L637 912H666L534 765Z" glyph-name="Ncaron" horiz-adv-x="780" unicode="&#327;" /><glyph d="M580 97 706 605Q712 632 704 646.5Q696 661 673 667L630 677L637 700H870L863 677L822 668Q796 662 780.5 647.5Q765 633 756 605L580 -10H551L288 596H287L144 95Q136 67 144 52.5Q152 38 177 33L231 23L224 0H-19L-12 23L29 32Q55 38 70.5 52.5Q86 67 95 95L258 629L254 637Q246 651 234 659.5Q222 668 205 672L177 678L184 700H325Q346 647 364 602.5Q382 558 397 521L579 97ZM391 -110Q391 -149 355 -197.5Q319 -246 254 -297L234 -281Q274 -236 295 -196Q316 -156 316 -125Q316 -110 308 -102Q300 -94 285 -94Q279 -94 271.5 -95.5Q264 -97 257 -99L266 -79Q285 -69 303 -63Q321 -57 335 -57Q361 -57 376 -73.5Q391 -90 391 -110Z" glyph-name="Ncommaaccent" horiz-adv-x="780" unicode="&#325;" /><glyph d="M580 97 706 605Q712 632 704 646.5Q696 661 673 667L630 677L637 700H870L863 677L822 668Q796 662 780.5 647.5Q765 633 756 605L580 -10H551L288 596H287L144 95Q136 67 144 52.5Q152 38 177 33L231 23L224 0H-19L-12 23L29 32Q55 38 70.5 52.5Q86 67 95 95L258 629L254 637Q246 651 234 659.5Q222 668 205 672L177 678L184 700H325Q346 647 364 602.5Q382 558 397 521L579 97ZM444 816Q429 816 419.5 807Q410 798 401 772L381 776Q394 824 415.5 847Q437 870 471 870Q482 870 497 866.5Q512 863 545 853Q575 843 588.5 840Q602 837 611 837Q626 837 635.5 846Q645 855 654 881L674 877Q661 829 639.5 806Q618 783 584 783Q573 783 558 786.5Q543 790 510 800Q480 810 466.5 813Q453 816 444 816Z" glyph-name="Ntilde" horiz-adv-x="780" unicode="&#209;" /><glyph d="M475 714Q486 714 496.5 713.5Q507 713 518 711Q622 696 685 615.5Q748 535 748 419Q748 391 744 362Q740 333 732 305Q693 167 586.5 76.5Q480 -14 357 -14Q346 -14 335.5 -13.5Q325 -13 314 -11Q210 4 147 84.5Q84 165 84 281Q84 309 88 338Q92 367 100 395Q139 533 245.5 623.5Q352 714 475 714ZM161 248Q161 155 205.5 94.5Q250 34 324 23Q335 22 340.5 21.5Q346 21 351 21Q448 21 530.5 100.5Q613 180 651 316Q661 351 666 385.5Q671 420 671 452Q671 545 626.5 605.5Q582 666 508 677Q497 678 491.5 678.5Q486 679 481 679Q384 679 301.5 599.5Q219 520 181 384Q171 349 166 314.5Q161 280 161 248Z" glyph-name="O" horiz-adv-x="767" unicode="O" /><glyph d="M629 666H566Q420 666 323 595.5Q226 525 187 389Q142 232 216 132.5Q290 33 445 33H505L668 603Q678 636 668.5 651Q659 666 629 666ZM961 0H411Q331 0 263.5 29.5Q196 59 152 114Q108 169 96 240.5Q84 312 106 391Q149 540 274.5 620Q400 700 582 700H875Q935 700 987.5 702Q1040 704 1085 708L1037 546H1008L1005 619Q1006 646 998.5 655Q991 664 972 664L756 667L674 381L779 384Q807 385 823 394.5Q839 404 851 426L883 480H903L836 246H816L815 300Q815 321 805 330Q795 339 767 342L664 345L593 97Q583 64 593.5 49Q604 34 637 34L828 36Q872 37 897.5 54Q923 71 974 145L1007 194H1035Z" glyph-name="OE" horiz-adv-x="1067" unicode="&#338;" /><glyph d="M475 714Q486 714 496.5 713.5Q507 713 518 711Q622 696 685 615.5Q748 535 748 419Q748 391 744 362Q740 333 732 305Q693 167 586.5 76.5Q480 -14 357 -14Q346 -14 335.5 -13.5Q325 -13 314 -11Q210 4 147 84.5Q84 165 84 281Q84 309 88 338Q92 367 100 395Q139 533 245.5 623.5Q352 714 475 714ZM161 248Q161 155 205.5 94.5Q250 34 324 23Q335 22 340.5 21.5Q346 21 351 21Q448 21 530.5 100.5Q613 180 651 316Q661 351 666 385.5Q671 420 671 452Q671 545 626.5 605.5Q582 666 508 677Q497 678 491.5 678.5Q486 679 481 679Q384 679 301.5 599.5Q219 520 181 384Q171 349 166 314.5Q161 280 161 248ZM521 765H502L607 912H702Z" glyph-name="Oacute" horiz-adv-x="767" unicode="&#211;" /><glyph d="M475 714Q486 714 496.5 713.5Q507 713 518 711Q622 696 685 615.5Q748 535 748 419Q748 391 744 362Q740 333 732 305Q693 167 586.5 76.5Q480 -14 357 -14Q346 -14 335.5 -13.5Q325 -13 314 -11Q210 4 147 84.5Q84 165 84 281Q84 309 88 338Q92 367 100 395Q139 533 245.5 623.5Q352 714 475 714ZM161 248Q161 155 205.5 94.5Q250 34 324 23Q335 22 340.5 21.5Q346 21 351 21Q448 21 530.5 100.5Q613 180 651 316Q661 351 666 385.5Q671 420 671 452Q671 545 626.5 605.5Q582 666 508 677Q497 678 491.5 678.5Q486 679 481 679Q384 679 301.5 599.5Q219 520 181 384Q171 349 166 314.5Q161 280 161 248ZM532 764Q472 764 443.5 799.5Q415 835 428 881L433 898H467L465 892Q458 862 477.5 842.5Q497 823 538 823Q579 823 607.5 842.5Q636 862 643 892L645 898H679L673 874Q660 822 623.5 793Q587 764 532 764Z" glyph-name="Obreve" horiz-adv-x="767" unicode="&#334;" /><glyph d="M475 714Q486 714 496.5 713.5Q507 713 518 711Q622 696 685 615.5Q748 535 748 419Q748 391 744 362Q740 333 732 305Q693 167 586.5 76.5Q480 -14 357 -14Q346 -14 335.5 -13.5Q325 -13 314 -11Q210 4 147 84.5Q84 165 84 281Q84 309 88 338Q92 367 100 395Q139 533 245.5 623.5Q352 714 475 714ZM161 248Q161 155 205.5 94.5Q250 34 324 23Q335 22 340.5 21.5Q346 21 351 21Q448 21 530.5 100.5Q613 180 651 316Q661 351 666 385.5Q671 420 671 452Q671 545 626.5 605.5Q582 666 508 677Q497 678 491.5 678.5Q486 679 481 679Q384 679 301.5 599.5Q219 520 181 384Q171 349 166 314.5Q161 280 161 248ZM428 765H399L531 912H577L629 765H600L537 848Z" glyph-name="Ocircumflex" horiz-adv-x="767" unicode="&#212;" /><glyph d="M475 714Q486 714 496.5 713.5Q507 713 518 711Q622 696 685 615.5Q748 535 748 419Q748 391 744 362Q740 333 732 305Q693 167 586.5 76.5Q480 -14 357 -14Q346 -14 335.5 -13.5Q325 -13 314 -11Q210 4 147 84.5Q84 165 84 281Q84 309 88 338Q92 367 100 395Q139 533 245.5 623.5Q352 714 475 714ZM161 248Q161 155 205.5 94.5Q250 34 324 23Q335 22 340.5 21.5Q346 21 351 21Q448 21 530.5 100.5Q613 180 651 316Q661 351 666 385.5Q671 420 671 452Q671 545 626.5 605.5Q582 666 508 677Q497 678 491.5 678.5Q486 679 481 679Q384 679 301.5 599.5Q219 520 181 384Q171 349 166 314.5Q161 280 161 248ZM653 838Q653 816 638 801Q623 786 601 786Q579 786 564 801Q549 816 549 838Q549 860 564 875Q579 890 601 890Q623 890 638 875Q653 860 653 838ZM497 838Q497 816 482 801Q467 786 445 786Q423 786 408 801Q393 816 393 838Q393 860 408 875Q423 890 445 890Q467 890 482 875Q497 860 497 838Z" glyph-name="Odieresis" horiz-adv-x="767" unicode="&#214;" /><glyph d="M475 714Q486 714 496.5 713.5Q507 713 518 711Q622 696 685 615.5Q748 535 748 419Q748 391 744 362Q740 333 732 305Q693 167 586.5 76.5Q480 -14 357 -14Q346 -14 335.5 -13.5Q325 -13 314 -11Q210 4 147 84.5Q84 165 84 281Q84 309 88 338Q92 367 100 395Q139 533 245.5 623.5Q352 714 475 714ZM161 248Q161 155 205.5 94.5Q250 34 324 23Q335 22 340.5 21.5Q346 21 351 21Q448 21 530.5 100.5Q613 180 651 316Q661 351 666 385.5Q671 420 671 452Q671 545 626.5 605.5Q582 666 508 677Q497 678 491.5 678.5Q486 679 481 679Q384 679 301.5 599.5Q219 520 181 384Q171 349 166 314.5Q161 280 161 248ZM525 765H506L375 912H458Z" glyph-name="Ograve" horiz-adv-x="767" unicode="&#210;" /><glyph d="M475 714Q486 714 496.5 713.5Q507 713 518 711Q622 696 685 615.5Q748 535 748 419Q748 391 744 362Q740 333 732 305Q693 167 586.5 76.5Q480 -14 357 -14Q346 -14 335.5 -13.5Q325 -13 314 -11Q210 4 147 84.5Q84 165 84 281Q84 309 88 338Q92 367 100 395Q139 533 245.5 623.5Q352 714 475 714ZM161 248Q161 155 205.5 94.5Q250 34 324 23Q335 22 340.5 21.5Q346 21 351 21Q448 21 530.5 100.5Q613 180 651 316Q661 351 666 385.5Q671 420 671 452Q671 545 626.5 605.5Q582 666 508 677Q497 678 491.5 678.5Q486 679 481 679Q384 679 301.5 599.5Q219 520 181 384Q171 349 166 314.5Q161 280 161 248ZM595 765H576L681 912H776ZM449 765H430L535 912H630Z" glyph-name="Ohungarumlaut" horiz-adv-x="767" unicode="&#336;" /><glyph d="M475 714Q486 714 496.5 713.5Q507 713 518 711Q622 696 685 615.5Q748 535 748 419Q748 391 744 362Q740 333 732 305Q693 167 586.5 76.5Q480 -14 357 -14Q346 -14 335.5 -13.5Q325 -13 314 -11Q210 4 147 84.5Q84 165 84 281Q84 309 88 338Q92 367 100 395Q139 533 245.5 623.5Q352 714 475 714ZM161 248Q161 155 205.5 94.5Q250 34 324 23Q335 22 340.5 21.5Q346 21 351 21Q448 21 530.5 100.5Q613 180 651 316Q661 351 666 385.5Q671 420 671 452Q671 545 626.5 605.5Q582 666 508 677Q497 678 491.5 678.5Q486 679 481 679Q384 679 301.5 599.5Q219 520 181 384Q171 349 166 314.5Q161 280 161 248ZM657 791H386L401 838H672Z" glyph-name="Omacron" horiz-adv-x="767" unicode="&#332;" /><glyph d="M303 351Q303 296 265.5 257.5Q228 219 174 219Q120 219 82.5 257.5Q45 296 45 351Q45 406 82.5 444.5Q120 483 174 483Q228 483 265.5 444.5Q303 406 303 351Z" glyph-name="Omega" horiz-adv-x="348" unicode="&#8486;" /><glyph d="M481 679Q384 679 301.5 599.5Q219 520 181 384Q171 347 165.5 313Q160 279 160 249Q160 217 165.5 188.5Q171 160 182 135L636 592Q614 627 581.5 649Q549 671 508 677Q497 678 491.5 678.5Q486 679 481 679ZM324 23Q335 22 340.5 21.5Q346 21 351 21Q448 21 530.5 100.5Q613 180 651 316Q661 352 666 386Q671 420 671 452Q671 485 665.5 514Q660 543 649 568L195 109Q217 73 250 51Q283 29 324 23ZM357 -14Q346 -14 335.5 -13.5Q325 -13 314 -11Q268 -4 228 17Q188 38 158 72L39 -48L19 -29L140 93Q113 131 98.5 179Q84 227 84 281Q84 309 88 338Q92 367 100 395Q139 533 245.5 623.5Q352 714 475 714Q486 714 496.5 713.5Q507 713 518 711Q564 704 603.5 683.5Q643 663 673 629L790 747L808 728L690 609Q718 570 733 521.5Q748 473 748 419Q748 391 744 362Q740 333 732 305Q693 167 586.5 76.5Q480 -14 357 -14Z" glyph-name="Oslash" horiz-adv-x="767" unicode="&#216;" /><glyph d="M475 714Q486 714 496.5 713.5Q507 713 518 711Q622 696 685 615.5Q748 535 748 419Q748 391 744 362Q740 333 732 305Q693 167 586.5 76.5Q480 -14 357 -14Q346 -14 335.5 -13.5Q325 -13 314 -11Q210 4 147 84.5Q84 165 84 281Q84 309 88 338Q92 367 100 395Q139 533 245.5 623.5Q352 714 475 714ZM161 248Q161 155 205.5 94.5Q250 34 324 23Q335 22 340.5 21.5Q346 21 351 21Q448 21 530.5 100.5Q613 180 651 316Q661 351 666 385.5Q671 420 671 452Q671 545 626.5 605.5Q582 666 508 677Q497 678 491.5 678.5Q486 679 481 679Q384 679 301.5 599.5Q219 520 181 384Q171 349 166 314.5Q161 280 161 248ZM447 816Q432 816 422.5 807Q413 798 404 772L384 776Q397 824 418.5 847Q440 870 474 870Q485 870 500 866.5Q515 863 548 853Q578 843 591.5 840Q605 837 614 837Q629 837 638.5 846Q648 855 657 881L677 877Q664 829 642.5 806Q621 783 587 783Q576 783 561 786.5Q546 790 513 800Q483 810 469.5 813Q456 816 447 816Z" glyph-name="Otilde" horiz-adv-x="767" unicode="&#213;" /><glyph d="M248 0H-15L-8 23L33 32Q60 38 76 53Q92 68 99 95L245 605Q254 632 246.5 647Q239 662 216 668L179 677L186 700H401Q502 700 563.5 652Q625 604 625 529Q625 431 551.5 362.5Q478 294 373 294Q337 294 317.5 306.5Q298 319 298 342Q298 356 308.5 367Q319 378 334 378Q349 378 359 367.5Q369 357 369 341Q369 337 367 330.5Q365 324 362 318L364 317Q439 320 495 380Q551 440 551 519Q551 587 508 627Q465 667 391 667H333L169 95Q161 66 168.5 52Q176 38 201 33L255 23Z" glyph-name="P" horiz-adv-x="590" unicode="P" /><glyph d="M857 -126Q857 -173 812.5 -209Q768 -245 697 -245Q644 -245 554.5 -203Q465 -161 318 -63Q248 -17 192.5 8Q137 33 107 33Q80 33 62.5 18Q45 3 45 -19Q45 -45 64 -63Q83 -81 115 -81Q138 -81 167 -69.5Q196 -58 218 -39L242 -52Q219 -75 182 -92Q145 -109 113 -109Q67 -109 39 -83.5Q11 -58 11 -18Q11 25 44 51.5Q77 78 128 78Q156 78 204 61Q252 44 320 10L327 14Q470 96 556 209Q642 322 642 433Q642 542 579.5 611Q517 680 424 680Q321 680 252.5 609Q184 538 184 437Q184 354 225 305.5Q266 257 330 257Q370 257 401.5 279.5Q433 302 445 340H443Q438 336 430.5 333.5Q423 331 415 331Q394 331 380 345.5Q366 360 366 381Q366 401 381 416Q396 431 415 431Q441 431 458 411.5Q475 392 475 364Q474 304 425 257.5Q376 211 309 211Q224 211 169 271Q114 331 114 420Q114 479 139.5 535Q165 591 211 633Q255 673 311.5 694Q368 715 432 715Q555 715 637.5 636Q720 557 720 437Q720 321 627 207.5Q534 94 361 3L347 -4Q373 -17 403 -33.5Q433 -50 488 -82Q530 -106 547.5 -115.5Q565 -125 577 -131Q633 -160 680.5 -176.5Q728 -193 757 -193Q783 -193 801.5 -184.5Q820 -176 820 -164Q820 -160 817.5 -156.5Q815 -153 806 -147Q795 -138 791 -132Q787 -126 787 -118Q787 -101 797 -90.5Q807 -80 822 -80Q836 -80 846.5 -93Q857 -106 857 -126Z" glyph-name="Q" horiz-adv-x="740" unicode="Q" /><glyph d="M780 -95Q780 -122 755.5 -141.5Q731 -161 691 -161Q627 -161 568 -104.5Q509 -48 451 68Q426 118 403 176Q380 234 351 324H235L169 95Q161 66 168.5 52Q176 38 201 33L255 23L248 0H-15L-8 23L33 32Q60 38 76 53Q92 68 99 95L245 605Q254 632 246.5 647Q239 662 216 668L179 677L186 700H432Q524 700 583.5 651.5Q643 603 643 531Q643 458 582 402.5Q521 347 419 332Q450 241 485 163Q520 85 558 21Q603 -57 643.5 -94.5Q684 -132 723 -132Q736 -132 745.5 -127Q755 -122 755 -114Q755 -110 753 -107.5Q751 -105 745 -101Q738 -97 735.5 -93Q733 -89 733 -82Q733 -75 739.5 -69Q746 -63 754 -63Q765 -63 772.5 -72Q780 -81 780 -95ZM333 667 244 358 354 360Q450 362 508.5 410.5Q567 459 567 541Q567 600 524 633.5Q481 667 407 667Z" glyph-name="R" horiz-adv-x="651" unicode="R" /><glyph d="M332 667 244 358 336 361Q436 365 492 411Q548 457 548 538Q548 597 503 632Q458 667 383 667ZM201 33 255 23 248 0H-15L-8 23L33 32Q60 38 76 53Q92 68 99 95L245 605Q254 632 246.5 647Q239 662 216 668L179 677L186 700H414Q507 700 564 655Q621 610 621 539Q621 468 566.5 415.5Q512 363 415 343L494 190Q534 113 563 75.5Q592 38 621 29L640 23L633 0H567Q536 0 508.5 30Q481 60 441 140L351 323L235 324L169 95Q161 66 168.5 52Q176 38 201 33Z" glyph-name="R.alt" horiz-adv-x="667" /><glyph d="M780 -95Q780 -122 755.5 -141.5Q731 -161 691 -161Q627 -161 568 -104.5Q509 -48 451 68Q426 118 403 176Q380 234 351 324H235L169 95Q161 66 168.5 52Q176 38 201 33L255 23L248 0H-15L-8 23L33 32Q60 38 76 53Q92 68 99 95L245 605Q254 632 246.5 647Q239 662 216 668L179 677L186 700H432Q524 700 583.5 651.5Q643 603 643 531Q643 458 582 402.5Q521 347 419 332Q450 241 485 163Q520 85 558 21Q603 -57 643.5 -94.5Q684 -132 723 -132Q736 -132 745.5 -127Q755 -122 755 -114Q755 -110 753 -107.5Q751 -105 745 -101Q738 -97 735.5 -93Q733 -89 733 -82Q733 -75 739.5 -69Q746 -63 754 -63Q765 -63 772.5 -72Q780 -81 780 -95ZM333 667 244 358 354 360Q450 362 508.5 410.5Q567 459 567 541Q567 600 524 633.5Q481 667 407 667ZM471 765H452L557 912H652Z" glyph-name="Racute" horiz-adv-x="651" unicode="&#340;" /><glyph d="M780 -95Q780 -122 755.5 -141.5Q731 -161 691 -161Q627 -161 568 -104.5Q509 -48 451 68Q426 118 403 176Q380 234 351 324H235L169 95Q161 66 168.5 52Q176 38 201 33L255 23L248 0H-15L-8 23L33 32Q60 38 76 53Q92 68 99 95L245 605Q254 632 246.5 647Q239 662 216 668L179 677L186 700H432Q524 700 583.5 651.5Q643 603 643 531Q643 458 582 402.5Q521 347 419 332Q450 241 485 163Q520 85 558 21Q603 -57 643.5 -94.5Q684 -132 723 -132Q736 -132 745.5 -127Q755 -122 755 -114Q755 -110 753 -107.5Q751 -105 745 -101Q738 -97 735.5 -93Q733 -89 733 -82Q733 -75 739.5 -69Q746 -63 754 -63Q765 -63 772.5 -72Q780 -81 780 -95ZM333 667 244 358 354 360Q450 362 508.5 410.5Q567 459 567 541Q567 600 524 633.5Q481 667 407 667ZM441 765 389 912H418L481 829L590 912H619L487 765Z" glyph-name="Rcaron" horiz-adv-x="651" unicode="&#344;" /><glyph d="M780 -95Q780 -122 755.5 -141.5Q731 -161 691 -161Q627 -161 568 -104.5Q509 -48 451 68Q426 118 403 176Q380 234 351 324H235L169 95Q161 66 168.5 52Q176 38 201 33L255 23L248 0H-15L-8 23L33 32Q60 38 76 53Q92 68 99 95L245 605Q254 632 246.5 647Q239 662 216 668L179 677L186 700H432Q524 700 583.5 651.5Q643 603 643 531Q643 458 582 402.5Q521 347 419 332Q450 241 485 163Q520 85 558 21Q603 -57 643.5 -94.5Q684 -132 723 -132Q736 -132 745.5 -127Q755 -122 755 -114Q755 -110 753 -107.5Q751 -105 745 -101Q738 -97 735.5 -93Q733 -89 733 -82Q733 -75 739.5 -69Q746 -63 754 -63Q765 -63 772.5 -72Q780 -81 780 -95ZM333 667 244 358 354 360Q450 362 508.5 410.5Q567 459 567 541Q567 600 524 633.5Q481 667 407 667ZM388 -110Q388 -149 352 -197.5Q316 -246 251 -297L231 -281Q271 -236 292 -196Q313 -156 313 -125Q313 -110 305 -102Q297 -94 282 -94Q276 -94 268.5 -95.5Q261 -97 254 -99L263 -79Q282 -69 300 -63Q318 -57 332 -57Q358 -57 373 -73.5Q388 -90 388 -110Z" glyph-name="Rcommaaccent" horiz-adv-x="651" unicode="&#342;" /><glyph d="M471 195Q471 109 398.5 47Q326 -15 214 -15Q163 -15 109.5 -3Q56 9 11 29L66 219H94Q88 192 85.5 171Q83 150 83 133Q83 76 119.5 45.5Q156 15 225 15Q294 15 344.5 55.5Q395 96 395 156Q395 193 374 229Q353 265 287 325Q214 392 189 433.5Q164 475 164 515Q164 600 232 657.5Q300 715 405 715Q449 715 500.5 705Q552 695 587 681L539 533H509Q512 550 513 563Q514 576 514 585Q514 633 484.5 659Q455 685 401 685Q328 685 283.5 649Q239 613 239 554Q239 521 258 487.5Q277 454 338 394Q373 360 394.5 338Q416 316 425 306Q448 277 459.5 250Q471 223 471 195Z" glyph-name="S" horiz-adv-x="545" unicode="S" /><glyph d="M471 195Q471 109 398.5 47Q326 -15 214 -15Q163 -15 109.5 -3Q56 9 11 29L66 219H94Q88 192 85.5 171Q83 150 83 133Q83 76 119.5 45.5Q156 15 225 15Q294 15 344.5 55.5Q395 96 395 156Q395 193 374 229Q353 265 287 325Q214 392 189 433.5Q164 475 164 515Q164 600 232 657.5Q300 715 405 715Q449 715 500.5 705Q552 695 587 681L539 533H509Q512 550 513 563Q514 576 514 585Q514 633 484.5 659Q455 685 401 685Q328 685 283.5 649Q239 613 239 554Q239 521 258 487.5Q277 454 338 394Q373 360 394.5 338Q416 316 425 306Q448 277 459.5 250Q471 223 471 195ZM414 765H395L500 912H595Z" glyph-name="Sacute" horiz-adv-x="545" unicode="&#346;" /><glyph d="M471 195Q471 109 398.5 47Q326 -15 214 -15Q163 -15 109.5 -3Q56 9 11 29L66 219H94Q88 192 85.5 171Q83 150 83 133Q83 76 119.5 45.5Q156 15 225 15Q294 15 344.5 55.5Q395 96 395 156Q395 193 374 229Q353 265 287 325Q214 392 189 433.5Q164 475 164 515Q164 600 232 657.5Q300 715 405 715Q449 715 500.5 705Q552 695 587 681L539 533H509Q512 550 513 563Q514 576 514 585Q514 633 484.5 659Q455 685 401 685Q328 685 283.5 649Q239 613 239 554Q239 521 258 487.5Q277 454 338 394Q373 360 394.5 338Q416 316 425 306Q448 277 459.5 250Q471 223 471 195ZM384 765 332 912H361L424 829L533 912H562L430 765Z" glyph-name="Scaron" horiz-adv-x="545" unicode="&#352;" /><glyph d="M279 -140Q279 -178 248 -201.5Q217 -225 172 -225Q152 -225 133 -221Q114 -217 96 -209V-179Q108 -185 124 -188.5Q140 -192 153 -192Q181 -192 198.5 -179Q216 -166 216 -144Q216 -124 196.5 -106.5Q177 -89 152 -83V-80L214 -15Q163 -15 109.5 -3Q56 9 11 29L66 219H94Q88 192 85.5 171Q83 150 83 133Q83 76 119.5 45.5Q156 15 225 15Q294 15 344.5 55.5Q395 96 395 156Q395 193 374 229Q353 265 287 325Q214 392 189 433.5Q164 475 164 515Q164 600 232 657.5Q300 715 405 715Q449 715 500.5 705Q552 695 587 681L539 533H509Q512 550 513 563Q514 576 514 585Q514 633 484.5 659Q455 685 401 685Q328 685 283.5 649Q239 613 239 554Q239 521 258 487.5Q277 454 338 394Q373 360 394.5 338Q416 316 425 306Q448 277 459.5 250Q471 223 471 195Q471 115 406 54Q341 -7 239 -14L211 -64Q237 -69 258 -90.5Q279 -112 279 -140Z" glyph-name="Scedilla" horiz-adv-x="545" unicode="&#350;" /><glyph d="M471 195Q471 109 398.5 47Q326 -15 214 -15Q163 -15 109.5 -3Q56 9 11 29L66 219H94Q88 192 85.5 171Q83 150 83 133Q83 76 119.5 45.5Q156 15 225 15Q294 15 344.5 55.5Q395 96 395 156Q395 193 374 229Q353 265 287 325Q214 392 189 433.5Q164 475 164 515Q164 600 232 657.5Q300 715 405 715Q449 715 500.5 705Q552 695 587 681L539 533H509Q512 550 513 563Q514 576 514 585Q514 633 484.5 659Q455 685 401 685Q328 685 283.5 649Q239 613 239 554Q239 521 258 487.5Q277 454 338 394Q373 360 394.5 338Q416 316 425 306Q448 277 459.5 250Q471 223 471 195ZM321 765H292L424 912H470L522 765H493L430 848Z" glyph-name="Scircumflex" horiz-adv-x="545" unicode="&#348;" /><glyph d="M471 195Q471 109 398.5 47Q326 -15 214 -15Q163 -15 109.5 -3Q56 9 11 29L66 219H94Q88 192 85.5 171Q83 150 83 133Q83 76 119.5 45.5Q156 15 225 15Q294 15 344.5 55.5Q395 96 395 156Q395 193 374 229Q353 265 287 325Q214 392 189 433.5Q164 475 164 515Q164 600 232 657.5Q300 715 405 715Q449 715 500.5 705Q552 695 587 681L539 533H509Q512 550 513 563Q514 576 514 585Q514 633 484.5 659Q455 685 401 685Q328 685 283.5 649Q239 613 239 554Q239 521 258 487.5Q277 454 338 394Q373 360 394.5 338Q416 316 425 306Q448 277 459.5 250Q471 223 471 195ZM257 -110Q257 -149 221 -197.5Q185 -246 120 -297L100 -281Q140 -236 161 -196Q182 -156 182 -125Q182 -110 174 -102Q166 -94 151 -94Q145 -94 137.5 -95.5Q130 -97 123 -99L132 -79Q151 -69 169 -63Q187 -57 201 -57Q227 -57 242 -73.5Q257 -90 257 -110Z" glyph-name="Scommaaccent" horiz-adv-x="545" unicode="&#536;" /><glyph d="M386 33 435 23 428 0H166L173 23L215 33Q244 40 259.5 53.5Q275 67 283 95L441 625Q367 631 332 633Q297 635 273 635Q211 635 175 605Q139 575 139 528Q139 504 149.5 488Q160 472 177 472Q181 472 186 473.5Q191 475 201 480Q211 484 216 485.5Q221 487 225 487Q235 487 243 479.5Q251 472 251 462Q251 445 238.5 434Q226 423 204 423Q168 423 141 455.5Q114 488 114 535Q114 605 167 655.5Q220 706 302 706Q321 706 353 703.5Q385 701 464 692Q562 681 607.5 677.5Q653 674 683 674Q720 674 741.5 684Q763 694 767 713H766Q757 712 750 714Q743 716 737 720Q730 726 727 733Q724 740 724 748Q724 762 734 772Q744 782 758 782Q775 782 786 769.5Q797 757 797 737Q797 683 748.5 648Q700 613 625 613Q613 613 595.5 614Q578 615 509 619L353 95Q344 67 352 52.5Q360 38 386 33Z" glyph-name="T" horiz-adv-x="668" unicode="T" /><glyph d="M393 0H121L128 23L176 33Q205 39 221 53.5Q237 68 244 95L408 665L255 664Q234 664 220 654Q206 644 194 619L146 526H118L170 708Q227 704 284.5 702Q342 700 401 700H484Q544 700 608 702Q672 704 740 708L688 526H659L666 610Q669 639 658 651.5Q647 664 621 664L478 665L314 95Q306 66 314 52Q322 38 347 33L400 23Z" glyph-name="T.alt" horiz-adv-x="641" /><glyph d="M847 -15Q833 -15 824 -5.5Q815 4 815 20Q815 32 819 49Q823 66 831 87L889 242Q922 330 934 366.5Q946 403 946 414Q946 424 941.5 429.5Q937 435 928 435Q896 435 841 383Q786 331 731 248Q695 193 663.5 130Q632 67 607 0L549 -10L753 623Q734 618 716 615.5Q698 613 680 613Q657 613 615 615Q573 617 510 622L353 95Q345 67 352.5 53Q360 39 386 33L429 23L422 0H160L167 23L215 33Q244 39 259.5 53Q275 67 283 95L442 627Q356 633 328.5 634Q301 635 283 635Q216 635 177.5 605.5Q139 576 139 528Q139 504 149.5 488Q160 472 177 472Q181 472 186 473.5Q191 475 201 480Q211 484 216 485.5Q221 487 225 487Q235 487 243 479.5Q251 472 251 462Q251 445 238.5 434Q226 423 204 423Q168 423 141 455.5Q114 488 114 535Q114 605 167 655.5Q220 706 302 706Q321 706 357.5 703.5Q394 701 488 692Q605 681 656.5 677.5Q708 674 738 674Q777 674 797.5 683.5Q818 693 822 713H821Q812 712 805 714Q798 716 792 720Q785 726 782 733Q779 740 779 748Q779 762 789 772Q799 782 813 782Q830 782 841 769.5Q852 757 852 737Q852 723 848.5 709.5Q845 696 838 684Q815 614 777.5 504.5Q740 395 689 245H695Q764 360 832.5 424Q901 488 955 488Q980 488 995 470.5Q1010 453 1010 423Q1010 410 1001.5 381Q993 352 956 247L899 89Q893 72 891 64.5Q889 57 889 52Q889 46 891.5 42.5Q894 39 899 39Q913 39 949.5 70Q986 101 1008 133L1027 126Q997 74 943 29.5Q889 -15 847 -15Z" glyph-name="T_h" horiz-adv-x="1064" /><glyph d="M386 33 435 23 428 0H166L173 23L215 33Q244 40 259.5 53.5Q275 67 283 95L441 625Q367 631 332 633Q297 635 273 635Q211 635 175 605Q139 575 139 528Q139 504 149.5 488Q160 472 177 472Q181 472 186 473.5Q191 475 201 480Q211 484 216 485.5Q221 487 225 487Q235 487 243 479.5Q251 472 251 462Q251 445 238.5 434Q226 423 204 423Q168 423 141 455.5Q114 488 114 535Q114 605 167 655.5Q220 706 302 706Q321 706 353 703.5Q385 701 464 692Q562 681 607.5 677.5Q653 674 683 674Q720 674 741.5 684Q763 694 767 713H766Q757 712 750 714Q743 716 737 720Q730 726 727 733Q724 740 724 748Q724 762 734 772Q744 782 758 782Q775 782 786 769.5Q797 757 797 737Q797 683 748.5 648Q700 613 625 613Q613 613 595.5 614Q578 615 509 619L353 95Q344 67 352 52.5Q360 38 386 33ZM535 20Q535 30 539.5 45Q544 60 555 87L617 241Q666 363 674.5 388.5Q683 414 683 423Q683 430 680 433.5Q677 437 672 437Q657 437 630.5 420Q604 403 581 378L564 392Q595 432 634.5 460Q674 488 703 488Q721 488 733 475Q745 462 745 441Q745 419 734.5 382.5Q724 346 682 241L621 89Q615 75 612.5 66Q610 57 610 52Q610 46 612.5 42.5Q615 39 620 39Q634 39 670.5 70Q707 101 729 133L748 126Q718 75 663.5 30Q609 -15 567 -15Q553 -15 544 -5.5Q535 4 535 20Z" glyph-name="T_i" horiz-adv-x="793" /><glyph d="M386 33 435 23 428 0H166L173 23L215 33Q244 40 259.5 53.5Q275 67 283 95L357 344H233L244 382H369L441 625Q367 631 332 633Q297 635 273 635Q211 635 175 605Q139 575 139 528Q139 504 149.5 488Q160 472 177 472Q181 472 186 473.5Q191 475 201 480Q211 484 216 485.5Q221 487 225 487Q235 487 243 479.5Q251 472 251 462Q251 445 238.5 434Q226 423 204 423Q168 423 141 455.5Q114 488 114 535Q114 605 167 655.5Q220 706 302 706Q321 706 353 703.5Q385 701 464 692Q562 681 607.5 677.5Q653 674 683 674Q720 674 741.5 684Q763 694 767 713H766Q757 712 750 714Q743 716 737 720Q730 726 727 733Q724 740 724 748Q724 762 734 772Q744 782 758 782Q775 782 786 769.5Q797 757 797 737Q797 683 748.5 648Q700 613 625 613Q613 613 595.5 614Q578 615 509 619L438 382H585L574 344H427L353 95Q344 67 352 52.5Q360 38 386 33Z" glyph-name="Tbar" horiz-adv-x="668" unicode="&#358;" /><glyph d="M386 33 435 23 428 0H166L173 23L215 33Q244 40 259.5 53.5Q275 67 283 95L441 625Q367 631 332 633Q297 635 273 635Q211 635 175 605Q139 575 139 528Q139 504 149.5 488Q160 472 177 472Q181 472 186 473.5Q191 475 201 480Q211 484 216 485.5Q221 487 225 487Q235 487 243 479.5Q251 472 251 462Q251 445 238.5 434Q226 423 204 423Q168 423 141 455.5Q114 488 114 535Q114 605 167 655.5Q220 706 302 706Q321 706 353 703.5Q385 701 464 692Q562 681 607.5 677.5Q653 674 683 674Q720 674 741.5 684Q763 694 767 713H766Q757 712 750 714Q743 716 737 720Q730 726 727 733Q724 740 724 748Q724 762 734 772Q744 782 758 782Q775 782 786 769.5Q797 757 797 737Q797 683 748.5 648Q700 613 625 613Q613 613 595.5 614Q578 615 509 619L353 95Q344 67 352 52.5Q360 38 386 33ZM480 765 428 912H457L520 829L629 912H658L526 765Z" glyph-name="Tcaron" horiz-adv-x="668" unicode="&#356;" /><glyph d="M343 -140Q343 -178 312 -201.5Q281 -225 236 -225Q216 -225 197 -221Q178 -217 160 -209V-179Q172 -185 188 -188.5Q204 -192 217 -192Q245 -192 262.5 -179Q280 -166 280 -144Q280 -124 260.5 -106.5Q241 -89 216 -83V-80L292 0H166L173 23L215 33Q244 40 259.5 53.5Q275 67 283 95L441 625Q367 631 332 633Q297 635 273 635Q211 635 175 605Q139 575 139 528Q139 504 149.5 488Q160 472 177 472Q181 472 186 473.5Q191 475 201 480Q211 484 216 485.5Q221 487 225 487Q235 487 243 479.5Q251 472 251 462Q251 445 238.5 434Q226 423 204 423Q168 423 141 455.5Q114 488 114 535Q114 605 167 655.5Q220 706 302 706Q321 706 353 703.5Q385 701 464 692Q562 681 607.5 677.5Q653 674 683 674Q720 674 741.5 684Q763 694 767 713H766Q757 712 750 714Q743 716 737 720Q730 726 727 733Q724 740 724 748Q724 762 734 772Q744 782 758 782Q775 782 786 769.5Q797 757 797 737Q797 683 748.5 648Q700 613 625 613Q613 613 595.5 614Q578 615 509 619L353 95Q344 67 352 52.5Q360 38 386 33L435 23L428 0H311L275 -64Q301 -69 322 -90.5Q343 -112 343 -140Z" glyph-name="Tcedilla" horiz-adv-x="668" /><glyph d="M386 33 435 23 428 0H166L173 23L215 33Q244 40 259.5 53.5Q275 67 283 95L441 625Q367 631 332 633Q297 635 273 635Q211 635 175 605Q139 575 139 528Q139 504 149.5 488Q160 472 177 472Q181 472 186 473.5Q191 475 201 480Q211 484 216 485.5Q221 487 225 487Q235 487 243 479.5Q251 472 251 462Q251 445 238.5 434Q226 423 204 423Q168 423 141 455.5Q114 488 114 535Q114 605 167 655.5Q220 706 302 706Q321 706 353 703.5Q385 701 464 692Q562 681 607.5 677.5Q653 674 683 674Q720 674 741.5 684Q763 694 767 713H766Q757 712 750 714Q743 716 737 720Q730 726 727 733Q724 740 724 748Q724 762 734 772Q744 782 758 782Q775 782 786 769.5Q797 757 797 737Q797 683 748.5 648Q700 613 625 613Q613 613 595.5 614Q578 615 509 619L353 95Q344 67 352 52.5Q360 38 386 33ZM331 -110Q331 -149 295 -197.5Q259 -246 194 -297L174 -281Q214 -236 235 -196Q256 -156 256 -125Q256 -110 248 -102Q240 -94 225 -94Q219 -94 211.5 -95.5Q204 -97 197 -99L206 -79Q225 -69 243 -63Q261 -57 275 -57Q301 -57 316 -73.5Q331 -90 331 -110Z" glyph-name="Tcommaaccent" horiz-adv-x="668" unicode="&#354;" /><glyph d="M351 512H293L173 95Q165 66 172.5 52Q180 38 205 33L259 23L252 0H-11L-4 23L37 32Q63 38 78.5 52.5Q94 67 103 95L250 605Q258 634 250.5 648Q243 662 218 667L164 677L171 700H434L427 677L386 668Q360 662 344.5 647.5Q329 633 320 605L303 545H361Q460 545 522.5 496Q585 447 585 374Q585 276 511.5 207.5Q438 139 333 139Q297 139 277.5 151.5Q258 164 258 187Q258 201 268.5 212Q279 223 294 223Q309 223 319 212.5Q329 202 329 186Q329 182 327 175.5Q325 169 322 163L324 162Q399 165 455 225Q511 285 511 364Q511 432 468 472Q425 512 351 512Z" glyph-name="Thorn" horiz-adv-x="593" unicode="&#222;" /><glyph d="M774 605 674 249Q635 117 552.5 51Q470 -15 345 -15Q234 -15 175 60Q116 135 148 244L252 605Q260 632 253 647Q246 662 223 668L186 677L193 700H436L429 677L388 668Q362 662 347 648Q332 634 323 605L225 266Q194 159 234 95.5Q274 32 369 32Q479 32 544.5 99Q610 166 650 319L724 605Q731 633 724 647.5Q717 662 694 668L658 677L665 700H888L881 677L840 668Q814 662 798.5 647.5Q783 633 774 605Z" glyph-name="U" horiz-adv-x="770" unicode="U" /><glyph d="M774 605 674 249Q635 117 552.5 51Q470 -15 345 -15Q234 -15 175 60Q116 135 148 244L252 605Q260 632 253 647Q246 662 223 668L186 677L193 700H436L429 677L388 668Q362 662 347 648Q332 634 323 605L225 266Q194 159 234 95.5Q274 32 369 32Q479 32 544.5 99Q610 166 650 319L724 605Q731 633 724 647.5Q717 662 694 668L658 677L665 700H888L881 677L840 668Q814 662 798.5 647.5Q783 633 774 605ZM535 765H516L621 912H716Z" glyph-name="Uacute" horiz-adv-x="770" unicode="&#218;" /><glyph d="M774 605 674 249Q635 117 552.5 51Q470 -15 345 -15Q234 -15 175 60Q116 135 148 244L252 605Q260 632 253 647Q246 662 223 668L186 677L193 700H436L429 677L388 668Q362 662 347 648Q332 634 323 605L225 266Q194 159 234 95.5Q274 32 369 32Q479 32 544.5 99Q610 166 650 319L724 605Q731 633 724 647.5Q717 662 694 668L658 677L665 700H888L881 677L840 668Q814 662 798.5 647.5Q783 633 774 605ZM546 764Q486 764 457.5 799.5Q429 835 442 881L447 898H481L479 892Q472 862 491.5 842.5Q511 823 552 823Q593 823 621.5 842.5Q650 862 657 892L659 898H693L687 874Q674 822 637.5 793Q601 764 546 764Z" glyph-name="Ubreve" horiz-adv-x="770" unicode="&#364;" /><glyph d="M774 605 674 249Q635 117 552.5 51Q470 -15 345 -15Q234 -15 175 60Q116 135 148 244L252 605Q260 632 253 647Q246 662 223 668L186 677L193 700H436L429 677L388 668Q362 662 347 648Q332 634 323 605L225 266Q194 159 234 95.5Q274 32 369 32Q479 32 544.5 99Q610 166 650 319L724 605Q731 633 724 647.5Q717 662 694 668L658 677L665 700H888L881 677L840 668Q814 662 798.5 647.5Q783 633 774 605ZM442 765H413L545 912H591L643 765H614L551 848Z" glyph-name="Ucircumflex" horiz-adv-x="770" unicode="&#219;" /><glyph d="M774 605 674 249Q635 117 552.5 51Q470 -15 345 -15Q234 -15 175 60Q116 135 148 244L252 605Q260 632 253 647Q246 662 223 668L186 677L193 700H436L429 677L388 668Q362 662 347 648Q332 634 323 605L225 266Q194 159 234 95.5Q274 32 369 32Q479 32 544.5 99Q610 166 650 319L724 605Q731 633 724 647.5Q717 662 694 668L658 677L665 700H888L881 677L840 668Q814 662 798.5 647.5Q783 633 774 605ZM667 838Q667 816 652 801Q637 786 615 786Q593 786 578 801Q563 816 563 838Q563 860 578 875Q593 890 615 890Q637 890 652 875Q667 860 667 838ZM511 838Q511 816 496 801Q481 786 459 786Q437 786 422 801Q407 816 407 838Q407 860 422 875Q437 890 459 890Q481 890 496 875Q511 860 511 838Z" glyph-name="Udieresis" horiz-adv-x="770" unicode="&#220;" /><glyph d="M774 605 674 249Q635 117 552.5 51Q470 -15 345 -15Q234 -15 175 60Q116 135 148 244L252 605Q260 632 253 647Q246 662 223 668L186 677L193 700H436L429 677L388 668Q362 662 347 648Q332 634 323 605L225 266Q194 159 234 95.5Q274 32 369 32Q479 32 544.5 99Q610 166 650 319L724 605Q731 633 724 647.5Q717 662 694 668L658 677L665 700H888L881 677L840 668Q814 662 798.5 647.5Q783 633 774 605ZM539 765H520L389 912H472Z" glyph-name="Ugrave" horiz-adv-x="770" unicode="&#217;" /><glyph d="M774 605 674 249Q635 117 552.5 51Q470 -15 345 -15Q234 -15 175 60Q116 135 148 244L252 605Q260 632 253 647Q246 662 223 668L186 677L193 700H436L429 677L388 668Q362 662 347 648Q332 634 323 605L225 266Q194 159 234 95.5Q274 32 369 32Q479 32 544.5 99Q610 166 650 319L724 605Q731 633 724 647.5Q717 662 694 668L658 677L665 700H888L881 677L840 668Q814 662 798.5 647.5Q783 633 774 605ZM609 765H590L695 912H790ZM463 765H444L549 912H644Z" glyph-name="Uhungarumlaut" horiz-adv-x="770" unicode="&#368;" /><glyph d="M774 605 674 249Q635 117 552.5 51Q470 -15 345 -15Q234 -15 175 60Q116 135 148 244L252 605Q260 632 253 647Q246 662 223 668L186 677L193 700H436L429 677L388 668Q362 662 347 648Q332 634 323 605L225 266Q194 159 234 95.5Q274 32 369 32Q479 32 544.5 99Q610 166 650 319L724 605Q731 633 724 647.5Q717 662 694 668L658 677L665 700H888L881 677L840 668Q814 662 798.5 647.5Q783 633 774 605ZM671 791H400L415 838H686Z" glyph-name="Umacron" horiz-adv-x="770" unicode="&#362;" /><glyph d="M350 -189Q318 -189 297.5 -172Q277 -155 277 -126Q277 -101 300 -72.5Q323 -44 364 -15Q359 -15 354.5 -15Q350 -15 345 -15Q234 -15 175 60Q116 135 148 244L252 605Q260 632 253 647Q246 662 223 668L186 677L193 700H436L429 677L388 668Q362 662 347 648Q332 634 323 605L225 266Q194 159 234 95.5Q274 32 369 32Q479 32 544.5 99Q610 166 650 319L724 605Q731 633 724 647.5Q717 662 694 668L658 677L665 700H888L881 677L840 668Q814 662 798.5 647.5Q783 633 774 605L674 249Q640 133 571.5 68Q503 3 402 -11Q372 -53 359 -78Q346 -103 346 -118Q346 -135 358.5 -144.5Q371 -154 391 -154Q400 -154 408 -153.5Q416 -153 422 -152L413 -173Q400 -181 383.5 -185Q367 -189 350 -189Z" glyph-name="Uogonek" horiz-adv-x="770" unicode="&#370;" /><glyph d="M774 605 674 249Q635 117 552.5 51Q470 -15 345 -15Q234 -15 175 60Q116 135 148 244L252 605Q260 632 253 647Q246 662 223 668L186 677L193 700H436L429 677L388 668Q362 662 347 648Q332 634 323 605L225 266Q194 159 234 95.5Q274 32 369 32Q479 32 544.5 99Q610 166 650 319L724 605Q731 633 724 647.5Q717 662 694 668L658 677L665 700H888L881 677L840 668Q814 662 798.5 647.5Q783 633 774 605ZM644 855Q644 816 615.5 788Q587 760 548 760Q508 760 480 787.5Q452 815 452 855Q452 894 480.5 922.5Q509 951 548 951Q587 951 615.5 922.5Q644 894 644 855ZM484 855Q484 828 502.5 809Q521 790 548 790Q574 790 593 809Q612 828 612 855Q612 882 593 901.5Q574 921 548 921Q521 921 502.5 901.5Q484 882 484 855Z" glyph-name="Uring" horiz-adv-x="770" unicode="&#366;" /><glyph d="M774 605 674 249Q635 117 552.5 51Q470 -15 345 -15Q234 -15 175 60Q116 135 148 244L252 605Q260 632 253 647Q246 662 223 668L186 677L193 700H436L429 677L388 668Q362 662 347 648Q332 634 323 605L225 266Q194 159 234 95.5Q274 32 369 32Q479 32 544.5 99Q610 166 650 319L724 605Q731 633 724 647.5Q717 662 694 668L658 677L665 700H888L881 677L840 668Q814 662 798.5 647.5Q783 633 774 605ZM461 816Q446 816 436.5 807Q427 798 418 772L398 776Q411 824 432.5 847Q454 870 488 870Q499 870 514 866.5Q529 863 562 853Q592 843 605.5 840Q619 837 628 837Q643 837 652.5 846Q662 855 671 881L691 877Q678 829 656.5 806Q635 783 601 783Q590 783 575 786.5Q560 790 527 800Q497 810 483.5 813Q470 816 461 816Z" glyph-name="Utilde" horiz-adv-x="770" unicode="&#360;" /><glyph d="M697 603 256 0H195L217 605Q218 633 209.5 646.5Q201 660 179 668L154 677L161 700H401L394 677L340 668Q313 664 301 647.5Q289 631 288 601L261 53H263L620 571Q652 618 654 638.5Q656 659 629 666L584 677L591 700H828L821 677L791 669Q763 662 739.5 645.5Q716 629 697 603Z" glyph-name="V" horiz-adv-x="683" unicode="V" /><glyph d="M987 605 635 0H576L583 536H581L253 0H195L211 605Q212 630 202.5 644.5Q193 659 169 668L143 677L150 700H394L387 677L333 668Q308 664 297 648Q286 632 284 601L261 73H263L578 587V700H649L642 73H643L932 601Q947 628 943 644Q939 660 914 666L864 677L871 700H1108L1101 677L1071 668Q1040 659 1020.5 644.5Q1001 630 987 605Z" glyph-name="W" horiz-adv-x="979" unicode="W" /><glyph d="M987 605 635 0H576L583 536H581L253 0H195L211 605Q212 630 202.5 644.5Q193 659 169 668L143 677L150 700H394L387 677L333 668Q308 664 297 648Q286 632 284 601L261 73H263L578 587V700H649L642 73H643L932 601Q947 628 943 644Q939 660 914 666L864 677L871 700H1108L1101 677L1071 668Q1040 659 1020.5 644.5Q1001 630 987 605ZM620 765H601L706 912H801Z" glyph-name="Wacute" horiz-adv-x="979" unicode="&#7810;" /><glyph d="M987 605 635 0H576L583 536H581L253 0H195L211 605Q212 630 202.5 644.5Q193 659 169 668L143 677L150 700H394L387 677L333 668Q308 664 297 648Q286 632 284 601L261 73H263L578 587V700H649L642 73H643L932 601Q947 628 943 644Q939 660 914 666L864 677L871 700H1108L1101 677L1071 668Q1040 659 1020.5 644.5Q1001 630 987 605ZM527 765H498L630 912H676L728 765H699L636 848Z" glyph-name="Wcircumflex" horiz-adv-x="979" unicode="&#372;" /><glyph d="M987 605 635 0H576L583 536H581L253 0H195L211 605Q212 630 202.5 644.5Q193 659 169 668L143 677L150 700H394L387 677L333 668Q308 664 297 648Q286 632 284 601L261 73H263L578 587V700H649L642 73H643L932 601Q947 628 943 644Q939 660 914 666L864 677L871 700H1108L1101 677L1071 668Q1040 659 1020.5 644.5Q1001 630 987 605ZM752 838Q752 816 737 801Q722 786 700 786Q678 786 663 801Q648 816 648 838Q648 860 663 875Q678 890 700 890Q722 890 737 875Q752 860 752 838ZM596 838Q596 816 581 801Q566 786 544 786Q522 786 507 801Q492 816 492 838Q492 860 507 875Q522 890 544 890Q566 890 581 875Q596 860 596 838Z" glyph-name="Wdieresis" horiz-adv-x="979" unicode="&#7812;" /><glyph d="M987 605 635 0H576L583 536H581L253 0H195L211 605Q212 630 202.5 644.5Q193 659 169 668L143 677L150 700H394L387 677L333 668Q308 664 297 648Q286 632 284 601L261 73H263L578 587V700H649L642 73H643L932 601Q947 628 943 644Q939 660 914 666L864 677L871 700H1108L1101 677L1071 668Q1040 659 1020.5 644.5Q1001 630 987 605ZM624 765H605L474 912H557Z" glyph-name="Wgrave" horiz-adv-x="979" unicode="&#7808;" /><glyph d="M177 0H-53L-46 23L-23 31Q3 40 22.5 53Q42 66 70 95L320 352L233 605Q223 635 209.5 648.5Q196 662 172 668L132 677L139 700H279L378 399L557 601Q581 629 578.5 645.5Q576 662 547 668L496 677L503 700H730L723 677L702 670Q673 661 654.5 647.5Q636 634 609 605L388 373L482 95Q491 69 504.5 54Q518 39 538 32L574 23L567 0H438L331 325L122 99Q96 72 99.5 55Q103 38 134 32L184 23Z" glyph-name="X" horiz-adv-x="631" unicode="X" /><glyph d="M420 0H158L165 23L212 33Q242 40 258 54.5Q274 69 281 95L296 146Q320 228 329.5 293.5Q339 359 339 442Q339 534 308.5 594.5Q278 655 236 655Q203 655 176 627Q149 599 144 554H124Q124 614 160.5 664.5Q197 715 253 715Q323 715 362.5 649Q402 583 402 462Q402 418 395.5 368Q389 318 378 273H382Q444 480 529 589.5Q614 699 711 699Q757 699 787 673.5Q817 648 817 612Q817 591 803.5 576Q790 561 769 561Q752 561 740 573.5Q728 586 728 603Q728 621 742.5 633.5Q757 646 778 645V648Q769 651 759.5 652.5Q750 654 740 654Q630 654 530 513.5Q430 373 364 125L356 95Q346 57 352.5 47.5Q359 38 383 33L427 23Z" glyph-name="Y" horiz-adv-x="713" unicode="Y" /><glyph d="M351 33 395 23 388 0H126L133 23L180 33Q209 39 225 53Q241 67 249 95L300 271L209 605Q201 634 191 648Q181 662 165 668L137 677L144 700H388L381 677L327 668Q301 664 289 647Q277 630 284 604L358 303H360L593 601Q616 630 614 646.5Q612 663 584 668L532 677L539 700H771L764 677L733 668Q712 662 692.5 647.5Q673 633 649 605L370 271L319 95Q311 67 318.5 53Q326 39 351 33Z" glyph-name="Y.alt" horiz-adv-x="649" /><glyph d="M420 0H158L165 23L212 33Q242 40 258 54.5Q274 69 281 95L296 146Q320 228 329.5 293.5Q339 359 339 442Q339 534 308.5 594.5Q278 655 236 655Q203 655 176 627Q149 599 144 554H124Q124 614 160.5 664.5Q197 715 253 715Q323 715 362.5 649Q402 583 402 462Q402 418 395.5 368Q389 318 378 273H382Q444 480 529 589.5Q614 699 711 699Q757 699 787 673.5Q817 648 817 612Q817 591 803.5 576Q790 561 769 561Q752 561 740 573.5Q728 586 728 603Q728 621 742.5 633.5Q757 646 778 645V648Q769 651 759.5 652.5Q750 654 740 654Q630 654 530 513.5Q430 373 364 125L356 95Q346 57 352.5 47.5Q359 38 383 33L427 23ZM504 765H485L590 912H685Z" glyph-name="Yacute" horiz-adv-x="713" unicode="&#221;" /><glyph d="M420 0H158L165 23L212 33Q242 40 258 54.5Q274 69 281 95L296 146Q320 228 329.5 293.5Q339 359 339 442Q339 534 308.5 594.5Q278 655 236 655Q203 655 176 627Q149 599 144 554H124Q124 614 160.5 664.5Q197 715 253 715Q323 715 362.5 649Q402 583 402 462Q402 418 395.5 368Q389 318 378 273H382Q444 480 529 589.5Q614 699 711 699Q757 699 787 673.5Q817 648 817 612Q817 591 803.5 576Q790 561 769 561Q752 561 740 573.5Q728 586 728 603Q728 621 742.5 633.5Q757 646 778 645V648Q769 651 759.5 652.5Q750 654 740 654Q630 654 530 513.5Q430 373 364 125L356 95Q346 57 352.5 47.5Q359 38 383 33L427 23ZM411 765H382L514 912H560L612 765H583L520 848Z" glyph-name="Ycircumflex" horiz-adv-x="713" unicode="&#374;" /><glyph d="M420 0H158L165 23L212 33Q242 40 258 54.5Q274 69 281 95L296 146Q320 228 329.5 293.5Q339 359 339 442Q339 534 308.5 594.5Q278 655 236 655Q203 655 176 627Q149 599 144 554H124Q124 614 160.5 664.5Q197 715 253 715Q323 715 362.5 649Q402 583 402 462Q402 418 395.5 368Q389 318 378 273H382Q444 480 529 589.5Q614 699 711 699Q757 699 787 673.5Q817 648 817 612Q817 591 803.5 576Q790 561 769 561Q752 561 740 573.5Q728 586 728 603Q728 621 742.5 633.5Q757 646 778 645V648Q769 651 759.5 652.5Q750 654 740 654Q630 654 530 513.5Q430 373 364 125L356 95Q346 57 352.5 47.5Q359 38 383 33L427 23ZM636 838Q636 816 621 801Q606 786 584 786Q562 786 547 801Q532 816 532 838Q532 860 547 875Q562 890 584 890Q606 890 621 875Q636 860 636 838ZM480 838Q480 816 465 801Q450 786 428 786Q406 786 391 801Q376 816 376 838Q376 860 391 875Q406 890 428 890Q450 890 465 875Q480 860 480 838Z" glyph-name="Ydieresis" horiz-adv-x="713" unicode="&#376;" /><glyph d="M420 0H158L165 23L212 33Q242 40 258 54.5Q274 69 281 95L296 146Q320 228 329.5 293.5Q339 359 339 442Q339 534 308.5 594.5Q278 655 236 655Q203 655 176 627Q149 599 144 554H124Q124 614 160.5 664.5Q197 715 253 715Q323 715 362.5 649Q402 583 402 462Q402 418 395.5 368Q389 318 378 273H382Q444 480 529 589.5Q614 699 711 699Q757 699 787 673.5Q817 648 817 612Q817 591 803.5 576Q790 561 769 561Q752 561 740 573.5Q728 586 728 603Q728 621 742.5 633.5Q757 646 778 645V648Q769 651 759.5 652.5Q750 654 740 654Q630 654 530 513.5Q430 373 364 125L356 95Q346 57 352.5 47.5Q359 38 383 33L427 23ZM508 765H489L358 912H441Z" glyph-name="Ygrave" horiz-adv-x="713" unicode="&#7922;" /><glyph d="M-20 22 604 665 283 664Q265 664 252.5 655.5Q240 647 224 619L182 546H152L196 708Q250 704 307 702Q364 700 423 700H709L702 678L75 33L383 35Q427 35 454 54Q481 73 526 142L560 194H590L516 0H-26Z" glyph-name="Z" horiz-adv-x="642" unicode="Z" /><glyph d="M-20 22 604 665 283 664Q265 664 252.5 655.5Q240 647 224 619L182 546H152L196 708Q250 704 307 702Q364 700 423 700H709L702 678L75 33L383 35Q427 35 454 54Q481 73 526 142L560 194H590L516 0H-26ZM459 765H440L545 912H640Z" glyph-name="Zacute" horiz-adv-x="642" unicode="&#377;" /><glyph d="M-20 22 604 665 283 664Q265 664 252.5 655.5Q240 647 224 619L182 546H152L196 708Q250 704 307 702Q364 700 423 700H709L702 678L75 33L383 35Q427 35 454 54Q481 73 526 142L560 194H590L516 0H-26ZM429 765 377 912H406L469 829L578 912H607L475 765Z" glyph-name="Zcaron" horiz-adv-x="642" unicode="&#381;" /><glyph d="M-20 22 604 665 283 664Q265 664 252.5 655.5Q240 647 224 619L182 546H152L196 708Q250 704 307 702Q364 700 423 700H709L702 678L75 33L383 35Q427 35 454 54Q481 73 526 142L560 194H590L516 0H-26ZM510 834Q510 812 494.5 796.5Q479 781 457 781Q435 781 419.5 796.5Q404 812 404 834Q404 856 419.5 871Q435 886 457 886Q479 886 494.5 871Q510 856 510 834Z" glyph-name="Zdotaccent" horiz-adv-x="642" unicode="&#379;" /><glyph d="M335 -15Q315 -15 305 -3.5Q295 8 295 31Q295 55 308 102.5Q321 150 348 228H344Q266 113 191.5 49Q117 -15 62 -15Q36 -15 21.5 3Q7 21 7 51Q7 105 36.5 181.5Q66 258 112 324Q165 400 226 440Q287 480 350 480Q367 480 389 476.5Q411 473 432 466L478 488H495L438 314Q400 199 382 134.5Q364 70 364 51Q364 45 366.5 42Q369 39 373 39Q388 39 422 70.5Q456 102 476 133L495 126Q470 74 421.5 29.5Q373 -15 335 -15ZM76 64Q76 50 81 43Q86 36 96 36Q138 36 228.5 130.5Q319 225 373 319L408 427Q391 440 373 446.5Q355 453 335 453Q272 453 203 366.5Q134 280 97 161Q87 130 81.5 105Q76 80 76 64Z" glyph-name="a" horiz-adv-x="530" unicode="a" /><glyph d="M335 -15Q315 -15 305 -3.5Q295 8 295 31Q295 55 308 102.5Q321 150 348 228H344Q266 113 191.5 49Q117 -15 62 -15Q36 -15 21.5 3Q7 21 7 51Q7 105 36.5 181.5Q66 258 112 324Q165 400 226 440Q287 480 350 480Q367 480 389 476.5Q411 473 432 466L478 488H495L438 314Q400 199 382 134.5Q364 70 364 51Q364 45 366.5 42Q369 39 373 39Q388 39 422 70.5Q456 102 476 133L495 126Q470 74 421.5 29.5Q373 -15 335 -15ZM76 64Q76 50 81 43Q86 36 96 36Q138 36 228.5 130.5Q319 225 373 319L408 427Q391 440 373 446.5Q355 453 335 453Q272 453 203 366.5Q134 280 97 161Q87 130 81.5 105Q76 80 76 64ZM349 549H330L435 696H530Z" glyph-name="aacute" horiz-adv-x="530" unicode="&#225;" /><glyph d="M335 -15Q315 -15 305 -3.5Q295 8 295 31Q295 55 308 102.5Q321 150 348 228H344Q266 113 191.5 49Q117 -15 62 -15Q36 -15 21.5 3Q7 21 7 51Q7 105 36.5 181.5Q66 258 112 324Q165 400 226 440Q287 480 350 480Q367 480 389 476.5Q411 473 432 466L478 488H495L438 314Q400 199 382 134.5Q364 70 364 51Q364 45 366.5 42Q369 39 373 39Q388 39 422 70.5Q456 102 476 133L495 126Q470 74 421.5 29.5Q373 -15 335 -15ZM76 64Q76 50 81 43Q86 36 96 36Q138 36 228.5 130.5Q319 225 373 319L408 427Q391 440 373 446.5Q355 453 335 453Q272 453 203 366.5Q134 280 97 161Q87 130 81.5 105Q76 80 76 64ZM360 548Q300 548 271.5 583.5Q243 619 256 665L261 682H295L293 676Q286 646 305.5 626.5Q325 607 366 607Q407 607 435.5 626.5Q464 646 471 676L473 682H507L501 658Q488 606 451.5 577Q415 548 360 548Z" glyph-name="abreve" horiz-adv-x="530" unicode="&#259;" /><glyph d="M335 -15Q315 -15 305 -3.5Q295 8 295 31Q295 55 308 102.5Q321 150 348 228H344Q266 113 191.5 49Q117 -15 62 -15Q36 -15 21.5 3Q7 21 7 51Q7 105 36.5 181.5Q66 258 112 324Q165 400 226 440Q287 480 350 480Q367 480 389 476.5Q411 473 432 466L478 488H495L438 314Q400 199 382 134.5Q364 70 364 51Q364 45 366.5 42Q369 39 373 39Q388 39 422 70.5Q456 102 476 133L495 126Q470 74 421.5 29.5Q373 -15 335 -15ZM76 64Q76 50 81 43Q86 36 96 36Q138 36 228.5 130.5Q319 225 373 319L408 427Q391 440 373 446.5Q355 453 335 453Q272 453 203 366.5Q134 280 97 161Q87 130 81.5 105Q76 80 76 64ZM256 549H227L359 696H405L457 549H428L365 632Z" glyph-name="acircumflex" horiz-adv-x="530" unicode="&#226;" /><glyph d="M189 547H170L275 694H370Z" glyph-name="acute" horiz-adv-x="200" unicode="&#180;" /><glyph d="M335 -15Q315 -15 305 -3.5Q295 8 295 31Q295 55 308 102.5Q321 150 348 228H344Q266 113 191.5 49Q117 -15 62 -15Q36 -15 21.5 3Q7 21 7 51Q7 105 36.5 181.5Q66 258 112 324Q165 400 226 440Q287 480 350 480Q367 480 389 476.5Q411 473 432 466L478 488H495L438 314Q400 199 382 134.5Q364 70 364 51Q364 45 366.5 42Q369 39 373 39Q388 39 422 70.5Q456 102 476 133L495 126Q470 74 421.5 29.5Q373 -15 335 -15ZM76 64Q76 50 81 43Q86 36 96 36Q138 36 228.5 130.5Q319 225 373 319L408 427Q391 440 373 446.5Q355 453 335 453Q272 453 203 366.5Q134 280 97 161Q87 130 81.5 105Q76 80 76 64ZM481 622Q481 600 466 585Q451 570 429 570Q407 570 392 585Q377 600 377 622Q377 644 392 659Q407 674 429 674Q451 674 466 659Q481 644 481 622ZM325 622Q325 600 310 585Q295 570 273 570Q251 570 236 585Q221 600 221 622Q221 644 236 659Q251 674 273 674Q295 674 310 659Q325 644 325 622Z" glyph-name="adieresis" horiz-adv-x="530" unicode="&#228;" /><glyph d="M365 278Q369 277 374 277Q379 277 388 277Q427 277 461 284.5Q495 292 523 306Q561 325 583.5 354.5Q606 384 606 410Q606 432 591 445.5Q576 459 552 459Q500 459 448.5 408.5Q397 358 365 278ZM76 64Q76 50 81 43Q86 36 96 36Q125 36 175.5 82.5Q226 129 283 211Q297 270 329 324.5Q361 379 404 419Q384 433 367.5 439.5Q351 446 335 446Q271 446 202.5 362Q134 278 97 161Q87 130 81.5 105Q76 80 76 64ZM584 133 603 124Q567 59 515.5 22Q464 -15 405 -15Q345 -15 308.5 26Q272 67 272 131Q272 137 272.5 144Q273 151 274 162Q231 89 168.5 37Q106 -15 59 -15Q34 -14 20 2.5Q6 19 6 47Q6 100 35.5 176.5Q65 253 112 319Q165 393 226 433Q287 473 350 473Q375 473 401.5 468.5Q428 464 452 455Q479 472 506 480Q533 488 560 488Q606 488 631 466.5Q656 445 656 408Q656 377 631 344Q606 311 563 287Q530 269 491 259Q452 249 410 249Q395 249 382 250Q369 251 356 253Q347 227 342.5 201.5Q338 176 338 153Q338 98 363 67.5Q388 37 434 37Q471 37 511.5 64Q552 91 584 133Z" glyph-name="ae" horiz-adv-x="670" unicode="&#230;" /><glyph d="M335 -15Q315 -15 305 -3.5Q295 8 295 31Q295 55 308 102.5Q321 150 348 228H344Q266 113 191.5 49Q117 -15 62 -15Q36 -15 21.5 3Q7 21 7 51Q7 105 36.5 181.5Q66 258 112 324Q165 400 226 440Q287 480 350 480Q367 480 389 476.5Q411 473 432 466L478 488H495L438 314Q400 199 382 134.5Q364 70 364 51Q364 45 366.5 42Q369 39 373 39Q388 39 422 70.5Q456 102 476 133L495 126Q470 74 421.5 29.5Q373 -15 335 -15ZM76 64Q76 50 81 43Q86 36 96 36Q138 36 228.5 130.5Q319 225 373 319L408 427Q391 440 373 446.5Q355 453 335 453Q272 453 203 366.5Q134 280 97 161Q87 130 81.5 105Q76 80 76 64ZM353 549H334L203 696H286Z" glyph-name="agrave" horiz-adv-x="530" unicode="&#224;" /><glyph d="M335 -15Q315 -15 305 -3.5Q295 8 295 31Q295 55 308 102.5Q321 150 348 228H344Q266 113 191.5 49Q117 -15 62 -15Q36 -15 21.5 3Q7 21 7 51Q7 105 36.5 181.5Q66 258 112 324Q165 400 226 440Q287 480 350 480Q367 480 389 476.5Q411 473 432 466L478 488H495L438 314Q400 199 382 134.5Q364 70 364 51Q364 45 366.5 42Q369 39 373 39Q388 39 422 70.5Q456 102 476 133L495 126Q470 74 421.5 29.5Q373 -15 335 -15ZM76 64Q76 50 81 43Q86 36 96 36Q138 36 228.5 130.5Q319 225 373 319L408 427Q391 440 373 446.5Q355 453 335 453Q272 453 203 366.5Q134 280 97 161Q87 130 81.5 105Q76 80 76 64ZM485 575H214L229 622H500Z" glyph-name="amacron" horiz-adv-x="530" unicode="&#257;" /><glyph d="M373 -52Q242 -52 150.5 23Q59 98 59 210Q59 255 75 294.5Q91 334 121 366Q153 399 194.5 418Q236 437 273 437L275 440Q246 460 230 490.5Q214 521 214 555Q214 624 267.5 672.5Q321 721 401 721Q459 721 500 688.5Q541 656 541 610Q541 567 512.5 539Q484 511 441 511Q414 511 391 527.5Q368 544 363 567L379 578Q388 563 403 555Q418 547 435 547Q466 547 484 565Q502 583 502 614Q502 646 475.5 668Q449 690 412 690Q355 690 316 648.5Q277 607 277 540Q277 500 296.5 470Q316 440 352 427L335 407Q323 410 313.5 411.5Q304 413 294 413Q227 413 181.5 364.5Q136 316 136 238Q136 140 212.5 73.5Q289 7 417 7Q475 7 525 24Q575 41 615 73Q659 108 683.5 157Q708 206 708 256Q708 324 668.5 365.5Q629 407 564 407Q495 407 450 364Q405 321 405 258Q405 212 434.5 181.5Q464 151 501 151Q536 151 562 169.5Q588 188 588 209Q588 215 585.5 217.5Q583 220 578 220Q576 220 573 219.5Q570 219 564 216Q558 214 555 213Q552 212 549 212Q532 212 520 223.5Q508 235 508 252Q508 271 520.5 283.5Q533 296 553 297Q580 297 596 279Q612 261 612 232Q612 188 580 158.5Q548 129 497 129Q443 129 402.5 169Q362 209 362 270Q362 347 421.5 402.5Q481 458 579 458Q599 458 623.5 457Q648 456 695 454Q725 452 737.5 451.5Q750 451 758 451Q827 451 867.5 488.5Q908 526 908 583Q908 630 877.5 658.5Q847 687 800 687Q766 687 736.5 665.5Q707 644 707 618Q707 609 710.5 604.5Q714 600 724 598Q742 593 751 583.5Q760 574 761 561Q760 542 748 530Q736 518 717 518Q696 518 680 535.5Q664 553 664 577Q664 632 704 670.5Q744 709 801 709Q863 709 902.5 671Q942 633 942 571Q942 492 884 437Q826 382 728 382Q723 382 716.5 382.5Q710 383 694 384L693 382Q713 359 725 323.5Q737 288 737 251Q737 120 635 34Q533 -52 373 -52Z" glyph-name="ampersand" horiz-adv-x="892" unicode="&amp;" /><glyph d="M313 -189Q281 -189 260.5 -172Q240 -155 240 -126Q240 -101 262.5 -72.5Q285 -44 327 -14Q311 -12 303 -0.5Q295 11 295 31Q295 55 308 102.5Q321 150 348 228H344Q266 113 191.5 49Q117 -15 62 -15Q36 -15 21.5 3Q7 21 7 51Q7 105 36.5 181.5Q66 258 112 324Q165 400 226 440Q287 480 350 480Q367 480 389 476.5Q411 473 432 466L478 488H495L438 314Q400 199 382 134.5Q364 70 364 51Q364 45 366.5 42Q369 39 373 39Q388 39 422 70.5Q456 102 476 133L495 126Q475 86 438 46.5Q401 7 368 -7Q338 -47 323.5 -74Q309 -101 309 -118Q309 -135 321.5 -144.5Q334 -154 354 -154Q363 -154 371 -153.5Q379 -153 385 -152L376 -173Q363 -181 346.5 -185Q330 -189 313 -189ZM76 64Q76 50 81 43Q86 36 96 36Q138 36 228.5 130.5Q319 225 373 319L408 427Q391 440 373 446.5Q355 453 335 453Q272 453 203 366.5Q134 280 97 161Q87 130 81.5 105Q76 80 76 64Z" glyph-name="aogonek" horiz-adv-x="530" unicode="&#261;" /><glyph d="M283 667Q283 628 247 579.5Q211 531 146 480L126 496Q166 541 187 581Q208 621 208 652Q208 667 200 675Q192 683 177 683Q171 683 163.5 681.5Q156 680 149 678L158 698Q177 708 195 714Q213 720 227 720Q253 720 268 703.5Q283 687 283 667Z" glyph-name="apostrophemod" horiz-adv-x="245" unicode="&#700;" /><glyph d="M428 398Q417 398 395 402Q373 406 319 420Q269 432 249.5 436Q230 440 221 440Q198 440 182.5 430Q167 420 154 399L141 403Q162 447 189.5 468.5Q217 490 251 490Q262 490 284 486Q306 482 360 468Q410 456 429.5 452Q449 448 458 448Q481 448 496.5 458Q512 468 525 489L538 485Q517 441 489.5 419.5Q462 398 428 398ZM364 233Q353 233 331 237Q309 241 255 255Q205 267 185.5 271Q166 275 157 275Q134 275 118.5 265Q103 255 90 234L77 238Q98 282 125.5 303.5Q153 325 187 325Q198 325 220 321Q242 317 296 303Q346 291 365.5 287Q385 283 394 283Q417 283 432.5 293Q448 303 461 324L474 320Q453 276 425.5 254.5Q398 233 364 233Z" glyph-name="approxequal" horiz-adv-x="540" unicode="&#8776;" /><glyph d="M335 -15Q315 -15 305 -3.5Q295 8 295 31Q295 55 308 102.5Q321 150 348 228H344Q266 113 191.5 49Q117 -15 62 -15Q36 -15 21.5 3Q7 21 7 51Q7 105 36.5 181.5Q66 258 112 324Q165 400 226 440Q287 480 350 480Q367 480 389 476.5Q411 473 432 466L478 488H495L438 314Q400 199 382 134.5Q364 70 364 51Q364 45 366.5 42Q369 39 373 39Q388 39 422 70.5Q456 102 476 133L495 126Q470 74 421.5 29.5Q373 -15 335 -15ZM76 64Q76 50 81 43Q86 36 96 36Q138 36 228.5 130.5Q319 225 373 319L408 427Q391 440 373 446.5Q355 453 335 453Q272 453 203 366.5Q134 280 97 161Q87 130 81.5 105Q76 80 76 64ZM458 639Q458 600 429.5 572Q401 544 362 544Q322 544 294 571.5Q266 599 266 639Q266 678 294.5 706.5Q323 735 362 735Q401 735 429.5 706.5Q458 678 458 639ZM298 639Q298 612 316.5 593Q335 574 362 574Q388 574 407 593Q426 612 426 639Q426 666 407 685.5Q388 705 362 705Q335 705 316.5 685.5Q298 666 298 639Z" glyph-name="aring" horiz-adv-x="530" unicode="&#229;" /><glyph d="M679 323 393 29 108 323 145 359 365 154 361 699H426L422 154L642 359Z" glyph-name="arrowdown" horiz-adv-x="735" unicode="&#8595;" /><glyph d="M590 105 180 99 186 509H237L248 208L631 596L677 550L289 167L590 156Z" glyph-name="arrowdownleft" horiz-adv-x="735" unicode="&#8601;" /><glyph d="M578 509H629L635 99L226 105V156L526 167L138 550L184 596L567 208Z" glyph-name="arrowdownright" horiz-adv-x="735" unicode="&#8600;" /><glyph d="M166 369 129 405 414 699 700 405 663 369 443 574 447 29H382L386 574Z" glyph-name="arrowup" horiz-adv-x="735" unicode="&#8593;" /><glyph d="M220 186H169L163 596L573 590V539L272 528L660 145L614 99L231 487Z" glyph-name="arrowupleft" horiz-adv-x="735" unicode="&#8598;" /><glyph d="M208 590 618 596 612 186H561L550 487L167 99L121 145L509 528L208 539Z" glyph-name="arrowupright" horiz-adv-x="735" unicode="&#8599;" /><glyph d="M129 358H91L422 715H449L527 358H502L416 638Z" glyph-name="asciicircum" horiz-adv-x="540" unicode="^" /><glyph d="M394 314Q383 314 361 318Q339 322 285 336Q235 348 215.5 352Q196 356 187 356Q164 356 148.5 346Q133 336 120 315L107 319Q128 363 155.5 384.5Q183 406 217 406Q228 406 250 402Q272 398 326 384Q376 372 395.5 368Q415 364 424 364Q447 364 462.5 374Q478 384 491 405L504 401Q483 357 455.5 335.5Q428 314 394 314Z" glyph-name="asciitilde" horiz-adv-x="540" unicode="~" /><glyph d="M475 374 400 324 333 492 213 358 160 430 312 511 149 581 198 657 327 537V712L414 697L355 531L516 600L536 512L361 504Z" glyph-name="asterisk" horiz-adv-x="515" unicode="*" /><glyph d="M442 -183Q358 -183 289 -158Q220 -133 169 -84Q116 -34 87.5 36Q59 106 59 184Q59 270 92 351.5Q125 433 185 496Q246 560 325 594Q404 628 493 628Q634 628 726 538Q818 448 818 317Q818 199 758 112Q698 25 611 25Q557 25 533.5 71Q510 117 526 197H522Q477 115 425.5 70Q374 25 330 25Q300 25 283.5 47.5Q267 70 267 112Q267 159 285 215.5Q303 272 333 319Q369 375 414 404.5Q459 434 509 434Q516 434 536 432Q556 430 589 426L618 446H633L602 302Q586 221 581 185.5Q576 150 576 128Q576 90 587 71.5Q598 53 622 53Q654 53 688 79Q722 105 746 148Q765 182 774.5 222Q784 262 784 306Q784 434 703 515Q622 596 498 596Q420 596 351.5 564Q283 532 231 473Q182 416 155.5 343.5Q129 271 129 194Q128 36 217.5 -57Q307 -150 448 -150Q500 -150 551.5 -135Q603 -120 648 -92L669 -105Q638 -133 569 -158Q500 -183 442 -183ZM326 107Q326 91 335 79Q344 67 357 67Q390 67 445 130.5Q500 194 546 298L565 387Q543 400 527.5 405Q512 410 499 410Q469 410 434.5 376Q400 342 372 285Q350 241 338 194.5Q326 148 326 107Z" glyph-name="at" horiz-adv-x="872" unicode="@" /><glyph d="M475 -69Q391 -69 322 -44Q253 -19 202 30Q149 80 120.5 150Q92 220 92 298Q92 384 125 465.5Q158 547 218 610Q279 674 358 708Q437 742 526 742Q667 742 759 652Q851 562 851 431Q851 313 791 226Q731 139 644 139Q590 139 566.5 185Q543 231 559 311H555Q510 229 458.5 184Q407 139 363 139Q333 139 316.5 161.5Q300 184 300 226Q300 273 318 329.5Q336 386 366 433Q402 489 447 518.5Q492 548 542 548Q549 548 569 546Q589 544 622 540L651 560H666L635 416Q619 335 614 299.5Q609 264 609 242Q609 204 620 185.5Q631 167 655 167Q687 167 721 193Q755 219 779 262Q798 296 807.5 336Q817 376 817 420Q817 548 736 629Q655 710 531 710Q453 710 384.5 678Q316 646 264 587Q215 530 188.5 457.5Q162 385 162 308Q161 150 250.5 57Q340 -36 481 -36Q533 -36 584.5 -21Q636 -6 681 22L702 9Q671 -19 602 -44Q533 -69 475 -69ZM359 221Q359 205 368 193Q377 181 390 181Q423 181 478 244.5Q533 308 579 412L598 501Q576 514 560.5 519Q545 524 532 524Q502 524 467.5 490Q433 456 405 399Q383 355 371 308.5Q359 262 359 221Z" glyph-name="at.case" horiz-adv-x="855" /><glyph d="M335 -15Q315 -15 305 -3.5Q295 8 295 31Q295 55 308 102.5Q321 150 348 228H344Q266 113 191.5 49Q117 -15 62 -15Q36 -15 21.5 3Q7 21 7 51Q7 105 36.5 181.5Q66 258 112 324Q165 400 226 440Q287 480 350 480Q367 480 389 476.5Q411 473 432 466L478 488H495L438 314Q400 199 382 134.5Q364 70 364 51Q364 45 366.5 42Q369 39 373 39Q388 39 422 70.5Q456 102 476 133L495 126Q470 74 421.5 29.5Q373 -15 335 -15ZM76 64Q76 50 81 43Q86 36 96 36Q138 36 228.5 130.5Q319 225 373 319L408 427Q391 440 373 446.5Q355 453 335 453Q272 453 203 366.5Q134 280 97 161Q87 130 81.5 105Q76 80 76 64ZM275 600Q260 600 250.5 591Q241 582 232 556L212 560Q225 608 246.5 631Q268 654 302 654Q313 654 328 650.5Q343 647 376 637Q406 627 419.5 624Q433 621 442 621Q457 621 466.5 630Q476 639 485 665L505 661Q492 613 470.5 590Q449 567 415 567Q404 567 389 570.5Q374 574 341 584Q311 594 297.5 597Q284 600 275 600Z" glyph-name="atilde" horiz-adv-x="530" unicode="&#227;" /><glyph d="M368 141Q305 68 238.5 26.5Q172 -15 114 -15Q78 -15 56 7.5Q34 30 34 70Q34 94 40.5 125.5Q47 157 60 196L220 677L131 687L136 704Q180 710 232 722.5Q284 735 306 744H308L140 245H145Q215 351 295 419.5Q375 488 433 488Q464 488 481.5 468Q499 448 499 414Q499 361 463 286Q427 211 368 141ZM86 53Q86 36 95.5 27Q105 18 120 18Q158 18 211 58Q264 98 317 166Q366 228 396.5 289.5Q427 351 428 389Q428 415 420 426Q412 437 394 437Q367 437 310 390.5Q253 344 198 278Q145 214 115.5 155Q86 96 86 53Z" glyph-name="b" horiz-adv-x="502" unicode="b" /><glyph d="M346 -65 315 -69 182 767 211 770Z" glyph-name="backslash" horiz-adv-x="464" unicode="\" /><glyph d="M61 -66H19L264 789H306Z" glyph-name="bar" horiz-adv-x="254" unicode="|" /><glyph d="M167 -162 154 -184Q84 -184 49 -163Q14 -142 14 -100Q14 -92 15.5 -82Q17 -72 21 -59Q27 -40 39.5 -15.5Q52 9 86 62Q131 132 144.5 163.5Q158 195 158 217Q158 244 137 258Q116 272 75 272H34L40 293L90 294Q155 295 186.5 334.5Q218 374 218 453Q218 459 218 466.5Q218 474 218 489Q217 504 217 512Q217 520 217 526Q217 645 270 696Q323 747 436 747L438 725L431 724Q379 716 348 693Q317 670 306 631Q303 620 300.5 601Q298 582 295 536Q294 502 292.5 485Q291 468 289 454Q280 382 241 337.5Q202 293 138 282V280Q172 272 191 249.5Q210 227 210 195Q210 166 197 131.5Q184 97 143 29Q109 -28 98.5 -53.5Q88 -79 88 -99Q88 -127 105 -142.5Q122 -158 157 -161Z" glyph-name="braceleft" horiz-adv-x="335" unicode="{" /><glyph d="M191 -94 178 -116Q108 -116 73 -95Q38 -74 38 -32Q38 -24 39.5 -14Q41 -4 45 9Q51 28 63.5 52.5Q76 77 110 130Q155 200 168.5 231.5Q182 263 182 285Q182 312 161 326Q140 340 99 340H58L64 361L114 362Q179 363 210.5 402.5Q242 442 242 521Q242 527 242 534.5Q242 542 242 557Q241 572 241 580Q241 588 241 594Q241 713 294 764Q347 815 460 815L462 793L455 792Q403 784 372 761Q341 738 330 699Q327 688 324.5 669Q322 650 319 604Q318 570 316.5 553Q315 536 313 522Q304 450 265 405.5Q226 361 162 350V348Q196 340 215 317.5Q234 295 234 263Q234 234 221 199.5Q208 165 167 97Q133 40 122.5 14.5Q112 -11 112 -31Q112 -59 129 -74.5Q146 -90 181 -93Z" glyph-name="braceleft.case" horiz-adv-x="345" /><glyph d="M142 37Q142 -83 89 -133.5Q36 -184 -77 -184L-79 -162L-72 -161Q-20 -153 11 -130Q42 -107 53 -68Q56 -57 58.5 -38Q61 -19 64 27Q65 61 66.5 78Q68 95 70 109Q79 180 116 222.5Q153 265 221 281V283Q187 291 168 313.5Q149 336 149 368Q149 397 162 431.5Q175 466 216 534Q250 591 260.5 616.5Q271 642 271 662Q271 690 254 705.5Q237 721 202 724L192 725L205 747Q275 747 310 726Q345 705 345 663Q345 655 343.5 645Q342 635 338 622Q332 603 319.5 578.5Q307 554 273 501Q228 431 214.5 399.5Q201 368 201 346Q201 319 222 305Q243 291 284 291H325L319 270L269 269Q204 268 172.5 228.5Q141 189 141 110Q141 104 141 96.5Q141 89 141 74Q142 59 142 51Q142 43 142 37Z" glyph-name="braceright" horiz-adv-x="332" unicode="}" /><glyph d="M169 105Q169 -15 116 -65.5Q63 -116 -50 -116L-52 -94L-45 -93Q7 -85 38 -62Q69 -39 80 0Q83 11 85.5 30Q88 49 91 95Q92 129 93.5 146Q95 163 97 177Q106 248 143 290.5Q180 333 248 349V351Q214 359 195 381.5Q176 404 176 436Q176 465 189 499.5Q202 534 243 602Q277 659 287.5 684.5Q298 710 298 730Q298 758 281 773.5Q264 789 229 792L219 793L232 815Q302 815 337 794Q372 773 372 731Q372 723 370.5 713Q369 703 365 690Q359 671 346.5 646.5Q334 622 300 569Q255 499 241.5 467.5Q228 436 228 414Q228 387 249 373Q270 359 311 359H352L346 338L296 337Q231 336 199.5 296.5Q168 257 168 178Q168 172 168 164.5Q168 157 168 142Q169 127 169 119Q169 111 169 105Z" glyph-name="braceright.case" horiz-adv-x="343" /><glyph d="M174 -191H-17L248 736H437L428 703H276Q262 558 244.5 455Q227 352 205 273Q182 193 139.5 88.5Q97 -16 29 -158H183Z" glyph-name="bracketleft" horiz-adv-x="332" unicode="[" /><glyph d="M205 -121H14L279 806H468L459 773H307Q293 628 275.5 525Q258 422 236 343Q213 263 170.5 158.5Q128 54 60 -88H214Z" glyph-name="bracketleft.case" horiz-adv-x="348" /><glyph d="M104 -191H-85L-76 -158H76Q90 -13 107.5 90Q125 193 147 272Q170 352 212.5 456.5Q255 561 323 703H169L178 736H369Z" glyph-name="bracketright" horiz-adv-x="332" unicode="]" /><glyph d="M129 -121H-60L-51 -88H101Q115 57 132.5 160Q150 263 172 342Q195 422 237.5 526.5Q280 631 348 773H194L203 806H394Z" glyph-name="bracketright.case" horiz-adv-x="347" /><glyph d="M304 556Q244 556 215.5 591.5Q187 627 200 673L205 690H239L237 684Q230 654 249.5 634.5Q269 615 310 615Q351 615 379.5 634.5Q408 654 415 684L417 690H451L445 666Q432 614 395.5 585Q359 556 304 556Z" glyph-name="breve" horiz-adv-x="336" unicode="&#728;" /><glyph d="M200 420H158L263 789H305ZM60 -66H18L124 303H166Z" glyph-name="brokenbar" horiz-adv-x="252" unicode="&#166;" /><glyph d="M300 364Q300 329 274.5 303.5Q249 278 213 278Q178 278 152.5 303.5Q127 329 127 364Q127 399 152.5 425Q178 451 213 451Q249 451 274.5 425.5Q300 400 300 364Z" glyph-name="bullet" horiz-adv-x="365" unicode="&#8226;" /><glyph d="M98 153Q98 98 123 67.5Q148 37 194 37Q231 37 271.5 64Q312 91 344 133L363 124Q327 59 275.5 22Q224 -15 165 -15Q105 -15 68.5 26Q32 67 32 131Q32 188 53 248Q74 308 112 360Q155 420 208.5 454Q262 488 313 488Q356 488 384 465Q412 442 412 409Q412 385 398.5 369.5Q385 354 367 354Q350 354 339.5 363.5Q329 373 329 387Q329 392 331 398Q333 404 339 416Q344 426 345.5 431Q347 436 347 439Q347 448 337 455Q327 462 311 462Q273 462 232 430Q191 398 158 343Q130 297 114 247Q98 197 98 153Z" glyph-name="c" horiz-adv-x="425" unicode="c" /><glyph d="M728 663Q713 663 697.5 647Q682 631 671 605Q678 603 684 602.5Q690 602 696 602Q721 602 737.5 612.5Q754 623 754 639Q754 650 747 656.5Q740 663 728 663ZM659 133 679 126Q645 76 581.5 30.5Q518 -15 471 -15Q452 -15 441 -4.5Q430 6 430 23Q430 36 434.5 56.5Q439 77 474 186L552 427H463L471 453H561Q579 505 592.5 539Q606 573 614 590Q562 597 498.5 603.5Q435 610 409 610Q357 610 325.5 584.5Q294 559 294 516Q294 509 295 502Q296 495 299 487Q302 488 304.5 488Q307 488 313 488Q356 488 384 465Q412 442 412 409Q412 385 398.5 369.5Q385 354 367 354Q350 354 339.5 363.5Q329 373 329 387Q329 392 331 398Q333 404 339 416Q344 426 345.5 431Q347 436 347 439Q347 448 337 455Q327 462 311 462Q273 462 232 430Q191 398 158 343Q130 297 114 247Q98 197 98 153Q98 98 123 67.5Q148 37 194 37Q231 37 271.5 64Q312 91 344 133L363 124Q327 59 275.5 22Q224 -15 165 -15Q105 -15 68.5 26Q32 67 32 131Q32 247 108.5 355.5Q185 464 280 484Q268 502 261.5 520.5Q255 539 255 556Q255 603 289 632Q323 661 372 661Q393 661 424.5 656.5Q456 652 501 643Q528 637 571.5 627Q615 617 628 614Q652 649 677.5 667Q703 685 729 685Q752 685 766 672.5Q780 660 780 641Q780 613 755.5 595.5Q731 578 695 578Q686 578 678.5 579Q671 580 663 582Q652 547 642 514.5Q632 482 624 453H747L739 427H617L509 68Q506 59 505 53.5Q504 48 504 45Q504 41 506 38.5Q508 36 511 36Q530 36 579 68.5Q628 101 659 133Z" glyph-name="c_t" horiz-adv-x="728" unicode="&#57345;" /><glyph d="M98 153Q98 98 123 67.5Q148 37 194 37Q231 37 271.5 64Q312 91 344 133L363 124Q327 59 275.5 22Q224 -15 165 -15Q105 -15 68.5 26Q32 67 32 131Q32 188 53 248Q74 308 112 360Q155 420 208.5 454Q262 488 313 488Q356 488 384 465Q412 442 412 409Q412 385 398.5 369.5Q385 354 367 354Q350 354 339.5 363.5Q329 373 329 387Q329 392 331 398Q333 404 339 416Q344 426 345.5 431Q347 436 347 439Q347 448 337 455Q327 462 311 462Q273 462 232 430Q191 398 158 343Q130 297 114 247Q98 197 98 153ZM311 549H292L397 696H492Z" glyph-name="cacute" horiz-adv-x="425" unicode="&#263;" /><glyph d="M252 547 200 694H229L292 611L401 694H430L298 547Z" glyph-name="caron" horiz-adv-x="320" unicode="&#711;" /><glyph d="M98 153Q98 98 123 67.5Q148 37 194 37Q231 37 271.5 64Q312 91 344 133L363 124Q327 59 275.5 22Q224 -15 165 -15Q105 -15 68.5 26Q32 67 32 131Q32 188 53 248Q74 308 112 360Q155 420 208.5 454Q262 488 313 488Q356 488 384 465Q412 442 412 409Q412 385 398.5 369.5Q385 354 367 354Q350 354 339.5 363.5Q329 373 329 387Q329 392 331 398Q333 404 339 416Q344 426 345.5 431Q347 436 347 439Q347 448 337 455Q327 462 311 462Q273 462 232 430Q191 398 158 343Q130 297 114 247Q98 197 98 153ZM281 549 229 696H258L321 613L430 696H459L327 549Z" glyph-name="ccaron" horiz-adv-x="425" unicode="&#269;" /><glyph d="M193 -140Q193 -178 162 -201.5Q131 -225 86 -225Q66 -225 47 -221Q28 -217 10 -209V-179Q22 -185 38 -188.5Q54 -192 67 -192Q95 -192 112.5 -179Q130 -166 130 -144Q130 -124 110.5 -106.5Q91 -89 66 -83V-80L131 -11Q86 -1 59 38Q32 77 32 131Q32 188 53 248Q74 308 112 360Q155 420 208.5 454Q262 488 313 488Q356 488 384 465Q412 442 412 409Q412 385 398.5 369.5Q385 354 367 354Q350 354 339.5 363.5Q329 373 329 387Q329 392 331 398Q333 404 339 416Q344 426 345.5 431Q347 436 347 439Q347 448 337 455Q327 462 311 462Q273 462 232 430Q191 398 158 343Q130 297 114 247Q98 197 98 153Q98 98 123 67.5Q148 37 194 37Q231 37 271.5 64Q312 91 344 133L363 124Q327 59 275.5 22Q224 -15 165 -15Q162 -15 159 -15Q156 -15 153 -15L125 -64Q151 -69 172 -90.5Q193 -112 193 -140Z" glyph-name="ccedilla" horiz-adv-x="425" unicode="&#231;" /><glyph d="M98 153Q98 98 123 67.5Q148 37 194 37Q231 37 271.5 64Q312 91 344 133L363 124Q327 59 275.5 22Q224 -15 165 -15Q105 -15 68.5 26Q32 67 32 131Q32 188 53 248Q74 308 112 360Q155 420 208.5 454Q262 488 313 488Q356 488 384 465Q412 442 412 409Q412 385 398.5 369.5Q385 354 367 354Q350 354 339.5 363.5Q329 373 329 387Q329 392 331 398Q333 404 339 416Q344 426 345.5 431Q347 436 347 439Q347 448 337 455Q327 462 311 462Q273 462 232 430Q191 398 158 343Q130 297 114 247Q98 197 98 153ZM218 549H189L321 696H367L419 549H390L327 632Z" glyph-name="ccircumflex" horiz-adv-x="425" unicode="&#265;" /><glyph d="M98 153Q98 98 123 67.5Q148 37 194 37Q231 37 271.5 64Q312 91 344 133L363 124Q327 59 275.5 22Q224 -15 165 -15Q105 -15 68.5 26Q32 67 32 131Q32 188 53 248Q74 308 112 360Q155 420 208.5 454Q262 488 313 488Q356 488 384 465Q412 442 412 409Q412 385 398.5 369.5Q385 354 367 354Q350 354 339.5 363.5Q329 373 329 387Q329 392 331 398Q333 404 339 416Q344 426 345.5 431Q347 436 347 439Q347 448 337 455Q327 462 311 462Q273 462 232 430Q191 398 158 343Q130 297 114 247Q98 197 98 153ZM362 618Q362 596 346.5 580.5Q331 565 309 565Q287 565 271.5 580.5Q256 596 256 618Q256 640 271.5 655Q287 670 309 670Q331 670 346.5 655Q362 640 362 618Z" glyph-name="cdotaccent" horiz-adv-x="425" unicode="&#267;" /><glyph d="M153 -140Q153 -178 122 -201.5Q91 -225 46 -225Q26 -225 7 -221Q-12 -217 -30 -209V-179Q-18 -185 -2 -188.5Q14 -192 27 -192Q55 -192 72.5 -179Q90 -166 90 -144Q90 -124 70.5 -106.5Q51 -89 26 -83V-80L104 2L121 0L85 -64Q111 -69 132 -90.5Q153 -112 153 -140Z" glyph-name="cedilla" horiz-adv-x="286" unicode="&#184;" /><glyph d="M169 343Q141 297 125 247Q109 197 109 153Q109 127 115 106Q121 85 132 71L353 451Q348 456 340 459Q332 462 322 462Q284 462 243 430Q202 398 169 343ZM176 -15Q160 -15 145.5 -12Q131 -9 118 -3L47 -125H18L96 10Q71 30 57 61.5Q43 93 43 131Q43 188 64 248Q85 308 123 360Q166 420 219.5 454Q273 488 324 488Q336 488 348 486Q360 484 370 480L425 575H455L392 467Q407 456 415 440.5Q423 425 423 409Q423 385 409.5 369.5Q396 354 378 354Q364 354 354.5 361Q345 368 341 379L150 53Q161 45 174.5 41Q188 37 205 37Q242 37 282.5 64Q323 91 355 133L374 124Q338 59 286.5 22Q235 -15 176 -15Z" glyph-name="cent" horiz-adv-x="451" unicode="&#162;" /><glyph d="M189 547H160L292 694H338L390 547H361L298 630Z" glyph-name="circumflex" horiz-adv-x="320" unicode="&#710;" /><glyph d="M249 406Q249 381 232 364Q215 347 190 347Q166 347 149 364Q132 381 132 406Q132 430 149 447Q166 464 190 464Q215 464 232 447Q249 430 249 406ZM139 44Q139 19 122 2Q105 -15 80 -15Q56 -15 39 2Q22 19 22 44Q22 68 39 85Q56 102 80 102Q105 102 122 85Q139 68 139 44Z" glyph-name="colon" horiz-adv-x="278" unicode=":" /><glyph d="M131 130Q131 80 81.5 18.5Q32 -43 -66 -115L-86 -103Q-14 -34 21 17.5Q56 69 56 107Q56 121 48 128.5Q40 136 25 136Q19 136 11.5 134.5Q4 133 -3 131L6 161Q25 171 43 177Q61 183 75 183Q101 183 116 166.5Q131 150 131 130Z" glyph-name="comma" horiz-adv-x="241" unicode="," /><glyph d="M153 -93Q153 -132 117 -180.5Q81 -229 16 -280L-4 -264Q36 -219 57 -179Q78 -139 78 -108Q78 -93 70 -85Q62 -77 47 -77Q41 -77 33.5 -78.5Q26 -80 19 -82L28 -62Q47 -52 65 -46Q83 -40 97 -40Q123 -40 138 -56.5Q153 -73 153 -93Z" glyph-name="commaaccent" horiz-adv-x="245" unicode="&#63171;" /><glyph d="M790 62Q733 5 659.5 -26Q586 -57 506 -57Q426 -57 352.5 -26Q279 5 222 62Q165 120 134.5 194Q104 268 104 349Q104 430 134.5 504Q165 578 222 636Q279 693 352.5 724Q426 755 506 755Q586 755 659.5 724Q733 693 790 636Q847 578 877.5 504Q908 430 908 349Q908 268 877.5 194Q847 120 790 62ZM137 349Q137 192 245 81.5Q353 -29 506 -29Q659 -29 767 81.5Q875 192 875 349Q875 506 767 616.5Q659 727 506 727Q353 727 245 616.5Q137 506 137 349ZM504 111Q407 111 348.5 177Q290 243 290 344Q290 447 354 519.5Q418 592 514 592Q576 592 621.5 566Q667 540 667 505Q667 490 657.5 480.5Q648 471 634 471Q620 471 610.5 478Q601 485 588 510Q571 541 554 551.5Q537 562 513 562Q445 562 399.5 506Q354 450 354 372Q354 283 402.5 226.5Q451 170 526 170Q572 170 613.5 196.5Q655 223 674 262L692 254Q676 191 624 151Q572 111 504 111Z" glyph-name="copyright" horiz-adv-x="947" unicode="&#169;" /><glyph d="M671 47 636 20 563 118Q534 98 496 87Q458 76 418 76Q408 76 398.5 77Q389 78 380 79Q332 86 287.5 109.5Q243 133 215 167L117 93L91 128L192 201Q172 235 161.5 273.5Q151 312 151 350Q151 360 152 369Q153 378 154 386Q160 431 183 475Q206 519 242 554L165 651L200 678L273 580Q302 600 340 611Q378 622 418 622Q428 622 437.5 621Q447 620 456 619Q503 613 548 589Q593 565 621 531L719 605L745 570L644 497Q664 463 674.5 424.5Q685 386 685 348Q685 338 684.5 329Q684 320 682 312Q676 267 653 223Q630 179 594 144ZM194 343Q194 256 247 193Q300 130 386 118Q392 117 398.5 116.5Q405 116 419 116Q504 116 565.5 172.5Q627 229 639 318Q641 328 641.5 337Q642 346 642 355Q642 442 589 505Q536 568 450 580Q444 581 437.5 581.5Q431 582 417 582Q332 582 270.5 525.5Q209 469 197 380Q195 370 194.5 361Q194 352 194 343Z" glyph-name="currency" horiz-adv-x="773" unicode="&#164;" /><glyph d="M349 -15Q329 -15 319 -3.5Q309 8 309 31Q309 55 322 102.5Q335 150 362 228H358Q282 116 201.5 50.5Q121 -15 61 -15Q36 -15 21 3.5Q6 22 6 51Q6 104 37 181Q68 258 117 325Q172 400 234 440Q296 480 359 480Q375 480 394.5 476.5Q414 473 433 467L499 677L410 687L415 704Q460 710 512.5 722.5Q565 735 587 744L589 742Q574 702 539.5 595Q505 488 452 314Q400 145 389 104.5Q378 64 378 51Q378 45 380.5 42Q383 39 387 39Q402 39 436 70.5Q470 102 490 133L509 126Q484 74 435.5 29.5Q387 -15 349 -15ZM75 64Q75 50 80 43Q85 36 95 36Q144 36 238.5 130Q333 224 387 319L420 425Q402 439 382 446Q362 453 344 453Q279 453 205.5 364.5Q132 276 96 161Q86 130 80.5 105Q75 80 75 64Z" glyph-name="d" horiz-adv-x="545" unicode="d" /><glyph d="M214 190H163L246 498H128L139 541H257L300 700H351L308 541H427L416 498H297Z" glyph-name="dagger" horiz-adv-x="395" unicode="&#8224;" /><glyph d="M223 190H172L215 349H97L108 392H226L254 498H137L148 541H266L309 700H360L317 541H436L425 498H306L277 392H396L385 349H266Z" glyph-name="daggerdbl" horiz-adv-x="415" unicode="&#8225;" /><glyph d="M349 -15Q329 -15 319 -3.5Q309 8 309 31Q309 55 322 102.5Q335 150 362 228H358Q282 116 201.5 50.5Q121 -15 61 -15Q36 -15 21 3.5Q6 22 6 51Q6 104 37 181Q68 258 117 325Q172 400 234 440Q296 480 359 480Q375 480 394.5 476.5Q414 473 433 467L499 677L410 687L415 704Q460 710 512.5 722.5Q565 735 587 744L589 742Q574 702 539.5 595Q505 488 452 314Q400 145 389 104.5Q378 64 378 51Q378 45 380.5 42Q383 39 387 39Q402 39 436 70.5Q470 102 490 133L509 126Q484 74 435.5 29.5Q387 -15 349 -15ZM75 64Q75 50 80 43Q85 36 95 36Q144 36 238.5 130Q333 224 387 319L420 425Q402 439 382 446Q362 453 344 453Q279 453 205.5 364.5Q132 276 96 161Q86 130 80.5 105Q75 80 75 64ZM752 647Q752 608 716 559.5Q680 511 615 460L595 476Q635 521 656 561Q677 601 677 632Q677 647 669 655Q661 663 646 663Q640 663 632.5 661.5Q625 660 618 658L627 678Q646 688 664 694Q682 700 696 700Q722 700 737 683.5Q752 667 752 647Z" glyph-name="dcaron" horiz-adv-x="594" unicode="&#271;" /><glyph d="M349 -15Q329 -15 319 -3.5Q309 8 309 31Q309 55 322 102.5Q335 150 362 228H358Q282 116 201.5 50.5Q121 -15 61 -15Q36 -15 21 3.5Q6 22 6 51Q6 104 37 181Q68 258 117 325Q172 400 234 440Q296 480 359 480Q375 480 394.5 476.5Q414 473 433 467L464 565H348L357 598H474L499 677L410 687L415 704Q460 710 512.5 722.5Q565 735 587 744L589 742Q583 726 571 690Q559 654 541 598H624L615 565H530Q523 544 503.5 481.5Q484 419 452 314Q400 145 389 104.5Q378 64 378 51Q378 45 380.5 42Q383 39 387 39Q402 39 436 70.5Q470 102 490 133L509 126Q484 74 435.5 29.5Q387 -15 349 -15ZM75 64Q75 50 80 43Q85 36 95 36Q144 36 238.5 130Q333 224 387 319L420 425Q402 439 382 446Q362 453 344 453Q279 453 205.5 364.5Q132 276 96 161Q86 130 80.5 105Q75 80 75 64Z" glyph-name="dcroat" horiz-adv-x="545" unicode="&#273;" /><glyph d="M459 560Q459 496 413.5 450.5Q368 405 303 405Q239 405 193.5 450.5Q148 496 148 560Q148 624 193.5 669.5Q239 715 303 715Q368 715 413.5 669.5Q459 624 459 560ZM186 560Q186 508 220 473Q254 438 304 438Q354 438 387.5 473Q421 508 421 560Q421 612 387.5 647Q354 682 304 682Q254 682 220 647Q186 612 186 560Z" glyph-name="degree" horiz-adv-x="429" unicode="&#176;" /><glyph d="M435 638Q435 616 420 601Q405 586 383 586Q361 586 346 601Q331 616 331 638Q331 660 346 675Q361 690 383 690Q405 690 420 675Q435 660 435 638ZM279 638Q279 616 264 601Q249 586 227 586Q205 586 190 601Q175 616 175 638Q175 660 190 675Q205 690 227 690Q249 690 264 675Q279 660 279 638Z" glyph-name="dieresis" horiz-adv-x="350" unicode="&#168;" /><glyph d="M399 516Q399 491 381 473.5Q363 456 337 456Q312 456 294.5 473.5Q277 491 277 516Q277 541 294.5 559Q312 577 337 577Q362 577 380.5 559Q399 541 399 516ZM495 338H102L114 378H507ZM319 190Q319 165 301 147.5Q283 130 257 130Q232 130 214.5 147.5Q197 165 197 190Q197 215 214.5 233Q232 251 257 251Q282 251 300.5 233Q319 215 319 190Z" glyph-name="divide" horiz-adv-x="540" unicode="&#247;" /><glyph d="M398 685Q325 685 280.5 649Q236 613 236 554Q236 522 253 491Q270 460 316 412L409 685Q406 685 403.5 685Q401 685 398 685ZM220 15H222Q291 15 341.5 55.5Q392 96 392 156Q392 191 374.5 223.5Q357 256 315 296ZM468 195Q468 109 395.5 47Q323 -15 211 -15H210L182 -97H144L172 -13Q128 -9 83.5 2.5Q39 14 8 29L63 219H91Q85 192 82.5 171Q80 150 80 133Q80 86 106.5 56Q133 26 183 18L286 323L284 325Q211 392 186 433.5Q161 475 161 515Q161 600 229 657.5Q297 715 402 715Q406 715 410.5 715Q415 715 419 715L444 789H481L455 712Q488 708 523.5 699.5Q559 691 584 681L536 533H506Q509 550 510 563Q511 576 511 585Q511 622 494 646Q477 670 444 679L345 385Q389 342 402.5 328Q416 314 426 301Q447 273 457.5 247Q468 221 468 195Z" glyph-name="dollar" horiz-adv-x="542" unicode="$" /><glyph d="M311 637Q311 615 295.5 599.5Q280 584 258 584Q236 584 220.5 599.5Q205 615 205 637Q205 659 220.5 674Q236 689 258 689Q280 689 295.5 674Q311 659 311 637Z" glyph-name="dotaccent" horiz-adv-x="216" unicode="&#729;" /><glyph d="M33 20Q33 30 37.5 45Q42 60 53 87L115 241Q164 363 172.5 388.5Q181 414 181 423Q181 430 178 433.5Q175 437 170 437Q155 437 128.5 420Q102 403 79 378L62 392Q93 432 132.5 460Q172 488 201 488Q219 488 231 475Q243 462 243 441Q243 419 232.5 382.5Q222 346 180 241L119 89Q113 75 110.5 66Q108 57 108 52Q108 46 110.5 42.5Q113 39 118 39Q132 39 168.5 70Q205 101 227 133L246 126Q216 75 161.5 30Q107 -15 65 -15Q51 -15 42 -5.5Q33 4 33 20Z" glyph-name="dotlessi" horiz-adv-x="291" unicode="&#305;" /><glyph d="M-90 -237Q-58 -237 -23 -172.5Q12 -108 56 32L120 235Q148 322 160 366Q172 410 172 423Q172 430 169 433.5Q166 437 161 437Q147 437 120 419Q93 401 69 375L52 392Q83 432 122.5 460Q162 488 191 488Q210 488 222 475Q234 462 234 441Q234 417 217.5 351.5Q201 286 169 183L152 129Q84 -88 19.5 -182Q-45 -276 -117 -276Q-145 -276 -161.5 -265Q-178 -254 -178 -237Q-178 -223 -168 -211Q-158 -199 -144 -199Q-141 -199 -138 -201.5Q-135 -204 -130 -212Q-120 -227 -111 -232Q-102 -237 -90 -237Z" glyph-name="dotlessj" horiz-adv-x="261" unicode="&#567;" /><glyph d="M125 278Q129 277 134 277Q139 277 148 277Q187 277 221 284.5Q255 292 283 306Q321 325 343.5 354.5Q366 384 366 410Q366 432 351 445.5Q336 459 312 459Q260 459 208.5 408.5Q157 358 125 278ZM344 133 363 124Q327 59 275.5 22Q224 -15 165 -15Q105 -15 68.5 26Q32 67 32 131Q32 187 54 248.5Q76 310 114 362Q158 422 211.5 455Q265 488 320 488Q366 488 391 466.5Q416 445 416 408Q416 377 391 344Q366 311 323 287Q290 269 251 259Q212 249 170 249Q155 249 142 250Q129 251 116 253Q107 227 102.5 201.5Q98 176 98 153Q98 98 123 67.5Q148 37 194 37Q231 37 271.5 64Q312 91 344 133Z" glyph-name="e" horiz-adv-x="430" unicode="e" /><glyph d="M125 278Q129 277 134 277Q139 277 148 277Q187 277 221.5 284.5Q256 292 284 306Q321 326 343.5 355Q366 384 366 412Q366 434 352.5 446.5Q339 459 316 459Q262 459 209.5 408.5Q157 358 125 278ZM344 133 363 124Q327 59 275.5 22Q224 -15 165 -15Q105 -15 68.5 26Q32 67 32 131Q32 187 54 248.5Q76 310 114 362Q158 422 211.5 455Q265 488 320 488Q366 488 391 466.5Q416 445 416 408Q416 377 390.5 345.5Q365 314 322 291Q289 274 250.5 265Q212 256 170 256Q169 256 167.5 256Q166 256 164 256Q209 244 256.5 238Q304 232 349 232Q409 232 463.5 244Q518 256 564 279Q625 309 660.5 353.5Q696 398 696 443Q696 466 683 481Q670 496 651 496Q647 496 642.5 495Q638 494 629 491Q620 487 615.5 486Q611 485 607 485Q596 485 588.5 493Q581 501 581 513Q581 528 593.5 538Q606 548 625 548Q662 548 691 510.5Q720 473 720 419Q720 321 632.5 256.5Q545 192 405 192Q337 192 262 207.5Q187 223 116 252Q107 226 102.5 201Q98 176 98 153Q98 98 123 67.5Q148 37 194 37Q231 37 271.5 64Q312 91 344 133Z" glyph-name="e.swash" horiz-adv-x="706" /><glyph d="M125 278Q129 277 134 277Q139 277 148 277Q187 277 221 284.5Q255 292 283 306Q321 325 343.5 354.5Q366 384 366 410Q366 432 351 445.5Q336 459 312 459Q260 459 208.5 408.5Q157 358 125 278ZM344 133 363 124Q327 59 275.5 22Q224 -15 165 -15Q105 -15 68.5 26Q32 67 32 131Q32 187 54 248.5Q76 310 114 362Q158 422 211.5 455Q265 488 320 488Q366 488 391 466.5Q416 445 416 408Q416 377 391 344Q366 311 323 287Q290 269 251 259Q212 249 170 249Q155 249 142 250Q129 251 116 253Q107 227 102.5 201.5Q98 176 98 153Q98 98 123 67.5Q148 37 194 37Q231 37 271.5 64Q312 91 344 133ZM308 549H289L394 696H489Z" glyph-name="eacute" horiz-adv-x="430" unicode="&#233;" /><glyph d="M125 278Q129 277 134 277Q139 277 148 277Q187 277 221 284.5Q255 292 283 306Q321 325 343.5 354.5Q366 384 366 410Q366 432 351 445.5Q336 459 312 459Q260 459 208.5 408.5Q157 358 125 278ZM344 133 363 124Q327 59 275.5 22Q224 -15 165 -15Q105 -15 68.5 26Q32 67 32 131Q32 187 54 248.5Q76 310 114 362Q158 422 211.5 455Q265 488 320 488Q366 488 391 466.5Q416 445 416 408Q416 377 391 344Q366 311 323 287Q290 269 251 259Q212 249 170 249Q155 249 142 250Q129 251 116 253Q107 227 102.5 201.5Q98 176 98 153Q98 98 123 67.5Q148 37 194 37Q231 37 271.5 64Q312 91 344 133ZM319 548Q259 548 230.5 583.5Q202 619 215 665L220 682H254L252 676Q245 646 264.5 626.5Q284 607 325 607Q366 607 394.5 626.5Q423 646 430 676L432 682H466L460 658Q447 606 410.5 577Q374 548 319 548Z" glyph-name="ebreve" horiz-adv-x="430" unicode="&#277;" /><glyph d="M125 278Q129 277 134 277Q139 277 148 277Q187 277 221 284.5Q255 292 283 306Q321 325 343.5 354.5Q366 384 366 410Q366 432 351 445.5Q336 459 312 459Q260 459 208.5 408.5Q157 358 125 278ZM344 133 363 124Q327 59 275.5 22Q224 -15 165 -15Q105 -15 68.5 26Q32 67 32 131Q32 187 54 248.5Q76 310 114 362Q158 422 211.5 455Q265 488 320 488Q366 488 391 466.5Q416 445 416 408Q416 377 391 344Q366 311 323 287Q290 269 251 259Q212 249 170 249Q155 249 142 250Q129 251 116 253Q107 227 102.5 201.5Q98 176 98 153Q98 98 123 67.5Q148 37 194 37Q231 37 271.5 64Q312 91 344 133ZM278 549 226 696H255L318 613L427 696H456L324 549Z" glyph-name="ecaron" horiz-adv-x="430" unicode="&#283;" /><glyph d="M125 278Q129 277 134 277Q139 277 148 277Q187 277 221 284.5Q255 292 283 306Q321 325 343.5 354.5Q366 384 366 410Q366 432 351 445.5Q336 459 312 459Q260 459 208.5 408.5Q157 358 125 278ZM344 133 363 124Q327 59 275.5 22Q224 -15 165 -15Q105 -15 68.5 26Q32 67 32 131Q32 187 54 248.5Q76 310 114 362Q158 422 211.5 455Q265 488 320 488Q366 488 391 466.5Q416 445 416 408Q416 377 391 344Q366 311 323 287Q290 269 251 259Q212 249 170 249Q155 249 142 250Q129 251 116 253Q107 227 102.5 201.5Q98 176 98 153Q98 98 123 67.5Q148 37 194 37Q231 37 271.5 64Q312 91 344 133ZM215 549H186L318 696H364L416 549H387L324 632Z" glyph-name="ecircumflex" horiz-adv-x="430" unicode="&#234;" /><glyph d="M125 278Q129 277 134 277Q139 277 148 277Q187 277 221 284.5Q255 292 283 306Q321 325 343.5 354.5Q366 384 366 410Q366 432 351 445.5Q336 459 312 459Q260 459 208.5 408.5Q157 358 125 278ZM344 133 363 124Q327 59 275.5 22Q224 -15 165 -15Q105 -15 68.5 26Q32 67 32 131Q32 187 54 248.5Q76 310 114 362Q158 422 211.5 455Q265 488 320 488Q366 488 391 466.5Q416 445 416 408Q416 377 391 344Q366 311 323 287Q290 269 251 259Q212 249 170 249Q155 249 142 250Q129 251 116 253Q107 227 102.5 201.5Q98 176 98 153Q98 98 123 67.5Q148 37 194 37Q231 37 271.5 64Q312 91 344 133ZM440 622Q440 600 425 585Q410 570 388 570Q366 570 351 585Q336 600 336 622Q336 644 351 659Q366 674 388 674Q410 674 425 659Q440 644 440 622ZM284 622Q284 600 269 585Q254 570 232 570Q210 570 195 585Q180 600 180 622Q180 644 195 659Q210 674 232 674Q254 674 269 659Q284 644 284 622Z" glyph-name="edieresis" horiz-adv-x="430" unicode="&#235;" /><glyph d="M125 278Q129 277 134 277Q139 277 148 277Q187 277 221 284.5Q255 292 283 306Q321 325 343.5 354.5Q366 384 366 410Q366 432 351 445.5Q336 459 312 459Q260 459 208.5 408.5Q157 358 125 278ZM344 133 363 124Q327 59 275.5 22Q224 -15 165 -15Q105 -15 68.5 26Q32 67 32 131Q32 187 54 248.5Q76 310 114 362Q158 422 211.5 455Q265 488 320 488Q366 488 391 466.5Q416 445 416 408Q416 377 391 344Q366 311 323 287Q290 269 251 259Q212 249 170 249Q155 249 142 250Q129 251 116 253Q107 227 102.5 201.5Q98 176 98 153Q98 98 123 67.5Q148 37 194 37Q231 37 271.5 64Q312 91 344 133ZM359 618Q359 596 343.5 580.5Q328 565 306 565Q284 565 268.5 580.5Q253 596 253 618Q253 640 268.5 655Q284 670 306 670Q328 670 343.5 655Q359 640 359 618Z" glyph-name="edotaccent" horiz-adv-x="430" unicode="&#279;" /><glyph d="M125 278Q129 277 134 277Q139 277 148 277Q187 277 221 284.5Q255 292 283 306Q321 325 343.5 354.5Q366 384 366 410Q366 432 351 445.5Q336 459 312 459Q260 459 208.5 408.5Q157 358 125 278ZM344 133 363 124Q327 59 275.5 22Q224 -15 165 -15Q105 -15 68.5 26Q32 67 32 131Q32 187 54 248.5Q76 310 114 362Q158 422 211.5 455Q265 488 320 488Q366 488 391 466.5Q416 445 416 408Q416 377 391 344Q366 311 323 287Q290 269 251 259Q212 249 170 249Q155 249 142 250Q129 251 116 253Q107 227 102.5 201.5Q98 176 98 153Q98 98 123 67.5Q148 37 194 37Q231 37 271.5 64Q312 91 344 133ZM312 549H293L162 696H245Z" glyph-name="egrave" horiz-adv-x="430" unicode="&#232;" /><glyph d="M467 187Q467 100 404.5 42.5Q342 -15 249 -15Q165 -15 107 38.5Q49 92 49 164Q49 244 105.5 302.5Q162 361 252 382Q215 415 195 453.5Q175 492 175 533Q175 608 230 661.5Q285 715 373 715Q453 715 502 668Q551 621 551 555Q551 484 500.5 432Q450 380 373 364Q423 314 445 272.5Q467 231 467 187ZM492 555Q492 609 459 644.5Q426 680 373 680Q320 680 283.5 643Q247 606 247 554Q247 515 262 485.5Q277 456 331 403L358 377Q419 405 455.5 454Q492 503 492 555ZM116 166Q116 101 154 60.5Q192 20 258 20Q315 20 357.5 61Q400 102 400 162Q400 201 381 237.5Q362 274 318 317L269 365Q192 330 154 280.5Q116 231 116 166Z" glyph-name="eight" horiz-adv-x="551" unicode="8" /><glyph d="M293 113Q293 61 253.5 26Q214 -9 156 -9Q103 -9 66.5 23Q30 55 30 98Q30 146 65.5 181Q101 216 158 229Q134 249 121.5 272.5Q109 296 109 320Q109 365 143.5 397Q178 429 233 429Q284 429 315.5 401Q347 373 347 333Q347 291 314.5 259.5Q282 228 234 218Q266 188 279.5 163.5Q293 139 293 113ZM309 333Q309 365 288 386.5Q267 408 234 408Q201 408 177.5 385.5Q154 363 154 332Q154 309 163.5 291.5Q173 274 208 242L225 226Q263 243 286 272.5Q309 302 309 333ZM72 100Q72 61 96 36.5Q120 12 162 12Q199 12 225 37Q251 62 251 99Q251 122 239.5 143Q228 164 200 190L169 219Q120 198 96 168Q72 138 72 100Z" glyph-name="eight.dnom" horiz-adv-x="400" /><glyph d="M375 399Q375 347 335.5 312Q296 277 238 277Q185 277 148.5 309Q112 341 112 384Q112 432 147.5 467Q183 502 240 515Q216 535 203.5 558.5Q191 582 191 606Q191 651 225.5 683Q260 715 315 715Q366 715 397.5 687Q429 659 429 619Q429 577 396.5 545.5Q364 514 316 504Q348 474 361.5 449.5Q375 425 375 399ZM391 619Q391 651 370 672.5Q349 694 316 694Q283 694 259.5 671.5Q236 649 236 618Q236 595 245.5 577.5Q255 560 290 528L307 512Q345 529 368 558.5Q391 588 391 619ZM154 386Q154 347 178 322.5Q202 298 244 298Q281 298 307 323Q333 348 333 385Q333 408 321.5 429Q310 450 282 476L251 505Q202 484 178 454Q154 424 154 386Z" glyph-name="eight.numr" horiz-adv-x="400" /><glyph d="M430 171Q430 91 372.5 38Q315 -15 230 -15Q152 -15 99 34Q46 83 46 150Q46 224 98 277.5Q150 331 232 350Q198 380 180 416Q162 452 162 489Q162 559 212.5 608Q263 657 344 657Q418 657 463 614Q508 571 508 510Q508 445 461.5 397Q415 349 344 334Q390 288 410 250Q430 212 430 171ZM453 510Q453 559 422.5 592Q392 625 344 625Q296 625 262 591Q228 557 228 509Q228 472 242 445Q256 418 305 370L330 346Q386 372 419.5 417Q453 462 453 510ZM107 152Q107 92 142 54.5Q177 17 238 17Q290 17 329.5 55Q369 93 369 148Q369 183 352 216Q335 249 293 291L248 335Q177 302 142 256.5Q107 211 107 152Z" glyph-name="eight.pnum" horiz-adv-x="519" /><glyph d="M491 187Q491 100 428.5 42.5Q366 -15 273 -15Q189 -15 131 38.5Q73 92 73 164Q73 244 129.5 302.5Q186 361 276 382Q239 415 219 453.5Q199 492 199 533Q199 608 254 661.5Q309 715 397 715Q477 715 526 668Q575 621 575 555Q575 484 524.5 432Q474 380 397 364Q447 314 469 272.5Q491 231 491 187ZM516 555Q516 609 483 644.5Q450 680 397 680Q344 680 307.5 643Q271 606 271 554Q271 515 286 485.5Q301 456 355 403L382 377Q443 405 479.5 454Q516 503 516 555ZM140 166Q140 101 178 60.5Q216 20 282 20Q339 20 381.5 61Q424 102 424 162Q424 201 405 237.5Q386 274 342 317L293 365Q216 330 178 280.5Q140 231 140 166Z" glyph-name="eight.tnum" horiz-adv-x="600" /><glyph d="M264 13Q264 -39 224.5 -74Q185 -109 127 -109Q74 -109 37.5 -77Q1 -45 1 -2Q1 46 36.5 81Q72 116 129 129Q105 149 92.5 172.5Q80 196 80 220Q80 265 114.5 297Q149 329 204 329Q255 329 286.5 301Q318 273 318 233Q318 191 285.5 159.5Q253 128 205 118Q237 88 250.5 63.5Q264 39 264 13ZM280 233Q280 265 259 286.5Q238 308 205 308Q172 308 148.5 285.5Q125 263 125 232Q125 209 134.5 191.5Q144 174 179 142L196 126Q234 143 257 172.5Q280 202 280 233ZM43 0Q43 -39 67 -63.5Q91 -88 133 -88Q170 -88 196 -63Q222 -38 222 -1Q222 22 210.5 43Q199 64 171 90L140 119Q91 98 67 68Q43 38 43 0Z" glyph-name="eightinferior" horiz-adv-x="400" unicode="&#8328;" /><glyph d="M404 499Q404 447 364.5 412Q325 377 267 377Q214 377 177.5 409Q141 441 141 484Q141 532 176.5 567Q212 602 269 615Q245 635 232.5 658.5Q220 682 220 706Q220 751 254.5 783Q289 815 344 815Q395 815 426.5 787Q458 759 458 719Q458 677 425.5 645.5Q393 614 345 604Q377 574 390.5 549.5Q404 525 404 499ZM420 719Q420 751 399 772.5Q378 794 345 794Q312 794 288.5 771.5Q265 749 265 718Q265 695 274.5 677.5Q284 660 319 628L336 612Q374 629 397 658.5Q420 688 420 719ZM183 486Q183 447 207 422.5Q231 398 273 398Q310 398 336 423Q362 448 362 485Q362 508 350.5 529Q339 550 311 576L280 605Q231 584 207 554Q183 524 183 486Z" glyph-name="eightsuperior" horiz-adv-x="400" unicode="&#8312;" /><glyph d="M758 43Q758 19 741 2Q724 -15 700 -15Q675 -15 658.5 1.5Q642 18 642 43Q642 67 659 84Q676 101 700 101Q724 101 741 84Q758 67 758 43ZM448 43Q448 19 430.5 2Q413 -15 389 -15Q365 -15 348 2Q331 19 331 43Q331 67 348 84Q365 101 389 101Q413 101 430.5 84Q448 67 448 43ZM136 43Q136 19 119 2Q102 -15 78 -15Q53 -15 36.5 1.5Q20 18 20 43Q20 67 37 84Q54 101 78 101Q102 101 119 84Q136 67 136 43Z" glyph-name="ellipsis" horiz-adv-x="877" unicode="&#8230;" /><glyph d="M125 278Q129 277 134 277Q139 277 148 277Q187 277 221 284.5Q255 292 283 306Q321 325 343.5 354.5Q366 384 366 410Q366 432 351 445.5Q336 459 312 459Q260 459 208.5 408.5Q157 358 125 278ZM344 133 363 124Q327 59 275.5 22Q224 -15 165 -15Q105 -15 68.5 26Q32 67 32 131Q32 187 54 248.5Q76 310 114 362Q158 422 211.5 455Q265 488 320 488Q366 488 391 466.5Q416 445 416 408Q416 377 391 344Q366 311 323 287Q290 269 251 259Q212 249 170 249Q155 249 142 250Q129 251 116 253Q107 227 102.5 201.5Q98 176 98 153Q98 98 123 67.5Q148 37 194 37Q231 37 271.5 64Q312 91 344 133ZM444 575H173L188 622H459Z" glyph-name="emacron" horiz-adv-x="430" unicode="&#275;" /><glyph d="M986 237H66L77 272H997Z" glyph-name="emdash" horiz-adv-x="1055" unicode="&#8212;" /><glyph d="M1007 303H87L98 338H1018Z" glyph-name="emdash.case" horiz-adv-x="1062" /><glyph d="M486 237H66L77 272H497Z" glyph-name="endash" horiz-adv-x="555" unicode="&#8211;" /><glyph d="M507 303H87L98 338H518Z" glyph-name="endash.case" horiz-adv-x="562" /><glyph d="M354 -14Q305 -150 254 -211.5Q203 -273 138 -273Q102 -273 79 -253.5Q56 -234 56 -204Q56 -182 68.5 -168.5Q81 -155 101 -155Q119 -155 130.5 -167.5Q142 -180 142 -196Q142 -212 131.5 -225Q121 -238 105 -241V-243Q109 -247 118 -249Q127 -251 138 -251Q176 -251 198 -224Q220 -197 255 -105Q267 -74 292 -5.5Q317 63 325 85L383 242Q411 318 424 360Q437 402 437 414Q437 424 432.5 429.5Q428 435 419 435Q387 435 332.5 383Q278 331 224 248Q188 193 157 130Q126 67 101 0L35 -10L108 201Q141 298 156.5 351Q172 404 172 423Q172 430 169 433.5Q166 437 161 437Q146 437 119.5 420Q93 403 70 378L53 392Q83 432 123.5 460Q164 488 194 488Q211 488 222.5 475Q234 462 234 441Q234 414 220 361Q206 308 183 245H189Q259 362 325.5 425Q392 488 445 488Q471 488 487 470.5Q503 453 503 423Q503 409 493 374Q483 339 450 247L393 89Q387 72 385 64.5Q383 57 383 52Q383 46 385.5 42.5Q388 39 393 39Q407 39 443.5 70Q480 101 502 133L521 126Q495 80 445 36.5Q395 -7 354 -14Z" glyph-name="eng" horiz-adv-x="559" unicode="&#331;" /><glyph d="M125 278Q129 277 134 277Q139 277 148 277Q187 277 221 284.5Q255 292 283 306Q321 325 343.5 354.5Q366 384 366 410Q366 432 351 445.5Q336 459 312 459Q260 459 208.5 408.5Q157 358 125 278ZM219 -152 210 -173Q197 -181 180.5 -185Q164 -189 147 -189Q115 -189 94.5 -172Q74 -155 74 -126Q74 -101 96.5 -72.5Q119 -44 160 -15Q101 -13 66.5 27.5Q32 68 32 131Q32 187 54 248.5Q76 310 114 362Q158 422 211.5 455Q265 488 320 488Q366 488 391 466.5Q416 445 416 408Q416 377 391 344Q366 311 323 287Q290 269 251 259Q212 249 170 249Q155 249 142 250Q129 251 116 253Q107 227 102.5 201.5Q98 176 98 153Q98 98 123 67.5Q148 37 194 37Q231 37 271.5 64Q312 91 344 133L363 124Q332 68 289.5 32.5Q247 -3 199 -12Q171 -48 157 -74.5Q143 -101 143 -118Q143 -135 155.5 -144.5Q168 -154 188 -154Q197 -154 205 -153.5Q213 -153 219 -152Z" glyph-name="eogonek" horiz-adv-x="430" unicode="&#281;" /><glyph d="M530 427H113L125 468H542ZM479 247H62L74 288H491Z" glyph-name="equal" horiz-adv-x="540" unicode="=" /><glyph d="M498 -11Q421 -11 350.5 15.5Q280 42 224 91Q166 142 134.5 210Q103 278 103 353Q103 427 134.5 494.5Q166 562 225 613Q280 661 350.5 686.5Q421 712 498 712Q673 712 784 607.5Q895 503 895 344H260Q255 344 253 341.5Q251 339 251 332V160Q251 130 277 103Q303 76 351 55Q386 39 426.5 29.5Q467 20 498 20Q578 20 647 49Q716 78 763 131H810Q755 62 674.5 25.5Q594 -11 498 -11ZM260 375H737Q742 375 744 377Q746 379 746 384V552Q746 607 667 644.5Q588 682 498 682Q412 682 331.5 644Q251 606 251 552V384Q251 379 253 377Q255 375 260 375Z" glyph-name="estimated" horiz-adv-x="905" unicode="&#8494;" /><glyph d="M376 121Q338 57 286 21Q234 -15 179 -15Q118 -15 80 30Q42 75 42 146Q42 204 57.5 260.5Q73 317 103 364Q138 423 186 455.5Q234 488 284 488Q314 488 340 476.5Q366 465 378 448Q376 486 365.5 529.5Q355 573 336 621L181 579L183 615L323 653Q300 706 271 753.5Q242 801 220 825L243 832Q281 800 312.5 758Q344 716 370 665L492 698L490 662L384 634Q412 570 427 500Q442 430 442 360Q442 297 425 235Q408 173 376 121ZM106 125Q106 74 126.5 45.5Q147 17 183 17Q223 17 260.5 51.5Q298 86 327 150Q350 198 363.5 252.5Q377 307 377 348Q377 400 356.5 428Q336 456 300 456Q260 456 223 421Q186 386 156 323Q133 274 119.5 220Q106 166 106 125Z" glyph-name="eth" horiz-adv-x="479" unicode="&#240;" /><glyph d="M154 234 142 199 118 203 126 241Q144 326 160 406Q176 486 195 591Q203 639 206 653Q209 667 211 673Q217 692 231.5 703.5Q246 715 264 715Q284 715 298 702Q312 689 312 666Q312 659 303 633Q294 607 261 522Q221 418 197.5 355Q174 292 154 234ZM148 44Q148 19 131 2Q114 -15 90 -15Q65 -15 48 2Q31 19 31 44Q31 68 48 85Q65 102 90 102Q114 102 131 85Q148 68 148 44Z" glyph-name="exclam" horiz-adv-x="287" unicode="!" /><glyph d="M117 224 129 259 153 255 145 217Q127 132 111 52Q95 -28 76 -133Q68 -181 65 -195Q62 -209 60 -215Q54 -234 39.5 -245.5Q25 -257 7 -257Q-13 -257 -27 -244Q-41 -231 -41 -208Q-41 -201 -32 -175Q-23 -149 10 -64Q50 40 73.5 103Q97 166 117 224ZM123 414Q123 439 140 456Q157 473 181 473Q206 473 223 456Q240 439 240 414Q240 390 223 373Q206 356 181 356Q157 356 140 373Q123 390 123 414Z" glyph-name="exclamdown" horiz-adv-x="266" unicode="&#161;" /><glyph d="M208 466 220 501 244 497 236 459Q218 374 202 294Q186 214 167 109Q159 61 156 47Q153 33 151 27Q145 8 130.5 -3.5Q116 -15 98 -15Q78 -15 64 -2Q50 11 50 34Q50 41 59 67Q68 93 101 178Q141 282 164.5 345Q188 408 208 466ZM214 656Q214 681 231 698Q248 715 272 715Q297 715 314 698Q331 681 331 656Q331 632 314 615Q297 598 272 598Q248 598 231 615Q214 632 214 656Z" glyph-name="exclamdown.case" horiz-adv-x="307" /><glyph d="M-118 -276Q-146 -276 -162.5 -265Q-179 -254 -179 -237Q-179 -223 -169 -211Q-159 -199 -145 -199Q-142 -199 -139 -201.5Q-136 -204 -131 -212Q-121 -227 -112 -232Q-103 -237 -91 -237Q-59 -237 -25.5 -173.5Q8 -110 52 32L173 427H77L85 453H181L193 487Q241 622 308.5 695Q376 768 452 769Q485 769 505 755Q525 741 525 722Q525 704 513.5 693Q502 682 486 682Q482 682 477.5 684.5Q473 687 465 696Q449 713 436.5 718.5Q424 724 408 724Q369 724 335.5 672.5Q302 621 265 503L249 453H366L358 427H242L151 129Q85 -84 20 -180Q-45 -276 -118 -276Z" glyph-name="f" horiz-adv-x="323" unicode="f" /><glyph d="M239 513 222 453H336L326 427H216L119 76Q90 -27 59.5 -95.5Q29 -164 -6 -204Q-36 -238 -70.5 -256Q-105 -274 -141 -274Q-177 -274 -201.5 -254Q-226 -234 -226 -205Q-226 -185 -212.5 -171Q-199 -157 -181 -157Q-163 -157 -151.5 -169.5Q-140 -182 -140 -198Q-140 -214 -149.5 -226.5Q-159 -239 -174 -242V-244Q-170 -247 -161 -249.5Q-152 -252 -144 -252Q-126 -252 -106 -242Q-86 -232 -71 -216Q-43 -186 -17 -126Q9 -66 37 30L152 427H82L90 453H158L172 496Q213 631 271.5 698.5Q330 766 407 766Q443 766 469.5 744Q496 722 496 695Q496 674 484 660Q472 646 453 646Q437 646 425.5 657Q414 668 414 684Q414 701 424 712Q434 723 452 727V731Q443 737 433 740Q423 743 411 743Q358 743 315 685.5Q272 628 239 513Z" glyph-name="f.alt" horiz-adv-x="294" /><glyph d="M131 -156Q182 -156 222 -95.5Q262 -35 307 129L386 427H216L119 76Q109 38 97.5 2.5Q86 -33 72 -68Q76 -65 81.5 -63Q87 -61 94 -61Q112 -61 123.5 -73.5Q135 -86 135 -102Q135 -118 125.5 -130.5Q116 -143 101 -146V-148Q105 -151 114 -153.5Q123 -156 131 -156ZM-6 -204Q-36 -238 -70.5 -256Q-105 -274 -141 -274Q-177 -274 -201.5 -254Q-226 -234 -226 -205Q-226 -185 -212.5 -171Q-199 -157 -181 -157Q-163 -157 -151.5 -169.5Q-140 -182 -140 -198Q-140 -214 -149.5 -226.5Q-159 -239 -174 -242V-244Q-170 -247 -161 -249.5Q-152 -252 -144 -252Q-126 -252 -106 -242Q-86 -232 -71 -216Q-43 -186 -17 -126Q9 -66 37 30L152 427H82L90 453H158L172 496Q213 631 271.5 698.5Q330 766 407 766Q418 766 428.5 763.5Q439 761 448 757L434 740Q429 741 423 742Q417 743 411 743Q358 743 315 685.5Q272 628 239 513L222 453H392L404 488Q450 622 518 695Q586 768 663 769Q696 769 716 755Q736 741 736 722Q736 704 724.5 693Q713 682 697 682Q693 682 688.5 684.5Q684 687 676 696Q660 713 647.5 718.5Q635 724 619 724Q579 724 543.5 671Q508 618 472 503L456 453H610L600 427H450L382 172Q357 77 341 33Q325 -11 308 -45Q274 -110 230.5 -143Q187 -176 134 -178Q101 -178 77 -161Q53 -144 50 -117Q37 -143 23 -165Q9 -187 -6 -204Z" glyph-name="f_f" horiz-adv-x="566" unicode="&#64256;" /><glyph d="M131 -156Q182 -156 222 -95.5Q262 -35 307 129L386 427H216L119 76Q109 38 97.5 2.5Q86 -33 72 -68Q76 -65 81.5 -63Q87 -61 94 -61Q112 -61 123.5 -73.5Q135 -86 135 -102Q135 -118 125.5 -130.5Q116 -143 101 -146V-148Q105 -151 114 -153.5Q123 -156 131 -156ZM-6 -204Q-36 -238 -70.5 -256Q-105 -274 -141 -274Q-177 -274 -201.5 -254Q-226 -234 -226 -205Q-226 -185 -212.5 -171Q-199 -157 -181 -157Q-163 -157 -151.5 -169.5Q-140 -182 -140 -198Q-140 -214 -149.5 -226.5Q-159 -239 -174 -242V-244Q-170 -247 -161 -249.5Q-152 -252 -144 -252Q-126 -252 -106 -242Q-86 -232 -71 -216Q-43 -186 -17 -126Q9 -66 37 30L152 427H82L90 453H158L172 496Q213 631 271.5 698.5Q330 766 407 766Q418 766 428.5 763.5Q439 761 448 757L434 740Q429 741 423 742Q417 743 411 743Q358 743 315 685.5Q272 628 239 513L222 453H392L404 488Q450 622 518 695Q586 768 663 769Q696 769 716 755Q736 741 736 722Q736 704 724.5 693Q713 682 697 682Q693 682 688.5 684.5Q684 687 676 696Q660 713 647.5 718.5Q635 724 619 724Q579 724 543.5 671Q508 618 472 503L456 453H582Q603 470 623 479Q643 488 660 488Q678 488 690 475Q702 462 702 441Q702 419 691.5 382.5Q681 346 639 241L578 89Q572 75 569.5 66Q567 57 567 52Q567 46 569.5 42.5Q572 39 577 39Q591 39 627.5 70Q664 101 686 133L705 126Q675 75 620.5 30Q566 -15 524 -15Q510 -15 501 -5.5Q492 4 492 20Q492 30 496.5 45Q501 60 512 87L574 241Q623 363 631.5 388.5Q640 414 640 423Q640 430 637 433.5Q634 437 629 437Q614 437 587.5 420Q561 403 538 378L521 392Q529 403 536.5 411.5Q544 420 552 427H450L382 172Q357 77 341 33Q325 -11 308 -45Q274 -110 230.5 -143Q187 -176 134 -178Q101 -178 77 -161Q53 -144 50 -117Q37 -143 23 -165Q9 -187 -6 -204Z" glyph-name="f_f_i" horiz-adv-x="750" unicode="&#64259;" /><glyph d="M131 -156Q182 -156 222 -95.5Q262 -35 307 129L386 427H216L119 76Q109 38 97.5 2.5Q86 -33 72 -68Q76 -65 81.5 -63Q87 -61 94 -61Q112 -61 123.5 -73.5Q135 -86 135 -102Q135 -118 125.5 -130.5Q116 -143 101 -146V-148Q105 -151 114 -153.5Q123 -156 131 -156ZM-6 -204Q-36 -238 -70.5 -256Q-105 -274 -141 -274Q-177 -274 -201.5 -254Q-226 -234 -226 -205Q-226 -185 -212.5 -171Q-199 -157 -181 -157Q-163 -157 -151.5 -169.5Q-140 -182 -140 -198Q-140 -214 -149.5 -226.5Q-159 -239 -174 -242V-244Q-170 -247 -161 -249.5Q-152 -252 -144 -252Q-126 -252 -106 -242Q-86 -232 -71 -216Q-43 -186 -17 -126Q9 -66 37 30L152 427H82L90 453H158L172 496Q213 631 271.5 698.5Q330 766 407 766Q418 766 428.5 763.5Q439 761 448 757L434 740Q429 741 423 742Q417 743 411 743Q358 743 315 685.5Q272 628 239 513L222 453H392L404 488Q450 622 518 695Q586 768 663 769Q695 769 715.5 755.5Q736 742 736 725Q757 730 774.5 735Q792 740 802 744H804L584 83Q579 67 576.5 58.5Q574 50 574 45Q574 41 576 38.5Q578 36 582 36Q600 36 643 68.5Q686 101 711 133L731 126Q695 73 640 29Q585 -15 545 -15Q526 -15 516 -5.5Q506 4 506 21Q506 34 510.5 53.5Q515 73 553 186L722 691Q716 686 710 684Q704 682 697 682Q693 682 688.5 684.5Q684 687 676 696Q660 713 647.5 718.5Q635 724 619 724Q579 724 543.5 671Q508 618 472 503L456 453H610L600 427H450L382 172Q357 77 341 33Q325 -11 308 -45Q274 -110 230.5 -143Q187 -176 134 -178Q101 -178 77 -161Q53 -144 50 -117Q37 -143 23 -165Q9 -187 -6 -204Z" glyph-name="f_f_l" horiz-adv-x="757" unicode="&#64260;" /><glyph d="M149 -276Q121 -276 104.5 -265Q88 -254 88 -237Q88 -223 98 -211Q108 -199 122 -199Q125 -199 128 -201.5Q131 -204 136 -212Q146 -227 155 -232Q164 -237 176 -237Q208 -237 243 -172.5Q278 -108 322 32L386 235Q414 322 426 366Q438 410 438 423Q438 430 435 433.5Q432 437 427 437Q413 437 386 419Q359 401 335 375L318 392Q326 403 333.5 411.5Q341 420 349 427H242L151 129Q85 -84 20 -180Q-45 -276 -118 -276Q-146 -276 -162.5 -265Q-179 -254 -179 -237Q-179 -223 -169 -211Q-159 -199 -145 -199Q-142 -199 -139 -201.5Q-136 -204 -131 -212Q-121 -227 -112 -232Q-103 -237 -91 -237Q-59 -237 -25.5 -173.5Q8 -110 52 32L173 427H77L85 453H181L193 487Q241 622 308.5 695Q376 768 452 769Q485 769 505 755Q525 741 525 722Q525 704 513.5 693Q502 682 486 682Q482 682 477.5 684.5Q473 687 465 696Q449 713 436.5 718.5Q424 724 408 724Q369 724 335.5 672.5Q302 621 265 503L249 453H379Q400 470 420 479Q440 488 457 488Q476 488 488 475Q500 462 500 441Q500 417 483.5 351.5Q467 286 435 183L418 129Q350 -88 285.5 -182Q221 -276 149 -276Z" glyph-name="f_j" horiz-adv-x="527" /><glyph d="M-118 -276Q-146 -276 -162.5 -265Q-179 -254 -179 -237Q-179 -223 -169 -211Q-159 -199 -145 -199Q-142 -199 -139 -201.5Q-136 -204 -131 -212Q-121 -227 -112 -232Q-103 -237 -91 -237Q-59 -237 -25.5 -173.5Q8 -110 52 32L173 427H77L85 453H181L193 487Q241 622 308.5 695Q376 768 452 769Q485 769 505 755Q525 741 525 722Q525 704 513.5 693Q502 682 486 682Q482 682 477.5 684.5Q473 687 465 696Q449 713 436.5 718.5Q424 724 408 724Q369 724 335.5 672.5Q302 621 265 503L249 453H383Q404 470 424 479Q444 488 461 488Q479 488 491 475Q503 462 503 441Q503 419 492.5 382.5Q482 346 440 241L379 89Q373 75 370.5 66Q368 57 368 52Q368 46 370.5 42.5Q373 39 378 39Q392 39 428.5 70Q465 101 487 133L506 126Q476 75 421.5 30Q367 -15 325 -15Q311 -15 302 -5.5Q293 4 293 20Q293 30 297.5 45Q302 60 313 87L375 241Q424 363 432.5 388.5Q441 414 441 423Q441 430 438 433.5Q435 437 430 437Q415 437 388.5 420Q362 403 339 378L322 392Q330 403 337.5 411.5Q345 420 353 427H242L151 129Q85 -84 20 -180Q-45 -276 -118 -276Z" glyph-name="fi" horiz-adv-x="551" unicode="&#64257;" /><glyph d="M222 17Q286 17 324 60.5Q362 104 362 170Q362 241 318.5 295.5Q275 350 167 404L131 422L242 697L543 705L513 646Q510 639 504 634.5Q498 630 493 630L245 625L185 478L235 453Q334 402 381.5 340.5Q429 279 429 203Q429 115 363.5 50Q298 -15 195 -15Q125 -15 71 18Q17 51 17 93Q17 112 29.5 124Q42 136 61 136Q70 136 77.5 131Q85 126 93 113Q96 108 103.5 96Q111 84 115 77Q137 45 162.5 31Q188 17 222 17Z" glyph-name="five" horiz-adv-x="496" unicode="5" /><glyph d="M154 10Q194 10 218 36Q242 62 242 102Q242 145 214.5 177.5Q187 210 120 242L98 253L167 418L357 423L338 388Q336 383 332.5 380.5Q329 378 325 378L169 375L131 287L163 272Q226 240 256 203.5Q286 167 286 122Q286 69 244 30Q202 -9 137 -9Q93 -9 59 11Q25 31 25 56Q25 68 33 75Q41 82 53 82Q59 82 63.5 79Q68 76 73 68Q75 65 79.5 57.5Q84 50 87 46Q100 27 116 18.5Q132 10 154 10Z" glyph-name="five.dnom" horiz-adv-x="400" /><glyph d="M237 296Q277 296 301 322Q325 348 325 388Q325 431 297.5 463.5Q270 496 203 528L181 539L250 704L440 709L421 674Q419 669 415.5 666.5Q412 664 408 664L252 661L214 573L246 558Q309 526 339 489.5Q369 453 369 408Q369 355 327 316Q285 277 220 277Q176 277 142 297Q108 317 108 342Q108 354 116 361Q124 368 136 368Q142 368 146.5 365Q151 362 156 354Q158 351 162.5 343.5Q167 336 170 332Q183 313 199 304.5Q215 296 237 296Z" glyph-name="five.numr" horiz-adv-x="400" /><glyph d="M162 -112Q221 -112 256 -72.5Q291 -33 291 28Q291 94 251 144Q211 194 111 244L78 260L180 513L457 521L430 466Q427 460 421.5 456Q416 452 411 452L183 447L128 312L174 289Q265 242 309 185Q353 128 353 59Q353 -22 292.5 -82Q232 -142 137 -142Q73 -142 23 -111Q-27 -80 -27 -42Q-27 -25 -15 -14Q-3 -3 14 -3Q22 -3 29 -8Q36 -13 44 -24Q47 -28 53.5 -39.5Q60 -51 64 -57Q83 -86 106.5 -99Q130 -112 162 -112Z" glyph-name="five.pnum" horiz-adv-x="456" /><glyph d="M274 17Q338 17 376 60.5Q414 104 414 170Q414 241 370.5 295.5Q327 350 219 404L183 422L294 697L595 705L565 646Q562 639 556 634.5Q550 630 545 630L297 625L237 478L287 453Q386 402 433.5 340.5Q481 279 481 203Q481 115 415.5 50Q350 -15 247 -15Q177 -15 123 18Q69 51 69 93Q69 112 81.5 124Q94 136 113 136Q122 136 129.5 131Q137 126 145 113Q148 108 155.5 96Q163 84 167 77Q189 45 214.5 31Q240 17 274 17Z" glyph-name="five.tnum" horiz-adv-x="600" /><glyph d="M244 296Q284 296 308 322Q332 348 332 388Q332 431 304.5 463.5Q277 496 210 528L188 539L257 704L447 709L428 674Q426 669 422.5 666.5Q419 664 415 664L259 661L221 573L253 558Q316 526 346 489.5Q376 453 376 408Q376 355 334 316Q292 277 227 277Q183 277 149 297Q115 317 115 342Q115 354 123 361Q131 368 143 368Q149 368 153.5 365Q158 362 163 354Q165 351 169.5 343.5Q174 336 177 332Q190 313 206 304.5Q222 296 244 296ZM870 113Q870 61 830.5 26Q791 -9 733 -9Q680 -9 643.5 23Q607 55 607 98Q607 146 642.5 181Q678 216 735 229Q711 249 698.5 272.5Q686 296 686 320Q686 365 720.5 397Q755 429 810 429Q861 429 892.5 401Q924 373 924 333Q924 291 891.5 259.5Q859 228 811 218Q843 188 856.5 163.5Q870 139 870 113ZM886 333Q886 365 865 386.5Q844 408 811 408Q778 408 754.5 385.5Q731 363 731 332Q731 309 740.5 291.5Q750 274 785 242L802 226Q840 243 863 272.5Q886 302 886 333ZM649 100Q649 61 673 36.5Q697 12 739 12Q776 12 802 37Q828 62 828 99Q828 122 816.5 143Q805 164 777 190L746 219Q697 198 673 168Q649 138 649 100ZM200 0H162L839 700H877Z" glyph-name="fiveeights" horiz-adv-x="1000" unicode="&#8541;" /><glyph d="M126 -90Q166 -90 190 -64Q214 -38 214 2Q214 45 186.5 77.5Q159 110 92 142L70 153L139 318L329 323L310 288Q308 283 304.5 280.5Q301 278 297 278L141 275L103 187L135 172Q198 140 228 103.5Q258 67 258 22Q258 -31 216 -70Q174 -109 109 -109Q65 -109 31 -89Q-3 -69 -3 -44Q-3 -32 5 -25Q13 -18 25 -18Q31 -18 35.5 -21Q40 -24 45 -32Q47 -35 51.5 -42.5Q56 -50 59 -54Q72 -73 88 -81.5Q104 -90 126 -90Z" glyph-name="fiveinferior" horiz-adv-x="400" unicode="&#8325;" /><glyph d="M265 396Q305 396 329 422Q353 448 353 488Q353 531 325.5 563.5Q298 596 231 628L209 639L278 804L468 809L449 774Q447 769 443.5 766.5Q440 764 436 764L280 761L242 673L274 658Q337 626 367 589.5Q397 553 397 508Q397 455 355 416Q313 377 248 377Q204 377 170 397Q136 417 136 442Q136 454 144 461Q152 468 164 468Q170 468 174.5 465Q179 462 184 454Q186 451 190.5 443.5Q195 436 198 432Q211 413 227 404.5Q243 396 265 396Z" glyph-name="fivesuperior" horiz-adv-x="400" unicode="&#8309;" /><glyph d="M-118 -276Q-146 -276 -162.5 -265Q-179 -254 -179 -237Q-179 -223 -169 -211Q-159 -199 -145 -199Q-142 -199 -139 -201.5Q-136 -204 -131 -212Q-121 -227 -112 -232Q-103 -237 -91 -237Q-59 -237 -25.5 -173.5Q8 -110 52 32L173 427H77L85 453H181L193 487Q241 622 308.5 695Q376 768 452 769Q483 769 502.5 757Q522 745 525 726Q549 733 562.5 737Q576 741 584 744H586L366 83Q361 67 358.5 58.5Q356 50 356 45Q356 41 358 38.5Q360 36 364 36Q382 36 425 68.5Q468 101 493 133L513 126Q477 73 422 29Q367 -15 327 -15Q308 -15 298 -5.5Q288 4 288 21Q288 34 292.5 53.5Q297 73 335 186L502 685Q498 684 494 683Q490 682 486 682Q482 682 477.5 684.5Q473 687 465 696Q449 713 436.5 718.5Q424 724 408 724Q369 724 335.5 672.5Q302 621 265 503L249 453H366L358 427H242L151 129Q85 -84 20 -180Q-45 -276 -118 -276Z" glyph-name="fl" horiz-adv-x="539" unicode="&#64258;" /><glyph d="M320 512 267 329H381L371 303H261L197 77Q167 -30 137 -98Q107 -166 74 -204Q44 -238 9.5 -256Q-25 -274 -61 -274Q-97 -274 -121.5 -254Q-146 -234 -146 -205Q-146 -185 -132.5 -171Q-119 -157 -101 -157Q-83 -157 -71.5 -169.5Q-60 -182 -60 -198Q-60 -214 -69.5 -226.5Q-79 -239 -94 -242V-244Q-90 -247 -81 -249.5Q-72 -252 -64 -252Q-46 -252 -26 -242Q-6 -232 9 -216Q36 -186 62.5 -126.5Q89 -67 117 30L197 303H91L99 329H203L252 496Q292 630 351 698Q410 766 487 766Q523 766 549.5 744Q576 722 576 695Q576 674 564 660Q552 646 533 646Q517 646 505.5 657Q494 668 494 684Q494 701 504 712Q514 723 532 727V731Q523 737 513 740Q503 743 491 743Q439 743 396.5 685.5Q354 628 320 512Z" glyph-name="florin" horiz-adv-x="467" unicode="&#402;" /><glyph d="M420 715H484L81 237H319L371 422L449 441L391 238H516L502 184H377L347 74Q341 54 347 45Q353 36 374 33L423 24L417 0H163L170 24L224 33Q247 36 257.5 45Q268 54 274 74L304 184H21L18 197Z" glyph-name="four" horiz-adv-x="550" unicode="4" /><glyph d="M269 429H309L44 142H205L237 253L286 265L250 143H328L320 110H241L222 44Q219 32 222.5 27Q226 22 239 20L270 14L267 0H106L111 14L145 20Q160 22 166.5 27Q173 32 176 44L195 110H6L4 118Z" glyph-name="four.dnom" horiz-adv-x="400" /><glyph d="M351 715H391L126 428H287L319 539L368 551L332 429H410L402 396H323L304 330Q301 318 304.5 313Q308 308 321 306L352 300L349 286H188L193 300L227 306Q242 308 248.5 313Q255 318 258 330L277 396H88L86 404Z" glyph-name="four.numr" horiz-adv-x="400" /><glyph d="M344 525H413L47 105H265L309 255L381 273L333 106H447L435 56H320L268 -133H198L252 56H-8L-11 68Z" glyph-name="four.pnum" horiz-adv-x="519" /><glyph d="M445 715H509L106 237H344L396 422L474 441L416 238H541L527 184H402L372 74Q366 54 372 45Q378 36 399 33L448 24L442 0H188L195 24L249 33Q272 36 282.5 45Q293 54 299 74L329 184H46L43 197Z" glyph-name="four.tnum" horiz-adv-x="600" /><glyph d="M240 329H280L15 42H176L208 153L257 165L221 43H299L291 10H212L193 -56Q190 -68 193.5 -73Q197 -78 210 -80L241 -86L238 -100H77L82 -86L116 -80Q131 -78 137.5 -73Q144 -68 147 -56L166 10H-23L-25 18Z" glyph-name="fourinferior" horiz-adv-x="400" unicode="&#8324;" /><glyph d="M380 815H420L155 528H316L348 639L397 651L361 529H439L431 496H352L333 430Q330 418 333.5 413Q337 408 350 406L381 400L378 386H217L222 400L256 406Q271 408 277.5 413Q284 418 287 430L306 496H117L115 504Z" glyph-name="foursuperior" horiz-adv-x="400" unicode="&#8308;" /><glyph d="M-190 0H-228L449 700H487Z" glyph-name="fraction" horiz-adv-x="200" unicode="&#8260;" /><glyph d="M335 372Q335 413 317 437Q299 461 269 461Q218 461 181 407Q144 353 144 275Q144 234 162 210Q180 186 210 186Q261 186 298 240Q335 294 335 372ZM392 -91Q392 -154 320.5 -198.5Q249 -243 137 -243Q42 -243 -18.5 -207.5Q-79 -172 -79 -116Q-79 -76 -45 -46Q-11 -16 40 -8L52 -15Q20 -35 4 -57Q-12 -79 -12 -105Q-12 -154 37.5 -182.5Q87 -211 160 -211Q232 -211 275.5 -183Q319 -155 319 -112Q319 -84 298 -64Q277 -44 234 -30L144 -2Q96 13 72 36.5Q48 60 48 94Q48 121 66.5 150Q85 179 112 198Q94 216 85 239.5Q76 263 76 290Q76 365 133.5 426.5Q191 488 270 488Q291 488 311 482Q331 476 347 465L523 479L500 416L379 442L376 438Q389 422 396 401Q403 380 403 357Q403 282 345.5 220.5Q288 159 209 159Q186 159 165 165.5Q144 172 127 185Q115 167 109 152Q103 137 103 125Q103 104 118 87Q133 70 160 62L288 22Q338 7 365 -22.5Q392 -52 392 -91Z" glyph-name="g" horiz-adv-x="469" unicode="g" /><glyph d="M669 727Q688 727 702 713Q716 699 716 680Q716 661 702 647Q688 633 669 633Q650 633 636 647Q622 661 622 680Q622 699 636 713Q650 727 669 727ZM335 372Q335 413 317 437Q299 461 269 461Q218 461 181 407Q144 353 144 275Q144 234 162 210Q180 186 210 186Q261 186 298 240Q335 294 335 372ZM392 -91Q392 -154 320.5 -198.5Q249 -243 137 -243Q42 -243 -18.5 -207.5Q-79 -172 -79 -116Q-79 -76 -45 -46Q-11 -16 40 -8L52 -15Q20 -35 4 -57Q-12 -79 -12 -105Q-12 -154 37.5 -182.5Q87 -211 160 -211Q232 -211 275.5 -183Q319 -155 319 -112Q319 -84 298 -64Q277 -44 234 -30L144 -2Q96 13 72 36.5Q48 60 48 94Q48 121 66.5 150Q85 179 112 198Q94 216 85 239.5Q76 263 76 290Q76 365 133.5 426.5Q191 488 270 488Q319 488 355.5 459Q392 430 401 383Q451 426 507 457Q563 488 595 488Q615 488 628 475Q641 462 641 441Q641 419 630.5 382.5Q620 346 578 241L517 89Q511 75 508.5 66Q506 57 506 52Q506 46 508.5 42.5Q511 39 516 39Q530 39 566.5 70Q603 101 625 133L644 126Q614 75 559.5 30Q505 -15 463 -15Q449 -15 440 -5.5Q431 4 431 20Q431 30 435.5 45Q440 60 451 87L513 241Q561 360 571 389.5Q581 419 581 429Q581 436 578 439.5Q575 443 570 443Q548 443 495.5 414.5Q443 386 403 354Q401 279 344.5 219Q288 159 209 159Q186 159 165 165.5Q144 172 127 185Q115 167 109 152Q103 137 103 125Q103 104 118 87Q133 70 160 62L288 22Q338 7 365 -22.5Q392 -52 392 -91Z" glyph-name="g_i" horiz-adv-x="690" /><glyph d="M336 372Q336 413 318 437Q300 461 270 461Q219 461 182 407Q145 353 145 275Q145 234 163 210Q181 186 211 186Q262 186 299 240Q336 294 336 372ZM616 -44Q510 -139 389.5 -191Q269 -243 154 -243Q48 -243 -15.5 -204.5Q-79 -166 -79 -102Q-79 -59 -42.5 -30.5Q-6 -2 48 2L59 -6Q24 -24 6.5 -46Q-11 -68 -11 -96Q-11 -148 33 -178Q77 -208 148 -208Q253 -208 353 -171.5Q453 -135 530 -72L523 434Q523 439 519.5 443Q516 447 511 447Q493 447 460.5 434Q428 421 397 401Q401 392 402.5 381Q404 370 404 357Q404 282 346.5 220.5Q289 159 210 159Q186 159 164 166.5Q142 174 123 189Q109 171 102.5 157Q96 143 96 130Q96 112 109 96.5Q122 81 146 71L271 18Q318 -2 342.5 -30Q367 -58 367 -92Q356 -103 339 -111.5Q322 -120 300 -126V-117Q300 -89 279 -67Q258 -45 214 -27L125 8Q81 25 60 48.5Q39 72 39 104Q39 128 58 156Q77 184 106 206Q92 222 84.5 244Q77 266 77 290Q77 365 134.5 426.5Q192 488 271 488Q309 488 340.5 470Q372 452 389 421Q431 452 472 470.5Q513 489 538 489Q564 489 576.5 469.5Q589 450 589 411Q589 383 589 349Q589 315 590 246Q590 182 590 151.5Q590 121 590 97V-21L593 -23Q625 2 665 54Q705 106 737 164Q771 225 788.5 282Q806 339 806 387Q806 415 789.5 433Q773 451 749 451Q737 451 724.5 446Q712 441 703 433V429Q721 425 732 414.5Q743 404 743 389Q743 376 732.5 365.5Q722 355 708 355Q692 355 681 367Q670 379 670 396Q670 430 700.5 459Q731 488 775 488Q814 488 837 462.5Q860 437 859 394Q857 289 791.5 171.5Q726 54 616 -44Z" glyph-name="g_y" horiz-adv-x="877" /><glyph d="M335 372Q335 413 317 437Q299 461 269 461Q218 461 181 407Q144 353 144 275Q144 234 162 210Q180 186 210 186Q261 186 298 240Q335 294 335 372ZM392 -91Q392 -154 320.5 -198.5Q249 -243 137 -243Q42 -243 -18.5 -207.5Q-79 -172 -79 -116Q-79 -76 -45 -46Q-11 -16 40 -8L52 -15Q20 -35 4 -57Q-12 -79 -12 -105Q-12 -154 37.5 -182.5Q87 -211 160 -211Q232 -211 275.5 -183Q319 -155 319 -112Q319 -84 298 -64Q277 -44 234 -30L144 -2Q96 13 72 36.5Q48 60 48 94Q48 121 66.5 150Q85 179 112 198Q94 216 85 239.5Q76 263 76 290Q76 365 133.5 426.5Q191 488 270 488Q291 488 311 482Q331 476 347 465L523 479L500 416L379 442L376 438Q389 422 396 401Q403 380 403 357Q403 282 345.5 220.5Q288 159 209 159Q186 159 165 165.5Q144 172 127 185Q115 167 109 152Q103 137 103 125Q103 104 118 87Q133 70 160 62L288 22Q338 7 365 -22.5Q392 -52 392 -91ZM298 548Q238 548 209.5 583.5Q181 619 194 665L199 682H233L231 676Q224 646 243.5 626.5Q263 607 304 607Q345 607 373.5 626.5Q402 646 409 676L411 682H445L439 658Q426 606 389.5 577Q353 548 298 548Z" glyph-name="gbreve" horiz-adv-x="469" unicode="&#287;" /><glyph d="M335 372Q335 413 317 437Q299 461 269 461Q218 461 181 407Q144 353 144 275Q144 234 162 210Q180 186 210 186Q261 186 298 240Q335 294 335 372ZM392 -91Q392 -154 320.5 -198.5Q249 -243 137 -243Q42 -243 -18.5 -207.5Q-79 -172 -79 -116Q-79 -76 -45 -46Q-11 -16 40 -8L52 -15Q20 -35 4 -57Q-12 -79 -12 -105Q-12 -154 37.5 -182.5Q87 -211 160 -211Q232 -211 275.5 -183Q319 -155 319 -112Q319 -84 298 -64Q277 -44 234 -30L144 -2Q96 13 72 36.5Q48 60 48 94Q48 121 66.5 150Q85 179 112 198Q94 216 85 239.5Q76 263 76 290Q76 365 133.5 426.5Q191 488 270 488Q291 488 311 482Q331 476 347 465L523 479L500 416L379 442L376 438Q389 422 396 401Q403 380 403 357Q403 282 345.5 220.5Q288 159 209 159Q186 159 165 165.5Q144 172 127 185Q115 167 109 152Q103 137 103 125Q103 104 118 87Q133 70 160 62L288 22Q338 7 365 -22.5Q392 -52 392 -91ZM194 549H165L297 696H343L395 549H366L303 632Z" glyph-name="gcircumflex" horiz-adv-x="469" unicode="&#285;" /><glyph d="M335 372Q335 413 317 437Q299 461 269 461Q218 461 181 407Q144 353 144 275Q144 234 162 210Q180 186 210 186Q261 186 298 240Q335 294 335 372ZM392 -91Q392 -154 320.5 -198.5Q249 -243 137 -243Q42 -243 -18.5 -207.5Q-79 -172 -79 -116Q-79 -76 -45 -46Q-11 -16 40 -8L52 -15Q20 -35 4 -57Q-12 -79 -12 -105Q-12 -154 37.5 -182.5Q87 -211 160 -211Q232 -211 275.5 -183Q319 -155 319 -112Q319 -84 298 -64Q277 -44 234 -30L144 -2Q96 13 72 36.5Q48 60 48 94Q48 121 66.5 150Q85 179 112 198Q94 216 85 239.5Q76 263 76 290Q76 365 133.5 426.5Q191 488 270 488Q291 488 311 482Q331 476 347 465L523 479L500 416L379 442L376 438Q389 422 396 401Q403 380 403 357Q403 282 345.5 220.5Q288 159 209 159Q186 159 165 165.5Q144 172 127 185Q115 167 109 152Q103 137 103 125Q103 104 118 87Q133 70 160 62L288 22Q338 7 365 -22.5Q392 -52 392 -91ZM254 604Q254 643 290 691.5Q326 740 391 791L411 775Q371 730 350 690Q329 650 329 619Q329 604 337 596Q345 588 360 588Q366 588 373.5 589.5Q381 591 388 593L379 573Q360 563 342 557Q324 551 310 551Q284 551 269 567.5Q254 584 254 604Z" glyph-name="gcommaaccent" horiz-adv-x="469" unicode="&#291;" /><glyph d="M335 372Q335 413 317 437Q299 461 269 461Q218 461 181 407Q144 353 144 275Q144 234 162 210Q180 186 210 186Q261 186 298 240Q335 294 335 372ZM392 -91Q392 -154 320.5 -198.5Q249 -243 137 -243Q42 -243 -18.5 -207.5Q-79 -172 -79 -116Q-79 -76 -45 -46Q-11 -16 40 -8L52 -15Q20 -35 4 -57Q-12 -79 -12 -105Q-12 -154 37.5 -182.5Q87 -211 160 -211Q232 -211 275.5 -183Q319 -155 319 -112Q319 -84 298 -64Q277 -44 234 -30L144 -2Q96 13 72 36.5Q48 60 48 94Q48 121 66.5 150Q85 179 112 198Q94 216 85 239.5Q76 263 76 290Q76 365 133.5 426.5Q191 488 270 488Q291 488 311 482Q331 476 347 465L523 479L500 416L379 442L376 438Q389 422 396 401Q403 380 403 357Q403 282 345.5 220.5Q288 159 209 159Q186 159 165 165.5Q144 172 127 185Q115 167 109 152Q103 137 103 125Q103 104 118 87Q133 70 160 62L288 22Q338 7 365 -22.5Q392 -52 392 -91ZM338 618Q338 596 322.5 580.5Q307 565 285 565Q263 565 247.5 580.5Q232 596 232 618Q232 640 247.5 655Q263 670 285 670Q307 670 322.5 655Q338 640 338 618Z" glyph-name="gdotaccent" horiz-adv-x="469" unicode="&#289;" /><glyph d="M49 32 170 427H74L82 453H178L191 488Q239 616 302 683Q365 750 437 750Q494 750 528 716.5Q562 683 562 632Q562 595 540 556Q518 517 452 450Q410 408 398 389.5Q386 371 386 357Q386 347 387.5 331Q389 315 394 273Q403 208 405.5 174.5Q408 141 408 116Q408 61 371.5 23Q335 -15 277 -15Q261 -15 244.5 -11.5Q228 -8 201 2L210 24Q223 19 236.5 16Q250 13 262 13Q297 13 318 39Q339 65 339 104Q339 126 336.5 159Q334 192 327 258Q323 296 322 310Q321 324 321 331Q321 337 329.5 349Q338 361 368 394Q445 477 472.5 528Q500 579 500 622Q500 662 478 690.5Q456 719 420 719Q383 719 353.5 693Q324 667 300 611Q289 588 278.5 558Q268 528 244 448L148 129Q85 -80 19 -178Q-47 -276 -121 -276Q-149 -276 -165.5 -265Q-182 -254 -182 -237Q-182 -223 -172 -211Q-162 -199 -148 -199Q-145 -199 -142 -201.5Q-139 -204 -134 -212Q-124 -227 -115 -232Q-106 -237 -94 -237Q-62 -237 -28.5 -173.5Q5 -110 49 32Z" glyph-name="germandbls" horiz-adv-x="494" unicode="&#223;" /><glyph d="M310 547H291L160 694H243Z" glyph-name="grave" horiz-adv-x="200" unicode="`" /><glyph d="M517 338 76 169 88 216 475 362 173 505 184 547 529 378Z" glyph-name="greater" horiz-adv-x="540" unicode="&gt;" /><glyph d="M745 359 451 74 416 110 620 330 75 327V391L620 388L416 608L451 644Z" glyph-name="greater.alt" horiz-adv-x="735" unicode="&#8594;" /><glyph d="M510 338 69 169 81 216 468 362 166 505 177 547 522 378ZM414 0H20L31 41H425Z" glyph-name="greaterequal" horiz-adv-x="540" unicode="&#8805;" /><glyph d="M163 91 144 82 71 297 259 472 271 462 141 278ZM340 91 322 82 248 297 436 472 449 462 318 278Z" glyph-name="guillemotleft" horiz-adv-x="448" unicode="&#171;" /><glyph d="M198 163 179 154 106 369 294 544 306 534 176 350ZM375 163 357 154 283 369 471 544 484 534 353 350Z" glyph-name="guillemotleft.case" horiz-adv-x="482" /><glyph d="M403 257 214 82 202 91 333 275 310 462 329 472ZM223 257 35 82 22 91 153 275 131 462 149 472Z" glyph-name="guillemotright" horiz-adv-x="451" unicode="&#187;" /><glyph d="M444 329 255 154 243 163 374 347 351 534 370 544ZM264 329 76 154 63 163 194 347 172 534 190 544Z" glyph-name="guillemotright.case" horiz-adv-x="486" /><glyph d="M163 91 144 82 71 297 259 472 271 462 141 278Z" glyph-name="guilsinglleft" horiz-adv-x="271" unicode="&#8249;" /><glyph d="M198 163 179 154 106 369 294 544 306 534 176 350Z" glyph-name="guilsinglleft.case" horiz-adv-x="305" /><glyph d="M224 257 35 82 22 91 154 275 131 462 149 472Z" glyph-name="guilsinglright" horiz-adv-x="272" unicode="&#8250;" /><glyph d="M265 329 76 154 63 163 195 347 172 534 190 544Z" glyph-name="guilsinglright.case" horiz-adv-x="307" /><glyph d="M306 742 142 245H148Q217 360 285.5 424Q354 488 408 488Q433 488 448 470.5Q463 453 463 423Q463 410 454.5 381Q446 352 409 247L352 89Q346 72 344 64.5Q342 57 342 52Q342 46 344.5 42.5Q347 39 352 39Q366 39 402.5 70Q439 101 461 133L480 126Q450 74 396 29.5Q342 -15 300 -15Q286 -15 277 -5.5Q268 4 268 20Q268 32 272 49Q276 66 284 87L342 242Q375 330 387 366.5Q399 403 399 414Q399 424 394.5 429.5Q390 435 381 435Q349 435 294 383Q239 331 184 248Q148 193 116.5 130Q85 67 60 0L2 -10L218 677L129 687L134 704Q178 710 230 722.5Q282 735 304 744Z" glyph-name="h" horiz-adv-x="517" unicode="h" /><glyph d="M406 488Q436 488 451.5 468Q467 448 467 410Q467 364 441.5 294.5Q416 225 375 157Q326 77 273.5 31Q221 -15 177 -15Q161 -15 150 -5.5Q139 4 139 18Q139 30 147.5 38.5Q156 47 167 47Q181 47 190 36.5Q199 26 200 10L205 9Q249 40 326.5 199.5Q404 359 404 414Q404 427 397 434Q390 441 377 441Q346 441 293.5 389Q241 337 187 249Q154 195 123 132.5Q92 70 63 0L0 -10L222 677L143 687L148 704Q189 711 239.5 723.5Q290 736 310 744L312 742L143 235H149Q219 361 283.5 424.5Q348 488 406 488Z" glyph-name="h.alt" horiz-adv-x="477" /><glyph d="M461 133 480 126Q450 74 396 29.5Q342 -15 300 -15Q286 -15 277 -5.5Q268 4 268 20Q268 32 272 49Q276 66 284 87L342 242Q375 330 387 366.5Q399 403 399 414Q399 424 394.5 429.5Q390 435 381 435Q349 435 294 383Q239 331 184 248Q148 193 116.5 130Q85 67 60 0L2 -10L183 565H121L130 598H193L218 677L129 687L134 704Q178 710 230 722.5Q282 735 304 744L306 742L258 598H397L388 565H248L142 245H148Q217 360 285.5 424Q354 488 408 488Q433 488 448 470.5Q463 453 463 423Q463 410 454.5 381Q446 352 409 247L352 89Q346 72 344 64.5Q342 57 342 52Q342 46 344.5 42.5Q347 39 352 39Q366 39 402.5 70Q439 101 461 133Z" glyph-name="hbar" horiz-adv-x="518" unicode="&#295;" /><glyph d="M306 742 142 245H148Q217 360 285.5 424Q354 488 408 488Q433 488 448 470.5Q463 453 463 423Q463 410 454.5 381Q446 352 409 247L352 89Q346 72 344 64.5Q342 57 342 52Q342 46 344.5 42.5Q347 39 352 39Q366 39 402.5 70Q439 101 461 133L480 126Q450 74 396 29.5Q342 -15 300 -15Q286 -15 277 -5.5Q268 4 268 20Q268 32 272 49Q276 66 284 87L342 242Q375 330 387 366.5Q399 403 399 414Q399 424 394.5 429.5Q390 435 381 435Q349 435 294 383Q239 331 184 248Q148 193 116.5 130Q85 67 60 0L2 -10L218 677L129 687L134 704Q178 710 230 722.5Q282 735 304 744ZM207 772H178L310 919H356L408 772H379L316 855Z" glyph-name="hcircumflex" horiz-adv-x="518" unicode="&#293;" /><glyph d="M325 547H306L411 694H506ZM179 547H160L265 694H360Z" glyph-name="hungarumlaut" horiz-adv-x="346" unicode="&#733;" /><glyph d="M281 225H71L88 283H298Z" glyph-name="hyphen" horiz-adv-x="360" unicode="-" /><glyph d="M312 314H102L119 372H329Z" glyph-name="hyphen.case" horiz-adv-x="377" /><glyph d="M271 727Q290 727 304 713Q318 699 318 680Q318 661 304 647Q290 633 271 633Q252 633 238 647Q224 661 224 680Q224 699 238 713Q252 727 271 727ZM33 20Q33 30 37.5 45Q42 60 53 87L115 241Q164 363 172.5 388.5Q181 414 181 423Q181 430 178 433.5Q175 437 170 437Q155 437 128.5 420Q102 403 79 378L62 392Q93 432 132.5 460Q172 488 201 488Q219 488 231 475Q243 462 243 441Q243 419 232.5 382.5Q222 346 180 241L119 89Q113 75 110.5 66Q108 57 108 52Q108 46 110.5 42.5Q113 39 118 39Q132 39 168.5 70Q205 101 227 133L246 126Q216 75 161.5 30Q107 -15 65 -15Q51 -15 42 -5.5Q33 4 33 20Z" glyph-name="i" horiz-adv-x="292" unicode="i" /><glyph d="M271 727Q290 727 304 713Q318 699 318 680Q318 661 304 647Q290 633 271 633Q252 633 238 647Q224 661 224 680Q224 699 238 713Q252 727 271 727ZM33 20Q33 30 37.5 45Q42 60 53 87L115 241Q164 363 172.5 388.5Q181 414 181 423Q181 430 178 433.5Q175 437 170 437Q155 437 128.5 420Q102 403 79 378L62 392Q93 432 132.5 460Q172 488 201 488Q219 488 231 475Q243 462 243 441Q243 419 232.5 382.5Q222 346 180 241L119 89Q113 75 110.5 66Q108 57 108 52Q108 46 110.5 42.5Q113 39 118 39Q132 39 168.5 70Q205 101 227 133L246 126Q216 75 161.5 30Q107 -15 65 -15Q51 -15 42 -5.5Q33 4 33 20Z" glyph-name="i.TRK" horiz-adv-x="291" /><glyph d="M33 20Q33 30 37.5 45Q42 60 53 87L115 241Q164 363 172.5 388.5Q181 414 181 423Q181 430 178 433.5Q175 437 170 437Q155 437 128.5 420Q102 403 79 378L62 392Q93 432 132.5 460Q172 488 201 488Q219 488 231 475Q243 462 243 441Q243 419 232.5 382.5Q222 346 180 241L119 89Q113 75 110.5 66Q108 57 108 52Q108 46 110.5 42.5Q113 39 118 39Q132 39 168.5 70Q205 101 227 133L246 126Q216 75 161.5 30Q107 -15 65 -15Q51 -15 42 -5.5Q33 4 33 20ZM243 549H224L329 696H424Z" glyph-name="iacute" horiz-adv-x="291" unicode="&#237;" /><glyph d="M33 20Q33 30 37.5 45Q42 60 53 87L115 241Q164 363 172.5 388.5Q181 414 181 423Q181 430 178 433.5Q175 437 170 437Q155 437 128.5 420Q102 403 79 378L62 392Q93 432 132.5 460Q172 488 201 488Q219 488 231 475Q243 462 243 441Q243 419 232.5 382.5Q222 346 180 241L119 89Q113 75 110.5 66Q108 57 108 52Q108 46 110.5 42.5Q113 39 118 39Q132 39 168.5 70Q205 101 227 133L246 126Q216 75 161.5 30Q107 -15 65 -15Q51 -15 42 -5.5Q33 4 33 20ZM254 548Q194 548 165.5 583.5Q137 619 150 665L155 682H189L187 676Q180 646 199.5 626.5Q219 607 260 607Q301 607 329.5 626.5Q358 646 365 676L367 682H401L395 658Q382 606 345.5 577Q309 548 254 548Z" glyph-name="ibreve" horiz-adv-x="291" unicode="&#301;" /><glyph d="M33 20Q33 30 37.5 45Q42 60 53 87L115 241Q164 363 172.5 388.5Q181 414 181 423Q181 430 178 433.5Q175 437 170 437Q155 437 128.5 420Q102 403 79 378L62 392Q93 432 132.5 460Q172 488 201 488Q219 488 231 475Q243 462 243 441Q243 419 232.5 382.5Q222 346 180 241L119 89Q113 75 110.5 66Q108 57 108 52Q108 46 110.5 42.5Q113 39 118 39Q132 39 168.5 70Q205 101 227 133L246 126Q216 75 161.5 30Q107 -15 65 -15Q51 -15 42 -5.5Q33 4 33 20ZM150 549H121L253 696H299L351 549H322L259 632Z" glyph-name="icircumflex" horiz-adv-x="291" unicode="&#238;" /><glyph d="M33 20Q33 30 37.5 45Q42 60 53 87L115 241Q164 363 172.5 388.5Q181 414 181 423Q181 430 178 433.5Q175 437 170 437Q155 437 128.5 420Q102 403 79 378L62 392Q93 432 132.5 460Q172 488 201 488Q219 488 231 475Q243 462 243 441Q243 419 232.5 382.5Q222 346 180 241L119 89Q113 75 110.5 66Q108 57 108 52Q108 46 110.5 42.5Q113 39 118 39Q132 39 168.5 70Q205 101 227 133L246 126Q216 75 161.5 30Q107 -15 65 -15Q51 -15 42 -5.5Q33 4 33 20ZM375 622Q375 600 360 585Q345 570 323 570Q301 570 286 585Q271 600 271 622Q271 644 286 659Q301 674 323 674Q345 674 360 659Q375 644 375 622ZM219 622Q219 600 204 585Q189 570 167 570Q145 570 130 585Q115 600 115 622Q115 644 130 659Q145 674 167 674Q189 674 204 659Q219 644 219 622Z" glyph-name="idieresis" horiz-adv-x="291" unicode="&#239;" /><glyph d="M33 20Q33 30 37.5 45Q42 60 53 87L115 241Q164 363 172.5 388.5Q181 414 181 423Q181 430 178 433.5Q175 437 170 437Q155 437 128.5 420Q102 403 79 378L62 392Q93 432 132.5 460Q172 488 201 488Q219 488 231 475Q243 462 243 441Q243 419 232.5 382.5Q222 346 180 241L119 89Q113 75 110.5 66Q108 57 108 52Q108 46 110.5 42.5Q113 39 118 39Q132 39 168.5 70Q205 101 227 133L246 126Q216 75 161.5 30Q107 -15 65 -15Q51 -15 42 -5.5Q33 4 33 20ZM247 549H228L97 696H180Z" glyph-name="igrave" horiz-adv-x="291" unicode="&#236;" /><glyph d="M271 727Q290 727 304 713Q318 699 318 680Q318 661 304 647Q290 633 271 633Q252 633 238 647Q224 661 224 680Q224 699 238 713Q252 727 271 727ZM33 20Q33 30 37.5 45Q42 60 53 87L115 241Q164 363 172.5 388.5Q181 414 181 423Q181 430 178 433.5Q175 437 170 437Q155 437 128.5 420Q102 403 79 378L62 392Q93 432 132.5 460Q172 488 201 488Q219 488 231 475Q243 462 243 441Q243 419 232.5 382.5Q222 346 180 241L119 89Q113 75 110.5 66Q108 57 108 52Q108 46 110.5 42.5Q113 39 118 39Q132 39 168.5 70Q205 101 227 133L246 126Q216 75 161.5 30Q107 -15 65 -15Q51 -15 42 -5.5Q33 4 33 20ZM596 680Q596 661 582 647Q568 633 549 633Q530 633 516 647Q502 661 502 680Q502 699 516 713Q530 727 549 727Q568 727 582 713Q596 699 596 680ZM202 -237Q234 -237 269 -172.5Q304 -108 348 32L412 235Q440 322 452 366Q464 410 464 423Q464 430 461 433.5Q458 437 453 437Q439 437 412 419Q385 401 361 375L344 392Q375 432 414.5 460Q454 488 483 488Q502 488 514 475Q526 462 526 441Q526 417 509.5 351.5Q493 286 461 183L444 129Q376 -88 311.5 -182Q247 -276 175 -276Q147 -276 130.5 -265Q114 -254 114 -237Q114 -223 124 -211Q134 -199 148 -199Q151 -199 154 -201.5Q157 -204 162 -212Q172 -227 181 -232Q190 -237 202 -237Z" glyph-name="ij" horiz-adv-x="553" unicode="&#307;" /><glyph d="M33 20Q33 30 37.5 45Q42 60 53 87L115 241Q164 363 172.5 388.5Q181 414 181 423Q181 430 178 433.5Q175 437 170 437Q155 437 128.5 420Q102 403 79 378L62 392Q93 432 132.5 460Q172 488 201 488Q219 488 231 475Q243 462 243 441Q243 419 232.5 382.5Q222 346 180 241L119 89Q113 75 110.5 66Q108 57 108 52Q108 46 110.5 42.5Q113 39 118 39Q132 39 168.5 70Q205 101 227 133L246 126Q216 75 161.5 30Q107 -15 65 -15Q51 -15 42 -5.5Q33 4 33 20ZM379 575H108L123 622H394Z" glyph-name="imacron" horiz-adv-x="291" unicode="&#299;" /><glyph d="M736 0H16V47L344 700H409L736 47ZM376 656 75 51H677Z" glyph-name="increment" horiz-adv-x="829" unicode="&#8710;" /><glyph d="M850 359Q850 270 802.5 209.5Q755 149 678 149Q619 149 570 187Q521 225 486 298Q429 214 386.5 182Q344 150 298 150Q213 150 164 212Q115 274 115 365Q115 454 162.5 514.5Q210 575 287 575Q348 575 397.5 535.5Q447 496 479 425Q534 508 577.5 541.5Q621 575 668 575Q752 575 801 513Q850 451 850 359ZM154 364Q154 306 191.5 266Q229 226 281 226Q318 226 354.5 257Q391 288 459 395Q430 444 385 472Q340 500 286 500Q227 500 190.5 461Q154 422 154 364ZM506 330Q534 282 579.5 253Q625 224 680 224Q739 224 775.5 263Q812 302 812 360Q812 418 774.5 458Q737 498 685 498Q647 498 609.5 466Q572 434 506 330Z" glyph-name="infinity" horiz-adv-x="893" unicode="&#8734;" /><glyph d="M303 351Q303 296 265.5 257.5Q228 219 174 219Q120 219 82.5 257.5Q45 296 45 351Q45 406 82.5 444.5Q120 483 174 483Q228 483 265.5 444.5Q303 406 303 351Z" glyph-name="integral" horiz-adv-x="348" unicode="&#8747;" /><glyph d="M271 727Q290 727 304 713Q318 699 318 680Q318 661 304 647Q290 633 271 633Q252 633 238 647Q224 661 224 680Q224 699 238 713Q252 727 271 727ZM23 -189Q-9 -189 -29.5 -172Q-50 -155 -50 -126Q-50 -100 -25 -69.5Q0 -39 45 -9Q39 -4 36 3.5Q33 11 33 20Q33 30 37.5 45Q42 60 53 87L115 241Q164 363 172.5 388.5Q181 414 181 423Q181 430 178 433.5Q175 437 170 437Q155 437 128.5 420Q102 403 79 378L62 392Q93 432 132.5 460Q172 488 201 488Q219 488 231 475Q243 462 243 441Q243 419 232.5 382.5Q222 346 180 241L119 89Q113 75 110.5 66Q108 57 108 52Q108 46 110.5 42.5Q113 39 118 39Q132 39 168.5 70Q205 101 227 133L246 126Q218 78 166 33.5Q114 -11 73 -15Q46 -50 32.5 -76Q19 -102 19 -118Q19 -135 31.5 -144.5Q44 -154 64 -154Q73 -154 81 -153.5Q89 -153 95 -152L86 -173Q73 -181 56.5 -185Q40 -189 23 -189Z" glyph-name="iogonek" horiz-adv-x="290" unicode="&#303;" /><glyph d="M33 20Q33 30 37.5 45Q42 60 53 87L115 241Q164 363 172.5 388.5Q181 414 181 423Q181 430 178 433.5Q175 437 170 437Q155 437 128.5 420Q102 403 79 378L62 392Q93 432 132.5 460Q172 488 201 488Q219 488 231 475Q243 462 243 441Q243 419 232.5 382.5Q222 346 180 241L119 89Q113 75 110.5 66Q108 57 108 52Q108 46 110.5 42.5Q113 39 118 39Q132 39 168.5 70Q205 101 227 133L246 126Q216 75 161.5 30Q107 -15 65 -15Q51 -15 42 -5.5Q33 4 33 20ZM169 600Q154 600 144.5 591Q135 582 126 556L106 560Q119 608 140.5 631Q162 654 196 654Q207 654 222 650.5Q237 647 270 637Q300 627 313.5 624Q327 621 336 621Q351 621 360.5 630Q370 639 379 665L399 661Q386 613 364.5 590Q343 567 309 567Q298 567 283 570.5Q268 574 235 584Q205 594 191.5 597Q178 600 169 600Z" glyph-name="itilde" horiz-adv-x="291" unicode="&#297;" /><glyph d="M304 680Q304 661 290 647Q276 633 257 633Q238 633 224 647Q210 661 210 680Q210 699 224 713Q238 727 257 727Q276 727 290 713Q304 699 304 680ZM-90 -237Q-58 -237 -23 -172.5Q12 -108 56 32L120 235Q148 322 160 366Q172 410 172 423Q172 430 169 433.5Q166 437 161 437Q147 437 120 419Q93 401 69 375L52 392Q83 432 122.5 460Q162 488 191 488Q210 488 222 475Q234 462 234 441Q234 417 217.5 351.5Q201 286 169 183L152 129Q84 -88 19.5 -182Q-45 -276 -117 -276Q-145 -276 -161.5 -265Q-178 -254 -178 -237Q-178 -223 -168 -211Q-158 -199 -144 -199Q-141 -199 -138 -201.5Q-135 -204 -130 -212Q-120 -227 -111 -232Q-102 -237 -90 -237Z" glyph-name="j" horiz-adv-x="261" unicode="j" /><glyph d="M305 660Q305 641 291 627Q277 613 258 613Q239 613 225 627Q211 641 211 660Q211 679 225 693Q239 707 258 707Q277 707 291 693Q305 679 305 660ZM192 488Q211 488 223 475Q235 462 235 441Q235 410 221.5 356Q208 302 175 200L135 77Q101 -30 68.5 -99.5Q36 -169 2 -208Q-25 -239 -58 -256Q-91 -273 -126 -273Q-162 -273 -186.5 -253Q-211 -233 -211 -204Q-211 -184 -197.5 -170Q-184 -156 -166 -156Q-148 -156 -136.5 -168.5Q-125 -181 -125 -197Q-125 -213 -134.5 -225.5Q-144 -238 -159 -241V-243Q-155 -246 -145.5 -248.5Q-136 -251 -127 -251Q-108 -251 -90 -241.5Q-72 -232 -57 -215Q-32 -186 -5.5 -127Q21 -68 54 32L121 235Q144 304 158.5 356Q173 408 173 423Q173 430 170 433.5Q167 437 162 437Q148 437 121 419Q94 401 70 375L53 392Q84 432 123.5 460Q163 488 192 488Z" glyph-name="j.alt" horiz-adv-x="262" /><glyph d="M-90 -237Q-58 -237 -23 -172.5Q12 -108 56 32L120 235Q148 322 160 366Q172 410 172 423Q172 430 169 433.5Q166 437 161 437Q147 437 120 419Q93 401 69 375L52 392Q83 432 122.5 460Q162 488 191 488Q210 488 222 475Q234 462 234 441Q234 417 217.5 351.5Q201 286 169 183L152 129Q84 -88 19.5 -182Q-45 -276 -117 -276Q-145 -276 -161.5 -265Q-178 -254 -178 -237Q-178 -223 -168 -211Q-158 -199 -144 -199Q-141 -199 -138 -201.5Q-135 -204 -130 -212Q-120 -227 -111 -232Q-102 -237 -90 -237ZM132 549H103L235 696H281L333 549H304L241 632Z" glyph-name="jcircumflex" horiz-adv-x="261" unicode="&#309;" /><glyph d="M312 -15Q292 -15 281 -2.5Q270 10 270 32Q270 43 271.5 60.5Q273 78 277 119Q281 160 282.5 177Q284 194 284 204Q284 234 275.5 258Q267 282 250 300Q194 230 147.5 152.5Q101 75 68 0L0 -9L224 678L145 688L150 705Q191 712 242 724.5Q293 737 313 745H315L123 166H129Q214 312 299 400Q384 488 437 488Q461 488 476.5 475Q492 462 492 441Q492 424 479.5 411Q467 398 450 398Q435 398 423 409.5Q411 421 405 441L404 444L402 445Q385 443 347 407.5Q309 372 265 318Q307 295 326.5 250.5Q346 206 342 140L338 50Q337 41 339 37Q341 33 346 33Q364 33 391 64.5Q418 96 436 134L455 127Q433 69 392 27Q351 -15 312 -15Z" glyph-name="k" horiz-adv-x="486" unicode="k" /><glyph d="M312 -15Q292 -15 281 -2.5Q270 10 270 32Q270 43 271.5 60.5Q273 78 277 119Q281 160 282.5 177Q284 194 284 204Q284 234 275.5 258Q267 282 250 300Q194 230 147.5 152.5Q101 75 68 0L0 -9L224 678L145 688L150 705Q191 712 242 724.5Q293 737 313 745H315L123 166H129Q214 312 299 400Q384 488 437 488Q461 488 476.5 475Q492 462 492 441Q492 424 479.5 411Q467 398 450 398Q435 398 423 409.5Q411 421 405 441L404 444L402 445Q385 443 347 407.5Q309 372 265 318Q307 295 326.5 250.5Q346 206 342 140L338 50Q337 41 339 37Q341 33 346 33Q364 33 391 64.5Q418 96 436 134L455 127Q433 69 392 27Q351 -15 312 -15ZM223 -110Q223 -149 187 -197.5Q151 -246 86 -297L66 -281Q106 -236 127 -196Q148 -156 148 -125Q148 -110 140 -102Q132 -94 117 -94Q111 -94 103.5 -95.5Q96 -97 89 -99L98 -79Q117 -69 135 -63Q153 -57 167 -57Q193 -57 208 -73.5Q223 -90 223 -110Z" glyph-name="kcommaaccent" horiz-adv-x="486" unicode="&#311;" /><glyph d="M320 -15Q300 -15 289 -2.5Q278 10 278 32Q278 43 279.5 60.5Q281 78 286 119Q290 160 291.5 177Q293 194 293 204Q293 234 282 258.5Q271 283 251 298Q221 260 189.5 216Q158 172 124 123L79 0L19 -10L144 426L64 436L69 453Q114 461 164.5 474Q215 487 230 495L232 494L185 332L134 170L137 169Q230 329 309 409.5Q388 490 453 490Q482 490 500.5 473Q519 456 519 429Q519 409 504.5 394.5Q490 380 470 380Q449 380 435 393.5Q421 407 421 427Q421 435 423.5 442Q426 449 431 456L430 458Q395 449 355.5 414.5Q316 380 262 312Q310 286 330 245.5Q350 205 350 140Q350 131 349.5 119.5Q349 108 348 95L346 50Q345 41 347 37Q349 33 354 33Q374 33 405.5 73Q437 113 449 146H470Q452 86 407.5 35.5Q363 -15 320 -15Z" glyph-name="kgreenlandic" horiz-adv-x="504" unicode="&#312;" /><glyph d="M317 744H319L99 83Q94 67 91.5 58.5Q89 50 89 45Q89 41 91 38.5Q93 36 97 36Q115 36 158 68.5Q201 101 226 133L246 126Q210 73 155 29Q100 -15 60 -15Q41 -15 31 -5.5Q21 4 21 21Q21 34 25.5 53.5Q30 73 68 186L231 677L142 687L147 704Q191 710 243 722.5Q295 735 317 744Z" glyph-name="l" horiz-adv-x="272" unicode="l" /><glyph d="M317 744H319L99 83Q94 67 91.5 58.5Q89 50 89 45Q89 41 91 38.5Q93 36 97 36Q115 36 158 68.5Q201 101 226 133L246 126Q210 73 155 29Q100 -15 60 -15Q41 -15 31 -5.5Q21 4 21 21Q21 34 25.5 53.5Q30 73 68 186L231 677L142 687L147 704Q191 710 243 722.5Q295 735 317 744ZM271 774H252L357 921H452Z" glyph-name="lacute" horiz-adv-x="272" unicode="&#314;" /><glyph d="M317 744H319L99 83Q94 67 91.5 58.5Q89 50 89 45Q89 41 91 38.5Q93 36 97 36Q115 36 158 68.5Q201 101 226 133L246 126Q210 73 155 29Q100 -15 60 -15Q41 -15 31 -5.5Q21 4 21 21Q21 34 25.5 53.5Q30 73 68 186L231 677L142 687L147 704Q191 710 243 722.5Q295 735 317 744ZM484 647Q484 608 448 559.5Q412 511 347 460L327 476Q367 521 388 561Q409 601 409 632Q409 647 401 655Q393 663 378 663Q372 663 364.5 661.5Q357 660 350 658L359 678Q378 688 396 694Q414 700 428 700Q454 700 469 683.5Q484 667 484 647Z" glyph-name="lcaron" horiz-adv-x="328" unicode="&#318;" /><glyph d="M317 744H319L99 83Q94 67 91.5 58.5Q89 50 89 45Q89 41 91 38.5Q93 36 97 36Q115 36 158 68.5Q201 101 226 133L246 126Q210 73 155 29Q100 -15 60 -15Q41 -15 31 -5.5Q21 4 21 21Q21 34 25.5 53.5Q30 73 68 186L231 677L142 687L147 704Q191 710 243 722.5Q295 735 317 744ZM124 -110Q124 -149 88 -197.5Q52 -246 -13 -297L-33 -281Q7 -236 28 -196Q49 -156 49 -125Q49 -110 41 -102Q33 -94 18 -94Q12 -94 4.5 -95.5Q-3 -97 -10 -99L-1 -79Q18 -69 36 -63Q54 -57 68 -57Q94 -57 109 -73.5Q124 -90 124 -110Z" glyph-name="lcommaaccent" horiz-adv-x="272" unicode="&#316;" /><glyph d="M317 744H319L99 83Q94 67 91.5 58.5Q89 50 89 45Q89 41 91 38.5Q93 36 97 36Q115 36 158 68.5Q201 101 226 133L246 126Q210 73 155 29Q100 -15 60 -15Q41 -15 31 -5.5Q21 4 21 21Q21 34 25.5 53.5Q30 73 68 186L231 677L142 687L147 704Q191 710 243 722.5Q295 735 317 744ZM376 270Q376 243 357.5 224.5Q339 206 312 206Q285 206 266.5 224.5Q248 243 248 270Q248 297 266.5 316Q285 335 312 335Q338 335 357 315.5Q376 296 376 270Z" glyph-name="ldot" horiz-adv-x="359" unicode="&#320;" /><glyph d="M436 211 425 169 80 338 92 378 533 547 521 500 134 354Z" glyph-name="less" horiz-adv-x="540" unicode="&lt;" /><glyph d="M389 110 354 74 60 359 354 644 389 608 185 388 730 391V327L185 330Z" glyph-name="less.alt" horiz-adv-x="735" unicode="&#8592;" /><glyph d="M454 211 443 169 98 338 110 378 551 547 539 500 152 354ZM395 0H1L12 41H406Z" glyph-name="lessequal" horiz-adv-x="540" unicode="&#8804;" /><glyph d="M455 247H412L464 427H113L124 468H518Z" glyph-name="logicalnot" horiz-adv-x="540" unicode="&#172;" /><glyph d="M629 -162Q611 -170 598 -170Q585 -170 567 -162Q338 -59 191.5 115.5Q45 290 45 475Q45 549 72 618Q99 687 147 737Q191 782 251.5 806Q312 830 382 830Q443 830 499.5 808Q556 786 604 744Q651 786 705.5 807Q760 828 821 828Q889 828 949 804Q1009 780 1053 734Q1101 685 1127.5 616Q1154 547 1154 473Q1154 288 1006.5 114.5Q859 -59 629 -162ZM350 25Q411 -24 481 -66.5Q551 -109 589 -124Q594 -126 598 -126Q602 -126 607 -124Q646 -108 716.5 -66Q787 -24 848 24Q901 66 943.5 110.5Q986 155 1019 203Q1063 268 1086.5 337Q1110 406 1110 474Q1110 541 1085.5 602.5Q1061 664 1016 708Q975 747 925.5 767Q876 787 818 787Q759 787 703.5 765Q648 743 600 700Q549 744 493.5 766Q438 788 379 788Q323 788 273.5 768Q224 748 184 710Q139 666 114 603.5Q89 541 89 473Q89 406 112 337Q135 268 179 205Q212 156 255 111Q298 66 350 25ZM368 522Q368 512 376 504Q384 496 394 496Q399 496 403.5 498Q408 500 411 504Q417 510 418 519Q419 528 415 538L352 697Q349 704 342 707Q335 710 328 707Q321 704 318 697Q315 690 318 683L352 597L254 575Q247 574 242.5 567.5Q238 561 240 553Q241 546 247.5 541.5Q254 537 262 539L366 562L375 540Q371 536 369.5 531.5Q368 527 368 522ZM852 515Q866 511 880.5 513Q895 515 907 522Q932 535 941.5 561.5Q951 588 939 611L906 678Q903 685 895.5 687Q888 689 881 686L746 612Q739 608 737 601Q735 594 739 587Q743 580 750 578Q757 576 764 580L791 595L817 545Q822 535 831.5 527Q841 519 852 515ZM421 655Q421 641 430.5 631.5Q440 622 453 622Q466 622 475.5 631.5Q485 641 485 654Q485 668 476 677.5Q467 687 453 687Q439 687 430 677.5Q421 668 421 655ZM693 521Q672 514 647.5 510Q623 506 598 506Q574 506 550.5 509.5Q527 513 506 520Q530 561 553 593.5Q576 626 600 650Q622 628 644.5 596Q667 564 693 521ZM890 553Q878 547 866.5 549Q855 551 849 561L823 613L882 645L907 595Q913 584 907.5 572Q902 560 890 553ZM899 301Q906 304 909 311Q912 318 909 324L869 414L902 429L917 396Q920 389 927 386.5Q934 384 941 387Q948 390 950.5 397Q953 404 950 411L935 445L966 460L998 388Q1001 381 1008 378.5Q1015 376 1022 379Q1029 382 1031.5 389Q1034 396 1031 403L991 492Q990 496 987.5 498.5Q985 501 981 502Q978 503 974 502.5Q970 502 967 501L838 439Q831 435 828.5 428.5Q826 422 829 415L876 310Q879 303 885.5 300.5Q892 298 899 301ZM470 90Q472 85 476.5 82Q481 79 487 79H728Q736 79 741.5 84Q747 89 747 97Q747 105 742 110Q737 115 729 115H550Q645 165 684 210Q723 255 723 304Q723 356 689 392Q655 428 600 428Q544 428 506.5 395Q469 362 469 312Q469 275 494 247Q519 219 556 219Q589 219 611.5 239Q634 259 634 292Q634 313 623.5 324.5Q613 336 598 336Q584 336 574.5 326.5Q565 317 565 304Q565 296 569 289Q573 282 580 277Q584 273 577 264Q570 255 554 255Q534 255 520.5 272.5Q507 290 507 313Q507 349 532 371Q557 393 598 393Q636 393 659.5 368Q683 343 683 305Q683 270 657.5 237Q632 204 574 166Q558 156 539.5 145.5Q521 135 493 121Q482 115 478.5 113Q475 111 474 110Q470 105 469 100Q468 95 470 90ZM186 350Q194 348 200.5 351.5Q207 355 209 362L226 412L340 372Q347 369 354 372Q361 375 363 383Q366 390 362.5 397Q359 404 352 406L237 447L252 494Q254 502 250.5 508.5Q247 515 240 517Q233 519 226 515.5Q219 512 217 505L174 373Q172 366 175.5 359Q179 352 186 350ZM825 53Q773 11 712.5 -26.5Q652 -64 598 -90Q547 -66 486 -27Q425 12 372 54Q321 95 280 138Q239 181 209 226Q169 284 147.5 348Q126 412 126 474Q126 535 148 590Q170 645 210 684Q245 718 288.5 735Q332 752 382 752Q432 752 480.5 732.5Q529 713 574 675Q547 646 522 612.5Q497 579 475 540Q437 474 405.5 392Q374 310 352 221L302 231Q295 233 288.5 229Q282 225 281 218Q279 211 283.5 205Q288 199 295 198L430 169Q437 168 442.5 171.5Q448 175 450 182Q451 189 447.5 195Q444 201 437 203L389 213Q408 289 433.5 358.5Q459 428 489 487Q515 478 542.5 473Q570 468 598 468Q627 468 655.5 473Q684 478 710 488Q740 428 765.5 356Q791 284 808 212L760 202Q753 201 749 195Q745 189 746 182Q747 175 753.5 170.5Q760 166 767 168L902 196Q909 198 912.5 203.5Q916 209 915 216Q914 223 908 227.5Q902 232 895 230L846 220Q846 221 845.5 222Q845 223 845 223Q822 314 791 395.5Q760 477 722 543Q700 582 676.5 615Q653 648 627 674Q671 712 719.5 731.5Q768 751 818 751Q869 751 912.5 733.5Q956 716 990 682Q1029 643 1051 588.5Q1073 534 1073 473Q1073 411 1051.5 348Q1030 285 989 223Q958 179 917 136.5Q876 94 825 53ZM566 3Q566 -11 575.5 -20.5Q585 -30 598 -30Q611 -30 620.5 -20.5Q630 -11 630 2Q630 16 621 25.5Q612 35 598 35Q584 35 575 25.5Q566 16 566 3Z" glyph-name="logo" horiz-adv-x="1199" /><glyph d="M408 724Q368 724 334 671.5Q300 619 265 503L151 129Q88 -80 22 -178Q-44 -276 -118 -276Q-146 -276 -162.5 -265Q-179 -254 -179 -237Q-179 -223 -169 -211Q-159 -199 -145 -199Q-142 -199 -139 -201.5Q-136 -204 -131 -212Q-121 -227 -112 -232Q-103 -237 -91 -237Q-59 -237 -25.5 -173.5Q8 -110 52 32L173 427H77L85 453H181L193 487Q241 622 308.5 695Q376 768 452 769Q485 769 505 755Q525 741 525 722Q525 704 513.5 693Q502 682 486 682Q482 682 477.5 684.5Q473 687 465 696Q449 713 436.5 718.5Q424 724 408 724Z" glyph-name="longs" horiz-adv-x="284" unicode="&#383;" /><glyph d="M852 350 443 -66 35 350 443 767Z" glyph-name="lozenge" horiz-adv-x="823" unicode="&#9674;" /><glyph d="M66 -15Q47 -15 37 -5.5Q27 4 27 21Q27 34 31.5 53.5Q36 73 74 186L99 262L31 228L40 263L111 299L237 677L148 687L153 704Q197 710 249 722.5Q301 735 323 744H325L190 338L301 393L291 358L178 301L105 83Q100 67 97.5 58.5Q95 50 95 45Q95 41 97 38.5Q99 36 103 36Q121 36 164 68.5Q207 101 232 133L252 126Q216 73 161 29Q106 -15 66 -15Z" glyph-name="lslash" horiz-adv-x="280" unicode="&#322;" /><glyph d="M101 0 35 -10 108 201Q141 298 156.5 351Q172 404 172 423Q172 430 169 433.5Q166 437 161 437Q146 437 119.5 420Q93 403 70 378L53 392Q83 432 123.5 460Q164 488 194 488Q211 488 222.5 475Q234 462 234 441Q234 414 220 361Q206 308 183 245H189Q262 367 323 427.5Q384 488 435 488Q460 488 474.5 470.5Q489 453 489 423Q489 403 474 355.5Q459 308 433 245H439Q512 367 573 427.5Q634 488 685 488Q711 488 727 470.5Q743 453 743 423Q743 409 733 374Q723 339 690 247L633 89Q627 72 625 64.5Q623 57 623 52Q623 46 625.5 42.5Q628 39 633 39Q647 39 683.5 70Q720 101 742 133L761 126Q731 75 676.5 30Q622 -15 580 -15Q566 -15 557 -5.5Q548 4 548 20Q548 30 552 45Q556 60 565 85L623 242Q651 318 664 360Q677 402 677 414Q677 424 672.5 429.5Q668 435 659 435Q631 435 578 381.5Q525 328 472 244Q437 189 406.5 127.5Q376 66 351 0L285 -10L375 242Q401 316 414 358.5Q427 401 427 414Q427 424 422.5 429.5Q418 435 409 435Q381 435 328 381.5Q275 328 222 244Q187 189 156.5 127.5Q126 66 101 0Z" glyph-name="m" horiz-adv-x="798" unicode="m" /><glyph d="M441 595H170L185 642H456Z" glyph-name="macron" horiz-adv-x="375" unicode="&#175;" /><glyph d="M492 338H98L110 378H504Z" glyph-name="minus" horiz-adv-x="540" unicode="&#8722;" /><glyph d="M137 -15Q121 -15 109 -7Q97 1 91 15L33 -176H-9L194 384Q199 397 201 406Q203 415 203 421Q203 428 200 431.5Q197 435 192 435Q177 435 150.5 418Q124 401 101 376L84 390Q114 430 154.5 458Q195 486 225 486Q244 486 255.5 472Q267 458 267 435Q267 423 258 391Q249 359 232 312L203 231Q173 146 160 103.5Q147 61 147 49Q147 39 151.5 33.5Q156 28 165 28Q197 28 253.5 80Q310 132 364 219Q398 272 429 335.5Q460 399 488 473L551 483L425 95Q420 79 417 67.5Q414 56 414 49Q414 43 416 40.5Q418 38 422 38Q437 38 471 70.5Q505 103 526 134L545 127Q519 74 473 30Q427 -14 389 -14Q370 -14 359.5 -1.5Q349 11 349 33Q349 42 351.5 54.5Q354 67 362 91L406 228H400Q332 114 263 49.5Q194 -15 137 -15Z" glyph-name="mu" horiz-adv-x="618" unicode="&#181;" /><glyph d="M452 174 418 154 299 331 83 179 61 211 278 363 156 547 190 565 310 384 527 534 549 502 331 352Z" glyph-name="multiply" horiz-adv-x="540" unicode="&#215;" /><glyph d="M340 -15Q326 -15 317 -5.5Q308 4 308 20Q308 30 312 45Q316 60 325 85L383 242Q411 318 424 360Q437 402 437 414Q437 424 432.5 429.5Q428 435 419 435Q387 435 332.5 383Q278 331 224 248Q188 193 157 130Q126 67 101 0L35 -10L108 201Q141 298 156.5 351Q172 404 172 423Q172 430 169 433.5Q166 437 161 437Q146 437 119.5 420Q93 403 70 378L53 392Q83 432 123.5 460Q164 488 194 488Q211 488 222.5 475Q234 462 234 441Q234 414 220 361Q206 308 183 245H189Q259 362 325.5 425Q392 488 445 488Q471 488 487 470.5Q503 453 503 423Q503 409 493 374Q483 339 450 247L393 89Q387 72 385 64.5Q383 57 383 52Q383 46 385.5 42.5Q388 39 393 39Q407 39 443.5 70Q480 101 502 133L521 126Q491 75 436.5 30Q382 -15 340 -15Z" glyph-name="n" horiz-adv-x="559" unicode="n" /><glyph d="M340 -15Q326 -15 317 -5.5Q308 4 308 20Q308 30 312 45Q316 60 325 85L383 242Q411 318 424 360Q437 402 437 414Q437 424 432.5 429.5Q428 435 419 435Q387 435 332.5 383Q278 331 224 248Q188 193 157 130Q126 67 101 0L35 -10L108 201Q141 298 156.5 351Q172 404 172 423Q172 430 169 433.5Q166 437 161 437Q146 437 119.5 420Q93 403 70 378L53 392Q83 432 123.5 460Q164 488 194 488Q211 488 222.5 475Q234 462 234 441Q234 414 220 361Q206 308 183 245H189Q259 362 325.5 425Q392 488 445 488Q471 488 487 470.5Q503 453 503 423Q503 409 493 374Q483 339 450 247L393 89Q387 72 385 64.5Q383 57 383 52Q383 46 385.5 42.5Q388 39 393 39Q407 39 443.5 70Q480 101 502 133L521 126Q491 75 436.5 30Q382 -15 340 -15ZM348 559H329L434 706H529Z" glyph-name="nacute" horiz-adv-x="559" unicode="&#324;" /><glyph d="M460 -15Q446 -15 437 -5.5Q428 4 428 20Q428 30 432 45Q436 60 445 85L503 242Q531 318 544 360Q557 402 557 414Q557 424 552.5 429.5Q548 435 539 435Q507 435 452.5 383Q398 331 344 248Q308 193 277 130Q246 67 221 0L155 -10L228 201Q261 298 276.5 351Q292 404 292 423Q292 430 289 433.5Q286 437 281 437Q266 437 239.5 420Q213 403 190 378L173 392Q203 432 243.5 460Q284 488 314 488Q331 488 342.5 475Q354 462 354 441Q354 414 340 361Q326 308 303 245H309Q379 362 445.5 425Q512 488 565 488Q591 488 607 470.5Q623 453 623 423Q623 409 613 374Q603 339 570 247L513 89Q507 72 505 64.5Q503 57 503 52Q503 46 505.5 42.5Q508 39 513 39Q527 39 563.5 70Q600 101 622 133L641 126Q611 75 556.5 30Q502 -15 460 -15ZM277 647Q277 608 241 559.5Q205 511 140 460L120 476Q160 521 181 561Q202 601 202 632Q202 647 194 655Q186 663 171 663Q165 663 157.5 661.5Q150 660 143 658L152 678Q171 688 189 694Q207 700 221 700Q247 700 262 683.5Q277 667 277 647Z" glyph-name="napostrophe" horiz-adv-x="679" unicode="&#329;" /><glyph d="M340 -15Q326 -15 317 -5.5Q308 4 308 20Q308 30 312 45Q316 60 325 85L383 242Q411 318 424 360Q437 402 437 414Q437 424 432.5 429.5Q428 435 419 435Q387 435 332.5 383Q278 331 224 248Q188 193 157 130Q126 67 101 0L35 -10L108 201Q141 298 156.5 351Q172 404 172 423Q172 430 169 433.5Q166 437 161 437Q146 437 119.5 420Q93 403 70 378L53 392Q83 432 123.5 460Q164 488 194 488Q211 488 222.5 475Q234 462 234 441Q234 414 220 361Q206 308 183 245H189Q259 362 325.5 425Q392 488 445 488Q471 488 487 470.5Q503 453 503 423Q503 409 493 374Q483 339 450 247L393 89Q387 72 385 64.5Q383 57 383 52Q383 46 385.5 42.5Q388 39 393 39Q407 39 443.5 70Q480 101 502 133L521 126Q491 75 436.5 30Q382 -15 340 -15ZM318 559 266 706H295L358 623L467 706H496L364 559Z" glyph-name="ncaron" horiz-adv-x="559" unicode="&#328;" /><glyph d="M340 -15Q326 -15 317 -5.5Q308 4 308 20Q308 30 312 45Q316 60 325 85L383 242Q411 318 424 360Q437 402 437 414Q437 424 432.5 429.5Q428 435 419 435Q387 435 332.5 383Q278 331 224 248Q188 193 157 130Q126 67 101 0L35 -10L108 201Q141 298 156.5 351Q172 404 172 423Q172 430 169 433.5Q166 437 161 437Q146 437 119.5 420Q93 403 70 378L53 392Q83 432 123.5 460Q164 488 194 488Q211 488 222.5 475Q234 462 234 441Q234 414 220 361Q206 308 183 245H189Q259 362 325.5 425Q392 488 445 488Q471 488 487 470.5Q503 453 503 423Q503 409 493 374Q483 339 450 247L393 89Q387 72 385 64.5Q383 57 383 52Q383 46 385.5 42.5Q388 39 393 39Q407 39 443.5 70Q480 101 502 133L521 126Q491 75 436.5 30Q382 -15 340 -15ZM264 -100Q264 -139 228 -187.5Q192 -236 127 -287L107 -271Q147 -226 168 -186Q189 -146 189 -115Q189 -100 181 -92Q173 -84 158 -84Q152 -84 144.5 -85.5Q137 -87 130 -89L139 -69Q158 -59 176 -53Q194 -47 208 -47Q234 -47 249 -63.5Q264 -80 264 -100Z" glyph-name="ncommaaccent" horiz-adv-x="559" unicode="&#326;" /><glyph d="M553 508Q545 355 398.5 204Q252 53 35 -32L4 -18Q134 45 239.5 129Q345 213 406 303L402 299Q376 287 351 281.5Q326 276 303 276Q222 276 170.5 330.5Q119 385 123 470Q125 513 146.5 559.5Q168 606 203 642Q239 678 283 696.5Q327 715 377 715Q458 715 508 657Q558 599 553 508ZM193 481Q189 408 229.5 363Q270 318 341 318Q364 318 384 320.5Q404 323 422 328Q450 375 465 420Q480 465 482 509Q486 584 452 632Q418 680 361 680Q292 680 244.5 621.5Q197 563 193 481Z" glyph-name="nine" horiz-adv-x="541" unicode="9" /><glyph d="M350 305Q345 213 252.5 122.5Q160 32 24 -19L4 -11Q86 28 152.5 78Q219 128 257 181L255 179Q240 173 224.5 169.5Q209 166 193 166Q141 166 108.5 198.5Q76 231 79 282Q82 338 128 383.5Q174 429 239 429Q290 429 321.5 394Q353 359 350 305ZM123 289Q121 245 146.5 218Q172 191 217 191Q232 191 244.5 192.5Q257 194 268 197Q285 223 294.5 250Q304 277 305 305Q308 350 286.5 379Q265 408 229 408Q186 408 156.5 373.5Q127 339 123 289Z" glyph-name="nine.dnom" horiz-adv-x="400" /><glyph d="M432 591Q427 499 334.5 408.5Q242 318 106 267L86 275Q168 314 234.5 364Q301 414 339 467L337 465Q322 459 306.5 455.5Q291 452 275 452Q223 452 190.5 484.5Q158 517 161 568Q164 624 210 669.5Q256 715 321 715Q372 715 403.5 680Q435 645 432 591ZM205 575Q203 531 228.5 504Q254 477 299 477Q314 477 326.5 478.5Q339 480 350 483Q367 509 376.5 536Q386 563 387 591Q390 636 368.5 665Q347 694 311 694Q268 694 238.5 659.5Q209 625 205 575Z" glyph-name="nine.numr" horiz-adv-x="400" /><glyph d="M465 334Q458 194 322.5 55Q187 -84 -12 -162L-40 -150Q79 -92 175.5 -15Q272 62 329 145L326 142Q303 132 280 126.5Q257 121 235 121Q160 121 112.5 171Q65 221 69 299Q71 339 91 382Q111 425 143 457Q176 491 216.5 508Q257 525 303 525Q378 525 423.5 471.5Q469 418 465 334ZM134 310Q130 243 167 201.5Q204 160 270 160Q293 160 310.5 162Q328 164 344 168Q369 210 383 252Q397 294 399 335Q403 404 372 448.5Q341 493 288 493Q225 493 181 439Q137 385 134 310Z" glyph-name="nine.pnum" horiz-adv-x="497" /><glyph d="M583 508Q575 355 428.5 204Q282 53 65 -32L34 -18Q164 45 269.5 129Q375 213 436 303L432 299Q406 287 381 281.5Q356 276 333 276Q252 276 200.5 330.5Q149 385 153 470Q155 513 176.5 559.5Q198 606 233 642Q269 678 313 696.5Q357 715 407 715Q488 715 538 657Q588 599 583 508ZM223 481Q219 408 259.5 363Q300 318 371 318Q394 318 414 320.5Q434 323 452 328Q480 375 495 420Q510 465 512 509Q516 584 482 632Q448 680 391 680Q322 680 274.5 621.5Q227 563 223 481Z" glyph-name="nine.tnum" horiz-adv-x="600" /><glyph d="M321 205Q316 113 223.5 22.5Q131 -68 -5 -119L-25 -111Q57 -72 123.5 -22Q190 28 228 81L226 79Q211 73 195.5 69.5Q180 66 164 66Q112 66 79.5 98.5Q47 131 50 182Q53 238 99 283.5Q145 329 210 329Q261 329 292.5 294Q324 259 321 205ZM94 189Q92 145 117.5 118Q143 91 188 91Q203 91 215.5 92.5Q228 94 239 97Q256 123 265.5 150Q275 177 276 205Q279 250 257.5 279Q236 308 200 308Q157 308 127.5 273.5Q98 239 94 189Z" glyph-name="nineinferior" horiz-adv-x="400" unicode="&#8329;" /><glyph d="M460 691Q455 599 362.5 508.5Q270 418 134 367L114 375Q196 414 262.5 464Q329 514 367 567L365 565Q350 559 334.5 555.5Q319 552 303 552Q251 552 218.5 584.5Q186 617 189 668Q192 724 238 769.5Q284 815 349 815Q400 815 431.5 780Q463 745 460 691ZM233 675Q231 631 256.5 604Q282 577 327 577Q342 577 354.5 578.5Q367 580 378 583Q395 609 404.5 636Q414 663 415 691Q418 736 396.5 765Q375 794 339 794Q296 794 266.5 759.5Q237 725 233 675Z" glyph-name="ninesuperior" horiz-adv-x="400" unicode="&#8313;" /><glyph d="M218 247 154 161 124 178 174 247H73L84 288H205L306 427H125L136 468H335L400 556L430 539L378 468H529L518 427H348L247 288H477L466 247Z" glyph-name="notequal" horiz-adv-x="540" unicode="&#8800;" /><glyph d="M340 -15Q326 -15 317 -5.5Q308 4 308 20Q308 30 312 45Q316 60 325 85L383 242Q411 318 424 360Q437 402 437 414Q437 424 432.5 429.5Q428 435 419 435Q387 435 332.5 383Q278 331 224 248Q188 193 157 130Q126 67 101 0L35 -10L108 201Q141 298 156.5 351Q172 404 172 423Q172 430 169 433.5Q166 437 161 437Q146 437 119.5 420Q93 403 70 378L53 392Q83 432 123.5 460Q164 488 194 488Q211 488 222.5 475Q234 462 234 441Q234 414 220 361Q206 308 183 245H189Q259 362 325.5 425Q392 488 445 488Q471 488 487 470.5Q503 453 503 423Q503 409 493 374Q483 339 450 247L393 89Q387 72 385 64.5Q383 57 383 52Q383 46 385.5 42.5Q388 39 393 39Q407 39 443.5 70Q480 101 502 133L521 126Q491 75 436.5 30Q382 -15 340 -15ZM274 610Q259 610 249.5 601Q240 592 231 566L211 570Q224 618 245.5 641Q267 664 301 664Q312 664 327 660.5Q342 657 375 647Q405 637 418.5 634Q432 631 441 631Q456 631 465.5 640Q475 649 484 675L504 671Q491 623 469.5 600Q448 577 414 577Q403 577 388 580.5Q373 584 340 594Q310 604 296.5 607Q283 610 274 610Z" glyph-name="ntilde" horiz-adv-x="559" unicode="&#241;" /><glyph d="M289 447 238 268H426L477 447ZM161 0H118L183 227H56L68 268H195L246 447H119L131 488H258L319 700H362L301 488H489L550 700H594L533 488H659L647 447H521L470 268H596L584 227H458L393 0H349L414 227H226Z" glyph-name="numbersign" horiz-adv-x="645" unicode="#" /><glyph d="M110 367Q149 423 200 455.5Q251 488 301 488Q362 488 400 443.5Q438 399 438 327Q438 269 419.5 212Q401 155 367 106Q328 50 277 17.5Q226 -15 176 -15Q115 -15 77 30Q39 75 39 146Q39 204 57.5 261Q76 318 110 367ZM103 125Q103 74 123.5 45.5Q144 17 180 17Q220 17 257.5 51.5Q295 86 324 150Q347 198 360.5 252.5Q374 307 374 348Q374 400 353.5 428Q333 456 297 456Q257 456 220 421Q183 386 153 323Q130 274 116.5 220Q103 166 103 125Z" glyph-name="o" horiz-adv-x="477" unicode="o" /><glyph d="M110 367Q149 423 200 455.5Q251 488 301 488Q362 488 400 443.5Q438 399 438 327Q438 269 419.5 212Q401 155 367 106Q328 50 277 17.5Q226 -15 176 -15Q115 -15 77 30Q39 75 39 146Q39 204 57.5 261Q76 318 110 367ZM103 125Q103 74 123.5 45.5Q144 17 180 17Q220 17 257.5 51.5Q295 86 324 150Q347 198 360.5 252.5Q374 307 374 348Q374 400 353.5 428Q333 456 297 456Q257 456 220 421Q183 386 153 323Q130 274 116.5 220Q103 166 103 125ZM328 549H309L414 696H509Z" glyph-name="oacute" horiz-adv-x="477" unicode="&#243;" /><glyph d="M110 367Q149 423 200 455.5Q251 488 301 488Q362 488 400 443.5Q438 399 438 327Q438 269 419.5 212Q401 155 367 106Q328 50 277 17.5Q226 -15 176 -15Q115 -15 77 30Q39 75 39 146Q39 204 57.5 261Q76 318 110 367ZM103 125Q103 74 123.5 45.5Q144 17 180 17Q220 17 257.5 51.5Q295 86 324 150Q347 198 360.5 252.5Q374 307 374 348Q374 400 353.5 428Q333 456 297 456Q257 456 220 421Q183 386 153 323Q130 274 116.5 220Q103 166 103 125ZM339 548Q279 548 250.5 583.5Q222 619 235 665L240 682H274L272 676Q265 646 284.5 626.5Q304 607 345 607Q386 607 414.5 626.5Q443 646 450 676L452 682H486L480 658Q467 606 430.5 577Q394 548 339 548Z" glyph-name="obreve" horiz-adv-x="477" unicode="&#335;" /><glyph d="M110 367Q149 423 200 455.5Q251 488 301 488Q362 488 400 443.5Q438 399 438 327Q438 269 419.5 212Q401 155 367 106Q328 50 277 17.5Q226 -15 176 -15Q115 -15 77 30Q39 75 39 146Q39 204 57.5 261Q76 318 110 367ZM103 125Q103 74 123.5 45.5Q144 17 180 17Q220 17 257.5 51.5Q295 86 324 150Q347 198 360.5 252.5Q374 307 374 348Q374 400 353.5 428Q333 456 297 456Q257 456 220 421Q183 386 153 323Q130 274 116.5 220Q103 166 103 125ZM235 549H206L338 696H384L436 549H407L344 632Z" glyph-name="ocircumflex" horiz-adv-x="477" unicode="&#244;" /><glyph d="M110 367Q149 423 200 455.5Q251 488 301 488Q362 488 400 443.5Q438 399 438 327Q438 269 419.5 212Q401 155 367 106Q328 50 277 17.5Q226 -15 176 -15Q115 -15 77 30Q39 75 39 146Q39 204 57.5 261Q76 318 110 367ZM103 125Q103 74 123.5 45.5Q144 17 180 17Q220 17 257.5 51.5Q295 86 324 150Q347 198 360.5 252.5Q374 307 374 348Q374 400 353.5 428Q333 456 297 456Q257 456 220 421Q183 386 153 323Q130 274 116.5 220Q103 166 103 125ZM460 622Q460 600 445 585Q430 570 408 570Q386 570 371 585Q356 600 356 622Q356 644 371 659Q386 674 408 674Q430 674 445 659Q460 644 460 622ZM304 622Q304 600 289 585Q274 570 252 570Q230 570 215 585Q200 600 200 622Q200 644 215 659Q230 674 252 674Q274 674 289 659Q304 644 304 622Z" glyph-name="odieresis" horiz-adv-x="477" unicode="&#246;" /><glyph d="M439 278Q443 277 448 277Q453 277 462 277Q501 277 535 284.5Q569 292 597 306Q635 325 657.5 354.5Q680 384 680 410Q680 432 665 445.5Q650 459 626 459Q574 459 522.5 408.5Q471 358 439 278ZM102 125Q103 73 123 45Q143 17 179 17Q219 17 256 52Q293 87 323 151Q346 200 359.5 254.5Q373 309 373 350Q373 402 352.5 430Q332 458 296 458Q256 458 219 423Q182 388 152 323Q130 275 116 220.5Q102 166 102 125ZM658 133 677 124Q641 59 589.5 22Q538 -15 479 -15Q429 -15 395 13.5Q361 42 350 91Q313 41 267 13Q221 -15 175 -15Q114 -15 76.5 29.5Q39 74 38 146Q38 204 56.5 261Q75 318 109 366Q148 423 199 455.5Q250 488 300 488Q353 488 386 454Q419 420 425 358Q469 420 524 454Q579 488 634 488Q680 488 705 466.5Q730 445 730 408Q730 377 705 344Q680 311 637 287Q604 269 565 259Q526 249 484 249Q469 249 456 250Q443 251 430 253Q421 227 416.5 201.5Q412 176 412 153Q412 98 437 67.5Q462 37 508 37Q545 37 585.5 64Q626 91 658 133Z" glyph-name="oe" horiz-adv-x="744" unicode="&#339;" /><glyph d="M114 -154Q123 -154 131 -153.5Q139 -153 145 -152L136 -173Q123 -181 106.5 -185Q90 -189 73 -189Q41 -189 20.5 -172Q0 -155 0 -126Q0 -95 35.5 -57.5Q71 -20 128 11L138 6Q99 -45 84 -73Q69 -101 69 -118Q69 -135 81.5 -144.5Q94 -154 114 -154Z" glyph-name="ogonek" horiz-adv-x="242" unicode="&#731;" /><glyph d="M110 367Q149 423 200 455.5Q251 488 301 488Q362 488 400 443.5Q438 399 438 327Q438 269 419.5 212Q401 155 367 106Q328 50 277 17.5Q226 -15 176 -15Q115 -15 77 30Q39 75 39 146Q39 204 57.5 261Q76 318 110 367ZM103 125Q103 74 123.5 45.5Q144 17 180 17Q220 17 257.5 51.5Q295 86 324 150Q347 198 360.5 252.5Q374 307 374 348Q374 400 353.5 428Q333 456 297 456Q257 456 220 421Q183 386 153 323Q130 274 116.5 220Q103 166 103 125ZM332 549H313L182 696H265Z" glyph-name="ograve" horiz-adv-x="477" unicode="&#242;" /><glyph d="M110 367Q149 423 200 455.5Q251 488 301 488Q362 488 400 443.5Q438 399 438 327Q438 269 419.5 212Q401 155 367 106Q328 50 277 17.5Q226 -15 176 -15Q115 -15 77 30Q39 75 39 146Q39 204 57.5 261Q76 318 110 367ZM103 125Q103 74 123.5 45.5Q144 17 180 17Q220 17 257.5 51.5Q295 86 324 150Q347 198 360.5 252.5Q374 307 374 348Q374 400 353.5 428Q333 456 297 456Q257 456 220 421Q183 386 153 323Q130 274 116.5 220Q103 166 103 125ZM402 549H383L488 696H583ZM256 549H237L342 696H437Z" glyph-name="ohungarumlaut" horiz-adv-x="477" unicode="&#337;" /><glyph d="M110 367Q149 423 200 455.5Q251 488 301 488Q362 488 400 443.5Q438 399 438 327Q438 269 419.5 212Q401 155 367 106Q328 50 277 17.5Q226 -15 176 -15Q115 -15 77 30Q39 75 39 146Q39 204 57.5 261Q76 318 110 367ZM103 125Q103 74 123.5 45.5Q144 17 180 17Q220 17 257.5 51.5Q295 86 324 150Q347 198 360.5 252.5Q374 307 374 348Q374 400 353.5 428Q333 456 297 456Q257 456 220 421Q183 386 153 323Q130 274 116.5 220Q103 166 103 125ZM464 575H193L208 622H479Z" glyph-name="omacron" horiz-adv-x="477" unicode="&#333;" /><glyph d="M313 0H-1L9 32L99 37Q116 38 127.5 48Q139 58 145 78L306 640L151 598L161 631L368 716H395L212 78Q206 59 212 48.5Q218 38 235 37L322 32Z" glyph-name="one" horiz-adv-x="397" unicode="1" /><glyph d="M233 0H48L55 19L105 22Q116 23 123 29Q130 35 134 47L235 384L150 359L156 379L274 430H292L176 47Q173 35 176.5 29Q180 23 191 22L239 19Z" glyph-name="one.dnom" horiz-adv-x="400" /><glyph d="M315 286H130L137 305L187 308Q198 309 205 315Q212 321 216 333L317 670L232 645L238 665L356 716H374L258 333Q255 321 258.5 315Q262 309 273 308L321 305Z" glyph-name="one.numr" horiz-adv-x="400" /><glyph d="M269 0H-3L3 20L67 31Q89 35 104.5 47Q120 59 125 76L239 461L104 417L111 441L284 525H321L189 75Q184 59 192.5 47Q201 35 220 31L275 20Z" glyph-name="one.pnum" horiz-adv-x="367" /><glyph d="M414 0H100L110 32L200 37Q217 38 228.5 48Q240 58 246 78L407 640L252 598L262 631L469 716H496L313 78Q307 59 313 48.5Q319 38 336 37L423 32Z" glyph-name="one.tnum" horiz-adv-x="600" /><glyph d="M287 286H102L109 305L159 308Q170 309 177 315Q184 321 188 333L289 670L204 645L210 665L328 716H346L230 333Q227 321 230.5 315Q234 309 245 308L293 305ZM870 113Q870 61 830.5 26Q791 -9 733 -9Q680 -9 643.5 23Q607 55 607 98Q607 146 642.5 181Q678 216 735 229Q711 249 698.5 272.5Q686 296 686 320Q686 365 720.5 397Q755 429 810 429Q861 429 892.5 401Q924 373 924 333Q924 291 891.5 259.5Q859 228 811 218Q843 188 856.5 163.5Q870 139 870 113ZM886 333Q886 365 865 386.5Q844 408 811 408Q778 408 754.5 385.5Q731 363 731 332Q731 309 740.5 291.5Q750 274 785 242L802 226Q840 243 863 272.5Q886 302 886 333ZM649 100Q649 61 673 36.5Q697 12 739 12Q776 12 802 37Q828 62 828 99Q828 122 816.5 143Q805 164 777 190L746 219Q697 198 673 168Q649 138 649 100ZM200 0H162L839 700H877Z" glyph-name="oneeight" horiz-adv-x="1000" unicode="&#8539;" /><glyph d="M863 38 845 0H590L597 23L684 93Q695 102 741 138Q787 174 809 193Q856 234 875.5 263.5Q895 293 895 322Q895 357 873 379Q851 401 814 401Q785 401 758.5 385.5Q732 370 718 345V344Q731 344 740 336.5Q749 329 749 319Q749 308 742 301Q735 294 724 294Q713 294 705 302.5Q697 311 697 322Q697 359 736 394Q775 429 832 429Q876 429 907 401.5Q938 374 938 336Q938 304 920 273.5Q902 243 860 207Q850 198 819 173.5Q788 149 736 110L640 38ZM210 0H172L849 700H887ZM297 286H112L119 305L169 308Q180 309 187 315Q194 321 198 333L299 670L214 645L220 665L338 716H356L240 333Q237 321 240.5 315Q244 309 255 308L303 305Z" glyph-name="onehalf" horiz-adv-x="1000" unicode="&#189;" /></font>
</defs>
</svg>
