<?xml version="1.0" standalone="no"?><!DOCTYPE svg PUBLIC "-//W3C//DTD SVG 1.1//EN" "http://www.w3.org/Graphics/SVG/1.1/DTD/svg11.dtd" ><svg version="1.1" xmlns="http://www.w3.org/2000/svg"><defs><font horiz-adv-x="0" id="font"><font-face ascent="750" bbox="-210 -314 1157 955" cap-height="700" descent="-250" font-family="Fresh Serif" font-stretch="normal" font-style="normal" font-weight="400" units-per-em="1000" x-height="478" /><missing-glyph d="M599 0H99V700H599ZM530 661H167L349 385ZM143 73 325 350 143 627ZM553 624 372 350 553 76ZM531 38 349 314 167 38Z" horiz-adv-x="698" /><glyph glyph-name=".null" horiz-adv-x="0" /><glyph d="M333 636H331L229 322H444ZM201 35 252 25V0H-1V25L27 33Q56 42 72 58Q88 74 100 106L318 700H327Q349 700 366 705Q383 710 394 720H396L621 106Q634 72 649.5 56.5Q665 41 693 33L722 25V0H439V25L490 34Q518 39 525 55Q532 71 522 100L456 286H217L161 112Q150 80 159 61.5Q168 43 201 35Z" glyph-name="A" horiz-adv-x="723" unicode="A" /><glyph d="M468 307V603Q468 616 466 625.5Q464 635 459 642L273 307ZM190 35 239 25V0H-19V25L8 34Q38 44 57.5 59.5Q77 75 93 101L427 664Q426 664 424.5 664.5Q423 665 419 666L381 675V700H689Q752 700 807.5 702Q863 704 911 708L909 541H878L856 604Q842 640 828.5 651.5Q815 663 791 663L562 666V382L668 385Q695 386 709 396.5Q723 407 731 432L746 484H771V243H746L731 295Q723 319 709 329.5Q695 340 668 342L562 345V99Q562 66 578 50Q594 34 627 35L766 37Q816 37 841 56.5Q866 76 896 152L916 201H948L931 0H381V25L419 34Q445 40 456.5 55Q468 70 468 98V267H251L160 104Q144 76 151.5 59Q159 42 190 35Z" glyph-name="AE" horiz-adv-x="987" unicode="&#198;" /><glyph d="M333 636H331L229 322H444ZM201 35 252 25V0H-1V25L27 33Q56 42 72 58Q88 74 100 106L318 700H327Q349 700 366 705Q383 710 394 720H396L621 106Q634 72 649.5 56.5Q665 41 693 33L722 25V0H439V25L490 34Q518 39 525 55Q532 71 522 100L456 286H217L161 112Q150 80 159 61.5Q168 43 201 35ZM365 765H339L354 913H463Z" glyph-name="Aacute" horiz-adv-x="723" unicode="&#193;" /><glyph d="M333 636H331L229 322H444ZM201 35 252 25V0H-1V25L27 33Q56 42 72 58Q88 74 100 106L318 700H327Q349 700 366 705Q383 710 394 720H396L621 106Q634 72 649.5 56.5Q665 41 693 33L722 25V0H439V25L490 34Q518 39 525 55Q532 71 522 100L456 286H217L161 112Q150 80 159 61.5Q168 43 201 35ZM354 764Q295 764 261.5 797Q228 830 228 881V905H265V899Q265 869 288.5 850Q312 831 354 831Q396 831 420 850Q444 869 444 899V905H481V881Q481 829 447.5 796.5Q414 764 354 764Z" glyph-name="Abreve" horiz-adv-x="723" unicode="&#258;" /><glyph d="M333 636H331L229 322H444ZM201 35 252 25V0H-1V25L27 33Q56 42 72 58Q88 74 100 106L318 700H327Q349 700 366 705Q383 710 394 720H396L621 106Q634 72 649.5 56.5Q665 41 693 33L722 25V0H439V25L490 34Q518 39 525 55Q532 71 522 100L456 286H217L161 112Q150 80 159 61.5Q168 43 201 35ZM268 765H233L328 913H380L476 765H440L354 843Z" glyph-name="Acircumflex" horiz-adv-x="723" unicode="&#194;" /><glyph d="M333 636H331L229 322H444ZM201 35 252 25V0H-1V25L27 33Q56 42 72 58Q88 74 100 106L318 700H327Q349 700 366 705Q383 710 394 720H396L621 106Q634 72 649.5 56.5Q665 41 693 33L722 25V0H439V25L490 34Q518 39 525 55Q532 71 522 100L456 286H217L161 112Q150 80 159 61.5Q168 43 201 35ZM493 841Q493 817 476.5 800.5Q460 784 437 784Q413 784 396.5 800.5Q380 817 380 841Q380 864 396.5 880.5Q413 897 437 897Q460 897 476.5 880.5Q493 864 493 841ZM330 841Q330 817 313.5 800.5Q297 784 273 784Q249 784 232.5 800.5Q216 817 216 841Q216 864 232.5 880.5Q249 897 273 897Q296 897 313 880.5Q330 864 330 841Z" glyph-name="Adieresis" horiz-adv-x="723" unicode="&#196;" /><glyph d="M333 636H331L229 322H444ZM201 35 252 25V0H-1V25L27 33Q56 42 72 58Q88 74 100 106L318 700H327Q349 700 366 705Q383 710 394 720H396L621 106Q634 72 649.5 56.5Q665 41 693 33L722 25V0H439V25L490 34Q518 39 525 55Q532 71 522 100L456 286H217L161 112Q150 80 159 61.5Q168 43 201 35ZM369 765H343L245 913H354Z" glyph-name="Agrave" horiz-adv-x="723" unicode="&#192;" /><glyph d="M333 636H331L229 322H444ZM201 35 252 25V0H-1V25L27 33Q56 42 72 58Q88 74 100 106L318 700H327Q349 700 366 705Q383 710 394 720H396L621 106Q634 72 649.5 56.5Q665 41 693 33L722 25V0H439V25L490 34Q518 39 525 55Q532 71 522 100L456 286H217L161 112Q150 80 159 61.5Q168 43 201 35ZM492 794H218V850H492Z" glyph-name="Amacron" horiz-adv-x="723" unicode="&#256;" /><glyph d="M333 636H331L229 322H444ZM201 35 252 25V0H-1V25L27 33Q56 42 72 58Q88 74 100 106L318 700H327Q349 700 366 705Q383 710 394 720H396L621 106Q634 72 649.5 56.5Q665 41 693 33L722 25V0H672Q645 -30 630 -57Q615 -84 615 -105Q615 -128 634 -142Q653 -156 681 -156Q685 -156 690 -155.5Q695 -155 703 -154L698 -178Q683 -185 665 -189Q647 -193 630 -193Q592 -193 567 -173Q542 -153 542 -118Q542 -86 567.5 -54.5Q593 -23 636 0H439V25L490 34Q518 39 525 55Q532 71 522 100L456 286H217L161 112Q150 80 159 61.5Q168 43 201 35Z" glyph-name="Aogonek" horiz-adv-x="723" unicode="&#260;" /><glyph d="M333 636H331L229 322H444ZM201 35 252 25V0H-1V25L27 33Q56 42 72 58Q88 74 100 106L318 700H327Q349 700 366 705Q383 710 394 720H396L621 106Q634 72 649.5 56.5Q665 41 693 33L722 25V0H439V25L490 34Q518 39 525 55Q532 71 522 100L456 286H217L161 112Q150 80 159 61.5Q168 43 201 35ZM455 855Q455 814 425.5 785Q396 756 355 756Q313 756 284 785Q255 814 255 855Q255 896 284.5 925.5Q314 955 355 955Q396 955 425.5 925.5Q455 896 455 855ZM291 855Q291 828 309.5 809Q328 790 355 790Q381 790 399.5 809Q418 828 418 855Q418 882 399 901.5Q380 921 355 921Q328 921 309.5 901.5Q291 882 291 855Z" glyph-name="Aring" horiz-adv-x="723" unicode="&#197;" /><glyph d="M333 636H331L229 322H444ZM201 35 252 25V0H-1V25L27 33Q56 42 72 58Q88 74 100 106L318 700H327Q349 700 366 705Q383 710 394 720H396L621 106Q634 72 649.5 56.5Q665 41 693 33L722 25V0H439V25L490 34Q518 39 525 55Q532 71 522 100L456 286H217L161 112Q150 80 159 61.5Q168 43 201 35ZM282 813Q265 813 254.5 802Q244 791 241 771L217 776Q218 827 238.5 854Q259 881 295 881Q306 881 320.5 877Q335 873 365 861Q393 850 405.5 846.5Q418 843 427 843Q444 843 455 854Q466 865 468 885L492 879Q491 829 470.5 802Q450 775 414 775Q403 775 388.5 779Q374 783 344 795Q316 806 303.5 809.5Q291 813 282 813Z" glyph-name="Atilde" horiz-adv-x="723" unicode="&#195;" /><glyph d="M343 0H45V25L83 34Q109 40 120.5 55Q132 70 132 98V603Q132 631 120.5 645.5Q109 660 83 666L45 675V700H331Q430 700 491.5 655.5Q553 611 553 537Q553 478 508 431Q463 384 402 373V370Q483 359 536 309.5Q589 260 589 191Q589 109 521 54.5Q453 0 343 0ZM226 667V383H308Q376 383 417 423.5Q458 464 458 529Q458 591 413 629Q368 667 292 667ZM285 33H315Q395 33 441 76.5Q487 120 487 191Q487 261 433.5 306.5Q380 352 305 352H226V97Q226 63 240 48Q254 33 285 33Z" glyph-name="B" horiz-adv-x="633" unicode="B" /><glyph d="M419 -15Q253 -15 151 87.5Q49 190 49 348Q49 506 153 610.5Q257 715 422 715Q476 715 542.5 705.5Q609 696 659 680L656 513H623L608 554Q583 621 538.5 649.5Q494 678 419 679Q307 679 232 585.5Q157 492 157 348Q157 207 235 114Q313 21 431 21Q500 21 543 51Q586 81 617 153L637 201H668L653 26Q601 7 538.5 -4Q476 -15 419 -15Z" glyph-name="C" horiz-adv-x="716" unicode="C" /><glyph glyph-name="CR" horiz-adv-x="0" /><glyph d="M419 -15Q253 -15 151 87.5Q49 190 49 348Q49 506 153 610.5Q257 715 422 715Q476 715 542.5 705.5Q609 696 659 680L656 513H623L608 554Q583 621 538.5 649.5Q494 678 419 679Q307 679 232 585.5Q157 492 157 348Q157 207 235 114Q313 21 431 21Q500 21 543 51Q586 81 617 153L637 201H668L653 26Q601 7 538.5 -4Q476 -15 419 -15ZM411 765H385L400 913H509Z" glyph-name="Cacute" horiz-adv-x="716" unicode="&#262;" /><glyph d="M419 -15Q253 -15 151 87.5Q49 190 49 348Q49 506 153 610.5Q257 715 422 715Q476 715 542.5 705.5Q609 696 659 680L656 513H623L608 554Q583 621 538.5 649.5Q494 678 419 679Q307 679 232 585.5Q157 492 157 348Q157 207 235 114Q313 21 431 21Q500 21 543 51Q586 81 617 153L637 201H668L653 26Q601 7 538.5 -4Q476 -15 419 -15ZM374 765 279 913H314L400 836L486 913H522L426 765Z" glyph-name="Ccaron" horiz-adv-x="716" unicode="&#268;" /><glyph d="M478 -145Q478 -181 448.5 -204.5Q419 -228 374 -228Q345 -228 317.5 -220Q290 -212 271 -199L285 -177Q301 -183 316 -186.5Q331 -190 343 -190Q371 -190 388 -177Q405 -164 405 -142Q405 -120 381.5 -104Q358 -88 325 -84L323 -80L371 -13Q225 2 137 102.5Q49 203 49 348Q49 506 153 610.5Q257 715 422 715Q476 715 542.5 705.5Q609 696 659 680L656 513H623L608 554Q583 621 538.5 649.5Q494 678 419 679Q307 679 232 585.5Q157 492 157 348Q157 207 235 114Q313 21 431 21Q500 21 543 51Q586 81 617 153L637 201H668L653 26Q601 7 538.5 -4Q476 -15 419 -15Q415 -15 410.5 -15Q406 -15 402 -15L385 -61Q422 -66 450 -88.5Q478 -111 478 -145Z" glyph-name="Ccedilla" horiz-adv-x="716" unicode="&#199;" /><glyph d="M419 -15Q253 -15 151 87.5Q49 190 49 348Q49 506 153 610.5Q257 715 422 715Q476 715 542.5 705.5Q609 696 659 680L656 513H623L608 554Q583 621 538.5 649.5Q494 678 419 679Q307 679 232 585.5Q157 492 157 348Q157 207 235 114Q313 21 431 21Q500 21 543 51Q586 81 617 153L637 201H668L653 26Q601 7 538.5 -4Q476 -15 419 -15ZM314 765H279L374 913H426L522 765H486L400 843Z" glyph-name="Ccircumflex" horiz-adv-x="716" unicode="&#264;" /><glyph d="M419 -15Q253 -15 151 87.5Q49 190 49 348Q49 506 153 610.5Q257 715 422 715Q476 715 542.5 705.5Q609 696 659 680L656 513H623L608 554Q583 621 538.5 649.5Q494 678 419 679Q307 679 232 585.5Q157 492 157 348Q157 207 235 114Q313 21 431 21Q500 21 543 51Q586 81 617 153L637 201H668L653 26Q601 7 538.5 -4Q476 -15 419 -15ZM467 838Q467 810 447.5 790.5Q428 771 400 771Q372 771 353 790.5Q334 810 334 838Q334 866 353 885Q372 904 400 904Q428 904 447.5 885Q467 866 467 838Z" glyph-name="Cdotaccent" horiz-adv-x="716" unicode="&#266;" /><glyph d="M332 0H45V25L83 34Q109 40 120.5 55Q132 70 132 98V603Q132 631 120.5 645.5Q109 660 83 666L45 675V700H331Q506 700 620 604Q734 508 734 350Q734 192 620.5 96Q507 0 332 0ZM226 666V99Q226 66 241 50Q256 34 287 34H318Q458 34 543.5 118.5Q629 203 629 350Q629 497 542.5 581.5Q456 666 313 666Z" glyph-name="D" horiz-adv-x="783" unicode="D" /><glyph d="M332 0H45V25L83 34Q109 40 120.5 55Q132 70 132 98V603Q132 631 120.5 645.5Q109 660 83 666L45 675V700H331Q506 700 620 604Q734 508 734 350Q734 192 620.5 96Q507 0 332 0ZM226 666V99Q226 66 241 50Q256 34 287 34H318Q458 34 543.5 118.5Q629 203 629 350Q629 497 542.5 581.5Q456 666 313 666ZM353 765 258 913H293L379 836L465 913H501L405 765Z" glyph-name="Dcaron" horiz-adv-x="783" unicode="&#270;" /><glyph d="M736 350Q736 192 622.5 96Q509 0 334 0H47V25L85 34Q111 40 122.5 55Q134 70 134 98V333H38V371H134V603Q134 631 122.5 645.5Q111 660 85 666L47 675V700H333Q508 700 622 604Q736 508 736 350ZM289 34H320Q460 34 545.5 118.5Q631 203 631 350Q631 497 544.5 581.5Q458 666 315 666H228V371H397V333H228V99Q228 66 243 50Q258 34 289 34Z" glyph-name="Dcroat" horiz-adv-x="785" unicode="&#272;" /><glyph d="M434 484V243H410L394 295Q387 319 373 329.5Q359 340 332 342L226 345V99Q226 66 242 50Q258 34 291 35L430 37Q479 37 504 56Q529 75 560 152L580 201H612L595 0H45V25L83 34Q109 40 120.5 55Q132 70 132 98V603Q132 631 120.5 645.5Q109 660 83 666L45 675V700H353Q416 700 471.5 702Q527 704 575 708L573 541H541L520 603Q505 641 491.5 652Q478 663 455 663L226 666V382L332 385Q359 386 373 396.5Q387 407 394 432L410 484Z" glyph-name="E" horiz-adv-x="651" unicode="E" /><glyph d="M434 484V243H410L394 295Q387 319 373 329.5Q359 340 332 342L226 345V99Q226 66 242 50Q258 34 291 35L430 37Q479 37 504 56Q529 75 560 152L580 201H612L595 0H45V25L83 34Q109 40 120.5 55Q132 70 132 98V603Q132 631 120.5 645.5Q109 660 83 666L45 675V700H353Q416 700 471.5 702Q527 704 575 708L573 541H541L520 603Q505 641 491.5 652Q478 663 455 663L226 666V382L332 385Q359 386 373 396.5Q387 407 394 432L410 484ZM341 765H315L330 913H439Z" glyph-name="Eacute" horiz-adv-x="651" unicode="&#201;" /><glyph d="M434 484V243H410L394 295Q387 319 373 329.5Q359 340 332 342L226 345V99Q226 66 242 50Q258 34 291 35L430 37Q479 37 504 56Q529 75 560 152L580 201H612L595 0H45V25L83 34Q109 40 120.5 55Q132 70 132 98V603Q132 631 120.5 645.5Q109 660 83 666L45 675V700H353Q416 700 471.5 702Q527 704 575 708L573 541H541L520 603Q505 641 491.5 652Q478 663 455 663L226 666V382L332 385Q359 386 373 396.5Q387 407 394 432L410 484ZM330 764Q271 764 237.5 797Q204 830 204 881V905H241V899Q241 869 264.5 850Q288 831 330 831Q372 831 396 850Q420 869 420 899V905H457V881Q457 829 423.5 796.5Q390 764 330 764Z" glyph-name="Ebreve" horiz-adv-x="651" unicode="&#276;" /><glyph d="M434 484V243H410L394 295Q387 319 373 329.5Q359 340 332 342L226 345V99Q226 66 242 50Q258 34 291 35L430 37Q479 37 504 56Q529 75 560 152L580 201H612L595 0H45V25L83 34Q109 40 120.5 55Q132 70 132 98V603Q132 631 120.5 645.5Q109 660 83 666L45 675V700H353Q416 700 471.5 702Q527 704 575 708L573 541H541L520 603Q505 641 491.5 652Q478 663 455 663L226 666V382L332 385Q359 386 373 396.5Q387 407 394 432L410 484ZM304 765 209 913H244L330 836L416 913H452L356 765Z" glyph-name="Ecaron" horiz-adv-x="651" unicode="&#282;" /><glyph d="M434 484V243H410L394 295Q387 319 373 329.5Q359 340 332 342L226 345V99Q226 66 242 50Q258 34 291 35L430 37Q479 37 504 56Q529 75 560 152L580 201H612L595 0H45V25L83 34Q109 40 120.5 55Q132 70 132 98V603Q132 631 120.5 645.5Q109 660 83 666L45 675V700H353Q416 700 471.5 702Q527 704 575 708L573 541H541L520 603Q505 641 491.5 652Q478 663 455 663L226 666V382L332 385Q359 386 373 396.5Q387 407 394 432L410 484ZM244 765H209L304 913H356L452 765H416L330 843Z" glyph-name="Ecircumflex" horiz-adv-x="651" unicode="&#202;" /><glyph d="M434 484V243H410L394 295Q387 319 373 329.5Q359 340 332 342L226 345V99Q226 66 242 50Q258 34 291 35L430 37Q479 37 504 56Q529 75 560 152L580 201H612L595 0H45V25L83 34Q109 40 120.5 55Q132 70 132 98V603Q132 631 120.5 645.5Q109 660 83 666L45 675V700H353Q416 700 471.5 702Q527 704 575 708L573 541H541L520 603Q505 641 491.5 652Q478 663 455 663L226 666V382L332 385Q359 386 373 396.5Q387 407 394 432L410 484ZM469 841Q469 817 452.5 800.5Q436 784 413 784Q389 784 372.5 800.5Q356 817 356 841Q356 864 372.5 880.5Q389 897 413 897Q436 897 452.5 880.5Q469 864 469 841ZM306 841Q306 817 289.5 800.5Q273 784 249 784Q225 784 208.5 800.5Q192 817 192 841Q192 864 208.5 880.5Q225 897 249 897Q272 897 289 880.5Q306 864 306 841Z" glyph-name="Edieresis" horiz-adv-x="651" unicode="&#203;" /><glyph d="M434 484V243H410L394 295Q387 319 373 329.5Q359 340 332 342L226 345V99Q226 66 242 50Q258 34 291 35L430 37Q479 37 504 56Q529 75 560 152L580 201H612L595 0H45V25L83 34Q109 40 120.5 55Q132 70 132 98V603Q132 631 120.5 645.5Q109 660 83 666L45 675V700H353Q416 700 471.5 702Q527 704 575 708L573 541H541L520 603Q505 641 491.5 652Q478 663 455 663L226 666V382L332 385Q359 386 373 396.5Q387 407 394 432L410 484ZM398 838Q398 810 378.5 790.5Q359 771 331 771Q303 771 284 790.5Q265 810 265 838Q265 866 284 885Q303 904 331 904Q359 904 378.5 885Q398 866 398 838Z" glyph-name="Edotaccent" horiz-adv-x="651" unicode="&#278;" /><glyph d="M434 484V243H410L394 295Q387 319 373 329.5Q359 340 332 342L226 345V99Q226 66 242 50Q258 34 291 35L430 37Q479 37 504 56Q529 75 560 152L580 201H612L595 0H45V25L83 34Q109 40 120.5 55Q132 70 132 98V603Q132 631 120.5 645.5Q109 660 83 666L45 675V700H353Q416 700 471.5 702Q527 704 575 708L573 541H541L520 603Q505 641 491.5 652Q478 663 455 663L226 666V382L332 385Q359 386 373 396.5Q387 407 394 432L410 484ZM345 765H319L221 913H330Z" glyph-name="Egrave" horiz-adv-x="651" unicode="&#200;" /><glyph d="M434 484V243H410L394 295Q387 319 373 329.5Q359 340 332 342L226 345V99Q226 66 242 50Q258 34 291 35L430 37Q479 37 504 56Q529 75 560 152L580 201H612L595 0H45V25L83 34Q109 40 120.5 55Q132 70 132 98V603Q132 631 120.5 645.5Q109 660 83 666L45 675V700H353Q416 700 471.5 702Q527 704 575 708L573 541H541L520 603Q505 641 491.5 652Q478 663 455 663L226 666V382L332 385Q359 386 373 396.5Q387 407 394 432L410 484ZM468 794H194V850H468Z" glyph-name="Emacron" horiz-adv-x="651" unicode="&#274;" /><glyph d="M551 -222Q507 -222 476 -198Q445 -174 445 -137Q445 -114 462 -98Q479 -82 501 -82Q523 -82 538.5 -98Q554 -114 554 -137Q554 -149 548.5 -162.5Q543 -176 535 -183Q539 -184 545.5 -185Q552 -186 556 -186Q602 -186 630 -151Q658 -116 658 -65V-7L185 586H184L186 98Q186 70 198.5 55.5Q211 41 239 35L286 25V0H39V25L80 34Q106 40 117.5 54.5Q129 69 130 98L141 625L132 635Q118 650 103.5 658.5Q89 667 71 670L44 676V700H224Q260 650 291.5 607Q323 564 351 528L655 150H657L644 603Q643 629 630 644Q617 659 590 665L543 675V700H789V675L748 666Q722 660 710.5 645.5Q699 631 699 603V-61Q699 -133 658 -177.5Q617 -222 551 -222Z" glyph-name="Eng" horiz-adv-x="824" unicode="&#330;" /><glyph d="M558 -154 553 -178Q538 -185 520 -189Q502 -193 485 -193Q447 -193 422 -173Q397 -153 397 -118Q397 -86 422.5 -54.5Q448 -23 491 0H45V25L83 34Q109 40 120.5 55Q132 70 132 98V603Q132 631 120.5 645.5Q109 660 83 666L45 675V700H353Q416 700 471.5 702Q527 704 575 708L573 541H541L520 603Q505 641 491.5 652Q478 663 455 663L226 666V382L332 385Q359 386 373 396.5Q387 407 394 432L410 484H434V243H410L394 295Q387 319 373 329.5Q359 340 332 342L226 345V99Q226 66 242 50Q258 34 291 35L430 37Q479 37 504 56Q529 75 560 152L580 201H612L595 0H527Q500 -30 485 -57Q470 -84 470 -105Q470 -128 489 -142Q508 -156 536 -156Q540 -156 545 -155.5Q550 -155 558 -154Z" glyph-name="Eogonek" horiz-adv-x="651" unicode="&#280;" /><glyph d="M736 350Q736 192 622.5 96Q509 0 334 0H47V25L85 34Q111 40 122.5 55Q134 70 134 98V333H38V371H134V603Q134 631 122.5 645.5Q111 660 85 666L47 675V700H333Q508 700 622 604Q736 508 736 350ZM289 34H320Q460 34 545.5 118.5Q631 203 631 350Q631 497 544.5 581.5Q458 666 315 666H228V371H397V333H228V99Q228 66 243 50Q258 34 289 34Z" glyph-name="Eth" horiz-adv-x="785" unicode="&#208;" /><glyph d="M605 207H640Q640 109 573.5 47Q507 -15 407 -15Q298 -15 225 52.5Q152 120 127 241H45V284H120Q118 299 117 315Q116 331 116 350Q116 366 117 382.5Q118 399 121 419H45V462H129Q158 579 236.5 647Q315 715 426 715Q473 715 529 705Q585 695 616 684L615 523H587L575 562Q558 618 519.5 649Q481 680 426 680Q346 680 295 624Q244 568 227 462H460V419H221Q220 402 219 384.5Q218 367 218 350Q218 333 219 316Q220 299 221 284H460V241H228Q248 143 300 90.5Q352 38 431 38Q502 38 549.5 83.5Q597 129 605 207Z" glyph-name="Euro" horiz-adv-x="692" unicode="&#8364;" /><glyph d="M226 333V98Q226 70 238 55.5Q250 41 279 35L323 25V0H45V25L83 34Q109 40 120.5 55Q132 70 132 98V603Q132 631 120.5 645.5Q109 660 83 666L45 675V700H353Q416 700 471.5 702Q527 704 575 708L573 541H541L519 604Q505 641 491.5 652Q478 663 455 663L226 666V370L367 373Q395 374 408.5 384.5Q422 395 430 420L445 472H470V231H445L430 283Q422 308 407.5 318.5Q393 329 367 330Z" glyph-name="F" horiz-adv-x="605" unicode="F" /><glyph d="M435 679Q313 679 234.5 586Q156 493 156 347Q156 208 236 116.5Q316 25 437 25Q512 25 549 41.5Q586 58 586 91V222Q586 250 574 264.5Q562 279 537 284L490 295V319H747V295L725 289Q701 282 690.5 267Q680 252 680 222V75H724V48Q659 20 578.5 2.5Q498 -15 430 -15Q260 -15 154.5 86.5Q49 188 49 347Q49 425 79 494.5Q109 564 164 615Q217 664 287.5 689.5Q358 715 440 715Q489 715 556 705Q623 695 677 680L674 513H641L625 559Q604 618 556 648.5Q508 679 435 679Z" glyph-name="G" horiz-adv-x="784" unicode="G" /><glyph d="M435 679Q313 679 234.5 586Q156 493 156 347Q156 208 236 116.5Q316 25 437 25Q512 25 549 41.5Q586 58 586 91V222Q586 250 574 264.5Q562 279 537 284L490 295V319H747V295L725 289Q701 282 690.5 267Q680 252 680 222V75H724V48Q659 20 578.5 2.5Q498 -15 430 -15Q260 -15 154.5 86.5Q49 188 49 347Q49 425 79 494.5Q109 564 164 615Q217 664 287.5 689.5Q358 715 440 715Q489 715 556 705Q623 695 677 680L674 513H641L625 559Q604 618 556 648.5Q508 679 435 679ZM400 764Q341 764 307.5 797Q274 830 274 881V905H311V899Q311 869 334.5 850Q358 831 400 831Q442 831 466 850Q490 869 490 899V905H527V881Q527 829 493.5 796.5Q460 764 400 764Z" glyph-name="Gbreve" horiz-adv-x="784" unicode="&#286;" /><glyph d="M435 679Q313 679 234.5 586Q156 493 156 347Q156 208 236 116.5Q316 25 437 25Q512 25 549 41.5Q586 58 586 91V222Q586 250 574 264.5Q562 279 537 284L490 295V319H747V295L725 289Q701 282 690.5 267Q680 252 680 222V75H724V48Q659 20 578.5 2.5Q498 -15 430 -15Q260 -15 154.5 86.5Q49 188 49 347Q49 425 79 494.5Q109 564 164 615Q217 664 287.5 689.5Q358 715 440 715Q489 715 556 705Q623 695 677 680L674 513H641L625 559Q604 618 556 648.5Q508 679 435 679ZM314 765H279L374 913H426L522 765H486L400 843Z" glyph-name="Gcircumflex" horiz-adv-x="784" unicode="&#284;" /><glyph d="M435 679Q313 679 234.5 586Q156 493 156 347Q156 208 236 116.5Q316 25 437 25Q512 25 549 41.5Q586 58 586 91V222Q586 250 574 264.5Q562 279 537 284L490 295V319H747V295L725 289Q701 282 690.5 267Q680 252 680 222V75H724V48Q659 20 578.5 2.5Q498 -15 430 -15Q260 -15 154.5 86.5Q49 188 49 347Q49 425 79 494.5Q109 564 164 615Q217 664 287.5 689.5Q358 715 440 715Q489 715 556 705Q623 695 677 680L674 513H641L625 559Q604 618 556 648.5Q508 679 435 679ZM480 -148Q480 -198 448.5 -241Q417 -284 358 -314L343 -299Q386 -268 410 -235Q434 -202 440 -168Q435 -177 421.5 -182.5Q408 -188 394 -188Q367 -188 348.5 -169Q330 -150 330 -123Q330 -96 350 -75.5Q370 -55 399 -55Q434 -55 457 -82Q480 -109 480 -148Z" glyph-name="Gcommaaccent" horiz-adv-x="784" unicode="&#290;" /><glyph d="M435 679Q313 679 234.5 586Q156 493 156 347Q156 208 236 116.5Q316 25 437 25Q512 25 549 41.5Q586 58 586 91V222Q586 250 574 264.5Q562 279 537 284L490 295V319H747V295L725 289Q701 282 690.5 267Q680 252 680 222V75H724V48Q659 20 578.5 2.5Q498 -15 430 -15Q260 -15 154.5 86.5Q49 188 49 347Q49 425 79 494.5Q109 564 164 615Q217 664 287.5 689.5Q358 715 440 715Q489 715 556 705Q623 695 677 680L674 513H641L625 559Q604 618 556 648.5Q508 679 435 679ZM467 838Q467 810 447.5 790.5Q428 771 400 771Q372 771 353 790.5Q334 810 334 838Q334 866 353 885Q372 904 400 904Q428 904 447.5 885Q467 866 467 838Z" glyph-name="Gdotaccent" horiz-adv-x="784" unicode="&#288;" /><glyph d="M313 25V0H45V25L83 34Q109 40 120.5 55Q132 70 132 98V603Q132 631 120.5 645.5Q109 660 83 666L45 675V700H313V675L275 666Q249 660 237.5 645.5Q226 631 226 603V384H605V603Q605 630 593.5 644.5Q582 659 556 666L517 675V700H786V675L748 666Q722 660 710.5 645.5Q699 631 699 603V98Q699 70 710.5 55Q722 40 748 34L786 25V0H517V25L556 34Q582 41 593.5 55.5Q605 70 605 98V342H226V98Q226 70 237.5 55Q249 40 275 34Z" glyph-name="H" horiz-adv-x="831" unicode="H" /><glyph d="M227 493V384H606V493ZM276 34 314 25V0H46V25L84 34Q110 40 121.5 55Q133 70 133 98V493H32V534H133V603Q133 631 121.5 645.5Q110 660 84 666L46 675V700H314V675L276 666Q250 660 238.5 645.5Q227 631 227 603V534H606V603Q606 630 594.5 644.5Q583 659 557 666L518 675V700H787V675L749 666Q723 660 711.5 645.5Q700 631 700 603V534H801V493H700V98Q700 70 711.5 55Q723 40 749 34L787 25V0H518V25L557 34Q583 41 594.5 55.5Q606 70 606 98V342H227V98Q227 70 238.5 55Q250 40 276 34Z" glyph-name="Hbar" horiz-adv-x="833" unicode="&#294;" /><glyph d="M313 25V0H45V25L83 34Q109 40 120.5 55Q132 70 132 98V603Q132 631 120.5 645.5Q109 660 83 666L45 675V700H313V675L275 666Q249 660 237.5 645.5Q226 631 226 603V384H605V603Q605 630 593.5 644.5Q582 659 556 666L517 675V700H786V675L748 666Q722 660 710.5 645.5Q699 631 699 603V98Q699 70 710.5 55Q722 40 748 34L786 25V0H517V25L556 34Q582 41 593.5 55.5Q605 70 605 98V342H226V98Q226 70 237.5 55Q249 40 275 34ZM329 765H294L389 913H441L537 765H501L415 843Z" glyph-name="Hcircumflex" horiz-adv-x="831" unicode="&#292;" /><glyph d="M226 603V98Q226 70 237.5 55Q249 40 275 34L313 25V0H45V25L83 34Q109 40 120.5 55Q132 70 132 98V603Q132 631 120.5 645.5Q109 660 83 666L45 675V700H313V675L275 666Q249 660 237.5 645.5Q226 631 226 603Z" glyph-name="I" horiz-adv-x="358" unicode="I" /><glyph d="M226 603V98Q226 70 237.5 55Q249 40 275 34L313 25V0H45V25L83 34Q109 40 120.5 55Q132 70 132 98V603Q132 631 120.5 645.5Q109 660 83 666L45 675V700H313V675L275 666Q249 660 237.5 645.5Q226 631 226 603ZM578 603V22Q578 -57 534.5 -101.5Q491 -146 418 -146Q395 -146 372.5 -140.5Q350 -135 330 -125L338 -102Q348 -104 359 -105.5Q370 -107 382 -107Q432 -107 458 -76.5Q484 -46 484 12V603Q484 631 472.5 645.5Q461 660 435 666L397 675V700H655V675L626 667Q601 659 589.5 644.5Q578 630 578 603Z" glyph-name="IJ" horiz-adv-x="700" unicode="&#306;" /><glyph d="M226 603V98Q226 70 237.5 55Q249 40 275 34L313 25V0H45V25L83 34Q109 40 120.5 55Q132 70 132 98V603Q132 631 120.5 645.5Q109 660 83 666L45 675V700H313V675L275 666Q249 660 237.5 645.5Q226 631 226 603ZM190 765H164L179 913H288Z" glyph-name="Iacute" horiz-adv-x="358" unicode="&#205;" /><glyph d="M226 603V98Q226 70 237.5 55Q249 40 275 34L313 25V0H45V25L83 34Q109 40 120.5 55Q132 70 132 98V603Q132 631 120.5 645.5Q109 660 83 666L45 675V700H313V675L275 666Q249 660 237.5 645.5Q226 631 226 603ZM179 764Q120 764 86.5 797Q53 830 53 881V905H90V899Q90 869 113.5 850Q137 831 179 831Q221 831 245 850Q269 869 269 899V905H306V881Q306 829 272.5 796.5Q239 764 179 764Z" glyph-name="Ibreve" horiz-adv-x="358" unicode="&#300;" /><glyph d="M226 603V98Q226 70 237.5 55Q249 40 275 34L313 25V0H45V25L83 34Q109 40 120.5 55Q132 70 132 98V603Q132 631 120.5 645.5Q109 660 83 666L45 675V700H313V675L275 666Q249 660 237.5 645.5Q226 631 226 603ZM93 765H58L153 913H205L301 765H265L179 843Z" glyph-name="Icircumflex" horiz-adv-x="358" unicode="&#206;" /><glyph d="M226 603V98Q226 70 237.5 55Q249 40 275 34L313 25V0H45V25L83 34Q109 40 120.5 55Q132 70 132 98V603Q132 631 120.5 645.5Q109 660 83 666L45 675V700H313V675L275 666Q249 660 237.5 645.5Q226 631 226 603ZM317 841Q317 817 300.5 800.5Q284 784 261 784Q237 784 220.5 800.5Q204 817 204 841Q204 864 220.5 880.5Q237 897 261 897Q284 897 300.5 880.5Q317 864 317 841ZM154 841Q154 817 137.5 800.5Q121 784 97 784Q73 784 56.5 800.5Q40 817 40 841Q40 864 56.5 880.5Q73 897 97 897Q120 897 137 880.5Q154 864 154 841Z" glyph-name="Idieresis" horiz-adv-x="358" unicode="&#207;" /><glyph d="M226 603V98Q226 70 237.5 55Q249 40 275 34L313 25V0H45V25L83 34Q109 40 120.5 55Q132 70 132 98V603Q132 631 120.5 645.5Q109 660 83 666L45 675V700H313V675L275 666Q249 660 237.5 645.5Q226 631 226 603ZM246 838Q246 810 226.5 790.5Q207 771 179 771Q151 771 132 790.5Q113 810 113 838Q113 866 132 885Q151 904 179 904Q207 904 226.5 885Q246 866 246 838Z" glyph-name="Idotaccent" horiz-adv-x="358" unicode="&#304;" /><glyph d="M226 603V98Q226 70 237.5 55Q249 40 275 34L313 25V0H45V25L83 34Q109 40 120.5 55Q132 70 132 98V603Q132 631 120.5 645.5Q109 660 83 666L45 675V700H313V675L275 666Q249 660 237.5 645.5Q226 631 226 603ZM193 765H167L69 913H178Z" glyph-name="Igrave" horiz-adv-x="358" unicode="&#204;" /><glyph d="M226 603V98Q226 70 237.5 55Q249 40 275 34L313 25V0H45V25L83 34Q109 40 120.5 55Q132 70 132 98V603Q132 631 120.5 645.5Q109 660 83 666L45 675V700H313V675L275 666Q249 660 237.5 645.5Q226 631 226 603ZM316 794H42V850H316Z" glyph-name="Imacron" horiz-adv-x="358" unicode="&#298;" /><glyph d="M286 -154 281 -178Q266 -185 248 -189Q230 -193 213 -193Q175 -193 150 -173Q125 -153 125 -118Q125 -86 150.5 -54.5Q176 -23 219 0H45V25L83 34Q109 40 120.5 55Q132 70 132 98V603Q132 631 120.5 645.5Q109 660 83 666L45 675V700H313V675L275 666Q249 660 237.5 645.5Q226 631 226 603V98Q226 70 237.5 55Q249 40 275 34L313 25V0H255Q228 -30 213 -57Q198 -84 198 -105Q198 -128 217 -142Q236 -156 264 -156Q268 -156 273 -155.5Q278 -155 286 -154Z" glyph-name="Iogonek" horiz-adv-x="358" unicode="&#302;" /><glyph d="M226 603V98Q226 70 237.5 55Q249 40 275 34L313 25V0H45V25L83 34Q109 40 120.5 55Q132 70 132 98V603Q132 631 120.5 645.5Q109 660 83 666L45 675V700H313V675L275 666Q249 660 237.5 645.5Q226 631 226 603ZM107 813Q90 813 79.5 802Q69 791 66 771L42 776Q43 827 63.5 854Q84 881 120 881Q131 881 145.5 877Q160 873 190 861Q218 850 230.5 846.5Q243 843 252 843Q269 843 280 854Q291 865 293 885L317 879Q316 829 295.5 802Q275 775 239 775Q228 775 213.5 779Q199 783 169 795Q141 806 128.5 809.5Q116 813 107 813Z" glyph-name="Itilde" horiz-adv-x="358" unicode="&#296;" /><glyph d="M220 603V22Q220 -57 176.5 -101.5Q133 -146 60 -146Q37 -146 14.5 -140.5Q-8 -135 -28 -125L-20 -102Q-10 -104 1 -105.5Q12 -107 24 -107Q74 -107 100 -76.5Q126 -46 126 12V603Q126 631 114.5 645.5Q103 660 77 666L39 675V700H297V675L268 667Q243 659 231.5 644.5Q220 630 220 603Z" glyph-name="J" horiz-adv-x="342" unicode="J" /><glyph d="M220 603V22Q220 -57 176.5 -101.5Q133 -146 60 -146Q37 -146 14.5 -140.5Q-8 -135 -28 -125L-20 -102Q-10 -104 1 -105.5Q12 -107 24 -107Q74 -107 100 -76.5Q126 -46 126 12V603Q126 631 114.5 645.5Q103 660 77 666L39 675V700H297V675L268 667Q243 659 231.5 644.5Q220 630 220 603ZM86 765H51L146 913H198L294 765H258L172 843Z" glyph-name="Jcircumflex" horiz-adv-x="342" unicode="&#308;" /><glyph d="M279 35 323 25V0H45V25L83 34Q109 40 120.5 55Q132 70 132 98V603Q132 631 120.5 645.5Q109 660 83 666L45 675V700H313V675L275 666Q249 660 237.5 645.5Q226 631 226 603V383H327L499 595Q520 620 515.5 639.5Q511 659 482 665L433 675V700H686V675L663 670Q639 664 615.5 646Q592 628 560 592L382 389L526 195Q583 119 620.5 80.5Q658 42 690 31L709 25V0H619Q581 0 547 26.5Q513 53 464 121L304 344H226V98Q226 70 238 55.5Q250 41 279 35Z" glyph-name="K" horiz-adv-x="708" unicode="K" /><glyph d="M279 35 323 25V0H45V25L83 34Q109 40 120.5 55Q132 70 132 98V603Q132 631 120.5 645.5Q109 660 83 666L45 675V700H313V675L275 666Q249 660 237.5 645.5Q226 631 226 603V383H327L499 595Q520 620 515.5 639.5Q511 659 482 665L433 675V700H686V675L663 670Q639 664 615.5 646Q592 628 560 592L382 389L526 195Q583 119 620.5 80.5Q658 42 690 31L709 25V0H619Q581 0 547 26.5Q513 53 464 121L304 344H226V98Q226 70 238 55.5Q250 41 279 35ZM444 -148Q444 -198 412.5 -241Q381 -284 322 -314L307 -299Q350 -268 374 -235Q398 -202 404 -168Q399 -177 385.5 -182.5Q372 -188 358 -188Q331 -188 312.5 -169Q294 -150 294 -123Q294 -96 314 -75.5Q334 -55 363 -55Q398 -55 421 -82Q444 -109 444 -148Z" glyph-name="Kcommaaccent" horiz-adv-x="708" unicode="&#310;" /><glyph d="M585 0H45V25L83 34Q109 40 120.5 55Q132 70 132 98V603Q132 631 120.5 645.5Q109 660 83 666L45 675V700H323V675L278 665Q251 660 238.5 645Q226 630 226 603V97Q226 65 242.5 49Q259 33 291 34L421 35Q472 36 497.5 56.5Q523 77 551 150L571 201H602Z" glyph-name="L" horiz-adv-x="630" unicode="L" /><glyph d="M585 0H45V25L83 34Q109 40 120.5 55Q132 70 132 98V603Q132 631 120.5 645.5Q109 660 83 666L45 675V700H323V675L278 665Q251 660 238.5 645Q226 630 226 603V97Q226 65 242.5 49Q259 33 291 34L421 35Q472 36 497.5 56.5Q523 77 551 150L571 201H602ZM189 765H163L178 913H287Z" glyph-name="Lacute" horiz-adv-x="630" unicode="&#313;" /><glyph d="M573 607Q573 557 541.5 514Q510 471 451 441L436 456Q479 487 503 520Q527 553 533 587Q528 578 514.5 572.5Q501 567 487 567Q460 567 441.5 586Q423 605 423 632Q423 659 443 679.5Q463 700 492 700Q527 700 550 673Q573 646 573 607ZM585 0H45V25L83 34Q109 40 120.5 55Q132 70 132 98V603Q132 631 120.5 645.5Q109 660 83 666L45 675V700H323V675L278 665Q251 660 238.5 645Q226 630 226 603V97Q226 65 242.5 49Q259 33 291 34L421 35Q472 36 497.5 56.5Q523 77 551 150L571 201H602Z" glyph-name="Lcaron" horiz-adv-x="634" unicode="&#317;" /><glyph d="M585 0H45V25L83 34Q109 40 120.5 55Q132 70 132 98V603Q132 631 120.5 645.5Q109 660 83 666L45 675V700H323V675L278 665Q251 660 238.5 645Q226 630 226 603V97Q226 65 242.5 49Q259 33 291 34L421 35Q472 36 497.5 56.5Q523 77 551 150L571 201H602ZM412 -148Q412 -198 380.5 -241Q349 -284 290 -314L275 -299Q318 -268 342 -235Q366 -202 372 -168Q367 -177 353.5 -182.5Q340 -188 326 -188Q299 -188 280.5 -169Q262 -150 262 -123Q262 -96 282 -75.5Q302 -55 331 -55Q366 -55 389 -82Q412 -109 412 -148Z" glyph-name="Lcommaaccent" horiz-adv-x="630" unicode="&#315;" /><glyph d="M585 0H45V25L83 34Q109 40 120.5 55Q132 70 132 98V603Q132 631 120.5 645.5Q109 660 83 666L45 675V700H323V675L278 665Q251 660 238.5 645Q226 630 226 603V97Q226 65 242.5 49Q259 33 291 34L421 35Q472 36 497.5 56.5Q523 77 551 150L571 201H602ZM534 359Q534 330 513.5 309.5Q493 289 463 289Q434 289 413.5 309.5Q393 330 393 359Q393 388 413.5 408.5Q434 429 463 429Q493 429 513.5 408.5Q534 388 534 359Z" glyph-name="Ldot" horiz-adv-x="630" unicode="&#319;" /><glyph d="M604 201 587 0H47V25L85 34Q111 40 122.5 55Q134 70 134 98V282L29 244V282L134 320V603Q134 631 122.5 645.5Q111 660 85 666L47 675V700H325V675L280 665Q253 660 240.5 645Q228 630 228 603V354L473 442V404L228 316V97Q228 65 244.5 49Q261 33 293 34L423 35Q474 36 499.5 56.5Q525 77 553 150L573 201Z" glyph-name="Lslash" horiz-adv-x="632" unicode="&#321;" /><glyph d="M843 603 864 98Q865 68 877 53Q889 38 913 34L951 25V0H672V25L717 35Q745 42 757 56.5Q769 71 769 98L751 629H749L487 0H451L194 629H192L179 98Q178 71 190.5 56.5Q203 42 232 35L279 25V0H32V25L73 34Q98 39 110 53.5Q122 68 123 98L146 602Q147 630 136.5 645Q126 660 103 666L66 675V700H360V675L330 671Q308 666 302 650.5Q296 635 306 610L497 128H499L695 610Q705 635 698.5 651.5Q692 668 671 671L641 675V700H923V675L886 666Q863 661 852.5 645.5Q842 630 843 603Z" glyph-name="M" horiz-adv-x="986" unicode="M" /><glyph d="M657 150 644 603Q643 629 630 644Q617 659 590 665L543 675V700H789V675L748 666Q722 660 710.5 645.5Q699 631 699 603V-10H660L185 586H184L186 98Q186 70 198.5 55.5Q211 41 239 35L286 25V0H39V25L80 34Q106 40 117.5 54.5Q129 69 130 98L141 625L132 635Q118 650 103.5 658.5Q89 667 71 670L44 676V700H224Q260 650 291.5 607Q323 564 351 528L655 150Z" glyph-name="N" horiz-adv-x="824" unicode="N" /><glyph d="M657 150 644 603Q643 629 630 644Q617 659 590 665L543 675V700H789V675L748 666Q722 660 710.5 645.5Q699 631 699 603V-10H660L185 586H184L186 98Q186 70 198.5 55.5Q211 41 239 35L286 25V0H39V25L80 34Q106 40 117.5 54.5Q129 69 130 98L141 625L132 635Q118 650 103.5 658.5Q89 667 71 670L44 676V700H224Q260 650 291.5 607Q323 564 351 528L655 150ZM428 765H402L417 913H526Z" glyph-name="Nacute" horiz-adv-x="824" unicode="&#323;" /><glyph d="M657 150 644 603Q643 629 630 644Q617 659 590 665L543 675V700H789V675L748 666Q722 660 710.5 645.5Q699 631 699 603V-10H660L185 586H184L186 98Q186 70 198.5 55.5Q211 41 239 35L286 25V0H39V25L80 34Q106 40 117.5 54.5Q129 69 130 98L141 625L132 635Q118 650 103.5 658.5Q89 667 71 670L44 676V700H224Q260 650 291.5 607Q323 564 351 528L655 150ZM391 765 296 913H331L417 836L503 913H539L443 765Z" glyph-name="Ncaron" horiz-adv-x="824" unicode="&#327;" /><glyph d="M657 150 644 603Q643 629 630 644Q617 659 590 665L543 675V700H789V675L748 666Q722 660 710.5 645.5Q699 631 699 603V-10H660L185 586H184L186 98Q186 70 198.5 55.5Q211 41 239 35L286 25V0H39V25L80 34Q106 40 117.5 54.5Q129 69 130 98L141 625L132 635Q118 650 103.5 658.5Q89 667 71 670L44 676V700H224Q260 650 291.5 607Q323 564 351 528L655 150ZM473 -148Q473 -198 441.5 -241Q410 -284 351 -314L336 -299Q379 -268 403 -235Q427 -202 433 -168Q428 -177 414.5 -182.5Q401 -188 387 -188Q360 -188 341.5 -169Q323 -150 323 -123Q323 -96 343 -75.5Q363 -55 392 -55Q427 -55 450 -82Q473 -109 473 -148Z" glyph-name="Ncommaaccent" horiz-adv-x="824" unicode="&#325;" /><glyph d="M657 150 644 603Q643 629 630 644Q617 659 590 665L543 675V700H789V675L748 666Q722 660 710.5 645.5Q699 631 699 603V-10H660L185 586H184L186 98Q186 70 198.5 55.5Q211 41 239 35L286 25V0H39V25L80 34Q106 40 117.5 54.5Q129 69 130 98L141 625L132 635Q118 650 103.5 658.5Q89 667 71 670L44 676V700H224Q260 650 291.5 607Q323 564 351 528L655 150ZM345 813Q328 813 317.5 802Q307 791 304 771L280 776Q281 827 301.5 854Q322 881 358 881Q369 881 383.5 877Q398 873 428 861Q456 850 468.5 846.5Q481 843 490 843Q507 843 518 854Q529 865 531 885L555 879Q554 829 533.5 802Q513 775 477 775Q466 775 451.5 779Q437 783 407 795Q379 806 366.5 809.5Q354 813 345 813Z" glyph-name="Ntilde" horiz-adv-x="824" unicode="&#209;" /><glyph d="M49 350Q49 503 149 609Q249 715 394 715Q539 715 639 609Q739 503 739 350Q739 197 639 91Q539 -15 394 -15Q249 -15 149 91Q49 197 49 350ZM157 350Q157 200 223 110.5Q289 21 394 21Q499 21 565.5 110Q632 199 632 350Q632 501 565.5 590Q499 679 394 679Q289 679 223 589.5Q157 500 157 350Z" glyph-name="O" horiz-adv-x="788" unicode="O" /><glyph d="M499 666H477Q320 666 237.5 586.5Q155 507 155 353V347Q155 195 240.5 115Q326 35 485 35H560V602Q560 635 545 650.5Q530 666 499 666ZM1022 0H454Q377 0 304 23.5Q231 47 176 90Q114 138 82 203.5Q50 269 50 348V356Q51 511 163.5 605.5Q276 700 454 700H781Q844 700 899.5 702Q955 704 1003 708L1001 541H969L947 604Q933 641 919.5 652Q906 663 883 663L654 666V382L759 385Q786 386 800 396.5Q814 407 822 432L838 484H862V243H838L822 295Q814 319 800.5 329.5Q787 340 759 342L654 345V99Q654 66 670 50Q686 34 719 35L857 37Q907 37 932 56.5Q957 76 988 152L1008 201H1039Z" glyph-name="OE" horiz-adv-x="1078" unicode="&#338;" /><glyph d="M49 350Q49 503 149 609Q249 715 394 715Q539 715 639 609Q739 503 739 350Q739 197 639 91Q539 -15 394 -15Q249 -15 149 91Q49 197 49 350ZM157 350Q157 200 223 110.5Q289 21 394 21Q499 21 565.5 110Q632 199 632 350Q632 501 565.5 590Q499 679 394 679Q289 679 223 589.5Q157 500 157 350ZM405 765H379L394 913H503Z" glyph-name="Oacute" horiz-adv-x="788" unicode="&#211;" /><glyph d="M49 350Q49 503 149 609Q249 715 394 715Q539 715 639 609Q739 503 739 350Q739 197 639 91Q539 -15 394 -15Q249 -15 149 91Q49 197 49 350ZM157 350Q157 200 223 110.5Q289 21 394 21Q499 21 565.5 110Q632 199 632 350Q632 501 565.5 590Q499 679 394 679Q289 679 223 589.5Q157 500 157 350ZM394 764Q335 764 301.5 797Q268 830 268 881V905H305V899Q305 869 328.5 850Q352 831 394 831Q436 831 460 850Q484 869 484 899V905H521V881Q521 829 487.5 796.5Q454 764 394 764Z" glyph-name="Obreve" horiz-adv-x="788" unicode="&#334;" /><glyph d="M49 350Q49 503 149 609Q249 715 394 715Q539 715 639 609Q739 503 739 350Q739 197 639 91Q539 -15 394 -15Q249 -15 149 91Q49 197 49 350ZM157 350Q157 200 223 110.5Q289 21 394 21Q499 21 565.5 110Q632 199 632 350Q632 501 565.5 590Q499 679 394 679Q289 679 223 589.5Q157 500 157 350ZM308 765H273L368 913H420L516 765H480L394 843Z" glyph-name="Ocircumflex" horiz-adv-x="788" unicode="&#212;" /><glyph d="M49 350Q49 503 149 609Q249 715 394 715Q539 715 639 609Q739 503 739 350Q739 197 639 91Q539 -15 394 -15Q249 -15 149 91Q49 197 49 350ZM157 350Q157 200 223 110.5Q289 21 394 21Q499 21 565.5 110Q632 199 632 350Q632 501 565.5 590Q499 679 394 679Q289 679 223 589.5Q157 500 157 350ZM533 841Q533 817 516.5 800.5Q500 784 477 784Q453 784 436.5 800.5Q420 817 420 841Q420 864 436.5 880.5Q453 897 477 897Q500 897 516.5 880.5Q533 864 533 841ZM370 841Q370 817 353.5 800.5Q337 784 313 784Q289 784 272.5 800.5Q256 817 256 841Q256 864 272.5 880.5Q289 897 313 897Q336 897 353 880.5Q370 864 370 841Z" glyph-name="Odieresis" horiz-adv-x="788" unicode="&#214;" /><glyph d="M49 350Q49 503 149 609Q249 715 394 715Q539 715 639 609Q739 503 739 350Q739 197 639 91Q539 -15 394 -15Q249 -15 149 91Q49 197 49 350ZM157 350Q157 200 223 110.5Q289 21 394 21Q499 21 565.5 110Q632 199 632 350Q632 501 565.5 590Q499 679 394 679Q289 679 223 589.5Q157 500 157 350ZM408 765H382L284 913H393Z" glyph-name="Ograve" horiz-adv-x="788" unicode="&#210;" /><glyph d="M49 350Q49 503 149 609Q249 715 394 715Q539 715 639 609Q739 503 739 350Q739 197 639 91Q539 -15 394 -15Q249 -15 149 91Q49 197 49 350ZM157 350Q157 200 223 110.5Q289 21 394 21Q499 21 565.5 110Q632 199 632 350Q632 501 565.5 590Q499 679 394 679Q289 679 223 589.5Q157 500 157 350ZM483 765H457L472 913H581ZM327 765H301L316 913H425Z" glyph-name="Ohungarumlaut" horiz-adv-x="788" unicode="&#336;" /><glyph d="M49 350Q49 503 149 609Q249 715 394 715Q539 715 639 609Q739 503 739 350Q739 197 639 91Q539 -15 394 -15Q249 -15 149 91Q49 197 49 350ZM157 350Q157 200 223 110.5Q289 21 394 21Q499 21 565.5 110Q632 199 632 350Q632 501 565.5 590Q499 679 394 679Q289 679 223 589.5Q157 500 157 350ZM532 794H258V850H532Z" glyph-name="Omacron" horiz-adv-x="788" unicode="&#332;" /><glyph d="M303 351Q303 296 265.5 257.5Q228 219 174 219Q120 219 82.5 257.5Q45 296 45 351Q45 406 82.5 444.5Q120 483 174 483Q228 483 265.5 444.5Q303 406 303 351Z" glyph-name="Omega" horiz-adv-x="348" unicode="&#8486;" /><glyph d="M394 679Q289 679 223 589.5Q157 500 157 350Q157 285 170 230Q183 175 209 132L558 599Q526 638 484 658.5Q442 679 394 679ZM394 21Q499 21 565.5 110Q632 199 632 350Q632 416 619 471.5Q606 527 580 569L230 101Q262 62 304 41.5Q346 21 394 21ZM739 350Q739 197 639 91Q539 -15 394 -15Q338 -15 287 2Q236 19 193 51L120 -47L92 -25L166 74Q110 126 79.5 198Q49 270 49 350Q49 503 149 609Q249 715 394 715Q449 715 500 698Q551 681 595 648L668 746L696 725L622 626Q678 574 708.5 502Q739 430 739 350Z" glyph-name="Oslash" horiz-adv-x="788" unicode="&#216;" /><glyph d="M49 350Q49 503 149 609Q249 715 394 715Q539 715 639 609Q739 503 739 350Q739 197 639 91Q539 -15 394 -15Q249 -15 149 91Q49 197 49 350ZM157 350Q157 200 223 110.5Q289 21 394 21Q499 21 565.5 110Q632 199 632 350Q632 501 565.5 590Q499 679 394 679Q289 679 223 589.5Q157 500 157 350ZM322 813Q305 813 294.5 802Q284 791 281 771L257 776Q258 827 278.5 854Q299 881 335 881Q346 881 360.5 877Q375 873 405 861Q433 850 445.5 846.5Q458 843 467 843Q484 843 495 854Q506 865 508 885L532 879Q531 829 510.5 802Q490 775 454 775Q443 775 428.5 779Q414 783 384 795Q356 806 343.5 809.5Q331 813 322 813Z" glyph-name="Otilde" horiz-adv-x="788" unicode="&#213;" /><glyph d="M323 0H45V25L83 34Q109 40 120.5 55Q132 70 132 98V603Q132 631 120.5 645.5Q109 660 83 666L45 675V700H319Q436 700 506 645.5Q576 591 576 504Q576 417 502 359Q428 301 308 301H295V335Q374 339 425 386Q476 433 476 503Q476 578 425 622.5Q374 667 286 667H226V98Q226 70 238 55.5Q250 41 279 35L323 25Z" glyph-name="P" horiz-adv-x="608" unicode="P" /><glyph d="M749 -156Q706 -156 654.5 -134.5Q603 -113 526 -62L446 -11Q434 -13 421.5 -14Q409 -15 394 -15Q249 -15 149 91Q49 197 49 350Q49 503 149 609Q249 715 394 715Q539 715 639 609Q739 503 739 350Q739 242 686.5 153Q634 64 544 20L708 -61Q733 -75 763 -83.5Q793 -92 816 -92Q836 -92 853 -89Q870 -86 887 -80V-114Q853 -135 818 -145.5Q783 -156 749 -156ZM157 350Q157 200 223 110.5Q289 21 394 21Q499 21 565.5 110Q632 199 632 350Q632 501 565.5 590Q499 679 394 679Q289 679 223 589.5Q157 500 157 350Z" glyph-name="Q" horiz-adv-x="788" unicode="Q" /><glyph d="M226 666V359L329 361Q399 363 439 404Q479 445 479 513Q479 588 430 627Q381 666 288 666ZM336 323H226V98Q226 70 238 55.5Q250 41 279 35L323 25V0H45V25L83 34Q109 40 120.5 55Q132 70 132 98V603Q132 631 120.5 645.5Q109 660 83 666L45 675V700H325Q443 700 512.5 651.5Q582 603 582 519Q582 461 537.5 412.5Q493 364 425 345L531 193Q584 117 620 79.5Q656 42 692 30L707 25V0H622Q582 0 546 28.5Q510 57 467 122Z" glyph-name="R" horiz-adv-x="696" unicode="R" /><glyph d="M226 666V359L329 361Q399 363 439 404Q479 445 479 513Q479 588 430 627Q381 666 288 666ZM336 323H226V98Q226 70 238 55.5Q250 41 279 35L323 25V0H45V25L83 34Q109 40 120.5 55Q132 70 132 98V603Q132 631 120.5 645.5Q109 660 83 666L45 675V700H325Q443 700 512.5 651.5Q582 603 582 519Q582 461 537.5 412.5Q493 364 425 345L531 193Q584 117 620 79.5Q656 42 692 30L707 25V0H622Q582 0 546 28.5Q510 57 467 122ZM334 765H308L323 913H432Z" glyph-name="Racute" horiz-adv-x="696" unicode="&#340;" /><glyph d="M226 666V359L329 361Q399 363 439 404Q479 445 479 513Q479 588 430 627Q381 666 288 666ZM336 323H226V98Q226 70 238 55.5Q250 41 279 35L323 25V0H45V25L83 34Q109 40 120.5 55Q132 70 132 98V603Q132 631 120.5 645.5Q109 660 83 666L45 675V700H325Q443 700 512.5 651.5Q582 603 582 519Q582 461 537.5 412.5Q493 364 425 345L531 193Q584 117 620 79.5Q656 42 692 30L707 25V0H622Q582 0 546 28.5Q510 57 467 122ZM297 765 202 913H237L323 836L409 913H445L349 765Z" glyph-name="Rcaron" horiz-adv-x="696" unicode="&#344;" /><glyph d="M226 666V359L329 361Q399 363 439 404Q479 445 479 513Q479 588 430 627Q381 666 288 666ZM336 323H226V98Q226 70 238 55.5Q250 41 279 35L323 25V0H45V25L83 34Q109 40 120.5 55Q132 70 132 98V603Q132 631 120.5 645.5Q109 660 83 666L45 675V700H325Q443 700 512.5 651.5Q582 603 582 519Q582 461 537.5 412.5Q493 364 425 345L531 193Q584 117 620 79.5Q656 42 692 30L707 25V0H622Q582 0 546 28.5Q510 57 467 122ZM433 -148Q433 -198 401.5 -241Q370 -284 311 -314L296 -299Q339 -268 363 -235Q387 -202 393 -168Q388 -177 374.5 -182.5Q361 -188 347 -188Q320 -188 301.5 -169Q283 -150 283 -123Q283 -96 303 -75.5Q323 -55 352 -55Q387 -55 410 -82Q433 -109 433 -148Z" glyph-name="Rcommaaccent" horiz-adv-x="696" unicode="&#342;" /><glyph d="M513 194Q513 105 445 45Q377 -15 273 -15Q219 -15 160.5 -2Q102 11 66 28V220H98Q108 120 153 71Q198 22 280 22Q344 22 384 59.5Q424 97 424 154Q424 187 409 214Q394 241 363 264Q348 274 328.5 285Q309 296 245 325Q142 375 105 421.5Q68 468 68 529Q68 607 131.5 661Q195 715 297 715Q337 715 388.5 708.5Q440 702 481 693L475 540H442Q431 610 395 644.5Q359 679 295 679Q240 679 200.5 644.5Q161 610 161 560Q161 516 190.5 482.5Q220 449 305 410Q380 375 403.5 361.5Q427 348 445 334Q479 305 496 271Q513 237 513 194Z" glyph-name="S" horiz-adv-x="561" unicode="S" /><glyph d="M513 194Q513 105 445 45Q377 -15 273 -15Q219 -15 160.5 -2Q102 11 66 28V220H98Q108 120 153 71Q198 22 280 22Q344 22 384 59.5Q424 97 424 154Q424 187 409 214Q394 241 363 264Q348 274 328.5 285Q309 296 245 325Q142 375 105 421.5Q68 468 68 529Q68 607 131.5 661Q195 715 297 715Q337 715 388.5 708.5Q440 702 481 693L475 540H442Q431 610 395 644.5Q359 679 295 679Q240 679 200.5 644.5Q161 610 161 560Q161 516 190.5 482.5Q220 449 305 410Q380 375 403.5 361.5Q427 348 445 334Q479 305 496 271Q513 237 513 194ZM293 765H267L282 913H391Z" glyph-name="Sacute" horiz-adv-x="561" unicode="&#346;" /><glyph d="M513 194Q513 105 445 45Q377 -15 273 -15Q219 -15 160.5 -2Q102 11 66 28V220H98Q108 120 153 71Q198 22 280 22Q344 22 384 59.5Q424 97 424 154Q424 187 409 214Q394 241 363 264Q348 274 328.5 285Q309 296 245 325Q142 375 105 421.5Q68 468 68 529Q68 607 131.5 661Q195 715 297 715Q337 715 388.5 708.5Q440 702 481 693L475 540H442Q431 610 395 644.5Q359 679 295 679Q240 679 200.5 644.5Q161 610 161 560Q161 516 190.5 482.5Q220 449 305 410Q380 375 403.5 361.5Q427 348 445 334Q479 305 496 271Q513 237 513 194ZM256 765 161 913H196L282 836L368 913H404L308 765Z" glyph-name="Scaron" horiz-adv-x="561" unicode="&#352;" /><glyph d="M367 -145Q367 -181 337.5 -204.5Q308 -228 263 -228Q234 -228 206.5 -220Q179 -212 160 -199L174 -177Q190 -183 205 -186.5Q220 -190 232 -190Q260 -190 277 -177Q294 -164 294 -142Q294 -120 270.5 -104Q247 -88 214 -84L212 -80L258 -15Q207 -13 153 -0.5Q99 12 66 28V220H98Q108 120 153 71Q198 22 280 22Q344 22 384 59.5Q424 97 424 154Q424 187 409 214Q394 241 363 264Q348 274 328.5 285Q309 296 245 325Q142 375 105 421.5Q68 468 68 529Q68 607 131.5 661Q195 715 297 715Q337 715 388.5 708.5Q440 702 481 693L475 540H442Q431 610 395 644.5Q359 679 295 679Q240 679 200.5 644.5Q161 610 161 560Q161 516 190.5 482.5Q220 449 305 410Q380 375 403.5 361.5Q427 348 445 334Q479 305 496 271Q513 237 513 194Q513 110 450.5 50.5Q388 -9 291 -14L274 -61Q311 -66 339 -88.5Q367 -111 367 -145Z" glyph-name="Scedilla" horiz-adv-x="562" unicode="&#350;" /><glyph d="M513 194Q513 105 445 45Q377 -15 273 -15Q219 -15 160.5 -2Q102 11 66 28V220H98Q108 120 153 71Q198 22 280 22Q344 22 384 59.5Q424 97 424 154Q424 187 409 214Q394 241 363 264Q348 274 328.5 285Q309 296 245 325Q142 375 105 421.5Q68 468 68 529Q68 607 131.5 661Q195 715 297 715Q337 715 388.5 708.5Q440 702 481 693L475 540H442Q431 610 395 644.5Q359 679 295 679Q240 679 200.5 644.5Q161 610 161 560Q161 516 190.5 482.5Q220 449 305 410Q380 375 403.5 361.5Q427 348 445 334Q479 305 496 271Q513 237 513 194ZM196 765H161L256 913H308L404 765H368L282 843Z" glyph-name="Scircumflex" horiz-adv-x="561" unicode="&#348;" /><glyph d="M513 194Q513 105 445 45Q377 -15 273 -15Q219 -15 160.5 -2Q102 11 66 28V220H98Q108 120 153 71Q198 22 280 22Q344 22 384 59.5Q424 97 424 154Q424 187 409 214Q394 241 363 264Q348 274 328.5 285Q309 296 245 325Q142 375 105 421.5Q68 468 68 529Q68 607 131.5 661Q195 715 297 715Q337 715 388.5 708.5Q440 702 481 693L475 540H442Q431 610 395 644.5Q359 679 295 679Q240 679 200.5 644.5Q161 610 161 560Q161 516 190.5 482.5Q220 449 305 410Q380 375 403.5 361.5Q427 348 445 334Q479 305 496 271Q513 237 513 194ZM364 -148Q364 -198 332.5 -241Q301 -284 242 -314L227 -299Q270 -268 294 -235Q318 -202 324 -168Q319 -177 305.5 -182.5Q292 -188 278 -188Q251 -188 232.5 -169Q214 -150 214 -123Q214 -96 234 -75.5Q254 -55 283 -55Q318 -55 341 -82Q364 -109 364 -148Z" glyph-name="Scommaaccent" horiz-adv-x="561" unicode="&#536;" /><glyph d="M435 35 480 25V0H191V25L236 35Q265 41 277 55.5Q289 70 289 98V664H153Q125 664 109 650Q93 636 82 602L62 521H31V700H641V521H610L590 602Q578 637 562 650.5Q546 664 518 664H383V98Q383 70 395 55.5Q407 41 435 35Z" glyph-name="T" horiz-adv-x="672" unicode="T" /><glyph d="M435 35 480 25V0H191V25L236 35Q265 41 277 55.5Q289 70 289 98V342H162V384H289V664H153Q125 664 109 650Q93 636 82 602L62 521H31V700H641V521H610L590 602Q578 637 562 650.5Q546 664 518 664H383V384H510V342H383V98Q383 70 395 55.5Q407 41 435 35Z" glyph-name="Tbar" horiz-adv-x="672" unicode="&#358;" /><glyph d="M435 35 480 25V0H191V25L236 35Q265 41 277 55.5Q289 70 289 98V664H153Q125 664 109 650Q93 636 82 602L62 521H31V700H641V521H610L590 602Q578 637 562 650.5Q546 664 518 664H383V98Q383 70 395 55.5Q407 41 435 35ZM309 765 214 913H249L335 836L421 913H457L361 765Z" glyph-name="Tcaron" horiz-adv-x="672" unicode="&#356;" /><glyph d="M425 -145Q425 -181 395.5 -204.5Q366 -228 321 -228Q292 -228 264.5 -220Q237 -212 218 -199L232 -177Q248 -183 263 -186.5Q278 -190 290 -190Q318 -190 335 -177Q352 -164 352 -142Q352 -120 328.5 -104Q305 -88 272 -84L270 -80L327 0H191V25L236 35Q265 41 277 55.5Q289 70 289 98V664H153Q125 664 109 650Q93 636 82 602L62 521H31V700H641V521H610L590 602Q578 637 562 650.5Q546 664 518 664H383V98Q383 70 395 55.5Q407 41 435 35L480 25V0H354L332 -61Q369 -66 397 -88.5Q425 -111 425 -145Z" glyph-name="Tcedilla" horiz-adv-x="672" /><glyph d="M411 -148Q411 -198 379.5 -241Q348 -284 289 -314L274 -299Q317 -268 341 -235Q365 -202 371 -168Q366 -177 352.5 -182.5Q339 -188 325 -188Q298 -188 279.5 -169Q261 -150 261 -123Q261 -96 281 -75.5Q301 -55 330 -55Q365 -55 388 -82Q411 -109 411 -148ZM435 35 480 25V0H191V25L236 35Q265 41 277 55.5Q289 70 289 98V664H153Q125 664 109 650Q93 636 82 602L62 521H31V700H641V521H610L590 602Q578 637 562 650.5Q546 664 518 664H383V98Q383 70 395 55.5Q407 41 435 35Z" glyph-name="Tcommaaccent" horiz-adv-x="672" unicode="&#354;" /><glyph d="M226 603V545H313Q430 545 500 491Q570 437 570 350Q570 262 499.5 207.5Q429 153 309 153H296V186Q375 190 422 234Q469 278 469 348Q469 424 418.5 468Q368 512 280 512H226V98Q226 70 238 55.5Q250 41 279 35L323 25V0H45V25L83 34Q109 40 120.5 55Q132 70 132 98V603Q132 631 120.5 645.5Q109 660 83 666L45 675V700H316V675L276 666Q250 660 238 645Q226 630 226 603Z" glyph-name="Thorn" horiz-adv-x="603" unicode="&#222;" /><glyph d="M744 0H562L564 119H562Q537 62 478.5 23.5Q420 -15 348 -15Q241 -15 179.5 49.5Q118 114 118 227V603Q118 631 106.5 645.5Q95 660 69 666L31 675V700H300V675L262 666Q236 659 224 644.5Q212 630 212 603V240Q212 147 257 97.5Q302 48 385 48Q462 47 512.5 101Q563 155 563 228V603Q563 630 551.5 644.5Q540 659 514 666L475 675V700H744V675L706 666Q680 660 668.5 645.5Q657 631 657 603V98Q657 70 668.5 55Q680 40 706 34L744 25Z" glyph-name="U" horiz-adv-x="789" unicode="U" /><glyph d="M389 -15Q262 -15 190 50.5Q118 116 118 230V603Q118 631 106.5 645.5Q95 660 69 666L31 675V700H300V675L261 666Q235 659 223.5 644.5Q212 630 212 603V233Q212 136 263 81.5Q314 27 404 27Q499 27 555 84Q611 141 611 234V603Q611 631 599.5 645.5Q588 660 562 666L524 675V700H746V675L708 666Q682 660 670.5 645.5Q659 631 659 603V234Q659 122 585 53.5Q511 -15 389 -15Z" glyph-name="U.alt" horiz-adv-x="777" /><glyph d="M744 0H562L564 119H562Q537 62 478.5 23.5Q420 -15 348 -15Q241 -15 179.5 49.5Q118 114 118 227V603Q118 631 106.5 645.5Q95 660 69 666L31 675V700H300V675L262 666Q236 659 224 644.5Q212 630 212 603V240Q212 147 257 97.5Q302 48 385 48Q462 47 512.5 101Q563 155 563 228V603Q563 630 551.5 644.5Q540 659 514 666L475 675V700H744V675L706 666Q680 660 668.5 645.5Q657 631 657 603V98Q657 70 668.5 55Q680 40 706 34L744 25ZM398 765H372L387 913H496Z" glyph-name="Uacute" horiz-adv-x="789" unicode="&#218;" /><glyph d="M401 765H375L390 913H499ZM389 -15Q262 -15 190 50.5Q118 116 118 230V603Q118 631 106.5 645.5Q95 660 69 666L31 675V700H300V675L261 666Q235 659 223.5 644.5Q212 630 212 603V233Q212 136 263 81.5Q314 27 404 27Q499 27 555 84Q611 141 611 234V603Q611 631 599.5 645.5Q588 660 562 666L524 675V700H746V675L708 666Q682 660 670.5 645.5Q659 631 659 603V234Q659 122 585 53.5Q511 -15 389 -15Z" glyph-name="Uacute.alt" horiz-adv-x="777" /><glyph d="M744 0H562L564 119H562Q537 62 478.5 23.5Q420 -15 348 -15Q241 -15 179.5 49.5Q118 114 118 227V603Q118 631 106.5 645.5Q95 660 69 666L31 675V700H300V675L262 666Q236 659 224 644.5Q212 630 212 603V240Q212 147 257 97.5Q302 48 385 48Q462 47 512.5 101Q563 155 563 228V603Q563 630 551.5 644.5Q540 659 514 666L475 675V700H744V675L706 666Q680 660 668.5 645.5Q657 631 657 603V98Q657 70 668.5 55Q680 40 706 34L744 25ZM387 764Q328 764 294.5 797Q261 830 261 881V905H298V899Q298 869 321.5 850Q345 831 387 831Q429 831 453 850Q477 869 477 899V905H514V881Q514 829 480.5 796.5Q447 764 387 764Z" glyph-name="Ubreve" horiz-adv-x="789" unicode="&#364;" /><glyph d="M393 764Q334 764 300.5 797Q267 830 267 881V905H304V899Q304 869 327.5 850Q351 831 393 831Q435 831 459 850Q483 869 483 899V905H520V881Q520 829 486.5 796.5Q453 764 393 764ZM389 -15Q262 -15 190 50.5Q118 116 118 230V603Q118 631 106.5 645.5Q95 660 69 666L31 675V700H300V675L261 666Q235 659 223.5 644.5Q212 630 212 603V233Q212 136 263 81.5Q314 27 404 27Q499 27 555 84Q611 141 611 234V603Q611 631 599.5 645.5Q588 660 562 666L524 675V700H746V675L708 666Q682 660 670.5 645.5Q659 631 659 603V234Q659 122 585 53.5Q511 -15 389 -15Z" glyph-name="Ubreve.alt" horiz-adv-x="777" /><glyph d="M744 0H562L564 119H562Q537 62 478.5 23.5Q420 -15 348 -15Q241 -15 179.5 49.5Q118 114 118 227V603Q118 631 106.5 645.5Q95 660 69 666L31 675V700H300V675L262 666Q236 659 224 644.5Q212 630 212 603V240Q212 147 257 97.5Q302 48 385 48Q462 47 512.5 101Q563 155 563 228V603Q563 630 551.5 644.5Q540 659 514 666L475 675V700H744V675L706 666Q680 660 668.5 645.5Q657 631 657 603V98Q657 70 668.5 55Q680 40 706 34L744 25ZM301 765H266L361 913H413L509 765H473L387 843Z" glyph-name="Ucircumflex" horiz-adv-x="789" unicode="&#219;" /><glyph d="M307 765H272L367 913H419L515 765H479L393 843ZM389 -15Q262 -15 190 50.5Q118 116 118 230V603Q118 631 106.5 645.5Q95 660 69 666L31 675V700H300V675L261 666Q235 659 223.5 644.5Q212 630 212 603V233Q212 136 263 81.5Q314 27 404 27Q499 27 555 84Q611 141 611 234V603Q611 631 599.5 645.5Q588 660 562 666L524 675V700H746V675L708 666Q682 660 670.5 645.5Q659 631 659 603V234Q659 122 585 53.5Q511 -15 389 -15Z" glyph-name="Ucircumflex.alt" horiz-adv-x="777" /><glyph d="M744 0H562L564 119H562Q537 62 478.5 23.5Q420 -15 348 -15Q241 -15 179.5 49.5Q118 114 118 227V603Q118 631 106.5 645.5Q95 660 69 666L31 675V700H300V675L262 666Q236 659 224 644.5Q212 630 212 603V240Q212 147 257 97.5Q302 48 385 48Q462 47 512.5 101Q563 155 563 228V603Q563 630 551.5 644.5Q540 659 514 666L475 675V700H744V675L706 666Q680 660 668.5 645.5Q657 631 657 603V98Q657 70 668.5 55Q680 40 706 34L744 25ZM526 841Q526 817 509.5 800.5Q493 784 470 784Q446 784 429.5 800.5Q413 817 413 841Q413 864 429.5 880.5Q446 897 470 897Q493 897 509.5 880.5Q526 864 526 841ZM363 841Q363 817 346.5 800.5Q330 784 306 784Q282 784 265.5 800.5Q249 817 249 841Q249 864 265.5 880.5Q282 897 306 897Q329 897 346 880.5Q363 864 363 841Z" glyph-name="Udieresis" horiz-adv-x="789" unicode="&#220;" /><glyph d="M532 841Q532 817 515.5 800.5Q499 784 476 784Q452 784 435.5 800.5Q419 817 419 841Q419 864 435.5 880.5Q452 897 476 897Q499 897 515.5 880.5Q532 864 532 841ZM369 841Q369 817 352.5 800.5Q336 784 312 784Q288 784 271.5 800.5Q255 817 255 841Q255 864 271.5 880.5Q288 897 312 897Q335 897 352 880.5Q369 864 369 841ZM389 -15Q262 -15 190 50.5Q118 116 118 230V603Q118 631 106.5 645.5Q95 660 69 666L31 675V700H300V675L261 666Q235 659 223.5 644.5Q212 630 212 603V233Q212 136 263 81.5Q314 27 404 27Q499 27 555 84Q611 141 611 234V603Q611 631 599.5 645.5Q588 660 562 666L524 675V700H746V675L708 666Q682 660 670.5 645.5Q659 631 659 603V234Q659 122 585 53.5Q511 -15 389 -15Z" glyph-name="Udieresis.alt" horiz-adv-x="777" /><glyph d="M744 0H562L564 119H562Q537 62 478.5 23.5Q420 -15 348 -15Q241 -15 179.5 49.5Q118 114 118 227V603Q118 631 106.5 645.5Q95 660 69 666L31 675V700H300V675L262 666Q236 659 224 644.5Q212 630 212 603V240Q212 147 257 97.5Q302 48 385 48Q462 47 512.5 101Q563 155 563 228V603Q563 630 551.5 644.5Q540 659 514 666L475 675V700H744V675L706 666Q680 660 668.5 645.5Q657 631 657 603V98Q657 70 668.5 55Q680 40 706 34L744 25ZM402 765H376L278 913H387Z" glyph-name="Ugrave" horiz-adv-x="789" unicode="&#217;" /><glyph d="M389 -15Q262 -15 190 50.5Q118 116 118 230V603Q118 631 106.5 645.5Q95 660 69 666L31 675V700H300V675L261 666Q235 659 223.5 644.5Q212 630 212 603V233Q212 136 263 81.5Q314 27 404 27Q499 27 555 84Q611 141 611 234V603Q611 631 599.5 645.5Q588 660 562 666L524 675V700H746V675L708 666Q682 660 670.5 645.5Q659 631 659 603V234Q659 122 585 53.5Q511 -15 389 -15ZM417 765H391L293 913H402Z" glyph-name="Ugrave.alt" horiz-adv-x="777" /><glyph d="M744 0H562L564 119H562Q537 62 478.5 23.5Q420 -15 348 -15Q241 -15 179.5 49.5Q118 114 118 227V603Q118 631 106.5 645.5Q95 660 69 666L31 675V700H300V675L262 666Q236 659 224 644.5Q212 630 212 603V240Q212 147 257 97.5Q302 48 385 48Q462 47 512.5 101Q563 155 563 228V603Q563 630 551.5 644.5Q540 659 514 666L475 675V700H744V675L706 666Q680 660 668.5 645.5Q657 631 657 603V98Q657 70 668.5 55Q680 40 706 34L744 25ZM476 765H450L465 913H574ZM320 765H294L309 913H418Z" glyph-name="Uhungarumlaut" horiz-adv-x="789" unicode="&#368;" /><glyph d="M479 765H453L468 913H577ZM323 765H297L312 913H421ZM389 -15Q262 -15 190 50.5Q118 116 118 230V603Q118 631 106.5 645.5Q95 660 69 666L31 675V700H300V675L261 666Q235 659 223.5 644.5Q212 630 212 603V233Q212 136 263 81.5Q314 27 404 27Q499 27 555 84Q611 141 611 234V603Q611 631 599.5 645.5Q588 660 562 666L524 675V700H746V675L708 666Q682 660 670.5 645.5Q659 631 659 603V234Q659 122 585 53.5Q511 -15 389 -15Z" glyph-name="Uhungarumlaut.alt" horiz-adv-x="777" /><glyph d="M744 0H562L564 119H562Q537 62 478.5 23.5Q420 -15 348 -15Q241 -15 179.5 49.5Q118 114 118 227V603Q118 631 106.5 645.5Q95 660 69 666L31 675V700H300V675L262 666Q236 659 224 644.5Q212 630 212 603V240Q212 147 257 97.5Q302 48 385 48Q462 47 512.5 101Q563 155 563 228V603Q563 630 551.5 644.5Q540 659 514 666L475 675V700H744V675L706 666Q680 660 668.5 645.5Q657 631 657 603V98Q657 70 668.5 55Q680 40 706 34L744 25ZM525 794H251V850H525Z" glyph-name="Umacron" horiz-adv-x="789" unicode="&#362;" /><glyph d="M530 794H256V850H530ZM389 -15Q262 -15 190 50.5Q118 116 118 230V603Q118 631 106.5 645.5Q95 660 69 666L31 675V700H300V675L261 666Q235 659 223.5 644.5Q212 630 212 603V233Q212 136 263 81.5Q314 27 404 27Q499 27 555 84Q611 141 611 234V603Q611 631 599.5 645.5Q588 660 562 666L524 675V700H746V675L708 666Q682 660 670.5 645.5Q659 631 659 603V234Q659 122 585 53.5Q511 -15 389 -15Z" glyph-name="Umacron.alt" horiz-adv-x="777" /><glyph d="M711 -154 706 -178Q691 -185 673 -189Q655 -193 638 -193Q600 -193 575 -173Q550 -153 550 -118Q550 -86 575.5 -54.5Q601 -23 644 0H562L564 119H562Q537 62 478.5 23.5Q420 -15 348 -15Q241 -15 179.5 49.5Q118 114 118 227V603Q118 631 106.5 645.5Q95 660 69 666L31 675V700H300V675L262 666Q236 659 224 644.5Q212 630 212 603V240Q212 147 257 97.5Q302 48 385 48Q462 47 512.5 101Q563 155 563 228V603Q563 630 551.5 644.5Q540 659 514 666L475 675V700H744V675L706 666Q680 660 668.5 645.5Q657 631 657 603V98Q657 70 668.5 55Q680 40 706 34L744 25V0H680Q653 -30 638 -57Q623 -84 623 -105Q623 -128 642 -142Q661 -156 689 -156Q693 -156 698 -155.5Q703 -155 711 -154Z" glyph-name="Uogonek" horiz-adv-x="789" unicode="&#370;" /><glyph d="M456 -193Q418 -193 393 -173Q368 -153 368 -118Q368 -90 387.5 -62Q407 -34 443 -11Q431 -13 418 -14Q405 -15 389 -15Q262 -15 190 50.5Q118 116 118 230V603Q118 631 106.5 645.5Q95 660 69 666L31 675V700H300V675L261 666Q235 659 223.5 644.5Q212 630 212 603V233Q212 136 263 81.5Q314 27 404 27Q499 27 555 84Q611 141 611 234V603Q611 631 599.5 645.5Q588 660 562 666L524 675V700H746V675L708 666Q682 660 670.5 645.5Q659 631 659 603V234Q659 152 617 91Q575 30 501 3Q472 -29 456.5 -56.5Q441 -84 441 -105Q441 -128 460 -142Q479 -156 507 -156Q511 -156 516 -155.5Q521 -155 529 -154L524 -178Q509 -185 491 -189Q473 -193 456 -193Z" glyph-name="Uogonek.alt" horiz-adv-x="777" /><glyph d="M744 0H562L564 119H562Q537 62 478.5 23.5Q420 -15 348 -15Q241 -15 179.5 49.5Q118 114 118 227V603Q118 631 106.5 645.5Q95 660 69 666L31 675V700H300V675L262 666Q236 659 224 644.5Q212 630 212 603V240Q212 147 257 97.5Q302 48 385 48Q462 47 512.5 101Q563 155 563 228V603Q563 630 551.5 644.5Q540 659 514 666L475 675V700H744V675L706 666Q680 660 668.5 645.5Q657 631 657 603V98Q657 70 668.5 55Q680 40 706 34L744 25ZM488 855Q488 814 458.5 785Q429 756 388 756Q346 756 317 785Q288 814 288 855Q288 896 317.5 925.5Q347 955 388 955Q429 955 458.5 925.5Q488 896 488 855ZM324 855Q324 828 342.5 809Q361 790 388 790Q414 790 432.5 809Q451 828 451 855Q451 882 432 901.5Q413 921 388 921Q361 921 342.5 901.5Q324 882 324 855Z" glyph-name="Uring" horiz-adv-x="789" unicode="&#366;" /><glyph d="M493 855Q493 814 463.5 785Q434 756 393 756Q351 756 322 785Q293 814 293 855Q293 896 322.5 925.5Q352 955 393 955Q434 955 463.5 925.5Q493 896 493 855ZM329 855Q329 828 347.5 809Q366 790 393 790Q419 790 437.5 809Q456 828 456 855Q456 882 437 901.5Q418 921 393 921Q366 921 347.5 901.5Q329 882 329 855ZM389 -15Q262 -15 190 50.5Q118 116 118 230V603Q118 631 106.5 645.5Q95 660 69 666L31 675V700H300V675L261 666Q235 659 223.5 644.5Q212 630 212 603V233Q212 136 263 81.5Q314 27 404 27Q499 27 555 84Q611 141 611 234V603Q611 631 599.5 645.5Q588 660 562 666L524 675V700H746V675L708 666Q682 660 670.5 645.5Q659 631 659 603V234Q659 122 585 53.5Q511 -15 389 -15Z" glyph-name="Uring.alt" horiz-adv-x="777" /><glyph d="M744 0H562L564 119H562Q537 62 478.5 23.5Q420 -15 348 -15Q241 -15 179.5 49.5Q118 114 118 227V603Q118 631 106.5 645.5Q95 660 69 666L31 675V700H300V675L262 666Q236 659 224 644.5Q212 630 212 603V240Q212 147 257 97.5Q302 48 385 48Q462 47 512.5 101Q563 155 563 228V603Q563 630 551.5 644.5Q540 659 514 666L475 675V700H744V675L706 666Q680 660 668.5 645.5Q657 631 657 603V98Q657 70 668.5 55Q680 40 706 34L744 25ZM315 813Q298 813 287.5 802Q277 791 274 771L250 776Q251 827 271.5 854Q292 881 328 881Q339 881 353.5 877Q368 873 398 861Q426 850 438.5 846.5Q451 843 460 843Q477 843 488 854Q499 865 501 885L525 879Q524 829 503.5 802Q483 775 447 775Q436 775 421.5 779Q407 783 377 795Q349 806 336.5 809.5Q324 813 315 813Z" glyph-name="Utilde" horiz-adv-x="789" unicode="&#360;" /><glyph d="M321 813Q304 813 293.5 802Q283 791 280 771L256 776Q257 827 277.5 854Q298 881 334 881Q345 881 359.5 877Q374 873 404 861Q432 850 444.5 846.5Q457 843 466 843Q483 843 494 854Q505 865 507 885L531 879Q530 829 509.5 802Q489 775 453 775Q442 775 427.5 779Q413 783 383 795Q355 806 342.5 809.5Q330 813 321 813ZM389 -15Q262 -15 190 50.5Q118 116 118 230V603Q118 631 106.5 645.5Q95 660 69 666L31 675V700H300V675L261 666Q235 659 223.5 644.5Q212 630 212 603V233Q212 136 263 81.5Q314 27 404 27Q499 27 555 84Q611 141 611 234V603Q611 631 599.5 645.5Q588 660 562 666L524 675V700H746V675L708 666Q682 660 670.5 645.5Q659 631 659 603V234Q659 122 585 53.5Q511 -15 389 -15Z" glyph-name="Utilde.alt" horiz-adv-x="777" /><glyph d="M2 675V700H286V675L236 666Q208 661 201 645Q194 629 204 600L387 69H389L563 588Q575 623 567.5 641.5Q560 660 530 666L478 675V700H717V675L688 666Q659 659 642.5 642.5Q626 626 615 594L402 0H316L104 594Q93 624 77 640.5Q61 657 30 666Z" glyph-name="V" horiz-adv-x="718" unicode="V" /><glyph d="M314 0 104 594Q93 624 77 640.5Q61 657 31 666L2 675V700H285V675L234 666Q209 662 201.5 645.5Q194 629 204 600L383 79H385L522 484L453 700H558L748 79H750L921 588Q932 624 925 642Q918 660 888 666L836 675V700H1075V675L1046 666Q1017 659 1000.5 642.5Q984 626 973 594L763 0H680L544 426H542L397 0Z" glyph-name="W" horiz-adv-x="1077" unicode="W" /><glyph d="M314 0 104 594Q93 624 77 640.5Q61 657 31 666L2 675V700H285V675L234 666Q209 662 201.5 645.5Q194 629 204 600L383 79H385L522 484L453 700H558L748 79H750L921 588Q932 624 925 642Q918 660 888 666L836 675V700H1075V675L1046 666Q1017 659 1000.5 642.5Q984 626 973 594L763 0H680L544 426H542L397 0ZM536 765H510L525 913H634Z" glyph-name="Wacute" horiz-adv-x="1077" unicode="&#7810;" /><glyph d="M314 0 104 594Q93 624 77 640.5Q61 657 31 666L2 675V700H285V675L234 666Q209 662 201.5 645.5Q194 629 204 600L383 79H385L522 484L453 700H558L748 79H750L921 588Q932 624 925 642Q918 660 888 666L836 675V700H1075V675L1046 666Q1017 659 1000.5 642.5Q984 626 973 594L763 0H680L544 426H542L397 0ZM439 765H404L499 913H551L647 765H611L525 843Z" glyph-name="Wcircumflex" horiz-adv-x="1077" unicode="&#372;" /><glyph d="M314 0 104 594Q93 624 77 640.5Q61 657 31 666L2 675V700H285V675L234 666Q209 662 201.5 645.5Q194 629 204 600L383 79H385L522 484L453 700H558L748 79H750L921 588Q932 624 925 642Q918 660 888 666L836 675V700H1075V675L1046 666Q1017 659 1000.5 642.5Q984 626 973 594L763 0H680L544 426H542L397 0ZM664 841Q664 817 647.5 800.5Q631 784 608 784Q584 784 567.5 800.5Q551 817 551 841Q551 864 567.5 880.5Q584 897 608 897Q631 897 647.5 880.5Q664 864 664 841ZM501 841Q501 817 484.5 800.5Q468 784 444 784Q420 784 403.5 800.5Q387 817 387 841Q387 864 403.5 880.5Q420 897 444 897Q467 897 484 880.5Q501 864 501 841Z" glyph-name="Wdieresis" horiz-adv-x="1077" unicode="&#7812;" /><glyph d="M314 0 104 594Q93 624 77 640.5Q61 657 31 666L2 675V700H285V675L234 666Q209 662 201.5 645.5Q194 629 204 600L383 79H385L522 484L453 700H558L748 79H750L921 588Q932 624 925 642Q918 660 888 666L836 675V700H1075V675L1046 666Q1017 659 1000.5 642.5Q984 626 973 594L763 0H680L544 426H542L397 0ZM540 765H514L416 913H525Z" glyph-name="Wgrave" horiz-adv-x="1077" unicode="&#7808;" /><glyph d="M246 0H1V25L26 33Q50 41 66.5 54.5Q83 68 103 96L287 349L120 604Q100 633 84 647Q68 661 49 666L17 675V700H176L357 412L484 602Q501 628 492.5 644.5Q484 661 453 666L400 675V700H640V675L618 668Q595 660 580 647.5Q565 635 542 604L377 383L565 96Q580 72 598.5 57Q617 42 640 34L669 25V0H509L308 320L163 98Q145 72 152.5 56Q160 40 192 34L246 25Z" glyph-name="X" horiz-adv-x="666" unicode="X" /><glyph d="M442 35 487 25V0H198V25L243 35Q271 41 283.5 55.5Q296 70 296 98V307L101 604Q81 634 65.5 648Q50 662 33 667L5 675V700H286V675L236 666Q208 661 202 645Q196 629 212 603L372 352H374L520 602Q536 629 529 644.5Q522 660 489 666L434 675V700H680V675L652 667Q634 661 617.5 646.5Q601 632 583 604L390 308V98Q390 70 402 55.5Q414 41 442 35Z" glyph-name="Y" horiz-adv-x="685" unicode="Y" /><glyph d="M442 35 487 25V0H198V25L243 35Q271 41 283.5 55.5Q296 70 296 98V307L101 604Q81 634 65.5 648Q50 662 33 667L5 675V700H286V675L236 666Q208 661 202 645Q196 629 212 603L372 352H374L520 602Q536 629 529 644.5Q522 660 489 666L434 675V700H680V675L652 667Q634 661 617.5 646.5Q601 632 583 604L390 308V98Q390 70 402 55.5Q414 41 442 35ZM356 765H330L345 913H454Z" glyph-name="Yacute" horiz-adv-x="685" unicode="&#221;" /><glyph d="M442 35 487 25V0H198V25L243 35Q271 41 283.5 55.5Q296 70 296 98V307L101 604Q81 634 65.5 648Q50 662 33 667L5 675V700H286V675L236 666Q208 661 202 645Q196 629 212 603L372 352H374L520 602Q536 629 529 644.5Q522 660 489 666L434 675V700H680V675L652 667Q634 661 617.5 646.5Q601 632 583 604L390 308V98Q390 70 402 55.5Q414 41 442 35ZM259 765H224L319 913H371L467 765H431L345 843Z" glyph-name="Ycircumflex" horiz-adv-x="685" unicode="&#374;" /><glyph d="M442 35 487 25V0H198V25L243 35Q271 41 283.5 55.5Q296 70 296 98V307L101 604Q81 634 65.5 648Q50 662 33 667L5 675V700H286V675L236 666Q208 661 202 645Q196 629 212 603L372 352H374L520 602Q536 629 529 644.5Q522 660 489 666L434 675V700H680V675L652 667Q634 661 617.5 646.5Q601 632 583 604L390 308V98Q390 70 402 55.5Q414 41 442 35ZM484 841Q484 817 467.5 800.5Q451 784 428 784Q404 784 387.5 800.5Q371 817 371 841Q371 864 387.5 880.5Q404 897 428 897Q451 897 467.5 880.5Q484 864 484 841ZM321 841Q321 817 304.5 800.5Q288 784 264 784Q240 784 223.5 800.5Q207 817 207 841Q207 864 223.5 880.5Q240 897 264 897Q287 897 304 880.5Q321 864 321 841Z" glyph-name="Ydieresis" horiz-adv-x="685" unicode="&#376;" /><glyph d="M442 35 487 25V0H198V25L243 35Q271 41 283.5 55.5Q296 70 296 98V307L101 604Q81 634 65.5 648Q50 662 33 667L5 675V700H286V675L236 666Q208 661 202 645Q196 629 212 603L372 352H374L520 602Q536 629 529 644.5Q522 660 489 666L434 675V700H680V675L652 667Q634 661 617.5 646.5Q601 632 583 604L390 308V98Q390 70 402 55.5Q414 41 442 35ZM360 765H334L236 913H345Z" glyph-name="Ygrave" horiz-adv-x="685" unicode="&#7922;" /><glyph d="M33 24 468 666 174 663Q151 663 137.5 652Q124 641 110 604L89 541H57L55 708Q104 704 159.5 702Q215 700 277 700H585V676L148 34L429 36Q478 36 504 57Q530 78 558 150L578 201H610L593 0H33Z" glyph-name="Z" horiz-adv-x="648" unicode="Z" /><glyph d="M33 24 468 666 174 663Q151 663 137.5 652Q124 641 110 604L89 541H57L55 708Q104 704 159.5 702Q215 700 277 700H585V676L148 34L429 36Q478 36 504 57Q530 78 558 150L578 201H610L593 0H33ZM327 765H301L316 913H425Z" glyph-name="Zacute" horiz-adv-x="648" unicode="&#377;" /><glyph d="M33 24 468 666 174 663Q151 663 137.5 652Q124 641 110 604L89 541H57L55 708Q104 704 159.5 702Q215 700 277 700H585V676L148 34L429 36Q478 36 504 57Q530 78 558 150L578 201H610L593 0H33ZM290 765 195 913H230L316 836L402 913H438L342 765Z" glyph-name="Zcaron" horiz-adv-x="648" unicode="&#381;" /><glyph d="M33 24 468 666 174 663Q151 663 137.5 652Q124 641 110 604L89 541H57L55 708Q104 704 159.5 702Q215 700 277 700H585V676L148 34L429 36Q478 36 504 57Q530 78 558 150L578 201H610L593 0H33ZM383 838Q383 810 363.5 790.5Q344 771 316 771Q288 771 269 790.5Q250 810 250 838Q250 866 269 885Q288 904 316 904Q344 904 363.5 885Q383 866 383 838Z" glyph-name="Zdotaccent" horiz-adv-x="648" unicode="&#379;" /><glyph d="M40 104Q40 141 64 172Q88 203 128 217L295 279V340Q295 391 268 418.5Q241 446 191 446Q156 446 131.5 433.5Q107 421 107 406Q107 402 109.5 398.5Q112 395 121 389Q135 379 139.5 371.5Q144 364 144 354Q144 336 131.5 324Q119 312 100 312Q81 312 67.5 326.5Q54 341 54 363Q54 413 107.5 453Q161 493 227 493Q298 493 339.5 454.5Q381 416 381 348V88Q381 63 390.5 50.5Q400 38 419 38Q427 38 437 41.5Q447 45 455 50L462 35Q449 14 423.5 -0.5Q398 -15 372 -15Q342 -15 322 3Q302 21 298 51H296Q274 21 238 3Q202 -15 164 -15Q110 -15 75 19.5Q40 54 40 104ZM129 121Q129 86 152 63.5Q175 41 209 41Q229 41 252 51Q275 61 295 78V251L186 200Q159 188 144 167Q129 146 129 121Z" glyph-name="a" horiz-adv-x="471" unicode="a" /><glyph d="M370 -15Q340 -15 320 3Q300 21 296 51H294Q271 21 235.5 3Q200 -15 162 -15Q109 -15 73.5 19.5Q38 54 38 104Q38 141 62 172Q86 203 127 217L293 279V330Q293 380 265.5 408.5Q238 437 192 437Q159 437 129.5 421.5Q100 406 74 375L48 390Q70 433 119.5 463Q169 493 223 493Q296 493 337.5 454Q379 415 379 345V88Q379 63 388.5 50.5Q398 38 417 38Q425 38 435 41.5Q445 45 452 50L460 35Q447 14 421.5 -0.5Q396 -15 370 -15ZM127 121Q127 86 150.5 63.5Q174 41 208 41Q227 41 249.5 50.5Q272 60 293 77V251L185 200Q158 189 142.5 168Q127 147 127 121Z" glyph-name="a.alt" horiz-adv-x="470" /><glyph d="M40 104Q40 141 64 172Q88 203 128 217L295 279V340Q295 391 268 418.5Q241 446 191 446Q156 446 131.5 433.5Q107 421 107 406Q107 402 109.5 398.5Q112 395 121 389Q135 379 139.5 371.5Q144 364 144 354Q144 336 131.5 324Q119 312 100 312Q81 312 67.5 326.5Q54 341 54 363Q54 413 107.5 453Q161 493 227 493Q298 493 339.5 454.5Q381 416 381 348V88Q381 63 390.5 50.5Q400 38 419 38Q427 38 437 41.5Q447 45 455 50L462 35Q449 14 423.5 -0.5Q398 -15 372 -15Q342 -15 322 3Q302 21 298 51H296Q274 21 238 3Q202 -15 164 -15Q110 -15 75 19.5Q40 54 40 104ZM129 121Q129 86 152 63.5Q175 41 209 41Q229 41 252 51Q275 61 295 78V251L186 200Q159 188 144 167Q129 146 129 121ZM230 554H204L219 702H328Z" glyph-name="aacute" horiz-adv-x="471" unicode="&#225;" /><glyph d="M370 -15Q340 -15 320 3Q300 21 296 51H294Q271 21 235.5 3Q200 -15 162 -15Q109 -15 73.5 19.5Q38 54 38 104Q38 141 62 172Q86 203 127 217L293 279V330Q293 380 265.5 408.5Q238 437 192 437Q159 437 129.5 421.5Q100 406 74 375L48 390Q70 433 119.5 463Q169 493 223 493Q296 493 337.5 454Q379 415 379 345V88Q379 63 388.5 50.5Q398 38 417 38Q425 38 435 41.5Q445 45 452 50L460 35Q447 14 421.5 -0.5Q396 -15 370 -15ZM127 121Q127 86 150.5 63.5Q174 41 208 41Q227 41 249.5 50.5Q272 60 293 77V251L185 200Q158 189 142.5 168Q127 147 127 121ZM229 554H203L218 702H327Z" glyph-name="aacute.alt" horiz-adv-x="470" /><glyph d="M40 104Q40 141 64 172Q88 203 128 217L295 279V340Q295 391 268 418.5Q241 446 191 446Q156 446 131.5 433.5Q107 421 107 406Q107 402 109.5 398.5Q112 395 121 389Q135 379 139.5 371.5Q144 364 144 354Q144 336 131.5 324Q119 312 100 312Q81 312 67.5 326.5Q54 341 54 363Q54 413 107.5 453Q161 493 227 493Q298 493 339.5 454.5Q381 416 381 348V88Q381 63 390.5 50.5Q400 38 419 38Q427 38 437 41.5Q447 45 455 50L462 35Q449 14 423.5 -0.5Q398 -15 372 -15Q342 -15 322 3Q302 21 298 51H296Q274 21 238 3Q202 -15 164 -15Q110 -15 75 19.5Q40 54 40 104ZM129 121Q129 86 152 63.5Q175 41 209 41Q229 41 252 51Q275 61 295 78V251L186 200Q159 188 144 167Q129 146 129 121ZM219 553Q160 553 126.5 586Q93 619 93 670V694H130V688Q130 658 153.5 639Q177 620 219 620Q261 620 285 639Q309 658 309 688V694H346V670Q346 618 312.5 585.5Q279 553 219 553Z" glyph-name="abreve" horiz-adv-x="471" unicode="&#259;" /><glyph d="M370 -15Q340 -15 320 3Q300 21 296 51H294Q271 21 235.5 3Q200 -15 162 -15Q109 -15 73.5 19.5Q38 54 38 104Q38 141 62 172Q86 203 127 217L293 279V330Q293 380 265.5 408.5Q238 437 192 437Q159 437 129.5 421.5Q100 406 74 375L48 390Q70 433 119.5 463Q169 493 223 493Q296 493 337.5 454Q379 415 379 345V88Q379 63 388.5 50.5Q398 38 417 38Q425 38 435 41.5Q445 45 452 50L460 35Q447 14 421.5 -0.5Q396 -15 370 -15ZM127 121Q127 86 150.5 63.5Q174 41 208 41Q227 41 249.5 50.5Q272 60 293 77V251L185 200Q158 189 142.5 168Q127 147 127 121ZM218 553Q159 553 125.5 586Q92 619 92 670V694H129V688Q129 658 152.5 639Q176 620 218 620Q260 620 284 639Q308 658 308 688V694H345V670Q345 618 311.5 585.5Q278 553 218 553Z" glyph-name="abreve.alt" horiz-adv-x="470" /><glyph d="M40 104Q40 141 64 172Q88 203 128 217L295 279V340Q295 391 268 418.5Q241 446 191 446Q156 446 131.5 433.5Q107 421 107 406Q107 402 109.5 398.5Q112 395 121 389Q135 379 139.5 371.5Q144 364 144 354Q144 336 131.5 324Q119 312 100 312Q81 312 67.5 326.5Q54 341 54 363Q54 413 107.5 453Q161 493 227 493Q298 493 339.5 454.5Q381 416 381 348V88Q381 63 390.5 50.5Q400 38 419 38Q427 38 437 41.5Q447 45 455 50L462 35Q449 14 423.5 -0.5Q398 -15 372 -15Q342 -15 322 3Q302 21 298 51H296Q274 21 238 3Q202 -15 164 -15Q110 -15 75 19.5Q40 54 40 104ZM129 121Q129 86 152 63.5Q175 41 209 41Q229 41 252 51Q275 61 295 78V251L186 200Q159 188 144 167Q129 146 129 121ZM133 554H98L193 702H245L341 554H305L219 632Z" glyph-name="acircumflex" horiz-adv-x="471" unicode="&#226;" /><glyph d="M370 -15Q340 -15 320 3Q300 21 296 51H294Q271 21 235.5 3Q200 -15 162 -15Q109 -15 73.5 19.5Q38 54 38 104Q38 141 62 172Q86 203 127 217L293 279V330Q293 380 265.5 408.5Q238 437 192 437Q159 437 129.5 421.5Q100 406 74 375L48 390Q70 433 119.5 463Q169 493 223 493Q296 493 337.5 454Q379 415 379 345V88Q379 63 388.5 50.5Q398 38 417 38Q425 38 435 41.5Q445 45 452 50L460 35Q447 14 421.5 -0.5Q396 -15 370 -15ZM127 121Q127 86 150.5 63.5Q174 41 208 41Q227 41 249.5 50.5Q272 60 293 77V251L185 200Q158 189 142.5 168Q127 147 127 121ZM132 554H97L192 702H244L340 554H304L218 632Z" glyph-name="acircumflex.alt" horiz-adv-x="470" /><glyph d="M79 547H53L68 695H177Z" glyph-name="acute" horiz-adv-x="230" unicode="&#180;" /><glyph d="M40 104Q40 141 64 172Q88 203 128 217L295 279V340Q295 391 268 418.5Q241 446 191 446Q156 446 131.5 433.5Q107 421 107 406Q107 402 109.5 398.5Q112 395 121 389Q135 379 139.5 371.5Q144 364 144 354Q144 336 131.5 324Q119 312 100 312Q81 312 67.5 326.5Q54 341 54 363Q54 413 107.5 453Q161 493 227 493Q298 493 339.5 454.5Q381 416 381 348V88Q381 63 390.5 50.5Q400 38 419 38Q427 38 437 41.5Q447 45 455 50L462 35Q449 14 423.5 -0.5Q398 -15 372 -15Q342 -15 322 3Q302 21 298 51H296Q274 21 238 3Q202 -15 164 -15Q110 -15 75 19.5Q40 54 40 104ZM129 121Q129 86 152 63.5Q175 41 209 41Q229 41 252 51Q275 61 295 78V251L186 200Q159 188 144 167Q129 146 129 121ZM358 630Q358 606 341.5 589.5Q325 573 302 573Q278 573 261.5 589.5Q245 606 245 630Q245 653 261.5 669.5Q278 686 302 686Q325 686 341.5 669.5Q358 653 358 630ZM195 630Q195 606 178.5 589.5Q162 573 138 573Q114 573 97.5 589.5Q81 606 81 630Q81 653 97.5 669.5Q114 686 138 686Q161 686 178 669.5Q195 653 195 630Z" glyph-name="adieresis" horiz-adv-x="471" unicode="&#228;" /><glyph d="M370 -15Q340 -15 320 3Q300 21 296 51H294Q271 21 235.5 3Q200 -15 162 -15Q109 -15 73.5 19.5Q38 54 38 104Q38 141 62 172Q86 203 127 217L293 279V330Q293 380 265.5 408.5Q238 437 192 437Q159 437 129.5 421.5Q100 406 74 375L48 390Q70 433 119.5 463Q169 493 223 493Q296 493 337.5 454Q379 415 379 345V88Q379 63 388.5 50.5Q398 38 417 38Q425 38 435 41.5Q445 45 452 50L460 35Q447 14 421.5 -0.5Q396 -15 370 -15ZM127 121Q127 86 150.5 63.5Q174 41 208 41Q227 41 249.5 50.5Q272 60 293 77V251L185 200Q158 189 142.5 168Q127 147 127 121ZM357 630Q357 606 340.5 589.5Q324 573 301 573Q277 573 260.5 589.5Q244 606 244 630Q244 653 260.5 669.5Q277 686 301 686Q324 686 340.5 669.5Q357 653 357 630ZM194 630Q194 606 177.5 589.5Q161 573 137 573Q113 573 96.5 589.5Q80 606 80 630Q80 653 96.5 669.5Q113 686 137 686Q160 686 177 669.5Q194 653 194 630Z" glyph-name="adieresis.alt" horiz-adv-x="470" /><glyph d="M509 -15Q455 -15 410.5 8Q366 31 336 74Q301 29 259 7Q217 -15 167 -15Q113 -15 77.5 19Q42 53 42 101Q42 140 64.5 169Q87 198 129 213L288 270V330Q288 387 262 416.5Q236 446 185 446Q150 446 125 433.5Q100 421 100 406Q100 402 102.5 398.5Q105 395 114 389Q128 379 132.5 371.5Q137 364 137 354Q137 336 124.5 324Q112 312 94 312Q75 312 61.5 326.5Q48 341 48 363Q48 413 101.5 453Q155 493 221 493Q267 493 302 473.5Q337 454 352 419Q380 454 421.5 473.5Q463 493 510 493Q596 493 649 433Q702 373 702 285V275H369Q369 270 368.5 266Q368 262 368 260Q368 171 418.5 113.5Q469 56 541 56Q587 56 627.5 80Q668 104 686 141L705 132Q687 65 634.5 25Q582 -15 509 -15ZM502 458Q451 458 415 415Q379 372 372 305L611 309Q611 311 611.5 316Q612 321 611 325Q607 388 578.5 423Q550 458 502 458ZM131 121Q131 87 154.5 65Q178 43 214 43Q242 43 269.5 55.5Q297 68 324 92Q306 122 297 158.5Q288 195 288 234V241L183 197Q158 187 144.5 167Q131 147 131 121Z" glyph-name="ae" horiz-adv-x="746" unicode="&#230;" /><glyph d="M40 104Q40 141 64 172Q88 203 128 217L295 279V340Q295 391 268 418.5Q241 446 191 446Q156 446 131.5 433.5Q107 421 107 406Q107 402 109.5 398.5Q112 395 121 389Q135 379 139.5 371.5Q144 364 144 354Q144 336 131.5 324Q119 312 100 312Q81 312 67.5 326.5Q54 341 54 363Q54 413 107.5 453Q161 493 227 493Q298 493 339.5 454.5Q381 416 381 348V88Q381 63 390.5 50.5Q400 38 419 38Q427 38 437 41.5Q447 45 455 50L462 35Q449 14 423.5 -0.5Q398 -15 372 -15Q342 -15 322 3Q302 21 298 51H296Q274 21 238 3Q202 -15 164 -15Q110 -15 75 19.5Q40 54 40 104ZM129 121Q129 86 152 63.5Q175 41 209 41Q229 41 252 51Q275 61 295 78V251L186 200Q159 188 144 167Q129 146 129 121ZM233 554H207L109 702H218Z" glyph-name="agrave" horiz-adv-x="471" unicode="&#224;" /><glyph d="M370 -15Q340 -15 320 3Q300 21 296 51H294Q271 21 235.5 3Q200 -15 162 -15Q109 -15 73.5 19.5Q38 54 38 104Q38 141 62 172Q86 203 127 217L293 279V330Q293 380 265.5 408.5Q238 437 192 437Q159 437 129.5 421.5Q100 406 74 375L48 390Q70 433 119.5 463Q169 493 223 493Q296 493 337.5 454Q379 415 379 345V88Q379 63 388.5 50.5Q398 38 417 38Q425 38 435 41.5Q445 45 452 50L460 35Q447 14 421.5 -0.5Q396 -15 370 -15ZM127 121Q127 86 150.5 63.5Q174 41 208 41Q227 41 249.5 50.5Q272 60 293 77V251L185 200Q158 189 142.5 168Q127 147 127 121ZM232 554H206L108 702H217Z" glyph-name="agrave.alt" horiz-adv-x="470" /><glyph d="M40 104Q40 141 64 172Q88 203 128 217L295 279V340Q295 391 268 418.5Q241 446 191 446Q156 446 131.5 433.5Q107 421 107 406Q107 402 109.5 398.5Q112 395 121 389Q135 379 139.5 371.5Q144 364 144 354Q144 336 131.5 324Q119 312 100 312Q81 312 67.5 326.5Q54 341 54 363Q54 413 107.5 453Q161 493 227 493Q298 493 339.5 454.5Q381 416 381 348V88Q381 63 390.5 50.5Q400 38 419 38Q427 38 437 41.5Q447 45 455 50L462 35Q449 14 423.5 -0.5Q398 -15 372 -15Q342 -15 322 3Q302 21 298 51H296Q274 21 238 3Q202 -15 164 -15Q110 -15 75 19.5Q40 54 40 104ZM129 121Q129 86 152 63.5Q175 41 209 41Q229 41 252 51Q275 61 295 78V251L186 200Q159 188 144 167Q129 146 129 121ZM357 583H83V639H357Z" glyph-name="amacron" horiz-adv-x="471" unicode="&#257;" /><glyph d="M370 -15Q340 -15 320 3Q300 21 296 51H294Q271 21 235.5 3Q200 -15 162 -15Q109 -15 73.5 19.5Q38 54 38 104Q38 141 62 172Q86 203 127 217L293 279V330Q293 380 265.5 408.5Q238 437 192 437Q159 437 129.5 421.5Q100 406 74 375L48 390Q70 433 119.5 463Q169 493 223 493Q296 493 337.5 454Q379 415 379 345V88Q379 63 388.5 50.5Q398 38 417 38Q425 38 435 41.5Q445 45 452 50L460 35Q447 14 421.5 -0.5Q396 -15 370 -15ZM127 121Q127 86 150.5 63.5Q174 41 208 41Q227 41 249.5 50.5Q272 60 293 77V251L185 200Q158 189 142.5 168Q127 147 127 121ZM356 583H82V639H356Z" glyph-name="amacron.alt" horiz-adv-x="470" /><glyph d="M253 -15Q162 -15 105 39.5Q48 94 48 176Q48 244 97 302.5Q146 361 225 389Q193 434 179 471.5Q165 509 165 549Q165 618 214 666.5Q263 715 336 715Q402 715 444 677Q486 639 486 582Q486 526 445.5 477Q405 428 331 398Q362 359 406 306.5Q450 254 499 200Q532 253 556.5 300Q581 347 583 363Q585 381 576.5 391Q568 401 548 405L505 412L506 437H733V411L708 404Q691 399 676.5 389Q662 379 649 363Q638 350 626 332Q614 314 588 274Q562 233 548 213Q534 193 522 177Q591 103 622.5 81Q654 59 682 59Q703 59 718.5 65.5Q734 72 755 89L764 70Q744 29 710.5 7Q677 -15 636 -15Q604 -15 568 5.5Q532 26 496 66L464 100Q416 41 364.5 13Q313 -15 253 -15ZM248 575Q248 541 265.5 498.5Q283 456 313 421Q365 450 393 492Q421 534 421 580Q421 624 396.5 651Q372 678 335 678Q298 678 273 648.5Q248 619 248 575ZM242 363Q199 338 172.5 292.5Q146 247 146 200Q146 137 187 93Q228 49 291 49Q331 49 369.5 69Q408 89 441 127Q400 172 339.5 243.5Q279 315 242 363Z" glyph-name="ampersand" horiz-adv-x="794" unicode="&amp;" /><glyph d="M381 -193Q343 -193 318 -173Q293 -153 293 -118Q293 -92 311.5 -64.5Q330 -37 363 -15Q337 -12 319.5 5.5Q302 23 298 51H296Q274 21 238 3Q202 -15 164 -15Q110 -15 75 19.5Q40 54 40 104Q40 141 64 172Q88 203 128 217L295 279V340Q295 391 268 418.5Q241 446 191 446Q156 446 131.5 433.5Q107 421 107 406Q107 402 109.5 398.5Q112 395 121 389Q135 379 139.5 371.5Q144 364 144 354Q144 336 131.5 324Q119 312 100 312Q81 312 67.5 326.5Q54 341 54 363Q54 413 107.5 453Q161 493 227 493Q298 493 339.5 454.5Q381 416 381 348V88Q381 63 390.5 50.5Q400 38 419 38Q427 38 437 41.5Q447 45 455 50L462 35Q455 24 444 14Q433 4 421 -2Q395 -31 380.5 -57.5Q366 -84 366 -105Q366 -128 385 -142Q404 -156 432 -156Q436 -156 441 -155.5Q446 -155 454 -154L449 -178Q434 -185 416 -189Q398 -193 381 -193ZM129 121Q129 86 152 63.5Q175 41 209 41Q229 41 252 51Q275 61 295 78V251L186 200Q159 188 144 167Q129 146 129 121Z" glyph-name="aogonek" horiz-adv-x="471" unicode="&#261;" /><glyph d="M380 -193Q342 -193 317 -173Q292 -153 292 -118Q292 -92 310.5 -64.5Q329 -37 361 -15Q335 -12 317.5 5.5Q300 23 296 51H294Q271 21 235.5 3Q200 -15 162 -15Q109 -15 73.5 19.5Q38 54 38 104Q38 141 62 172Q86 203 127 217L293 279V330Q293 380 265.5 408.5Q238 437 192 437Q159 437 129.5 421.5Q100 406 74 375L48 390Q70 433 119.5 463Q169 493 223 493Q296 493 337.5 454Q379 415 379 345V88Q379 63 388.5 50.5Q398 38 417 38Q425 38 435 41.5Q445 45 452 50L460 35Q453 24 443 14.5Q433 5 421 -1Q394 -32 379.5 -58.5Q365 -85 365 -105Q365 -128 384 -142Q403 -156 431 -156Q435 -156 440 -155.5Q445 -155 453 -154L448 -178Q433 -185 415 -189Q397 -193 380 -193ZM127 121Q127 86 150.5 63.5Q174 41 208 41Q227 41 249.5 50.5Q272 60 293 77V251L185 200Q158 189 142.5 168Q127 147 127 121Z" glyph-name="aogonek.alt" horiz-adv-x="470" /><glyph d="M200 621Q200 569 167 525Q134 481 71 450L59 465Q103 497 127.5 529Q152 561 158 598Q151 591 139 586.5Q127 582 114 582Q87 582 68.5 601Q50 620 50 647Q50 675 69.5 695Q89 715 119 715Q154 715 177 687.5Q200 660 200 621Z" glyph-name="apostrophemod" horiz-adv-x="251" unicode="&#700;" /><glyph d="M377 390Q365 390 341.5 394Q318 398 259 412Q203 424 181 428Q159 432 148 432Q125 432 111.5 422Q98 412 91 390L68 395Q77 445 101.5 469.5Q126 494 167 494Q180 494 203.5 490Q227 486 285 472Q340 459 362 455Q384 451 396 451Q417 451 431 461.5Q445 472 453 494L476 488Q467 439 442.5 414.5Q418 390 377 390ZM377 220Q365 220 341.5 224Q318 228 259 242Q203 254 181 258Q159 262 148 262Q126 262 112 251.5Q98 241 91 219L68 225Q77 274 101.5 298.5Q126 323 167 323Q180 323 203.5 319Q227 315 285 301Q340 289 362 285Q384 281 396 281Q417 281 431 291.5Q445 302 453 324L476 318Q467 269 442.5 244.5Q418 220 377 220Z" glyph-name="approxequal" horiz-adv-x="540" unicode="&#8776;" /><glyph d="M40 104Q40 141 64 172Q88 203 128 217L295 279V340Q295 391 268 418.5Q241 446 191 446Q156 446 131.5 433.5Q107 421 107 406Q107 402 109.5 398.5Q112 395 121 389Q135 379 139.5 371.5Q144 364 144 354Q144 336 131.5 324Q119 312 100 312Q81 312 67.5 326.5Q54 341 54 363Q54 413 107.5 453Q161 493 227 493Q298 493 339.5 454.5Q381 416 381 348V88Q381 63 390.5 50.5Q400 38 419 38Q427 38 437 41.5Q447 45 455 50L462 35Q449 14 423.5 -0.5Q398 -15 372 -15Q342 -15 322 3Q302 21 298 51H296Q274 21 238 3Q202 -15 164 -15Q110 -15 75 19.5Q40 54 40 104ZM129 121Q129 86 152 63.5Q175 41 209 41Q229 41 252 51Q275 61 295 78V251L186 200Q159 188 144 167Q129 146 129 121ZM320 644Q320 603 290.5 574Q261 545 220 545Q178 545 149 574Q120 603 120 644Q120 685 149.5 714.5Q179 744 220 744Q261 744 290.5 714.5Q320 685 320 644ZM156 644Q156 617 174.5 598Q193 579 220 579Q246 579 264.5 598Q283 617 283 644Q283 671 264 690.5Q245 710 220 710Q193 710 174.5 690.5Q156 671 156 644Z" glyph-name="aring" horiz-adv-x="471" unicode="&#229;" /><glyph d="M370 -15Q340 -15 320 3Q300 21 296 51H294Q271 21 235.5 3Q200 -15 162 -15Q109 -15 73.5 19.5Q38 54 38 104Q38 141 62 172Q86 203 127 217L293 279V330Q293 380 265.5 408.5Q238 437 192 437Q159 437 129.5 421.5Q100 406 74 375L48 390Q70 433 119.5 463Q169 493 223 493Q296 493 337.5 454Q379 415 379 345V88Q379 63 388.5 50.5Q398 38 417 38Q425 38 435 41.5Q445 45 452 50L460 35Q447 14 421.5 -0.5Q396 -15 370 -15ZM127 121Q127 86 150.5 63.5Q174 41 208 41Q227 41 249.5 50.5Q272 60 293 77V251L185 200Q158 189 142.5 168Q127 147 127 121ZM319 644Q319 603 289.5 574Q260 545 219 545Q177 545 148 574Q119 603 119 644Q119 685 148.5 714.5Q178 744 219 744Q260 744 289.5 714.5Q319 685 319 644ZM155 644Q155 617 173.5 598Q192 579 219 579Q245 579 263.5 598Q282 617 282 644Q282 671 263 690.5Q244 710 219 710Q192 710 173.5 690.5Q155 671 155 644Z" glyph-name="aring.alt" horiz-adv-x="470" /><glyph d="M653 328 367 29 82 328 119 364 336 171 332 699H403L399 171L616 364Z" glyph-name="arrowdown" horiz-adv-x="735" unicode="&#8595;" /><glyph d="M544 106 131 97 140 509H192L209 220L580 596L630 545L254 175L544 157Z" glyph-name="arrowdownleft" horiz-adv-x="735" unicode="&#8601;" /><glyph d="M544 509H595L604 97L192 106V157L482 175L105 545L156 596L526 220Z" glyph-name="arrowdownright" horiz-adv-x="735" unicode="&#8600;" /><glyph d="M119 365 82 401 367 699 653 401 616 365 399 558 403 29H332L336 558Z" glyph-name="arrowup" horiz-adv-x="735" unicode="&#8593;" /><glyph d="M209 473 192 184 140 183 131 596 544 587V536L254 518L630 147L580 97Z" glyph-name="arrowupleft" horiz-adv-x="735" unicode="&#8598;" /><glyph d="M192 587 604 596 595 183 544 184 526 473 156 97 105 147 482 518 192 536Z" glyph-name="arrowupright" horiz-adv-x="735" unicode="&#8599;" /><glyph d="M81 356H44L247 715H293L495 356H459L270 618Z" glyph-name="asciicircum" horiz-adv-x="540" unicode="^" /><glyph d="M377 305Q365 305 341.5 309Q318 313 259 327Q203 339 181 343Q159 347 148 347Q126 347 112 336.5Q98 326 91 304L68 310Q77 360 101.5 384.5Q126 409 167 409Q180 409 203.5 405Q227 401 285 387Q340 374 362 370Q384 366 396 366Q417 366 431 376.5Q445 387 453 409L476 403Q467 354 442.5 329.5Q418 305 377 305Z" glyph-name="asciitilde" horiz-adv-x="540" unicode="~" /><glyph d="M253 481 155 326 82 394 224 503 47 542 85 634 235 534 203 711H301L270 534L420 634L457 542L282 503L422 394L350 326Z" glyph-name="asterisk" horiz-adv-x="504" unicode="*" /><glyph d="M436 -184Q352 -184 282.5 -159Q213 -134 161 -85Q108 -34 79.5 36Q51 106 51 184Q51 271 84 354Q117 437 177 500Q238 565 318.5 599.5Q399 634 489 634Q632 634 726 543Q820 452 820 318Q820 200 758.5 112Q697 24 609 24Q554 24 530 70Q506 116 523 197H519Q475 116 421.5 70Q368 24 324 24Q293 24 275.5 47.5Q258 71 258 113Q258 161 276.5 218Q295 275 326 323Q363 379 409 408.5Q455 438 506 438Q520 438 537 436Q554 434 589 428L625 449H644L615 319Q601 255 593 203.5Q585 152 585 123Q585 89 595 73Q605 57 627 57Q656 57 689 84Q722 111 745 154Q763 188 772.5 227Q782 266 782 309Q782 436 701.5 517Q621 598 497 598Q419 598 350.5 565.5Q282 533 230 473Q180 416 153.5 343Q127 270 127 192Q127 37 216 -55Q305 -147 442 -147Q494 -147 546 -131.5Q598 -116 643 -88L666 -104Q635 -133 565 -158.5Q495 -184 436 -184ZM329 110Q329 96 336.5 85.5Q344 75 356 75Q389 75 441.5 134Q494 193 541 292L561 387Q541 401 526.5 407Q512 413 499 413Q470 413 436.5 378.5Q403 344 375 286Q353 242 341 195.5Q329 149 329 110Z" glyph-name="at" horiz-adv-x="876" unicode="@" /><glyph d="M437 -75Q353 -75 283.5 -50Q214 -25 162 24Q109 75 80.5 145Q52 215 52 293Q52 380 85 463Q118 546 178 609Q239 674 319.5 708.5Q400 743 490 743Q633 743 727 652Q821 561 821 427Q821 309 759.5 221Q698 133 610 133Q555 133 531 179Q507 225 524 306H520Q476 225 422.5 179Q369 133 325 133Q294 133 276.5 156.5Q259 180 259 222Q259 270 277.5 327Q296 384 327 432Q364 488 410 517.5Q456 547 507 547Q521 547 538 545Q555 543 590 537L626 558H645L616 428Q602 364 594 312.5Q586 261 586 232Q586 198 596 182Q606 166 628 166Q657 166 690 193Q723 220 746 263Q764 297 773.5 336Q783 375 783 418Q783 545 702.5 626Q622 707 498 707Q420 707 351.5 674.5Q283 642 231 582Q181 525 154.5 452Q128 379 128 301Q128 146 217 54Q306 -38 443 -38Q495 -38 547 -22.5Q599 -7 644 21L667 5Q636 -24 566 -49.5Q496 -75 437 -75ZM330 219Q330 205 337.5 194.5Q345 184 357 184Q390 184 442.5 243Q495 302 542 401L562 496Q542 510 527.5 516Q513 522 500 522Q471 522 437.5 487.5Q404 453 376 395Q354 351 342 304.5Q330 258 330 219Z" glyph-name="at.case" horiz-adv-x="858" /><glyph d="M40 104Q40 141 64 172Q88 203 128 217L295 279V340Q295 391 268 418.5Q241 446 191 446Q156 446 131.5 433.5Q107 421 107 406Q107 402 109.5 398.5Q112 395 121 389Q135 379 139.5 371.5Q144 364 144 354Q144 336 131.5 324Q119 312 100 312Q81 312 67.5 326.5Q54 341 54 363Q54 413 107.5 453Q161 493 227 493Q298 493 339.5 454.5Q381 416 381 348V88Q381 63 390.5 50.5Q400 38 419 38Q427 38 437 41.5Q447 45 455 50L462 35Q449 14 423.5 -0.5Q398 -15 372 -15Q342 -15 322 3Q302 21 298 51H296Q274 21 238 3Q202 -15 164 -15Q110 -15 75 19.5Q40 54 40 104ZM129 121Q129 86 152 63.5Q175 41 209 41Q229 41 252 51Q275 61 295 78V251L186 200Q159 188 144 167Q129 146 129 121ZM147 602Q130 602 119.5 591Q109 580 106 560L82 565Q83 616 103.5 643Q124 670 160 670Q171 670 185.5 666Q200 662 230 650Q258 639 270.5 635.5Q283 632 292 632Q309 632 320 643Q331 654 333 674L357 668Q356 618 335.5 591Q315 564 279 564Q268 564 253.5 568Q239 572 209 584Q181 595 168.5 598.5Q156 602 147 602Z" glyph-name="atilde" horiz-adv-x="471" unicode="&#227;" /><glyph d="M370 -15Q340 -15 320 3Q300 21 296 51H294Q271 21 235.5 3Q200 -15 162 -15Q109 -15 73.5 19.5Q38 54 38 104Q38 141 62 172Q86 203 127 217L293 279V330Q293 380 265.5 408.5Q238 437 192 437Q159 437 129.5 421.5Q100 406 74 375L48 390Q70 433 119.5 463Q169 493 223 493Q296 493 337.5 454Q379 415 379 345V88Q379 63 388.5 50.5Q398 38 417 38Q425 38 435 41.5Q445 45 452 50L460 35Q447 14 421.5 -0.5Q396 -15 370 -15ZM127 121Q127 86 150.5 63.5Q174 41 208 41Q227 41 249.5 50.5Q272 60 293 77V251L185 200Q158 189 142.5 168Q127 147 127 121ZM146 602Q129 602 118.5 591Q108 580 105 560L81 565Q82 616 102.5 643Q123 670 159 670Q170 670 184.5 666Q199 662 229 650Q257 639 269.5 635.5Q282 632 291 632Q308 632 319 643Q330 654 332 674L356 668Q355 618 334.5 591Q314 564 278 564Q267 564 252.5 568Q238 572 208 584Q180 595 167.5 598.5Q155 602 146 602Z" glyph-name="atilde.alt" horiz-adv-x="470" /><glyph d="M161 744H163V478Q163 465 162.5 451Q162 437 161 423H163Q191 456 230 474.5Q269 493 309 493Q399 493 459 425.5Q519 358 519 252Q519 138 450 61.5Q381 -15 274 -15Q234 -15 197.5 -3Q161 9 137 30L100 -7H77V654L-2 685V704Q41 711 86.5 722Q132 733 161 744ZM279 19Q349 19 389 72.5Q429 126 429 216Q429 317 385 374.5Q341 432 268 432Q241 432 212.5 422Q184 412 163 396V128Q163 77 195 48Q227 19 279 19Z" glyph-name="b" horiz-adv-x="561" unicode="b" /><glyph d="M419 -54 377 -72 32 753 76 769Z" glyph-name="backslash" horiz-adv-x="452" unicode="\" /><glyph d="M148 -66H99V789H148Z" glyph-name="bar" horiz-adv-x="247" unicode="|" /><glyph d="M292 -153 284 -183Q192 -183 146.5 -152Q101 -121 101 -58Q101 -40 107 -12.5Q113 15 133 77Q150 130 155 151.5Q160 173 160 186Q160 226 138 245.5Q116 265 69 267L20 269V297H69Q114 298 137 318.5Q160 339 160 378Q160 391 155 412.5Q150 434 133 487Q113 550 107 577.5Q101 605 101 623Q101 686 146.5 717Q192 748 284 748L292 718L286 717Q240 710 218 688.5Q196 667 196 631Q196 621 199 605Q202 589 211 551Q226 493 230.5 463Q235 433 235 408Q235 359 208 325.5Q181 292 133 283V281Q181 271 208 237.5Q235 204 235 156Q235 132 230.5 102Q226 72 211 14Q202 -25 199 -41Q196 -57 196 -67Q196 -103 217.5 -124Q239 -145 286 -152Z" glyph-name="braceleft" horiz-adv-x="333" unicode="{" /><glyph d="M298 -85 290 -115Q198 -115 152.5 -84Q107 -53 107 10Q107 28 113 55.5Q119 83 139 145Q156 198 161 219.5Q166 241 166 254Q166 294 144 313.5Q122 333 75 335L26 337V365H75Q120 366 143 386.5Q166 407 166 446Q166 459 161 480.5Q156 502 139 555Q119 618 113 645.5Q107 673 107 691Q107 754 152.5 785Q198 816 290 816L298 786L292 785Q246 778 224 756.5Q202 735 202 699Q202 689 205 673Q208 657 217 619Q232 561 236.5 531Q241 501 241 476Q241 427 214 393.5Q187 360 139 351V349Q187 339 214 305.5Q241 272 241 224Q241 200 236.5 170Q232 140 217 82Q208 43 205 27Q202 11 202 1Q202 -35 223.5 -56Q245 -77 292 -84Z" glyph-name="braceleft.case" horiz-adv-x="345" /><glyph d="M231 -58Q231 -122 186 -152.5Q141 -183 49 -183L41 -153L47 -152Q93 -144 114.5 -123.5Q136 -103 136 -67Q136 -57 133.5 -41Q131 -25 121 14Q107 72 102.5 102Q98 132 98 156Q98 204 124.5 237.5Q151 271 199 281V283Q151 292 124.5 325.5Q98 359 98 408Q98 433 102.5 463Q107 493 121 551Q131 589 133.5 605Q136 621 136 631Q136 667 114.5 688.5Q93 710 47 717L41 718L49 748Q141 748 186 717.5Q231 687 231 623Q231 605 225 577.5Q219 550 199 487Q182 434 177 412.5Q172 391 172 378Q172 339 195 318.5Q218 298 263 297H312V269L263 267Q216 265 194 245.5Q172 226 172 186Q172 173 177 151.5Q182 130 199 77Q219 15 225 -12.5Q231 -40 231 -58Z" glyph-name="braceright" horiz-adv-x="332" unicode="}" /><glyph d="M237 10Q237 -54 192 -84.5Q147 -115 55 -115L47 -85L53 -84Q99 -76 120.5 -55.5Q142 -35 142 1Q142 11 139.5 27Q137 43 127 82Q113 140 108.5 170Q104 200 104 224Q104 272 130.5 305.5Q157 339 205 349V351Q157 360 130.5 393.5Q104 427 104 476Q104 501 108.5 531Q113 561 127 619Q137 657 139.5 673Q142 689 142 699Q142 735 120.5 756.5Q99 778 53 785L47 786L55 816Q147 816 192 785.5Q237 755 237 691Q237 673 231 645.5Q225 618 205 555Q188 502 183 480.5Q178 459 178 446Q178 407 201 386.5Q224 366 269 365H318V337L269 335Q222 333 200 313.5Q178 294 178 254Q178 241 183 219.5Q188 198 205 145Q225 83 231 55.5Q237 28 237 10Z" glyph-name="braceright.case" horiz-adv-x="344" /><glyph d="M310 -191H99V738H310V699H143Q170 588 185 475.5Q200 363 200 273Q200 183 185 71.5Q170 -40 143 -152H310Z" glyph-name="bracketleft" horiz-adv-x="341" unicode="[" /><glyph d="M318 -121H107V808H318V769H151Q178 658 193 545.5Q208 433 208 343Q208 253 193 141.5Q178 30 151 -82H318Z" glyph-name="bracketleft.case" horiz-adv-x="355" /><glyph d="M242 -191H31V-152H199Q172 -40 157 71.5Q142 183 142 273Q142 363 157 475.5Q172 588 199 699H31V738H242Z" glyph-name="bracketright" horiz-adv-x="341" unicode="]" /><glyph d="M248 -121H37V-82H205Q178 30 163 141.5Q148 253 148 343Q148 433 163 545.5Q178 658 205 769H37V808H248Z" glyph-name="bracketright.case" horiz-adv-x="355" /><glyph d="M181 556Q122 556 88.5 589Q55 622 55 673V697H92V691Q92 661 115.5 642Q139 623 181 623Q223 623 247 642Q271 661 271 691V697H308V673Q308 621 274.5 588.5Q241 556 181 556Z" glyph-name="breve" horiz-adv-x="363" unicode="&#728;" /><glyph d="M147 420H98V789H147ZM147 -66H98V303H147Z" glyph-name="brokenbar" horiz-adv-x="245" unicode="&#166;" /><glyph d="M276 363Q276 324 248 296.5Q220 269 181 269Q143 269 115.5 296.5Q88 324 88 363Q88 401 115.5 429Q143 457 181 457Q220 457 248 429Q276 401 276 363Z" glyph-name="bullet" horiz-adv-x="364" unicode="&#8226;" /><glyph d="M268 -15Q168 -15 105 54Q42 123 42 231Q42 340 112 416.5Q182 493 284 493Q349 493 396 463.5Q443 434 443 397Q443 379 430.5 366Q418 353 401 353Q389 353 380.5 357.5Q372 362 365 372Q360 379 353.5 393.5Q347 408 346 410Q335 436 317.5 448Q300 460 274 460Q213 460 170 401.5Q127 343 127 262Q127 171 177 113.5Q227 56 301 56Q347 56 387.5 80Q428 104 446 141L465 132Q448 65 394.5 25Q341 -15 268 -15Z" glyph-name="c" horiz-adv-x="487" unicode="c" /><glyph d="M676 -15Q619 -15 591 13.5Q563 42 563 101V436H492V458Q527 465 551 497.5Q575 530 575 569Q575 617 544 648Q513 679 466 679Q416 679 382.5 644Q349 609 349 556Q349 536 354 515.5Q359 495 369 477Q402 464 422.5 442Q443 420 443 397Q443 379 430.5 366Q418 353 401 353Q389 353 380.5 357.5Q372 362 365 372Q360 379 353.5 393.5Q347 408 346 410Q335 436 317.5 448Q300 460 274 460Q213 460 170 401.5Q127 343 127 262Q127 171 177 113.5Q227 56 301 56Q347 56 387.5 80Q428 104 446 141L465 132Q448 65 394.5 25Q341 -15 268 -15Q168 -15 105 54Q42 123 42 231Q42 340 112 416.5Q182 493 284 493Q300 493 314.5 491Q329 489 341 486Q333 502 328.5 521.5Q324 541 324 563Q324 625 369 668.5Q414 712 483 712Q559 712 604 661.5Q649 611 649 529V478H780V436H649V130Q649 78 665.5 55.5Q682 33 720 33Q734 33 748.5 36Q763 39 786 47L794 22Q775 8 739.5 -3.5Q704 -15 676 -15Z" glyph-name="c_t" horiz-adv-x="802" unicode="&#57345;" /><glyph d="M268 -15Q168 -15 105 54Q42 123 42 231Q42 340 112 416.5Q182 493 284 493Q349 493 396 463.5Q443 434 443 397Q443 379 430.5 366Q418 353 401 353Q389 353 380.5 357.5Q372 362 365 372Q360 379 353.5 393.5Q347 408 346 410Q335 436 317.5 448Q300 460 274 460Q213 460 170 401.5Q127 343 127 262Q127 171 177 113.5Q227 56 301 56Q347 56 387.5 80Q428 104 446 141L465 132Q448 65 394.5 25Q341 -15 268 -15ZM270 554H244L259 702H368Z" glyph-name="cacute" horiz-adv-x="487" unicode="&#263;" /><glyph d="M150 547 55 695H90L176 618L262 695H298L202 547Z" glyph-name="caron" horiz-adv-x="353" unicode="&#711;" /><glyph d="M268 -15Q168 -15 105 54Q42 123 42 231Q42 340 112 416.5Q182 493 284 493Q349 493 396 463.5Q443 434 443 397Q443 379 430.5 366Q418 353 401 353Q389 353 380.5 357.5Q372 362 365 372Q360 379 353.5 393.5Q347 408 346 410Q335 436 317.5 448Q300 460 274 460Q213 460 170 401.5Q127 343 127 262Q127 171 177 113.5Q227 56 301 56Q347 56 387.5 80Q428 104 446 141L465 132Q448 65 394.5 25Q341 -15 268 -15ZM233 554 138 702H173L259 625L345 702H381L285 554Z" glyph-name="ccaron" horiz-adv-x="487" unicode="&#269;" /><glyph d="M347 -145Q347 -181 317.5 -204.5Q288 -228 243 -228Q214 -228 186.5 -220Q159 -212 140 -199L154 -177Q170 -183 185 -186.5Q200 -190 212 -190Q240 -190 257 -177Q274 -164 274 -142Q274 -120 250.5 -104Q227 -88 194 -84L192 -80L239 -13Q151 -3 96.5 64.5Q42 132 42 231Q42 340 112 416.5Q182 493 284 493Q349 493 396 463.5Q443 434 443 397Q443 379 430.5 366Q418 353 401 353Q389 353 380.5 357.5Q372 362 365 372Q360 379 353.5 393.5Q347 408 346 410Q335 436 317.5 448Q300 460 274 460Q213 460 170 401.5Q127 343 127 262Q127 171 177 113.5Q227 56 301 56Q347 56 387.5 80Q428 104 446 141L465 132Q448 66 395 25.5Q342 -15 271 -15L254 -61Q291 -66 319 -88.5Q347 -111 347 -145Z" glyph-name="ccedilla" horiz-adv-x="487" unicode="&#231;" /><glyph d="M268 -15Q168 -15 105 54Q42 123 42 231Q42 340 112 416.5Q182 493 284 493Q349 493 396 463.5Q443 434 443 397Q443 379 430.5 366Q418 353 401 353Q389 353 380.5 357.5Q372 362 365 372Q360 379 353.5 393.5Q347 408 346 410Q335 436 317.5 448Q300 460 274 460Q213 460 170 401.5Q127 343 127 262Q127 171 177 113.5Q227 56 301 56Q347 56 387.5 80Q428 104 446 141L465 132Q448 65 394.5 25Q341 -15 268 -15ZM173 554H138L233 702H285L381 554H345L259 632Z" glyph-name="ccircumflex" horiz-adv-x="487" unicode="&#265;" /><glyph d="M268 -15Q168 -15 105 54Q42 123 42 231Q42 340 112 416.5Q182 493 284 493Q349 493 396 463.5Q443 434 443 397Q443 379 430.5 366Q418 353 401 353Q389 353 380.5 357.5Q372 362 365 372Q360 379 353.5 393.5Q347 408 346 410Q335 436 317.5 448Q300 460 274 460Q213 460 170 401.5Q127 343 127 262Q127 171 177 113.5Q227 56 301 56Q347 56 387.5 80Q428 104 446 141L465 132Q448 65 394.5 25Q341 -15 268 -15ZM326 627Q326 599 306.5 579.5Q287 560 259 560Q231 560 212 579.5Q193 599 193 627Q193 655 212 674Q231 693 259 693Q287 693 306.5 674Q326 655 326 627Z" glyph-name="cdotaccent" horiz-adv-x="487" unicode="&#267;" /><glyph d="M256 -145Q256 -181 226.5 -204.5Q197 -228 152 -228Q123 -228 95.5 -220Q68 -212 49 -199L63 -177Q79 -183 94 -186.5Q109 -190 121 -190Q149 -190 166 -177Q183 -164 183 -142Q183 -120 159.5 -104Q136 -88 103 -84L101 -80L165 10L188 8L163 -61Q200 -66 228 -88.5Q256 -111 256 -145Z" glyph-name="cedilla" horiz-adv-x="305" unicode="&#184;" /><glyph d="M279 460Q218 460 175 401.5Q132 343 132 262Q132 198 157.5 149.5Q183 101 228 76L296 458Q291 459 287 459.5Q283 460 279 460ZM273 -15Q263 -15 258 -15Q253 -15 249 -14L231 -115H194L213 -7Q140 13 96 78Q52 143 52 231Q52 342 120 417.5Q188 493 289 493Q292 493 295.5 493Q299 493 302 493L317 575H354L338 488Q386 478 417 452Q448 426 448 397Q448 379 435.5 366Q423 353 406 353Q394 353 385.5 357.5Q377 362 370 372Q365 379 358.5 393.5Q352 408 351 410Q345 422 340.5 429.5Q336 437 330 442L263 62Q274 59 284.5 57.5Q295 56 306 56Q352 56 392.5 80Q433 104 451 141L470 132Q453 65 399.5 25Q346 -15 273 -15Z" glyph-name="cent" horiz-adv-x="517" unicode="&#162;" /><glyph d="M90 547H55L150 695H202L298 547H262L176 625Z" glyph-name="circumflex" horiz-adv-x="353" unicode="&#710;" /><glyph d="M210 406Q210 376 189 355Q168 334 138 334Q109 334 88 355Q67 376 67 406Q67 436 88 457Q109 478 138 478Q168 478 189 457Q210 436 210 406ZM210 57Q210 27 189 6Q168 -15 138 -15Q109 -15 88 6Q67 27 67 57Q67 86 88 107Q109 128 138 128Q168 128 189 107Q210 86 210 57Z" glyph-name="colon" horiz-adv-x="277" unicode=":" /><glyph d="M216 31Q216 -23 182 -68.5Q148 -114 83 -145L71 -129Q117 -96 142 -63.5Q167 -31 173 8Q166 0 153.5 -4.5Q141 -9 127 -9Q100 -9 81 11Q62 31 62 59Q62 87 82 107.5Q102 128 133 128Q168 128 192 99.5Q216 71 216 31Z" glyph-name="comma" horiz-adv-x="277" unicode="," /><glyph d="M190 -131Q190 -181 158.5 -224Q127 -267 68 -297L53 -282Q96 -251 120 -218Q144 -185 150 -151Q145 -160 131.5 -165.5Q118 -171 104 -171Q77 -171 58.5 -152Q40 -133 40 -106Q40 -79 60 -58.5Q80 -38 109 -38Q144 -38 167 -65Q190 -92 190 -131Z" glyph-name="commaaccent" horiz-adv-x="230" unicode="&#63171;" /><glyph d="M740 62Q683 5 609 -26Q535 -57 455 -57Q374 -57 300 -26Q226 5 169 62Q112 120 81 194Q50 268 50 349Q50 430 81 504Q112 578 169 636Q226 693 300 724Q374 755 455 755Q535 755 609 724Q683 693 740 636Q797 578 828 504Q859 430 859 349Q859 268 828 194Q797 120 740 62ZM455 720Q304 720 197.5 611.5Q91 503 91 349Q91 195 197.5 86.5Q304 -22 455 -22Q606 -22 712 86.5Q818 195 818 349Q818 503 712 611.5Q606 720 455 720ZM317 375Q317 289 363 234.5Q409 180 481 180Q526 180 565 204.5Q604 229 624 267L645 256Q628 192 575 151.5Q522 111 453 111Q356 111 296 177Q236 243 236 344Q236 448 301 521Q366 594 464 594Q529 594 575 566.5Q621 539 621 504Q621 487 609.5 475.5Q598 464 581 464Q566 464 555.5 472Q545 480 532 506Q516 538 500.5 548.5Q485 559 462 559Q399 559 358 505Q317 451 317 375Z" glyph-name="copyright" horiz-adv-x="909" unicode="&#169;" /><glyph d="M91 349Q91 394 107.5 441Q124 488 155 527L65 613L96 644L182 558Q215 588 263 605Q311 622 358 622Q405 622 453 604.5Q501 587 534 558L620 644L651 613L561 527Q592 488 608.5 441Q625 394 625 349Q625 304 608.5 257Q592 210 561 171L651 85L620 54L534 140Q501 111 453 93.5Q405 76 358 76Q311 76 263 93Q215 110 182 140L96 54L65 85L155 171Q124 210 107.5 257Q91 304 91 349ZM358 116Q454 116 517.5 183Q581 250 581 349Q581 448 517.5 515Q454 582 358 582Q262 582 198.5 515Q135 448 135 349Q135 250 198.5 183Q262 116 358 116Z" glyph-name="currency" horiz-adv-x="716" unicode="&#164;" /><glyph d="M481 744H483V50L554 27V8Q500 4 467.5 -1Q435 -6 397 -15L399 56H397Q373 24 332.5 4.5Q292 -15 251 -15Q160 -15 101 52Q42 119 42 226Q42 336 114 414.5Q186 493 294 493Q318 493 343.5 488.5Q369 484 397 474V654L317 685V704Q360 711 405.5 722Q451 733 481 744ZM131 263Q131 162 174 104.5Q217 47 290 47Q318 47 348 56.5Q378 66 397 82V348Q397 401 367.5 430.5Q338 460 289 460Q218 460 174.5 405Q131 350 131 263Z" glyph-name="d" horiz-adv-x="573" unicode="d" /><glyph d="M224 190H170V495H45V541H170V700H224V541H349V495H224Z" glyph-name="dagger" horiz-adv-x="394" unicode="&#8224;" /><glyph d="M238 190H184V347H59V393H184V497H59V543H184V700H238V543H363V497H238V393H363V347H238Z" glyph-name="daggerdbl" horiz-adv-x="422" unicode="&#8225;" /><glyph d="M481 744H483V50L554 27V8Q500 4 467.5 -1Q435 -6 397 -15L399 56H397Q373 24 332.5 4.5Q292 -15 251 -15Q160 -15 101 52Q42 119 42 226Q42 336 114 414.5Q186 493 294 493Q318 493 343.5 488.5Q369 484 397 474V654L317 685V704Q360 711 405.5 722Q451 733 481 744ZM131 263Q131 162 174 104.5Q217 47 290 47Q318 47 348 56.5Q378 66 397 82V348Q397 401 367.5 430.5Q338 460 289 460Q218 460 174.5 405Q131 350 131 263ZM677 608Q677 558 645.5 515Q614 472 555 442L540 457Q583 488 607 521Q631 554 637 588Q632 579 618.5 573.5Q605 568 591 568Q564 568 545.5 587Q527 606 527 633Q527 660 547 680.5Q567 701 596 701Q631 701 654 674Q677 647 677 608Z" glyph-name="dcaron" horiz-adv-x="613" unicode="&#271;" /><glyph d="M397 -15 399 56H397Q373 24 332.5 4.5Q292 -15 251 -15Q160 -15 101 52Q42 119 42 226Q42 336 114 414.5Q186 493 294 493Q318 493 343.5 488.5Q369 484 397 474V563H259V599H397V654L317 685V704Q360 711 405.5 722Q451 733 481 744H483V599H534V563H483V50L554 27V8Q500 4 467.5 -1Q435 -6 397 -15ZM131 263Q131 162 174 104.5Q217 47 290 47Q318 47 348 56.5Q378 66 397 82V348Q397 401 367.5 430.5Q338 460 289 460Q218 460 174.5 405Q131 350 131 263Z" glyph-name="dcroat" horiz-adv-x="573" unicode="&#273;" /><glyph d="M362 560Q362 496 316.5 450.5Q271 405 206 405Q141 405 95.5 450.5Q50 496 50 560Q50 624 95.5 669.5Q141 715 206 715Q271 715 316.5 669.5Q362 624 362 560ZM319 560Q319 610 286.5 643.5Q254 677 206 677Q157 677 124.5 643.5Q92 610 92 560Q92 511 125 477Q158 443 206 443Q254 443 286.5 477Q319 511 319 560Z" glyph-name="degree" horiz-adv-x="412" unicode="&#176;" /><glyph d="M330 641Q330 617 313.5 600.5Q297 584 274 584Q250 584 233.5 600.5Q217 617 217 641Q217 664 233.5 680.5Q250 697 274 697Q297 697 313.5 680.5Q330 664 330 641ZM167 641Q167 617 150.5 600.5Q134 584 110 584Q86 584 69.5 600.5Q53 617 53 641Q53 664 69.5 680.5Q86 697 110 697Q133 697 150 680.5Q167 664 167 641Z" glyph-name="dieresis" horiz-adv-x="384" unicode="&#168;" /><glyph d="M335 517Q335 491 316 472.5Q297 454 270 454Q244 454 225.5 472.5Q207 491 207 517Q207 544 225.5 563Q244 582 270 582Q297 582 316 563Q335 544 335 517ZM479 336H62V380H479ZM335 197Q335 171 316 152.5Q297 134 270 134Q244 134 225.5 152.5Q207 171 207 197Q207 224 225.5 243.5Q244 263 270 263Q297 263 316 243.5Q335 224 335 197Z" glyph-name="divide" horiz-adv-x="540" unicode="&#247;" /><glyph d="M292 679Q237 679 197.5 644.5Q158 610 158 560Q158 519 184.5 486.5Q211 454 277 422L299 679Q297 679 295.5 679Q294 679 292 679ZM421 154Q421 198 394.5 231.5Q368 265 303 297L278 22Q342 23 381.5 60Q421 97 421 154ZM275 -15 268 -97H231L238 -14Q191 -11 141.5 1Q92 13 62 28L63 220H95Q104 131 140.5 82.5Q177 34 242 24L267 314Q261 316 254.5 319Q248 322 242 325Q139 375 102 421.5Q65 468 65 529Q65 607 128.5 661Q192 715 294 715Q296 715 298 715Q300 715 302 715L309 789H346L339 713Q374 711 413.5 705Q453 699 478 693L472 540H439Q429 598 403.5 631Q378 664 336 674L312 405Q373 378 399.5 362Q426 346 446 330Q478 302 494 268.5Q510 235 510 194Q510 106 443 45.5Q376 -15 275 -15Z" glyph-name="dollar" horiz-adv-x="557" unicode="$" /><glyph d="M188 641Q188 613 168.5 593.5Q149 574 121 574Q93 574 74 593.5Q55 613 55 641Q55 669 74 688Q93 707 121 707Q149 707 168.5 688Q188 669 188 641Z" glyph-name="dotaccent" horiz-adv-x="242" unicode="&#729;" /><glyph d="M106 405 29 435V454Q68 460 112.5 471Q157 482 190 494H192V81Q192 56 201.5 44.5Q211 33 233 27L260 21V0H38V21L64 27Q87 33 96.5 44.5Q106 56 106 81Z" glyph-name="dotlessi" horiz-adv-x="283" unicode="&#305;" /><glyph d="M17 -225Q48 -212 72 -166.5Q96 -121 96 -69V405L19 435V454Q58 460 102.5 471Q147 482 180 494H182V-47Q182 -127 140.5 -180Q99 -233 35 -240Z" glyph-name="dotlessj" horiz-adv-x="259" unicode="&#567;" /><glyph d="M268 -15Q168 -15 105 56Q42 127 42 234Q42 342 106 417.5Q170 493 269 493Q355 493 408 433Q461 373 461 285V275H128Q128 270 127.5 266Q127 262 127 260Q127 171 177.5 113.5Q228 56 300 56Q346 56 386.5 80Q427 104 445 141L464 132Q446 65 393.5 25Q341 -15 268 -15ZM261 458Q210 458 174 415Q138 372 131 305L370 309Q370 378 341 418Q312 458 261 458Z" glyph-name="e" horiz-adv-x="505" unicode="e" /><glyph d="M268 -15Q168 -15 105 56Q42 127 42 234Q42 342 106 417.5Q170 493 269 493Q355 493 408 433Q461 373 461 285V275H128Q128 270 127.5 266Q127 262 127 260Q127 171 177.5 113.5Q228 56 300 56Q346 56 386.5 80Q427 104 445 141L464 132Q446 65 393.5 25Q341 -15 268 -15ZM261 458Q210 458 174 415Q138 372 131 305L370 309Q370 378 341 418Q312 458 261 458ZM267 554H241L256 702H365Z" glyph-name="eacute" horiz-adv-x="505" unicode="&#233;" /><glyph d="M268 -15Q168 -15 105 56Q42 127 42 234Q42 342 106 417.5Q170 493 269 493Q355 493 408 433Q461 373 461 285V275H128Q128 270 127.5 266Q127 262 127 260Q127 171 177.5 113.5Q228 56 300 56Q346 56 386.5 80Q427 104 445 141L464 132Q446 65 393.5 25Q341 -15 268 -15ZM261 458Q210 458 174 415Q138 372 131 305L370 309Q370 378 341 418Q312 458 261 458ZM256 553Q197 553 163.5 586Q130 619 130 670V694H167V688Q167 658 190.5 639Q214 620 256 620Q298 620 322 639Q346 658 346 688V694H383V670Q383 618 349.5 585.5Q316 553 256 553Z" glyph-name="ebreve" horiz-adv-x="505" unicode="&#277;" /><glyph d="M268 -15Q168 -15 105 56Q42 127 42 234Q42 342 106 417.5Q170 493 269 493Q355 493 408 433Q461 373 461 285V275H128Q128 270 127.5 266Q127 262 127 260Q127 171 177.5 113.5Q228 56 300 56Q346 56 386.5 80Q427 104 445 141L464 132Q446 65 393.5 25Q341 -15 268 -15ZM261 458Q210 458 174 415Q138 372 131 305L370 309Q370 378 341 418Q312 458 261 458ZM230 554 135 702H170L256 625L342 702H378L282 554Z" glyph-name="ecaron" horiz-adv-x="505" unicode="&#283;" /><glyph d="M268 -15Q168 -15 105 56Q42 127 42 234Q42 342 106 417.5Q170 493 269 493Q355 493 408 433Q461 373 461 285V275H128Q128 270 127.5 266Q127 262 127 260Q127 171 177.5 113.5Q228 56 300 56Q346 56 386.5 80Q427 104 445 141L464 132Q446 65 393.5 25Q341 -15 268 -15ZM261 458Q210 458 174 415Q138 372 131 305L370 309Q370 378 341 418Q312 458 261 458ZM170 554H135L230 702H282L378 554H342L256 632Z" glyph-name="ecircumflex" horiz-adv-x="505" unicode="&#234;" /><glyph d="M268 -15Q168 -15 105 56Q42 127 42 234Q42 342 106 417.5Q170 493 269 493Q355 493 408 433Q461 373 461 285V275H128Q128 270 127.5 266Q127 262 127 260Q127 171 177.5 113.5Q228 56 300 56Q346 56 386.5 80Q427 104 445 141L464 132Q446 65 393.5 25Q341 -15 268 -15ZM261 458Q210 458 174 415Q138 372 131 305L370 309Q370 378 341 418Q312 458 261 458ZM395 630Q395 606 378.5 589.5Q362 573 339 573Q315 573 298.5 589.5Q282 606 282 630Q282 653 298.5 669.5Q315 686 339 686Q362 686 378.5 669.5Q395 653 395 630ZM232 630Q232 606 215.5 589.5Q199 573 175 573Q151 573 134.5 589.5Q118 606 118 630Q118 653 134.5 669.5Q151 686 175 686Q198 686 215 669.5Q232 653 232 630Z" glyph-name="edieresis" horiz-adv-x="505" unicode="&#235;" /><glyph d="M268 -15Q168 -15 105 56Q42 127 42 234Q42 342 106 417.5Q170 493 269 493Q355 493 408 433Q461 373 461 285V275H128Q128 270 127.5 266Q127 262 127 260Q127 171 177.5 113.5Q228 56 300 56Q346 56 386.5 80Q427 104 445 141L464 132Q446 65 393.5 25Q341 -15 268 -15ZM261 458Q210 458 174 415Q138 372 131 305L370 309Q370 378 341 418Q312 458 261 458ZM323 627Q323 599 303.5 579.5Q284 560 256 560Q228 560 209 579.5Q190 599 190 627Q190 655 209 674Q228 693 256 693Q284 693 303.5 674Q323 655 323 627Z" glyph-name="edotaccent" horiz-adv-x="505" unicode="&#279;" /><glyph d="M268 -15Q168 -15 105 56Q42 127 42 234Q42 342 106 417.5Q170 493 269 493Q355 493 408 433Q461 373 461 285V275H128Q128 270 127.5 266Q127 262 127 260Q127 171 177.5 113.5Q228 56 300 56Q346 56 386.5 80Q427 104 445 141L464 132Q446 65 393.5 25Q341 -15 268 -15ZM261 458Q210 458 174 415Q138 372 131 305L370 309Q370 378 341 418Q312 458 261 458ZM270 554H244L146 702H255Z" glyph-name="egrave" horiz-adv-x="505" unicode="&#232;" /><glyph d="M79 541Q79 611 141 663Q203 715 295 715Q385 715 442 668Q499 621 499 556Q499 500 460.5 454.5Q422 409 361 386V385Q447 341 484 294Q521 247 521 182Q521 99 452.5 42Q384 -15 283 -15Q185 -15 119.5 37.5Q54 90 54 173Q54 234 96 285Q138 336 208 365V366Q142 401 110.5 444.5Q79 488 79 541ZM426 557Q426 610 389 645.5Q352 681 293 681Q240 681 203.5 648Q167 615 167 565Q167 521 195.5 488.5Q224 456 294 419L332 399Q378 431 402 472Q426 513 426 557ZM141 174Q141 109 184 65.5Q227 22 291 22Q351 22 392 60.5Q433 99 433 156Q433 203 402.5 241Q372 279 304 314L236 350Q193 315 167 268Q141 221 141 174Z" glyph-name="eight" horiz-adv-x="576" unicode="8" /><glyph d="M340 110Q340 60 299 25.5Q258 -9 198 -9Q138 -9 98.5 22.5Q59 54 59 104Q59 140 85 171Q111 202 153 219V220Q114 241 94.5 267Q75 293 75 324Q75 367 111.5 398Q148 429 204 429Q258 429 292.5 400.5Q327 372 327 334Q327 300 304 272.5Q281 245 244 231Q296 204 318 176.5Q340 149 340 110ZM283 334Q283 366 260.5 387.5Q238 409 203 409Q171 409 149 389Q127 369 127 339Q127 313 144.5 293Q162 273 205 250L226 239Q254 259 268.5 283.5Q283 308 283 334ZM112 104Q112 65 137.5 39.5Q163 14 202 14Q238 14 262.5 36.5Q287 59 287 93Q287 123 267.5 147Q248 171 209 190L169 210Q143 189 127.5 160.5Q112 132 112 104Z" glyph-name="eight.dnom" horiz-adv-x="400" /><glyph d="M340 396Q340 346 299 311.5Q258 277 198 277Q138 277 98.5 308.5Q59 340 59 390Q59 426 85 457Q111 488 153 505V506Q114 527 94.5 553Q75 579 75 610Q75 653 111.5 684Q148 715 204 715Q258 715 292.5 686.5Q327 658 327 620Q327 586 304 558.5Q281 531 244 517Q296 490 318 462.5Q340 435 340 396ZM283 620Q283 652 260.5 673.5Q238 695 203 695Q171 695 149 675Q127 655 127 625Q127 599 144.5 579Q162 559 205 536L226 525Q254 545 268.5 569.5Q283 594 283 620ZM112 390Q112 351 137.5 325.5Q163 300 202 300Q238 300 262.5 322.5Q287 345 287 379Q287 409 267.5 433Q248 457 209 476L169 496Q143 475 127.5 446.5Q112 418 112 390Z" glyph-name="eight.numr" horiz-adv-x="400" /><glyph d="M79 496Q79 561 135.5 609Q192 657 276 657Q358 657 410 613.5Q462 570 462 511Q462 459 427.5 417Q393 375 337 354V353Q415 313 448.5 269.5Q482 226 482 166Q482 90 419.5 37.5Q357 -15 265 -15Q175 -15 115.5 33.5Q56 82 56 158Q56 214 94.5 261Q133 308 197 335V336Q137 369 108 408.5Q79 448 79 496ZM396 511Q396 560 362 592.5Q328 625 274 625Q226 625 192.5 594.5Q159 564 159 519Q159 479 185.5 448.5Q212 418 276 384L310 366Q352 395 374 433Q396 471 396 511ZM136 159Q136 99 175 59.5Q214 20 273 20Q328 20 365 55Q402 90 402 142Q402 186 373.5 221.5Q345 257 284 288L223 321Q184 290 160 246Q136 202 136 159Z" glyph-name="eight.pnum" horiz-adv-x="539" /><glyph d="M91 541Q91 611 153 663Q215 715 307 715Q397 715 454 668Q511 621 511 556Q511 500 472.5 454.5Q434 409 373 386V385Q459 341 496 294Q533 247 533 182Q533 99 464.5 42Q396 -15 295 -15Q197 -15 131.5 37.5Q66 90 66 173Q66 234 108 285Q150 336 220 365V366Q154 401 122.5 444.5Q91 488 91 541ZM438 557Q438 610 401 645.5Q364 681 305 681Q252 681 215.5 648Q179 615 179 565Q179 521 207.5 488.5Q236 456 306 419L344 399Q390 431 414 472Q438 513 438 557ZM153 174Q153 109 196 65.5Q239 22 303 22Q363 22 404 60.5Q445 99 445 156Q445 203 414.5 241Q384 279 316 314L248 350Q205 315 179 268Q153 221 153 174Z" glyph-name="eight.tnum" horiz-adv-x="600" /><glyph d="M340 10Q340 -40 299 -74.5Q258 -109 198 -109Q138 -109 98.5 -77.5Q59 -46 59 4Q59 40 85 71Q111 102 153 119V120Q114 141 94.5 167Q75 193 75 224Q75 267 111.5 298Q148 329 204 329Q258 329 292.5 300.5Q327 272 327 234Q327 200 304 172.5Q281 145 244 131Q296 104 318 76.5Q340 49 340 10ZM283 234Q283 266 260.5 287.5Q238 309 203 309Q171 309 149 289Q127 269 127 239Q127 213 144.5 193Q162 173 205 150L226 139Q254 159 268.5 183.5Q283 208 283 234ZM112 4Q112 -35 137.5 -60.5Q163 -86 202 -86Q238 -86 262.5 -63.5Q287 -41 287 -7Q287 23 267.5 47Q248 71 209 90L169 110Q143 89 127.5 60.5Q112 32 112 4Z" glyph-name="eightinferior" horiz-adv-x="400" unicode="&#8328;" /><glyph d="M340 496Q340 446 299 411.5Q258 377 198 377Q138 377 98.5 408.5Q59 440 59 490Q59 526 85 557Q111 588 153 605V606Q114 627 94.5 653Q75 679 75 710Q75 753 111.5 784Q148 815 204 815Q258 815 292.5 786.5Q327 758 327 720Q327 686 304 658.5Q281 631 244 617Q296 590 318 562.5Q340 535 340 496ZM283 720Q283 752 260.5 773.5Q238 795 203 795Q171 795 149 775Q127 755 127 725Q127 699 144.5 679Q162 659 205 636L226 625Q254 645 268.5 669.5Q283 694 283 720ZM112 490Q112 451 137.5 425.5Q163 400 202 400Q238 400 262.5 422.5Q287 445 287 479Q287 509 267.5 533Q248 557 209 576L169 596Q143 575 127.5 546.5Q112 518 112 490Z" glyph-name="eightsuperior" horiz-adv-x="400" unicode="&#8312;" /><glyph d="M903 56Q903 26 882 5.5Q861 -15 831 -15Q802 -15 781.5 5.5Q761 26 761 56Q761 85 781.5 106Q802 127 831 127Q861 127 882 106Q903 85 903 56ZM554 56Q554 27 533 6Q512 -15 483 -15Q453 -15 432.5 5.5Q412 26 412 56Q412 86 432.5 106.5Q453 127 483 127Q512 127 533 106Q554 85 554 56ZM205 56Q205 26 184 5.5Q163 -15 133 -15Q103 -15 82.5 5.5Q62 26 62 56Q62 86 82.5 106.5Q103 127 133 127Q163 127 184 106Q205 85 205 56Z" glyph-name="ellipsis" horiz-adv-x="965" unicode="&#8230;" /><glyph d="M268 -15Q168 -15 105 56Q42 127 42 234Q42 342 106 417.5Q170 493 269 493Q355 493 408 433Q461 373 461 285V275H128Q128 270 127.5 266Q127 262 127 260Q127 171 177.5 113.5Q228 56 300 56Q346 56 386.5 80Q427 104 445 141L464 132Q446 65 393.5 25Q341 -15 268 -15ZM261 458Q210 458 174 415Q138 372 131 305L370 309Q370 378 341 418Q312 458 261 458ZM393 583H119V639H393Z" glyph-name="emacron" horiz-adv-x="505" unicode="&#275;" /><glyph d="M982 240H62V280H982Z" glyph-name="emdash" horiz-adv-x="1044" unicode="&#8212;" /><glyph d="M987 306H67V346H987Z" glyph-name="emdash.case" horiz-adv-x="1054" /><glyph d="M482 240H62V280H482Z" glyph-name="endash" horiz-adv-x="544" unicode="&#8211;" /><glyph d="M487 306H67V346H487Z" glyph-name="endash.case" horiz-adv-x="554" /><glyph d="M311 -222Q268 -222 237 -198Q206 -174 206 -138Q206 -115 222.5 -98.5Q239 -82 261 -82Q283 -82 298.5 -98Q314 -114 314 -137Q314 -149 308.5 -162.5Q303 -176 295 -183Q299 -184 305.5 -185Q312 -186 316 -186Q359 -186 385 -151Q411 -116 411 -65V313Q411 372 383.5 402Q356 432 304 432Q278 432 248.5 422Q219 412 191 394V81Q191 56 200.5 45Q210 34 233 29L268 21V0H37V21L64 27Q86 33 95.5 44.5Q105 56 105 81V405L28 435V454Q67 460 111.5 471Q156 482 189 494H191L189 416H191Q224 452 264 472.5Q304 493 343 493Q414 493 455.5 449Q497 405 497 326V81Q497 56 506.5 44.5Q516 33 538 27L565 21V0H451V-60Q451 -134 413 -178Q375 -222 311 -222Z" glyph-name="eng" horiz-adv-x="583" unicode="&#331;" /><glyph d="M303 -193Q265 -193 240 -173Q215 -153 215 -118Q215 -91 233.5 -63.5Q252 -36 285 -14Q282 -15 278.5 -15Q275 -15 268 -15Q168 -15 105 56Q42 127 42 234Q42 342 106 417.5Q170 493 269 493Q355 493 408 433Q461 373 461 285V275H128Q128 270 127.5 266Q127 262 127 260Q127 171 177.5 113.5Q228 56 300 56Q346 56 386.5 80Q427 104 445 141L464 132Q452 85 420 49.5Q388 14 343 -2Q317 -32 302.5 -58.5Q288 -85 288 -105Q288 -128 307 -142Q326 -156 354 -156Q358 -156 363 -155.5Q368 -155 376 -154L371 -178Q356 -185 338 -189Q320 -193 303 -193ZM261 458Q210 458 174 415Q138 372 131 305L370 309Q370 378 341 418Q312 458 261 458Z" glyph-name="eogonek" horiz-adv-x="505" unicode="&#281;" /><glyph d="M478 433H61V478H478ZM478 237H61V282H478Z" glyph-name="equal" horiz-adv-x="540" unicode="=" /><glyph d="M447 -11Q370 -11 299.5 15.5Q229 42 173 91Q115 142 83.5 210Q52 278 52 353Q52 427 83.5 494.5Q115 562 174 613Q229 661 299.5 686.5Q370 712 447 712Q622 712 733 607.5Q844 503 844 344H209Q204 344 202 341.5Q200 339 200 332V160Q200 130 226 103Q252 76 300 55Q335 39 375.5 29.5Q416 20 447 20Q527 20 596 49Q665 78 712 131H759Q704 62 623.5 25.5Q543 -11 447 -11ZM209 375H686Q691 375 693 377Q695 379 695 384V552Q695 607 616 644.5Q537 682 447 682Q361 682 280.5 644Q200 606 200 552V384Q200 379 202 377Q204 375 209 375Z" glyph-name="estimated" horiz-adv-x="881" unicode="&#8494;" /><glyph d="M497 244Q497 132 432 59Q367 -14 269 -14Q174 -14 107.5 56Q41 126 41 227Q41 329 104.5 398.5Q168 468 262 468Q285 468 308 463.5Q331 459 348 451Q326 484 298 521Q270 558 236 598L139 542L120 573L211 625Q177 663 144.5 695Q112 727 91 744L111 761Q146 744 186.5 717Q227 690 266 657L365 714L384 683L294 631Q391 542 444 442Q497 342 497 244ZM269 435Q206 435 172 381Q138 327 138 227Q138 127 172.5 72.5Q207 18 269 18Q331 18 365.5 72.5Q400 127 400 227Q400 327 366 381Q332 435 269 435Z" glyph-name="eth" horiz-adv-x="540" unicode="&#240;" /><glyph d="M161 203H125L124 236Q123 284 116 353Q109 422 92 550Q84 608 82 627Q80 646 80 653Q80 682 97.5 698.5Q115 715 140 715H146Q171 715 188.5 698.5Q206 682 206 653Q206 646 204 627Q202 608 194 550Q177 422 170 353Q163 284 162 236ZM215 57Q215 27 194 6Q173 -15 143 -15Q113 -15 92.5 6Q72 27 72 57Q72 87 92.5 107.5Q113 128 143 128Q173 128 194 107Q215 86 215 57Z" glyph-name="exclam" horiz-adv-x="287" unicode="!" /><glyph d="M115 227 116 260H152L153 227Q154 179 161 110Q168 41 185 -87Q193 -145 195 -164Q197 -183 197 -190Q197 -219 179.5 -235.5Q162 -252 137 -252H131Q106 -252 88.5 -235.5Q71 -219 71 -190Q71 -183 73 -164Q75 -145 83 -87Q100 41 107 110Q114 179 115 227ZM63 406Q63 436 83.5 457Q104 478 134 478Q164 478 185 457Q206 436 206 406Q206 377 185 356Q164 335 134 335Q104 335 83.5 355.5Q63 376 63 406Z" glyph-name="exclamdown" horiz-adv-x="268" unicode="&#161;" /><glyph d="M133 464 134 497H170L171 464Q172 416 179 347Q186 278 203 150Q211 92 213 73Q215 54 215 47Q215 18 197.5 1.5Q180 -15 155 -15H149Q124 -15 106.5 1.5Q89 18 89 47Q89 54 91 73Q93 92 101 150Q118 278 125 347Q132 416 133 464ZM81 643Q81 673 101.5 694Q122 715 152 715Q182 715 203 694Q224 673 224 643Q224 614 203 593Q182 572 152 572Q122 572 101.5 592.5Q81 613 81 643Z" glyph-name="exclamdown.case" horiz-adv-x="304" /><glyph d="M302 696Q253 696 223 660.5Q193 625 193 563V478H324V436H193V81Q193 58 202.5 47Q212 36 235 30L273 21V0H40V21L66 27Q88 33 97.5 45Q107 57 107 81V436H26V478H107V569Q107 650 154.5 697.5Q202 745 275 745Q310 745 344.5 729.5Q379 714 395 691L372 671Q357 683 338.5 689.5Q320 696 302 696Z" glyph-name="f" horiz-adv-x="343" unicode="f" /><glyph d="M273 0H40V21L66 27Q88 33 97.5 45Q107 57 107 81V436H26V478H107V564Q107 646 154 695.5Q201 745 272 745Q327 745 365 716Q403 687 403 645Q403 624 389.5 609.5Q376 595 356 595Q337 595 324.5 607.5Q312 620 312 639Q312 646 315 652.5Q318 659 326 670Q331 677 332.5 680Q334 683 334 685Q334 695 320 702.5Q306 710 286 710Q245 710 219 678Q193 646 193 591V478H324V436H193V81Q193 58 202.5 47Q212 36 235 30L273 21Z" glyph-name="f.alt" horiz-adv-x="343" /><glyph d="M273 21V0H40V21L66 27Q88 33 97.5 45Q107 57 107 81V436H26V478H107V543Q107 624 154.5 671.5Q202 719 275 719Q305 719 336 707Q367 695 387 676L368 650Q354 659 336.5 664.5Q319 670 302 670Q254 670 223.5 634.5Q193 599 193 537V478H412V564Q412 645 459 695Q506 745 576 745Q632 745 670 716Q708 687 708 645Q708 624 694.5 609.5Q681 595 661 595Q642 595 629.5 607.5Q617 620 617 639Q617 646 620 652.5Q623 659 631 670Q636 677 637.5 680Q639 683 639 685Q639 695 624.5 702.5Q610 710 590 710Q550 710 524 678Q498 646 498 591V478H629V436H498V81Q498 58 507.5 47Q517 36 540 30L578 21V0H344V21L371 27Q393 33 402.5 45Q412 57 412 81V436H193V81Q193 57 202.5 46Q212 35 235 30Z" glyph-name="f_f" horiz-adv-x="648" unicode="&#64256;" /><glyph d="M273 21V0H40V21L66 27Q88 33 97.5 45Q107 57 107 81V436H26V478H107V543Q107 624 154.5 671.5Q202 719 275 719Q305 719 336 707Q367 695 387 676L368 650Q354 659 336.5 664.5Q319 670 302 670Q254 670 223.5 634.5Q193 599 193 537V478H412V564Q412 645 459 695Q506 745 576 745Q632 745 670 716Q708 687 708 645Q708 624 694.5 609.5Q681 595 661 595Q642 595 629.5 607.5Q617 620 617 639Q617 646 620 652.5Q623 659 631 670Q636 677 637.5 680Q639 683 639 685Q639 695 624.5 702.5Q610 710 590 710Q550 710 524 678Q498 646 498 591V478H750Q778 486 786.5 489Q795 492 801 494H803V81Q803 56 812.5 44.5Q822 33 845 27L871 21V0H649V21L675 27Q698 33 707.5 44.5Q717 56 717 81V436H498V81Q498 58 507.5 47Q517 36 540 30L578 21V0H344V21L371 27Q393 33 402.5 45Q412 57 412 81V436H193V81Q193 57 202.5 46Q212 35 235 30Z" glyph-name="f_f_i" horiz-adv-x="894" unicode="&#64259;" /><glyph d="M273 21V0H40V21L66 27Q88 33 97.5 45Q107 57 107 81V436H26V478H107V543Q107 624 154.5 671.5Q202 719 275 719Q305 719 336 707Q367 695 387 676L368 650Q354 659 336.5 664.5Q319 670 302 670Q254 670 223.5 634.5Q193 599 193 537V478H412V564Q412 646 459 695.5Q506 745 577 745Q607 745 632.5 736Q658 727 676 711Q710 718 744 727Q778 736 801 744H803V81Q803 57 812.5 45Q822 33 845 27L871 21V0H649V21L676 27Q698 33 707.5 44.5Q717 56 717 81V654L707 658Q708 656 708 653Q708 650 708 645Q708 624 694.5 609.5Q681 595 661 595Q642 595 629.5 607.5Q617 620 617 639Q617 646 620 652.5Q623 659 631 670Q636 677 637.5 680Q639 683 639 685Q639 695 625 702.5Q611 710 591 710Q550 710 524 678Q498 646 498 591V478H629V436H498V81Q498 58 507.5 47Q517 36 540 30L578 21V0H345V21L371 27Q393 33 402.5 45Q412 57 412 81V436H193V81Q193 58 202.5 47Q212 36 235 30Z" glyph-name="f_f_l" horiz-adv-x="895" unicode="&#64260;" /><glyph d="M290 -239Q238 -239 200.5 -212.5Q163 -186 163 -147Q163 -126 176.5 -111.5Q190 -97 209 -97Q228 -97 240.5 -109.5Q253 -122 253 -141Q253 -155 243 -167.5Q233 -180 218 -183V-186Q227 -192 239.5 -195Q252 -198 265 -198Q316 -198 344 -162.5Q372 -127 372 -61V436H193V81Q193 58 202.5 47Q212 36 235 30L273 21V0H40V21L66 27Q88 33 97.5 45Q107 57 107 81V436H26V478H107V564Q107 646 154 695.5Q201 745 272 745Q327 745 365 716Q403 687 403 645Q403 624 389.5 609.5Q376 595 356 595Q337 595 324.5 607.5Q312 620 312 639Q312 646 315 652.5Q318 659 326 670Q331 677 332.5 680Q334 683 334 685Q334 695 320 702.5Q306 710 286 710Q245 710 219 678Q193 646 193 591V478H403Q415 481 428 485Q441 489 455 494H457V-59Q457 -142 410.5 -190.5Q364 -239 290 -239Z" glyph-name="f_j" horiz-adv-x="534" /><glyph d="M273 21V0H40V21L66 27Q88 33 97.5 45Q107 57 107 81V436H26V478H107V564Q107 646 154 695.5Q201 745 272 745Q327 745 365 716Q403 687 403 645Q403 624 389.5 609.5Q376 595 356 595Q337 595 324.5 607.5Q312 620 312 639Q312 646 315 652.5Q318 659 326 670Q331 677 332.5 680Q334 683 334 685Q334 695 320 702.5Q306 710 286 710Q245 710 219 678Q193 646 193 591V478H445Q473 486 481.5 489Q490 492 496 494H498V81Q498 57 507.5 45Q517 33 540 27L566 21V0H344V21L371 27Q393 33 402.5 44.5Q412 56 412 81V436H193V81Q193 58 202.5 47Q212 36 235 30Z" glyph-name="fi" horiz-adv-x="589" unicode="&#64257;" /><glyph d="M192 467Q335 450 415 381Q495 312 495 211Q495 119 422 52Q349 -15 237 -15Q154 -15 98 15.5Q42 46 42 88Q42 109 57.5 124Q73 139 96 139Q108 139 120 130.5Q132 122 154 92Q186 50 209 36Q232 22 259 22Q322 22 362.5 66.5Q403 111 403 172Q403 252 339.5 307.5Q276 363 161 379Q147 381 125.5 383Q104 385 86 386L120 700H488L475 628Q473 620 467.5 615.5Q462 611 455 611H147L134 471Q139 471 145.5 470.5Q152 470 166 469Q178 468 183 467.5Q188 467 192 467Z" glyph-name="five" horiz-adv-x="547" unicode="5" /><glyph d="M332 126Q332 71 288 31Q244 -9 177 -9Q127 -9 93 9Q59 27 59 53Q59 65 68.5 74Q78 83 92 83Q99 83 106.5 78Q114 73 127 55Q146 30 160 21.5Q174 13 190 13Q228 13 252 39.5Q276 66 276 104Q276 153 237 184Q198 215 122 226L86 231L105 420H328L319 377Q318 372 314 369Q310 366 304 366H123L115 282L151 278Q237 268 284.5 227.5Q332 187 332 126Z" glyph-name="five.dnom" horiz-adv-x="400" /><glyph d="M334 412Q334 357 290 317Q246 277 179 277Q129 277 95 295Q61 313 61 339Q61 351 70.5 360Q80 369 94 369Q101 369 108.5 364Q116 359 129 341Q148 316 162 307.5Q176 299 192 299Q230 299 254 325.5Q278 352 278 390Q278 439 239 470Q200 501 124 512L88 517L107 706H330L321 663Q320 658 316 655Q312 652 306 652H125L117 568L153 564Q239 554 286.5 513.5Q334 473 334 412Z" glyph-name="five.numr" horiz-adv-x="400" /><glyph d="M169 298Q299 283 372.5 219Q446 155 446 63Q446 -21 379.5 -83Q313 -145 210 -145Q135 -145 84 -117Q33 -89 33 -50Q33 -31 47 -17.5Q61 -4 82 -4Q93 -4 104 -12Q115 -20 135 -47Q164 -86 185 -99Q206 -112 230 -112Q288 -112 325.5 -70.5Q363 -29 363 27Q363 101 304.5 152Q246 203 141 218Q121 220 103 221.5Q85 223 73 223L103 515H441L428 449Q426 441 420.5 437Q415 433 405 433H128L116 301Q126 301 143 300Q160 299 169 298Z" glyph-name="five.pnum" horiz-adv-x="493" /><glyph d="M219 467Q362 450 442 381Q522 312 522 211Q522 119 449 52Q376 -15 264 -15Q181 -15 125 15.5Q69 46 69 88Q69 109 84.5 124Q100 139 123 139Q135 139 147 130.5Q159 122 181 92Q213 50 236 36Q259 22 286 22Q349 22 389.5 66.5Q430 111 430 172Q430 252 366.5 307.5Q303 363 188 379Q174 381 152.5 383Q131 385 113 386L147 700H515L502 628Q500 620 494.5 615.5Q489 611 482 611H174L161 471Q166 471 172.5 470.5Q179 470 193 469Q205 468 210 467.5Q215 467 219 467Z" glyph-name="five.tnum" horiz-adv-x="600" /><glyph d="M800 700 219 0H184L765 700ZM352 412Q352 357 308 317Q264 277 197 277Q147 277 113 295Q79 313 79 339Q79 351 88.5 360Q98 369 112 369Q119 369 126.5 364Q134 359 147 341Q166 316 180 307.5Q194 299 210 299Q248 299 272 325.5Q296 352 296 390Q296 439 257 470Q218 501 142 512L106 517L125 706H348L339 663Q338 658 334 655Q330 652 324 652H143L135 568L171 564Q257 554 304.5 513.5Q352 473 352 412ZM920 110Q920 60 879 25.5Q838 -9 778 -9Q718 -9 678.5 22.5Q639 54 639 104Q639 140 665 171Q691 202 733 219V220Q694 241 674.5 267Q655 293 655 324Q655 367 691.5 398Q728 429 784 429Q838 429 872.5 400.5Q907 372 907 334Q907 300 884 272.5Q861 245 824 231Q876 204 898 176.5Q920 149 920 110ZM863 334Q863 366 840.5 387.5Q818 409 783 409Q751 409 729 389Q707 369 707 339Q707 313 724.5 293Q742 273 785 250L806 239Q834 259 848.5 283.5Q863 308 863 334ZM692 104Q692 65 717.5 39.5Q743 14 782 14Q818 14 842.5 36.5Q867 59 867 93Q867 123 847.5 147Q828 171 789 190L749 210Q723 189 707.5 160.5Q692 132 692 104Z" glyph-name="fiveeights" horiz-adv-x="999" unicode="&#8541;" /><glyph d="M333 26Q333 -29 289 -69Q245 -109 178 -109Q128 -109 94 -91Q60 -73 60 -47Q60 -35 69.5 -26Q79 -17 93 -17Q100 -17 107.5 -22Q115 -27 128 -45Q147 -70 161 -78.5Q175 -87 191 -87Q229 -87 253 -60.5Q277 -34 277 4Q277 53 238 84Q199 115 123 126L87 131L106 320H329L320 277Q319 272 315 269Q311 266 305 266H124L116 182L152 178Q238 168 285.5 127.5Q333 87 333 26Z" glyph-name="fiveinferior" horiz-adv-x="400" unicode="&#8325;" /><glyph d="M333 512Q333 457 289 417Q245 377 178 377Q128 377 94 395Q60 413 60 439Q60 451 69.5 460Q79 469 93 469Q100 469 107.5 464Q115 459 128 441Q147 416 161 407.5Q175 399 191 399Q229 399 253 425.5Q277 452 277 490Q277 539 238 570Q199 601 123 612L87 617L106 806H329L320 763Q319 758 315 755Q311 752 305 752H124L116 668L152 664Q238 654 285.5 613.5Q333 573 333 512Z" glyph-name="fivesuperior" horiz-adv-x="400" unicode="&#8309;" /><glyph d="M235 30 273 21V0H40V21L66 27Q88 33 97.5 45Q107 57 107 81V436H26V478H107V564Q107 646 154 695.5Q201 745 272 745Q302 745 327.5 736Q353 727 371 711Q405 718 439 727Q473 736 496 744H498V81Q498 57 507.5 45Q517 33 540 27L566 21V0H344V21L371 27Q393 33 402.5 44.5Q412 56 412 81V654L402 658Q403 656 403 653Q403 650 403 645Q403 624 389.5 609.5Q376 595 356 595Q337 595 324.5 607.5Q312 620 312 639Q312 646 315 652.5Q318 659 326 670Q331 677 332.5 680Q334 683 334 685Q334 695 320 702.5Q306 710 286 710Q245 710 219 678Q193 646 193 591V478H324V436H193V81Q193 58 202.5 47Q212 36 235 30Z" glyph-name="fl" horiz-adv-x="590" unicode="&#64258;" /><glyph d="M354 303 267 -5Q229 -140 168.5 -208Q108 -276 26 -276Q-14 -276 -43.5 -252Q-73 -228 -73 -197Q-73 -175 -59 -159.5Q-45 -144 -25 -144Q-6 -144 7 -156Q20 -168 20 -187Q20 -205 9.5 -217Q-1 -229 -19 -234V-238Q-12 -243 -3.5 -245Q5 -247 16 -247Q67 -247 108 -194Q149 -141 178 -37L272 303H169L178 333H281L329 500Q368 635 428 702.5Q488 770 568 770Q609 770 638 746.5Q667 723 667 691Q667 669 653.5 653.5Q640 638 619 638Q601 638 588 650.5Q575 663 575 682Q575 699 585.5 711.5Q596 724 614 728V732Q606 737 597 739.5Q588 742 578 742Q528 742 487.5 689Q447 636 417 532L361 333H473L463 303Z" glyph-name="florin" horiz-adv-x="687" unicode="&#402;" /><glyph d="M341 246V427L433 455V247H552L550 183H433V78Q433 60 442 51.5Q451 43 475 38L525 27V1H249V27L300 38Q323 42 332 50.5Q341 59 341 78V183H31L23 216L295 715H392L81 248V246Z" glyph-name="four" horiz-adv-x="585" unicode="4" /><glyph d="M226 152V254L281 270V152H352L351 114H281V47Q281 36 286.5 30.5Q292 25 307 23L336 16V1H171V16L202 23Q216 25 221 30Q226 35 226 47V114H45L40 134L207 429H265L75 153V152Z" glyph-name="four.dnom" horiz-adv-x="400" /><glyph d="M225 438V540L280 556V438H351L350 400H280V333Q280 322 285.5 316.5Q291 311 306 309L335 302V287H170V302L201 309Q215 311 220 316Q225 321 225 333V400H44L39 420L206 715H264L74 439V438Z" glyph-name="four.numr" horiz-adv-x="400" /><glyph d="M310 -134V35H32L24 64L279 520H370L78 94V92H310V260L402 285V93H512L510 35H402V-134Z" glyph-name="four.pnum" horiz-adv-x="545" /><glyph d="M348 246V427L440 455V247H559L557 183H440V78Q440 60 449 51.5Q458 43 482 38L532 27V1H256V27L307 38Q330 42 339 50.5Q348 59 348 78V183H38L30 216L302 715H399L88 248V246Z" glyph-name="four.tnum" horiz-adv-x="600" /><glyph d="M225 52V154L280 170V52H351L350 14H280V-53Q280 -64 285.5 -69.5Q291 -75 306 -77L335 -84V-99H170V-84L201 -77Q215 -75 220 -70Q225 -65 225 -53V14H44L39 34L206 329H264L74 53V52Z" glyph-name="fourinferior" horiz-adv-x="400" unicode="&#8324;" /><glyph d="M226 538V640L281 656V538H352L351 500H281V433Q281 422 286.5 416.5Q292 411 307 409L336 402V387H171V402L202 409Q216 411 221 416Q226 421 226 433V500H45L40 520L207 815H265L75 539V538Z" glyph-name="foursuperior" horiz-adv-x="400" unicode="&#8308;" /><glyph d="M406 700 -175 0H-210L371 700Z" glyph-name="fraction" horiz-adv-x="200" unicode="&#8260;" /><glyph d="M243 461Q198 461 173 426.5Q148 392 148 328Q148 265 173 231Q198 197 243 197Q288 197 313 231Q338 265 338 328Q338 391 313 426Q288 461 243 461ZM113 209Q85 231 69.5 262Q54 293 54 328Q54 398 108.5 446Q163 494 242 494Q265 494 286.5 489.5Q308 485 326 476L521 490L511 418L380 443L379 441Q404 418 417 388.5Q430 359 430 328Q430 260 375 211.5Q320 163 242 163Q210 163 181 172Q152 181 129 197Q122 187 116.5 172.5Q111 158 111 146Q111 122 128 107Q145 92 175 91L348 79Q422 75 459.5 43.5Q497 12 497 -45Q497 -126 418.5 -181Q340 -236 221 -236Q128 -236 72 -202Q16 -168 16 -114Q16 -80 37 -53.5Q58 -27 98 -12L128 -21Q114 -37 107 -56.5Q100 -76 100 -98Q100 -145 141.5 -171.5Q183 -198 255 -198Q323 -198 370.5 -165Q418 -132 418 -84Q418 -45 392.5 -26.5Q367 -8 311 -4L185 4Q152 6 129 11Q106 16 91 25Q68 38 56 59.5Q44 81 44 108Q44 138 62 164.5Q80 191 113 209Z" glyph-name="g" horiz-adv-x="524" unicode="g" /><glyph d="M243 461Q198 461 173 426.5Q148 392 148 328Q148 265 173 231Q198 197 243 197Q288 197 313 231Q338 265 338 328Q338 391 313 426Q288 461 243 461ZM113 209Q85 231 69.5 262Q54 293 54 328Q54 398 108.5 446Q163 494 242 494Q265 494 286.5 489.5Q308 485 326 476L521 490L511 418L380 443L379 441Q404 418 417 388.5Q430 359 430 328Q430 260 375 211.5Q320 163 242 163Q210 163 181 172Q152 181 129 197Q122 187 116.5 172.5Q111 158 111 146Q111 122 128 107Q145 92 175 91L348 79Q422 75 459.5 43.5Q497 12 497 -45Q497 -126 418.5 -181Q340 -236 221 -236Q128 -236 72 -202Q16 -168 16 -114Q16 -80 37 -53.5Q58 -27 98 -12L128 -21Q114 -37 107 -56.5Q100 -76 100 -98Q100 -145 141.5 -171.5Q183 -198 255 -198Q323 -198 370.5 -165Q418 -132 418 -84Q418 -45 392.5 -26.5Q367 -8 311 -4L185 4Q152 6 129 11Q106 16 91 25Q68 38 56 59.5Q44 81 44 108Q44 138 62 164.5Q80 191 113 209ZM248 553Q189 553 155.5 586Q122 619 122 670V694H159V688Q159 658 182.5 639Q206 620 248 620Q290 620 314 639Q338 658 338 688V694H375V670Q375 618 341.5 585.5Q308 553 248 553Z" glyph-name="gbreve" horiz-adv-x="524" unicode="&#287;" /><glyph d="M243 461Q198 461 173 426.5Q148 392 148 328Q148 265 173 231Q198 197 243 197Q288 197 313 231Q338 265 338 328Q338 391 313 426Q288 461 243 461ZM113 209Q85 231 69.5 262Q54 293 54 328Q54 398 108.5 446Q163 494 242 494Q265 494 286.5 489.5Q308 485 326 476L521 490L511 418L380 443L379 441Q404 418 417 388.5Q430 359 430 328Q430 260 375 211.5Q320 163 242 163Q210 163 181 172Q152 181 129 197Q122 187 116.5 172.5Q111 158 111 146Q111 122 128 107Q145 92 175 91L348 79Q422 75 459.5 43.5Q497 12 497 -45Q497 -126 418.5 -181Q340 -236 221 -236Q128 -236 72 -202Q16 -168 16 -114Q16 -80 37 -53.5Q58 -27 98 -12L128 -21Q114 -37 107 -56.5Q100 -76 100 -98Q100 -145 141.5 -171.5Q183 -198 255 -198Q323 -198 370.5 -165Q418 -132 418 -84Q418 -45 392.5 -26.5Q367 -8 311 -4L185 4Q152 6 129 11Q106 16 91 25Q68 38 56 59.5Q44 81 44 108Q44 138 62 164.5Q80 191 113 209ZM162 554H127L222 702H274L370 554H334L248 632Z" glyph-name="gcircumflex" horiz-adv-x="524" unicode="&#285;" /><glyph d="M243 461Q198 461 173 426.5Q148 392 148 328Q148 265 173 231Q198 197 243 197Q288 197 313 231Q338 265 338 328Q338 391 313 426Q288 461 243 461ZM113 209Q85 231 69.5 262Q54 293 54 328Q54 398 108.5 446Q163 494 242 494Q265 494 286.5 489.5Q308 485 326 476L521 490L511 418L380 443L379 441Q404 418 417 388.5Q430 359 430 328Q430 260 375 211.5Q320 163 242 163Q210 163 181 172Q152 181 129 197Q122 187 116.5 172.5Q111 158 111 146Q111 122 128 107Q145 92 175 91L348 79Q422 75 459.5 43.5Q497 12 497 -45Q497 -126 418.5 -181Q340 -236 221 -236Q128 -236 72 -202Q16 -168 16 -114Q16 -80 37 -53.5Q58 -27 98 -12L128 -21Q114 -37 107 -56.5Q100 -76 100 -98Q100 -145 141.5 -171.5Q183 -198 255 -198Q323 -198 370.5 -165Q418 -132 418 -84Q418 -45 392.5 -26.5Q367 -8 311 -4L185 4Q152 6 129 11Q106 16 91 25Q68 38 56 59.5Q44 81 44 108Q44 138 62 164.5Q80 191 113 209ZM311 621Q311 593 291.5 573Q272 553 242 553Q207 553 184 580.5Q161 608 161 647Q161 699 194.5 743.5Q228 788 290 818L302 803Q257 771 232.5 738.5Q208 706 203 669Q209 677 221.5 682Q234 687 247 687Q274 687 292.5 667.5Q311 648 311 621Z" glyph-name="gcommaaccent" horiz-adv-x="524" unicode="&#291;" /><glyph d="M243 461Q198 461 173 426.5Q148 392 148 328Q148 265 173 231Q198 197 243 197Q288 197 313 231Q338 265 338 328Q338 391 313 426Q288 461 243 461ZM113 209Q85 231 69.5 262Q54 293 54 328Q54 398 108.5 446Q163 494 242 494Q265 494 286.5 489.5Q308 485 326 476L521 490L511 418L380 443L379 441Q404 418 417 388.5Q430 359 430 328Q430 260 375 211.5Q320 163 242 163Q210 163 181 172Q152 181 129 197Q122 187 116.5 172.5Q111 158 111 146Q111 122 128 107Q145 92 175 91L348 79Q422 75 459.5 43.5Q497 12 497 -45Q497 -126 418.5 -181Q340 -236 221 -236Q128 -236 72 -202Q16 -168 16 -114Q16 -80 37 -53.5Q58 -27 98 -12L128 -21Q114 -37 107 -56.5Q100 -76 100 -98Q100 -145 141.5 -171.5Q183 -198 255 -198Q323 -198 370.5 -165Q418 -132 418 -84Q418 -45 392.5 -26.5Q367 -8 311 -4L185 4Q152 6 129 11Q106 16 91 25Q68 38 56 59.5Q44 81 44 108Q44 138 62 164.5Q80 191 113 209ZM315 627Q315 599 295.5 579.5Q276 560 248 560Q220 560 201 579.5Q182 599 182 627Q182 655 201 674Q220 693 248 693Q276 693 295.5 674Q315 655 315 627Z" glyph-name="gdotaccent" horiz-adv-x="524" unicode="&#289;" /><glyph d="M193 0H40V21L66 27Q88 33 97.5 45Q107 57 107 81V432H26V478H107V488Q107 606 173 680Q239 754 347 754Q420 754 467 713Q514 672 514 614Q514 583 493 549.5Q472 516 412 460Q380 431 371 419.5Q362 408 362 400Q362 385 378.5 362Q395 339 483 249Q516 216 531.5 187.5Q547 159 547 131Q547 69 502.5 27Q458 -15 389 -15Q346 -15 313 4Q280 23 280 50Q280 69 292 80.5Q304 92 322 92Q331 92 338 86Q345 80 356 60Q370 33 382.5 24.5Q395 16 413 16Q437 16 457 37Q477 58 477 90Q477 114 462 140Q447 166 395 219L356 258Q316 299 301.5 322.5Q287 346 287 365Q287 377 299.5 393.5Q312 410 354 451Q416 510 436.5 541.5Q457 573 457 600Q457 649 425 680Q393 711 341 711Q271 711 232 654.5Q193 598 193 499Z" glyph-name="germandbls" horiz-adv-x="577" unicode="&#223;" /><glyph d="M177 547H151L53 695H162Z" glyph-name="grave" horiz-adv-x="230" unicode="`" /><glyph d="M499 336 82 165V215L444 358L82 501V551L499 380Z" glyph-name="greater" horiz-adv-x="540" unicode="&gt;" /><glyph d="M710 359 412 74 376 110 568 327 40 324V394L568 391L376 608L412 644Z" glyph-name="greater.alt" horiz-adv-x="735" unicode="&#8594;" /><glyph d="M487 336 70 165V215L432 358L70 501V551L487 380ZM487 0H70V45H487Z" glyph-name="greaterequal" horiz-adv-x="540" unicode="&#8805;" /><glyph d="M405 90 384 79 223 278 384 477 405 466 319 278ZM231 90 210 79 49 278 210 477 231 466 145 278Z" glyph-name="guillemotleft" horiz-adv-x="463" unicode="&#171;" /><glyph d="M416 162 395 151 234 350 395 549 416 538 330 350ZM242 162 221 151 60 350 221 549 242 538 156 350Z" glyph-name="guillemotleft.case" horiz-adv-x="494" /><glyph d="M415 278 254 79 232 90 319 278 232 466 254 477ZM241 278 80 79 58 90 145 278 58 466 80 477Z" glyph-name="guillemotright" horiz-adv-x="464" unicode="&#187;" /><glyph d="M435 350 274 151 252 162 339 350 252 538 274 549ZM261 350 100 151 78 162 165 350 78 538 100 549Z" glyph-name="guillemotright.case" horiz-adv-x="495" /><glyph d="M224 90 203 79 49 278 203 477 224 466 141 278Z" glyph-name="guilsinglleft" horiz-adv-x="282" unicode="&#8249;" /><glyph d="M235 162 214 151 60 350 214 549 235 538 152 350Z" glyph-name="guilsinglleft.case" horiz-adv-x="313" /><glyph d="M233 278 79 79 58 90 141 278 58 466 79 477Z" glyph-name="guilsinglright" horiz-adv-x="282" unicode="&#8250;" /><glyph d="M253 350 99 151 78 162 161 350 78 538 99 549Z" glyph-name="guilsinglright.case" horiz-adv-x="313" /><glyph d="M174 416H176Q208 452 248.5 472.5Q289 493 329 493Q399 493 440.5 449.5Q482 406 482 328V81Q482 56 491.5 44.5Q501 33 523 27L550 21V0H328V21L354 27Q377 33 386.5 44.5Q396 56 396 81V314Q396 371 368 401.5Q340 432 289 432Q263 432 233.5 422Q204 412 176 394V81Q176 56 185.5 45Q195 34 218 29L254 21V0H22V21L49 27Q71 33 80.5 44.5Q90 56 90 81V654L11 685V704Q54 711 99.5 722Q145 733 174 744H176V478Q176 463 175.5 447.5Q175 432 174 416Z" glyph-name="h" horiz-adv-x="568" unicode="h" /><glyph d="M218 29 254 21V0H22V21L49 27Q71 33 80.5 44.5Q90 56 90 81V563H17V599H90V654L11 685V704Q54 711 99.5 722Q145 733 174 744H176V599H292V563H176V478Q176 463 175.5 447.5Q175 432 174 416H176Q208 452 248.5 472.5Q289 493 329 493Q399 493 440.5 449.5Q482 406 482 328V81Q482 56 491.5 44.5Q501 33 523 27L550 21V0H328V21L354 27Q377 33 386.5 44.5Q396 56 396 81V314Q396 371 368 401.5Q340 432 289 432Q263 432 233.5 422Q204 412 176 394V81Q176 56 185.5 45Q195 34 218 29Z" glyph-name="hbar" horiz-adv-x="568" unicode="&#295;" /><glyph d="M174 416H176Q208 452 248.5 472.5Q289 493 329 493Q399 493 440.5 449.5Q482 406 482 328V81Q482 56 491.5 44.5Q501 33 523 27L550 21V0H328V21L354 27Q377 33 386.5 44.5Q396 56 396 81V314Q396 371 368 401.5Q340 432 289 432Q263 432 233.5 422Q204 412 176 394V81Q176 56 185.5 45Q195 34 218 29L254 21V0H22V21L49 27Q71 33 80.5 44.5Q90 56 90 81V654L11 685V704Q54 711 99.5 722Q145 733 174 744H176V478Q176 463 175.5 447.5Q175 432 174 416ZM184 777H149L244 925H296L392 777H356L270 855Z" glyph-name="hcircumflex" horiz-adv-x="568" unicode="&#293;" /><glyph d="M235 547H209L224 695H333ZM79 547H53L68 695H177Z" glyph-name="hungarumlaut" horiz-adv-x="386" unicode="&#733;" /><glyph d="M277 227H67V291H277Z" glyph-name="hyphen" horiz-adv-x="344" unicode="-" /><glyph d="M282 293H72V357H282Z" glyph-name="hyphen.case" horiz-adv-x="354" /><glyph d="M203 658Q203 633 185 614.5Q167 596 141 596Q116 596 97.5 614.5Q79 633 79 658Q79 684 97.5 702Q116 720 141 720Q167 720 185 702Q203 684 203 658ZM106 81V405L29 435V454Q68 460 112.5 471Q157 482 190 494H192V81Q192 56 201.5 44.5Q211 33 233 27L260 21V0H38V21L64 27Q87 33 96.5 44.5Q106 56 106 81Z" glyph-name="i" horiz-adv-x="283" unicode="i" /><glyph d="M203 658Q203 633 185 614.5Q167 596 141 596Q116 596 97.5 614.5Q79 633 79 658Q79 684 97.5 702Q116 720 141 720Q167 720 185 702Q203 684 203 658ZM106 81V405L29 435V454Q68 460 112.5 471Q157 482 190 494H192V81Q192 56 201.5 44.5Q211 33 233 27L260 21V0H38V21L64 27Q87 33 96.5 44.5Q106 56 106 81Z" glyph-name="i.TRK" horiz-adv-x="283" /><glyph d="M106 405 29 435V454Q68 460 112.5 471Q157 482 190 494H192V81Q192 56 201.5 44.5Q211 33 233 27L260 21V0H38V21L64 27Q87 33 96.5 44.5Q106 56 106 81ZM143 549H117L132 697H241Z" glyph-name="iacute" horiz-adv-x="283" unicode="&#237;" /><glyph d="M106 405 29 435V454Q68 460 112.5 471Q157 482 190 494H192V81Q192 56 201.5 44.5Q211 33 233 27L260 21V0H38V21L64 27Q87 33 96.5 44.5Q106 56 106 81ZM132 548Q73 548 39.5 581Q6 614 6 665V689H43V683Q43 653 66.5 634Q90 615 132 615Q174 615 198 634Q222 653 222 683V689H259V665Q259 613 225.5 580.5Q192 548 132 548Z" glyph-name="ibreve" horiz-adv-x="283" unicode="&#301;" /><glyph d="M106 405 29 435V454Q68 460 112.5 471Q157 482 190 494H192V81Q192 56 201.5 44.5Q211 33 233 27L260 21V0H38V21L64 27Q87 33 96.5 44.5Q106 56 106 81ZM46 549H11L106 697H158L254 549H218L132 627Z" glyph-name="icircumflex" horiz-adv-x="283" unicode="&#238;" /><glyph d="M106 405 29 435V454Q68 460 112.5 471Q157 482 190 494H192V81Q192 56 201.5 44.5Q211 33 233 27L260 21V0H38V21L64 27Q87 33 96.5 44.5Q106 56 106 81ZM271 625Q271 601 254.5 584.5Q238 568 215 568Q191 568 174.5 584.5Q158 601 158 625Q158 648 174.5 664.5Q191 681 215 681Q238 681 254.5 664.5Q271 648 271 625ZM108 625Q108 601 91.5 584.5Q75 568 51 568Q27 568 10.5 584.5Q-6 601 -6 625Q-6 648 10.5 664.5Q27 681 51 681Q74 681 91 664.5Q108 648 108 625Z" glyph-name="idieresis" horiz-adv-x="283" unicode="&#239;" /><glyph d="M106 405 29 435V454Q68 460 112.5 471Q157 482 190 494H192V81Q192 56 201.5 44.5Q211 33 233 27L260 21V0H38V21L64 27Q87 33 96.5 44.5Q106 56 106 81ZM147 549H121L23 697H132Z" glyph-name="igrave" horiz-adv-x="283" unicode="&#236;" /><glyph d="M203 658Q203 633 185 614.5Q167 596 141 596Q116 596 97.5 614.5Q79 633 79 658Q79 684 97.5 702Q116 720 141 720Q167 720 185 702Q203 684 203 658ZM106 81V405L29 435V454Q68 460 112.5 471Q157 482 190 494H192V81Q192 56 201.5 44.5Q211 33 233 27L260 21V0H38V21L64 27Q87 33 96.5 44.5Q106 56 106 81ZM477 658Q477 633 459 614.5Q441 596 415 596Q389 596 370.5 614Q352 632 352 658Q352 684 370.5 702Q389 720 415 720Q441 720 459 702Q477 684 477 658ZM287 -204Q328 -204 353.5 -172Q379 -140 379 -84V405L302 435V454Q341 460 385.5 471Q430 482 463 494H465V-58Q465 -139 418 -189Q371 -239 301 -239Q245 -239 207.5 -209.5Q170 -180 170 -138Q170 -117 183.5 -102.5Q197 -88 216 -88Q236 -88 248.5 -100.5Q261 -113 261 -132Q261 -139 258 -146Q255 -153 247 -164Q242 -170 240.5 -173Q239 -176 239 -178Q239 -189 253 -196.5Q267 -204 287 -204Z" glyph-name="ij" horiz-adv-x="542" unicode="&#307;" /><glyph d="M106 405 29 435V454Q68 460 112.5 471Q157 482 190 494H192V81Q192 56 201.5 44.5Q211 33 233 27L260 21V0H38V21L64 27Q87 33 96.5 44.5Q106 56 106 81ZM270 578H-4V634H270Z" glyph-name="imacron" horiz-adv-x="283" unicode="&#299;" /><glyph d="M752 0H32V47L360 700H425L752 47ZM693 51 392 656 91 51Z" glyph-name="increment" horiz-adv-x="784" unicode="&#8710;" /><glyph d="M445 287Q387 204 342.5 172Q298 140 250 140Q163 140 113 204.5Q63 269 63 365Q63 458 112 520.5Q161 583 239 583Q299 583 348 544.5Q397 506 431 435Q486 516 531.5 549.5Q577 583 626 583Q713 583 763 518.5Q813 454 813 358Q813 266 764 203Q715 140 637 140Q578 140 528.5 178Q479 216 445 287ZM237 499Q177 499 141 460.5Q105 422 105 364Q105 307 141 267.5Q177 228 228 228Q254 228 280 244Q306 260 334 294Q345 308 358 326.5Q371 345 407 401Q376 447 332 473Q288 499 237 499ZM648 495Q611 495 574.5 464Q538 433 468 323Q500 275 544.5 249.5Q589 224 640 224Q699 224 735 263Q771 302 771 359Q771 416 735 455.5Q699 495 648 495Z" glyph-name="infinity" horiz-adv-x="876" unicode="&#8734;" /><glyph d="M303 351Q303 296 265.5 257.5Q228 219 174 219Q120 219 82.5 257.5Q45 296 45 351Q45 406 82.5 444.5Q120 483 174 483Q228 483 265.5 444.5Q303 406 303 351Z" glyph-name="integral" horiz-adv-x="348" unicode="&#8747;" /><glyph d="M203 658Q203 633 185 614.5Q167 596 141 596Q116 596 97.5 614.5Q79 633 79 658Q79 684 97.5 702Q116 720 141 720Q167 720 185 702Q203 684 203 658ZM218 -154 213 -178Q198 -185 180 -189Q162 -193 145 -193Q107 -193 82 -173Q57 -153 57 -118Q57 -86 82.5 -54.5Q108 -23 151 0H38V21L64 27Q87 33 96.5 44.5Q106 56 106 81V405L29 435V454Q68 460 112.5 471Q157 482 190 494H192V81Q192 56 201.5 44.5Q211 33 233 27L260 21V0H187Q160 -30 145 -57Q130 -84 130 -105Q130 -128 149 -142Q168 -156 196 -156Q200 -156 205 -155.5Q210 -155 218 -154Z" glyph-name="iogonek" horiz-adv-x="283" unicode="&#303;" /><glyph d="M106 405 29 435V454Q68 460 112.5 471Q157 482 190 494H192V81Q192 56 201.5 44.5Q211 33 233 27L260 21V0H38V21L64 27Q87 33 96.5 44.5Q106 56 106 81ZM60 597Q43 597 32.5 586Q22 575 19 555L-5 560Q-4 611 16.5 638Q37 665 73 665Q84 665 98.5 661Q113 657 143 645Q171 634 183.5 630.5Q196 627 205 627Q222 627 233 638Q244 649 246 669L270 663Q269 613 248.5 586Q228 559 192 559Q181 559 166.5 563Q152 567 122 579Q94 590 81.5 593.5Q69 597 60 597Z" glyph-name="itilde" horiz-adv-x="283" unicode="&#297;" /><glyph d="M194 658Q194 633 176 614.5Q158 596 132 596Q106 596 87.5 614Q69 632 69 658Q69 684 87.5 702Q106 720 132 720Q158 720 176 702Q194 684 194 658ZM35 -240 17 -225Q48 -212 72 -166.5Q96 -121 96 -69V405L19 435V454Q58 460 102.5 471Q147 482 180 494H182V-47Q182 -127 140.5 -180Q99 -233 35 -240Z" glyph-name="j" horiz-adv-x="259" unicode="j" /><glyph d="M194 658Q194 633 176 614.5Q158 596 132 596Q106 596 87.5 614Q69 632 69 658Q69 684 87.5 702Q106 720 132 720Q158 720 176 702Q194 684 194 658ZM4 -204Q45 -204 70.5 -172Q96 -140 96 -84V405L19 435V454Q58 460 102.5 471Q147 482 180 494H182V-58Q182 -139 135 -189Q88 -239 18 -239Q-38 -239 -75.5 -209.5Q-113 -180 -113 -138Q-113 -117 -99.5 -102.5Q-86 -88 -67 -88Q-47 -88 -34.5 -100.5Q-22 -113 -22 -132Q-22 -139 -25 -146Q-28 -153 -36 -164Q-41 -170 -42.5 -173Q-44 -176 -44 -178Q-44 -189 -30 -196.5Q-16 -204 4 -204Z" glyph-name="j.alt" horiz-adv-x="259" /><glyph d="M17 -225Q48 -212 72 -166.5Q96 -121 96 -69V405L19 435V454Q58 460 102.5 471Q147 482 180 494H182V-47Q182 -127 140.5 -180Q99 -233 35 -240ZM28 549H-7L88 697H140L236 549H200L114 627Z" glyph-name="jcircumflex" horiz-adv-x="259" unicode="&#309;" /><glyph d="M382 23 235 248H176V81Q176 56 185.5 45Q195 34 218 29L254 21V0H22V21L49 27Q71 33 80.5 44.5Q90 56 90 81V654L10 685V704Q54 711 99.5 722Q145 733 174 744H176V277H247L355 396Q373 416 370 430Q367 444 343 450L311 457V478H511V457Q497 453 494 452Q491 451 489 450Q471 443 453.5 431.5Q436 420 414 399L302 295L430 107Q451 75 470 55.5Q489 36 509 27L526 21V0H424Q410 0 399.5 6Q389 12 382 23Z" glyph-name="k" horiz-adv-x="530" unicode="k" /><glyph d="M382 23 235 248H176V81Q176 56 185.5 45Q195 34 218 29L254 21V0H22V21L49 27Q71 33 80.5 44.5Q90 56 90 81V654L10 685V704Q54 711 99.5 722Q145 733 174 744H176V277H247L355 396Q373 416 370 430Q367 444 343 450L311 457V478H511V457Q497 453 494 452Q491 451 489 450Q471 443 453.5 431.5Q436 420 414 399L302 295L430 107Q451 75 470 55.5Q489 36 509 27L526 21V0H424Q410 0 399.5 6Q389 12 382 23ZM352 -148Q352 -198 320.5 -241Q289 -284 230 -314L215 -299Q258 -268 282 -235Q306 -202 312 -168Q307 -177 293.5 -182.5Q280 -188 266 -188Q239 -188 220.5 -169Q202 -150 202 -123Q202 -96 222 -75.5Q242 -55 271 -55Q306 -55 329 -82Q352 -109 352 -148Z" glyph-name="kcommaaccent" horiz-adv-x="530" unicode="&#311;" /><glyph d="M429 396 320 275 442 108Q468 72 487 53Q506 34 522 28L541 21V0H440Q427 0 414.5 5.5Q402 11 394 21Q389 26 355 74.5Q321 123 316 131L249 228H185V81Q185 59 194 46Q203 33 220 29L256 21V0H31V21L64 29Q82 34 90.5 46.5Q99 59 99 81V397Q99 419 90.5 431.5Q82 444 64 449L31 457V478H256V457L220 448Q203 444 194 431Q185 418 185 397V261H270L370 393Q385 414 381.5 430.5Q378 447 357 450L323 457V478H532V457Q502 449 474.5 433Q447 417 429 396Z" glyph-name="kgreenlandic" horiz-adv-x="548" unicode="&#312;" /><glyph d="M178 744V81Q178 56 187.5 44.5Q197 33 219 27L246 21V0H24V21L50 27Q73 33 82.5 44.5Q92 56 92 81V654L12 685V704Q55 711 100.5 722Q146 733 176 744Z" glyph-name="l" horiz-adv-x="270" unicode="l" /><glyph d="M178 744V81Q178 56 187.5 44.5Q197 33 219 27L246 21V0H24V21L50 27Q73 33 82.5 44.5Q92 56 92 81V654L12 685V704Q55 711 100.5 722Q146 733 176 744ZM125 779H99L114 927H223Z" glyph-name="lacute" horiz-adv-x="270" unicode="&#314;" /><glyph d="M377 608Q377 558 345.5 515Q314 472 255 442L240 457Q283 488 307 521Q331 554 337 588Q332 579 318.5 573.5Q305 568 291 568Q264 568 245.5 587Q227 606 227 633Q227 660 247 680.5Q267 701 296 701Q331 701 354 674Q377 647 377 608ZM178 744V81Q178 56 187.5 44.5Q197 33 219 27L246 21V0H24V21L50 27Q73 33 82.5 44.5Q92 56 92 81V654L12 685V704Q55 711 100.5 722Q146 733 176 744Z" glyph-name="lcaron" horiz-adv-x="311" unicode="&#318;" /><glyph d="M178 744V81Q178 56 187.5 44.5Q197 33 219 27L246 21V0H24V21L50 27Q73 33 82.5 44.5Q92 56 92 81V654L12 685V704Q55 711 100.5 722Q146 733 176 744ZM215 -148Q215 -198 183.5 -241Q152 -284 93 -314L78 -299Q121 -268 145 -235Q169 -202 175 -168Q170 -177 156.5 -182.5Q143 -188 129 -188Q102 -188 83.5 -169Q65 -150 65 -123Q65 -96 85 -75.5Q105 -55 134 -55Q169 -55 192 -82Q215 -109 215 -148Z" glyph-name="lcommaaccent" horiz-adv-x="270" unicode="&#316;" /><glyph d="M178 744V81Q178 56 187.5 44.5Q197 33 219 27L246 21V0H24V21L50 27Q73 33 82.5 44.5Q92 56 92 81V654L12 685V704Q55 711 100.5 722Q146 733 176 744ZM392 305Q392 276 371.5 255.5Q351 235 321 235Q292 235 271.5 255.5Q251 276 251 305Q251 334 271.5 354.5Q292 375 321 375Q351 375 371.5 354.5Q392 334 392 305Z" glyph-name="ldot" horiz-adv-x="370" unicode="&#320;" /><glyph d="M459 215V165L42 336V380L459 551V501L98 358Z" glyph-name="less" horiz-adv-x="540" unicode="&lt;" /><glyph d="M359 110 323 74 25 359 323 644 359 608 167 391 695 394V324L167 327Z" glyph-name="less.alt" horiz-adv-x="735" unicode="&#8592;" /><glyph d="M470 215V165L53 336V380L470 551V501L108 358ZM470 0H53V45H470Z" glyph-name="lessequal" horiz-adv-x="540" unicode="&#8804;" /><glyph d="M473 247H424V423H56V468H473Z" glyph-name="logicalnot" horiz-adv-x="540" unicode="&#172;" /><glyph d="M632 -162Q614 -170 601 -170Q588 -170 570 -162Q341 -59 194.5 115.5Q48 290 48 475Q48 549 75 618Q102 687 150 737Q194 782 254.5 806Q315 830 385 830Q446 830 502.5 808Q559 786 607 744Q654 786 708.5 807Q763 828 824 828Q892 828 952 804Q1012 780 1056 734Q1104 685 1130.5 616Q1157 547 1157 473Q1157 288 1009.5 114.5Q862 -59 632 -162ZM353 25Q414 -24 484 -66.5Q554 -109 592 -124Q597 -126 601 -126Q605 -126 610 -124Q649 -108 719.5 -66Q790 -24 851 24Q904 66 946.5 110.5Q989 155 1022 203Q1066 268 1089.5 337Q1113 406 1113 474Q1113 541 1088.5 602.5Q1064 664 1019 708Q978 747 928.5 767Q879 787 821 787Q762 787 706.5 765Q651 743 603 700Q552 744 496.5 766Q441 788 382 788Q326 788 276.5 768Q227 748 187 710Q142 666 117 603.5Q92 541 92 473Q92 406 115 337Q138 268 182 205Q215 156 258 111Q301 66 353 25ZM371 522Q371 512 379 504Q387 496 397 496Q402 496 406.5 498Q411 500 414 504Q420 510 421 519Q422 528 418 538L355 697Q352 704 345 707Q338 710 331 707Q324 704 321 697Q318 690 321 683L355 597L257 575Q250 574 245.5 567.5Q241 561 243 553Q244 546 250.5 541.5Q257 537 265 539L369 562L378 540Q374 536 372.5 531.5Q371 527 371 522ZM855 515Q869 511 883.5 513Q898 515 910 522Q935 535 944.5 561.5Q954 588 942 611L909 678Q906 685 898.5 687Q891 689 884 686L749 612Q742 608 740 601Q738 594 742 587Q746 580 753 578Q760 576 767 580L794 595L820 545Q825 535 834.5 527Q844 519 855 515ZM424 655Q424 641 433.5 631.5Q443 622 456 622Q469 622 478.5 631.5Q488 641 488 654Q488 668 479 677.5Q470 687 456 687Q442 687 433 677.5Q424 668 424 655ZM696 521Q675 514 650.5 510Q626 506 601 506Q577 506 553.5 509.5Q530 513 509 520Q533 561 556 593.5Q579 626 603 650Q625 628 647.5 596Q670 564 696 521ZM893 553Q881 547 869.5 549Q858 551 852 561L826 613L885 645L910 595Q916 584 910.5 572Q905 560 893 553ZM902 301Q909 304 912 311Q915 318 912 324L872 414L905 429L920 396Q923 389 930 386.5Q937 384 944 387Q951 390 953.5 397Q956 404 953 411L938 445L969 460L1001 388Q1004 381 1011 378.5Q1018 376 1025 379Q1032 382 1034.5 389Q1037 396 1034 403L994 492Q993 496 990.5 498.5Q988 501 984 502Q981 503 977 502.5Q973 502 970 501L841 439Q834 435 831.5 428.5Q829 422 832 415L879 310Q882 303 888.5 300.5Q895 298 902 301ZM473 90Q475 85 479.5 82Q484 79 490 79H731Q739 79 744.5 84Q750 89 750 97Q750 105 745 110Q740 115 732 115H553Q648 165 687 210Q726 255 726 304Q726 356 692 392Q658 428 603 428Q547 428 509.5 395Q472 362 472 312Q472 275 497 247Q522 219 559 219Q592 219 614.5 239Q637 259 637 292Q637 313 626.5 324.5Q616 336 601 336Q587 336 577.5 326.5Q568 317 568 304Q568 296 572 289Q576 282 583 277Q587 273 580 264Q573 255 557 255Q537 255 523.5 272.5Q510 290 510 313Q510 349 535 371Q560 393 601 393Q639 393 662.5 368Q686 343 686 305Q686 270 660.5 237Q635 204 577 166Q561 156 542.5 145.5Q524 135 496 121Q485 115 481.5 113Q478 111 477 110Q473 105 472 100Q471 95 473 90ZM189 350Q197 348 203.5 351.5Q210 355 212 362L229 412L343 372Q350 369 357 372Q364 375 366 383Q369 390 365.5 397Q362 404 355 406L240 447L255 494Q257 502 253.5 508.5Q250 515 243 517Q236 519 229 515.5Q222 512 220 505L177 373Q175 366 178.5 359Q182 352 189 350ZM828 53Q776 11 715.5 -26.5Q655 -64 601 -90Q550 -66 489 -27Q428 12 375 54Q324 95 283 138Q242 181 212 226Q172 284 150.5 348Q129 412 129 474Q129 535 151 590Q173 645 213 684Q248 718 291.5 735Q335 752 385 752Q435 752 483.5 732.5Q532 713 577 675Q550 646 525 612.5Q500 579 478 540Q440 474 408.5 392Q377 310 355 221L305 231Q298 233 291.5 229Q285 225 284 218Q282 211 286.5 205Q291 199 298 198L433 169Q440 168 445.5 171.5Q451 175 453 182Q454 189 450.5 195Q447 201 440 203L392 213Q411 289 436.5 358.5Q462 428 492 487Q518 478 545.5 473Q573 468 601 468Q630 468 658.5 473Q687 478 713 488Q743 428 768.5 356Q794 284 811 212L763 202Q756 201 752 195Q748 189 749 182Q750 175 756.5 170.5Q763 166 770 168L905 196Q912 198 915.5 203.5Q919 209 918 216Q917 223 911 227.5Q905 232 898 230L849 220Q849 221 848.5 222Q848 223 848 223Q825 314 794 395.5Q763 477 725 543Q703 582 679.5 615Q656 648 630 674Q674 712 722.5 731.5Q771 751 821 751Q872 751 915.5 733.5Q959 716 993 682Q1032 643 1054 588.5Q1076 534 1076 473Q1076 411 1054.5 348Q1033 285 992 223Q961 179 920 136.5Q879 94 828 53ZM569 3Q569 -11 578.5 -20.5Q588 -30 601 -30Q614 -30 623.5 -20.5Q633 -11 633 2Q633 16 624 25.5Q615 35 601 35Q587 35 578 25.5Q569 16 569 3Z" glyph-name="logo" horiz-adv-x="1204" /><glyph d="M107 81V432H26V478H107V566Q107 649 153.5 697Q200 745 275 745Q326 745 363.5 718Q401 691 401 653Q401 632 388 617.5Q375 603 356 603Q337 603 324.5 615.5Q312 628 312 647Q312 661 322 673.5Q332 686 346 689V692Q337 698 324.5 701Q312 704 300 704Q249 704 221 668.5Q193 633 193 567V81Q193 58 202.5 47Q212 36 235 30L273 21V0H40V21L66 27Q88 33 97.5 45Q107 57 107 81Z" glyph-name="longs" horiz-adv-x="309" unicode="&#383;" /><glyph d="M820 350 411 -66 3 350 411 767Z" glyph-name="lozenge" horiz-adv-x="823" unicode="&#9674;" /><glyph d="M251 21V0H29V21L55 27Q78 33 87.5 44.5Q97 56 97 81V300L20 257V297L97 340V654L17 685V704Q60 711 105.5 722Q151 733 181 744H183V388L259 431V391L183 348V81Q183 56 192.5 44.5Q202 33 224 27Z" glyph-name="lslash" horiz-adv-x="277" unicode="&#322;" /><glyph d="M692 81V306Q692 368 665 400Q638 432 588 432Q564 432 529 417.5Q494 403 477 387Q481 373 483.5 356Q486 339 486 320V81Q486 56 495.5 44.5Q505 33 527 27L554 21V0H332V21L358 27Q381 33 390.5 45Q400 57 400 81V304Q400 366 374.5 399Q349 432 303 432Q275 432 246.5 422.5Q218 413 191 394V81Q191 57 200.5 46Q210 35 233 29L267 21V0H37V21L64 27Q86 33 95.5 44.5Q105 56 105 81V405L28 435V454Q67 460 111 471Q155 482 188 494H190L188 416H190Q221 452 260 472.5Q299 493 337 493Q385 493 419.5 470.5Q454 448 470 406Q503 448 544 470.5Q585 493 628 493Q697 493 737.5 447.5Q778 402 778 321V81Q778 56 787.5 44.5Q797 33 820 27L846 21V0H624V21L650 27Q673 33 682.5 44.5Q692 56 692 81Z" glyph-name="m" horiz-adv-x="864" unicode="m" /><glyph d="M334 598H60V654H334Z" glyph-name="macron" horiz-adv-x="394" unicode="&#175;" /><glyph d="M478 336H61V380H478Z" glyph-name="minus" horiz-adv-x="540" unicode="&#8722;" /><glyph d="M257 -15Q225 -15 197 -2.5Q169 10 150 33V-166H114V405L36 435V454Q75 460 119.5 471Q164 482 197 494H199V176Q199 112 223.5 79.5Q248 47 296 47Q325 47 352 59.5Q379 72 404 96V405L326 435V454Q365 460 409.5 471Q454 482 487 494H489V50L560 27V8Q507 4 474.5 -1Q442 -6 404 -15L407 72H405Q380 31 341 8Q302 -15 257 -15Z" glyph-name="mu" horiz-adv-x="601" unicode="&#181;" /><glyph d="M269 326 103 160 71 191 237 358 71 525 103 556 269 390 437 556 469 525 301 358 468 191 437 160Z" glyph-name="multiply" horiz-adv-x="540" unicode="&#215;" /><glyph d="M268 21V0H37V21L64 27Q86 33 95.5 44.5Q105 56 105 81V405L28 435V454Q67 460 111.5 471Q156 482 189 494H191L189 416H191Q223 452 263.5 472.5Q304 493 344 493Q414 493 455.5 449.5Q497 406 497 328V81Q497 56 506.5 44.5Q516 33 538 27L565 21V0H343V21L369 27Q392 33 401.5 44.5Q411 56 411 81V314Q411 371 383 401.5Q355 432 304 432Q278 432 248.5 422Q219 412 191 394V81Q191 56 200.5 45Q210 34 233 29Z" glyph-name="n" horiz-adv-x="583" unicode="n" /><glyph d="M268 21V0H37V21L64 27Q86 33 95.5 44.5Q105 56 105 81V405L28 435V454Q67 460 111.5 471Q156 482 189 494H191L189 416H191Q223 452 263.5 472.5Q304 493 344 493Q414 493 455.5 449.5Q497 406 497 328V81Q497 56 506.5 44.5Q516 33 538 27L565 21V0H343V21L369 27Q392 33 401.5 44.5Q411 56 411 81V314Q411 371 383 401.5Q355 432 304 432Q278 432 248.5 422Q219 412 191 394V81Q191 56 200.5 45Q210 34 233 29ZM305 564H279L294 712H403Z" glyph-name="nacute" horiz-adv-x="583" unicode="&#324;" /><glyph d="M408 21V0H177V21L204 27Q226 33 235.5 44.5Q245 56 245 81V405L168 435V454Q207 460 251.5 471Q296 482 329 494H331L329 416H331Q363 452 403.5 472.5Q444 493 484 493Q554 493 595.5 449.5Q637 406 637 328V81Q637 56 646.5 44.5Q656 33 678 27L705 21V0H483V21L509 27Q532 33 541.5 44.5Q551 56 551 81V314Q551 371 523 401.5Q495 432 444 432Q418 432 388.5 422Q359 412 331 394V81Q331 56 340.5 45Q350 34 373 29ZM185 614Q185 564 153.5 521Q122 478 63 448L48 463Q91 494 115 527Q139 560 145 594Q140 585 126.5 579.5Q113 574 99 574Q72 574 53.5 593Q35 612 35 639Q35 666 55 686.5Q75 707 104 707Q139 707 162 680Q185 653 185 614Z" glyph-name="napostrophe" horiz-adv-x="723" unicode="&#329;" /><glyph d="M268 21V0H37V21L64 27Q86 33 95.5 44.5Q105 56 105 81V405L28 435V454Q67 460 111.5 471Q156 482 189 494H191L189 416H191Q223 452 263.5 472.5Q304 493 344 493Q414 493 455.5 449.5Q497 406 497 328V81Q497 56 506.5 44.5Q516 33 538 27L565 21V0H343V21L369 27Q392 33 401.5 44.5Q411 56 411 81V314Q411 371 383 401.5Q355 432 304 432Q278 432 248.5 422Q219 412 191 394V81Q191 56 200.5 45Q210 34 233 29ZM268 564 173 712H208L294 635L380 712H416L320 564Z" glyph-name="ncaron" horiz-adv-x="583" unicode="&#328;" /><glyph d="M268 21V0H37V21L64 27Q86 33 95.5 44.5Q105 56 105 81V405L28 435V454Q67 460 111.5 471Q156 482 189 494H191L189 416H191Q223 452 263.5 472.5Q304 493 344 493Q414 493 455.5 449.5Q497 406 497 328V81Q497 56 506.5 44.5Q516 33 538 27L565 21V0H343V21L369 27Q392 33 401.5 44.5Q411 56 411 81V314Q411 371 383 401.5Q355 432 304 432Q278 432 248.5 422Q219 412 191 394V81Q191 56 200.5 45Q210 34 233 29ZM375 -138Q375 -188 343.5 -231Q312 -274 253 -304L238 -289Q281 -258 305 -225Q329 -192 335 -158Q330 -167 316.5 -172.5Q303 -178 289 -178Q262 -178 243.5 -159Q225 -140 225 -113Q225 -86 245 -65.5Q265 -45 294 -45Q329 -45 352 -72Q375 -99 375 -138Z" glyph-name="ncommaaccent" horiz-adv-x="583" unicode="&#326;" /><glyph d="M391 146Q333 82 258.5 33Q184 -16 114 -37L103 -16Q219 63 289 143.5Q359 224 391 313Q363 292 327.5 280.5Q292 269 256 269Q161 269 99.5 328.5Q38 388 38 483Q38 579 107 647Q176 715 278 715Q386 715 454.5 640.5Q523 566 523 446Q523 369 489.5 292.5Q456 216 391 146ZM138 498Q138 419 183.5 369.5Q229 320 298 320Q325 320 352.5 327.5Q380 335 402 349Q410 379 414 409Q418 439 418 469Q418 568 378.5 623.5Q339 679 272 679Q214 679 176 629Q138 579 138 498Z" glyph-name="nine" horiz-adv-x="574" unicode="9" /><glyph d="M341 268Q341 176 265 91Q189 6 96 -22L89 -9Q158 37 200 86Q242 135 262 189Q246 176 224.5 169Q203 162 180 162Q124 162 87 197.5Q50 233 50 289Q50 347 91 388Q132 429 193 429Q258 429 299.5 384.5Q341 340 341 268ZM110 299Q110 251 137.5 220Q165 189 206 189Q222 189 238.5 195Q255 201 269 211Q273 227 275.5 244.5Q278 262 278 281Q278 341 254.5 374Q231 407 190 407Q155 407 132.5 377Q110 347 110 299Z" glyph-name="nine.dnom" horiz-adv-x="400" /><glyph d="M342 554Q342 462 266 377Q190 292 97 264L90 277Q159 323 201 372Q243 421 263 475Q247 462 225.5 455Q204 448 181 448Q125 448 88 483.5Q51 519 51 575Q51 633 92 674Q133 715 194 715Q259 715 300.5 670.5Q342 626 342 554ZM111 585Q111 537 138.5 506Q166 475 207 475Q223 475 239.5 481Q256 487 270 497Q274 513 276.5 530.5Q279 548 279 567Q279 627 255.5 660Q232 693 191 693Q156 693 133.5 663Q111 633 111 585Z" glyph-name="nine.numr" horiz-adv-x="400" /><glyph d="M356 6Q303 -53 235 -98Q167 -143 103 -163L93 -144Q198 -73 262 1.5Q326 76 355 159Q331 139 299 128.5Q267 118 233 118Q146 118 90 172.5Q34 227 34 314Q34 403 96.5 465.5Q159 528 252 528Q351 528 413.5 460Q476 392 476 281Q476 211 445.5 140.5Q415 70 356 6ZM124 329Q124 255 166 208Q208 161 271 161Q296 161 320.5 169Q345 177 366 192Q373 218 376.5 246Q380 274 380 302Q380 393 344 444Q308 495 247 495Q194 495 159 449Q124 403 124 329Z" glyph-name="nine.pnum" horiz-adv-x="522" /><glyph d="M404 146Q346 82 271.5 33Q197 -16 127 -37L116 -16Q232 63 302 143.5Q372 224 404 313Q376 292 340.5 280.5Q305 269 269 269Q174 269 112.5 328.5Q51 388 51 483Q51 579 120 647Q189 715 291 715Q399 715 467.5 640.5Q536 566 536 446Q536 369 502.5 292.5Q469 216 404 146ZM151 498Q151 419 196.5 369.5Q242 320 311 320Q338 320 365.5 327.5Q393 335 415 349Q423 379 427 409Q431 439 431 469Q431 568 391.5 623.5Q352 679 285 679Q227 679 189 629Q151 579 151 498Z" glyph-name="nine.tnum" horiz-adv-x="600" /><glyph d="M341 168Q341 76 265 -9Q189 -94 96 -122L89 -109Q158 -63 200 -14Q242 35 262 89Q246 76 224.5 69Q203 62 180 62Q124 62 87 97.5Q50 133 50 189Q50 247 91 288Q132 329 193 329Q258 329 299.5 284.5Q341 240 341 168ZM110 199Q110 151 137.5 120Q165 89 206 89Q222 89 238.5 95Q255 101 269 111Q273 127 275.5 144.5Q278 162 278 181Q278 241 254.5 274Q231 307 190 307Q155 307 132.5 277Q110 247 110 199Z" glyph-name="nineinferior" horiz-adv-x="400" unicode="&#8329;" /><glyph d="M341 654Q341 562 265 477Q189 392 96 364L89 377Q158 423 200 472Q242 521 262 575Q246 562 224.5 555Q203 548 180 548Q124 548 87 583.5Q50 619 50 675Q50 733 91 774Q132 815 193 815Q258 815 299.5 770.5Q341 726 341 654ZM110 685Q110 637 137.5 606Q165 575 206 575Q222 575 238.5 581Q255 587 269 597Q273 613 275.5 630.5Q278 648 278 667Q278 727 254.5 760Q231 793 190 793Q155 793 132.5 763Q110 733 110 685Z" glyph-name="ninesuperior" horiz-adv-x="400" unicode="&#8313;" /><glyph d="M478 282V237H238L202 160L161 178L189 237H61V282H210L280 433H61V478H301L338 556L379 538L351 478H478V433H330L259 282Z" glyph-name="notequal" horiz-adv-x="540" unicode="&#8800;" /><glyph d="M268 21V0H37V21L64 27Q86 33 95.5 44.5Q105 56 105 81V405L28 435V454Q67 460 111.5 471Q156 482 189 494H191L189 416H191Q223 452 263.5 472.5Q304 493 344 493Q414 493 455.5 449.5Q497 406 497 328V81Q497 56 506.5 44.5Q516 33 538 27L565 21V0H343V21L369 27Q392 33 401.5 44.5Q411 56 411 81V314Q411 371 383 401.5Q355 432 304 432Q278 432 248.5 422Q219 412 191 394V81Q191 56 200.5 45Q210 34 233 29ZM222 612Q205 612 194.5 601Q184 590 181 570L157 575Q158 626 178.5 653Q199 680 235 680Q246 680 260.5 676Q275 672 305 660Q333 649 345.5 645.5Q358 642 367 642Q384 642 395 653Q406 664 408 684L432 678Q431 628 410.5 601Q390 574 354 574Q343 574 328.5 578Q314 582 284 594Q256 605 243.5 608.5Q231 612 222 612Z" glyph-name="ntilde" horiz-adv-x="583" unicode="&#241;" /><glyph d="M230 443V272H415V443ZM230 0H183V227H54V272H183V443H54V488H183V700H230V488H415V700H464V488H592V443H464V272H592V227H464V0H415V227H230Z" glyph-name="numbersign" horiz-adv-x="646" unicode="#" /><glyph d="M269 493Q364 493 430.5 419Q497 345 497 239Q497 133 430.5 59Q364 -15 269 -15Q174 -15 107.5 59Q41 133 41 239Q41 345 107.5 419Q174 493 269 493ZM269 461Q206 461 170.5 403Q135 345 135 239Q135 133 170.5 74.5Q206 16 269 16Q332 16 368 75Q404 134 404 239Q404 345 368 403Q332 461 269 461Z" glyph-name="o" horiz-adv-x="538" unicode="o" /><glyph d="M269 493Q364 493 430.5 419Q497 345 497 239Q497 133 430.5 59Q364 -15 269 -15Q174 -15 107.5 59Q41 133 41 239Q41 345 107.5 419Q174 493 269 493ZM269 461Q206 461 170.5 403Q135 345 135 239Q135 133 170.5 74.5Q206 16 269 16Q332 16 368 75Q404 134 404 239Q404 345 368 403Q332 461 269 461ZM280 554H254L269 702H378Z" glyph-name="oacute" horiz-adv-x="538" unicode="&#243;" /><glyph d="M269 493Q364 493 430.5 419Q497 345 497 239Q497 133 430.5 59Q364 -15 269 -15Q174 -15 107.5 59Q41 133 41 239Q41 345 107.5 419Q174 493 269 493ZM269 461Q206 461 170.5 403Q135 345 135 239Q135 133 170.5 74.5Q206 16 269 16Q332 16 368 75Q404 134 404 239Q404 345 368 403Q332 461 269 461ZM269 553Q210 553 176.5 586Q143 619 143 670V694H180V688Q180 658 203.5 639Q227 620 269 620Q311 620 335 639Q359 658 359 688V694H396V670Q396 618 362.5 585.5Q329 553 269 553Z" glyph-name="obreve" horiz-adv-x="538" unicode="&#335;" /><glyph d="M269 493Q364 493 430.5 419Q497 345 497 239Q497 133 430.5 59Q364 -15 269 -15Q174 -15 107.5 59Q41 133 41 239Q41 345 107.5 419Q174 493 269 493ZM269 461Q206 461 170.5 403Q135 345 135 239Q135 133 170.5 74.5Q206 16 269 16Q332 16 368 75Q404 134 404 239Q404 345 368 403Q332 461 269 461ZM183 554H148L243 702H295L391 554H355L269 632Z" glyph-name="ocircumflex" horiz-adv-x="538" unicode="&#244;" /><glyph d="M269 493Q364 493 430.5 419Q497 345 497 239Q497 133 430.5 59Q364 -15 269 -15Q174 -15 107.5 59Q41 133 41 239Q41 345 107.5 419Q174 493 269 493ZM269 461Q206 461 170.5 403Q135 345 135 239Q135 133 170.5 74.5Q206 16 269 16Q332 16 368 75Q404 134 404 239Q404 345 368 403Q332 461 269 461ZM408 630Q408 606 391.5 589.5Q375 573 352 573Q328 573 311.5 589.5Q295 606 295 630Q295 653 311.5 669.5Q328 686 352 686Q375 686 391.5 669.5Q408 653 408 630ZM245 630Q245 606 228.5 589.5Q212 573 188 573Q164 573 147.5 589.5Q131 606 131 630Q131 653 147.5 669.5Q164 686 188 686Q211 686 228 669.5Q245 653 245 630Z" glyph-name="odieresis" horiz-adv-x="538" unicode="&#246;" /><glyph d="M626 -15Q570 -15 523.5 10Q477 35 447 82Q414 36 367.5 10.5Q321 -15 269 -15Q175 -15 108 59.5Q41 134 41 239Q41 345 107.5 419Q174 493 269 493Q322 493 369 467Q416 441 449 395Q479 442 524.5 467.5Q570 493 626 493Q712 493 765.5 433.5Q819 374 819 285V275H486Q486 270 485.5 266Q485 262 485 260Q485 171 535 113.5Q585 56 658 56Q704 56 744 80Q784 104 803 141L822 132Q803 65 750.5 25Q698 -15 626 -15ZM269 461Q206 461 170.5 403Q135 345 135 239Q135 133 170.5 74.5Q206 16 269 16Q332 16 368 75Q404 134 404 239Q404 345 368 403Q332 461 269 461ZM618 458Q567 458 531.5 414.5Q496 371 489 305L728 309Q727 378 698 418Q669 458 618 458Z" glyph-name="oe" horiz-adv-x="863" unicode="&#339;" /><glyph d="M200 -156Q204 -156 209 -155.5Q214 -155 222 -154L217 -178Q202 -185 184 -189Q166 -193 149 -193Q111 -193 86 -173Q61 -153 61 -118Q61 -80 96 -43.5Q131 -7 186 14L199 9Q168 -24 151 -53.5Q134 -83 134 -105Q134 -128 153 -142Q172 -156 200 -156Z" glyph-name="ogonek" horiz-adv-x="258" unicode="&#731;" /><glyph d="M269 493Q364 493 430.5 419Q497 345 497 239Q497 133 430.5 59Q364 -15 269 -15Q174 -15 107.5 59Q41 133 41 239Q41 345 107.5 419Q174 493 269 493ZM269 461Q206 461 170.5 403Q135 345 135 239Q135 133 170.5 74.5Q206 16 269 16Q332 16 368 75Q404 134 404 239Q404 345 368 403Q332 461 269 461ZM283 554H257L159 702H268Z" glyph-name="ograve" horiz-adv-x="538" unicode="&#242;" /><glyph d="M269 493Q364 493 430.5 419Q497 345 497 239Q497 133 430.5 59Q364 -15 269 -15Q174 -15 107.5 59Q41 133 41 239Q41 345 107.5 419Q174 493 269 493ZM269 461Q206 461 170.5 403Q135 345 135 239Q135 133 170.5 74.5Q206 16 269 16Q332 16 368 75Q404 134 404 239Q404 345 368 403Q332 461 269 461ZM358 554H332L347 702H456ZM202 554H176L191 702H300Z" glyph-name="ohungarumlaut" horiz-adv-x="538" unicode="&#337;" /><glyph d="M269 493Q364 493 430.5 419Q497 345 497 239Q497 133 430.5 59Q364 -15 269 -15Q174 -15 107.5 59Q41 133 41 239Q41 345 107.5 419Q174 493 269 493ZM269 461Q206 461 170.5 403Q135 345 135 239Q135 133 170.5 74.5Q206 16 269 16Q332 16 368 75Q404 134 404 239Q404 345 368 403Q332 461 269 461ZM406 583H132V639H406Z" glyph-name="omacron" horiz-adv-x="538" unicode="&#333;" /><glyph d="M423 32V0H57V32L151 45Q173 48 183 59Q193 70 193 91V629L43 603V628L253 714H289V91Q289 70 299 59Q309 48 331 45Z" glyph-name="one" horiz-adv-x="441" unicode="1" /><glyph d="M319 20V0H103V20L158 27Q170 29 176 36Q182 43 182 55V377L98 356V377L219 428H240V55Q240 43 246 36Q252 29 265 27Z" glyph-name="one.dnom" horiz-adv-x="400" /><glyph d="M318 306V286H102V306L157 313Q169 315 175 322Q181 329 181 341V663L97 642V663L218 714H239V341Q239 329 245 322Q251 315 264 313Z" glyph-name="one.numr" horiz-adv-x="400" /><glyph d="M352 27V0H56V27L124 39Q144 43 152.5 53.5Q161 64 161 83V453L49 422V450L215 529H247V83Q247 64 255.5 54Q264 44 284 39Z" glyph-name="one.pnum" horiz-adv-x="375" /><glyph d="M503 32V0H137V32L231 45Q253 48 263 59Q273 70 273 91V629L123 603V628L333 714H369V91Q369 70 379 59Q389 48 411 45Z" glyph-name="one.tnum" horiz-adv-x="600" /><glyph d="M324 306V286H108V306L163 313Q175 315 181 322Q187 329 187 341V663L103 642V663L224 714H245V341Q245 329 251 322Q257 315 270 313ZM896 110Q896 60 855 25.5Q814 -9 754 -9Q694 -9 654.5 22.5Q615 54 615 104Q615 140 641 171Q667 202 709 219V220Q670 241 650.5 267Q631 293 631 324Q631 367 667.5 398Q704 429 760 429Q814 429 848.5 400.5Q883 372 883 334Q883 300 860 272.5Q837 245 800 231Q852 204 874 176.5Q896 149 896 110ZM839 334Q839 366 816.5 387.5Q794 409 759 409Q727 409 705 389Q683 369 683 339Q683 313 700.5 293Q718 273 761 250L782 239Q810 259 824.5 283.5Q839 308 839 334ZM668 104Q668 65 693.5 39.5Q719 14 758 14Q794 14 818.5 36.5Q843 59 843 93Q843 123 823.5 147Q804 171 765 190L725 210Q699 189 683.5 160.5Q668 132 668 104ZM791 700 210 0H175L756 700Z" glyph-name="oneeight" horiz-adv-x="999" unicode="&#8539;" /><glyph d="M890 50 880 0H611V24L719 139Q769 194 790 232Q811 270 811 304Q811 343 788.5 365.5Q766 388 729 388Q700 388 677 371.5Q654 355 637 322L620 329Q635 374 671 401.5Q707 429 752 429Q804 429 837 398.5Q870 368 870 321Q870 285 849.5 250Q829 215 772 160L663 50ZM331 306V286H115V306L170 313Q182 315 188 322Q194 329 194 341V663L110 642V663L231 714H252V341Q252 329 258 322Q264 315 277 313ZM818 700 237 0H202L783 700Z" glyph-name="onehalf" horiz-adv-x="1000" unicode="&#189;" /><glyph d="M318 -80V-100H102V-80L157 -73Q169 -71 175 -64Q181 -57 181 -45V277L97 256V277L218 328H239V-45Q239 -57 245 -64Q251 -71 264 -73Z" glyph-name="oneinferior" horiz-adv-x="400" unicode="&#8321;" /><glyph d="M321 306V286H105V306L160 313Q172 315 178 322Q184 329 184 341V663L100 642V663L221 714H242V341Q242 329 248 322Q254 315 267 313ZM814 700 233 0H198L779 700ZM773 152V254L828 270V152H899L898 114H828V47Q828 36 833.5 30.5Q839 25 854 23L883 16V1H718V16L749 23Q763 25 768 30Q773 35 773 47V114H592L587 134L754 429H812L622 153V152Z" glyph-name="onequarter" horiz-adv-x="999" unicode="&#188;" /><glyph d="M317 406V386H101V406L156 413Q168 415 174 422Q180 429 180 441V763L96 742V763L217 814H238V441Q238 429 244 422Q250 415 263 413Z" glyph-name="onesuperior" horiz-adv-x="400" unicode="&#185;" /><glyph d="M324 306V286H108V306L163 313Q175 315 181 322Q187 329 187 341V663L103 642V663L224 714H245V341Q245 329 251 322Q257 315 270 313ZM896 117Q896 64 854 27.5Q812 -9 744 -9Q692 -9 656 9.5Q620 28 620 53Q620 66 629 74.5Q638 83 652 83Q659 83 666.5 78Q674 73 689 55Q709 30 723.5 21.5Q738 13 754 13Q791 13 814.5 37.5Q838 62 838 96Q838 136 806 166Q774 196 719 210L718 220L729 226Q778 251 799.5 273.5Q821 296 821 322Q821 352 800.5 370.5Q780 389 748 389Q722 389 697.5 377.5Q673 366 653 344L638 352Q655 384 692.5 406.5Q730 429 774 429Q820 429 849.5 404Q879 379 879 343Q879 313 858.5 289.5Q838 266 793 244L785 240Q836 226 866 193.5Q896 161 896 117ZM794 700 213 0H178L759 700Z" glyph-name="onethird" horiz-adv-x="999" unicode="&#8531;" /><glyph d="M119 534Q100 534 86.5 549Q73 564 73 586Q74 637 126.5 676Q179 715 246 715Q316 715 356.5 674Q397 633 397 560V311Q397 286 406.5 273.5Q416 261 435 261Q444 261 454 264.5Q464 268 470 272L478 258Q465 236 440 221.5Q415 207 389 207Q359 207 339 225Q319 243 315 273H313Q291 244 253 225.5Q215 207 177 207Q123 208 88 241.5Q53 275 53 324Q53 363 76 392.5Q99 422 141 436L311 494V552Q311 609 285 638.5Q259 668 209 668Q174 668 148.5 655Q123 642 125 628Q125 624 128 620.5Q131 617 139 612Q153 602 157.5 594.5Q162 587 162 577Q162 558 150 546Q138 534 119 534ZM142 343Q142 308 165 286Q188 264 222 264Q242 264 266 273.5Q290 283 311 300V465L199 419Q171 409 156.5 389Q142 369 142 343Z" glyph-name="ordfeminine" horiz-adv-x="514" unicode="&#170;" /><glyph d="M283 713Q378 713 444.5 639.5Q511 566 511 460Q511 354 444.5 280Q378 206 283 206Q188 206 121 280Q54 354 54 460Q54 566 121 639.5Q188 713 283 713ZM283 679Q220 679 186 622Q152 565 152 460Q152 354 186 297Q220 240 283 240Q346 240 380 297Q414 354 414 460Q414 565 380 622Q346 679 283 679Z" glyph-name="ordmasculine" horiz-adv-x="565" unicode="&#186;" /><glyph d="M638 251Q638 142 559.5 63.5Q481 -15 371 -15Q229 -15 135.5 83Q42 181 42 336Q42 493 152.5 604Q263 715 420 715Q470 715 518.5 703Q567 691 609 668L600 653Q561 675 515 686.5Q469 698 421 698Q273 698 167.5 591.5Q62 485 62 336Q62 264 86.5 199.5Q111 135 156 86L158 88Q132 124 118 166Q104 208 104 251Q104 361 182.5 439Q261 517 372 517Q482 517 560 439Q638 361 638 251Z" glyph-name="orn.1" horiz-adv-x="675" /><glyph d="M632 364Q632 207 521.5 96Q411 -15 254 -15Q204 -15 155.5 -3Q107 9 65 32L74 47Q113 25 159 13.5Q205 2 253 2Q401 2 506.5 108.5Q612 215 612 364Q612 436 587.5 500.5Q563 565 518 614L516 612Q542 576 556 534Q570 492 570 449Q570 339 491.5 261Q413 183 302 183Q192 183 114 261Q36 339 36 449Q36 558 114.5 636.5Q193 715 303 715Q445 715 538.5 617Q632 519 632 364Z" glyph-name="orn.2" horiz-adv-x="675" /><glyph d="M675 721Q763 721 814.5 661Q866 601 866 501Q866 450 846.5 395Q827 340 787 283Q758 240 719 195.5Q680 151 631 107Q583 63 536.5 27Q490 -9 445 -37Q401 -9 355.5 27.5Q310 64 263 108Q216 153 177.5 197Q139 241 111 284Q74 342 55 396Q36 450 36 501Q36 601 88.5 661Q141 721 229 721Q314 721 363 669.5Q412 618 412 529H490Q490 617 540.5 669Q591 721 675 721Z" glyph-name="orn.3" horiz-adv-x="900" /><glyph d="M743 726 808 661 613 494H576V531ZM288 531V494H252L53 661L120 726ZM432 258Q469 258 496.5 285.5Q524 313 524 350Q524 387 496.5 414.5Q469 442 432 442Q393 442 366 415Q339 388 339 350Q339 312 366 285Q393 258 432 258ZM479 350Q479 369 465 383Q451 397 432 397Q413 397 398.5 383Q384 369 384 350Q384 331 398 317Q412 303 432 303Q451 303 465 317Q479 331 479 350ZM127 281Q100 296 78 313Q56 330 38 350Q56 370 78 387Q100 404 127 419Q155 434 182.5 441.5Q210 449 236 449Q268 449 300 442Q332 435 357 423Q344 453 338 484Q332 515 332 546Q332 572 340 599Q348 626 363 654Q378 681 395 703Q412 725 432 743Q452 725 469 703Q486 681 500 654Q516 626 523.5 599Q531 572 531 546Q531 515 525 484Q519 453 506 423Q534 436 565 442.5Q596 449 628 449Q654 449 681 441.5Q708 434 736 419Q762 404 784.5 387Q807 370 825 350Q807 330 785 313Q763 296 736 282Q708 266 681 258.5Q654 251 628 251Q596 251 565.5 257.5Q535 264 506 276Q518 247 524.5 216.5Q531 186 531 154Q531 128 523.5 101Q516 74 501 46Q486 20 469 -2.5Q452 -25 432 -43Q412 -25 395 -3Q378 19 363 46Q348 74 340 101Q332 128 332 154Q332 186 338.5 216.5Q345 247 357 276Q331 264 299 257.5Q267 251 236 251Q210 251 182.5 258.5Q155 266 127 281ZM576 206H613L808 39L743 -26L576 169ZM53 39 252 206H288V169L120 -26Z" glyph-name="orn.4" horiz-adv-x="862" /><glyph d="M757 350Q757 199 652 92Q547 -15 398 -15Q249 -15 144.5 92Q40 199 40 350Q40 502 145 609Q250 716 398 716Q547 716 652 608.5Q757 501 757 350Z" glyph-name="orn.5" horiz-adv-x="797" /><glyph d="M757 350Q757 199 652.5 92Q548 -15 399 -15Q250 -15 145 92Q40 199 40 350Q40 501 145 608.5Q250 716 399 716Q547 716 652 609Q757 502 757 350ZM134 350 399 93 431 125 247 323 652 321V378L247 377L431 575L399 607Z" glyph-name="orn.6" horiz-adv-x="797" /><glyph d="M757 350Q757 199 652 92Q547 -15 398 -15Q249 -15 144.5 92Q40 199 40 350Q40 502 145 609Q250 716 398 716Q547 716 652 608.5Q757 501 757 350ZM550 323 366 125 398 93 663 350 398 607 366 575 550 377 145 378V321Z" glyph-name="orn.7" horiz-adv-x="797" /><glyph d="M269 461Q206 461 170.5 403Q135 345 135 239Q135 201 139.5 170Q144 139 153 113L369 402Q352 431 326.5 446Q301 461 269 461ZM269 16Q332 16 368 75Q404 134 404 239Q404 275 399.5 306.5Q395 338 386 365L169 77Q187 47 212 31.5Q237 16 269 16ZM497 239Q497 133 430.5 59Q364 -15 269 -15Q232 -15 198 -3Q164 9 136 32L90 -29L62 -8L110 56Q77 91 59 138.5Q41 186 41 239Q41 345 107.5 419Q174 493 269 493Q305 493 339 481Q373 469 402 446L448 508L477 487L428 422Q461 387 479 339.5Q497 292 497 239Z" glyph-name="oslash" horiz-adv-x="538" unicode="&#248;" /><glyph d="M269 493Q364 493 430.5 419Q497 345 497 239Q497 133 430.5 59Q364 -15 269 -15Q174 -15 107.5 59Q41 133 41 239Q41 345 107.5 419Q174 493 269 493ZM269 461Q206 461 170.5 403Q135 345 135 239Q135 133 170.5 74.5Q206 16 269 16Q332 16 368 75Q404 134 404 239Q404 345 368 403Q332 461 269 461ZM197 602Q180 602 169.5 591Q159 580 156 560L132 565Q133 616 153.5 643Q174 670 210 670Q221 670 235.5 666Q250 662 280 650Q308 639 320.5 635.5Q333 632 342 632Q359 632 370 643Q381 654 383 674L407 668Q406 618 385.5 591Q365 564 329 564Q318 564 303.5 568Q289 572 259 584Q231 595 218.5 598.5Q206 602 197 602Z" glyph-name="otilde" horiz-adv-x="538" unicode="&#245;" /><glyph d="M298 19Q368 19 408 72.5Q448 126 448 216Q448 316 404 374Q360 432 287 432Q260 432 231.5 422Q203 412 182 396V128Q182 77 214 48Q246 19 298 19ZM260 -199V-220H29V-199L55 -193Q77 -187 86.5 -175.5Q96 -164 96 -139V405L19 435V454Q58 460 102.5 471Q147 482 180 494H182L180 423H182Q210 456 249 474.5Q288 493 328 493Q418 493 478 425.5Q538 358 538 252Q538 139 467 62Q396 -15 285 -15Q258 -15 233.5 -10Q209 -5 182 7V-139Q182 -164 191.5 -175Q201 -186 224 -191Z" glyph-name="p" horiz-adv-x="580" unicode="p" /><glyph d="M507 -186H470V700H507ZM291 -96V279H246Q158 279 96.5 340Q35 401 35 489Q35 577 96.5 638.5Q158 700 246 700H328V-91Q328 -151 294 -187Q260 -223 206 -223Q167 -223 139.5 -203.5Q112 -184 112 -153Q112 -133 125.5 -119.5Q139 -106 158 -106Q176 -106 189.5 -120Q203 -134 203 -153Q203 -164 199 -174.5Q195 -185 188 -191Q191 -192 197 -192.5Q203 -193 206 -193Q244 -193 267.5 -165Q291 -137 291 -96Z" glyph-name="paragraph" horiz-adv-x="611" unicode="&#182;" /><glyph d="M299 -168 275 -191Q174 -109 109.5 22Q45 153 45 276Q45 399 109.5 529.5Q174 660 275 742L299 719Q208 633 154.5 514.5Q101 396 102 276Q102 155 155 36Q208 -83 299 -168Z" glyph-name="parenleft" horiz-adv-x="317" unicode="(" /><glyph d="M303 -98 279 -121Q178 -39 113.5 92Q49 223 49 346Q49 469 113.5 599.5Q178 730 279 812L303 789Q212 703 158.5 584.5Q105 466 106 346Q106 225 159 106Q212 -13 303 -98Z" glyph-name="parenleft.case" horiz-adv-x="327" /><glyph d="M273 276Q273 153 208.5 22Q144 -109 42 -191L18 -168Q109 -84 162 35Q215 154 216 276Q217 396 163.5 515Q110 634 18 719L42 742Q144 660 208.5 529Q273 398 273 276Z" glyph-name="parenright" horiz-adv-x="318" unicode=")" /><glyph d="M279 346Q279 223 214.5 92Q150 -39 48 -121L24 -98Q115 -14 168 105Q221 224 222 346Q223 466 169.5 585Q116 704 24 789L48 812Q150 730 214.5 599Q279 468 279 346Z" glyph-name="parenright.case" horiz-adv-x="328" /><glyph d="M372 550Q434 475 466 397.5Q498 320 498 244Q498 132 433 59Q368 -14 270 -14Q174 -14 107.5 56Q41 126 41 227Q41 329 105 398.5Q169 468 263 468Q285 468 308.5 463.5Q332 459 348 451Q299 527 222.5 613.5Q146 700 92 744L112 761Q177 729 247.5 672Q318 615 372 550ZM270 435Q207 435 172.5 381Q138 327 138 227Q138 127 172.5 72.5Q207 18 270 18Q332 18 366.5 72.5Q401 127 401 227Q401 327 366.5 381Q332 435 270 435Z" glyph-name="partialdiff" horiz-adv-x="541" unicode="&#8706;" /><glyph d="M351 542Q351 472 306 419Q261 366 195 366Q129 366 84 419Q39 472 39 542Q39 611 84 663Q129 715 195 715Q261 715 306 663Q351 611 351 542ZM682 700 129 0H85L638 700ZM110 542Q110 464 130.5 428Q151 392 195 392Q239 392 259.5 428Q280 464 280 542Q280 618 259.5 653.5Q239 689 195 689Q151 689 130.5 654Q110 619 110 542ZM730 161Q730 91 685 38Q640 -15 574 -15Q508 -15 463 38Q418 91 418 161Q418 230 463 282Q508 334 574 334Q640 334 685 282Q730 230 730 161ZM489 161Q489 83 509.5 47Q530 11 574 11Q618 11 638.5 47Q659 83 659 161Q659 237 638.5 272.5Q618 308 574 308Q530 308 509.5 273Q489 238 489 161Z" glyph-name="percent" horiz-adv-x="768" unicode="%" /><glyph d="M205 57Q205 27 184 6Q163 -15 133 -15Q103 -15 82 6Q61 27 61 57Q61 86 82 107Q103 128 133 128Q163 128 184 107Q205 86 205 57Z" glyph-name="period" horiz-adv-x="266" unicode="." /><glyph d="M207 363Q207 334 186.5 313.5Q166 293 136 293Q107 293 86.5 313.5Q66 334 66 363Q66 392 86.5 412.5Q107 433 136 433Q166 433 186.5 412.5Q207 392 207 363Z" glyph-name="periodcentered" horiz-adv-x="273" unicode="&#183;" /><glyph d="M351 542Q351 472 306 419Q261 366 195 366Q129 366 84 419Q39 472 39 542Q39 611 84 663Q129 715 195 715Q261 715 306 663Q351 611 351 542ZM682 700 129 0H85L638 700ZM110 542Q110 464 130.5 428Q151 392 195 392Q239 392 259.5 428Q280 464 280 542Q280 618 259.5 653.5Q239 689 195 689Q151 689 130.5 654Q110 619 110 542ZM730 161Q730 91 685 38Q640 -15 574 -15Q508 -15 463 38Q418 91 418 161Q418 230 463 282Q508 334 574 334Q640 334 685 282Q730 230 730 161ZM1104 161Q1104 91 1059 38Q1014 -15 948 -15Q882 -15 837 38Q792 91 792 161Q792 230 837 282Q882 334 948 334Q1014 334 1059 282Q1104 230 1104 161ZM489 161Q489 83 509.5 47Q530 11 574 11Q618 11 638.5 47Q659 83 659 161Q659 237 638.5 272.5Q618 308 574 308Q530 308 509.5 273Q489 238 489 161ZM863 161Q863 83 883.5 47Q904 11 948 11Q992 11 1012.5 47Q1033 83 1033 161Q1033 237 1012.5 272.5Q992 308 948 308Q904 308 883.5 273Q863 238 863 161Z" glyph-name="perthousand" horiz-adv-x="1139" unicode="&#8240;" /><glyph d="M29 478H602V432H473V130Q473 78 489.5 55.5Q506 33 544 33Q558 33 572.5 36Q587 39 610 47L618 22Q599 8 563.5 -3.5Q528 -15 500 -15Q443 -15 415 13.5Q387 42 387 101V432H192V81Q192 56 201.5 44.5Q211 33 234 27L260 21V0H38V21L65 27Q87 33 96.5 44.5Q106 56 106 81V432H29Z" glyph-name="pi" horiz-adv-x="646" unicode="&#960;" /><glyph d="M293 149H244V336H61V380H244V566H293V380H478V336H293Z" glyph-name="plus" horiz-adv-x="540" unicode="+" /><glyph d="M293 149H244V336H61V380H244V566H293V380H478V336H293ZM478 0H61V45H478Z" glyph-name="plusminus" horiz-adv-x="540" unicode="&#177;" /><glyph d="M740 62Q683 5 609 -26Q535 -57 455 -57Q374 -57 300 -26Q226 5 169 62Q112 120 81 194Q50 268 50 349Q50 430 81 504Q112 578 169 636Q226 693 300 724Q374 755 455 755Q535 755 609 724Q683 693 740 636Q797 578 828 504Q859 430 859 349Q859 268 828 194Q797 120 740 62ZM455 720Q304 720 197.5 611.5Q91 503 91 349Q91 195 197.5 86.5Q304 -22 455 -22Q606 -22 712 86.5Q818 195 818 349Q818 503 712 611.5Q606 720 455 720ZM505 121H283V146L315 152Q330 155 337 165.5Q344 176 344 194V511Q344 529 337 539.5Q330 550 315 553L283 559V584H483Q561 584 612.5 545Q664 506 664 447Q664 385 611.5 345Q559 305 485 305H462V333Q515 337 546.5 366.5Q578 396 578 443Q578 494 542.5 523.5Q507 553 445 553H430V194Q430 177 437.5 167Q445 157 461 154L505 146Z" glyph-name="product" horiz-adv-x="909" unicode="&#8719;" /><glyph d="M42 226Q42 337 113.5 415Q185 493 293 493Q325 493 361.5 481Q398 469 417 453L468 493H483V-139Q483 -164 492.5 -175.5Q502 -187 525 -193L551 -199V-220H320V-199L355 -191Q378 -186 387.5 -175Q397 -164 397 -139V56H395Q369 24 329.5 4.5Q290 -15 251 -15Q160 -15 101 52Q42 119 42 226ZM131 263Q131 162 174 104.5Q217 47 290 47Q318 47 348 56.5Q378 66 397 82V348Q397 401 367.5 430.5Q338 460 289 460Q218 460 174.5 405Q131 350 131 263Z" glyph-name="q" horiz-adv-x="560" unicode="q" /><glyph d="M233 203H196V229Q196 267 207 305Q218 343 254 408Q283 463 292 491Q301 519 301 545Q301 602 270 634.5Q239 667 188 667Q141 667 107.5 637Q74 607 74 568Q74 550 79.5 541.5Q85 533 98 532Q104 531 121 533.5Q138 536 147 535Q166 532 178.5 519Q191 506 191 487Q191 466 174 450.5Q157 435 134 435Q95 435 66 469Q37 503 37 551Q37 618 88.5 666.5Q140 715 220 715Q296 715 347 671Q398 627 398 558Q398 526 386.5 494Q375 462 349 425Q335 405 304.5 367Q274 329 262 311Q247 289 240 268Q233 247 233 225ZM288 57Q288 27 267 6Q246 -15 217 -15Q187 -15 166 6Q145 27 145 57Q145 86 166 107Q187 128 217 128Q246 128 267 107Q288 86 288 57Z" glyph-name="question" horiz-adv-x="442" unicode="?" /><glyph d="M201 260H238V234Q238 196 227 158Q216 120 180 55Q151 0 142 -28Q133 -56 133 -82Q133 -139 164 -171.5Q195 -204 246 -204Q293 -204 326.5 -174Q360 -144 360 -105Q360 -87 354.5 -78.5Q349 -70 336 -69Q330 -68 313 -70.5Q296 -73 287 -72Q268 -69 255.5 -56Q243 -43 243 -24Q243 -3 260 12.5Q277 28 300 28Q339 28 368 -6Q397 -40 397 -88Q397 -155 345.5 -203.5Q294 -252 214 -252Q138 -252 87 -208Q36 -164 36 -95Q36 -63 47.5 -31Q59 1 85 38Q99 58 129.5 96Q160 134 172 152Q187 174 194 195Q201 216 201 238ZM146 406Q146 436 167 457Q188 478 217 478Q247 478 268 457Q289 436 289 406Q289 377 268 356Q247 335 217 335Q188 335 167 356Q146 377 146 406Z" glyph-name="questiondown" horiz-adv-x="430" unicode="&#191;" /><glyph d="M210 497H247V471Q247 433 236 395Q225 357 189 292Q160 237 151 209Q142 181 142 155Q142 98 173 65.5Q204 33 255 33Q302 33 335.5 63Q369 93 369 132Q369 150 363.5 158.5Q358 167 345 168Q339 169 322 166.5Q305 164 296 165Q277 168 264.5 181Q252 194 252 213Q252 234 269 249.5Q286 265 309 265Q348 265 377 231Q406 197 406 149Q406 82 354.5 33.5Q303 -15 223 -15Q147 -15 96 29Q45 73 45 142Q45 174 56.5 206Q68 238 94 275Q108 295 138.5 333Q169 371 181 389Q196 411 203 432Q210 453 210 475ZM155 643Q155 673 176 694Q197 715 226 715Q256 715 277 694Q298 673 298 643Q298 614 277 593Q256 572 226 572Q197 572 176 593Q155 614 155 643Z" glyph-name="questiondown.case" horiz-adv-x="443" /><glyph d="M310 437H269V700H375ZM181 700 116 437H75V700Z" glyph-name="quotedbl" horiz-adv-x="420" unicode="&quot;" /><glyph d="M216 31Q216 -23 182 -68.5Q148 -114 83 -145L71 -129Q117 -96 142 -63.5Q167 -31 173 8Q166 0 153.5 -4.5Q141 -9 127 -9Q100 -9 81 11Q62 31 62 59Q62 87 82 107.5Q102 128 133 128Q168 128 192 99.5Q216 71 216 31ZM411 31Q411 -23 377 -68.5Q343 -114 278 -145L266 -129Q312 -96 337 -63.5Q362 -31 368 8Q361 0 348.5 -4.5Q336 -9 322 -9Q295 -9 276 11Q257 31 257 59Q257 87 277 107.5Q297 128 328 128Q363 128 387 99.5Q411 71 411 31Z" glyph-name="quotedblbase" horiz-adv-x="472" unicode="&#8222;" /><glyph d="M53 539Q53 593 87 638.5Q121 684 186 715L198 699Q152 666 127 633.5Q102 601 96 562Q103 570 115.5 574.5Q128 579 142 579Q169 579 188 559Q207 539 207 511Q207 483 187 462.5Q167 442 136 442Q101 442 77 470.5Q53 499 53 539ZM248 539Q248 593 282 638.5Q316 684 381 715L393 699Q347 666 322 633.5Q297 601 291 562Q298 570 310.5 574.5Q323 579 337 579Q364 579 383 559Q402 539 402 511Q402 483 382 462.5Q362 442 331 442Q296 442 272 470.5Q248 499 248 539Z" glyph-name="quotedblleft" horiz-adv-x="459" unicode="&#8220;" /><glyph d="M217 618Q217 564 183 518.5Q149 473 84 442L72 458Q118 491 143 523.5Q168 556 174 595Q167 587 154.5 582.5Q142 578 128 578Q101 578 82 598Q63 618 63 646Q63 674 83 694.5Q103 715 134 715Q169 715 193 686.5Q217 658 217 618ZM412 618Q412 564 378 518.5Q344 473 279 442L267 458Q313 491 338 523.5Q363 556 369 595Q362 587 349.5 582.5Q337 578 323 578Q296 578 277 598Q258 618 258 646Q258 674 278 694.5Q298 715 329 715Q364 715 388 686.5Q412 658 412 618Z" glyph-name="quotedblright" horiz-adv-x="460" unicode="&#8221;" /><glyph d="M53 539Q53 593 87 638.5Q121 684 186 715L198 699Q152 666 127 633.5Q102 601 96 562Q103 570 115.5 574.5Q128 579 142 579Q169 579 188 559Q207 539 207 511Q207 483 187 462.5Q167 442 136 442Q101 442 77 470.5Q53 499 53 539Z" glyph-name="quoteleft" horiz-adv-x="264" unicode="&#8216;" /><glyph d="M217 618Q217 564 183 518.5Q149 473 84 442L72 458Q118 491 143 523.5Q168 556 174 595Q167 587 154.5 582.5Q142 578 128 578Q101 578 82 598Q63 618 63 646Q63 674 83 694.5Q103 715 134 715Q169 715 193 686.5Q217 658 217 618Z" glyph-name="quoteright" horiz-adv-x="266" unicode="&#8217;" /><glyph d="M216 31Q216 -23 182 -68.5Q148 -114 83 -145L71 -129Q117 -96 142 -63.5Q167 -31 173 8Q166 0 153.5 -4.5Q141 -9 127 -9Q100 -9 81 11Q62 31 62 59Q62 87 82 107.5Q102 128 133 128Q168 128 192 99.5Q216 71 216 31Z" glyph-name="quotesinglbase" horiz-adv-x="277" unicode="&#8218;" /><glyph d="M181 700 116 437H75V700Z" glyph-name="quotesingle" horiz-adv-x="226" unicode="'" /><glyph d="M233 29 269 21V0H37V21L64 27Q86 33 95.5 44.5Q105 56 105 81V405L28 435V454Q67 460 111.5 471Q156 482 189 494H191L189 395H191Q228 437 267.5 461.5Q307 486 338 486Q347 486 355.5 484.5Q364 483 382 478Q380 456 372 427Q364 398 354 381Q338 391 317 397Q296 403 277 403Q258 403 235.5 395Q213 387 191 372V81Q191 57 200.5 45.5Q210 34 233 29Z" glyph-name="r" horiz-adv-x="391" unicode="r" /><glyph d="M233 29 269 21V0H37V21L64 27Q86 33 95.5 44.5Q105 56 105 81V405L28 435V454Q67 460 111.5 471Q156 482 189 494H191L189 395H191Q228 437 267.5 461.5Q307 486 338 486Q347 486 355.5 484.5Q364 483 382 478Q380 456 372 427Q364 398 354 381Q338 391 317 397Q296 403 277 403Q258 403 235.5 395Q213 387 191 372V81Q191 57 200.5 45.5Q210 34 233 29ZM233 554H207L222 702H331Z" glyph-name="racute" horiz-adv-x="391" unicode="&#341;" /><glyph d="M239 0H191L23 417H73L216 54L490 743H543Z" glyph-name="radical" horiz-adv-x="545" unicode="&#8730;" /><glyph d="M233 29 269 21V0H37V21L64 27Q86 33 95.5 44.5Q105 56 105 81V405L28 435V454Q67 460 111.5 471Q156 482 189 494H191L189 395H191Q228 437 267.5 461.5Q307 486 338 486Q347 486 355.5 484.5Q364 483 382 478Q380 456 372 427Q364 398 354 381Q338 391 317 397Q296 403 277 403Q258 403 235.5 395Q213 387 191 372V81Q191 57 200.5 45.5Q210 34 233 29ZM196 554 101 702H136L222 625L308 702H344L248 554Z" glyph-name="rcaron" horiz-adv-x="391" unicode="&#345;" /><glyph d="M233 29 269 21V0H37V21L64 27Q86 33 95.5 44.5Q105 56 105 81V405L28 435V454Q67 460 111.5 471Q156 482 189 494H191L189 395H191Q228 437 267.5 461.5Q307 486 338 486Q347 486 355.5 484.5Q364 483 382 478Q380 456 372 427Q364 398 354 381Q338 391 317 397Q296 403 277 403Q258 403 235.5 395Q213 387 191 372V81Q191 57 200.5 45.5Q210 34 233 29ZM229 -148Q229 -198 197.5 -241Q166 -284 107 -314L92 -299Q135 -268 159 -235Q183 -202 189 -168Q184 -177 170.5 -182.5Q157 -188 143 -188Q116 -188 97.5 -169Q79 -150 79 -123Q79 -96 99 -75.5Q119 -55 148 -55Q183 -55 206 -82Q229 -109 229 -148Z" glyph-name="rcommaaccent" horiz-adv-x="391" unicode="&#343;" /><glyph d="M630 473Q630 357 545.5 274Q461 191 343 191Q225 191 140.5 274Q56 357 56 473Q56 589 140.5 672Q225 755 343 755Q461 755 545.5 672Q630 589 630 473ZM343 724Q239 724 165.5 650.5Q92 577 92 473Q92 369 165.5 295.5Q239 222 343 222Q447 222 520 295.5Q593 369 593 473Q593 577 520 650.5Q447 724 343 724ZM316 626H294V487L329 489Q365 491 385 508Q405 525 405 555Q405 589 382 607.5Q359 626 316 626ZM338 340V323H203V340L223 344Q232 347 237 353.5Q242 360 242 370V600Q242 610 237.5 615.5Q233 621 223 624L203 628V645H353Q402 645 432 621Q462 597 462 560Q462 534 444.5 513Q427 492 395 479L441 408Q460 380 474.5 365Q489 350 505 344L517 340V323H476Q448 323 429 339Q410 355 365 432L343 469H294V370Q294 360 299 354Q304 348 314 346Z" glyph-name="registered" horiz-adv-x="686" unicode="&#174;" /><glyph d="M201 518Q201 490 181.5 470Q162 450 132 450Q97 450 74 477.5Q51 505 51 544Q51 596 84.5 640.5Q118 685 180 715L192 700Q147 668 122.5 635.5Q98 603 93 566Q99 574 111.5 579Q124 584 137 584Q164 584 182.5 564.5Q201 545 201 518Z" glyph-name="revcommaaccent" horiz-adv-x="251" /><glyph d="M255 621Q255 580 225.5 551Q196 522 155 522Q113 522 84 551Q55 580 55 621Q55 662 84.5 691.5Q114 721 155 721Q196 721 225.5 691.5Q255 662 255 621ZM91 621Q91 594 109.5 575Q128 556 155 556Q181 556 199.5 575Q218 594 218 621Q218 648 199 667.5Q180 687 155 687Q128 687 109.5 667.5Q91 648 91 621Z" glyph-name="ring" horiz-adv-x="309" unicode="&#730;" /><glyph d="M386 134Q386 72 334.5 28.5Q283 -15 204 -15Q164 -15 118 -4.5Q72 6 49 18V153H76Q88 86 121.5 51.5Q155 17 208 17Q250 17 278.5 41.5Q307 66 307 103Q307 127 296.5 145.5Q286 164 264 179Q254 186 242 192.5Q230 199 181 220Q107 253 81.5 283.5Q56 314 56 359Q56 417 104 455Q152 493 229 493Q255 493 291.5 487.5Q328 482 364 473L355 356H329Q321 408 294.5 434.5Q268 461 224 461Q188 461 162.5 439.5Q137 418 137 386Q137 357 155 336.5Q173 316 228 291Q283 267 301.5 257Q320 247 334 236Q360 215 373 190Q386 165 386 134Z" glyph-name="s" horiz-adv-x="421" unicode="s" /><glyph d="M599 -15Q543 -15 515 13.5Q487 42 487 101V436H416V458Q451 465 474.5 497.5Q498 530 498 569Q498 617 467 648Q436 679 390 679Q340 679 306.5 644Q273 609 273 556Q273 539 276.5 521.5Q280 504 287 488Q304 486 323.5 482Q343 478 364 473L355 356H329Q321 408 294.5 434.5Q268 461 224 461Q188 461 162.5 439.5Q137 418 137 386Q137 357 155 336.5Q173 316 228 291Q283 267 301.5 257Q320 247 334 236Q360 215 373 190Q386 165 386 134Q386 72 334.5 28.5Q283 -15 204 -15Q164 -15 118 -4.5Q72 6 49 18V153H76Q88 86 121.5 51.5Q155 17 208 17Q250 17 278.5 41.5Q307 66 307 103Q307 127 296.5 145.5Q286 164 264 179Q254 186 242 192.5Q230 199 181 220Q107 253 81.5 283.5Q56 314 56 359Q56 417 104 455Q152 493 229 493Q234 493 241 492.5Q248 492 263 491Q256 506 252 524Q248 542 248 563Q248 625 293 668.5Q338 712 407 712Q482 712 527 662Q572 612 572 529V478H704V436H572V130Q572 78 589 55.5Q606 33 644 33Q658 33 672.5 36Q687 39 710 47L717 22Q699 8 663 -3.5Q627 -15 599 -15Z" glyph-name="s_t" horiz-adv-x="726" unicode="&#64262;" /><glyph d="M386 134Q386 72 334.5 28.5Q283 -15 204 -15Q164 -15 118 -4.5Q72 6 49 18V153H76Q88 86 121.5 51.5Q155 17 208 17Q250 17 278.5 41.5Q307 66 307 103Q307 127 296.5 145.5Q286 164 264 179Q254 186 242 192.5Q230 199 181 220Q107 253 81.5 283.5Q56 314 56 359Q56 417 104 455Q152 493 229 493Q255 493 291.5 487.5Q328 482 364 473L355 356H329Q321 408 294.5 434.5Q268 461 224 461Q188 461 162.5 439.5Q137 418 137 386Q137 357 155 336.5Q173 316 228 291Q283 267 301.5 257Q320 247 334 236Q360 215 373 190Q386 165 386 134ZM225 554H199L214 702H323Z" glyph-name="sacute" horiz-adv-x="421" unicode="&#347;" /><glyph d="M386 134Q386 72 334.5 28.5Q283 -15 204 -15Q164 -15 118 -4.5Q72 6 49 18V153H76Q88 86 121.5 51.5Q155 17 208 17Q250 17 278.5 41.5Q307 66 307 103Q307 127 296.5 145.5Q286 164 264 179Q254 186 242 192.5Q230 199 181 220Q107 253 81.5 283.5Q56 314 56 359Q56 417 104 455Q152 493 229 493Q255 493 291.5 487.5Q328 482 364 473L355 356H329Q321 408 294.5 434.5Q268 461 224 461Q188 461 162.5 439.5Q137 418 137 386Q137 357 155 336.5Q173 316 228 291Q283 267 301.5 257Q320 247 334 236Q360 215 373 190Q386 165 386 134ZM188 554 93 702H128L214 625L300 702H336L240 554Z" glyph-name="scaron" horiz-adv-x="421" unicode="&#353;" /><glyph d="M307 -145Q307 -181 277.5 -204.5Q248 -228 203 -228Q174 -228 146.5 -220Q119 -212 100 -199L114 -177Q130 -183 145 -186.5Q160 -190 172 -190Q200 -190 217 -177Q234 -164 234 -142Q234 -120 210.5 -104Q187 -88 154 -84L152 -80L198 -15Q158 -14 114 -4Q70 6 49 18V153H76Q88 86 121.5 51.5Q155 17 208 17Q250 17 278.5 41.5Q307 66 307 103Q307 127 296.5 145.5Q286 164 264 179Q254 186 242 192.5Q230 199 181 220Q107 253 81.5 283.5Q56 314 56 359Q56 417 104 455Q152 493 229 493Q255 493 291.5 487.5Q328 482 364 473L355 356H329Q321 408 294.5 434.5Q268 461 224 461Q188 461 162.5 439.5Q137 418 137 386Q137 357 155 336.5Q173 316 228 291Q283 267 301.5 257Q320 247 334 236Q360 215 373 190Q386 165 386 134Q386 77 343 35.5Q300 -6 231 -14L214 -61Q251 -66 279 -88.5Q307 -111 307 -145Z" glyph-name="scedilla" horiz-adv-x="421" unicode="&#351;" /><glyph d="M386 134Q386 72 334.5 28.5Q283 -15 204 -15Q164 -15 118 -4.5Q72 6 49 18V153H76Q88 86 121.5 51.5Q155 17 208 17Q250 17 278.5 41.5Q307 66 307 103Q307 127 296.5 145.5Q286 164 264 179Q254 186 242 192.5Q230 199 181 220Q107 253 81.5 283.5Q56 314 56 359Q56 417 104 455Q152 493 229 493Q255 493 291.5 487.5Q328 482 364 473L355 356H329Q321 408 294.5 434.5Q268 461 224 461Q188 461 162.5 439.5Q137 418 137 386Q137 357 155 336.5Q173 316 228 291Q283 267 301.5 257Q320 247 334 236Q360 215 373 190Q386 165 386 134ZM128 554H93L188 702H240L336 554H300L214 632Z" glyph-name="scircumflex" horiz-adv-x="421" unicode="&#349;" /><glyph d="M386 134Q386 72 334.5 28.5Q283 -15 204 -15Q164 -15 118 -4.5Q72 6 49 18V153H76Q88 86 121.5 51.5Q155 17 208 17Q250 17 278.5 41.5Q307 66 307 103Q307 127 296.5 145.5Q286 164 264 179Q254 186 242 192.5Q230 199 181 220Q107 253 81.5 283.5Q56 314 56 359Q56 417 104 455Q152 493 229 493Q255 493 291.5 487.5Q328 482 364 473L355 356H329Q321 408 294.5 434.5Q268 461 224 461Q188 461 162.5 439.5Q137 418 137 386Q137 357 155 336.5Q173 316 228 291Q283 267 301.5 257Q320 247 334 236Q360 215 373 190Q386 165 386 134ZM294 -148Q294 -198 262.5 -241Q231 -284 172 -314L157 -299Q200 -268 224 -235Q248 -202 254 -168Q249 -177 235.5 -182.5Q222 -188 208 -188Q181 -188 162.5 -169Q144 -150 144 -123Q144 -96 164 -75.5Q184 -55 213 -55Q248 -55 271 -82Q294 -109 294 -148Z" glyph-name="scommaaccent" horiz-adv-x="421" unicode="&#537;" /><glyph d="M463 149Q495 158 516.5 185Q538 212 538 247Q538 283 516.5 310.5Q495 338 440 369L311 441Q262 468 234 494Q206 520 193 550Q160 540 138.5 513Q117 486 117 451Q117 415 138.5 388Q160 361 216 330L344 258Q392 230 421 204Q450 178 463 149ZM182 582Q180 589 179 597Q178 605 178 615Q178 687 234.5 735.5Q291 784 383 784Q412 784 456 779.5Q500 775 542 767L529 606H500L491 643Q475 700 446.5 723.5Q418 747 371 747Q321 747 291 718Q261 689 261 644Q261 606 284 577.5Q307 549 357 521L483 451Q553 412 586.5 370.5Q620 329 621 278Q621 220 579.5 175.5Q538 131 474 117Q476 103 477 96Q478 89 478 83Q478 11 421.5 -37.5Q365 -86 273 -86Q243 -86 198.5 -81Q154 -76 114 -69L126 92H155L165 55Q179 -1 208 -25Q237 -49 284 -49Q334 -49 364.5 -20Q395 9 395 54Q395 93 371.5 122Q348 151 298 177L173 247Q102 286 68.5 328Q35 370 35 420Q35 478 76 523Q117 568 182 582Z" glyph-name="section" horiz-adv-x="656" unicode="&#167;" /><glyph d="M214 406Q214 376 193 355Q172 334 142 334Q113 334 92 355Q71 376 71 406Q71 436 92 457Q113 478 142 478Q172 478 193 457Q214 436 214 406ZM225 31Q225 -22 191 -67.5Q157 -113 92 -145L80 -129Q126 -96 151 -63Q176 -30 182 9Q175 1 163 -4Q151 -9 136 -9Q109 -9 90 11Q71 31 71 59Q71 87 91 107.5Q111 128 142 128Q177 128 201 99.5Q225 71 225 31Z" glyph-name="semicolon" horiz-adv-x="295" unicode=";" /><glyph d="M229 0 120 -8Q184 165 255 311.5Q326 458 418 611H30V700H484V671Q403 493 335.5 315Q268 137 229 0Z" glyph-name="seven" horiz-adv-x="498" unicode="7" /><glyph d="M187 0 118 -5Q157 97 200 184.5Q243 272 299 366H70V420H339V403Q292 299 251.5 192Q211 85 187 0Z" glyph-name="seven.dnom" horiz-adv-x="400" /><glyph d="M188 286 119 281Q158 383 201 470.5Q244 558 300 652H71V706H340V689Q293 585 252.5 478Q212 371 188 286Z" glyph-name="seven.numr" horiz-adv-x="400" /><glyph d="M207 -129 108 -136Q169 27 233.5 161.5Q298 296 380 433H26V515H440V489Q368 329 306 164.5Q244 0 207 -129Z" glyph-name="seven.pnum" horiz-adv-x="451" /></font>
</defs>
</svg>
