<?xml version="1.0" standalone="no"?><!DOCTYPE svg PUBLIC "-//W3C//DTD SVG 1.1//EN" "http://www.w3.org/Graphics/SVG/1.1/DTD/svg11.dtd" ><svg version="1.1" xmlns="http://www.w3.org/2000/svg"><defs><font horiz-adv-x="0" id="font"><font-face ascent="750" bbox="-202 -321 6997 944" cap-height="700" descent="-250" font-family="Fresh Sans" font-stretch="normal" font-style="normal" font-weight="300" units-per-em="1000" x-height="456" /><missing-glyph horiz-adv-x="0" /><glyph glyph-name=".null" horiz-adv-x="0" /><glyph d="M156 255H471L313 655ZM140 216 61 14Q58 7 54 3.5Q50 0 44 0H23Q17 0 14.5 4.5Q12 9 14 14L283 686Q286 693 290.5 696.5Q295 700 302 700H327Q334 700 338.5 696.5Q343 693 346 686L616 14Q618 8 615.5 4Q613 0 607 0H584Q578 0 573.5 3.5Q569 7 566 14L486 216Z" glyph-name="A" horiz-adv-x="630" unicode="A" /><glyph d="M156 255H471L313 656ZM140 216 61 14Q58 7 53 3.5Q48 0 41 0H24Q18 0 15 4.5Q12 9 14 14L282 686Q284 692 290 696Q296 700 303 700H853Q859 700 863.5 695.5Q868 691 868 685V673Q868 667 863.5 662.5Q859 658 853 658H358L471 376H719Q725 376 729.5 371.5Q734 367 734 361V351Q734 345 729.5 340.5Q725 336 719 336H486L605 42H853Q859 42 863.5 37.5Q868 33 868 27V15Q868 9 863.5 4.5Q859 0 853 0H587Q579 0 574 3.5Q569 7 566 14L486 216Z" glyph-name="AE" horiz-adv-x="898" unicode="&#198;" /><glyph d="M156 255H471L313 655ZM140 216 61 14Q58 7 54 3.5Q50 0 44 0H23Q17 0 14.5 4.5Q12 9 14 14L283 686Q286 693 290.5 696.5Q295 700 302 700H327Q334 700 338.5 696.5Q343 693 346 686L616 14Q618 8 615.5 4Q613 0 607 0H584Q578 0 573.5 3.5Q569 7 566 14L486 216ZM385 920H411Q416 920 418.5 916Q421 912 419 907L349 780Q345 773 341.5 770Q338 767 332 767H316Q311 767 308.5 770.5Q306 774 308 779L364 906Q367 913 372 916.5Q377 920 385 920Z" glyph-name="Aacute" horiz-adv-x="630" unicode="&#193;" /><glyph d="M156 255H471L313 655ZM140 216 61 14Q58 7 54 3.5Q50 0 44 0H23Q17 0 14.5 4.5Q12 9 14 14L283 686Q286 693 290.5 696.5Q295 700 302 700H327Q334 700 338.5 696.5Q343 693 346 686L616 14Q618 8 615.5 4Q613 0 607 0H584Q578 0 573.5 3.5Q569 7 566 14L486 216ZM315 762Q269 762 241 787Q213 812 213 853V858Q213 863 216 866Q219 869 224 869H240Q245 869 248 866Q251 863 251 858V856Q251 829 268.5 813.5Q286 798 315 798Q344 798 361.5 813.5Q379 829 379 856V858Q379 863 382 866Q385 869 390 869H406Q411 869 414 866Q417 863 417 858V853Q417 812 389 787Q361 762 315 762Z" glyph-name="Abreve" horiz-adv-x="630" unicode="&#258;" /><glyph d="M156 255H471L313 655ZM140 216 61 14Q58 7 54 3.5Q50 0 44 0H23Q17 0 14.5 4.5Q12 9 14 14L283 686Q286 693 290.5 696.5Q295 700 302 700H327Q334 700 338.5 696.5Q343 693 346 686L616 14Q618 8 615.5 4Q613 0 607 0H584Q578 0 573.5 3.5Q569 7 566 14L486 216ZM312 920H321Q329 920 334 917.5Q339 915 344 907L433 780Q436 776 433.5 771.5Q431 767 426 767H409Q403 767 398.5 769Q394 771 390 777L316 876L242 777Q237 771 233 769Q229 767 223 767H206Q200 767 197.5 771.5Q195 776 199 780L288 907Q292 915 297.5 917.5Q303 920 312 920Z" glyph-name="Acircumflex" horiz-adv-x="630" unicode="&#194;" /><glyph d="M156 255H471L313 655ZM140 216 61 14Q58 7 54 3.5Q50 0 44 0H23Q17 0 14.5 4.5Q12 9 14 14L283 686Q286 693 290.5 696.5Q295 700 302 700H327Q334 700 338.5 696.5Q343 693 346 686L616 14Q618 8 615.5 4Q613 0 607 0H584Q578 0 573.5 3.5Q569 7 566 14L486 216ZM390 765Q373 765 360 778Q347 791 347 808Q347 825 360 838Q373 851 390 851Q407 851 420 838Q433 825 433 808Q433 791 420 778Q407 765 390 765ZM239 765Q222 765 209 778Q196 791 196 808Q196 825 209 838Q222 851 239 851Q256 851 269 838Q282 825 282 808Q282 791 269 778Q256 765 239 765Z" glyph-name="Adieresis" horiz-adv-x="630" unicode="&#196;" /><glyph d="M156 255H471L313 655ZM140 216 61 14Q58 7 54 3.5Q50 0 44 0H23Q17 0 14.5 4.5Q12 9 14 14L283 686Q286 693 290.5 696.5Q295 700 302 700H327Q334 700 338.5 696.5Q343 693 346 686L616 14Q618 8 615.5 4Q613 0 607 0H584Q578 0 573.5 3.5Q569 7 566 14L486 216ZM223 920H249Q257 920 262 916.5Q267 913 270 906L326 779Q328 774 325.5 770.5Q323 767 318 767H302Q296 767 292.5 770Q289 773 285 780L215 907Q213 912 215.5 916Q218 920 223 920Z" glyph-name="Agrave" horiz-adv-x="630" unicode="&#192;" /><glyph d="M156 255H471L313 655ZM140 216 61 14Q58 7 54 3.5Q50 0 44 0H23Q17 0 14.5 4.5Q12 9 14 14L283 686Q286 693 290.5 696.5Q295 700 302 700H327Q334 700 338.5 696.5Q343 693 346 686L616 14Q618 8 615.5 4Q613 0 607 0H584Q578 0 573.5 3.5Q569 7 566 14L486 216ZM415 790H215Q209 790 204.5 794.5Q200 799 200 805V812Q200 818 204.5 822.5Q209 827 215 827H415Q421 827 425.5 822.5Q430 818 430 812V805Q430 799 425.5 794.5Q421 790 415 790Z" glyph-name="Amacron" horiz-adv-x="630" unicode="&#256;" /><glyph d="M578 -184Q544 -184 524 -165.5Q504 -147 504 -117Q504 -90 524 -58Q544 -26 577 2Q573 4 570 7Q567 10 566 14L486 216H140L61 14Q58 7 54 3.5Q50 0 44 0H23Q17 0 14.5 4.5Q12 9 14 14L283 686Q286 693 290.5 696.5Q295 700 302 700H327Q334 700 338.5 696.5Q343 693 346 686L616 14Q618 8 616 4Q614 0 610 1Q583 -27 564.5 -60Q546 -93 546 -113Q546 -131 556.5 -141Q567 -151 587 -151Q594 -151 601.5 -150Q609 -149 616 -147Q621 -146 624.5 -149Q628 -152 627 -157L626 -167Q625 -175 610.5 -179.5Q596 -184 578 -184ZM156 255H471L313 655Z" glyph-name="Aogonek" horiz-adv-x="629" unicode="&#260;" /><glyph d="M156 255H471L313 655ZM140 216 61 14Q58 7 54 3.5Q50 0 44 0H23Q17 0 14.5 4.5Q12 9 14 14L283 686Q286 693 290.5 696.5Q295 700 302 700H327Q334 700 338.5 696.5Q343 693 346 686L616 14Q618 8 615.5 4Q613 0 607 0H584Q578 0 573.5 3.5Q569 7 566 14L486 216ZM315 944Q357 944 386 916Q415 888 416 846Q415 804 386 776Q357 748 315 748Q273 748 244 776Q215 804 214 846Q215 888 244 916Q273 944 315 944ZM315 784Q341 784 358 802Q375 820 375 846Q375 872 358 890Q341 908 315 908Q289 908 272 890Q255 872 255 846Q255 820 272 802Q289 784 315 784Z" glyph-name="Aring" horiz-adv-x="630" unicode="&#197;" /><glyph d="M156 255H471L313 655ZM140 216 61 14Q58 7 54 3.5Q50 0 44 0H23Q17 0 14.5 4.5Q12 9 14 14L283 686Q286 693 290.5 696.5Q295 700 302 700H327Q334 700 338.5 696.5Q343 693 346 686L616 14Q618 8 615.5 4Q613 0 607 0H584Q578 0 573.5 3.5Q569 7 566 14L486 216ZM440 833Q431 809 413.5 795.5Q396 782 373 782Q363 782 348.5 786Q334 790 302 803Q280 812 271 814.5Q262 817 257 817Q246 817 240 812Q234 807 226 793Q222 786 217 784Q212 782 206 785L199 788Q194 790 191.5 795.5Q189 801 191 806Q200 830 217.5 843.5Q235 857 258 857Q268 857 282.5 853Q297 849 329 836Q351 827 360 824.5Q369 822 374 822Q385 822 391 827Q397 832 405 846Q409 853 414 855Q419 857 425 854L432 851Q437 849 439.5 843.5Q442 838 440 833Z" glyph-name="Atilde" horiz-adv-x="630" unicode="&#195;" /><glyph d="M111 700H383Q474 700 528.5 652.5Q583 605 583 532Q583 475 554 433Q525 391 475 373Q543 357 583.5 309Q624 261 624 195Q624 107 563.5 53.5Q503 0 399 0H111Q105 0 100.5 4.5Q96 9 96 15V685Q96 691 100.5 695.5Q105 700 111 700ZM535 528Q535 590 492 625Q449 660 377 660H141V390H383Q452 390 493.5 427Q535 464 535 528ZM577 195Q577 265 528.5 307.5Q480 350 405 350H141V40H406Q480 40 528.5 82.5Q577 125 577 195Z" glyph-name="B" horiz-adv-x="667" unicode="B" /><glyph d="M625 71Q578 31 518.5 9.5Q459 -12 394 -12Q245 -12 144.5 91.5Q44 195 44 350Q44 505 145 608.5Q246 712 394 712Q459 712 518.5 690.5Q578 669 625 629Q658 600 682 565.5Q706 531 719 492Q721 486 718 482Q715 478 709 478H688Q682 478 678.5 481Q675 484 672 492Q658 525 638 553Q618 581 592 603Q552 637 502 654.5Q452 672 394 672Q263 672 176.5 580.5Q90 489 90 350Q90 211 176.5 119.5Q263 28 394 28Q452 28 502 45.5Q552 63 592 97Q618 119 638 147Q658 175 672 208Q675 216 678.5 219Q682 222 688 222H709Q715 222 718 218Q721 214 719 208Q706 169 682 134.5Q658 100 625 71Z" glyph-name="C" horiz-adv-x="750" unicode="C" /><glyph glyph-name="CR" horiz-adv-x="0" /><glyph d="M625 71Q578 31 518.5 9.5Q459 -12 394 -12Q245 -12 144.5 91.5Q44 195 44 350Q44 505 145 608.5Q246 712 394 712Q459 712 518.5 690.5Q578 669 625 629Q658 600 682 565.5Q706 531 719 492Q721 486 718 482Q715 478 709 478H688Q682 478 678.5 481Q675 484 672 492Q658 525 638 553Q618 581 592 603Q552 637 502 654.5Q452 672 394 672Q263 672 176.5 580.5Q90 489 90 350Q90 211 176.5 119.5Q263 28 394 28Q452 28 502 45.5Q552 63 592 97Q618 119 638 147Q658 175 672 208Q675 216 678.5 219Q682 222 688 222H709Q715 222 718 218Q721 214 719 208Q706 169 682 134.5Q658 100 625 71ZM450 920H476Q481 920 483.5 916Q486 912 484 907L414 780Q410 773 406.5 770Q403 767 397 767H381Q376 767 373.5 770.5Q371 774 373 779L429 906Q432 913 437 916.5Q442 920 450 920Z" glyph-name="Cacute" horiz-adv-x="750" unicode="&#262;" /><glyph d="M625 71Q578 31 518.5 9.5Q459 -12 394 -12Q245 -12 144.5 91.5Q44 195 44 350Q44 505 145 608.5Q246 712 394 712Q459 712 518.5 690.5Q578 669 625 629Q658 600 682 565.5Q706 531 719 492Q721 486 718 482Q715 478 709 478H688Q682 478 678.5 481Q675 484 672 492Q658 525 638 553Q618 581 592 603Q552 637 502 654.5Q452 672 394 672Q263 672 176.5 580.5Q90 489 90 350Q90 211 176.5 119.5Q263 28 394 28Q452 28 502 45.5Q552 63 592 97Q618 119 638 147Q658 175 672 208Q675 216 678.5 219Q682 222 688 222H709Q715 222 718 218Q721 214 719 208Q706 169 682 134.5Q658 100 625 71ZM386 767H377Q368 767 362.5 769.5Q357 772 353 780L264 907Q260 911 262.5 915.5Q265 920 271 920H288Q294 920 298 918Q302 916 307 910L381 811L455 910Q459 916 463.5 918Q468 920 474 920H491Q496 920 498.5 915.5Q501 911 498 907L409 780Q404 772 399 769.5Q394 767 386 767Z" glyph-name="Ccaron" horiz-adv-x="750" unicode="&#268;" /><glyph d="M398 -12 346 -129Q342 -137 338.5 -140Q335 -143 329 -143H313Q307 -143 304.5 -139Q302 -135 305 -129L355 -10Q219 5 131.5 105.5Q44 206 44 350Q44 505 145 608.5Q246 712 394 712Q459 712 518.5 690.5Q578 669 625 629Q658 600 682 565.5Q706 531 719 492Q721 486 718 482Q715 478 709 478H688Q682 478 678.5 481Q675 484 672 492Q658 525 638 553Q618 581 592 603Q552 637 502 654.5Q452 672 394 672Q263 672 176.5 580.5Q90 489 90 350Q90 211 176.5 119.5Q263 28 394 28Q452 28 502 45.5Q552 63 592 97Q618 119 638 147Q658 175 672 208Q675 216 678.5 219Q682 222 688 222H709Q715 222 718 218Q721 214 719 208Q706 169 682 134.5Q658 100 625 71Q578 31 519 9.5Q460 -12 398 -12Z" glyph-name="Ccedilla" horiz-adv-x="750" unicode="&#199;" /><glyph d="M625 71Q578 31 518.5 9.5Q459 -12 394 -12Q245 -12 144.5 91.5Q44 195 44 350Q44 505 145 608.5Q246 712 394 712Q459 712 518.5 690.5Q578 669 625 629Q658 600 682 565.5Q706 531 719 492Q721 486 718 482Q715 478 709 478H688Q682 478 678.5 481Q675 484 672 492Q658 525 638 553Q618 581 592 603Q552 637 502 654.5Q452 672 394 672Q263 672 176.5 580.5Q90 489 90 350Q90 211 176.5 119.5Q263 28 394 28Q452 28 502 45.5Q552 63 592 97Q618 119 638 147Q658 175 672 208Q675 216 678.5 219Q682 222 688 222H709Q715 222 718 218Q721 214 719 208Q706 169 682 134.5Q658 100 625 71ZM377 920H386Q394 920 399 917.5Q404 915 409 907L498 780Q501 776 498.5 771.5Q496 767 491 767H474Q468 767 463.5 769Q459 771 455 777L381 876L307 777Q302 771 298 769Q294 767 288 767H271Q265 767 262.5 771.5Q260 776 264 780L353 907Q357 915 362.5 917.5Q368 920 377 920Z" glyph-name="Ccircumflex" horiz-adv-x="750" unicode="&#264;" /><glyph d="M625 71Q578 31 518.5 9.5Q459 -12 394 -12Q245 -12 144.5 91.5Q44 195 44 350Q44 505 145 608.5Q246 712 394 712Q459 712 518.5 690.5Q578 669 625 629Q658 600 682 565.5Q706 531 719 492Q721 486 718 482Q715 478 709 478H688Q682 478 678.5 481Q675 484 672 492Q658 525 638 553Q618 581 592 603Q552 637 502 654.5Q452 672 394 672Q263 672 176.5 580.5Q90 489 90 350Q90 211 176.5 119.5Q263 28 394 28Q452 28 502 45.5Q552 63 592 97Q618 119 638 147Q658 175 672 208Q675 216 678.5 219Q682 222 688 222H709Q715 222 718 218Q721 214 719 208Q706 169 682 134.5Q658 100 625 71ZM426 827Q426 808 412.5 794Q399 780 380 780Q361 780 347.5 794Q334 808 334 827Q334 846 347.5 859.5Q361 873 380 873Q399 873 412.5 859.5Q426 846 426 827Z" glyph-name="Cdotaccent" horiz-adv-x="750" unicode="&#266;" /><glyph d="M111 700H303Q481 700 581 606Q681 512 681 350Q681 188 581 94Q481 0 303 0H111Q105 0 100.5 4.5Q96 9 96 15V685Q96 691 100.5 695.5Q105 700 111 700ZM141 40H307Q461 40 548 122Q635 204 635 350Q635 496 547.5 578Q460 660 307 660H141Z" glyph-name="D" horiz-adv-x="727" unicode="D" /><glyph d="M111 700H303Q481 700 581 606Q681 512 681 350Q681 188 581 94Q481 0 303 0H111Q105 0 100.5 4.5Q96 9 96 15V685Q96 691 100.5 695.5Q105 700 111 700ZM141 40H307Q461 40 548 122Q635 204 635 350Q635 496 547.5 578Q460 660 307 660H141ZM372 767H363Q354 767 348.5 769.5Q343 772 339 780L250 907Q246 911 248.5 915.5Q251 920 257 920H274Q280 920 284 918Q288 916 293 910L367 811L441 910Q445 916 449.5 918Q454 920 460 920H477Q482 920 484.5 915.5Q487 911 484 907L395 780Q390 772 385 769.5Q380 767 372 767Z" glyph-name="Dcaron" horiz-adv-x="727" unicode="&#270;" /><glyph d="M689 350Q689 188 589 94Q489 0 311 0H119Q113 0 108.5 4.5Q104 9 104 15V336H16Q10 336 5.5 340.5Q1 345 1 351V361Q1 367 5.5 371.5Q10 376 16 376H104V685Q104 691 108.5 695.5Q113 700 119 700H311Q489 700 589 606Q689 512 689 350ZM149 336V40H315Q469 40 556 122Q643 204 643 350Q643 496 555.5 578Q468 660 315 660H149V376H376Q382 376 386.5 371.5Q391 367 391 361V351Q391 345 386.5 340.5Q382 336 376 336Z" glyph-name="Dcroat" horiz-adv-x="735" unicode="&#272;" /><glyph d="M37 43 267 686Q269 692 274.5 696Q280 700 287 700H312Q319 700 324.5 696Q330 692 332 686L563 43Q565 37 566 32.5Q567 28 567 24V15Q567 9 562.5 4.5Q558 0 552 0H48Q42 0 37.5 4.5Q33 9 33 15V24Q33 28 34 32.5Q35 37 37 43ZM517 42 300 660 83 42Z" glyph-name="Delta" horiz-adv-x="600" unicode="&#8710;" /><glyph d="M111 700H558Q564 700 568.5 695.5Q573 691 573 685V673Q573 667 568.5 662.5Q564 658 558 658H141V376H354Q360 376 364.5 371.5Q369 367 369 361V351Q369 345 364.5 340.5Q360 336 354 336H141V42H558Q564 42 568.5 37.5Q573 33 573 27V15Q573 9 568.5 4.5Q564 0 558 0H111Q105 0 100.5 4.5Q96 9 96 15V685Q96 691 100.5 695.5Q105 700 111 700Z" glyph-name="E" horiz-adv-x="603" unicode="E" /><glyph d="M114 81H57V66H89Q91 66 92 65Q93 64 93 62V45Q93 44 92 42.5Q91 41 89 41H57V25H114Q116 25 117 24Q118 23 118 21V4Q118 3 117 1.5Q116 0 114 0H34Q33 0 31.5 1.5Q30 3 30 4V102Q30 104 31.5 105Q33 106 34 106H114Q116 106 117 105Q118 104 118 102V85Q118 84 117 82.5Q116 81 114 81ZM180 46H202L191 84ZM140 7 171 102Q172 104 173 105Q174 106 175 106H209Q210 106 211 105Q212 104 213 102L244 7Q245 6 245 5.5Q245 5 245 4Q245 3 244 1.5Q243 0 241 0H217Q216 0 215 1Q214 2 214 4L208 23H173L167 4Q166 2 165 1Q164 0 163 0H143Q142 0 140.5 1.5Q139 3 139 4Q139 5 139.5 5.5Q140 6 140 7Z" glyph-name="EA.alt" horiz-adv-x="0" /><glyph d="M111 700H558Q564 700 568.5 695.5Q573 691 573 685V673Q573 667 568.5 662.5Q564 658 558 658H141V376H354Q360 376 364.5 371.5Q369 367 369 361V351Q369 345 364.5 340.5Q360 336 354 336H141V42H558Q564 42 568.5 37.5Q573 33 573 27V15Q573 9 568.5 4.5Q564 0 558 0H111Q105 0 100.5 4.5Q96 9 96 15V685Q96 691 100.5 695.5Q105 700 111 700ZM395 920H421Q426 920 428.5 916Q431 912 429 907L359 780Q355 773 351.5 770Q348 767 342 767H326Q321 767 318.5 770.5Q316 774 318 779L374 906Q377 913 382 916.5Q387 920 395 920Z" glyph-name="Eacute" horiz-adv-x="603" unicode="&#201;" /><glyph d="M111 700H558Q564 700 568.5 695.5Q573 691 573 685V673Q573 667 568.5 662.5Q564 658 558 658H141V376H354Q360 376 364.5 371.5Q369 367 369 361V351Q369 345 364.5 340.5Q360 336 354 336H141V42H558Q564 42 568.5 37.5Q573 33 573 27V15Q573 9 568.5 4.5Q564 0 558 0H111Q105 0 100.5 4.5Q96 9 96 15V685Q96 691 100.5 695.5Q105 700 111 700ZM325 762Q279 762 251 787Q223 812 223 853V858Q223 863 226 866Q229 869 234 869H250Q255 869 258 866Q261 863 261 858V856Q261 829 278.5 813.5Q296 798 325 798Q354 798 371.5 813.5Q389 829 389 856V858Q389 863 392 866Q395 869 400 869H416Q421 869 424 866Q427 863 427 858V853Q427 812 399 787Q371 762 325 762Z" glyph-name="Ebreve" horiz-adv-x="603" unicode="&#276;" /><glyph d="M111 700H558Q564 700 568.5 695.5Q573 691 573 685V673Q573 667 568.5 662.5Q564 658 558 658H141V376H354Q360 376 364.5 371.5Q369 367 369 361V351Q369 345 364.5 340.5Q360 336 354 336H141V42H558Q564 42 568.5 37.5Q573 33 573 27V15Q573 9 568.5 4.5Q564 0 558 0H111Q105 0 100.5 4.5Q96 9 96 15V685Q96 691 100.5 695.5Q105 700 111 700ZM331 767H322Q313 767 307.5 769.5Q302 772 298 780L209 907Q205 911 207.5 915.5Q210 920 216 920H233Q239 920 243 918Q247 916 252 910L326 811L400 910Q404 916 408.5 918Q413 920 419 920H436Q441 920 443.5 915.5Q446 911 443 907L354 780Q349 772 344 769.5Q339 767 331 767Z" glyph-name="Ecaron" horiz-adv-x="603" unicode="&#282;" /><glyph d="M111 700H558Q564 700 568.5 695.5Q573 691 573 685V673Q573 667 568.5 662.5Q564 658 558 658H141V376H354Q360 376 364.5 371.5Q369 367 369 361V351Q369 345 364.5 340.5Q360 336 354 336H141V42H558Q564 42 568.5 37.5Q573 33 573 27V15Q573 9 568.5 4.5Q564 0 558 0H111Q105 0 100.5 4.5Q96 9 96 15V685Q96 691 100.5 695.5Q105 700 111 700ZM322 920H331Q339 920 344 917.5Q349 915 354 907L443 780Q446 776 443.5 771.5Q441 767 436 767H419Q413 767 408.5 769Q404 771 400 777L326 876L252 777Q247 771 243 769Q239 767 233 767H216Q210 767 207.5 771.5Q205 776 209 780L298 907Q302 915 307.5 917.5Q313 920 322 920Z" glyph-name="Ecircumflex" horiz-adv-x="603" unicode="&#202;" /><glyph d="M111 700H558Q564 700 568.5 695.5Q573 691 573 685V673Q573 667 568.5 662.5Q564 658 558 658H141V376H354Q360 376 364.5 371.5Q369 367 369 361V351Q369 345 364.5 340.5Q360 336 354 336H141V42H558Q564 42 568.5 37.5Q573 33 573 27V15Q573 9 568.5 4.5Q564 0 558 0H111Q105 0 100.5 4.5Q96 9 96 15V685Q96 691 100.5 695.5Q105 700 111 700ZM400 765Q383 765 370 778Q357 791 357 808Q357 825 370 838Q383 851 400 851Q417 851 430 838Q443 825 443 808Q443 791 430 778Q417 765 400 765ZM249 765Q232 765 219 778Q206 791 206 808Q206 825 219 838Q232 851 249 851Q266 851 279 838Q292 825 292 808Q292 791 279 778Q266 765 249 765Z" glyph-name="Edieresis" horiz-adv-x="603" unicode="&#203;" /><glyph d="M111 700H558Q564 700 568.5 695.5Q573 691 573 685V673Q573 667 568.5 662.5Q564 658 558 658H141V376H354Q360 376 364.5 371.5Q369 367 369 361V351Q369 345 364.5 340.5Q360 336 354 336H141V42H558Q564 42 568.5 37.5Q573 33 573 27V15Q573 9 568.5 4.5Q564 0 558 0H111Q105 0 100.5 4.5Q96 9 96 15V685Q96 691 100.5 695.5Q105 700 111 700ZM371 827Q371 808 357.5 794Q344 780 325 780Q306 780 292.5 794Q279 808 279 827Q279 846 292.5 859.5Q306 873 325 873Q344 873 357.5 859.5Q371 846 371 827Z" glyph-name="Edotaccent" horiz-adv-x="603" unicode="&#278;" /><glyph d="M111 700H558Q564 700 568.5 695.5Q573 691 573 685V673Q573 667 568.5 662.5Q564 658 558 658H141V376H354Q360 376 364.5 371.5Q369 367 369 361V351Q369 345 364.5 340.5Q360 336 354 336H141V42H558Q564 42 568.5 37.5Q573 33 573 27V15Q573 9 568.5 4.5Q564 0 558 0H111Q105 0 100.5 4.5Q96 9 96 15V685Q96 691 100.5 695.5Q105 700 111 700ZM233 920H259Q267 920 272 916.5Q277 913 280 906L336 779Q338 774 335.5 770.5Q333 767 328 767H312Q306 767 302.5 770Q299 773 295 780L225 907Q223 912 225.5 916Q228 920 233 920Z" glyph-name="Egrave" horiz-adv-x="603" unicode="&#200;" /><glyph d="M111 700H558Q564 700 568.5 695.5Q573 691 573 685V673Q573 667 568.5 662.5Q564 658 558 658H141V376H354Q360 376 364.5 371.5Q369 367 369 361V351Q369 345 364.5 340.5Q360 336 354 336H141V42H558Q564 42 568.5 37.5Q573 33 573 27V15Q573 9 568.5 4.5Q564 0 558 0H111Q105 0 100.5 4.5Q96 9 96 15V685Q96 691 100.5 695.5Q105 700 111 700ZM425 790H225Q219 790 214.5 794.5Q210 799 210 805V812Q210 818 214.5 822.5Q219 827 225 827H425Q431 827 435.5 822.5Q440 818 440 812V805Q440 799 435.5 794.5Q431 790 425 790Z" glyph-name="Emacron" horiz-adv-x="603" unicode="&#274;" /><glyph d="M496 -216Q470 -216 448 -209.5Q426 -203 408 -190Q404 -187 403.5 -182Q403 -177 406 -172L411 -164Q415 -158 420.5 -156.5Q426 -155 432 -159Q446 -168 463.5 -173.5Q481 -179 495 -179Q536 -179 558 -155Q580 -131 580 -85V0Q575 1 570.5 3.5Q566 6 563 11L141 635V15Q141 9 136.5 4.5Q132 0 126 0H111Q105 0 100.5 4.5Q96 9 96 15V685Q96 691 100.5 695.5Q105 700 111 700H133Q142 700 147.5 697Q153 694 157 688L579 65V685Q579 691 583.5 695.5Q588 700 594 700H609Q615 700 619.5 695.5Q624 691 624 685V-83Q624 -147 589.5 -181.5Q555 -216 496 -216Z" glyph-name="Eng" horiz-adv-x="720" unicode="&#330;" /><glyph d="M525 -157 524 -167Q523 -175 508.5 -179.5Q494 -184 476 -184Q442 -184 422 -165.5Q402 -147 402 -117Q402 -90 421.5 -58.5Q441 -27 473 0H111Q105 0 100.5 4.5Q96 9 96 15V685Q96 691 100.5 695.5Q105 700 111 700H558Q564 700 568.5 695.5Q573 691 573 685V673Q573 667 568.5 662.5Q564 658 558 658H141V376H354Q360 376 364.5 371.5Q369 367 369 361V351Q369 345 364.5 340.5Q360 336 354 336H141V42H558Q564 42 568.5 37.5Q573 33 573 27V15Q573 9 568.5 4.5Q564 0 558 0H507Q481 -28 462.5 -60.5Q444 -93 444 -113Q444 -131 454.5 -141Q465 -151 485 -151Q492 -151 499.5 -150Q507 -149 514 -147Q519 -146 522.5 -149Q526 -152 525 -157Z" glyph-name="Eogonek" horiz-adv-x="603" unicode="&#280;" /><glyph d="M689 350Q689 188 589 94Q489 0 311 0H119Q113 0 108.5 4.5Q104 9 104 15V336H16Q10 336 5.5 340.5Q1 345 1 351V361Q1 367 5.5 371.5Q10 376 16 376H104V685Q104 691 108.5 695.5Q113 700 119 700H311Q489 700 589 606Q689 512 689 350ZM149 336V40H315Q469 40 556 122Q643 204 643 350Q643 496 555.5 578Q468 660 315 660H149V376H376Q382 376 386.5 371.5Q391 367 391 361V351Q391 345 386.5 340.5Q382 336 376 336Z" glyph-name="Eth" horiz-adv-x="735" unicode="&#208;" /><glyph d="M617 108Q580 49 522 18.5Q464 -12 391 -12Q285 -12 212.5 57Q140 126 115 250H52Q46 250 41.5 254.5Q37 259 37 265V277Q37 283 41.5 287.5Q46 292 52 292H109Q108 305 107 320Q106 335 106 350Q106 364 107 378.5Q108 393 109 407H52Q46 407 41.5 411.5Q37 416 37 422V434Q37 440 41.5 444.5Q46 449 52 449H115Q141 574 213 643Q285 712 392 712Q465 712 522.5 681.5Q580 651 617 592Q620 587 618.5 581Q617 575 612 572L602 566Q596 563 590.5 564Q585 565 581 571Q549 621 501 647Q453 673 392 673Q302 673 245 617Q188 561 163 449H425Q431 449 435.5 444.5Q440 440 440 434V422Q440 416 435.5 411.5Q431 407 425 407H156Q155 393 154 378.5Q153 364 153 350Q153 335 154 320Q155 305 156 292H425Q431 292 435.5 287.5Q440 283 440 277V265Q440 259 435.5 254.5Q431 250 425 250H163Q186 144 245.5 85.5Q305 27 391 27Q452 27 500.5 53Q549 79 581 129Q585 135 590.5 136Q596 137 602 134L612 128Q617 125 618.5 119Q620 113 617 108Z" glyph-name="Euro" horiz-adv-x="670" unicode="&#8364;" /><glyph d="M439 353V343Q439 337 434.5 332.5Q430 328 424 328H141V15Q141 9 136.5 4.5Q132 0 126 0H111Q105 0 100.5 4.5Q96 9 96 15V685Q96 691 100.5 695.5Q105 700 111 700H527Q533 700 537.5 695.5Q542 691 542 685V673Q542 667 537.5 662.5Q533 658 527 658H141V368H424Q430 368 434.5 363.5Q439 359 439 353Z" glyph-name="F" horiz-adv-x="559" unicode="F" /><glyph d="M44 350Q44 504 146 608Q248 712 396 712Q461 712 520.5 690.5Q580 669 627 629Q660 600 684 565.5Q708 531 721 492Q723 486 720 482Q717 478 711 478H690Q684 478 680.5 481Q677 484 674 492Q660 525 640 553Q620 581 594 603Q554 637 504 654.5Q454 672 396 672Q265 672 177.5 580Q90 488 90 350Q90 211 175.5 119.5Q261 28 392 28Q446 28 493.5 44Q541 60 579 91Q620 124 644 170Q668 216 670 263H421Q415 263 410.5 267.5Q406 272 406 278V287Q406 293 410.5 297.5Q415 302 421 302H699Q705 302 709.5 297.5Q714 293 714 287V15Q714 9 709.5 4.5Q705 0 699 0H687Q681 0 676.5 4.5Q672 9 672 15V159Q651 90 571.5 39Q492 -12 387 -12Q240 -12 142 91Q44 194 44 350Z" glyph-name="G" horiz-adv-x="773" unicode="G" /><glyph d="M44 350Q44 504 146 608Q248 712 396 712Q461 712 520.5 690.5Q580 669 627 629Q660 600 684 565.5Q708 531 721 492Q723 486 720 482Q717 478 711 478H690Q684 478 680.5 481Q677 484 674 492Q660 525 640 553Q620 581 594 603Q554 637 504 654.5Q454 672 396 672Q265 672 177.5 580Q90 488 90 350Q90 211 175.5 119.5Q261 28 392 28Q446 28 493.5 44Q541 60 579 91Q620 124 644 170Q668 216 670 263H421Q415 263 410.5 267.5Q406 272 406 278V287Q406 293 410.5 297.5Q415 302 421 302H699Q705 302 709.5 297.5Q714 293 714 287V15Q714 9 709.5 4.5Q705 0 699 0H687Q681 0 676.5 4.5Q672 9 672 15V159Q651 90 571.5 39Q492 -12 387 -12Q240 -12 142 91Q44 194 44 350ZM393 762Q347 762 319 787Q291 812 291 853V858Q291 863 294 866Q297 869 302 869H318Q323 869 326 866Q329 863 329 858V856Q329 829 346.5 813.5Q364 798 393 798Q422 798 439.5 813.5Q457 829 457 856V858Q457 863 460 866Q463 869 468 869H484Q489 869 492 866Q495 863 495 858V853Q495 812 467 787Q439 762 393 762Z" glyph-name="Gbreve" horiz-adv-x="773" unicode="&#286;" /><glyph d="M44 350Q44 504 146 608Q248 712 396 712Q461 712 520.5 690.5Q580 669 627 629Q660 600 684 565.5Q708 531 721 492Q723 486 720 482Q717 478 711 478H690Q684 478 680.5 481Q677 484 674 492Q660 525 640 553Q620 581 594 603Q554 637 504 654.5Q454 672 396 672Q265 672 177.5 580Q90 488 90 350Q90 211 175.5 119.5Q261 28 392 28Q446 28 493.5 44Q541 60 579 91Q620 124 644 170Q668 216 670 263H421Q415 263 410.5 267.5Q406 272 406 278V287Q406 293 410.5 297.5Q415 302 421 302H699Q705 302 709.5 297.5Q714 293 714 287V15Q714 9 709.5 4.5Q705 0 699 0H687Q681 0 676.5 4.5Q672 9 672 15V159Q651 90 571.5 39Q492 -12 387 -12Q240 -12 142 91Q44 194 44 350ZM390 920H399Q407 920 412 917.5Q417 915 422 907L511 780Q514 776 511.5 771.5Q509 767 504 767H487Q481 767 476.5 769Q472 771 468 777L394 876L320 777Q315 771 311 769Q307 767 301 767H284Q278 767 275.5 771.5Q273 776 277 780L366 907Q370 915 375.5 917.5Q381 920 390 920Z" glyph-name="Gcircumflex" horiz-adv-x="773" unicode="&#284;" /><glyph d="M44 350Q44 504 146 608Q248 712 396 712Q461 712 520.5 690.5Q580 669 627 629Q660 600 684 565.5Q708 531 721 492Q723 486 720 482Q717 478 711 478H690Q684 478 680.5 481Q677 484 674 492Q660 525 640 553Q620 581 594 603Q554 637 504 654.5Q454 672 396 672Q265 672 177.5 580Q90 488 90 350Q90 211 175.5 119.5Q261 28 392 28Q446 28 493.5 44Q541 60 579 91Q620 124 644 170Q668 216 670 263H421Q415 263 410.5 267.5Q406 272 406 278V287Q406 293 410.5 297.5Q415 302 421 302H699Q705 302 709.5 297.5Q714 293 714 287V15Q714 9 709.5 4.5Q705 0 699 0H687Q681 0 676.5 4.5Q672 9 672 15V159Q651 90 571.5 39Q492 -12 387 -12Q240 -12 142 91Q44 194 44 350ZM346 -222 381 -149Q364 -144 353.5 -130.5Q343 -117 343 -100Q343 -79 357.5 -64.5Q372 -50 393 -50Q414 -50 428.5 -65.5Q443 -81 443 -102Q443 -123 431 -149.5Q419 -176 382 -226Q375 -236 370.5 -238Q366 -240 362 -238L354 -234Q348 -231 346.5 -228.5Q345 -226 346 -222Z" glyph-name="Gcommaaccent" horiz-adv-x="773" unicode="&#290;" /><glyph d="M44 350Q44 504 146 608Q248 712 396 712Q461 712 520.5 690.5Q580 669 627 629Q660 600 684 565.5Q708 531 721 492Q723 486 720 482Q717 478 711 478H690Q684 478 680.5 481Q677 484 674 492Q660 525 640 553Q620 581 594 603Q554 637 504 654.5Q454 672 396 672Q265 672 177.5 580Q90 488 90 350Q90 211 175.5 119.5Q261 28 392 28Q446 28 493.5 44Q541 60 579 91Q620 124 644 170Q668 216 670 263H421Q415 263 410.5 267.5Q406 272 406 278V287Q406 293 410.5 297.5Q415 302 421 302H699Q705 302 709.5 297.5Q714 293 714 287V15Q714 9 709.5 4.5Q705 0 699 0H687Q681 0 676.5 4.5Q672 9 672 15V159Q651 90 571.5 39Q492 -12 387 -12Q240 -12 142 91Q44 194 44 350ZM439 827Q439 808 425.5 794Q412 780 393 780Q374 780 360.5 794Q347 808 347 827Q347 846 360.5 859.5Q374 873 393 873Q412 873 425.5 859.5Q439 846 439 827Z" glyph-name="Gdotaccent" horiz-adv-x="773" unicode="&#288;" /><glyph d="M660 685V15Q660 9 655.5 4.5Q651 0 645 0H630Q624 0 619.5 4.5Q615 9 615 15V337H141V15Q141 9 136.5 4.5Q132 0 126 0H111Q105 0 100.5 4.5Q96 9 96 15V685Q96 691 100.5 695.5Q105 700 111 700H126Q132 700 136.5 695.5Q141 691 141 685V377H615V685Q615 691 619.5 695.5Q624 700 630 700H645Q651 700 655.5 695.5Q660 691 660 685Z" glyph-name="H" horiz-adv-x="756" unicode="H" /><glyph d="M142 517V377H616V517ZM142 337V15Q142 9 137.5 4.5Q133 0 127 0H112Q106 0 101.5 4.5Q97 9 97 15V517H37Q31 517 26.5 521.5Q22 526 22 532V542Q22 548 26.5 552.5Q31 557 37 557H97V685Q97 691 101.5 695.5Q106 700 112 700H127Q133 700 137.5 695.5Q142 691 142 685V557H616V685Q616 691 620.5 695.5Q625 700 631 700H646Q652 700 656.5 695.5Q661 691 661 685V557H721Q727 557 731.5 552.5Q736 548 736 542V532Q736 526 731.5 521.5Q727 517 721 517H661V15Q661 9 656.5 4.5Q652 0 646 0H631Q625 0 620.5 4.5Q616 9 616 15V337Z" glyph-name="Hbar" horiz-adv-x="758" unicode="&#294;" /><glyph d="M660 685V15Q660 9 655.5 4.5Q651 0 645 0H630Q624 0 619.5 4.5Q615 9 615 15V337H141V15Q141 9 136.5 4.5Q132 0 126 0H111Q105 0 100.5 4.5Q96 9 96 15V685Q96 691 100.5 695.5Q105 700 111 700H126Q132 700 136.5 695.5Q141 691 141 685V377H615V685Q615 691 619.5 695.5Q624 700 630 700H645Q651 700 655.5 695.5Q660 691 660 685ZM375 920H384Q392 920 397 917.5Q402 915 407 907L496 780Q499 776 496.5 771.5Q494 767 489 767H472Q466 767 461.5 769Q457 771 453 777L379 876L305 777Q300 771 296 769Q292 767 286 767H269Q263 767 260.5 771.5Q258 776 262 780L351 907Q355 915 360.5 917.5Q366 920 375 920Z" glyph-name="Hcircumflex" horiz-adv-x="756" unicode="&#292;" /><glyph d="M126 0H111Q105 0 100.5 4.5Q96 9 96 15V685Q96 691 100.5 695.5Q105 700 111 700H126Q132 700 136.5 695.5Q141 691 141 685V15Q141 9 136.5 4.5Q132 0 126 0Z" glyph-name="I" horiz-adv-x="237" unicode="I" /><glyph d="M126 0H111Q105 0 100.5 4.5Q96 9 96 15V685Q96 691 100.5 695.5Q105 700 111 700H126Q132 700 136.5 695.5Q141 691 141 685V15Q141 9 136.5 4.5Q132 0 126 0ZM750 685V225Q750 120 683.5 54Q617 -12 506 -12Q395 -12 329 53Q263 118 263 223V249Q263 255 267.5 259.5Q272 264 278 264H292Q298 264 302.5 259.5Q307 255 307 249V220Q307 133 361.5 80Q416 27 506 27Q596 27 650.5 81.5Q705 136 705 225V685Q705 691 709.5 695.5Q714 700 720 700H735Q741 700 745.5 695.5Q750 691 750 685Z" glyph-name="IJ" horiz-adv-x="837" unicode="&#306;" /><glyph d="M126 0H111Q105 0 100.5 4.5Q96 9 96 15V685Q96 691 100.5 695.5Q105 700 111 700H126Q132 700 136.5 695.5Q141 691 141 685V15Q141 9 136.5 4.5Q132 0 126 0ZM188 920H214Q219 920 221.5 916Q224 912 222 907L152 780Q148 773 144.5 770Q141 767 135 767H119Q114 767 111.5 770.5Q109 774 111 779L167 906Q170 913 175 916.5Q180 920 188 920Z" glyph-name="Iacute" horiz-adv-x="237" unicode="&#205;" /><glyph d="M126 0H111Q105 0 100.5 4.5Q96 9 96 15V685Q96 691 100.5 695.5Q105 700 111 700H126Q132 700 136.5 695.5Q141 691 141 685V15Q141 9 136.5 4.5Q132 0 126 0ZM118 762Q72 762 44 787Q16 812 16 853V858Q16 863 19 866Q22 869 27 869H43Q48 869 51 866Q54 863 54 858V856Q54 829 71.5 813.5Q89 798 118 798Q147 798 164.5 813.5Q182 829 182 856V858Q182 863 185 866Q188 869 193 869H209Q214 869 217 866Q220 863 220 858V853Q220 812 192 787Q164 762 118 762Z" glyph-name="Ibreve" horiz-adv-x="237" unicode="&#300;" /><glyph d="M126 0H111Q105 0 100.5 4.5Q96 9 96 15V685Q96 691 100.5 695.5Q105 700 111 700H126Q132 700 136.5 695.5Q141 691 141 685V15Q141 9 136.5 4.5Q132 0 126 0ZM115 920H124Q132 920 137 917.5Q142 915 147 907L236 780Q239 776 236.5 771.5Q234 767 229 767H212Q206 767 201.5 769Q197 771 193 777L119 876L45 777Q40 771 36 769Q32 767 26 767H9Q3 767 0.5 771.5Q-2 776 2 780L91 907Q95 915 100.5 917.5Q106 920 115 920Z" glyph-name="Icircumflex" horiz-adv-x="237" unicode="&#206;" /><glyph d="M126 0H111Q105 0 100.5 4.5Q96 9 96 15V685Q96 691 100.5 695.5Q105 700 111 700H126Q132 700 136.5 695.5Q141 691 141 685V15Q141 9 136.5 4.5Q132 0 126 0ZM193 765Q176 765 163 778Q150 791 150 808Q150 825 163 838Q176 851 193 851Q210 851 223 838Q236 825 236 808Q236 791 223 778Q210 765 193 765ZM42 765Q25 765 12 778Q-1 791 -1 808Q-1 825 12 838Q25 851 42 851Q59 851 72 838Q85 825 85 808Q85 791 72 778Q59 765 42 765Z" glyph-name="Idieresis" horiz-adv-x="237" unicode="&#207;" /><glyph d="M126 0H111Q105 0 100.5 4.5Q96 9 96 15V685Q96 691 100.5 695.5Q105 700 111 700H126Q132 700 136.5 695.5Q141 691 141 685V15Q141 9 136.5 4.5Q132 0 126 0ZM164 827Q164 808 150.5 794Q137 780 118 780Q99 780 85.5 794Q72 808 72 827Q72 846 85.5 859.5Q99 873 118 873Q137 873 150.5 859.5Q164 846 164 827Z" glyph-name="Idotaccent" horiz-adv-x="237" unicode="&#304;" /><glyph d="M126 0H111Q105 0 100.5 4.5Q96 9 96 15V685Q96 691 100.5 695.5Q105 700 111 700H126Q132 700 136.5 695.5Q141 691 141 685V15Q141 9 136.5 4.5Q132 0 126 0ZM26 920H52Q60 920 65 916.5Q70 913 73 906L129 779Q131 774 128.5 770.5Q126 767 121 767H105Q99 767 95.5 770Q92 773 88 780L18 907Q16 912 18.5 916Q21 920 26 920Z" glyph-name="Igrave" horiz-adv-x="237" unicode="&#204;" /><glyph d="M126 0H111Q105 0 100.5 4.5Q96 9 96 15V685Q96 691 100.5 695.5Q105 700 111 700H126Q132 700 136.5 695.5Q141 691 141 685V15Q141 9 136.5 4.5Q132 0 126 0ZM218 790H18Q12 790 7.5 794.5Q3 799 3 805V812Q3 818 7.5 822.5Q12 827 18 827H218Q224 827 228.5 822.5Q233 818 233 812V805Q233 799 228.5 794.5Q224 790 218 790Z" glyph-name="Imacron" horiz-adv-x="237" unicode="&#298;" /><glyph d="M95 -184Q61 -184 41 -165.5Q21 -147 21 -117Q21 -88 43.5 -54Q66 -20 99 6Q98 7 97 9.5Q96 12 96 15V685Q96 691 100.5 695.5Q105 700 111 700H126Q132 700 136.5 695.5Q141 691 141 685V15Q141 9 136.5 4.5Q132 0 126 0Q100 -28 81.5 -60.5Q63 -93 63 -113Q63 -131 73.5 -141Q84 -151 104 -151Q111 -151 118.5 -150Q126 -149 133 -147Q138 -146 141.5 -149Q145 -152 144 -157L143 -167Q142 -175 127.5 -179.5Q113 -184 95 -184Z" glyph-name="Iogonek" horiz-adv-x="237" unicode="&#302;" /><glyph d="M126 0H111Q105 0 100.5 4.5Q96 9 96 15V685Q96 691 100.5 695.5Q105 700 111 700H126Q132 700 136.5 695.5Q141 691 141 685V15Q141 9 136.5 4.5Q132 0 126 0ZM243 833Q234 809 216.5 795.5Q199 782 176 782Q166 782 151.5 786Q137 790 105 803Q83 812 74 814.5Q65 817 60 817Q49 817 43 812Q37 807 29 793Q25 786 20 784Q15 782 9 785L2 788Q-3 790 -5.5 795.5Q-8 801 -6 806Q3 830 20.5 843.5Q38 857 61 857Q71 857 85.5 853Q100 849 132 836Q154 827 163 824.5Q172 822 177 822Q188 822 194 827Q200 832 208 846Q212 853 217 855Q222 857 228 854L235 851Q240 849 242.5 843.5Q245 838 243 833Z" glyph-name="Itilde" horiz-adv-x="237" unicode="&#296;" /><glyph d="M513 685V225Q513 120 446.5 54Q380 -12 269 -12Q158 -12 92 53Q26 118 26 223V249Q26 255 30.5 259.5Q35 264 41 264H55Q61 264 65.5 259.5Q70 255 70 249V220Q70 133 124.5 80Q179 27 269 27Q359 27 413.5 81.5Q468 136 468 225V685Q468 691 472.5 695.5Q477 700 483 700H498Q504 700 508.5 695.5Q513 691 513 685Z" glyph-name="J" horiz-adv-x="600" unicode="J" /><glyph d="M513 685V225Q513 120 446.5 54Q380 -12 269 -12Q158 -12 92 53Q26 118 26 223V249Q26 255 30.5 259.5Q35 264 41 264H55Q61 264 65.5 259.5Q70 255 70 249V220Q70 133 124.5 80Q179 27 269 27Q359 27 413.5 81.5Q468 136 468 225V685Q468 691 472.5 695.5Q477 700 483 700H498Q504 700 508.5 695.5Q513 691 513 685ZM489 920H498Q506 920 511 917.5Q516 915 521 907L610 780Q613 776 610.5 771.5Q608 767 603 767H586Q580 767 575.5 769Q571 771 567 777L493 876L419 777Q414 771 410 769Q406 767 400 767H383Q377 767 374.5 771.5Q372 776 376 780L465 907Q469 915 474.5 917.5Q480 920 489 920Z" glyph-name="Jcircumflex" horiz-adv-x="600" unicode="&#308;" /><glyph d="M621 689 296 370 615 11Q618 8 616 4Q614 0 610 0H578Q571 0 566.5 2.5Q562 5 556 11L257 348H141V15Q141 9 136.5 4.5Q132 0 126 0H111Q105 0 100.5 4.5Q96 9 96 15V685Q96 691 100.5 695.5Q105 700 111 700H126Q132 700 136.5 695.5Q141 691 141 685V388H257L560 689Q567 696 571 698Q575 700 580 700H616Q621 700 622.5 696Q624 692 621 689Z" glyph-name="K" horiz-adv-x="627" unicode="K" /><glyph d="M101 104H122Q124 104 124.5 102.5Q125 101 124 99L90 53L124 4Q125 2 124 0Q123 -2 121 -2H99Q96 -2 95 -1.5Q94 -1 93 1L68 38H57V2Q57 0 56 -1Q55 -2 53 -2H34Q33 -2 31.5 -0.5Q30 1 30 2V100Q30 102 31.5 103Q33 104 34 104H53Q55 104 56 103Q57 102 57 100V62H67L94 100Q97 103 98 103.5Q99 104 101 104ZM201 76Q196 79 192 80Q188 81 183 81Q171 81 163 72.5Q155 64 155 51Q155 37 163 28.5Q171 20 185 20Q191 20 198 24Q205 28 207 32H183Q182 32 181 33Q180 34 180 36V51Q180 53 181 54Q182 55 183 55H230Q232 55 233 54Q234 53 234 51V2Q234 -1 233 -2Q232 -3 230 -3H215Q213 -3 212 -1.5Q211 0 211 2V11Q207 5 198 0.5Q189 -4 177 -4Q155 -4 140.5 11.5Q126 27 126 51Q126 74 142.5 90Q159 106 182 106Q200 106 213 98.5Q226 91 233 77Q233 74 232 73Q231 72 230 72L211 66Q209 66 208 66.5Q207 67 207 68Q205 72 203.5 73.5Q202 75 201 76Z" glyph-name="KG.alt" horiz-adv-x="0" /><glyph d="M621 689 296 370 615 11Q618 8 616 4Q614 0 610 0H578Q571 0 566.5 2.5Q562 5 556 11L257 348H141V15Q141 9 136.5 4.5Q132 0 126 0H111Q105 0 100.5 4.5Q96 9 96 15V685Q96 691 100.5 695.5Q105 700 111 700H126Q132 700 136.5 695.5Q141 691 141 685V388H257L560 689Q567 696 571 698Q575 700 580 700H616Q621 700 622.5 696Q624 692 621 689ZM266 -222 301 -149Q284 -144 273.5 -130.5Q263 -117 263 -100Q263 -79 277.5 -64.5Q292 -50 313 -50Q334 -50 348.5 -65.5Q363 -81 363 -102Q363 -123 351 -149.5Q339 -176 302 -226Q295 -236 290.5 -238Q286 -240 282 -238L274 -234Q268 -231 266.5 -228.5Q265 -226 266 -222Z" glyph-name="Kcommaaccent" horiz-adv-x="627" unicode="&#310;" /><glyph d="M523 27V15Q523 9 518.5 4.5Q514 0 508 0H111Q105 0 100.5 4.5Q96 9 96 15V685Q96 691 100.5 695.5Q105 700 111 700H126Q132 700 136.5 695.5Q141 691 141 685V42H508Q514 42 518.5 37.5Q523 33 523 27Z" glyph-name="L" horiz-adv-x="534" unicode="L" /><glyph d="M523 27V15Q523 9 518.5 4.5Q514 0 508 0H111Q105 0 100.5 4.5Q96 9 96 15V685Q96 691 100.5 695.5Q105 700 111 700H126Q132 700 136.5 695.5Q141 691 141 685V42H508Q514 42 518.5 37.5Q523 33 523 27ZM184 920H210Q215 920 217.5 916Q220 912 218 907L148 780Q144 773 140.5 770Q137 767 131 767H115Q110 767 107.5 770.5Q105 774 107 779L163 906Q166 913 171 916.5Q176 920 184 920Z" glyph-name="Lacute" horiz-adv-x="534" unicode="&#313;" /><glyph d="M347 528 382 601Q365 606 354.5 619.5Q344 633 344 650Q344 671 358.5 685.5Q373 700 394 700Q415 700 429.5 684.5Q444 669 444 648Q444 627 432 600.5Q420 574 383 524Q376 514 371.5 512Q367 510 363 512L355 516Q349 519 347.5 521.5Q346 524 347 528ZM523 27V15Q523 9 518.5 4.5Q514 0 508 0H111Q105 0 100.5 4.5Q96 9 96 15V685Q96 691 100.5 695.5Q105 700 111 700H126Q132 700 136.5 695.5Q141 691 141 685V42H508Q514 42 518.5 37.5Q523 33 523 27Z" glyph-name="Lcaron" horiz-adv-x="535" unicode="&#317;" /><glyph d="M523 27V15Q523 9 518.5 4.5Q514 0 508 0H111Q105 0 100.5 4.5Q96 9 96 15V685Q96 691 100.5 695.5Q105 700 111 700H126Q132 700 136.5 695.5Q141 691 141 685V42H508Q514 42 518.5 37.5Q523 33 523 27ZM256 -222 291 -149Q274 -144 263.5 -130.5Q253 -117 253 -100Q253 -79 267.5 -64.5Q282 -50 303 -50Q324 -50 338.5 -65.5Q353 -81 353 -102Q353 -123 341 -149.5Q329 -176 292 -226Q285 -236 280.5 -238Q276 -240 272 -238L264 -234Q258 -231 256.5 -228.5Q255 -226 256 -222Z" glyph-name="Lcommaaccent" horiz-adv-x="534" unicode="&#315;" /><glyph d="M523 27V15Q523 9 518.5 4.5Q514 0 508 0H111Q105 0 100.5 4.5Q96 9 96 15V685Q96 691 100.5 695.5Q105 700 111 700H126Q132 700 136.5 695.5Q141 691 141 685V42H508Q514 42 518.5 37.5Q523 33 523 27ZM406 357Q406 334 389.5 317.5Q373 301 350 301Q327 301 310.5 317.5Q294 334 294 357Q294 380 310.5 396.5Q327 413 350 413Q373 413 389.5 396.5Q406 380 406 357Z" glyph-name="Ldot" horiz-adv-x="545" unicode="&#319;" /><glyph d="M508 0H111Q105 0 100.5 4.5Q96 9 96 15V275L54 260Q48 258 44 261Q40 264 40 270V279Q40 287 43.5 291.5Q47 296 54 299L96 314V685Q96 691 100.5 695.5Q105 700 111 700H126Q132 700 136.5 695.5Q141 691 141 685V330L367 412Q372 414 376.5 411Q381 408 381 403V390Q381 383 377.5 378.5Q374 374 367 372L141 291V42H508Q514 42 518.5 37.5Q523 33 523 27V15Q523 9 518.5 4.5Q514 0 508 0Z" glyph-name="Lslash" horiz-adv-x="534" unicode="&#321;" /><glyph d="M448 100H436Q429 100 423 103.5Q417 107 414 113L141 655V15Q141 9 136.5 4.5Q132 0 126 0H111Q105 0 100.5 4.5Q96 9 96 15V685Q96 691 100.5 695.5Q105 700 111 700H154Q161 700 167 696.5Q173 693 176 687L443 149L710 687Q713 693 719 696.5Q725 700 732 700H773Q779 700 783.5 695.5Q788 691 788 685V15Q788 9 783.5 4.5Q779 0 773 0H758Q752 0 747.5 4.5Q743 9 743 15V655L470 113Q467 107 461 103.5Q455 100 448 100Z" glyph-name="M" horiz-adv-x="883" unicode="M" /><glyph d="M563 12 141 635V15Q141 9 136.5 4.5Q132 0 126 0H111Q105 0 100.5 4.5Q96 9 96 15V685Q96 691 100.5 695.5Q105 700 111 700H133Q142 700 147.5 697Q153 694 157 688L579 65V685Q579 691 583.5 695.5Q588 700 594 700H609Q615 700 619.5 695.5Q624 691 624 685V15Q624 9 619.5 4.5Q615 0 609 0H587Q578 0 572.5 3Q567 6 563 12Z" glyph-name="N" horiz-adv-x="720" unicode="N" /><glyph d="M563 12 141 635V15Q141 9 136.5 4.5Q132 0 126 0H111Q105 0 100.5 4.5Q96 9 96 15V685Q96 691 100.5 695.5Q105 700 111 700H133Q142 700 147.5 697Q153 694 157 688L579 65V685Q579 691 583.5 695.5Q588 700 594 700H609Q615 700 619.5 695.5Q624 691 624 685V15Q624 9 619.5 4.5Q615 0 609 0H587Q578 0 572.5 3Q567 6 563 12ZM430 920H456Q461 920 463.5 916Q466 912 464 907L394 780Q390 773 386.5 770Q383 767 377 767H361Q356 767 353.5 770.5Q351 774 353 779L409 906Q412 913 417 916.5Q422 920 430 920Z" glyph-name="Nacute" horiz-adv-x="720" unicode="&#323;" /><glyph d="M563 12 141 635V15Q141 9 136.5 4.5Q132 0 126 0H111Q105 0 100.5 4.5Q96 9 96 15V685Q96 691 100.5 695.5Q105 700 111 700H133Q142 700 147.5 697Q153 694 157 688L579 65V685Q579 691 583.5 695.5Q588 700 594 700H609Q615 700 619.5 695.5Q624 691 624 685V15Q624 9 619.5 4.5Q615 0 609 0H587Q578 0 572.5 3Q567 6 563 12ZM366 767H357Q348 767 342.5 769.5Q337 772 333 780L244 907Q240 911 242.5 915.5Q245 920 251 920H268Q274 920 278 918Q282 916 287 910L361 811L435 910Q439 916 443.5 918Q448 920 454 920H471Q476 920 478.5 915.5Q481 911 478 907L389 780Q384 772 379 769.5Q374 767 366 767Z" glyph-name="Ncaron" horiz-adv-x="720" unicode="&#327;" /><glyph d="M563 12 141 635V15Q141 9 136.5 4.5Q132 0 126 0H111Q105 0 100.5 4.5Q96 9 96 15V685Q96 691 100.5 695.5Q105 700 111 700H133Q142 700 147.5 697Q153 694 157 688L579 65V685Q579 691 583.5 695.5Q588 700 594 700H609Q615 700 619.5 695.5Q624 691 624 685V15Q624 9 619.5 4.5Q615 0 609 0H587Q578 0 572.5 3Q567 6 563 12ZM313 -222 348 -149Q331 -144 320.5 -130.5Q310 -117 310 -100Q310 -79 324.5 -64.5Q339 -50 360 -50Q381 -50 395.5 -65.5Q410 -81 410 -102Q410 -123 398 -149.5Q386 -176 349 -226Q342 -236 337.5 -238Q333 -240 329 -238L321 -234Q315 -231 313.5 -228.5Q312 -226 313 -222Z" glyph-name="Ncommaaccent" horiz-adv-x="720" unicode="&#325;" /><glyph d="M563 12 141 635V15Q141 9 136.5 4.5Q132 0 126 0H111Q105 0 100.5 4.5Q96 9 96 15V685Q96 691 100.5 695.5Q105 700 111 700H133Q142 700 147.5 697Q153 694 157 688L579 65V685Q579 691 583.5 695.5Q588 700 594 700H609Q615 700 619.5 695.5Q624 691 624 685V15Q624 9 619.5 4.5Q615 0 609 0H587Q578 0 572.5 3Q567 6 563 12ZM485 833Q476 809 458.5 795.5Q441 782 418 782Q408 782 393.5 786Q379 790 347 803Q325 812 316 814.5Q307 817 302 817Q291 817 285 812Q279 807 271 793Q267 786 262 784Q257 782 251 785L244 788Q239 790 236.5 795.5Q234 801 236 806Q245 830 262.5 843.5Q280 857 303 857Q313 857 327.5 853Q342 849 374 836Q396 827 405 824.5Q414 822 419 822Q430 822 436 827Q442 832 450 846Q454 853 459 855Q464 857 470 854L477 851Q482 849 484.5 843.5Q487 838 485 833Z" glyph-name="Ntilde" horiz-adv-x="720" unicode="&#209;" /><glyph d="M393 712Q540 712 641 608.5Q742 505 742 350Q742 195 641 91.5Q540 -12 393 -12Q246 -12 145 91.5Q44 195 44 350Q44 505 145 608.5Q246 712 393 712ZM393 28Q524 28 610 119.5Q696 211 696 350Q696 489 610 580.5Q524 672 393 672Q262 672 176 580.5Q90 489 90 350Q90 211 176 119.5Q262 28 393 28Z" glyph-name="O" horiz-adv-x="786" unicode="O" /><glyph d="M393 28Q524 28 610 119.5Q696 211 696 350Q696 489 610 580.5Q524 672 393 672Q262 672 176 580.5Q90 489 90 350Q90 211 176 119.5Q262 28 393 28ZM692 15V172Q649 86 570 37Q491 -12 393 -12Q246 -12 145 91.5Q44 195 44 350Q44 505 145 608.5Q246 712 393 712Q491 712 570 663Q649 614 692 528V685Q692 691 696.5 695.5Q701 700 707 700H1154Q1160 700 1164.5 695.5Q1169 691 1169 685V673Q1169 667 1164.5 662.5Q1160 658 1154 658H737V376H950Q956 376 960.5 371.5Q965 367 965 361V351Q965 345 960.5 340.5Q956 336 950 336H737V42H1154Q1160 42 1164.5 37.5Q1169 33 1169 27V15Q1169 9 1164.5 4.5Q1160 0 1154 0H707Q701 0 696.5 4.5Q692 9 692 15Z" glyph-name="OE" horiz-adv-x="1199" unicode="&#338;" /><glyph d="M393 712Q540 712 641 608.5Q742 505 742 350Q742 195 641 91.5Q540 -12 393 -12Q246 -12 145 91.5Q44 195 44 350Q44 505 145 608.5Q246 712 393 712ZM393 28Q524 28 610 119.5Q696 211 696 350Q696 489 610 580.5Q524 672 393 672Q262 672 176 580.5Q90 489 90 350Q90 211 176 119.5Q262 28 393 28ZM463 920H489Q494 920 496.5 916Q499 912 497 907L427 780Q423 773 419.5 770Q416 767 410 767H394Q389 767 386.5 770.5Q384 774 386 779L442 906Q445 913 450 916.5Q455 920 463 920Z" glyph-name="Oacute" horiz-adv-x="786" unicode="&#211;" /><glyph d="M393 712Q540 712 641 608.5Q742 505 742 350Q742 195 641 91.5Q540 -12 393 -12Q246 -12 145 91.5Q44 195 44 350Q44 505 145 608.5Q246 712 393 712ZM393 28Q524 28 610 119.5Q696 211 696 350Q696 489 610 580.5Q524 672 393 672Q262 672 176 580.5Q90 489 90 350Q90 211 176 119.5Q262 28 393 28ZM393 762Q347 762 319 787Q291 812 291 853V858Q291 863 294 866Q297 869 302 869H318Q323 869 326 866Q329 863 329 858V856Q329 829 346.5 813.5Q364 798 393 798Q422 798 439.5 813.5Q457 829 457 856V858Q457 863 460 866Q463 869 468 869H484Q489 869 492 866Q495 863 495 858V853Q495 812 467 787Q439 762 393 762Z" glyph-name="Obreve" horiz-adv-x="786" unicode="&#334;" /><glyph d="M393 712Q540 712 641 608.5Q742 505 742 350Q742 195 641 91.5Q540 -12 393 -12Q246 -12 145 91.5Q44 195 44 350Q44 505 145 608.5Q246 712 393 712ZM393 28Q524 28 610 119.5Q696 211 696 350Q696 489 610 580.5Q524 672 393 672Q262 672 176 580.5Q90 489 90 350Q90 211 176 119.5Q262 28 393 28ZM390 920H399Q407 920 412 917.5Q417 915 422 907L511 780Q514 776 511.5 771.5Q509 767 504 767H487Q481 767 476.5 769Q472 771 468 777L394 876L320 777Q315 771 311 769Q307 767 301 767H284Q278 767 275.5 771.5Q273 776 277 780L366 907Q370 915 375.5 917.5Q381 920 390 920Z" glyph-name="Ocircumflex" horiz-adv-x="786" unicode="&#212;" /><glyph d="M393 712Q540 712 641 608.5Q742 505 742 350Q742 195 641 91.5Q540 -12 393 -12Q246 -12 145 91.5Q44 195 44 350Q44 505 145 608.5Q246 712 393 712ZM393 28Q524 28 610 119.5Q696 211 696 350Q696 489 610 580.5Q524 672 393 672Q262 672 176 580.5Q90 489 90 350Q90 211 176 119.5Q262 28 393 28ZM468 765Q451 765 438 778Q425 791 425 808Q425 825 438 838Q451 851 468 851Q485 851 498 838Q511 825 511 808Q511 791 498 778Q485 765 468 765ZM317 765Q300 765 287 778Q274 791 274 808Q274 825 287 838Q300 851 317 851Q334 851 347 838Q360 825 360 808Q360 791 347 778Q334 765 317 765Z" glyph-name="Odieresis" horiz-adv-x="786" unicode="&#214;" /><glyph d="M393 712Q540 712 641 608.5Q742 505 742 350Q742 195 641 91.5Q540 -12 393 -12Q246 -12 145 91.5Q44 195 44 350Q44 505 145 608.5Q246 712 393 712ZM393 28Q524 28 610 119.5Q696 211 696 350Q696 489 610 580.5Q524 672 393 672Q262 672 176 580.5Q90 489 90 350Q90 211 176 119.5Q262 28 393 28ZM301 920H327Q335 920 340 916.5Q345 913 348 906L404 779Q406 774 403.5 770.5Q401 767 396 767H380Q374 767 370.5 770Q367 773 363 780L293 907Q291 912 293.5 916Q296 920 301 920Z" glyph-name="Ograve" horiz-adv-x="786" unicode="&#210;" /><glyph d="M393 712Q540 712 641 608.5Q742 505 742 350Q742 195 641 91.5Q540 -12 393 -12Q246 -12 145 91.5Q44 195 44 350Q44 505 145 608.5Q246 712 393 712ZM393 28Q524 28 610 119.5Q696 211 696 350Q696 489 610 580.5Q524 672 393 672Q262 672 176 580.5Q90 489 90 350Q90 211 176 119.5Q262 28 393 28ZM531 920H557Q562 920 564.5 916Q567 912 565 907L495 780Q491 773 487.5 770Q484 767 478 767H462Q457 767 454.5 770.5Q452 774 454 779L510 906Q513 913 518 916.5Q523 920 531 920ZM395 920H421Q426 920 428.5 916Q431 912 429 907L359 780Q355 773 351.5 770Q348 767 342 767H326Q321 767 318.5 770.5Q316 774 318 779L374 906Q377 913 382 916.5Q387 920 395 920Z" glyph-name="Ohungarumlaut" horiz-adv-x="786" unicode="&#336;" /><glyph d="M393 712Q540 712 641 608.5Q742 505 742 350Q742 195 641 91.5Q540 -12 393 -12Q246 -12 145 91.5Q44 195 44 350Q44 505 145 608.5Q246 712 393 712ZM393 28Q524 28 610 119.5Q696 211 696 350Q696 489 610 580.5Q524 672 393 672Q262 672 176 580.5Q90 489 90 350Q90 211 176 119.5Q262 28 393 28ZM493 790H293Q287 790 282.5 794.5Q278 799 278 805V812Q278 818 282.5 822.5Q287 827 293 827H493Q499 827 503.5 822.5Q508 818 508 812V805Q508 799 503.5 794.5Q499 790 493 790Z" glyph-name="Omacron" horiz-adv-x="786" unicode="&#332;" /><glyph d="M50 444Q50 564 130.5 638Q211 712 336 712Q461 712 541.5 638Q622 564 622 444Q622 351 575 285.5Q528 220 444 192V43H573Q579 43 583.5 38.5Q588 34 588 28V15Q588 9 583.5 4.5Q579 0 573 0H415Q409 0 404.5 4.5Q400 9 400 15V196Q400 203 404 208.5Q408 214 414 216Q498 247 539 303Q580 359 580 443Q580 547 510.5 610Q441 673 336 673Q231 673 161.5 610Q92 547 92 443Q92 359 133 303Q174 247 258 216Q264 214 268 208.5Q272 203 272 196V15Q272 9 267.5 4.5Q263 0 257 0H99Q93 0 88.5 4.5Q84 9 84 15V28Q84 34 88.5 38.5Q93 43 99 43H228V192Q144 220 97 285.5Q50 351 50 444Z" glyph-name="Omega" horiz-adv-x="672" unicode="&#8486;" /><glyph d="M393 712Q540 712 641 608.5Q742 505 742 350Q742 195 641 91.5Q540 -12 393 -12Q246 -12 145 91.5Q44 195 44 350Q44 505 145 608.5Q246 712 393 712ZM696 350Q696 483 616.5 573.5Q537 664 414 671V29Q537 36 616.5 126.5Q696 217 696 350ZM90 350Q90 217 169.5 126.5Q249 36 372 29V671Q249 664 169.5 573.5Q90 483 90 350Z" glyph-name="Oslash" horiz-adv-x="786" unicode="&#216;" /><glyph d="M393 712Q540 712 641 608.5Q742 505 742 350Q742 195 641 91.5Q540 -12 393 -12Q246 -12 145 91.5Q44 195 44 350Q44 505 145 608.5Q246 712 393 712ZM393 28Q524 28 610 119.5Q696 211 696 350Q696 489 610 580.5Q524 672 393 672Q262 672 176 580.5Q90 489 90 350Q90 211 176 119.5Q262 28 393 28ZM518 833Q509 809 491.5 795.5Q474 782 451 782Q441 782 426.5 786Q412 790 380 803Q358 812 349 814.5Q340 817 335 817Q324 817 318 812Q312 807 304 793Q300 786 295 784Q290 782 284 785L277 788Q272 790 269.5 795.5Q267 801 269 806Q278 830 295.5 843.5Q313 857 336 857Q346 857 360.5 853Q375 849 407 836Q429 827 438 824.5Q447 822 452 822Q463 822 469 827Q475 832 483 846Q487 853 492 855Q497 857 503 854L510 851Q515 849 517.5 843.5Q520 838 518 833Z" glyph-name="Otilde" horiz-adv-x="786" unicode="&#213;" /><glyph d="M141 278V15Q141 9 136.5 4.5Q132 0 126 0H111Q105 0 100.5 4.5Q96 9 96 15V685Q96 691 100.5 695.5Q105 700 111 700H341Q455 700 520 642.5Q585 585 585 489Q585 393 520 335.5Q455 278 341 278ZM141 661V317H346Q433 317 486 363.5Q539 410 539 489Q539 568 486 614.5Q433 661 346 661Z" glyph-name="P" horiz-adv-x="611" unicode="P" /><glyph d="M90 350Q90 211 176 119.5Q262 28 393 28Q453 28 506 49Q559 70 600 109L394 295Q389 299 389 305Q389 311 393 315L401 323Q405 327 410.5 327.5Q416 328 421 324L627 139Q661 182 678.5 236Q696 290 696 350Q696 489 610 580.5Q524 672 393 672Q262 672 176 580.5Q90 489 90 350ZM724 -3 631 81Q583 36 522 12Q461 -12 393 -12Q246 -12 145 91.5Q44 195 44 350Q44 505 145 608.5Q246 712 393 712Q540 712 641 608.5Q742 505 742 350Q742 282 720.5 221Q699 160 658 110L752 26Q757 22 757 16Q757 10 753 6L745 -2Q740 -7 734.5 -7Q729 -7 724 -3Z" glyph-name="Q" horiz-adv-x="786" unicode="Q" /><glyph d="M141 351H393Q475 351 523.5 393.5Q572 436 572 506Q572 576 523.5 618Q475 660 393 660H141ZM623 0H600Q594 0 589 3Q584 6 581 13L410 311H141V15Q141 9 136.5 4.5Q132 0 126 0H111Q105 0 100.5 4.5Q96 9 96 15V685Q96 691 100.5 695.5Q105 700 111 700H384Q492 700 555 648Q618 596 618 507Q618 436 576 386Q534 336 455 318L632 13Q634 8 631.5 4Q629 0 623 0Z" glyph-name="R" horiz-adv-x="672" unicode="R" /><glyph d="M141 351H393Q475 351 523.5 393.5Q572 436 572 506Q572 576 523.5 618Q475 660 393 660H141ZM623 0H600Q594 0 589 3Q584 6 581 13L410 311H141V15Q141 9 136.5 4.5Q132 0 126 0H111Q105 0 100.5 4.5Q96 9 96 15V685Q96 691 100.5 695.5Q105 700 111 700H384Q492 700 555 648Q618 596 618 507Q618 436 576 386Q534 336 455 318L632 13Q634 8 631.5 4Q629 0 623 0ZM408 920H434Q439 920 441.5 916Q444 912 442 907L372 780Q368 773 364.5 770Q361 767 355 767H339Q334 767 331.5 770.5Q329 774 331 779L387 906Q390 913 395 916.5Q400 920 408 920Z" glyph-name="Racute" horiz-adv-x="672" unicode="&#340;" /><glyph d="M141 351H393Q475 351 523.5 393.5Q572 436 572 506Q572 576 523.5 618Q475 660 393 660H141ZM623 0H600Q594 0 589 3Q584 6 581 13L410 311H141V15Q141 9 136.5 4.5Q132 0 126 0H111Q105 0 100.5 4.5Q96 9 96 15V685Q96 691 100.5 695.5Q105 700 111 700H384Q492 700 555 648Q618 596 618 507Q618 436 576 386Q534 336 455 318L632 13Q634 8 631.5 4Q629 0 623 0ZM344 767H335Q326 767 320.5 769.5Q315 772 311 780L222 907Q218 911 220.5 915.5Q223 920 229 920H246Q252 920 256 918Q260 916 265 910L339 811L413 910Q417 916 421.5 918Q426 920 432 920H449Q454 920 456.5 915.5Q459 911 456 907L367 780Q362 772 357 769.5Q352 767 344 767Z" glyph-name="Rcaron" horiz-adv-x="672" unicode="&#344;" /><glyph d="M141 351H393Q475 351 523.5 393.5Q572 436 572 506Q572 576 523.5 618Q475 660 393 660H141ZM623 0H600Q594 0 589 3Q584 6 581 13L410 311H141V15Q141 9 136.5 4.5Q132 0 126 0H111Q105 0 100.5 4.5Q96 9 96 15V685Q96 691 100.5 695.5Q105 700 111 700H384Q492 700 555 648Q618 596 618 507Q618 436 576 386Q534 336 455 318L632 13Q634 8 631.5 4Q629 0 623 0ZM291 -222 326 -149Q309 -144 298.5 -130.5Q288 -117 288 -100Q288 -79 302.5 -64.5Q317 -50 338 -50Q359 -50 373.5 -65.5Q388 -81 388 -102Q388 -123 376 -149.5Q364 -176 327 -226Q320 -236 315.5 -238Q311 -240 307 -238L299 -234Q293 -231 291.5 -228.5Q290 -226 291 -222Z" glyph-name="Rcommaaccent" horiz-adv-x="672" unicode="&#342;" /><glyph d="M62 526Q62 607 130 659.5Q198 712 302 712Q351 712 394.5 701Q438 690 475 668Q496 655 511.5 642Q527 629 539 614Q543 609 542.5 604Q542 599 537 595L527 587Q520 582 514.5 583Q509 584 503 591Q493 602 481.5 612Q470 622 458 630Q424 652 385 663Q346 674 302 674Q217 674 162 633.5Q107 593 107 528Q107 477 138 446.5Q169 416 236 398L397 354Q478 332 517 289.5Q556 247 556 180Q556 97 486 42.5Q416 -12 300 -12Q216 -12 145.5 21.5Q75 55 39 108Q36 113 37 119Q38 125 43 128L55 136Q61 140 66.5 138.5Q72 137 77 131Q114 82 172.5 54Q231 26 301 26Q396 26 453.5 69.5Q511 113 511 178Q511 231 480.5 264Q450 297 383 315L219 360Q140 381 101 422Q62 463 62 526Z" glyph-name="S" horiz-adv-x="598" unicode="S" /><glyph d="M62 526Q62 607 130 659.5Q198 712 302 712Q351 712 394.5 701Q438 690 475 668Q496 655 511.5 642Q527 629 539 614Q543 609 542.5 604Q542 599 537 595L527 587Q520 582 514.5 583Q509 584 503 591Q493 602 481.5 612Q470 622 458 630Q424 652 385 663Q346 674 302 674Q217 674 162 633.5Q107 593 107 528Q107 477 138 446.5Q169 416 236 398L397 354Q478 332 517 289.5Q556 247 556 180Q556 97 486 42.5Q416 -12 300 -12Q216 -12 145.5 21.5Q75 55 39 108Q36 113 37 119Q38 125 43 128L55 136Q61 140 66.5 138.5Q72 137 77 131Q114 82 172.5 54Q231 26 301 26Q396 26 453.5 69.5Q511 113 511 178Q511 231 480.5 264Q450 297 383 315L219 360Q140 381 101 422Q62 463 62 526ZM367 920H393Q398 920 400.5 916Q403 912 401 907L331 780Q327 773 323.5 770Q320 767 314 767H298Q293 767 290.5 770.5Q288 774 290 779L346 906Q349 913 354 916.5Q359 920 367 920Z" glyph-name="Sacute" horiz-adv-x="598" unicode="&#346;" /><glyph d="M62 526Q62 607 130 659.5Q198 712 302 712Q351 712 394.5 701Q438 690 475 668Q496 655 511.5 642Q527 629 539 614Q543 609 542.5 604Q542 599 537 595L527 587Q520 582 514.5 583Q509 584 503 591Q493 602 481.5 612Q470 622 458 630Q424 652 385 663Q346 674 302 674Q217 674 162 633.5Q107 593 107 528Q107 477 138 446.5Q169 416 236 398L397 354Q478 332 517 289.5Q556 247 556 180Q556 97 486 42.5Q416 -12 300 -12Q216 -12 145.5 21.5Q75 55 39 108Q36 113 37 119Q38 125 43 128L55 136Q61 140 66.5 138.5Q72 137 77 131Q114 82 172.5 54Q231 26 301 26Q396 26 453.5 69.5Q511 113 511 178Q511 231 480.5 264Q450 297 383 315L219 360Q140 381 101 422Q62 463 62 526ZM303 767H294Q285 767 279.5 769.5Q274 772 270 780L181 907Q177 911 179.5 915.5Q182 920 188 920H205Q211 920 215 918Q219 916 224 910L298 811L372 910Q376 916 380.5 918Q385 920 391 920H408Q413 920 415.5 915.5Q418 911 415 907L326 780Q321 772 316 769.5Q311 767 303 767Z" glyph-name="Scaron" horiz-adv-x="598" unicode="&#352;" /><glyph d="M247 -143H231Q225 -143 222.5 -139Q220 -135 223 -129L272 -11Q197 -6 134.5 27Q72 60 39 108Q36 113 37 119Q38 125 43 128L55 136Q61 140 66.5 138.5Q72 137 77 131Q114 82 172.5 54Q231 26 301 26Q396 26 453.5 69.5Q511 113 511 178Q511 231 480.5 264Q450 297 383 315L219 360Q140 381 101 422Q62 463 62 526Q62 607 130 659.5Q198 712 302 712Q351 712 394.5 701Q438 690 475 668Q496 655 511.5 642Q527 629 539 614Q543 609 542.5 604Q542 599 537 595L527 587Q520 582 514.5 583Q509 584 503 591Q493 602 481.5 612Q470 622 458 630Q424 652 385 663Q346 674 302 674Q217 674 162 633.5Q107 593 107 528Q107 477 138 446.5Q169 416 236 398L397 354Q478 332 517 289.5Q556 247 556 180Q556 100 490.5 46Q425 -8 316 -12L264 -129Q260 -137 256.5 -140Q253 -143 247 -143Z" glyph-name="Scedilla" horiz-adv-x="598" unicode="&#350;" /><glyph d="M62 526Q62 607 130 659.5Q198 712 302 712Q351 712 394.5 701Q438 690 475 668Q496 655 511.5 642Q527 629 539 614Q543 609 542.5 604Q542 599 537 595L527 587Q520 582 514.5 583Q509 584 503 591Q493 602 481.5 612Q470 622 458 630Q424 652 385 663Q346 674 302 674Q217 674 162 633.5Q107 593 107 528Q107 477 138 446.5Q169 416 236 398L397 354Q478 332 517 289.5Q556 247 556 180Q556 97 486 42.5Q416 -12 300 -12Q216 -12 145.5 21.5Q75 55 39 108Q36 113 37 119Q38 125 43 128L55 136Q61 140 66.5 138.5Q72 137 77 131Q114 82 172.5 54Q231 26 301 26Q396 26 453.5 69.5Q511 113 511 178Q511 231 480.5 264Q450 297 383 315L219 360Q140 381 101 422Q62 463 62 526ZM294 920H303Q311 920 316 917.5Q321 915 326 907L415 780Q418 776 415.5 771.5Q413 767 408 767H391Q385 767 380.5 769Q376 771 372 777L298 876L224 777Q219 771 215 769Q211 767 205 767H188Q182 767 179.5 771.5Q177 776 181 780L270 907Q274 915 279.5 917.5Q285 920 294 920Z" glyph-name="Scircumflex" horiz-adv-x="598" unicode="&#348;" /><glyph d="M62 526Q62 607 130 659.5Q198 712 302 712Q351 712 394.5 701Q438 690 475 668Q496 655 511.5 642Q527 629 539 614Q543 609 542.5 604Q542 599 537 595L527 587Q520 582 514.5 583Q509 584 503 591Q493 602 481.5 612Q470 622 458 630Q424 652 385 663Q346 674 302 674Q217 674 162 633.5Q107 593 107 528Q107 477 138 446.5Q169 416 236 398L397 354Q478 332 517 289.5Q556 247 556 180Q556 97 486 42.5Q416 -12 300 -12Q216 -12 145.5 21.5Q75 55 39 108Q36 113 37 119Q38 125 43 128L55 136Q61 140 66.5 138.5Q72 137 77 131Q114 82 172.5 54Q231 26 301 26Q396 26 453.5 69.5Q511 113 511 178Q511 231 480.5 264Q450 297 383 315L219 360Q140 381 101 422Q62 463 62 526ZM250 -222 285 -149Q268 -144 257.5 -130.5Q247 -117 247 -100Q247 -79 261.5 -64.5Q276 -50 297 -50Q318 -50 332.5 -65.5Q347 -81 347 -102Q347 -123 335 -149.5Q323 -176 286 -226Q279 -236 274.5 -238Q270 -240 266 -238L258 -234Q252 -231 250.5 -228.5Q249 -226 250 -222Z" glyph-name="Scommaaccent" horiz-adv-x="598" unicode="&#536;" /><glyph d="M13 673V685Q13 691 17.5 695.5Q22 700 28 700H584Q590 700 594.5 695.5Q599 691 599 685V673Q599 667 594.5 662.5Q590 658 584 658H328V15Q328 9 323.5 4.5Q319 0 313 0H298Q292 0 287.5 4.5Q283 9 283 15V658H28Q22 658 17.5 662.5Q13 667 13 673Z" glyph-name="T" horiz-adv-x="612" unicode="T" /><glyph d="M328 358V15Q328 9 323.5 4.5Q319 0 313 0H298Q292 0 287.5 4.5Q283 9 283 15V358H158Q152 358 147.5 362.5Q143 367 143 373V385Q143 391 147.5 395.5Q152 400 158 400H283V658H28Q22 658 17.5 662.5Q13 667 13 673V685Q13 691 17.5 695.5Q22 700 28 700H584Q590 700 594.5 695.5Q599 691 599 685V673Q599 667 594.5 662.5Q590 658 584 658H328V400H454Q460 400 464.5 395.5Q469 391 469 385V373Q469 367 464.5 362.5Q460 358 454 358Z" glyph-name="Tbar" horiz-adv-x="612" unicode="&#358;" /><glyph d="M13 673V685Q13 691 17.5 695.5Q22 700 28 700H584Q590 700 594.5 695.5Q599 691 599 685V673Q599 667 594.5 662.5Q590 658 584 658H328V15Q328 9 323.5 4.5Q319 0 313 0H298Q292 0 287.5 4.5Q283 9 283 15V658H28Q22 658 17.5 662.5Q13 667 13 673ZM313 767H304Q295 767 289.5 769.5Q284 772 280 780L191 907Q187 911 189.5 915.5Q192 920 198 920H215Q221 920 225 918Q229 916 234 910L308 811L382 910Q386 916 390.5 918Q395 920 401 920H418Q423 920 425.5 915.5Q428 911 425 907L336 780Q331 772 326 769.5Q321 767 313 767Z" glyph-name="Tcaron" horiz-adv-x="612" unicode="&#356;" /><glyph d="M13 673V685Q13 691 17.5 695.5Q22 700 28 700H584Q590 700 594.5 695.5Q599 691 599 685V673Q599 667 594.5 662.5Q590 658 584 658H328V15Q328 9 323.5 4.5Q319 0 313 0H298Q292 0 287.5 4.5Q283 9 283 15V658H28Q22 658 17.5 662.5Q13 667 13 673ZM259 -222 294 -149Q277 -144 266.5 -130.5Q256 -117 256 -100Q256 -79 270.5 -64.5Q285 -50 306 -50Q327 -50 341.5 -65.5Q356 -81 356 -102Q356 -123 344 -149.5Q332 -176 295 -226Q288 -236 283.5 -238Q279 -240 275 -238L267 -234Q261 -231 259.5 -228.5Q258 -226 259 -222Z" glyph-name="Tcommaaccent" horiz-adv-x="612" unicode="&#354;" /><glyph d="M126 0H111Q105 0 100.5 4.5Q96 9 96 15V685Q96 691 100.5 695.5Q105 700 111 700H126Q132 700 136.5 695.5Q141 691 141 685V580H341Q455 580 520 522.5Q585 465 585 369Q585 273 520 215.5Q455 158 341 158H141V15Q141 9 136.5 4.5Q132 0 126 0ZM141 541V197H346Q433 197 486 243.5Q539 290 539 369Q539 448 486 494.5Q433 541 346 541Z" glyph-name="Thorn" horiz-adv-x="613" unicode="&#222;" /><glyph d="M615 685V235Q615 122 543 55Q471 -12 351 -12Q231 -12 159 54.5Q87 121 87 233V685Q87 691 91.5 695.5Q96 700 102 700H117Q123 700 127.5 695.5Q132 691 132 685V230Q132 138 193 82.5Q254 27 351 27Q448 27 509.5 82.5Q571 138 571 230V685Q571 691 575.5 695.5Q580 700 586 700H600Q606 700 610.5 695.5Q615 691 615 685Z" glyph-name="U" horiz-adv-x="702" unicode="U" /><glyph d="M615 685V235Q615 122 543 55Q471 -12 351 -12Q231 -12 159 54.5Q87 121 87 233V685Q87 691 91.5 695.5Q96 700 102 700H117Q123 700 127.5 695.5Q132 691 132 685V230Q132 138 193 82.5Q254 27 351 27Q448 27 509.5 82.5Q571 138 571 230V685Q571 691 575.5 695.5Q580 700 586 700H600Q606 700 610.5 695.5Q615 691 615 685ZM421 920H447Q452 920 454.5 916Q457 912 455 907L385 780Q381 773 377.5 770Q374 767 368 767H352Q347 767 344.5 770.5Q342 774 344 779L400 906Q403 913 408 916.5Q413 920 421 920Z" glyph-name="Uacute" horiz-adv-x="702" unicode="&#218;" /><glyph d="M615 685V235Q615 122 543 55Q471 -12 351 -12Q231 -12 159 54.5Q87 121 87 233V685Q87 691 91.5 695.5Q96 700 102 700H117Q123 700 127.5 695.5Q132 691 132 685V230Q132 138 193 82.5Q254 27 351 27Q448 27 509.5 82.5Q571 138 571 230V685Q571 691 575.5 695.5Q580 700 586 700H600Q606 700 610.5 695.5Q615 691 615 685ZM351 762Q305 762 277 787Q249 812 249 853V858Q249 863 252 866Q255 869 260 869H276Q281 869 284 866Q287 863 287 858V856Q287 829 304.5 813.5Q322 798 351 798Q380 798 397.5 813.5Q415 829 415 856V858Q415 863 418 866Q421 869 426 869H442Q447 869 450 866Q453 863 453 858V853Q453 812 425 787Q397 762 351 762Z" glyph-name="Ubreve" horiz-adv-x="702" unicode="&#364;" /><glyph d="M615 685V235Q615 122 543 55Q471 -12 351 -12Q231 -12 159 54.5Q87 121 87 233V685Q87 691 91.5 695.5Q96 700 102 700H117Q123 700 127.5 695.5Q132 691 132 685V230Q132 138 193 82.5Q254 27 351 27Q448 27 509.5 82.5Q571 138 571 230V685Q571 691 575.5 695.5Q580 700 586 700H600Q606 700 610.5 695.5Q615 691 615 685ZM348 920H357Q365 920 370 917.5Q375 915 380 907L469 780Q472 776 469.5 771.5Q467 767 462 767H445Q439 767 434.5 769Q430 771 426 777L352 876L278 777Q273 771 269 769Q265 767 259 767H242Q236 767 233.5 771.5Q231 776 235 780L324 907Q328 915 333.5 917.5Q339 920 348 920Z" glyph-name="Ucircumflex" horiz-adv-x="702" unicode="&#219;" /><glyph d="M615 685V235Q615 122 543 55Q471 -12 351 -12Q231 -12 159 54.5Q87 121 87 233V685Q87 691 91.5 695.5Q96 700 102 700H117Q123 700 127.5 695.5Q132 691 132 685V230Q132 138 193 82.5Q254 27 351 27Q448 27 509.5 82.5Q571 138 571 230V685Q571 691 575.5 695.5Q580 700 586 700H600Q606 700 610.5 695.5Q615 691 615 685ZM426 765Q409 765 396 778Q383 791 383 808Q383 825 396 838Q409 851 426 851Q443 851 456 838Q469 825 469 808Q469 791 456 778Q443 765 426 765ZM275 765Q258 765 245 778Q232 791 232 808Q232 825 245 838Q258 851 275 851Q292 851 305 838Q318 825 318 808Q318 791 305 778Q292 765 275 765Z" glyph-name="Udieresis" horiz-adv-x="702" unicode="&#220;" /><glyph d="M615 685V235Q615 122 543 55Q471 -12 351 -12Q231 -12 159 54.5Q87 121 87 233V685Q87 691 91.5 695.5Q96 700 102 700H117Q123 700 127.5 695.5Q132 691 132 685V230Q132 138 193 82.5Q254 27 351 27Q448 27 509.5 82.5Q571 138 571 230V685Q571 691 575.5 695.5Q580 700 586 700H600Q606 700 610.5 695.5Q615 691 615 685ZM259 920H285Q293 920 298 916.5Q303 913 306 906L362 779Q364 774 361.5 770.5Q359 767 354 767H338Q332 767 328.5 770Q325 773 321 780L251 907Q249 912 251.5 916Q254 920 259 920Z" glyph-name="Ugrave" horiz-adv-x="702" unicode="&#217;" /><glyph d="M615 685V235Q615 122 543 55Q471 -12 351 -12Q231 -12 159 54.5Q87 121 87 233V685Q87 691 91.5 695.5Q96 700 102 700H117Q123 700 127.5 695.5Q132 691 132 685V230Q132 138 193 82.5Q254 27 351 27Q448 27 509.5 82.5Q571 138 571 230V685Q571 691 575.5 695.5Q580 700 586 700H600Q606 700 610.5 695.5Q615 691 615 685ZM461 920H487Q492 920 494.5 916Q497 912 495 907L425 780Q421 773 417.5 770Q414 767 408 767H392Q387 767 384.5 770.5Q382 774 384 779L440 906Q443 913 448 916.5Q453 920 461 920ZM325 920H351Q356 920 358.5 916Q361 912 359 907L289 780Q285 773 281.5 770Q278 767 272 767H256Q251 767 248.5 770.5Q246 774 248 779L304 906Q307 913 312 916.5Q317 920 325 920Z" glyph-name="Uhungarumlaut" horiz-adv-x="702" unicode="&#368;" /><glyph d="M615 685V235Q615 122 543 55Q471 -12 351 -12Q231 -12 159 54.5Q87 121 87 233V685Q87 691 91.5 695.5Q96 700 102 700H117Q123 700 127.5 695.5Q132 691 132 685V230Q132 138 193 82.5Q254 27 351 27Q448 27 509.5 82.5Q571 138 571 230V685Q571 691 575.5 695.5Q580 700 586 700H600Q606 700 610.5 695.5Q615 691 615 685ZM451 790H251Q245 790 240.5 794.5Q236 799 236 805V812Q236 818 240.5 822.5Q245 827 251 827H451Q457 827 461.5 822.5Q466 818 466 812V805Q466 799 461.5 794.5Q457 790 451 790Z" glyph-name="Umacron" horiz-adv-x="702" unicode="&#362;" /><glyph d="M442 -164Q408 -164 388 -145.5Q368 -127 368 -97Q368 -77 379 -53.5Q390 -30 411 -7Q395 -10 380 -11Q365 -12 351 -12Q231 -12 159 54.5Q87 121 87 233V685Q87 691 91.5 695.5Q96 700 102 700H117Q123 700 127.5 695.5Q132 691 132 685V230Q132 138 193 82.5Q254 27 351 27Q448 27 509.5 82.5Q571 138 571 230V685Q571 691 575.5 695.5Q580 700 586 700H600Q606 700 610.5 695.5Q615 691 615 685V235Q615 152 574.5 92Q534 32 461 6Q438 -21 424 -48Q410 -75 410 -93Q410 -111 420.5 -121Q431 -131 451 -131Q458 -131 465.5 -130Q473 -129 480 -127Q485 -126 488.5 -129Q492 -132 491 -137L490 -147Q489 -155 474.5 -159.5Q460 -164 442 -164Z" glyph-name="Uogonek" horiz-adv-x="702" unicode="&#370;" /><glyph d="M615 685V235Q615 122 543 55Q471 -12 351 -12Q231 -12 159 54.5Q87 121 87 233V685Q87 691 91.5 695.5Q96 700 102 700H117Q123 700 127.5 695.5Q132 691 132 685V230Q132 138 193 82.5Q254 27 351 27Q448 27 509.5 82.5Q571 138 571 230V685Q571 691 575.5 695.5Q580 700 586 700H600Q606 700 610.5 695.5Q615 691 615 685ZM351 944Q393 944 422 916Q451 888 452 846Q451 804 422 776Q393 748 351 748Q309 748 280 776Q251 804 250 846Q251 888 280 916Q309 944 351 944ZM351 784Q377 784 394 802Q411 820 411 846Q411 872 394 890Q377 908 351 908Q325 908 308 890Q291 872 291 846Q291 820 308 802Q325 784 351 784Z" glyph-name="Uring" horiz-adv-x="702" unicode="&#366;" /><glyph d="M615 685V235Q615 122 543 55Q471 -12 351 -12Q231 -12 159 54.5Q87 121 87 233V685Q87 691 91.5 695.5Q96 700 102 700H117Q123 700 127.5 695.5Q132 691 132 685V230Q132 138 193 82.5Q254 27 351 27Q448 27 509.5 82.5Q571 138 571 230V685Q571 691 575.5 695.5Q580 700 586 700H600Q606 700 610.5 695.5Q615 691 615 685ZM476 833Q467 809 449.5 795.5Q432 782 409 782Q399 782 384.5 786Q370 790 338 803Q316 812 307 814.5Q298 817 293 817Q282 817 276 812Q270 807 262 793Q258 786 253 784Q248 782 242 785L235 788Q230 790 227.5 795.5Q225 801 227 806Q236 830 253.5 843.5Q271 857 294 857Q304 857 318.5 853Q333 849 365 836Q387 827 396 824.5Q405 822 410 822Q421 822 427 827Q433 832 441 846Q445 853 450 855Q455 857 461 854L468 851Q473 849 475.5 843.5Q478 838 476 833Z" glyph-name="Utilde" horiz-adv-x="702" unicode="&#360;" /><glyph d="M328 0H301Q294 0 289.5 3.5Q285 7 282 14L13 686Q11 692 13.5 696Q16 700 22 700H45Q51 700 55.5 696.5Q60 693 63 686L316 45L568 686Q571 693 575 696.5Q579 700 585 700H606Q612 700 614.5 695.5Q617 691 615 686L347 14Q344 7 339.5 3.5Q335 0 328 0Z" glyph-name="V" horiz-adv-x="628" unicode="V" /><glyph d="M998 686 783 14Q780 7 775 3.5Q770 0 763 0H739Q732 0 727 3.5Q722 7 719 14L510 641L302 14Q299 7 294 3.5Q289 0 282 0H258Q251 0 246 3.5Q241 7 238 14L23 686Q22 691 25 695.5Q28 700 33 700H53Q59 700 63 697Q67 694 69 686L269 49L480 686Q482 692 487.5 696Q493 700 499 700H522Q528 700 533.5 696Q539 692 541 686L752 52L951 686Q954 694 957.5 697Q961 700 967 700H988Q994 700 997 696Q1000 692 998 686Z" glyph-name="W" horiz-adv-x="1019" unicode="W" /><glyph d="M998 686 783 14Q780 7 775 3.5Q770 0 763 0H739Q732 0 727 3.5Q722 7 719 14L510 641L302 14Q299 7 294 3.5Q289 0 282 0H258Q251 0 246 3.5Q241 7 238 14L23 686Q22 691 25 695.5Q28 700 33 700H53Q59 700 63 697Q67 694 69 686L269 49L480 686Q482 692 487.5 696Q493 700 499 700H522Q528 700 533.5 696Q539 692 541 686L752 52L951 686Q954 694 957.5 697Q961 700 967 700H988Q994 700 997 696Q1000 692 998 686ZM579 920H605Q610 920 612.5 916Q615 912 613 907L543 780Q539 773 535.5 770Q532 767 526 767H510Q505 767 502.5 770.5Q500 774 502 779L558 906Q561 913 566 916.5Q571 920 579 920Z" glyph-name="Wacute" horiz-adv-x="1019" unicode="&#7810;" /><glyph d="M998 686 783 14Q780 7 775 3.5Q770 0 763 0H739Q732 0 727 3.5Q722 7 719 14L510 641L302 14Q299 7 294 3.5Q289 0 282 0H258Q251 0 246 3.5Q241 7 238 14L23 686Q22 691 25 695.5Q28 700 33 700H53Q59 700 63 697Q67 694 69 686L269 49L480 686Q482 692 487.5 696Q493 700 499 700H522Q528 700 533.5 696Q539 692 541 686L752 52L951 686Q954 694 957.5 697Q961 700 967 700H988Q994 700 997 696Q1000 692 998 686ZM506 920H515Q523 920 528 917.5Q533 915 538 907L627 780Q630 776 627.5 771.5Q625 767 620 767H603Q597 767 592.5 769Q588 771 584 777L510 876L436 777Q431 771 427 769Q423 767 417 767H400Q394 767 391.5 771.5Q389 776 393 780L482 907Q486 915 491.5 917.5Q497 920 506 920Z" glyph-name="Wcircumflex" horiz-adv-x="1019" unicode="&#372;" /><glyph d="M998 686 783 14Q780 7 775 3.5Q770 0 763 0H739Q732 0 727 3.5Q722 7 719 14L510 641L302 14Q299 7 294 3.5Q289 0 282 0H258Q251 0 246 3.5Q241 7 238 14L23 686Q22 691 25 695.5Q28 700 33 700H53Q59 700 63 697Q67 694 69 686L269 49L480 686Q482 692 487.5 696Q493 700 499 700H522Q528 700 533.5 696Q539 692 541 686L752 52L951 686Q954 694 957.5 697Q961 700 967 700H988Q994 700 997 696Q1000 692 998 686ZM584 765Q567 765 554 778Q541 791 541 808Q541 825 554 838Q567 851 584 851Q601 851 614 838Q627 825 627 808Q627 791 614 778Q601 765 584 765ZM433 765Q416 765 403 778Q390 791 390 808Q390 825 403 838Q416 851 433 851Q450 851 463 838Q476 825 476 808Q476 791 463 778Q450 765 433 765Z" glyph-name="Wdieresis" horiz-adv-x="1019" unicode="&#7812;" /><glyph d="M998 686 783 14Q780 7 775 3.5Q770 0 763 0H739Q732 0 727 3.5Q722 7 719 14L510 641L302 14Q299 7 294 3.5Q289 0 282 0H258Q251 0 246 3.5Q241 7 238 14L23 686Q22 691 25 695.5Q28 700 33 700H53Q59 700 63 697Q67 694 69 686L269 49L480 686Q482 692 487.5 696Q493 700 499 700H522Q528 700 533.5 696Q539 692 541 686L752 52L951 686Q954 694 957.5 697Q961 700 967 700H988Q994 700 997 696Q1000 692 998 686ZM417 920H443Q451 920 456 916.5Q461 913 464 906L520 779Q522 774 519.5 770.5Q517 767 512 767H496Q490 767 486.5 770Q483 773 479 780L409 907Q407 912 409.5 916Q412 920 417 920Z" glyph-name="Wgrave" horiz-adv-x="1019" unicode="&#7808;" /><glyph d="M294 323 65 12Q61 6 56 3Q51 0 45 0H19Q14 0 12 4Q10 8 13 12L269 355L22 688Q20 692 22 696Q24 700 30 700H55Q61 700 66.5 697Q72 694 76 688L298 387L520 688Q524 694 529 697Q534 700 540 700H565Q570 700 572 696.5Q574 693 571 688L323 356L578 12Q581 8 579 4Q577 0 572 0H543Q537 0 532 3Q527 6 523 12Z" glyph-name="X" horiz-adv-x="592" unicode="X" /><glyph d="M278 15V311L18 688Q15 692 17.5 696Q20 700 25 700H52Q58 700 63 697Q68 694 72 688L299 355H303L530 688Q534 695 538.5 697.5Q543 700 549 700H578Q584 700 585.5 696Q587 692 584 688L323 311V15Q323 9 318.5 4.5Q314 0 308 0H293Q287 0 282.5 4.5Q278 9 278 15Z" glyph-name="Y" horiz-adv-x="601" unicode="Y" /><glyph d="M278 15V311L18 688Q15 692 17.5 696Q20 700 25 700H52Q58 700 63 697Q68 694 72 688L299 355H303L530 688Q534 695 538.5 697.5Q543 700 549 700H578Q584 700 585.5 696Q587 692 584 688L323 311V15Q323 9 318.5 4.5Q314 0 308 0H293Q287 0 282.5 4.5Q278 9 278 15ZM370 920H396Q401 920 403.5 916Q406 912 404 907L334 780Q330 773 326.5 770Q323 767 317 767H301Q296 767 293.5 770.5Q291 774 293 779L349 906Q352 913 357 916.5Q362 920 370 920Z" glyph-name="Yacute" horiz-adv-x="601" unicode="&#221;" /><glyph d="M278 15V311L18 688Q15 692 17.5 696Q20 700 25 700H52Q58 700 63 697Q68 694 72 688L299 355H303L530 688Q534 695 538.5 697.5Q543 700 549 700H578Q584 700 585.5 696Q587 692 584 688L323 311V15Q323 9 318.5 4.5Q314 0 308 0H293Q287 0 282.5 4.5Q278 9 278 15ZM297 920H306Q314 920 319 917.5Q324 915 329 907L418 780Q421 776 418.5 771.5Q416 767 411 767H394Q388 767 383.5 769Q379 771 375 777L301 876L227 777Q222 771 218 769Q214 767 208 767H191Q185 767 182.5 771.5Q180 776 184 780L273 907Q277 915 282.5 917.5Q288 920 297 920Z" glyph-name="Ycircumflex" horiz-adv-x="601" unicode="&#374;" /><glyph d="M278 15V311L18 688Q15 692 17.5 696Q20 700 25 700H52Q58 700 63 697Q68 694 72 688L299 355H303L530 688Q534 695 538.5 697.5Q543 700 549 700H578Q584 700 585.5 696Q587 692 584 688L323 311V15Q323 9 318.5 4.5Q314 0 308 0H293Q287 0 282.5 4.5Q278 9 278 15ZM375 765Q358 765 345 778Q332 791 332 808Q332 825 345 838Q358 851 375 851Q392 851 405 838Q418 825 418 808Q418 791 405 778Q392 765 375 765ZM224 765Q207 765 194 778Q181 791 181 808Q181 825 194 838Q207 851 224 851Q241 851 254 838Q267 825 267 808Q267 791 254 778Q241 765 224 765Z" glyph-name="Ydieresis" horiz-adv-x="601" unicode="&#376;" /><glyph d="M278 15V311L18 688Q15 692 17.5 696Q20 700 25 700H52Q58 700 63 697Q68 694 72 688L299 355H303L530 688Q534 695 538.5 697.5Q543 700 549 700H578Q584 700 585.5 696Q587 692 584 688L323 311V15Q323 9 318.5 4.5Q314 0 308 0H293Q287 0 282.5 4.5Q278 9 278 15ZM208 920H234Q242 920 247 916.5Q252 913 255 906L311 779Q313 774 310.5 770.5Q308 767 303 767H287Q281 767 277.5 770Q274 773 270 780L200 907Q198 912 200.5 916Q203 920 208 920Z" glyph-name="Ygrave" horiz-adv-x="601" unicode="&#7922;" /><glyph d="M551 0H29Q22 0 18 4Q14 8 14 15V22Q14 31 17 37Q20 43 27 52L489 658H60Q54 658 49.5 662.5Q45 667 45 673V685Q45 691 49.5 695.5Q54 700 60 700H531Q538 700 542 696Q546 692 546 685V678Q546 670 543 663Q540 656 530 643L74 42H551Q557 42 561.5 37.5Q566 33 566 27V15Q566 9 561.5 4.5Q557 0 551 0Z" glyph-name="Z" horiz-adv-x="585" unicode="Z" /><glyph d="M551 0H29Q22 0 18 4Q14 8 14 15V22Q14 31 17 37Q20 43 27 52L489 658H60Q54 658 49.5 662.5Q45 667 45 673V685Q45 691 49.5 695.5Q54 700 60 700H531Q538 700 542 696Q546 692 546 685V678Q546 670 543 663Q540 656 530 643L74 42H551Q557 42 561.5 37.5Q566 33 566 27V15Q566 9 561.5 4.5Q557 0 551 0ZM372 920H398Q403 920 405.5 916Q408 912 406 907L336 780Q332 773 328.5 770Q325 767 319 767H303Q298 767 295.5 770.5Q293 774 295 779L351 906Q354 913 359 916.5Q364 920 372 920Z" glyph-name="Zacute" horiz-adv-x="585" unicode="&#377;" /><glyph d="M551 0H29Q22 0 18 4Q14 8 14 15V22Q14 31 17 37Q20 43 27 52L489 658H60Q54 658 49.5 662.5Q45 667 45 673V685Q45 691 49.5 695.5Q54 700 60 700H531Q538 700 542 696Q546 692 546 685V678Q546 670 543 663Q540 656 530 643L74 42H551Q557 42 561.5 37.5Q566 33 566 27V15Q566 9 561.5 4.5Q557 0 551 0ZM308 767H299Q290 767 284.5 769.5Q279 772 275 780L186 907Q182 911 184.5 915.5Q187 920 193 920H210Q216 920 220 918Q224 916 229 910L303 811L377 910Q381 916 385.5 918Q390 920 396 920H413Q418 920 420.5 915.5Q423 911 420 907L331 780Q326 772 321 769.5Q316 767 308 767Z" glyph-name="Zcaron" horiz-adv-x="585" unicode="&#381;" /><glyph d="M551 0H29Q22 0 18 4Q14 8 14 15V22Q14 31 17 37Q20 43 27 52L489 658H60Q54 658 49.5 662.5Q45 667 45 673V685Q45 691 49.5 695.5Q54 700 60 700H531Q538 700 542 696Q546 692 546 685V678Q546 670 543 663Q540 656 530 643L74 42H551Q557 42 561.5 37.5Q566 33 566 27V15Q566 9 561.5 4.5Q557 0 551 0ZM348 827Q348 808 334.5 794Q321 780 302 780Q283 780 269.5 794Q256 808 256 827Q256 846 269.5 859.5Q283 873 302 873Q321 873 334.5 859.5Q348 846 348 827Z" glyph-name="Zdotaccent" horiz-adv-x="585" unicode="&#379;" /><glyph d="M271 428Q191 428 138 370.5Q85 313 85 227Q85 142 138 85Q191 28 271 28Q351 28 404 85Q457 142 457 227Q457 313 404 370.5Q351 428 271 428ZM270 -12Q172 -12 106 56.5Q40 125 40 227Q40 330 106.5 399Q173 468 270 468Q331 468 381.5 437.5Q432 407 456 356V441Q456 447 460.5 451.5Q465 456 471 456H485Q491 456 495.5 451.5Q500 447 500 441V15Q500 9 495.5 4.5Q491 0 485 0H471Q465 0 460.5 4.5Q456 9 456 15V100Q431 49 381 18.5Q331 -12 270 -12Z" glyph-name="a" horiz-adv-x="574" unicode="a" /><glyph d="M271 428Q191 428 138 370.5Q85 313 85 227Q85 142 138 85Q191 28 271 28Q351 28 404 85Q457 142 457 227Q457 313 404 370.5Q351 428 271 428ZM270 -12Q172 -12 106 56.5Q40 125 40 227Q40 330 106.5 399Q173 468 270 468Q331 468 381.5 437.5Q432 407 456 356V441Q456 447 460.5 451.5Q465 456 471 456H485Q491 456 495.5 451.5Q500 447 500 441V15Q500 9 495.5 4.5Q491 0 485 0H471Q465 0 460.5 4.5Q456 9 456 15V100Q431 49 381 18.5Q331 -12 270 -12ZM341 676H367Q372 676 374.5 672Q377 668 375 663L305 536Q301 529 297.5 526Q294 523 288 523H272Q267 523 264.5 526.5Q262 530 264 535L320 662Q323 669 328 672.5Q333 676 341 676Z" glyph-name="aacute" horiz-adv-x="574" unicode="&#225;" /><glyph d="M271 428Q191 428 138 370.5Q85 313 85 227Q85 142 138 85Q191 28 271 28Q351 28 404 85Q457 142 457 227Q457 313 404 370.5Q351 428 271 428ZM270 -12Q172 -12 106 56.5Q40 125 40 227Q40 330 106.5 399Q173 468 270 468Q331 468 381.5 437.5Q432 407 456 356V441Q456 447 460.5 451.5Q465 456 471 456H485Q491 456 495.5 451.5Q500 447 500 441V15Q500 9 495.5 4.5Q491 0 485 0H471Q465 0 460.5 4.5Q456 9 456 15V100Q431 49 381 18.5Q331 -12 270 -12ZM270 518Q224 518 196 543Q168 568 168 609V614Q168 619 171 622Q174 625 179 625H195Q200 625 203 622Q206 619 206 614V612Q206 585 223.5 569.5Q241 554 270 554Q299 554 316.5 569.5Q334 585 334 612V614Q334 619 337 622Q340 625 345 625H361Q366 625 369 622Q372 619 372 614V609Q372 568 344 543Q316 518 270 518Z" glyph-name="abreve" horiz-adv-x="574" unicode="&#259;" /><glyph d="M271 428Q191 428 138 370.5Q85 313 85 227Q85 142 138 85Q191 28 271 28Q351 28 404 85Q457 142 457 227Q457 313 404 370.5Q351 428 271 428ZM270 -12Q172 -12 106 56.5Q40 125 40 227Q40 330 106.5 399Q173 468 270 468Q331 468 381.5 437.5Q432 407 456 356V441Q456 447 460.5 451.5Q465 456 471 456H485Q491 456 495.5 451.5Q500 447 500 441V15Q500 9 495.5 4.5Q491 0 485 0H471Q465 0 460.5 4.5Q456 9 456 15V100Q431 49 381 18.5Q331 -12 270 -12ZM267 676H276Q284 676 289 673.5Q294 671 299 663L388 536Q391 532 388.5 527.5Q386 523 381 523H364Q358 523 353.5 525Q349 527 345 533L271 632L197 533Q192 527 188 525Q184 523 178 523H161Q155 523 152.5 527.5Q150 532 154 536L243 663Q247 671 252.5 673.5Q258 676 267 676Z" glyph-name="acircumflex" horiz-adv-x="574" unicode="&#226;" /><glyph d="M111 676H137Q142 676 144.5 672Q147 668 145 663L75 536Q71 529 67.5 526Q64 523 58 523H42Q37 523 34.5 526.5Q32 530 34 535L90 662Q93 669 98 672.5Q103 676 111 676Z" glyph-name="acute" horiz-adv-x="181" unicode="&#180;" /><glyph d="M271 428Q191 428 138 370.5Q85 313 85 227Q85 142 138 85Q191 28 271 28Q351 28 404 85Q457 142 457 227Q457 313 404 370.5Q351 428 271 428ZM270 -12Q172 -12 106 56.5Q40 125 40 227Q40 330 106.5 399Q173 468 270 468Q331 468 381.5 437.5Q432 407 456 356V441Q456 447 460.5 451.5Q465 456 471 456H485Q491 456 495.5 451.5Q500 447 500 441V15Q500 9 495.5 4.5Q491 0 485 0H471Q465 0 460.5 4.5Q456 9 456 15V100Q431 49 381 18.5Q331 -12 270 -12ZM346 521Q329 521 316 534Q303 547 303 564Q303 581 316 594Q329 607 346 607Q363 607 376 594Q389 581 389 564Q389 547 376 534Q363 521 346 521ZM195 521Q178 521 165 534Q152 547 152 564Q152 581 165 594Q178 607 195 607Q212 607 225 594Q238 581 238 564Q238 547 225 534Q212 521 195 521Z" glyph-name="adieresis" horiz-adv-x="574" unicode="&#228;" /><glyph d="M839 80Q808 36 757 12Q706 -12 644 -12Q585 -12 536 12.5Q487 37 454 82Q425 38 377 13Q329 -12 272 -12Q174 -12 107 56.5Q40 125 40 228Q40 331 107 399.5Q174 468 272 468Q329 468 377.5 443Q426 418 455 373Q487 418 535.5 443Q584 468 641 468Q739 468 804 403.5Q869 339 869 237V229Q869 223 865 218.5Q861 214 855 214H455Q460 132 513.5 80Q567 28 646 28Q694 28 733.5 46.5Q773 65 801 101Q806 107 812 108.5Q818 110 824 106L833 100Q839 96 840.5 90.5Q842 85 839 80ZM456 252H825Q818 332 767.5 380Q717 428 640 428Q566 428 515 379Q464 330 456 252ZM85 228Q85 142 138 85Q191 28 272 28Q324 28 366 52Q408 76 433 119Q422 143 416 170.5Q410 198 410 227Q410 256 416 283.5Q422 311 433 336Q409 379 366.5 403.5Q324 428 272 428Q191 428 138 371Q85 314 85 228Z" glyph-name="ae" horiz-adv-x="901" unicode="&#230;" /><glyph d="M271 428Q191 428 138 370.5Q85 313 85 227Q85 142 138 85Q191 28 271 28Q351 28 404 85Q457 142 457 227Q457 313 404 370.5Q351 428 271 428ZM270 -12Q172 -12 106 56.5Q40 125 40 227Q40 330 106.5 399Q173 468 270 468Q331 468 381.5 437.5Q432 407 456 356V441Q456 447 460.5 451.5Q465 456 471 456H485Q491 456 495.5 451.5Q500 447 500 441V15Q500 9 495.5 4.5Q491 0 485 0H471Q465 0 460.5 4.5Q456 9 456 15V100Q431 49 381 18.5Q331 -12 270 -12ZM179 676H205Q213 676 218 672.5Q223 669 226 662L282 535Q284 530 281.5 526.5Q279 523 274 523H258Q252 523 248.5 526Q245 529 241 536L171 663Q169 668 171.5 672Q174 676 179 676Z" glyph-name="agrave" horiz-adv-x="574" unicode="&#224;" /><glyph d="M271 428Q191 428 138 370.5Q85 313 85 227Q85 142 138 85Q191 28 271 28Q351 28 404 85Q457 142 457 227Q457 313 404 370.5Q351 428 271 428ZM270 -12Q172 -12 106 56.5Q40 125 40 227Q40 330 106.5 399Q173 468 270 468Q331 468 381.5 437.5Q432 407 456 356V441Q456 447 460.5 451.5Q465 456 471 456H485Q491 456 495.5 451.5Q500 447 500 441V15Q500 9 495.5 4.5Q491 0 485 0H471Q465 0 460.5 4.5Q456 9 456 15V100Q431 49 381 18.5Q331 -12 270 -12ZM371 546H171Q165 546 160.5 550.5Q156 555 156 561V568Q156 574 160.5 578.5Q165 583 171 583H371Q377 583 381.5 578.5Q386 574 386 568V561Q386 555 381.5 550.5Q377 546 371 546Z" glyph-name="amacron" horiz-adv-x="574" unicode="&#257;" /><glyph d="M283 674Q231 674 195.5 640Q160 606 160 553Q160 515 179 479Q198 443 242 400L274 420Q299 436 318.5 450Q338 464 351 476Q374 498 385 521Q396 544 396 570Q396 617 364 645.5Q332 674 283 674ZM90 170Q90 112 139 69.5Q188 27 263 27Q319 27 371 53Q423 79 460 126L232 353L210 339Q146 296 118 257Q90 218 90 170ZM580 6 488 97Q443 44 384 16Q325 -12 259 -12Q164 -12 104 40.5Q44 93 44 169Q44 225 78 273Q112 321 182 364L206 379L198 387Q158 427 137.5 468.5Q117 510 117 552Q117 622 164.5 667Q212 712 283 712Q352 712 395.5 672Q439 632 439 570Q439 539 427.5 513Q416 487 393 463Q377 446 354 429Q331 412 300 393L268 374L486 158Q520 212 539.5 272.5Q559 333 562 392Q563 398 567.5 402.5Q572 407 578 407H593Q599 407 603.5 402.5Q608 398 607 392Q603 328 578.5 257Q554 186 515 129L634 11Q637 8 635.5 4Q634 0 630 0H596Q591 0 587 1.5Q583 3 580 6Z" glyph-name="ampersand" horiz-adv-x="660" unicode="&amp;" /><glyph d="M271 428Q191 428 138 370.5Q85 313 85 227Q85 142 138 85Q191 28 271 28Q351 28 404 85Q457 142 457 227Q457 313 404 370.5Q351 428 271 428ZM501 -147 500 -157Q499 -165 484.5 -169.5Q470 -174 452 -174Q418 -174 398 -155.5Q378 -137 378 -107Q378 -79 399.5 -45.5Q421 -12 456 16V100Q431 49 381 18.5Q331 -12 270 -12Q172 -12 106 56.5Q40 125 40 227Q40 330 106.5 399Q173 468 270 468Q331 468 381.5 437.5Q432 407 456 356V441Q456 447 460.5 451.5Q465 456 471 456H485Q491 456 495.5 451.5Q500 447 500 441V15Q500 9 495.5 4.5Q491 0 485 0H474Q450 -28 435 -56.5Q420 -85 420 -103Q420 -121 430.5 -131Q441 -141 461 -141Q468 -141 475.5 -140Q483 -139 490 -137Q495 -136 498.5 -139Q502 -142 501 -147Z" glyph-name="aogonek" horiz-adv-x="574" unicode="&#261;" /><glyph d="M67 523 102 603Q86 608 75.5 623Q65 638 65 657Q65 680 81.5 696.5Q98 713 121 713Q144 713 160 696Q176 679 176 655Q176 632 162.5 602Q149 572 109 517Q101 507 96 504.5Q91 502 86 504L76 509Q69 512 67 515.5Q65 519 67 523Z" glyph-name="apostrophe" horiz-adv-x="241" /><glyph d="M243 528 278 601Q261 606 250.5 619.5Q240 633 240 650Q240 671 254.5 685.5Q269 700 290 700Q311 700 325.5 684.5Q340 669 340 648Q340 627 328 600.5Q316 574 279 524Q272 514 267.5 512Q263 510 259 512L251 516Q245 519 243.5 521.5Q242 524 243 528Z" glyph-name="apostrophemod" horiz-adv-x="563" /><glyph d="M478 461Q469 438 451.5 424.5Q434 411 411 410Q402 409 376 412.5Q350 416 279 427Q208 438 180 441.5Q152 445 140 445Q129 445 123 440Q117 435 109 421Q105 414 100.5 412.5Q96 411 89 413L82 416Q77 418 74.5 423.5Q72 429 74 434Q83 458 100.5 471.5Q118 485 141 485Q151 485 175.5 482Q200 479 267 469Q341 457 370 453.5Q399 450 412 450Q423 450 429 455Q435 460 443 474Q447 481 452 483Q457 485 463 482L470 479Q475 477 477.5 471.5Q480 466 478 461ZM478 264Q469 241 451.5 227.5Q434 214 411 213Q402 212 376 215.5Q350 219 279 230Q208 241 180 244.5Q152 248 140 248Q129 248 123 243Q117 238 109 224Q105 217 100.5 215.5Q96 214 89 216L82 219Q77 221 74.5 226.5Q72 232 74 237Q83 261 100.5 274.5Q118 288 141 288Q151 288 175.5 285Q200 282 267 272Q341 260 370 256.5Q399 253 412 253Q423 253 429 258Q435 263 443 277Q447 284 452 286Q457 288 463 285L470 282Q475 280 477.5 274.5Q480 269 478 264Z" glyph-name="approxequal" horiz-adv-x="548" unicode="&#8776;" /><glyph d="M271 428Q191 428 138 370.5Q85 313 85 227Q85 142 138 85Q191 28 271 28Q351 28 404 85Q457 142 457 227Q457 313 404 370.5Q351 428 271 428ZM270 -12Q172 -12 106 56.5Q40 125 40 227Q40 330 106.5 399Q173 468 270 468Q331 468 381.5 437.5Q432 407 456 356V441Q456 447 460.5 451.5Q465 456 471 456H485Q491 456 495.5 451.5Q500 447 500 441V15Q500 9 495.5 4.5Q491 0 485 0H471Q465 0 460.5 4.5Q456 9 456 15V100Q431 49 381 18.5Q331 -12 270 -12ZM271 700Q313 700 342 672Q371 644 372 602Q371 560 342 532Q313 504 271 504Q229 504 200 532Q171 560 170 602Q171 644 200 672Q229 700 271 700ZM271 540Q297 540 314 558Q331 576 331 602Q331 628 314 646Q297 664 271 664Q245 664 228 646Q211 628 211 602Q211 576 228 558Q245 540 271 540Z" glyph-name="aring" horiz-adv-x="574" unicode="&#229;" /><glyph d="M395 -25 157 204Q151 209 148.5 213.5Q146 218 146 224V257Q146 261 150 263Q154 265 157 262L379 49V713Q379 719 383.5 723.5Q388 728 394 728H406Q412 728 416.5 723.5Q421 719 421 713V49L643 263Q646 266 650 264Q654 262 654 258V224Q654 218 651.5 213.5Q649 209 643 204L404 -25Q402 -27 399.5 -27Q397 -27 395 -25Z" glyph-name="arrowdown" horiz-adv-x="800" unicode="&#8595;" /><glyph d="M521 109 191 116Q188 116 186 118Q184 120 184 123L177 453Q177 463 178.5 467.5Q180 472 184 475L208 499Q211 502 215 500.5Q219 499 219 495L225 186L723 685Q728 690 734.5 690Q741 690 745 685L753 677Q758 673 758 666.5Q758 660 753 655L254 157L562 150Q566 150 567.5 146Q569 142 566 139L543 116Q540 112 535.5 110.5Q531 109 521 109Z" glyph-name="arrowdownleft" horiz-adv-x="880" unicode="&#8601;" /><glyph d="M689 116 359 109Q349 109 344.5 110.5Q340 112 337 116L314 139Q311 142 312.5 146Q314 150 318 150L626 157L127 655Q123 660 123 666.5Q123 673 127 677L135 685Q140 690 146.5 690Q153 690 157 685L655 186L661 495Q661 499 665 500.5Q669 502 672 499L696 475Q700 472 701.5 467.5Q703 463 703 453L696 123Q696 120 694 118Q692 116 689 116Z" glyph-name="arrowdownright" horiz-adv-x="880" unicode="&#8600;" /><glyph d="M157 497 395 726Q397 728 399.5 728Q402 728 404 726L643 497Q649 492 651.5 487.5Q654 483 654 477V443Q654 439 650 437Q646 435 643 438L421 652V-12Q421 -18 416.5 -22.5Q412 -27 406 -27H394Q388 -27 383.5 -22.5Q379 -18 379 -12V652L157 439Q154 436 150 438Q146 440 146 444V477Q146 483 148.5 487.5Q151 492 157 497Z" glyph-name="arrowup" horiz-adv-x="800" unicode="&#8593;" /><glyph d="M184 683 514 690Q524 690 528.5 688.5Q533 687 536 683L559 660Q562 657 560.5 653Q559 649 555 649L247 642L746 144Q751 140 751 133.5Q751 127 746 122L738 114Q734 110 727.5 110Q721 110 716 114L218 613L212 304Q212 300 208 298.5Q204 297 201 300L177 324Q173 327 171.5 331.5Q170 336 170 346L177 676Q177 679 179 681Q181 683 184 683Z" glyph-name="arrowupleft" horiz-adv-x="880" unicode="&#8598;" /><glyph d="M366 690 696 683Q699 683 701 681Q703 679 703 676L710 346Q710 336 708.5 331.5Q707 327 703 324L679 300Q676 297 672 298.5Q668 300 668 304L662 613L164 114Q160 110 153.5 110Q147 110 142 114L134 122Q130 127 130 133.5Q130 140 134 144L633 642L325 649Q321 649 319.5 653Q318 657 321 660L344 683Q347 687 351.5 688.5Q356 690 366 690Z" glyph-name="arrowupright" horiz-adv-x="880" unicode="&#8599;" /><glyph d="M71 225H53Q47 225 44 229.5Q41 234 43 239L186 686Q188 692 193.5 696Q199 700 206 700H240Q247 700 252 696Q257 692 259 686L395 239Q397 234 393.5 229.5Q390 225 384 225H366Q359 225 354 229Q349 233 347 239L223 664L90 239Q88 233 83 229Q78 225 71 225Z" glyph-name="asciicircum" horiz-adv-x="439" unicode="^" /><glyph d="M478 361Q469 338 451.5 324.5Q434 311 411 310Q402 309 376 312.5Q350 316 279 327Q208 338 180 341.5Q152 345 140 345Q129 345 123 340Q117 335 109 321Q105 314 100.5 312.5Q96 311 89 313L82 316Q77 318 74.5 323.5Q72 329 74 334Q83 358 100.5 371.5Q118 385 141 385Q151 385 175.5 382Q200 379 267 369Q341 357 370 353.5Q399 350 412 350Q423 350 429 355Q435 360 443 374Q447 381 452 383Q457 385 463 382L470 379Q475 377 477.5 371.5Q480 366 478 361Z" glyph-name="asciitilde" horiz-adv-x="548" unicode="~" /><glyph d="M240 498Q246 476 254.5 426.5Q263 377 263 364Q263 350 253 340Q243 330 229 330Q215 330 205 340Q195 350 195 364Q195 377 203.5 426.5Q212 476 218 498Q213 495 204.5 488.5Q196 482 174 466Q139 440 125 430.5Q111 421 106 418Q93 411 80 415Q67 419 60 432Q54 444 58 457.5Q62 471 74 478Q82 482 108 490.5Q134 499 207 519Q200 522 185 527.5Q170 533 133 544Q102 554 90.5 558Q79 562 74 564Q62 571 58 585Q54 599 60 611Q67 624 80 628Q93 632 106 625Q110 623 120.5 615Q131 607 160 586Q187 565 198.5 556Q210 547 217 543Q211 569 203 616.5Q195 664 195 676Q195 690 205 700Q215 710 229 710Q243 710 253 700Q263 690 263 676Q263 664 255 616.5Q247 569 241 543Q248 547 259.5 556Q271 565 298 586Q327 607 337.5 615Q348 623 352 625Q365 632 378 628Q391 624 398 611Q404 599 400 585Q396 571 384 564Q379 562 367.5 558Q356 554 325 544Q288 533 273 527.5Q258 522 251 519Q324 499 350 490.5Q376 482 384 478Q396 471 400 457.5Q404 444 398 432Q391 419 378 415Q365 411 352 418Q347 421 333 430.5Q319 440 284 466Q262 482 253.5 488.5Q245 495 240 498Z" glyph-name="asterisk" horiz-adv-x="458" unicode="*" /><glyph d="M727 -97Q676 -140 610.5 -161.5Q545 -183 466 -183Q285 -183 166.5 -69Q48 45 48 219Q48 393 164.5 506.5Q281 620 460 620Q626 620 732 517Q838 414 838 253Q838 141 796.5 75.5Q755 10 689 10Q647 10 620 34.5Q593 59 589 99Q565 57 524 33.5Q483 10 434 10Q352 10 296 68Q240 126 240 213Q240 300 296 358.5Q352 417 434 417Q481 417 521.5 394Q562 371 585 332V392Q585 398 589.5 402.5Q594 407 600 407H613Q619 407 623.5 402.5Q628 398 628 392V136Q628 88 643.5 67.5Q659 47 693 47Q738 47 767 104.5Q796 162 796 256Q796 401 701.5 492Q607 583 451 583Q299 583 194.5 478.5Q90 374 90 217Q90 62 198.5 -42Q307 -146 463 -146Q499 -146 535 -140Q571 -134 603 -123Q620 -117 636 -109.5Q652 -102 666 -93Q672 -89 676 -88Q680 -87 686 -87H723Q728 -87 729 -91Q730 -95 727 -97ZM587 215Q587 287 544 334Q501 381 435 381Q369 381 325.5 334Q282 287 282 215Q282 144 325.5 96.5Q369 49 435 49Q500 49 543.5 96.5Q587 144 587 215Z" glyph-name="at" horiz-adv-x="893" unicode="@" /><glyph d="M271 428Q191 428 138 370.5Q85 313 85 227Q85 142 138 85Q191 28 271 28Q351 28 404 85Q457 142 457 227Q457 313 404 370.5Q351 428 271 428ZM270 -12Q172 -12 106 56.5Q40 125 40 227Q40 330 106.5 399Q173 468 270 468Q331 468 381.5 437.5Q432 407 456 356V441Q456 447 460.5 451.5Q465 456 471 456H485Q491 456 495.5 451.5Q500 447 500 441V15Q500 9 495.5 4.5Q491 0 485 0H471Q465 0 460.5 4.5Q456 9 456 15V100Q431 49 381 18.5Q331 -12 270 -12ZM404 589Q395 565 377.5 551.5Q360 538 337 538Q327 538 312.5 542Q298 546 266 559Q244 568 235 570.5Q226 573 221 573Q210 573 204 568Q198 563 190 549Q186 542 181 540Q176 538 170 541L163 544Q158 546 155.5 551.5Q153 557 155 562Q164 586 181.5 599.5Q199 613 222 613Q232 613 246.5 609Q261 605 293 592Q315 583 324 580.5Q333 578 338 578Q349 578 355 583Q361 588 369 602Q373 609 378 611Q383 613 389 610L396 607Q401 605 403.5 599.5Q406 594 404 589Z" glyph-name="atilde" horiz-adv-x="574" unicode="&#227;" /><glyph d="M118 685V356Q142 407 192.5 437.5Q243 468 304 468Q401 468 467.5 399Q534 330 534 227Q534 125 468 56.5Q402 -12 304 -12Q243 -12 193 18.5Q143 49 118 100V15Q118 9 113.5 4.5Q109 0 103 0H89Q83 0 78.5 4.5Q74 9 74 15V685Q74 691 78.5 695.5Q83 700 89 700H103Q109 700 113.5 695.5Q118 691 118 685ZM303 428Q223 428 170 370.5Q117 313 117 227Q117 142 170 85Q223 28 303 28Q383 28 436 85Q489 142 489 227Q489 313 436 370.5Q383 428 303 428Z" glyph-name="b" horiz-adv-x="574" unicode="b" /><glyph d="M82 686 405 14Q407 9 404.5 4.5Q402 0 396 0H380Q372 0 367 3.5Q362 7 359 14L36 686Q34 691 37 695.5Q40 700 45 700H60Q68 700 73.5 696.5Q79 693 82 686Z" glyph-name="backslash" horiz-adv-x="440" unicode="\" /><glyph d="M119 -125H103Q97 -125 92.5 -120.5Q88 -116 88 -110V810Q88 816 92.5 820.5Q97 825 103 825H119Q125 825 129.5 820.5Q134 816 134 810V-110Q134 -116 129.5 -120.5Q125 -125 119 -125Z" glyph-name="bar" horiz-adv-x="222" unicode="|" /><glyph d="M152 281V-6Q152 -35 163 -48Q174 -61 199 -61H280Q286 -61 290.5 -65.5Q295 -70 295 -76V-88Q295 -94 290.5 -98.5Q286 -103 280 -103H191Q152 -103 129 -79Q106 -55 106 -13V294Q106 307 98.5 314.5Q91 322 79 322H41Q35 322 30.5 326.5Q26 331 26 337V346Q26 352 30.5 356.5Q35 361 41 361H79Q91 361 98.5 368.5Q106 376 106 389V660Q106 702 129 726Q152 750 191 750H280Q286 750 290.5 745.5Q295 741 295 735V723Q295 717 290.5 712.5Q286 708 280 708H199Q174 708 163 695Q152 682 152 653V402Q152 378 140 361.5Q128 345 109 341Q129 337 140.5 320.5Q152 304 152 281Z" glyph-name="braceleft" horiz-adv-x="314" unicode="{" /><glyph d="M162 -6V281Q162 304 173.5 320.5Q185 337 205 341Q186 345 174 361.5Q162 378 162 402V653Q162 682 151 695Q140 708 115 708H34Q28 708 23.5 712.5Q19 717 19 723V735Q19 741 23.5 745.5Q28 750 34 750H123Q162 750 185 726Q208 702 208 660V389Q208 376 215.5 368.5Q223 361 235 361H273Q279 361 283.5 356.5Q288 352 288 346V337Q288 331 283.5 326.5Q279 322 273 322H235Q223 322 215.5 314.5Q208 307 208 294V-13Q208 -55 185 -79Q162 -103 123 -103H34Q28 -103 23.5 -98.5Q19 -94 19 -88V-76Q19 -70 23.5 -65.5Q28 -61 34 -61H115Q140 -61 151 -48Q162 -35 162 -6Z" glyph-name="braceright" horiz-adv-x="314" unicode="}" /><glyph d="M278 735V723Q278 717 273.5 712.5Q269 708 263 708H132V-61H263Q269 -61 273.5 -65.5Q278 -70 278 -76V-88Q278 -94 273.5 -98.5Q269 -103 263 -103H103Q97 -103 92.5 -98.5Q88 -94 88 -88V735Q88 741 92.5 745.5Q97 750 103 750H263Q269 750 273.5 745.5Q278 741 278 735Z" glyph-name="bracketleft" horiz-adv-x="297" unicode="[" /><glyph d="M19 723V735Q19 741 23.5 745.5Q28 750 34 750H194Q200 750 204.5 745.5Q209 741 209 735V-88Q209 -94 204.5 -98.5Q200 -103 194 -103H34Q28 -103 23.5 -98.5Q19 -94 19 -88V-76Q19 -70 23.5 -65.5Q28 -61 34 -61H165V708H34Q28 708 23.5 712.5Q19 717 19 723Z" glyph-name="bracketright" horiz-adv-x="297" unicode="]" /><glyph d="M131 518Q85 518 57 543Q29 568 29 609V614Q29 619 32 622Q35 625 40 625H56Q61 625 64 622Q67 619 67 614V612Q67 585 84.5 569.5Q102 554 131 554Q160 554 177.5 569.5Q195 585 195 612V614Q195 619 198 622Q201 625 206 625H222Q227 625 230 622Q233 619 233 614V609Q233 568 205 543Q177 518 131 518Z" glyph-name="breve" horiz-adv-x="263" unicode="&#728;" /><glyph d="M135 810V425Q135 419 130.5 414.5Q126 410 120 410H102Q96 410 91.5 414.5Q87 419 87 425V810Q87 816 91.5 820.5Q96 825 102 825H120Q126 825 130.5 820.5Q135 816 135 810ZM135 275V-110Q135 -116 130.5 -120.5Q126 -125 120 -125H102Q96 -125 91.5 -120.5Q87 -116 87 -110V275Q87 281 91.5 285.5Q96 290 102 290H120Q126 290 130.5 285.5Q135 281 135 275Z" glyph-name="brokenbar" horiz-adv-x="222" unicode="&#166;" /><glyph d="M242 359Q242 328 219.5 305Q197 282 166 282Q135 282 112 305Q89 328 89 359Q89 390 112 412.5Q135 435 166 435Q197 435 219.5 412.5Q242 390 242 359Z" glyph-name="bullet" horiz-adv-x="331" unicode="&#8226;" /><glyph d="M474 110Q445 52 391.5 20Q338 -12 272 -12Q174 -12 107 56.5Q40 125 40 228Q40 331 107 399.5Q174 468 272 468Q338 468 391.5 436Q445 404 474 346Q477 340 475.5 334.5Q474 329 467 326L455 321Q449 319 443.5 320.5Q438 322 435 328Q410 375 367 401.5Q324 428 272 428Q191 428 138 371Q85 314 85 228Q85 142 138 85Q191 28 272 28Q324 28 367 54.5Q410 81 435 128Q438 133 443 135Q448 137 455 134L468 129Q474 126 475.5 121Q477 116 474 110Z" glyph-name="c" horiz-adv-x="511" unicode="c" /><glyph d="M474 110Q445 52 391.5 20Q338 -12 272 -12Q174 -12 107 56.5Q40 125 40 228Q40 331 107 399.5Q174 468 272 468Q338 468 391.5 436Q445 404 474 346Q477 340 475.5 334.5Q474 329 467 326L455 321Q449 319 443.5 320.5Q438 322 435 328Q410 375 367 401.5Q324 428 272 428Q191 428 138 371Q85 314 85 228Q85 142 138 85Q191 28 272 28Q324 28 367 54.5Q410 81 435 128Q438 133 443 135Q448 137 455 134L468 129Q474 126 475.5 121Q477 116 474 110ZM327 676H353Q358 676 360.5 672Q363 668 361 663L291 536Q287 529 283.5 526Q280 523 274 523H258Q253 523 250.5 526.5Q248 530 250 535L306 662Q309 669 314 672.5Q319 676 327 676Z" glyph-name="cacute" horiz-adv-x="511" unicode="&#263;" /><glyph d="M151 523H142Q133 523 127.5 525.5Q122 528 118 536L29 663Q25 667 27.5 671.5Q30 676 36 676H53Q59 676 63 674Q67 672 72 666L146 567L220 666Q224 672 228.5 674Q233 676 239 676H256Q261 676 263.5 671.5Q266 667 263 663L174 536Q169 528 164 525.5Q159 523 151 523Z" glyph-name="caron" horiz-adv-x="291" unicode="&#711;" /><glyph d="M474 110Q445 52 391.5 20Q338 -12 272 -12Q174 -12 107 56.5Q40 125 40 228Q40 331 107 399.5Q174 468 272 468Q338 468 391.5 436Q445 404 474 346Q477 340 475.5 334.5Q474 329 467 326L455 321Q449 319 443.5 320.5Q438 322 435 328Q410 375 367 401.5Q324 428 272 428Q191 428 138 371Q85 314 85 228Q85 142 138 85Q191 28 272 28Q324 28 367 54.5Q410 81 435 128Q438 133 443 135Q448 137 455 134L468 129Q474 126 475.5 121Q477 116 474 110ZM263 523H254Q245 523 239.5 525.5Q234 528 230 536L141 663Q137 667 139.5 671.5Q142 676 148 676H165Q171 676 175 674Q179 672 184 666L258 567L332 666Q336 672 340.5 674Q345 676 351 676H368Q373 676 375.5 671.5Q378 667 375 663L286 536Q281 528 276 525.5Q271 523 263 523Z" glyph-name="ccaron" horiz-adv-x="511" unicode="&#269;" /><glyph d="M275 -12 223 -129Q219 -137 215.5 -140Q212 -143 206 -143H190Q184 -143 181.5 -139Q179 -135 182 -129L232 -9Q148 6 94 72Q40 138 40 228Q40 331 107 399.5Q174 468 272 468Q338 468 391.5 436Q445 404 474 346Q477 340 475.5 334.5Q474 329 467 326L455 321Q449 319 443.5 320.5Q438 322 435 328Q410 375 367 401.5Q324 428 272 428Q191 428 138 371Q85 314 85 228Q85 142 138 85Q191 28 272 28Q324 28 367 54.5Q410 81 435 128Q438 133 443 135Q448 137 455 134L468 129Q474 126 475.5 121Q477 116 474 110Q445 53 392 20.5Q339 -12 275 -12Z" glyph-name="ccedilla" horiz-adv-x="511" unicode="&#231;" /><glyph d="M474 110Q445 52 391.5 20Q338 -12 272 -12Q174 -12 107 56.5Q40 125 40 228Q40 331 107 399.5Q174 468 272 468Q338 468 391.5 436Q445 404 474 346Q477 340 475.5 334.5Q474 329 467 326L455 321Q449 319 443.5 320.5Q438 322 435 328Q410 375 367 401.5Q324 428 272 428Q191 428 138 371Q85 314 85 228Q85 142 138 85Q191 28 272 28Q324 28 367 54.5Q410 81 435 128Q438 133 443 135Q448 137 455 134L468 129Q474 126 475.5 121Q477 116 474 110ZM254 676H263Q271 676 276 673.5Q281 671 286 663L375 536Q378 532 375.5 527.5Q373 523 368 523H351Q345 523 340.5 525Q336 527 332 533L258 632L184 533Q179 527 175 525Q171 523 165 523H148Q142 523 139.5 527.5Q137 532 141 536L230 663Q234 671 239.5 673.5Q245 676 254 676Z" glyph-name="ccircumflex" horiz-adv-x="511" unicode="&#265;" /><glyph d="M474 110Q445 52 391.5 20Q338 -12 272 -12Q174 -12 107 56.5Q40 125 40 228Q40 331 107 399.5Q174 468 272 468Q338 468 391.5 436Q445 404 474 346Q477 340 475.5 334.5Q474 329 467 326L455 321Q449 319 443.5 320.5Q438 322 435 328Q410 375 367 401.5Q324 428 272 428Q191 428 138 371Q85 314 85 228Q85 142 138 85Q191 28 272 28Q324 28 367 54.5Q410 81 435 128Q438 133 443 135Q448 137 455 134L468 129Q474 126 475.5 121Q477 116 474 110ZM303 583Q303 564 289.5 550Q276 536 257 536Q238 536 224.5 550Q211 564 211 583Q211 602 224.5 615.5Q238 629 257 629Q276 629 289.5 615.5Q303 602 303 583Z" glyph-name="cdotaccent" horiz-adv-x="511" unicode="&#267;" /><glyph d="M37 -129 91 0H135L78 -129Q74 -137 70.5 -140Q67 -143 61 -143H45Q39 -143 36.5 -139Q34 -135 37 -129Z" glyph-name="cedilla" horiz-adv-x="157" unicode="&#184;" /><glyph d="M292 220V133Q292 127 288 123Q284 119 278 119H268Q262 119 258 123Q254 127 254 133V221Q164 230 105.5 297.5Q47 365 47 460Q47 555 105.5 622.5Q164 690 254 700V798Q254 804 258 808Q262 812 268 812H278Q284 812 288 808Q292 804 292 798V701Q353 697 403 665Q453 633 481 580Q484 575 482 569Q480 563 475 561L462 554Q456 551 450.5 553Q445 555 442 561Q417 608 374 634.5Q331 661 279 661Q198 661 145 603.5Q92 546 92 460Q92 374 145 317Q198 260 279 260Q331 260 374 286.5Q417 313 442 360Q445 366 450.5 368Q456 370 462 367L475 360Q480 358 482 352Q484 346 481 341Q453 288 403 256Q353 224 292 220Z" glyph-name="cent" horiz-adv-x="525" unicode="&#162;" /><glyph d="M142 676H151Q159 676 164 673.5Q169 671 174 663L263 536Q266 532 263.5 527.5Q261 523 256 523H239Q233 523 228.5 525Q224 527 220 533L146 632L72 533Q67 527 63 525Q59 523 53 523H36Q30 523 27.5 527.5Q25 532 29 536L118 663Q122 671 127.5 673.5Q133 676 142 676Z" glyph-name="circumflex" horiz-adv-x="291" unicode="&#710;" /><glyph d="M173 392Q173 369 157 353Q141 337 118 337Q95 337 79 353Q63 369 63 392Q63 415 79 431Q95 447 118 447Q141 447 157 431Q173 415 173 392ZM173 43Q173 21 157 4.5Q141 -12 118 -12Q96 -12 79.5 4.5Q63 21 63 43Q63 66 79 82Q95 98 118 98Q141 98 157 82Q173 66 173 43Z" glyph-name="colon" horiz-adv-x="236" unicode=":" /><glyph d="M64 -91 102 -10Q83 -5 71.5 10Q60 25 60 44Q60 68 76 84Q92 100 116 100Q139 100 155 83Q171 66 171 42Q171 19 157.5 -11Q144 -41 104 -96Q95 -107 90.5 -109.5Q86 -112 81 -109L73 -105Q65 -101 63.5 -98Q62 -95 64 -91Z" glyph-name="comma" horiz-adv-x="232" unicode="," /><glyph d="M73 -222 108 -149Q91 -144 80.5 -130.5Q70 -117 70 -100Q70 -79 84.5 -64.5Q99 -50 120 -50Q141 -50 155.5 -65.5Q170 -81 170 -102Q170 -123 158 -149.5Q146 -176 109 -226Q102 -236 97.5 -238Q93 -240 89 -238L81 -234Q75 -231 73.5 -228.5Q72 -226 73 -222Z" glyph-name="commaaccent" horiz-adv-x="233" unicode="&#63171;" /><glyph d="M409 -7Q257 -7 153.5 95Q50 197 50 350Q50 503 153.5 605.5Q257 708 409 708Q561 708 664.5 605.5Q768 503 768 350Q768 197 664.5 95Q561 -7 409 -7ZM409 29Q543 29 634.5 121Q726 213 726 350Q726 488 634.5 580Q543 672 409 672Q275 672 183.5 580Q92 488 92 350Q92 213 183.5 121Q275 29 409 29ZM548 438Q530 476 495 497Q460 518 415 518Q345 518 301 471Q257 424 257 350Q257 277 301 230Q345 183 415 183Q460 183 495 204Q530 225 548 263Q551 271 555.5 274Q560 277 567 277H586Q592 277 595 272.5Q598 268 596 263Q575 209 526.5 176.5Q478 144 417 144Q329 144 270.5 202.5Q212 261 212 350Q212 439 270.5 498Q329 557 417 557Q478 557 526.5 524.5Q575 492 596 438Q598 433 595 428.5Q592 424 586 424H567Q560 424 555.5 427Q551 430 548 438Z" glyph-name="copyright" horiz-adv-x="818" unicode="&#169;" /><glyph d="M624 349Q624 296 606.5 248.5Q589 201 556 163L623 93Q628 88 628 83Q628 78 624 74L615 65Q611 61 605.5 61Q600 61 595 65L527 136Q492 105 446.5 89Q401 73 350 73Q299 73 253.5 89Q208 105 173 136L105 65Q101 61 95.5 61Q90 61 85 65L76 74Q72 78 72 83Q72 88 77 93L144 163Q111 201 93.5 248.5Q76 296 76 349Q76 402 93.5 449.5Q111 497 144 535L77 605Q72 610 72 615Q72 620 76 624L85 633Q90 638 95.5 638Q101 638 105 633L173 562Q208 593 253.5 609Q299 625 350 625Q401 625 446.5 609Q492 593 527 562L595 633Q600 638 605.5 638Q611 638 615 633L624 624Q628 620 628 615Q628 610 623 605L556 535Q589 497 606.5 449.5Q624 402 624 349ZM350 588Q308 588 269.5 574.5Q231 561 200 535L350 377L500 535Q469 561 430.5 574.5Q392 588 350 588ZM583 349Q583 394 568.5 434Q554 474 527 506L378 349L527 192Q554 224 568.5 264Q583 304 583 349ZM117 349Q117 304 131.5 264Q146 224 173 192L322 349L173 506Q146 474 131.5 434Q117 394 117 349ZM350 110Q392 110 430.5 123.5Q469 137 500 163L350 321L200 163Q231 137 269.5 123.5Q308 110 350 110Z" glyph-name="currency" horiz-adv-x="700" unicode="&#164;" /><glyph d="M271 428Q191 428 138 370.5Q85 313 85 227Q85 142 138 85Q191 28 271 28Q351 28 404 85Q457 142 457 227Q457 313 404 370.5Q351 428 271 428ZM270 -12Q172 -12 106 56.5Q40 125 40 227Q40 330 106.5 399Q173 468 270 468Q331 468 381.5 437.5Q432 407 456 356V685Q456 691 460.5 695.5Q465 700 471 700H485Q491 700 495.5 695.5Q500 691 500 685V15Q500 9 495.5 4.5Q491 0 485 0H471Q465 0 460.5 4.5Q456 9 456 15V100Q431 49 381 18.5Q331 -12 270 -12Z" glyph-name="d" horiz-adv-x="574" unicode="d" /><glyph d="M351 493H227V165Q227 159 222.5 154.5Q218 150 212 150H199Q193 150 188.5 154.5Q184 159 184 165V493H60Q54 493 49.5 497.5Q45 502 45 508V519Q45 525 49.5 529.5Q54 534 60 534H184V685Q184 691 188.5 695.5Q193 700 199 700H212Q218 700 222.5 695.5Q227 691 227 685V534H351Q357 534 361.5 529.5Q366 525 366 519V508Q366 502 361.5 497.5Q357 493 351 493Z" glyph-name="dagger" horiz-adv-x="411" unicode="&#8224;" /><glyph d="M351 216H227V15Q227 9 222.5 4.5Q218 0 212 0H199Q193 0 188.5 4.5Q184 9 184 15V216H60Q54 216 49.5 220.5Q45 225 45 231V242Q45 248 49.5 252.5Q54 257 60 257H184V443H60Q54 443 49.5 447.5Q45 452 45 458V469Q45 475 49.5 479.5Q54 484 60 484H184V685Q184 691 188.5 695.5Q193 700 199 700H212Q218 700 222.5 695.5Q227 691 227 685V484H351Q357 484 361.5 479.5Q366 475 366 469V458Q366 452 361.5 447.5Q357 443 351 443H227V257H351Q357 257 361.5 252.5Q366 248 366 242V231Q366 225 361.5 220.5Q357 216 351 216Z" glyph-name="daggerdbl" horiz-adv-x="411" unicode="&#8225;" /><glyph d="M271 428Q191 428 138 370.5Q85 313 85 227Q85 142 138 85Q191 28 271 28Q351 28 404 85Q457 142 457 227Q457 313 404 370.5Q351 428 271 428ZM270 -12Q172 -12 106 56.5Q40 125 40 227Q40 330 106.5 399Q173 468 270 468Q331 468 381.5 437.5Q432 407 456 356V685Q456 691 460.5 695.5Q465 700 471 700H485Q491 700 495.5 695.5Q500 691 500 685V15Q500 9 495.5 4.5Q491 0 485 0H471Q465 0 460.5 4.5Q456 9 456 15V100Q431 49 381 18.5Q331 -12 270 -12ZM564 528 599 601Q582 606 571.5 619.5Q561 633 561 650Q561 671 575.5 685.5Q590 700 611 700Q632 700 646.5 684.5Q661 669 661 648Q661 627 649 600.5Q637 574 600 524Q593 514 588.5 512Q584 510 580 512L572 516Q566 519 564.5 521.5Q563 524 564 528Z" glyph-name="dcaron" horiz-adv-x="587" unicode="&#271;" /><glyph d="M271 428Q191 428 138 370.5Q85 313 85 227Q85 142 138 85Q191 28 271 28Q351 28 404 85Q457 142 457 227Q457 313 404 370.5Q351 428 271 428ZM456 15V100Q431 49 381 18.5Q331 -12 270 -12Q172 -12 106 56.5Q40 125 40 227Q40 330 106.5 399Q173 468 270 468Q331 468 381.5 437.5Q432 407 456 356V548H305Q299 548 294.5 552.5Q290 557 290 563V571Q290 577 294.5 581.5Q299 586 305 586H456V685Q456 691 460.5 695.5Q465 700 471 700H485Q491 700 495.5 695.5Q500 691 500 685V586H565Q571 586 575.5 581.5Q580 577 580 571V563Q580 557 575.5 552.5Q571 548 565 548H500V15Q500 9 495.5 4.5Q491 0 485 0H471Q465 0 460.5 4.5Q456 9 456 15Z" glyph-name="dcroat" horiz-adv-x="575" unicode="&#273;" /><glyph d="M324 573Q324 515 283.5 474.5Q243 434 185 434Q127 434 86.5 474.5Q46 515 46 573Q46 631 86.5 671.5Q127 712 185 712Q243 712 283.5 671.5Q324 631 324 573ZM283 573Q283 615 254 645Q225 675 185 675Q145 675 116.5 645Q88 615 88 573Q88 530 116.5 500Q145 470 185 470Q225 470 254 500.5Q283 531 283 573Z" glyph-name="degree" horiz-adv-x="370" unicode="&#176;" /><glyph d="M212 521Q195 521 182 534Q169 547 169 564Q169 581 182 594Q195 607 212 607Q229 607 242 594Q255 581 255 564Q255 547 242 534Q229 521 212 521ZM61 521Q44 521 31 534Q18 547 18 564Q18 581 31 594Q44 607 61 607Q78 607 91 594Q104 581 104 564Q104 547 91 534Q78 521 61 521Z" glyph-name="dieresis" horiz-adv-x="274" unicode="&#168;" /><glyph d="M322 524Q322 501 305.5 484.5Q289 468 266 468Q243 468 226.5 484.5Q210 501 210 524Q210 547 226.5 563.5Q243 580 266 580Q289 580 305.5 563.5Q322 547 322 524ZM470 363V349Q470 343 465.5 338.5Q461 334 455 334H78Q72 334 67.5 338.5Q63 343 63 349V363Q63 369 67.5 373.5Q72 378 78 378H455Q461 378 465.5 373.5Q470 369 470 363ZM322 176Q322 153 305.5 136.5Q289 120 266 120Q243 120 226.5 136.5Q210 153 210 176Q210 199 226.5 215.5Q243 232 266 232Q289 232 305.5 215.5Q322 199 322 176Z" glyph-name="divide" horiz-adv-x="533" unicode="&#247;" /><glyph d="M103 518Q103 470 132.5 441Q162 412 224 395L270 383V654Q195 649 149 612.5Q103 576 103 518ZM483 188Q483 238 454 269.5Q425 301 363 318L309 333V46Q388 51 435.5 91Q483 131 483 188ZM295 -77H285Q279 -77 275 -73Q271 -69 271 -63V10Q224 12 181.5 24.5Q139 37 106 58Q85 71 68 87.5Q51 104 39 123Q36 127 36.5 132Q37 137 42 140L54 148Q60 152 66 151Q72 150 75 144Q86 128 100 114Q114 100 130 89Q159 70 195 58.5Q231 47 271 45V343L209 360Q135 380 98.5 418Q62 456 62 516Q62 589 120 636.5Q178 684 270 689V755Q270 761 274 765Q278 769 284 769H294Q300 769 304 765Q308 761 308 755V688Q338 687 366.5 680Q395 673 422 660Q449 647 471 631Q493 615 509 597Q512 593 511.5 588Q511 583 506 580L496 572Q492 569 487 570Q482 571 478 575Q463 590 446 602.5Q429 615 411 624Q386 636 360.5 643.5Q335 651 308 653V372L376 354Q452 333 488.5 293Q525 253 525 190Q525 117 466 66.5Q407 16 309 11V-63Q309 -69 305 -73Q301 -77 295 -77Z" glyph-name="dollar" horiz-adv-x="567" unicode="$" /><glyph d="M114 583Q114 564 100.5 550Q87 536 68 536Q49 536 35.5 550Q22 564 22 583Q22 602 35.5 615.5Q49 629 68 629Q87 629 100.5 615.5Q114 602 114 583Z" glyph-name="dotaccent" horiz-adv-x="136" unicode="&#729;" /><glyph d="M103 0H89Q83 0 78.5 4.5Q74 9 74 15V441Q74 447 78.5 451.5Q83 456 89 456H103Q109 456 113.5 451.5Q118 447 118 441V15Q118 9 113.5 4.5Q109 0 103 0Z" glyph-name="dotlessi" horiz-adv-x="192" unicode="&#305;" /><glyph d="M88 456H102Q108 456 112.5 451.5Q117 447 117 441V-83Q117 -147 82.5 -181.5Q48 -216 -11 -216Q-37 -216 -59 -209.5Q-81 -203 -99 -190Q-103 -187 -103.5 -182Q-104 -177 -101 -172L-96 -164Q-92 -158 -86.5 -156.5Q-81 -155 -75 -159Q-61 -168 -43.5 -173.5Q-26 -179 -12 -179Q29 -179 51 -155Q73 -131 73 -85V441Q73 447 77.5 451.5Q82 456 88 456Z" glyph-name="dotlessj" horiz-adv-x="192" unicode="&#567;" /><glyph d="M40 227Q40 329 106 398.5Q172 468 271 468Q369 468 434 403.5Q499 339 499 237V229Q499 223 495 218.5Q491 214 485 214H85Q90 132 143.5 80Q197 28 276 28Q324 28 363.5 46.5Q403 65 431 101Q436 107 442 108.5Q448 110 454 106L463 100Q469 96 470.5 90.5Q472 85 469 80Q438 36 387 12Q336 -12 274 -12Q172 -12 106 55.5Q40 123 40 227ZM86 252H455Q448 332 397.5 380Q347 428 270 428Q196 428 145 379Q94 330 86 252Z" glyph-name="e" horiz-adv-x="531" unicode="e" /><glyph d="M40 227Q40 329 106 398.5Q172 468 271 468Q369 468 434 403.5Q499 339 499 237V229Q499 223 495 218.5Q491 214 485 214H85Q90 132 143.5 80Q197 28 276 28Q324 28 363.5 46.5Q403 65 431 101Q436 107 442 108.5Q448 110 454 106L463 100Q469 96 470.5 90.5Q472 85 469 80Q438 36 387 12Q336 -12 274 -12Q172 -12 106 55.5Q40 123 40 227ZM86 252H455Q448 332 397.5 380Q347 428 270 428Q196 428 145 379Q94 330 86 252ZM336 676H362Q367 676 369.5 672Q372 668 370 663L300 536Q296 529 292.5 526Q289 523 283 523H267Q262 523 259.5 526.5Q257 530 259 535L315 662Q318 669 323 672.5Q328 676 336 676Z" glyph-name="eacute" horiz-adv-x="531" unicode="&#233;" /><glyph d="M40 227Q40 329 106 398.5Q172 468 271 468Q369 468 434 403.5Q499 339 499 237V229Q499 223 495 218.5Q491 214 485 214H85Q90 132 143.5 80Q197 28 276 28Q324 28 363.5 46.5Q403 65 431 101Q436 107 442 108.5Q448 110 454 106L463 100Q469 96 470.5 90.5Q472 85 469 80Q438 36 387 12Q336 -12 274 -12Q172 -12 106 55.5Q40 123 40 227ZM86 252H455Q448 332 397.5 380Q347 428 270 428Q196 428 145 379Q94 330 86 252ZM265 518Q219 518 191 543Q163 568 163 609V614Q163 619 166 622Q169 625 174 625H190Q195 625 198 622Q201 619 201 614V612Q201 585 218.5 569.5Q236 554 265 554Q294 554 311.5 569.5Q329 585 329 612V614Q329 619 332 622Q335 625 340 625H356Q361 625 364 622Q367 619 367 614V609Q367 568 339 543Q311 518 265 518Z" glyph-name="ebreve" horiz-adv-x="531" unicode="&#277;" /><glyph d="M40 227Q40 329 106 398.5Q172 468 271 468Q369 468 434 403.5Q499 339 499 237V229Q499 223 495 218.5Q491 214 485 214H85Q90 132 143.5 80Q197 28 276 28Q324 28 363.5 46.5Q403 65 431 101Q436 107 442 108.5Q448 110 454 106L463 100Q469 96 470.5 90.5Q472 85 469 80Q438 36 387 12Q336 -12 274 -12Q172 -12 106 55.5Q40 123 40 227ZM86 252H455Q448 332 397.5 380Q347 428 270 428Q196 428 145 379Q94 330 86 252ZM271 523H262Q253 523 247.5 525.5Q242 528 238 536L149 663Q145 667 147.5 671.5Q150 676 156 676H173Q179 676 183 674Q187 672 192 666L266 567L340 666Q344 672 348.5 674Q353 676 359 676H376Q381 676 383.5 671.5Q386 667 383 663L294 536Q289 528 284 525.5Q279 523 271 523Z" glyph-name="ecaron" horiz-adv-x="531" unicode="&#283;" /><glyph d="M40 227Q40 329 106 398.5Q172 468 271 468Q369 468 434 403.5Q499 339 499 237V229Q499 223 495 218.5Q491 214 485 214H85Q90 132 143.5 80Q197 28 276 28Q324 28 363.5 46.5Q403 65 431 101Q436 107 442 108.5Q448 110 454 106L463 100Q469 96 470.5 90.5Q472 85 469 80Q438 36 387 12Q336 -12 274 -12Q172 -12 106 55.5Q40 123 40 227ZM86 252H455Q448 332 397.5 380Q347 428 270 428Q196 428 145 379Q94 330 86 252ZM262 676H271Q279 676 284 673.5Q289 671 294 663L383 536Q386 532 383.5 527.5Q381 523 376 523H359Q353 523 348.5 525Q344 527 340 533L266 632L192 533Q187 527 183 525Q179 523 173 523H156Q150 523 147.5 527.5Q145 532 149 536L238 663Q242 671 247.5 673.5Q253 676 262 676Z" glyph-name="ecircumflex" horiz-adv-x="531" unicode="&#234;" /><glyph d="M40 227Q40 329 106 398.5Q172 468 271 468Q369 468 434 403.5Q499 339 499 237V229Q499 223 495 218.5Q491 214 485 214H85Q90 132 143.5 80Q197 28 276 28Q324 28 363.5 46.5Q403 65 431 101Q436 107 442 108.5Q448 110 454 106L463 100Q469 96 470.5 90.5Q472 85 469 80Q438 36 387 12Q336 -12 274 -12Q172 -12 106 55.5Q40 123 40 227ZM86 252H455Q448 332 397.5 380Q347 428 270 428Q196 428 145 379Q94 330 86 252ZM341 521Q324 521 311 534Q298 547 298 564Q298 581 311 594Q324 607 341 607Q358 607 371 594Q384 581 384 564Q384 547 371 534Q358 521 341 521ZM190 521Q173 521 160 534Q147 547 147 564Q147 581 160 594Q173 607 190 607Q207 607 220 594Q233 581 233 564Q233 547 220 534Q207 521 190 521Z" glyph-name="edieresis" horiz-adv-x="531" unicode="&#235;" /><glyph d="M40 227Q40 329 106 398.5Q172 468 271 468Q369 468 434 403.5Q499 339 499 237V229Q499 223 495 218.5Q491 214 485 214H85Q90 132 143.5 80Q197 28 276 28Q324 28 363.5 46.5Q403 65 431 101Q436 107 442 108.5Q448 110 454 106L463 100Q469 96 470.5 90.5Q472 85 469 80Q438 36 387 12Q336 -12 274 -12Q172 -12 106 55.5Q40 123 40 227ZM86 252H455Q448 332 397.5 380Q347 428 270 428Q196 428 145 379Q94 330 86 252ZM312 583Q312 564 298.5 550Q285 536 266 536Q247 536 233.5 550Q220 564 220 583Q220 602 233.5 615.5Q247 629 266 629Q285 629 298.5 615.5Q312 602 312 583Z" glyph-name="edotaccent" horiz-adv-x="531" unicode="&#279;" /><glyph d="M40 227Q40 329 106 398.5Q172 468 271 468Q369 468 434 403.5Q499 339 499 237V229Q499 223 495 218.5Q491 214 485 214H85Q90 132 143.5 80Q197 28 276 28Q324 28 363.5 46.5Q403 65 431 101Q436 107 442 108.5Q448 110 454 106L463 100Q469 96 470.5 90.5Q472 85 469 80Q438 36 387 12Q336 -12 274 -12Q172 -12 106 55.5Q40 123 40 227ZM86 252H455Q448 332 397.5 380Q347 428 270 428Q196 428 145 379Q94 330 86 252ZM174 676H200Q208 676 213 672.5Q218 669 221 662L277 535Q279 530 276.5 526.5Q274 523 269 523H253Q247 523 243.5 526Q240 529 236 536L166 663Q164 668 166.5 672Q169 676 174 676Z" glyph-name="egrave" horiz-adv-x="531" unicode="&#232;" /><glyph d="M557 187Q557 99 486.5 43.5Q416 -12 303 -12Q190 -12 119.5 43.5Q49 99 49 187Q49 250 91.5 300Q134 350 207 371Q150 390 117 434Q84 478 84 533Q84 611 146.5 661.5Q209 712 303 712Q397 712 459.5 661.5Q522 611 522 533Q522 478 489 434Q456 390 400 371Q472 350 514.5 300Q557 250 557 187ZM126 533Q126 472 176 430.5Q226 389 303 389Q380 389 430 430.5Q480 472 480 533Q480 594 430 635.5Q380 677 303 677Q226 677 176 635.5Q126 594 126 533ZM513 187Q513 257 454.5 303.5Q396 350 303 350Q210 350 151.5 303.5Q93 257 93 187Q93 117 151.5 70.5Q210 24 303 24Q396 24 454.5 70.5Q513 117 513 187Z" glyph-name="eight" horiz-adv-x="606" unicode="8" /><glyph d="M294 96Q294 50 257 21Q220 -8 162 -8Q103 -8 66.5 21Q30 50 30 96Q30 128 50.5 153Q71 178 104 186Q77 195 61.5 216Q46 237 46 263Q46 304 79 330Q112 356 162 356Q212 356 245 330Q278 304 278 263Q278 236 262 215.5Q246 195 219 186Q252 178 273 152.5Q294 127 294 96ZM238 262Q238 288 216.5 305.5Q195 323 162 323Q129 323 107.5 305.5Q86 288 86 262Q86 236 107.5 218.5Q129 201 162 201Q195 201 216.5 218.5Q238 236 238 262ZM252 97Q252 127 227 147Q202 167 162 167Q122 167 97 147Q72 127 72 97Q72 66 97 46.5Q122 27 162 27Q202 27 227 46.5Q252 66 252 97Z" glyph-name="eight.dnom" horiz-adv-x="324" /><glyph d="M294 444Q294 398 257 369Q220 340 162 340Q103 340 66.5 369Q30 398 30 444Q30 476 50.5 501Q71 526 104 534Q77 543 61.5 564Q46 585 46 611Q46 652 79 678Q112 704 162 704Q212 704 245 678Q278 652 278 611Q278 584 262 563.5Q246 543 219 534Q252 526 273 500.5Q294 475 294 444ZM238 610Q238 636 216.5 653.5Q195 671 162 671Q129 671 107.5 653.5Q86 636 86 610Q86 584 107.5 566.5Q129 549 162 549Q195 549 216.5 566.5Q238 584 238 610ZM252 445Q252 475 227 495Q202 515 162 515Q122 515 97 495Q72 475 72 445Q72 414 97 394.5Q122 375 162 375Q202 375 227 394.5Q252 414 252 445Z" glyph-name="eight.numr" horiz-adv-x="324" /><glyph d="M557 187Q557 99 486.5 43.5Q416 -12 303 -12Q190 -12 119.5 43.5Q49 99 49 187Q49 250 91.5 300Q134 350 207 371Q150 390 117 434Q84 478 84 533Q84 611 146.5 661.5Q209 712 303 712Q397 712 459.5 661.5Q522 611 522 533Q522 478 489 434Q456 390 400 371Q472 350 514.5 300Q557 250 557 187ZM126 533Q126 472 176 430.5Q226 389 303 389Q380 389 430 430.5Q480 472 480 533Q480 594 430 635.5Q380 677 303 677Q226 677 176 635.5Q126 594 126 533ZM513 187Q513 257 454.5 303.5Q396 350 303 350Q210 350 151.5 303.5Q93 257 93 187Q93 117 151.5 70.5Q210 24 303 24Q396 24 454.5 70.5Q513 117 513 187Z" glyph-name="eight.onum" horiz-adv-x="606" /><glyph d="M551 187Q551 99 480.5 43.5Q410 -12 297 -12Q184 -12 113.5 43.5Q43 99 43 187Q43 250 85.5 300Q128 350 201 371Q144 390 111 434Q78 478 78 533Q78 611 140.5 661.5Q203 712 297 712Q391 712 453.5 661.5Q516 611 516 533Q516 478 483 434Q450 390 394 371Q466 350 508.5 300Q551 250 551 187ZM120 533Q120 472 170 430.5Q220 389 297 389Q374 389 424 430.5Q474 472 474 533Q474 594 424 635.5Q374 677 297 677Q220 677 170 635.5Q120 594 120 533ZM507 187Q507 257 448.5 303.5Q390 350 297 350Q204 350 145.5 303.5Q87 257 87 187Q87 117 145.5 70.5Q204 24 297 24Q390 24 448.5 70.5Q507 117 507 187Z" glyph-name="eight.tnum" horiz-adv-x="594" /><glyph d="M294 -54Q294 -100 257 -129Q220 -158 162 -158Q103 -158 66.5 -129Q30 -100 30 -54Q30 -22 50.5 3Q71 28 104 36Q77 45 61.5 66Q46 87 46 113Q46 154 79 180Q112 206 162 206Q212 206 245 180Q278 154 278 113Q278 86 262 65.5Q246 45 219 36Q252 28 273 2.5Q294 -23 294 -54ZM238 112Q238 138 216.5 155.5Q195 173 162 173Q129 173 107.5 155.5Q86 138 86 112Q86 86 107.5 68.5Q129 51 162 51Q195 51 216.5 68.5Q238 86 238 112ZM252 -53Q252 -23 227 -3Q202 17 162 17Q122 17 97 -3Q72 -23 72 -53Q72 -84 97 -103.5Q122 -123 162 -123Q202 -123 227 -103.5Q252 -84 252 -53Z" glyph-name="eightinferior" horiz-adv-x="324" unicode="&#8328;" /><glyph d="M294 594Q294 548 257 519Q220 490 162 490Q103 490 66.5 519Q30 548 30 594Q30 626 50.5 651Q71 676 104 684Q77 693 61.5 714Q46 735 46 761Q46 802 79 828Q112 854 162 854Q212 854 245 828Q278 802 278 761Q278 734 262 713.5Q246 693 219 684Q252 676 273 650.5Q294 625 294 594ZM238 760Q238 786 216.5 803.5Q195 821 162 821Q129 821 107.5 803.5Q86 786 86 760Q86 734 107.5 716.5Q129 699 162 699Q195 699 216.5 716.5Q238 734 238 760ZM252 595Q252 625 227 645Q202 665 162 665Q122 665 97 645Q72 625 72 595Q72 564 97 544.5Q122 525 162 525Q202 525 227 544.5Q252 564 252 595Z" glyph-name="eightsuperior" horiz-adv-x="324" unicode="&#8312;" /><glyph d="M656 44Q656 21 639.5 4.5Q623 -12 600 -12Q577 -12 560.5 4.5Q544 21 544 44Q544 67 560.5 83.5Q577 100 600 100Q623 100 639.5 83.5Q656 67 656 44ZM414 44Q414 21 397.5 4.5Q381 -12 358 -12Q335 -12 318.5 4.5Q302 21 302 44Q302 67 318.5 83.5Q335 100 358 100Q381 100 397.5 83.5Q414 67 414 44ZM172 44Q172 21 155.5 4.5Q139 -12 116 -12Q93 -12 76.5 4.5Q60 21 60 44Q60 67 76.5 83.5Q93 100 116 100Q139 100 155.5 83.5Q172 67 172 44Z" glyph-name="ellipsis" horiz-adv-x="716" unicode="&#8230;" /><glyph d="M40 227Q40 329 106 398.5Q172 468 271 468Q369 468 434 403.5Q499 339 499 237V229Q499 223 495 218.5Q491 214 485 214H85Q90 132 143.5 80Q197 28 276 28Q324 28 363.5 46.5Q403 65 431 101Q436 107 442 108.5Q448 110 454 106L463 100Q469 96 470.5 90.5Q472 85 469 80Q438 36 387 12Q336 -12 274 -12Q172 -12 106 55.5Q40 123 40 227ZM86 252H455Q448 332 397.5 380Q347 428 270 428Q196 428 145 379Q94 330 86 252ZM366 546H166Q160 546 155.5 550.5Q151 555 151 561V568Q151 574 155.5 578.5Q160 583 166 583H366Q372 583 376.5 578.5Q381 574 381 568V561Q381 555 376.5 550.5Q372 546 366 546Z" glyph-name="emacron" horiz-adv-x="531" unicode="&#275;" /><glyph d="M946 236H79Q73 236 68.5 240.5Q64 245 64 251V265Q64 271 68.5 275.5Q73 280 79 280H946Q952 280 956.5 275.5Q961 271 961 265V251Q961 245 956.5 240.5Q952 236 946 236Z" glyph-name="emdash" horiz-adv-x="1025" unicode="&#8212;" /><glyph d="M962 236H95Q89 236 84.5 240.5Q80 245 80 251V265Q80 271 84.5 275.5Q89 280 95 280H962Q968 280 972.5 275.5Q977 271 977 265V251Q977 245 972.5 240.5Q968 236 962 236Z" glyph-name="emdash.alt" horiz-adv-x="1077" /><glyph d="M476 236H79Q73 236 68.5 240.5Q64 245 64 251V265Q64 271 68.5 275.5Q73 280 79 280H476Q482 280 486.5 275.5Q491 271 491 265V251Q491 245 486.5 240.5Q482 236 476 236Z" glyph-name="endash" horiz-adv-x="555" unicode="&#8211;" /><glyph d="M492 236H95Q89 236 84.5 240.5Q80 245 80 251V265Q80 271 84.5 275.5Q89 280 95 280H492Q498 280 502.5 275.5Q507 271 507 265V251Q507 245 502.5 240.5Q498 236 492 236Z" glyph-name="endash.alt" horiz-adv-x="607" /><glyph d="M362 -216Q336 -216 314 -209.5Q292 -203 274 -190Q270 -187 269.5 -182Q269 -177 272 -172L277 -164Q281 -158 286.5 -156.5Q292 -155 298 -159Q312 -168 329.5 -173.5Q347 -179 361 -179Q402 -179 424 -155Q446 -131 446 -85V261Q446 341 404.5 385Q363 429 287 429Q211 429 164.5 382.5Q118 336 118 261V15Q118 9 113.5 4.5Q109 0 103 0H89Q83 0 78.5 4.5Q74 9 74 15V441Q74 447 78.5 451.5Q83 456 89 456H103Q109 456 113.5 451.5Q118 447 118 441V365Q138 412 185 440Q232 468 293 468Q383 468 436.5 414Q490 360 490 269V-83Q490 -147 455.5 -181.5Q421 -216 362 -216Z" glyph-name="eng" horiz-adv-x="557" unicode="&#331;" /><glyph d="M327 -164Q293 -164 273 -145.5Q253 -127 253 -97Q253 -78 263 -56.5Q273 -35 293 -11Q289 -12 285 -12Q281 -12 274 -12Q172 -12 106 55.5Q40 123 40 227Q40 329 106 398.5Q172 468 271 468Q369 468 434 403.5Q499 339 499 237V229Q499 223 495 218.5Q491 214 485 214H85Q90 132 143.5 80Q197 28 276 28Q324 28 363.5 46.5Q403 65 431 101Q436 107 442 108.5Q448 110 454 106L463 100Q469 96 470.5 90.5Q472 85 469 80Q446 48 412.5 26.5Q379 5 337 -5Q318 -30 306.5 -53.5Q295 -77 295 -93Q295 -111 305.5 -121Q316 -131 336 -131Q343 -131 350.5 -130Q358 -129 365 -127Q370 -126 373.5 -129Q377 -132 376 -137L375 -147Q374 -155 359.5 -159.5Q345 -164 327 -164ZM86 252H455Q448 332 397.5 380Q347 428 270 428Q196 428 145 379Q94 330 86 252Z" glyph-name="eogonek" horiz-adv-x="531" unicode="&#281;" /><glyph d="M458 427H85Q79 427 74.5 431.5Q70 436 70 442V454Q70 460 74.5 464.5Q79 469 85 469H458Q464 469 468.5 464.5Q473 460 473 454V442Q473 436 468.5 431.5Q464 427 458 427ZM458 230H85Q79 230 74.5 234.5Q70 239 70 245V257Q70 263 74.5 267.5Q79 272 85 272H458Q464 272 468.5 267.5Q473 263 473 257V245Q473 239 468.5 234.5Q464 230 458 230Z" glyph-name="equal" horiz-adv-x="542" unicode="=" /><glyph d="M829 344H209Q204 344 202 341.5Q200 339 200 332V160Q200 103 278 61.5Q356 20 447 20Q523 20 589 46Q655 72 702 120Q709 127 713 129Q717 131 723 131H744Q749 131 750.5 127Q752 123 749 119Q694 56 616 22.5Q538 -11 447 -11Q279 -11 165.5 94Q52 199 52 353Q52 505 165 608.5Q278 712 447 712Q622 712 730 614.5Q838 517 844 359Q844 353 839.5 348.5Q835 344 829 344ZM200 522V384Q200 379 202 377Q204 375 209 375H686Q691 375 693 377Q695 379 695 384V522Q695 598 628.5 640Q562 682 447 682Q336 682 268 639.5Q200 597 200 522Z" glyph-name="estimated" horiz-adv-x="879" unicode="&#8494;" /><glyph d="M504 240Q504 130 438 59Q372 -12 271 -12Q173 -12 106.5 57Q40 126 40 228Q40 331 106 400Q172 469 269 469Q315 469 362.5 447Q410 425 437 390Q414 441 377.5 491.5Q341 542 293 589L202 526Q198 522 192 522.5Q186 523 183 528L177 536Q174 541 175 546.5Q176 552 181 555L266 613Q240 636 211 658Q182 680 151 700Q147 702 147.5 706Q148 710 152 710L189 713Q194 713 197.5 712Q201 711 203 710Q228 693 252.5 674.5Q277 656 299 637L390 699Q395 703 400.5 702Q406 701 409 696L414 689Q417 684 416 679Q415 674 410 670L326 612Q414 527 459 433Q504 339 504 240ZM271 429Q190 429 137 371.5Q84 314 84 228Q84 142 137 85Q190 28 271 28Q352 28 405 85Q458 142 458 228Q458 314 405 371.5Q352 429 271 429Z" glyph-name="eth" horiz-adv-x="548" unicode="&#240;" /><glyph d="M146 685 140 238Q140 232 135.5 227.5Q131 223 125 223H115Q109 223 104.5 227.5Q100 232 100 238L93 685Q93 691 97.5 695.5Q102 700 108 700H131Q137 700 141.5 695.5Q146 691 146 685ZM175 44Q175 21 158.5 4.5Q142 -12 119 -12Q96 -12 79.5 4.5Q63 21 63 44Q63 67 79.5 83.5Q96 100 119 100Q142 100 158.5 83.5Q175 67 175 44Z" glyph-name="exclam" horiz-adv-x="239" unicode="!" /><glyph d="M125 219 131 -228Q131 -234 126.5 -238.5Q122 -243 116 -243H93Q87 -243 82.5 -238.5Q78 -234 78 -228L85 219Q85 225 89.5 229.5Q94 234 100 234H110Q116 234 120.5 229.5Q125 225 125 219ZM48 413Q48 436 64.5 452.5Q81 469 104 469Q127 469 143.5 452.5Q160 436 160 413Q160 390 143.5 373.5Q127 357 104 357Q81 357 64.5 373.5Q48 390 48 413Z" glyph-name="exclamdown" horiz-adv-x="209" unicode="&#161;" /><glyph d="M147 463 153 16Q153 10 148.5 5.5Q144 1 138 1H115Q109 1 104.5 5.5Q100 10 100 16L107 463Q107 469 111.5 473.5Q116 478 122 478H132Q138 478 142.5 473.5Q147 469 147 463ZM70 657Q70 680 86.5 696.5Q103 713 126 713Q149 713 165.5 696.5Q182 680 182 657Q182 634 165.5 617.5Q149 601 126 601Q103 601 86.5 617.5Q70 634 70 657Z" glyph-name="exclamdown.alt" horiz-adv-x="253" /><glyph d="M26 456H100V576Q100 637 136 673.5Q172 710 229 710Q254 710 276.5 703Q299 696 317 684Q322 681 322.5 676Q323 671 318 665L311 656Q307 651 301.5 651Q296 651 288 656Q274 664 258.5 668Q243 672 228 672Q190 672 167 646Q144 620 144 578V456H250Q256 456 260.5 451.5Q265 447 265 441V433Q265 427 260.5 422.5Q256 418 250 418H144V15Q144 9 139.5 4.5Q135 0 129 0H115Q109 0 104.5 4.5Q100 9 100 15V418H26Q20 418 15.5 422.5Q11 427 11 433V441Q11 447 15.5 451.5Q20 456 26 456Z" glyph-name="f" horiz-adv-x="273" unicode="f" /><glyph d="M144 456H324V685Q324 691 328.5 695.5Q333 700 339 700H353Q359 700 363.5 695.5Q368 691 368 685V356Q392 407 442.5 437.5Q493 468 554 468Q651 468 717.5 399Q784 330 784 227Q784 125 718 56.5Q652 -12 554 -12Q493 -12 443 18.5Q393 49 368 100V15Q368 9 363.5 4.5Q359 0 353 0H339Q333 0 328.5 4.5Q324 9 324 15V418H144V15Q144 9 139.5 4.5Q135 0 129 0H115Q109 0 104.5 4.5Q100 9 100 15V418H26Q20 418 15.5 422.5Q11 427 11 433V441Q11 447 15.5 451.5Q20 456 26 456H100V576Q100 635 133 667.5Q166 700 222 700H237Q242 700 246 696Q250 692 250 687V673Q250 669 247 665.5Q244 662 239 662H226Q184 661 164 640.5Q144 620 144 578ZM553 428Q473 428 420 370.5Q367 313 367 227Q367 142 420 85Q473 28 553 28Q633 28 686 85Q739 142 739 227Q739 313 686 370.5Q633 428 553 428Z" glyph-name="f_b" horiz-adv-x="824" /><glyph d="M452 672Q414 672 391 646Q368 620 368 578V456H474Q480 456 484.5 451.5Q489 447 489 441V433Q489 427 484.5 422.5Q480 418 474 418H368V15Q368 9 363.5 4.5Q359 0 353 0H339Q333 0 328.5 4.5Q324 9 324 15V418H144V15Q144 9 139.5 4.5Q135 0 129 0H115Q109 0 104.5 4.5Q100 9 100 15V418H26Q20 418 15.5 422.5Q11 427 11 433V441Q11 447 15.5 451.5Q20 456 26 456H100V576Q100 635 133 667.5Q166 700 222 700H237Q242 700 246 696Q250 692 250 687V673Q250 669 247 665.5Q244 662 239 662H226Q184 661 164 640.5Q144 620 144 578V456H324V576Q324 637 360 673.5Q396 710 453 710Q478 710 500.5 703Q523 696 541 684Q546 681 546.5 676Q547 671 542 665L535 656Q531 651 525.5 651Q520 651 512 656Q498 664 482.5 668Q467 672 452 672Z" glyph-name="f_f" horiz-adv-x="497" /><glyph d="M778 468Q875 468 941.5 399Q1008 330 1008 227Q1008 125 942 56.5Q876 -12 778 -12Q717 -12 667 18.5Q617 49 592 100V15Q592 9 587.5 4.5Q583 0 577 0H563Q557 0 552.5 4.5Q548 9 548 15V418H368V15Q368 9 363.5 4.5Q359 0 353 0H339Q333 0 328.5 4.5Q324 9 324 15V418H144V15Q144 9 139.5 4.5Q135 0 129 0H115Q109 0 104.5 4.5Q100 9 100 15V418H26Q20 418 15.5 422.5Q11 427 11 433V441Q11 447 15.5 451.5Q20 456 26 456H100V576Q100 635 133 667.5Q166 700 222 700H237Q242 700 246 696Q250 692 250 687V673Q250 669 247 665.5Q244 662 239 662H226Q184 661 164 640.5Q144 620 144 578V456H324V576Q324 635 357 667.5Q390 700 446 700H461Q466 700 470 696Q474 692 474 687V673Q474 669 471 665.5Q468 662 463 662H450Q408 661 388 640.5Q368 620 368 578V456H548V685Q548 691 552.5 695.5Q557 700 563 700H577Q583 700 587.5 695.5Q592 691 592 685V356Q616 407 666.5 437.5Q717 468 778 468ZM777 428Q697 428 644 370.5Q591 313 591 227Q591 142 644 85Q697 28 777 28Q857 28 910 85Q963 142 963 227Q963 313 910 370.5Q857 428 777 428Z" glyph-name="f_f_b" horiz-adv-x="1048" /><glyph d="M676 672Q638 672 615 646Q592 620 592 578V456H698Q704 456 708.5 451.5Q713 447 713 441V433Q713 427 708.5 422.5Q704 418 698 418H592V15Q592 9 587.5 4.5Q583 0 577 0H563Q557 0 552.5 4.5Q548 9 548 15V418H368V15Q368 9 363.5 4.5Q359 0 353 0H339Q333 0 328.5 4.5Q324 9 324 15V418H144V15Q144 9 139.5 4.5Q135 0 129 0H115Q109 0 104.5 4.5Q100 9 100 15V418H26Q20 418 15.5 422.5Q11 427 11 433V441Q11 447 15.5 451.5Q20 456 26 456H100V576Q100 635 133 667.5Q166 700 222 700H237Q242 700 246 696Q250 692 250 687V673Q250 669 247 665.5Q244 662 239 662H226Q184 661 164 640.5Q144 620 144 578V456H324V576Q324 635 357 667.5Q390 700 446 700H461Q466 700 470 696Q474 692 474 687V673Q474 669 471 665.5Q468 662 463 662H450Q408 661 388 640.5Q368 620 368 578V456H548V576Q548 637 584 673.5Q620 710 677 710Q702 710 724.5 703Q747 696 765 684Q770 681 770.5 676Q771 671 766 665L759 656Q755 651 749.5 651Q744 651 736 656Q722 664 706.5 668Q691 672 676 672Z" glyph-name="f_f_f" horiz-adv-x="721" /><glyph d="M368 578V456H548V685Q548 691 552.5 695.5Q557 700 563 700H577Q583 700 587.5 695.5Q592 691 592 685V365Q612 412 659 440Q706 468 767 468Q857 468 910.5 414Q964 360 964 269V15Q964 9 959.5 4.5Q955 0 949 0H935Q929 0 924.5 4.5Q920 9 920 15V261Q920 341 878.5 385Q837 429 761 429Q685 429 638.5 382.5Q592 336 592 261V15Q592 9 587.5 4.5Q583 0 577 0H563Q557 0 552.5 4.5Q548 9 548 15V418H368V15Q368 9 363.5 4.5Q359 0 353 0H339Q333 0 328.5 4.5Q324 9 324 15V418H144V15Q144 9 139.5 4.5Q135 0 129 0H115Q109 0 104.5 4.5Q100 9 100 15V418H26Q20 418 15.5 422.5Q11 427 11 433V441Q11 447 15.5 451.5Q20 456 26 456H100V576Q100 635 133 667.5Q166 700 222 700H237Q242 700 246 696Q250 692 250 687V673Q250 669 247 665.5Q244 662 239 662H226Q184 661 164 640.5Q144 620 144 578V456H324V576Q324 635 357 667.5Q390 700 446 700H461Q466 700 470 696Q474 692 474 687V673Q474 669 471 665.5Q468 662 463 662H450Q408 661 388 640.5Q368 620 368 578Z" glyph-name="f_f_h" horiz-adv-x="1031" /><glyph d="M324 456V576Q324 637 360 673.5Q396 710 453 710Q478 710 500.5 703Q523 696 541 684Q546 681 546.5 676Q547 671 542 665L535 656Q531 651 525.5 651Q520 651 512 656Q498 664 482.5 668Q467 672 452 672Q414 672 391 646Q368 620 368 578V456H577Q583 456 587.5 451.5Q592 447 592 441V15Q592 9 587.5 4.5Q583 0 577 0H563Q557 0 552.5 4.5Q548 9 548 15V418H368V15Q368 9 363.5 4.5Q359 0 353 0H339Q333 0 328.5 4.5Q324 9 324 15V418H144V15Q144 9 139.5 4.5Q135 0 129 0H115Q109 0 104.5 4.5Q100 9 100 15V418H26Q20 418 15.5 422.5Q11 427 11 433V441Q11 447 15.5 451.5Q20 456 26 456H100V576Q100 635 133 667.5Q166 700 222 700H237Q242 700 246 696Q250 692 250 687V673Q250 669 247 665.5Q244 662 239 662H226Q184 661 164 640.5Q144 620 144 578V456Z" glyph-name="f_f_i" horiz-adv-x="666" unicode="&#64259;" /><glyph d="M452 672Q414 672 391 646Q368 620 368 578V456H577Q583 456 587.5 451.5Q592 447 592 441V-83Q592 -147 557.5 -181.5Q523 -216 464 -216Q438 -216 416 -209.5Q394 -203 376 -190Q372 -187 371.5 -182Q371 -177 374 -172L379 -164Q383 -158 388.5 -156.5Q394 -155 400 -159Q414 -168 431.5 -173.5Q449 -179 463 -179Q504 -179 526 -155Q548 -131 548 -85V418H368V15Q368 9 363.5 4.5Q359 0 353 0H339Q333 0 328.5 4.5Q324 9 324 15V418H144V15Q144 9 139.5 4.5Q135 0 129 0H115Q109 0 104.5 4.5Q100 9 100 15V418H26Q20 418 15.5 422.5Q11 427 11 433V441Q11 447 15.5 451.5Q20 456 26 456H100V576Q100 635 133 667.5Q166 700 222 700H237Q242 700 246 696Q250 692 250 687V673Q250 669 247 665.5Q244 662 239 662H226Q184 661 164 640.5Q144 620 144 578V456H324V576Q324 637 360 673.5Q396 710 453 710Q478 710 500.5 703Q523 696 541 684Q546 681 546.5 676Q547 671 542 665L535 656Q531 651 525.5 651Q520 651 512 656Q498 664 482.5 668Q467 672 452 672Z" glyph-name="f_f_j" horiz-adv-x="666" /><glyph d="M144 418V15Q144 9 139.5 4.5Q135 0 129 0H115Q109 0 104.5 4.5Q100 9 100 15V418H26Q20 418 15.5 422.5Q11 427 11 433V441Q11 447 15.5 451.5Q20 456 26 456H100V576Q100 635 133 667.5Q166 700 222 700H237Q242 700 246 696Q250 692 250 687V673Q250 669 247 665.5Q244 662 239 662H226Q184 661 164 640.5Q144 620 144 578V456H324V576Q324 635 357 667.5Q390 700 446 700H461Q466 700 470 696Q474 692 474 687V673Q474 669 471 665.5Q468 662 463 662H450Q408 661 388 640.5Q368 620 368 578V456H548V685Q548 691 552.5 695.5Q557 700 563 700H577Q583 700 587.5 695.5Q592 691 592 685V276H641L830 449Q835 453 838 454.5Q841 456 844 456H882Q886 456 887.5 452.5Q889 449 886 446L675 257L918 11Q921 8 919.5 4Q918 0 914 0H885Q878 0 871 3Q864 6 859 11L637 238H592V15Q592 9 587.5 4.5Q583 0 577 0H563Q557 0 552.5 4.5Q548 9 548 15V418H368V15Q368 9 363.5 4.5Q359 0 353 0H339Q333 0 328.5 4.5Q324 9 324 15V418Z" glyph-name="f_f_k" horiz-adv-x="918" /><glyph d="M368 456H548V685Q548 691 552.5 695.5Q557 700 563 700H577Q583 700 587.5 695.5Q592 691 592 685V109Q592 73 609 55.5Q626 38 661 38H682Q688 38 692.5 33.5Q697 29 697 23V15Q697 9 692.5 4.5Q688 0 682 0H655Q603 0 575.5 27.5Q548 55 548 108V418H368V15Q368 9 363.5 4.5Q359 0 353 0H339Q333 0 328.5 4.5Q324 9 324 15V418H144V15Q144 9 139.5 4.5Q135 0 129 0H115Q109 0 104.5 4.5Q100 9 100 15V418H26Q20 418 15.5 422.5Q11 427 11 433V441Q11 447 15.5 451.5Q20 456 26 456H100V576Q100 635 133 667.5Q166 700 222 700H237Q242 700 246 696Q250 692 250 687V673Q250 669 247 665.5Q244 662 239 662H226Q184 661 164 640.5Q144 620 144 578V456H324V576Q324 635 357 667.5Q390 700 446 700H461Q466 700 470 696Q474 692 474 687V673Q474 669 471 665.5Q468 662 463 662H450Q408 661 388 640.5Q368 620 368 578Z" glyph-name="f_f_l" horiz-adv-x="698" unicode="&#64260;" /><glyph d="M592 418V127Q592 82 613 57.5Q634 33 673 33Q689 33 705 37.5Q721 42 738 51Q747 56 752.5 55.5Q758 55 762 49L768 39Q771 34 770 29.5Q769 25 765 22Q748 9 723 2Q698 -5 669 -5Q615 -5 581.5 29Q548 63 548 123V418H368V15Q368 9 363.5 4.5Q359 0 353 0H339Q333 0 328.5 4.5Q324 9 324 15V418H144V15Q144 9 139.5 4.5Q135 0 129 0H115Q109 0 104.5 4.5Q100 9 100 15V418H26Q20 418 15.5 422.5Q11 427 11 433V441Q11 447 15.5 451.5Q20 456 26 456H100V576Q100 635 133 667.5Q166 700 222 700H237Q242 700 246 696Q250 692 250 687V673Q250 669 247 665.5Q244 662 239 662H226Q184 661 164 640.5Q144 620 144 578V456H324V576Q324 635 357 667.5Q390 700 446 700H461Q466 700 470 696Q474 692 474 687V673Q474 669 471 665.5Q468 662 463 662H450Q408 661 388 640.5Q368 620 368 578V456H548V615Q548 621 552.5 625.5Q557 630 563 630H577Q583 630 587.5 625.5Q592 621 592 615V456H744Q750 456 754.5 451.5Q759 447 759 441V433Q759 427 754.5 422.5Q750 418 744 418Z" glyph-name="f_f_t" horiz-adv-x="775" /><glyph d="M144 578V456H324V685Q324 691 328.5 695.5Q333 700 339 700H353Q359 700 363.5 695.5Q368 691 368 685V365Q388 412 435 440Q482 468 543 468Q633 468 686.5 414Q740 360 740 269V15Q740 9 735.5 4.5Q731 0 725 0H711Q705 0 700.5 4.5Q696 9 696 15V261Q696 341 654.5 385Q613 429 537 429Q461 429 414.5 382.5Q368 336 368 261V15Q368 9 363.5 4.5Q359 0 353 0H339Q333 0 328.5 4.5Q324 9 324 15V418H144V15Q144 9 139.5 4.5Q135 0 129 0H115Q109 0 104.5 4.5Q100 9 100 15V418H26Q20 418 15.5 422.5Q11 427 11 433V441Q11 447 15.5 451.5Q20 456 26 456H100V576Q100 635 133 667.5Q166 700 222 700H237Q242 700 246 696Q250 692 250 687V673Q250 669 247 665.5Q244 662 239 662H226Q184 661 164 640.5Q144 620 144 578Z" glyph-name="f_h" horiz-adv-x="807" /><glyph d="M228 672Q190 672 167 646Q144 620 144 578V456H353Q359 456 363.5 451.5Q368 447 368 441V-83Q368 -147 333.5 -181.5Q299 -216 240 -216Q214 -216 192 -209.5Q170 -203 152 -190Q148 -187 147.5 -182Q147 -177 150 -172L155 -164Q159 -158 164.5 -156.5Q170 -155 176 -159Q190 -168 207.5 -173.5Q225 -179 239 -179Q280 -179 302 -155Q324 -131 324 -85V418H144V15Q144 9 139.5 4.5Q135 0 129 0H115Q109 0 104.5 4.5Q100 9 100 15V418H26Q20 418 15.5 422.5Q11 427 11 433V441Q11 447 15.5 451.5Q20 456 26 456H100V576Q100 637 136 673.5Q172 710 229 710Q254 710 276.5 703Q299 696 317 684Q322 681 322.5 676Q323 671 318 665L311 656Q307 651 301.5 651Q296 651 288 656Q274 664 258.5 668Q243 672 228 672Z" glyph-name="f_j" horiz-adv-x="442" /><glyph d="M144 418V15Q144 9 139.5 4.5Q135 0 129 0H115Q109 0 104.5 4.5Q100 9 100 15V418H26Q20 418 15.5 422.5Q11 427 11 433V441Q11 447 15.5 451.5Q20 456 26 456H100V576Q100 635 133 667.5Q166 700 222 700H237Q242 700 246 696Q250 692 250 687V673Q250 669 247 665.5Q244 662 239 662H226Q184 661 164 640.5Q144 620 144 578V456H324V685Q324 691 328.5 695.5Q333 700 339 700H353Q359 700 363.5 695.5Q368 691 368 685V276H417L606 449Q611 453 614 454.5Q617 456 620 456H658Q662 456 663.5 452.5Q665 449 662 446L451 257L694 11Q697 8 695.5 4Q694 0 690 0H661Q654 0 647 3Q640 6 635 11L413 238H368V15Q368 9 363.5 4.5Q359 0 353 0H339Q333 0 328.5 4.5Q324 9 324 15V418Z" glyph-name="f_k" horiz-adv-x="694" /><glyph d="M465 -5Q411 -5 377.5 29Q344 63 344 123V418H144V15Q144 9 139.5 4.5Q135 0 129 0H115Q109 0 104.5 4.5Q100 9 100 15V418H26Q20 418 15.5 422.5Q11 427 11 433V441Q11 447 15.5 451.5Q20 456 26 456H100V576Q100 635 133 667.5Q166 700 222 700H237Q242 700 246 696Q250 692 250 687V673Q250 669 247 665.5Q244 662 239 662H226Q184 661 164 640.5Q144 620 144 578V456H344V615Q344 621 348.5 625.5Q353 630 359 630H373Q379 630 383.5 625.5Q388 621 388 615V456H540Q546 456 550.5 451.5Q555 447 555 441V433Q555 427 550.5 422.5Q546 418 540 418H388V127Q388 82 409 57.5Q430 33 469 33Q485 33 501 37.5Q517 42 534 51Q543 56 548.5 55.5Q554 55 558 49L564 39Q567 34 566 29.5Q565 25 561 22Q544 9 519 2Q494 -5 465 -5Z" glyph-name="f_t" horiz-adv-x="571" /><glyph d="M324 418H144V15Q144 9 139.5 4.5Q135 0 129 0H115Q109 0 104.5 4.5Q100 9 100 15V418H26Q20 418 15.5 422.5Q11 427 11 433V441Q11 447 15.5 451.5Q20 456 26 456H100V576Q100 637 136.5 673.5Q173 710 229 710Q254 710 276.5 703Q299 696 317 684Q321 681 321.5 675.5Q322 670 319 665L312 657Q308 652 301.5 651.5Q295 651 288 656Q274 664 258.5 668Q243 672 228 672Q190 672 167 646Q144 620 144 578V456H353Q359 456 363.5 451.5Q368 447 368 441V15Q368 9 363.5 4.5Q359 0 353 0H339Q333 0 328.5 4.5Q324 9 324 15Z" glyph-name="fi" horiz-adv-x="442" unicode="&#64257;" /><glyph d="M775 0H105Q99 0 94.5 4.5Q90 9 90 15V685Q90 691 94.5 695.5Q99 700 105 700H775Q781 700 785.5 695.5Q790 691 790 685V15Q790 9 785.5 4.5Q781 0 775 0Z" glyph-name="filledbox" horiz-adv-x="880" unicode="&#9632;" /><glyph d="M518 222Q518 121 448.5 54.5Q379 -12 272 -12Q194 -12 132.5 23.5Q71 59 46 118Q43 124 45.5 129.5Q48 135 54 138L68 144Q74 146 79.5 144Q85 142 87 136Q109 85 159 55Q209 25 274 25Q359 25 416 81.5Q473 138 473 219Q473 302 417.5 355Q362 408 277 408Q234 408 194.5 393Q155 378 118 348Q111 342 105.5 340.5Q100 339 93 340L85 342Q79 344 75 348Q71 352 72 358L99 685Q100 691 104.5 695.5Q109 700 115 700H472Q478 700 482.5 695.5Q487 691 487 685V673Q487 667 482.5 662.5Q478 658 472 658H136L114 388Q150 415 194 430Q238 445 284 445Q386 445 452 382.5Q518 320 518 222Z" glyph-name="five" horiz-adv-x="561" unicode="5" /><glyph d="M276 114Q276 62 240 28Q204 -6 148 -6Q108 -6 76.5 10.5Q45 27 29 55Q26 60 27 64Q28 68 33 71L48 81Q53 84 57.5 82.5Q62 81 65 76Q77 55 99 43Q121 31 148 31Q184 31 208.5 54.5Q233 78 233 112Q233 147 209.5 169.5Q186 192 149 192Q131 192 114.5 186.5Q98 181 83 169Q78 165 73.5 163.5Q69 162 64 164L47 168Q43 170 41.5 172Q40 174 40 179L52 342Q53 346 56 349Q59 352 64 352H248Q253 352 256 349Q259 346 259 341V325Q259 321 256 317.5Q253 314 248 314H86L78 203Q95 215 116 221.5Q137 228 158 228Q209 228 242.5 196Q276 164 276 114Z" glyph-name="five.dnom" horiz-adv-x="301" /><glyph d="M276 462Q276 410 240 376Q204 342 148 342Q108 342 76.5 358.5Q45 375 29 403Q26 408 27 412Q28 416 33 419L48 429Q53 432 57.5 430.5Q62 429 65 424Q77 403 99 391Q121 379 148 379Q184 379 208.5 402.5Q233 426 233 460Q233 495 209.5 517.5Q186 540 149 540Q131 540 114.5 534.5Q98 529 83 517Q78 513 73.5 511.5Q69 510 64 512L47 516Q43 518 41.5 520Q40 522 40 527L52 690Q53 694 56 697Q59 700 64 700H248Q253 700 256 697Q259 694 259 689V673Q259 669 256 665.5Q253 662 248 662H86L78 551Q95 563 116 569.5Q137 576 158 576Q209 576 242.5 544Q276 512 276 462Z" glyph-name="five.numr" horiz-adv-x="301" /><glyph d="M519 50Q519 -51 449.5 -117.5Q380 -184 273 -184Q195 -184 133.5 -148.5Q72 -113 47 -54Q44 -48 46.5 -42.5Q49 -37 55 -34L69 -28Q75 -26 80.5 -28Q86 -30 88 -36Q110 -87 160 -117Q210 -147 275 -147Q360 -147 417 -90.5Q474 -34 474 47Q474 130 418.5 183Q363 236 278 236Q235 236 195.5 221Q156 206 119 176Q112 170 106.5 168.5Q101 167 94 168L86 170Q80 172 76 176Q72 180 73 186L100 513Q101 519 105.5 523.5Q110 528 116 528H473Q479 528 483.5 523.5Q488 519 488 513V501Q488 495 483.5 490.5Q479 486 473 486H137L115 216Q151 243 195 258Q239 273 285 273Q387 273 453 210.5Q519 148 519 50Z" glyph-name="five.onum" horiz-adv-x="570" /><glyph d="M534 222Q534 121 464.5 54.5Q395 -12 288 -12Q210 -12 148.5 23.5Q87 59 62 118Q59 124 61.5 129.5Q64 135 70 138L84 144Q90 146 95.5 144Q101 142 103 136Q125 85 175 55Q225 25 290 25Q375 25 432 81.5Q489 138 489 219Q489 302 433.5 355Q378 408 293 408Q250 408 210.5 393Q171 378 134 348Q127 342 121.5 340.5Q116 339 109 340L101 342Q95 344 91 348Q87 352 88 358L115 685Q116 691 120.5 695.5Q125 700 131 700H488Q494 700 498.5 695.5Q503 691 503 685V673Q503 667 498.5 662.5Q494 658 488 658H152L130 388Q166 415 210 430Q254 445 300 445Q402 445 468 382.5Q534 320 534 222Z" glyph-name="five.tnum" horiz-adv-x="594" /><glyph d="M295 0H287Q280 0 276.5 4.5Q273 9 276 15L504 484Q507 490 510.5 492.5Q514 495 521 495H529Q536 495 539.5 490.5Q543 486 540 480L312 11Q309 5 305.5 2.5Q302 0 295 0ZM791 96Q791 50 754 21Q717 -8 659 -8Q600 -8 563.5 21Q527 50 527 96Q527 128 547.5 153Q568 178 601 186Q574 195 558.5 216Q543 237 543 263Q543 304 576 330Q609 356 659 356Q709 356 742 330Q775 304 775 263Q775 236 759 215.5Q743 195 716 186Q749 178 770 152.5Q791 127 791 96ZM735 262Q735 288 713.5 305.5Q692 323 659 323Q626 323 604.5 305.5Q583 288 583 262Q583 236 604.5 218.5Q626 201 659 201Q692 201 713.5 218.5Q735 236 735 262ZM749 97Q749 127 724 147Q699 167 659 167Q619 167 594 147Q569 127 569 97Q569 66 594 46.5Q619 27 659 27Q699 27 724 46.5Q749 66 749 97ZM286 257Q286 205 250 171Q214 137 158 137Q118 137 86.5 153.5Q55 170 39 198Q36 203 37 207Q38 211 43 214L58 224Q63 227 67.5 225.5Q72 224 75 219Q87 198 109 186Q131 174 158 174Q194 174 218.5 197.5Q243 221 243 255Q243 290 219.5 312.5Q196 335 159 335Q141 335 124.5 329.5Q108 324 93 312Q88 308 83.5 306.5Q79 305 74 307L57 311Q53 313 51.5 315Q50 317 50 322L62 485Q63 489 66 492Q69 495 74 495H258Q263 495 266 492Q269 489 269 484V468Q269 464 266 460.5Q263 457 258 457H96L88 346Q105 358 126 364.5Q147 371 168 371Q219 371 252.5 339Q286 307 286 257Z" glyph-name="fiveeights" horiz-adv-x="826" unicode="&#8541;" /><glyph d="M705 96Q705 50 668 21Q631 -8 573 -8Q514 -8 477.5 21Q441 50 441 96Q441 128 461.5 153Q482 178 515 186Q488 195 472.5 216Q457 237 457 263Q457 304 490 330Q523 356 573 356Q623 356 656 330Q689 304 689 263Q689 236 673 215.5Q657 195 630 186Q663 178 684 152.5Q705 127 705 96ZM649 262Q649 288 627.5 305.5Q606 323 573 323Q540 323 518.5 305.5Q497 288 497 262Q497 236 518.5 218.5Q540 201 573 201Q606 201 627.5 218.5Q649 236 649 262ZM663 97Q663 127 638 147Q613 167 573 167Q533 167 508 147Q483 127 483 97Q483 66 508 46.5Q533 27 573 27Q613 27 638 46.5Q663 66 663 97ZM292 462Q292 410 256 376Q220 342 164 342Q124 342 92.5 358.5Q61 375 45 403Q42 408 43 412Q44 416 49 419L64 429Q69 432 73.5 430.5Q78 429 81 424Q93 403 115 391Q137 379 164 379Q200 379 224.5 402.5Q249 426 249 460Q249 495 225.5 517.5Q202 540 165 540Q147 540 130.5 534.5Q114 529 99 517Q94 513 89.5 511.5Q85 510 80 512L63 516Q59 518 57.5 520Q56 522 56 527L68 690Q69 694 72 697Q75 700 80 700H264Q269 700 272 697Q275 694 275 689V673Q275 669 272 665.5Q269 662 264 662H102L94 551Q111 563 132 569.5Q153 576 174 576Q225 576 258.5 544Q292 512 292 462ZM599 674 144 18Q137 7 131.5 3Q126 -1 120 -1H112Q103 -1 100 7Q97 15 103 24L558 680Q565 691 570.5 695Q576 699 582 699H590Q599 699 602 691Q605 683 599 674Z" glyph-name="fiveeights.alt" horiz-adv-x="742" /><glyph d="M276 -36Q276 -88 240 -122Q204 -156 148 -156Q108 -156 76.5 -139.5Q45 -123 29 -95Q26 -90 27 -86Q28 -82 33 -79L48 -69Q53 -66 57.5 -67.5Q62 -69 65 -74Q77 -95 99 -107Q121 -119 148 -119Q184 -119 208.5 -95.5Q233 -72 233 -38Q233 -3 209.5 19.5Q186 42 149 42Q131 42 114.5 36.5Q98 31 83 19Q78 15 73.5 13.5Q69 12 64 14L47 18Q43 20 41.5 22Q40 24 40 29L52 192Q53 196 56 199Q59 202 64 202H248Q253 202 256 199Q259 196 259 191V175Q259 171 256 167.5Q253 164 248 164H86L78 53Q95 65 116 71.5Q137 78 158 78Q209 78 242.5 46Q276 14 276 -36Z" glyph-name="fiveinferior" horiz-adv-x="301" unicode="&#8325;" /><glyph d="M276 612Q276 560 240 526Q204 492 148 492Q108 492 76.5 508.5Q45 525 29 553Q26 558 27 562Q28 566 33 569L48 579Q53 582 57.5 580.5Q62 579 65 574Q77 553 99 541Q121 529 148 529Q184 529 208.5 552.5Q233 576 233 610Q233 645 209.5 667.5Q186 690 149 690Q131 690 114.5 684.5Q98 679 83 667Q78 663 73.5 661.5Q69 660 64 662L47 666Q43 668 41.5 670Q40 672 40 677L52 840Q53 844 56 847Q59 850 64 850H248Q253 850 256 847Q259 844 259 839V823Q259 819 256 815.5Q253 812 248 812H86L78 701Q95 713 116 719.5Q137 726 158 726Q209 726 242.5 694Q276 662 276 612Z" glyph-name="fivesuperior" horiz-adv-x="301" unicode="&#8309;" /><glyph d="M144 456H324V685Q324 691 328.5 695.5Q333 700 339 700H353Q359 700 363.5 695.5Q368 691 368 685V109Q368 73 385 55.5Q402 38 437 38H458Q464 38 468.5 33.5Q473 29 473 23V15Q473 9 468.5 4.5Q464 0 458 0H431Q379 0 351.5 27.5Q324 55 324 108V418H144V15Q144 9 139.5 4.5Q135 0 129 0H115Q109 0 104.5 4.5Q100 9 100 15V418H26Q20 418 15.5 422.5Q11 427 11 433V441Q11 447 15.5 451.5Q20 456 26 456H100V576Q100 635 133 667.5Q166 700 222 700H237Q242 700 246 696Q250 692 250 687V673Q250 669 247 665.5Q244 662 239 662H226Q184 661 164 640.5Q144 620 144 578Z" glyph-name="fl" horiz-adv-x="474" unicode="&#64258;" /><glyph d="M162 356V576Q162 637 198.5 673.5Q235 710 291 710Q316 710 338.5 703Q361 696 379 684Q383 681 384 675Q385 669 381 665L374 657Q369 652 363 652Q357 652 350 656Q336 664 320.5 668Q305 672 290 672Q252 672 229 646Q206 620 206 578V356H312Q318 356 322.5 351.5Q327 347 327 341V333Q327 327 322.5 322.5Q318 318 312 318H206V-41Q206 -102 169.5 -138.5Q133 -175 77 -175Q52 -175 29.5 -168Q7 -161 -11 -149Q-15 -146 -16 -140Q-17 -134 -13 -130L-6 -122Q-1 -117 5 -117Q11 -117 18 -121Q32 -129 47.5 -133Q63 -137 78 -137Q116 -137 139 -111Q162 -85 162 -43V318H73Q67 318 62.5 322.5Q58 327 58 333V341Q58 347 62.5 351.5Q67 356 73 356Z" glyph-name="florin" horiz-adv-x="409" unicode="&#402;" /><glyph d="M377 15V219H30Q24 219 19.5 223.5Q15 228 15 234V246Q15 251 17 256Q19 261 23 266L358 688Q362 693 368.5 696.5Q375 700 382 700H403Q409 700 413.5 695.5Q418 691 418 685V255H521Q527 255 531.5 250.5Q536 246 536 240V234Q536 228 531.5 223.5Q527 219 521 219H418V15Q418 9 413.5 4.5Q409 0 403 0H392Q386 0 381.5 4.5Q377 9 377 15ZM377 653 61 255H377Z" glyph-name="four" horiz-adv-x="556" unicode="4" /><glyph d="M217 0H202Q197 0 193.5 3.5Q190 7 190 11V104H24Q20 104 17 107Q14 110 14 115V125Q14 132 15 136Q16 140 19 143L174 342Q177 347 181 349.5Q185 352 190 352H217Q221 352 225 348.5Q229 345 229 341V137H286Q290 137 293 133.5Q296 130 296 125V116Q296 112 293 108Q290 104 286 104H229V11Q229 7 225.5 3.5Q222 0 217 0ZM190 310 55 137H190Z" glyph-name="four.dnom" horiz-adv-x="311" /><glyph d="M217 348H202Q197 348 193.5 351.5Q190 355 190 359V452H24Q20 452 17 455Q14 458 14 463V473Q14 480 15 484Q16 488 19 491L174 690Q177 695 181 697.5Q185 700 190 700H217Q221 700 225 696.5Q229 693 229 689V485H286Q290 485 293 481.5Q296 478 296 473V464Q296 460 293 456Q290 452 286 452H229V359Q229 355 225.5 351.5Q222 348 217 348ZM190 658 55 485H190Z" glyph-name="four.numr" horiz-adv-x="311" /><glyph d="M389 -157V47H42Q36 47 31.5 51.5Q27 56 27 62V74Q27 79 29 84Q31 89 35 94L370 516Q374 521 380.5 524.5Q387 528 394 528H415Q421 528 425.5 523.5Q430 519 430 513V83H533Q539 83 543.5 78.5Q548 74 548 68V62Q548 56 543.5 51.5Q539 47 533 47H430V-157Q430 -163 425.5 -167.5Q421 -172 415 -172H404Q398 -172 393.5 -167.5Q389 -163 389 -157ZM389 481 73 83H389Z" glyph-name="four.onum" horiz-adv-x="576" /><glyph d="M400 15V219H53Q47 219 42.5 223.5Q38 228 38 234V246Q38 251 40 256Q42 261 46 266L381 688Q385 693 391.5 696.5Q398 700 405 700H426Q432 700 436.5 695.5Q441 691 441 685V255H544Q550 255 554.5 250.5Q559 246 559 240V234Q559 228 554.5 223.5Q550 219 544 219H441V15Q441 9 436.5 4.5Q432 0 426 0H415Q409 0 404.5 4.5Q400 9 400 15ZM400 653 84 255H400Z" glyph-name="four.tnum" horiz-adv-x="594" /><glyph d="M217 -150H202Q197 -150 193.5 -146.5Q190 -143 190 -139V-46H24Q20 -46 17 -43Q14 -40 14 -35V-25Q14 -18 15 -14Q16 -10 19 -7L174 192Q177 197 181 199.5Q185 202 190 202H217Q221 202 225 198.5Q229 195 229 191V-13H286Q290 -13 293 -16.5Q296 -20 296 -25V-34Q296 -38 293 -42Q290 -46 286 -46H229V-139Q229 -143 225.5 -146.5Q222 -150 217 -150ZM190 160 55 -13H190Z" glyph-name="fourinferior" horiz-adv-x="311" unicode="&#8324;" /><glyph d="M217 498H202Q197 498 193.5 501.5Q190 505 190 509V602H24Q20 602 17 605Q14 608 14 613V623Q14 630 15 634Q16 638 19 641L174 840Q177 845 181 847.5Q185 850 190 850H217Q221 850 225 846.5Q229 843 229 839V635H286Q290 635 293 631.5Q296 628 296 623V614Q296 610 293 606Q290 602 286 602H229V509Q229 505 225.5 501.5Q222 498 217 498ZM190 808 55 635H190Z" glyph-name="foursuperior" horiz-adv-x="311" unicode="&#8308;" /><glyph d="M298 675 -157 19Q-164 8 -169.5 4Q-175 0 -181 0H-189Q-198 0 -201 8Q-204 16 -198 25L257 681Q264 692 269.5 696Q275 700 281 700H289Q298 700 301 692Q304 684 298 675Z" glyph-name="fraction" horiz-adv-x="100" unicode="&#8260;" /><glyph d="M298 675 -157 19Q-164 8 -169.5 4Q-175 0 -181 0H-189Q-198 0 -201 8Q-204 16 -198 25L257 681Q264 692 269.5 696Q275 700 281 700H289Q298 700 301 692Q304 684 298 675Z" glyph-name="fraction.01" horiz-adv-x="100" unicode="&#57357;" /><glyph d="M-20 0H-28Q-35 0 -38.5 4.5Q-42 9 -39 15L189 484Q192 490 195.5 492.5Q199 495 206 495H214Q221 495 224.5 490.5Q228 486 225 480L-3 11Q-6 5 -9.5 2.5Q-13 0 -20 0Z" glyph-name="fraction.02" horiz-adv-x="186" /><glyph d="M270 428Q190 428 137 371Q84 314 84 228Q84 142 137 84.5Q190 27 270 27Q350 27 403 84.5Q456 142 456 228Q456 314 403 371Q350 428 270 428ZM93 -60Q112 -116 157.5 -147.5Q203 -179 270 -179Q318 -179 355 -164.5Q392 -150 417 -121Q436 -99 446 -68.5Q456 -38 456 -2V99Q431 48 381 17.5Q331 -13 270 -13Q171 -13 105.5 55.5Q40 124 40 228Q40 330 106.5 399Q173 468 270 468Q331 468 381.5 437Q432 406 456 355V440Q456 446 460.5 450.5Q465 455 471 455H485Q491 455 495.5 450.5Q500 446 500 440V-5Q500 -47 487.5 -83Q475 -119 450 -146Q419 -181 373.5 -198.5Q328 -216 269 -216Q218 -216 176.5 -201.5Q135 -187 105 -158Q85 -139 71 -116.5Q57 -94 51 -69Q50 -63 53 -58.5Q56 -54 62 -52L75 -49Q82 -48 86.5 -50.5Q91 -53 93 -60Z" glyph-name="g" horiz-adv-x="574" unicode="g" /><glyph d="M270 428Q190 428 137 371Q84 314 84 228Q84 142 137 84.5Q190 27 270 27Q350 27 403 84.5Q456 142 456 228Q456 314 403 371Q350 428 270 428ZM93 -60Q112 -116 157.5 -147.5Q203 -179 270 -179Q318 -179 355 -164.5Q392 -150 417 -121Q436 -99 446 -68.5Q456 -38 456 -2V99Q431 48 381 17.5Q331 -13 270 -13Q171 -13 105.5 55.5Q40 124 40 228Q40 330 106.5 399Q173 468 270 468Q331 468 381.5 437Q432 406 456 355V440Q456 446 460.5 450.5Q465 455 471 455H485Q491 455 495.5 450.5Q500 446 500 440V-5Q500 -47 487.5 -83Q475 -119 450 -146Q419 -181 373.5 -198.5Q328 -216 269 -216Q218 -216 176.5 -201.5Q135 -187 105 -158Q85 -139 71 -116.5Q57 -94 51 -69Q50 -63 53 -58.5Q56 -54 62 -52L75 -49Q82 -48 86.5 -50.5Q91 -53 93 -60ZM269 518Q223 518 195 543Q167 568 167 609V614Q167 619 170 622Q173 625 178 625H194Q199 625 202 622Q205 619 205 614V612Q205 585 222.5 569.5Q240 554 269 554Q298 554 315.5 569.5Q333 585 333 612V614Q333 619 336 622Q339 625 344 625H360Q365 625 368 622Q371 619 371 614V609Q371 568 343 543Q315 518 269 518Z" glyph-name="gbreve" horiz-adv-x="574" unicode="&#287;" /><glyph d="M270 428Q190 428 137 371Q84 314 84 228Q84 142 137 84.5Q190 27 270 27Q350 27 403 84.5Q456 142 456 228Q456 314 403 371Q350 428 270 428ZM93 -60Q112 -116 157.5 -147.5Q203 -179 270 -179Q318 -179 355 -164.5Q392 -150 417 -121Q436 -99 446 -68.5Q456 -38 456 -2V99Q431 48 381 17.5Q331 -13 270 -13Q171 -13 105.5 55.5Q40 124 40 228Q40 330 106.5 399Q173 468 270 468Q331 468 381.5 437Q432 406 456 355V440Q456 446 460.5 450.5Q465 455 471 455H485Q491 455 495.5 450.5Q500 446 500 440V-5Q500 -47 487.5 -83Q475 -119 450 -146Q419 -181 373.5 -198.5Q328 -216 269 -216Q218 -216 176.5 -201.5Q135 -187 105 -158Q85 -139 71 -116.5Q57 -94 51 -69Q50 -63 53 -58.5Q56 -54 62 -52L75 -49Q82 -48 86.5 -50.5Q91 -53 93 -60ZM266 676H275Q283 676 288 673.5Q293 671 298 663L387 536Q390 532 387.5 527.5Q385 523 380 523H363Q357 523 352.5 525Q348 527 344 533L270 632L196 533Q191 527 187 525Q183 523 177 523H160Q154 523 151.5 527.5Q149 532 153 536L242 663Q246 671 251.5 673.5Q257 676 266 676Z" glyph-name="gcircumflex" horiz-adv-x="574" unicode="&#285;" /><glyph d="M270 428Q190 428 137 371Q84 314 84 228Q84 142 137 84.5Q190 27 270 27Q350 27 403 84.5Q456 142 456 228Q456 314 403 371Q350 428 270 428ZM93 -60Q112 -116 157.5 -147.5Q203 -179 270 -179Q318 -179 355 -164.5Q392 -150 417 -121Q436 -99 446 -68.5Q456 -38 456 -2V99Q431 48 381 17.5Q331 -13 270 -13Q171 -13 105.5 55.5Q40 124 40 228Q40 330 106.5 399Q173 468 270 468Q331 468 381.5 437Q432 406 456 355V440Q456 446 460.5 450.5Q465 455 471 455H485Q491 455 495.5 450.5Q500 446 500 440V-5Q500 -47 487.5 -83Q475 -119 450 -146Q419 -181 373.5 -198.5Q328 -216 269 -216Q218 -216 176.5 -201.5Q135 -187 105 -158Q85 -139 71 -116.5Q57 -94 51 -69Q50 -63 53 -58.5Q56 -54 62 -52L75 -49Q82 -48 86.5 -50.5Q91 -53 93 -60ZM331 723 293 642Q312 637 323.5 622Q335 607 335 588Q335 564 319 548Q303 532 279 532Q256 532 240 549Q224 566 224 590Q224 613 237.5 643Q251 673 291 728Q300 739 304.5 741.5Q309 744 314 741L322 737Q330 733 331.5 730Q333 727 331 723Z" glyph-name="gcommaaccent" horiz-adv-x="574" unicode="&#291;" /><glyph d="M270 428Q190 428 137 371Q84 314 84 228Q84 142 137 84.5Q190 27 270 27Q350 27 403 84.5Q456 142 456 228Q456 314 403 371Q350 428 270 428ZM93 -60Q112 -116 157.5 -147.5Q203 -179 270 -179Q318 -179 355 -164.5Q392 -150 417 -121Q436 -99 446 -68.5Q456 -38 456 -2V99Q431 48 381 17.5Q331 -13 270 -13Q171 -13 105.5 55.5Q40 124 40 228Q40 330 106.5 399Q173 468 270 468Q331 468 381.5 437Q432 406 456 355V440Q456 446 460.5 450.5Q465 455 471 455H485Q491 455 495.5 450.5Q500 446 500 440V-5Q500 -47 487.5 -83Q475 -119 450 -146Q419 -181 373.5 -198.5Q328 -216 269 -216Q218 -216 176.5 -201.5Q135 -187 105 -158Q85 -139 71 -116.5Q57 -94 51 -69Q50 -63 53 -58.5Q56 -54 62 -52L75 -49Q82 -48 86.5 -50.5Q91 -53 93 -60ZM316 583Q316 564 302.5 550Q289 536 270 536Q251 536 237.5 550Q224 564 224 583Q224 602 237.5 615.5Q251 629 270 629Q289 629 302.5 615.5Q316 602 316 583Z" glyph-name="gdotaccent" horiz-adv-x="574" unicode="&#289;" /><glyph d="M74 15V515Q74 616 131 675.5Q188 735 280 735Q359 735 407.5 693.5Q456 652 456 592Q456 558 438.5 524Q421 490 369 437Q336 403 326.5 387.5Q317 372 317 360Q317 347 330.5 330Q344 313 391 273Q467 209 487 178.5Q507 148 507 118Q507 90 497 66Q487 42 468 24Q449 6 421 -3.5Q393 -13 360 -13Q348 -13 334.5 -11.5Q321 -10 307 -8Q299 -7 291.5 -4.5Q284 -2 277 1Q270 4 268 8.5Q266 13 268 18L273 32Q275 38 280.5 40Q286 42 292 40Q309 34 326.5 30.5Q344 27 360 27Q404 27 432.5 50.5Q461 74 461 115Q461 132 452 149Q443 166 424 185Q412 196 389.5 215Q367 234 361 240Q297 296 283.5 316.5Q270 337 270 356Q270 375 282.5 396.5Q295 418 336 461Q383 510 397.5 537Q412 564 412 588Q412 635 376 665.5Q340 696 278 696Q205 696 162 646.5Q119 597 119 515V15Q119 9 114.5 4.5Q110 0 104 0H89Q83 0 78.5 4.5Q74 9 74 15Z" glyph-name="germandbls" horiz-adv-x="528" unicode="&#223;" /><glyph d="M49 676H75Q83 676 88 672.5Q93 669 96 662L152 535Q154 530 151.5 526.5Q149 523 144 523H128Q122 523 118.5 526Q115 529 111 536L41 663Q39 668 41.5 672Q44 676 49 676Z" glyph-name="grave" horiz-adv-x="181" unicode="`" /><glyph d="M87 178V197Q87 203 90 206.5Q93 210 101 213L448 346L101 478Q93 481 90 484.5Q87 488 87 494V513Q87 519 91 522Q95 525 101 523L480 374Q489 370 493.5 363.5Q498 357 498 347Q498 335 493.5 328.5Q489 322 480 318L101 168Q95 166 91 169Q87 172 87 178Z" glyph-name="greater" horiz-adv-x="538" unicode="&gt;" /><glyph d="M634 595 863 357Q865 355 865 352.5Q865 350 863 348L634 109Q629 103 624.5 100.5Q620 98 614 98H580Q576 98 574 102Q572 106 575 109L789 331H125Q119 331 114.5 335.5Q110 340 110 346V358Q110 364 114.5 368.5Q119 373 125 373H789L576 595Q573 598 575 602Q577 606 581 606H614Q620 606 624.5 603.5Q629 601 634 595Z" glyph-name="greater.alt" horiz-adv-x="960" /><glyph d="M88 178V197Q88 203 91 206.5Q94 210 102 213L449 346L102 478Q94 481 91 484.5Q88 488 88 494V513Q88 519 92 522Q96 525 102 523L481 374Q490 370 494.5 363.5Q499 357 499 347Q499 335 494.5 328.5Q490 322 481 318L102 168Q96 166 92 169Q88 172 88 178ZM481 0H104Q98 0 93.5 4.5Q89 9 89 15V27Q89 33 93.5 37.5Q98 42 104 42H481Q487 42 491.5 37.5Q496 33 496 27V15Q496 9 491.5 4.5Q487 0 481 0Z" glyph-name="greaterequal" horiz-adv-x="564" unicode="&#8805;" /><glyph d="M337 37H317Q310 37 304 40.5Q298 44 295 50L206 226Q203 232 203 239Q203 246 206 252L295 429Q298 435 304 438.5Q310 442 317 442H337Q342 442 345 437.5Q348 433 345 429L253 239L345 50Q347 45 344.5 41Q342 37 337 37ZM187 37H167Q160 37 154 40.5Q148 44 145 50L56 226Q53 232 53 239Q53 246 56 252L145 429Q148 435 154 438.5Q160 442 167 442H187Q192 442 195 437.5Q198 433 195 429L103 239L195 50Q197 45 194.5 41Q192 37 187 37Z" glyph-name="guillemotleft" horiz-adv-x="404" unicode="&#171;" /><glyph d="M349 137H329Q322 137 316 140.5Q310 144 307 150L218 326Q215 332 215 339Q215 346 218 352L307 529Q310 535 316 538.5Q322 542 329 542H349Q354 542 357 537.5Q360 533 357 529L265 339L357 150Q359 145 356.5 141Q354 137 349 137ZM199 137H179Q172 137 166 140.5Q160 144 157 150L68 326Q65 332 65 339Q65 346 68 352L157 529Q160 535 166 538.5Q172 542 179 542H199Q204 542 207 537.5Q210 533 207 529L115 339L207 150Q209 145 206.5 141Q204 137 199 137Z" glyph-name="guillemotleft.alt" horiz-adv-x="438" /><glyph d="M199 226 110 50Q107 44 101 40.5Q95 37 88 37H68Q63 37 60.5 41Q58 45 60 50L152 239L60 429Q57 433 60 437.5Q63 442 68 442H88Q95 442 101 438.5Q107 435 110 429L199 252Q202 246 202 239Q202 232 199 226ZM349 226 260 50Q257 44 251 40.5Q245 37 238 37H218Q213 37 210.5 41Q208 45 210 50L302 239L210 429Q207 433 210 437.5Q213 442 218 442H238Q245 442 251 438.5Q257 435 260 429L349 252Q352 246 352 239Q352 232 349 226Z" glyph-name="guillemotright" horiz-adv-x="404" unicode="&#187;" /><glyph d="M221 326 132 150Q129 144 123 140.5Q117 137 110 137H90Q85 137 82.5 141Q80 145 82 150L174 339L82 529Q79 533 82 537.5Q85 542 90 542H110Q117 542 123 538.5Q129 535 132 529L221 352Q224 346 224 339Q224 332 221 326ZM371 326 282 150Q279 144 273 140.5Q267 137 260 137H240Q235 137 232.5 141Q230 145 232 150L324 339L232 529Q229 533 232 537.5Q235 542 240 542H260Q267 542 273 538.5Q279 535 282 529L371 352Q374 346 374 339Q374 332 371 326Z" glyph-name="guillemotright.alt" horiz-adv-x="438" /><glyph d="M187 37H167Q160 37 154 40.5Q148 44 145 50L56 226Q53 232 53 239Q53 246 56 252L145 429Q148 435 154 438.5Q160 442 167 442H187Q192 442 195 437.5Q198 433 195 429L103 239L195 50Q197 45 194.5 41Q192 37 187 37Z" glyph-name="guilsinglleft" horiz-adv-x="254" unicode="&#8249;" /><glyph d="M199 137H179Q172 137 166 140.5Q160 144 157 150L68 326Q65 332 65 339Q65 346 68 352L157 529Q160 535 166 538.5Q172 542 179 542H199Q204 542 207 537.5Q210 533 207 529L115 339L207 150Q209 145 206.5 141Q204 137 199 137Z" glyph-name="guilsinglleft.alt" horiz-adv-x="288" /><glyph d="M199 226 110 50Q107 44 101 40.5Q95 37 88 37H68Q63 37 60.5 41Q58 45 60 50L152 239L60 429Q57 433 60 437.5Q63 442 68 442H88Q95 442 101 438.5Q107 435 110 429L199 252Q202 246 202 239Q202 232 199 226Z" glyph-name="guilsinglright" horiz-adv-x="254" unicode="&#8250;" /><glyph d="M221 326 132 150Q129 144 123 140.5Q117 137 110 137H90Q85 137 82.5 141Q80 145 82 150L174 339L82 529Q79 533 82 537.5Q85 542 90 542H110Q117 542 123 538.5Q129 535 132 529L221 352Q224 346 224 339Q224 332 221 326Z" glyph-name="guilsinglright.alt" horiz-adv-x="288" /><glyph d="M446 15V261Q446 341 404.5 385Q363 429 287 429Q211 429 164.5 382.5Q118 336 118 261V15Q118 9 113.5 4.5Q109 0 103 0H89Q83 0 78.5 4.5Q74 9 74 15V685Q74 691 78.5 695.5Q83 700 89 700H103Q109 700 113.5 695.5Q118 691 118 685V365Q138 412 185 440Q232 468 293 468Q383 468 436.5 414Q490 360 490 269V15Q490 9 485.5 4.5Q481 0 475 0H461Q455 0 450.5 4.5Q446 9 446 15Z" glyph-name="h" horiz-adv-x="557" unicode="h" /><glyph d="M119 261V15Q119 9 114.5 4.5Q110 0 104 0H90Q84 0 79.5 4.5Q75 9 75 15V548H13Q7 548 2.5 552.5Q-2 557 -2 563V571Q-2 577 2.5 581.5Q7 586 13 586H75V685Q75 691 79.5 695.5Q84 700 90 700H104Q110 700 114.5 695.5Q119 691 119 685V586H273Q279 586 283.5 581.5Q288 577 288 571V563Q288 557 283.5 552.5Q279 548 273 548H119V365Q139 412 186 440Q233 468 294 468Q384 468 437.5 414Q491 360 491 269V15Q491 9 486.5 4.5Q482 0 476 0H462Q456 0 451.5 4.5Q447 9 447 15V261Q447 341 405.5 385Q364 429 288 429Q212 429 165.5 382.5Q119 336 119 261Z" glyph-name="hbar" horiz-adv-x="558" unicode="&#295;" /><glyph d="M446 15V261Q446 341 404.5 385Q363 429 287 429Q211 429 164.5 382.5Q118 336 118 261V15Q118 9 113.5 4.5Q109 0 103 0H89Q83 0 78.5 4.5Q74 9 74 15V685Q74 691 78.5 695.5Q83 700 89 700H103Q109 700 113.5 695.5Q118 691 118 685V365Q138 412 185 440Q232 468 293 468Q383 468 436.5 414Q490 360 490 269V15Q490 9 485.5 4.5Q481 0 475 0H461Q455 0 450.5 4.5Q446 9 446 15ZM275 920H284Q292 920 297 917.5Q302 915 307 907L396 780Q399 776 396.5 771.5Q394 767 389 767H372Q366 767 361.5 769Q357 771 353 777L279 876L205 777Q200 771 196 769Q192 767 186 767H169Q163 767 160.5 771.5Q158 776 162 780L251 907Q255 915 260.5 917.5Q266 920 275 920Z" glyph-name="hcircumflex" horiz-adv-x="557" unicode="&#293;" /><glyph d="M259 676H285Q290 676 292.5 672Q295 668 293 663L223 536Q219 529 215.5 526Q212 523 206 523H190Q185 523 182.5 526.5Q180 530 182 535L238 662Q241 669 246 672.5Q251 676 259 676ZM123 676H149Q154 676 156.5 672Q159 668 157 663L87 536Q83 529 79.5 526Q76 523 70 523H54Q49 523 46.5 526.5Q44 530 46 535L102 662Q105 669 110 672.5Q115 676 123 676Z" glyph-name="hungarumlaut" horiz-adv-x="302" unicode="&#733;" /><glyph d="M256 236H79Q73 236 68.5 240.5Q64 245 64 251V265Q64 271 68.5 275.5Q73 280 79 280H256Q262 280 266.5 275.5Q271 271 271 265V251Q271 245 266.5 240.5Q262 236 256 236Z" glyph-name="hyphen" horiz-adv-x="335" unicode="-" /><glyph d="M262 296H85Q79 296 74.5 300.5Q70 305 70 311V325Q70 331 74.5 335.5Q79 340 85 340H262Q268 340 272.5 335.5Q277 331 277 325V311Q277 305 272.5 300.5Q268 296 262 296Z" glyph-name="hyphen.alt" horiz-adv-x="347" /><glyph d="M142 625Q142 606 128.5 592Q115 578 96 578Q77 578 63.5 592Q50 606 50 625Q50 644 63.5 657.5Q77 671 96 671Q115 671 128.5 657.5Q142 644 142 625ZM103 0H89Q83 0 78.5 4.5Q74 9 74 15V441Q74 447 78.5 451.5Q83 456 89 456H103Q109 456 113.5 451.5Q118 447 118 441V15Q118 9 113.5 4.5Q109 0 103 0Z" glyph-name="i" horiz-adv-x="192" unicode="i" /><glyph d="M142 625Q142 606 128.5 592Q115 578 96 578Q77 578 63.5 592Q50 606 50 625Q50 644 63.5 657.5Q77 671 96 671Q115 671 128.5 657.5Q142 644 142 625ZM103 0H89Q83 0 78.5 4.5Q74 9 74 15V441Q74 447 78.5 451.5Q83 456 89 456H103Q109 456 113.5 451.5Q118 447 118 441V15Q118 9 113.5 4.5Q109 0 103 0Z" glyph-name="i.TRK" horiz-adv-x="192" /><glyph d="M103 0H89Q83 0 78.5 4.5Q74 9 74 15V441Q74 447 78.5 451.5Q83 456 89 456H103Q109 456 113.5 451.5Q118 447 118 441V15Q118 9 113.5 4.5Q109 0 103 0ZM166 676H192Q197 676 199.5 672Q202 668 200 663L130 536Q126 529 122.5 526Q119 523 113 523H97Q92 523 89.5 526.5Q87 530 89 535L145 662Q148 669 153 672.5Q158 676 166 676Z" glyph-name="iacute" horiz-adv-x="192" unicode="&#237;" /><glyph d="M103 0H89Q83 0 78.5 4.5Q74 9 74 15V441Q74 447 78.5 451.5Q83 456 89 456H103Q109 456 113.5 451.5Q118 447 118 441V15Q118 9 113.5 4.5Q109 0 103 0ZM96 518Q50 518 22 543Q-6 568 -6 609V614Q-6 619 -3 622Q0 625 5 625H21Q26 625 29 622Q32 619 32 614V612Q32 585 49.5 569.5Q67 554 96 554Q125 554 142.5 569.5Q160 585 160 612V614Q160 619 163 622Q166 625 171 625H187Q192 625 195 622Q198 619 198 614V609Q198 568 170 543Q142 518 96 518Z" glyph-name="ibreve" horiz-adv-x="192" unicode="&#301;" /><glyph d="M103 0H89Q83 0 78.5 4.5Q74 9 74 15V441Q74 447 78.5 451.5Q83 456 89 456H103Q109 456 113.5 451.5Q118 447 118 441V15Q118 9 113.5 4.5Q109 0 103 0ZM93 676H102Q110 676 115 673.5Q120 671 125 663L214 536Q217 532 214.5 527.5Q212 523 207 523H190Q184 523 179.5 525Q175 527 171 533L97 632L23 533Q18 527 14 525Q10 523 4 523H-13Q-19 523 -21.5 527.5Q-24 532 -20 536L69 663Q73 671 78.5 673.5Q84 676 93 676Z" glyph-name="icircumflex" horiz-adv-x="192" unicode="&#238;" /><glyph d="M103 0H89Q83 0 78.5 4.5Q74 9 74 15V441Q74 447 78.5 451.5Q83 456 89 456H103Q109 456 113.5 451.5Q118 447 118 441V15Q118 9 113.5 4.5Q109 0 103 0ZM171 521Q154 521 141 534Q128 547 128 564Q128 581 141 594Q154 607 171 607Q188 607 201 594Q214 581 214 564Q214 547 201 534Q188 521 171 521ZM20 521Q3 521 -10 534Q-23 547 -23 564Q-23 581 -10 594Q3 607 20 607Q37 607 50 594Q63 581 63 564Q63 547 50 534Q37 521 20 521Z" glyph-name="idieresis" horiz-adv-x="192" unicode="&#239;" /><glyph d="M103 0H89Q83 0 78.5 4.5Q74 9 74 15V441Q74 447 78.5 451.5Q83 456 89 456H103Q109 456 113.5 451.5Q118 447 118 441V15Q118 9 113.5 4.5Q109 0 103 0ZM4 676H30Q38 676 43 672.5Q48 669 51 662L107 535Q109 530 106.5 526.5Q104 523 99 523H83Q77 523 73.5 526Q70 529 66 536L-4 663Q-6 668 -3.5 672Q-1 676 4 676Z" glyph-name="igrave" horiz-adv-x="192" unicode="&#236;" /><glyph d="M142 625Q142 606 128.5 592Q115 578 96 578Q77 578 63.5 592Q50 606 50 625Q50 644 63.5 657.5Q77 671 96 671Q115 671 128.5 657.5Q142 644 142 625ZM103 0H89Q83 0 78.5 4.5Q74 9 74 15V441Q74 447 78.5 451.5Q83 456 89 456H103Q109 456 113.5 451.5Q118 447 118 441V15Q118 9 113.5 4.5Q109 0 103 0ZM328 625Q328 606 314.5 592.5Q301 579 282 579Q263 579 249.5 592.5Q236 606 236 625Q236 644 249.5 657.5Q263 671 282 671Q301 671 314.5 657.5Q328 644 328 625ZM279 456H293Q299 456 303.5 451.5Q308 447 308 441V-83Q308 -147 273.5 -181.5Q239 -216 180 -216Q154 -216 132 -209.5Q110 -203 92 -190Q88 -187 87.5 -182Q87 -177 90 -172L95 -164Q99 -158 104.5 -156.5Q110 -155 116 -159Q130 -168 147.5 -173.5Q165 -179 179 -179Q220 -179 242 -155Q264 -131 264 -85V441Q264 447 268.5 451.5Q273 456 279 456Z" glyph-name="ij" horiz-adv-x="383" unicode="&#307;" /><glyph d="M103 0H89Q83 0 78.5 4.5Q74 9 74 15V441Q74 447 78.5 451.5Q83 456 89 456H103Q109 456 113.5 451.5Q118 447 118 441V15Q118 9 113.5 4.5Q109 0 103 0ZM196 546H-4Q-10 546 -14.5 550.5Q-19 555 -19 561V568Q-19 574 -14.5 578.5Q-10 583 -4 583H196Q202 583 206.5 578.5Q211 574 211 568V561Q211 555 206.5 550.5Q202 546 196 546Z" glyph-name="imacron" horiz-adv-x="192" unicode="&#299;" /><glyph d="M62 350Q62 439 115.5 495Q169 551 247 551Q315 551 366.5 509.5Q418 468 444 392Q470 468 521.5 509.5Q573 551 641 551Q719 551 772.5 495Q826 439 826 350Q826 261 772.5 205Q719 149 641 149Q573 149 521.5 190.5Q470 232 444 308Q418 232 366.5 190.5Q315 149 247 149Q169 149 115.5 205Q62 261 62 350ZM463 350Q495 267 537 229Q579 191 643 191Q702 191 742 233.5Q782 276 782 350Q782 424 742 466.5Q702 509 643 509Q579 509 537 471Q495 433 463 350ZM425 350Q393 433 351 471Q309 509 245 509Q186 509 146 466.5Q106 424 106 350Q106 276 146 233.5Q186 191 245 191Q309 191 351 229Q393 267 425 350Z" glyph-name="infinity" horiz-adv-x="888" unicode="&#8734;" /><glyph d="M173 -43V576Q173 637 209.5 673.5Q246 710 302 710Q327 710 349.5 703Q372 696 390 684Q394 681 394.5 675.5Q395 670 392 665L385 656Q381 651 375 651Q369 651 361 656Q347 664 331.5 668Q316 672 301 672Q263 672 240 646Q217 620 217 578V-41Q217 -102 180.5 -138.5Q144 -175 88 -175Q63 -175 40.5 -168Q18 -161 0 -149Q-4 -146 -4.5 -140.5Q-5 -135 -2 -130L5 -121Q9 -116 15 -116Q21 -116 29 -121Q43 -129 58.5 -133Q74 -137 89 -137Q127 -137 150 -111Q173 -85 173 -43Z" glyph-name="integral" horiz-adv-x="393" unicode="&#8747;" /><glyph d="M142 625Q142 606 128.5 592Q115 578 96 578Q77 578 63.5 592Q50 606 50 625Q50 644 63.5 657.5Q77 671 96 671Q115 671 128.5 657.5Q142 644 142 625ZM77 -184Q43 -184 23 -165.5Q3 -147 3 -117Q3 -89 24 -56Q45 -23 79 4Q77 6 75.5 9Q74 12 74 15V441Q74 447 78.5 451.5Q83 456 89 456H103Q109 456 113.5 451.5Q118 447 118 441V15Q118 11 115.5 7.5Q113 4 109 1Q82 -27 63.5 -60Q45 -93 45 -113Q45 -131 55.5 -141Q66 -151 86 -151Q93 -151 100.5 -150Q108 -149 115 -147Q120 -146 123.5 -149Q127 -152 126 -157L125 -167Q124 -175 109.5 -179.5Q95 -184 77 -184Z" glyph-name="iogonek" horiz-adv-x="192" unicode="&#303;" /><glyph d="M103 0H89Q83 0 78.5 4.5Q74 9 74 15V441Q74 447 78.5 451.5Q83 456 89 456H103Q109 456 113.5 451.5Q118 447 118 441V15Q118 9 113.5 4.5Q109 0 103 0ZM215 589Q206 565 188.5 551.5Q171 538 148 538Q138 538 123.5 542Q109 546 77 559Q55 568 46 570.5Q37 573 32 573Q21 573 15 568Q9 563 1 549Q-3 542 -8 540Q-13 538 -19 541L-26 544Q-31 546 -33.5 551.5Q-36 557 -34 562Q-25 586 -7.5 599.5Q10 613 33 613Q43 613 57.5 609Q72 605 104 592Q126 583 135 580.5Q144 578 149 578Q160 578 166 583Q172 588 180 602Q184 609 189 611Q194 613 200 610L207 607Q212 605 214.5 599.5Q217 594 215 589Z" glyph-name="itilde" horiz-adv-x="192" unicode="&#297;" /><glyph d="M137 625Q137 606 123.5 592.5Q110 579 91 579Q72 579 58.5 592.5Q45 606 45 625Q45 644 58.5 657.5Q72 671 91 671Q110 671 123.5 657.5Q137 644 137 625ZM88 456H102Q108 456 112.5 451.5Q117 447 117 441V-83Q117 -147 82.5 -181.5Q48 -216 -11 -216Q-37 -216 -59 -209.5Q-81 -203 -99 -190Q-103 -187 -103.5 -182Q-104 -177 -101 -172L-96 -164Q-92 -158 -86.5 -156.5Q-81 -155 -75 -159Q-61 -168 -43.5 -173.5Q-26 -179 -12 -179Q29 -179 51 -155Q73 -131 73 -85V441Q73 447 77.5 451.5Q82 456 88 456Z" glyph-name="j" horiz-adv-x="192" unicode="j" /><glyph d="M88 456H102Q108 456 112.5 451.5Q117 447 117 441V-83Q117 -147 82.5 -181.5Q48 -216 -11 -216Q-37 -216 -59 -209.5Q-81 -203 -99 -190Q-103 -187 -103.5 -182Q-104 -177 -101 -172L-96 -164Q-92 -158 -86.5 -156.5Q-81 -155 -75 -159Q-61 -168 -43.5 -173.5Q-26 -179 -12 -179Q29 -179 51 -155Q73 -131 73 -85V441Q73 447 77.5 451.5Q82 456 88 456ZM93 676H102Q110 676 115 673.5Q120 671 125 663L214 536Q217 532 214.5 527.5Q212 523 207 523H190Q184 523 179.5 525Q175 527 171 533L97 632L23 533Q18 527 14 525Q10 523 4 523H-13Q-19 523 -21.5 527.5Q-24 532 -20 536L69 663Q73 671 78.5 673.5Q84 676 93 676Z" glyph-name="jcircumflex" horiz-adv-x="192" unicode="&#309;" /><glyph d="M118 238V15Q118 9 113.5 4.5Q109 0 103 0H89Q83 0 78.5 4.5Q74 9 74 15V685Q74 691 78.5 695.5Q83 700 89 700H103Q109 700 113.5 695.5Q118 691 118 685V276H182L356 449Q360 453 363.5 454.5Q367 456 371 456H406Q411 456 412 452Q413 448 409 444L217 257L444 11Q447 8 445 4Q443 0 439 0H411Q403 0 397 2.5Q391 5 385 11L178 238Z" glyph-name="k" horiz-adv-x="444" unicode="k" /><glyph d="M118 238V15Q118 9 113.5 4.5Q109 0 103 0H89Q83 0 78.5 4.5Q74 9 74 15V685Q74 691 78.5 695.5Q83 700 89 700H103Q109 700 113.5 695.5Q118 691 118 685V276H182L356 449Q360 453 363.5 454.5Q367 456 371 456H406Q411 456 412 452Q413 448 409 444L217 257L444 11Q447 8 445 4Q443 0 439 0H411Q403 0 397 2.5Q391 5 385 11L178 238ZM171 -222 206 -149Q189 -144 178.5 -130.5Q168 -117 168 -100Q168 -79 182.5 -64.5Q197 -50 218 -50Q239 -50 253.5 -65.5Q268 -81 268 -102Q268 -123 256 -149.5Q244 -176 207 -226Q200 -236 195.5 -238Q191 -240 187 -238L179 -234Q173 -231 171.5 -228.5Q170 -226 171 -222Z" glyph-name="kcommaaccent" horiz-adv-x="444" unicode="&#311;" /><glyph d="M118 238V15Q118 9 113.5 4.5Q109 0 103 0H89Q83 0 78.5 4.5Q74 9 74 15V441Q74 447 78.5 451.5Q83 456 89 456H103Q109 456 113.5 451.5Q118 447 118 441V276H182L356 449Q360 453 363.5 454.5Q367 456 371 456H406Q411 456 412 452Q413 448 409 444L217 257L444 11Q447 8 445 4Q443 0 439 0H411Q403 0 397 2.5Q391 5 385 11L178 238Z" glyph-name="kgreenlandic" horiz-adv-x="444" unicode="&#312;" /><glyph d="M206 0H179Q127 0 99.5 27.5Q72 55 72 108V685Q72 691 76.5 695.5Q81 700 87 700H101Q107 700 111.5 695.5Q116 691 116 685V109Q116 73 133 55.5Q150 38 185 38H206Q212 38 216.5 33.5Q221 29 221 23V15Q221 9 216.5 4.5Q212 0 206 0Z" glyph-name="l" horiz-adv-x="222" unicode="l" /><glyph d="M206 0H179Q127 0 99.5 27.5Q72 55 72 108V685Q72 691 76.5 695.5Q81 700 87 700H101Q107 700 111.5 695.5Q116 691 116 685V109Q116 73 133 55.5Q150 38 185 38H206Q212 38 216.5 33.5Q221 29 221 23V15Q221 9 216.5 4.5Q212 0 206 0ZM165 920H191Q196 920 198.5 916Q201 912 199 907L129 780Q125 773 121.5 770Q118 767 112 767H96Q91 767 88.5 770.5Q86 774 88 779L144 906Q147 913 152 916.5Q157 920 165 920Z" glyph-name="lacute" horiz-adv-x="222" unicode="&#314;" /><glyph d="M206 0H179Q127 0 99.5 27.5Q72 55 72 108V685Q72 691 76.5 695.5Q81 700 87 700H101Q107 700 111.5 695.5Q116 691 116 685V109Q116 73 133 55.5Q150 38 185 38H206Q212 38 216.5 33.5Q221 29 221 23V15Q221 9 216.5 4.5Q212 0 206 0ZM197 528 232 601Q215 606 204.5 619.5Q194 633 194 650Q194 671 208.5 685.5Q223 700 244 700Q265 700 279.5 684.5Q294 669 294 648Q294 627 282 600.5Q270 574 233 524Q226 514 221.5 512Q217 510 213 512L205 516Q199 519 197.5 521.5Q196 524 197 528Z" glyph-name="lcaron" horiz-adv-x="234" unicode="&#318;" /><glyph d="M206 0H179Q127 0 99.5 27.5Q72 55 72 108V685Q72 691 76.5 695.5Q81 700 87 700H101Q107 700 111.5 695.5Q116 691 116 685V109Q116 73 133 55.5Q150 38 185 38H206Q212 38 216.5 33.5Q221 29 221 23V15Q221 9 216.5 4.5Q212 0 206 0ZM76 -222 111 -149Q94 -144 83.5 -130.5Q73 -117 73 -100Q73 -79 87.5 -64.5Q102 -50 123 -50Q144 -50 158.5 -65.5Q173 -81 173 -102Q173 -123 161 -149.5Q149 -176 112 -226Q105 -236 100.5 -238Q96 -240 92 -238L84 -234Q78 -231 76.5 -228.5Q75 -226 76 -222Z" glyph-name="lcommaaccent" horiz-adv-x="222" unicode="&#316;" /><glyph d="M206 0H179Q127 0 99.5 27.5Q72 55 72 108V685Q72 691 76.5 695.5Q81 700 87 700H101Q107 700 111.5 695.5Q116 691 116 685V109Q116 73 133 55.5Q150 38 185 38H206Q212 38 216.5 33.5Q221 29 221 23V15Q221 9 216.5 4.5Q212 0 206 0ZM303 257Q303 234 286.5 217.5Q270 201 247 201Q224 201 207.5 217.5Q191 234 191 257Q191 280 207.5 296.5Q224 313 247 313Q270 313 286.5 296.5Q303 280 303 257Z" glyph-name="ldot" horiz-adv-x="313" unicode="&#320;" /><glyph d="M452 197V178Q452 172 448 169Q444 166 438 168L59 318Q50 322 45.5 328.5Q41 335 41 347Q41 357 45.5 363.5Q50 370 59 374L438 523Q444 525 448 522Q452 519 452 513V494Q452 488 449 484.5Q446 481 438 478L91 346L438 213Q446 210 449 206.5Q452 203 452 197Z" glyph-name="less" horiz-adv-x="539" unicode="&lt;" /><glyph d="M97 357 326 595Q331 601 335.5 603.5Q340 606 346 606H379Q383 606 385 602Q387 598 384 595L171 373H835Q841 373 845.5 368.5Q850 364 850 358V346Q850 340 845.5 335.5Q841 331 835 331H171L385 109Q388 106 386 102Q384 98 380 98H346Q340 98 335.5 100.5Q331 103 326 109L97 348Q95 350 95 352.5Q95 355 97 357Z" glyph-name="less.alt" horiz-adv-x="960" /><glyph d="M476 197V178Q476 172 472 169Q468 166 462 168L83 318Q74 322 69.5 328.5Q65 335 65 347Q65 357 69.5 363.5Q74 370 83 374L462 523Q468 525 472 522Q476 519 476 513V494Q476 488 473 484.5Q470 481 462 478L115 346L462 213Q470 210 473 206.5Q476 203 476 197ZM475 27V15Q475 9 470.5 4.5Q466 0 460 0H83Q77 0 72.5 4.5Q68 9 68 15V27Q68 33 72.5 37.5Q77 42 83 42H460Q466 42 470.5 37.5Q475 33 475 27Z" glyph-name="lessequal" horiz-adv-x="564" unicode="&#8804;" /><glyph d="M372 81Q362 36 327.5 11Q293 -14 244 -14Q181 -14 143 26Q105 66 105 133V260Q89 250 79.5 244.5Q70 239 63 234Q58 231 52 232.5Q46 234 43 239L38 248Q34 253 35.5 259Q37 265 43 269Q49 272 56.5 277Q64 282 80 292Q91 299 96 302Q101 305 105 308V563Q105 634 139.5 673.5Q174 713 234 713Q287 713 321 674.5Q355 636 355 576Q355 496 306.5 428.5Q258 361 150 287V139Q150 85 175 55Q200 25 245 25Q279 25 301.5 42Q324 59 332 91Q334 97 337.5 100Q341 103 347 102L360 100Q368 99 371 94Q374 89 372 81ZM310 569Q310 618 289 645Q268 672 230 672Q194 672 172 644Q150 616 150 568V334Q234 398 272 453.5Q310 509 310 569Z" glyph-name="litre" horiz-adv-x="402" unicode="&#8467;" /><glyph d="M463 436V263Q463 257 458.5 252.5Q454 248 448 248H434Q428 248 423.5 252.5Q419 257 419 263V407H71Q65 407 60.5 411.5Q56 416 56 422V436Q56 442 60.5 446.5Q65 451 71 451H448Q454 451 458.5 446.5Q463 442 463 436Z" glyph-name="logicalnot" horiz-adv-x="538" unicode="&#172;" /><glyph d="M732 799Q658 799 603.5 760Q549 721 534 658Q515 677 502.5 705.5Q490 734 490 763Q490 828 539 873.5Q588 919 670 919Q742 919 788 878.5Q834 838 834 779Q812 789 786.5 794Q761 799 732 799ZM306 217Q324 206 344.5 199Q365 192 377 192Q353 232 340 274Q327 316 327 355Q327 455 386 520.5Q445 586 529 586Q624 586 680 526Q736 466 736 369Q736 327 723.5 283Q711 239 686 192Q702 194 718 200.5Q734 207 750 217Q801 249 828 300.5Q855 352 855 418Q855 513 790 576.5Q725 640 628 649Q639 662 655.5 673Q672 684 695 692Q713 699 733 702.5Q753 706 774 706Q827 706 879.5 681.5Q932 657 969 613Q1004 573 1021.5 520.5Q1039 468 1039 405Q1039 327 1013.5 253.5Q988 180 941 123Q890 61 822 28Q754 -5 676 -5Q638 -5 599 5Q560 15 528 33Q496 15 457 5Q418 -5 380 -5Q302 -5 234 28Q166 61 115 123Q68 180 42.5 253.5Q17 327 17 405Q17 468 34.5 520.5Q52 573 87 613Q124 657 176.5 681.5Q229 706 282 706Q303 706 323 702.5Q343 699 361 692Q384 684 400.5 673Q417 662 428 649Q331 640 266 576.5Q201 513 201 418Q201 352 228 300.5Q255 249 306 217ZM502 465Q490 451 483.5 427.5Q477 404 477 377Q477 337 491 297Q505 257 531 226Q557 258 571 296.5Q585 335 585 374Q585 438 550 476Q515 514 465 514Q453 514 441.5 511Q430 508 418 503Q406 497 396.5 489.5Q387 482 380 474Q389 482 402.5 485.5Q416 489 434 489Q454 489 470.5 483.5Q487 478 502 465Z" glyph-name="logo" horiz-adv-x="1056" /></font>
</defs>
</svg>
