<?xml version="1.0" standalone="no"?><!DOCTYPE svg PUBLIC "-//W3C//DTD SVG 1.1//EN" "http://www.w3.org/Graphics/SVG/1.1/DTD/svg11.dtd" ><svg version="1.1" xmlns="http://www.w3.org/2000/svg"><defs><font horiz-adv-x="0" id="font"><font-face ascent="750" bbox="-200.9231 -321 6997 1024" cap-height="700" descent="-250" font-family="Fresh Sans" font-stretch="normal" font-style="normal" font-weight="500" units-per-em="1000" x-height="482" /><missing-glyph horiz-adv-x="0" /><glyph glyph-name=".null" horiz-adv-x="0" /><glyph d="M334 556H329L237 283H428ZM199 170 148 19Q145 10 139 5Q133 0 126 0H27Q15 0 10 9Q5 18 10 31L242 679Q245 689 253 694.5Q261 700 270 700H404Q413 700 421 694.5Q429 689 432 679L665 32Q670 18 664.5 9Q659 0 646 0H541Q533 0 527.5 4.5Q522 9 519 19L467 170Z" glyph-name="A" horiz-adv-x="673" unicode="A" /><glyph d="M242 286H446L344 593ZM208 170 158 21Q155 11 148.5 5.5Q142 0 132 0H28Q15 0 10 8Q5 16 9 30L236 679Q239 689 247 694.5Q255 700 264 700H890Q899 700 905.5 693.5Q912 687 912 678V595Q912 586 905.5 580Q899 574 890 574H494L554 412H755Q764 412 770.5 405.5Q777 399 777 390V314Q777 305 770.5 298.5Q764 292 755 292H594L655 126H890Q899 126 905.5 120Q912 114 912 105V22Q912 13 905.5 6.5Q899 0 890 0H560Q549 0 541.5 5.5Q534 11 531 21L480 170Z" glyph-name="AE" horiz-adv-x="937" unicode="&#198;" /><glyph d="M334 556H329L237 283H428ZM199 170 148 19Q145 10 139 5Q133 0 126 0H27Q15 0 10 9Q5 18 10 31L242 679Q245 689 253 694.5Q261 700 270 700H404Q413 700 421 694.5Q429 689 432 679L665 32Q670 18 664.5 9Q659 0 646 0H541Q533 0 527.5 4.5Q522 9 519 19L467 170ZM355 949H464Q477 949 482.5 939Q488 929 482 919L394 768Q389 759 383 755.5Q377 752 369 752H311Q297 752 290.5 759.5Q284 767 287 781L329 931Q331 939 338 944Q345 949 355 949Z" glyph-name="Aacute" horiz-adv-x="673" unicode="&#193;" /><glyph d="M334 556H329L237 283H428ZM199 170 148 19Q145 10 139 5Q133 0 126 0H27Q15 0 10 9Q5 18 10 31L242 679Q245 689 253 694.5Q261 700 270 700H404Q413 700 421 694.5Q429 689 432 679L665 32Q670 18 664.5 9Q659 0 646 0H541Q533 0 527.5 4.5Q522 9 519 19L467 170ZM277 917V906Q277 880 293 865Q309 850 335 850Q361 850 377.5 865.5Q394 881 394 906V917Q394 924 398.5 928.5Q403 933 409 933H486Q493 933 497.5 928.5Q502 924 502 917V897Q502 827 457.5 787Q413 747 335 747Q257 747 213 787Q169 827 169 897V917Q169 924 173.5 928.5Q178 933 184 933H262Q268 933 272.5 928.5Q277 924 277 917Z" glyph-name="Abreve" horiz-adv-x="673" unicode="&#258;" /><glyph d="M334 556H329L237 283H428ZM199 170 148 19Q145 10 139 5Q133 0 126 0H27Q15 0 10 9Q5 18 10 31L242 679Q245 689 253 694.5Q261 700 270 700H404Q413 700 421 694.5Q429 689 432 679L665 32Q670 18 664.5 9Q659 0 646 0H541Q533 0 527.5 4.5Q522 9 519 19L467 170ZM282 949H389Q398 949 405 944Q412 939 418 929L510 781Q517 771 512 761.5Q507 752 497 752H423Q414 752 408 755Q402 758 395 768L335 849L276 768Q267 758 261.5 755Q256 752 247 752H174Q164 752 158.5 761Q153 770 160 781L252 929Q258 940 265 944.5Q272 949 282 949Z" glyph-name="Acircumflex" horiz-adv-x="673" unicode="&#194;" /><glyph d="M334 556H329L237 283H428ZM199 170 148 19Q145 10 139 5Q133 0 126 0H27Q15 0 10 9Q5 18 10 31L242 679Q245 689 253 694.5Q261 700 270 700H404Q413 700 421 694.5Q429 689 432 679L665 32Q670 18 664.5 9Q659 0 646 0H541Q533 0 527.5 4.5Q522 9 519 19L467 170ZM438 748Q405 748 380.5 772.5Q356 797 356 830Q356 863 380.5 887.5Q405 912 438 912Q472 912 496 888Q520 864 520 830Q520 796 496 772Q472 748 438 748ZM231 748Q197 748 173 772Q149 796 149 830Q149 864 173 888Q197 912 231 912Q265 912 289 888Q313 864 313 830Q313 796 289 772Q265 748 231 748Z" glyph-name="Adieresis" horiz-adv-x="673" unicode="&#196;" /><glyph d="M334 556H329L237 283H428ZM199 170 148 19Q145 10 139 5Q133 0 126 0H27Q15 0 10 9Q5 18 10 31L242 679Q245 689 253 694.5Q261 700 270 700H404Q413 700 421 694.5Q429 689 432 679L665 32Q670 18 664.5 9Q659 0 646 0H541Q533 0 527.5 4.5Q522 9 519 19L467 170ZM209 949H318Q328 949 334.5 944Q341 939 343 931L386 781Q389 767 382.5 759.5Q376 752 362 752H304Q296 752 290.5 755.5Q285 759 279 768L191 919Q185 929 190.5 939Q196 949 209 949Z" glyph-name="Agrave" horiz-adv-x="673" unicode="&#192;" /><glyph d="M334 556H329L237 283H428ZM199 170 148 19Q145 10 139 5Q133 0 126 0H27Q15 0 10 9Q5 18 10 31L242 679Q245 689 253 694.5Q261 700 270 700H404Q413 700 421 694.5Q429 689 432 679L665 32Q670 18 664.5 9Q659 0 646 0H541Q533 0 527.5 4.5Q522 9 519 19L467 170ZM483 770H186Q177 770 171 776.5Q165 783 165 792V857Q165 866 171 872Q177 878 186 878H483Q492 878 498.5 872Q505 866 505 857V792Q505 783 498.5 776.5Q492 770 483 770Z" glyph-name="Amacron" horiz-adv-x="673" unicode="&#256;" /><glyph d="M334 556H329L237 283H428ZM680 -166 676 -202Q674 -218 651.5 -226.5Q629 -235 590 -235Q535 -235 502.5 -210Q470 -185 470 -142Q470 -105 495.5 -67.5Q521 -30 566 0H541Q533 0 527.5 4.5Q522 9 519 19L467 170H199L148 19Q145 10 139 5Q133 0 126 0H27Q15 0 10 9Q5 18 10 31L242 679Q245 689 253 694.5Q261 700 270 700H404Q413 700 421 694.5Q429 689 432 679L665 32Q670 18 664.5 9Q659 0 646 0H642Q615 -37 601.5 -64.5Q588 -92 588 -108Q588 -127 599 -136.5Q610 -146 632 -146Q635 -146 643 -145.5Q651 -145 664 -143Q673 -142 677.5 -148Q682 -154 680 -166Z" glyph-name="Aogonek" horiz-adv-x="673" unicode="&#260;" /><glyph d="M334 556H329L237 283H428ZM199 170 148 19Q145 10 139 5Q133 0 126 0H27Q15 0 10 9Q5 18 10 31L242 679Q245 689 253 694.5Q261 700 270 700H404Q413 700 421 694.5Q429 689 432 679L665 32Q670 18 664.5 9Q659 0 646 0H541Q533 0 527.5 4.5Q522 9 519 19L467 170ZM335 1024Q397 1024 439 984Q481 944 482 884Q481 825 439 785Q397 745 335 745Q273 745 231 785Q189 825 189 884Q189 944 231 984Q273 1024 335 1024ZM335 822Q361 822 378 840Q395 858 395 884Q395 911 378 929Q361 947 335 947Q309 947 292 929Q275 911 275 884Q275 858 292 840Q309 822 335 822Z" glyph-name="Aring" horiz-adv-x="673" unicode="&#197;" /><glyph d="M334 556H329L237 283H428ZM199 170 148 19Q145 10 139 5Q133 0 126 0H27Q15 0 10 9Q5 18 10 31L242 679Q245 689 253 694.5Q261 700 270 700H404Q413 700 421 694.5Q429 689 432 679L665 32Q670 18 664.5 9Q659 0 646 0H541Q533 0 527.5 4.5Q522 9 519 19L467 170ZM323 784Q294 792 282.5 794.5Q271 797 264 797Q253 797 243 793Q233 789 218 777Q209 769 205 767Q201 765 197 765Q192 765 187.5 767.5Q183 770 179 776L153 814Q149 819 147 825.5Q145 832 145 839Q145 866 176.5 890.5Q208 915 250 915Q263 915 281.5 911.5Q300 908 339 897Q370 888 382.5 885.5Q395 883 403 883Q414 883 424 887Q434 891 449 903Q458 911 462 913Q466 915 470 915Q476 915 480 912.5Q484 910 489 903L514 866Q518 860 520 853.5Q522 847 522 841Q522 814 490.5 789.5Q459 765 417 765Q403 765 383 769Q363 773 323 784Z" glyph-name="Atilde" horiz-adv-x="673" unicode="&#195;" /><glyph d="M86 700H391Q496 700 556 650.5Q616 601 616 523Q616 473 591 435Q566 397 522 378Q584 357 618 311Q652 265 652 204Q652 117 587.5 58.5Q523 0 418 0H86Q77 0 71 6Q65 12 65 21V679Q65 688 71 694Q77 700 86 700ZM478 505Q478 546 450 570Q422 594 373 594H199V415H373Q422 415 450 439Q478 463 478 505ZM513 210Q513 256 480 285Q447 314 397 314H199V106H397Q447 106 480 135Q513 164 513 210Z" glyph-name="B" horiz-adv-x="678" unicode="B" /><glyph d="M27 350Q27 504 133.5 609Q240 714 395 714Q513 714 604.5 655Q696 596 729 497Q732 487 729.5 482Q727 477 718 475L618 450Q610 448 605 451Q600 454 596 464Q566 524 514.5 557Q463 590 396 590Q297 590 232 521.5Q167 453 167 350Q167 247 232 178.5Q297 110 396 110Q463 110 514.5 143Q566 176 596 236Q600 246 605 249Q610 252 618 250L718 225Q727 223 729.5 218Q732 213 729 203Q696 104 604.5 45Q513 -14 395 -14Q240 -14 133.5 91Q27 196 27 350Z" glyph-name="C" horiz-adv-x="741" unicode="C" /><glyph glyph-name="CR" horiz-adv-x="0" /><glyph d="M411 949H520Q533 949 538.5 939Q544 929 538 919L450 768Q445 759 439 755.5Q433 752 425 752H367Q353 752 346.5 759.5Q340 767 343 781L385 931Q387 939 394 944Q401 949 411 949ZM27 350Q27 504 133.5 609Q240 714 395 714Q513 714 604.5 655Q696 596 729 497Q732 487 729.5 482Q727 477 718 475L618 450Q610 448 605 451Q600 454 596 464Q566 524 514.5 557Q463 590 396 590Q297 590 232 521.5Q167 453 167 350Q167 247 232 178.5Q297 110 396 110Q463 110 514.5 143Q566 176 596 236Q600 246 605 249Q610 252 618 250L718 225Q727 223 729.5 218Q732 213 729 203Q696 104 604.5 45Q513 -14 395 -14Q240 -14 133.5 91Q27 196 27 350Z" glyph-name="Cacute" horiz-adv-x="741" unicode="&#262;" /><glyph d="M446 752H339Q329 752 322 757Q315 762 309 772L217 920Q210 931 215 940Q220 949 231 949H304Q313 949 318.5 946Q324 943 333 933L392 852L452 933Q459 943 465 946Q471 949 480 949H554Q564 949 569 940Q574 931 567 920L475 772Q469 762 462 757Q455 752 446 752ZM27 350Q27 504 133.5 609Q240 714 395 714Q513 714 604.5 655Q696 596 729 497Q732 487 729.5 482Q727 477 718 475L618 450Q610 448 605 451Q600 454 596 464Q566 524 514.5 557Q463 590 396 590Q297 590 232 521.5Q167 453 167 350Q167 247 232 178.5Q297 110 396 110Q463 110 514.5 143Q566 176 596 236Q600 246 605 249Q610 252 618 250L718 225Q727 223 729.5 218Q732 213 729 203Q696 104 604.5 45Q513 -14 395 -14Q240 -14 133.5 91Q27 196 27 350Z" glyph-name="Ccaron" horiz-adv-x="741" unicode="&#268;" /><glyph d="M456 -10 389 -146Q386 -153 380 -156.5Q374 -160 363 -160H295Q283 -160 278 -153Q273 -146 277 -134L321 -7Q191 18 109 117.5Q27 217 27 350Q27 504 133.5 609Q240 714 395 714Q513 714 604.5 655Q696 596 729 497Q732 487 729.5 482Q727 477 718 475L618 450Q610 448 605 451Q600 454 596 464Q566 524 514.5 557Q463 590 396 590Q297 590 232 521.5Q167 453 167 350Q167 247 232 178.5Q297 110 396 110Q463 110 514.5 143Q566 176 596 236Q600 246 605 249Q610 252 618 250L718 225Q727 223 729.5 218Q732 213 729 203Q700 118 627.5 61.5Q555 5 456 -10Z" glyph-name="Ccedilla" horiz-adv-x="741" unicode="&#199;" /><glyph d="M338 949H445Q454 949 461 944Q468 939 474 929L566 781Q573 771 568 761.5Q563 752 553 752H479Q470 752 464 755Q458 758 451 768L391 849L332 768Q323 758 317.5 755Q312 752 303 752H230Q220 752 214.5 761Q209 770 216 781L308 929Q314 940 321 944.5Q328 949 338 949ZM27 350Q27 504 133.5 609Q240 714 395 714Q513 714 604.5 655Q696 596 729 497Q732 487 729.5 482Q727 477 718 475L618 450Q610 448 605 451Q600 454 596 464Q566 524 514.5 557Q463 590 396 590Q297 590 232 521.5Q167 453 167 350Q167 247 232 178.5Q297 110 396 110Q463 110 514.5 143Q566 176 596 236Q600 246 605 249Q610 252 618 250L718 225Q727 223 729.5 218Q732 213 729 203Q696 104 604.5 45Q513 -14 395 -14Q240 -14 133.5 91Q27 196 27 350Z" glyph-name="Ccircumflex" horiz-adv-x="741" unicode="&#264;" /><glyph d="M27 350Q27 504 133.5 609Q240 714 395 714Q513 714 604.5 655Q696 596 729 497Q732 487 729.5 482Q727 477 718 475L618 450Q610 448 605 451Q600 454 596 464Q566 524 514.5 557Q463 590 396 590Q297 590 232 521.5Q167 453 167 350Q167 247 232 178.5Q297 110 396 110Q463 110 514.5 143Q566 176 596 236Q600 246 605 249Q610 252 618 250L718 225Q727 223 729.5 218Q732 213 729 203Q696 104 604.5 45Q513 -14 395 -14Q240 -14 133.5 91Q27 196 27 350ZM480 846Q480 809 454 782.5Q428 756 391 756Q354 756 327.5 782.5Q301 809 301 846Q301 883 327.5 909.5Q354 936 391 936Q428 936 454 909.5Q480 883 480 846Z" glyph-name="Cdotaccent" horiz-adv-x="741" unicode="&#266;" /><glyph d="M86 700H348Q512 700 610.5 604.5Q709 509 709 351Q709 193 610 96.5Q511 0 348 0H86Q77 0 71 6.5Q65 13 65 22V679Q65 688 71 694Q77 700 86 700ZM199 123H350Q447 123 508 187Q569 251 569 351Q569 452 508 514.5Q447 577 350 577H199Z" glyph-name="D" horiz-adv-x="737" unicode="D" /><glyph d="M427 752H320Q310 752 303 757Q296 762 290 772L198 920Q191 931 196 940Q201 949 212 949H285Q294 949 299.5 946Q305 943 314 933L373 852L433 933Q440 943 446 946Q452 949 461 949H535Q545 949 550 940Q555 931 548 920L456 772Q450 762 443 757Q436 752 427 752ZM86 700H348Q512 700 610.5 604.5Q709 509 709 351Q709 193 610 96.5Q511 0 348 0H86Q77 0 71 6.5Q65 13 65 22V679Q65 688 71 694Q77 700 86 700ZM199 123H350Q447 123 508 187Q569 251 569 351Q569 452 508 514.5Q447 577 350 577H199Z" glyph-name="Dcaron" horiz-adv-x="737" unicode="&#270;" /><glyph d="M726 351Q726 193 627 96.5Q528 0 365 0H103Q94 0 88 6.5Q82 13 82 22V299H21Q12 299 5.5 305.5Q-1 312 -1 321V383Q-1 392 5.5 398.5Q12 405 21 405H82V679Q82 688 88 694Q94 700 103 700H365Q529 700 627.5 604.5Q726 509 726 351ZM216 299V123H367Q464 123 525 187Q586 251 586 351Q586 452 525 514.5Q464 577 367 577H216V405H381Q390 405 396 398.5Q402 392 402 383V321Q402 312 396 305.5Q390 299 381 299Z" glyph-name="Dcroat" horiz-adv-x="754" unicode="&#272;" /><glyph d="M40 132 299 679Q304 689 312 694.5Q320 700 330 700H426Q436 700 444 694.5Q452 689 457 679L717 132Q722 122 724.5 113Q727 104 727 93V22Q727 13 720.5 6.5Q714 0 705 0H51Q42 0 36 6.5Q30 13 30 22V93Q30 106 32.5 114.5Q35 123 40 132ZM570 123 375 563 180 123Z" glyph-name="Delta" horiz-adv-x="757" unicode="&#8710;" /><glyph d="M86 700H579Q588 700 594 693.5Q600 687 600 678V598Q600 589 594 583Q588 577 579 577H199V412H397Q406 412 412 405.5Q418 399 418 390V314Q418 305 412 298.5Q406 292 397 292H199V123H585Q594 123 600.5 117Q607 111 607 102V22Q607 13 600.5 6.5Q594 0 585 0H86Q77 0 71 6.5Q65 13 65 22V679Q65 688 71 694Q77 700 86 700Z" glyph-name="E" horiz-adv-x="629" unicode="E" /><glyph d="M114 81H57V66H89Q91 66 92 65Q93 64 93 62V45Q93 44 92 42.5Q91 41 89 41H57V25H114Q116 25 117 24Q118 23 118 21V4Q118 3 117 1.5Q116 0 114 0H34Q33 0 31.5 1.5Q30 3 30 4V102Q30 104 31.5 105Q33 106 34 106H114Q116 106 117 105Q118 104 118 102V85Q118 84 117 82.5Q116 81 114 81ZM180 46H202L191 84ZM140 7 171 102Q172 104 173 105Q174 106 175 106H209Q210 106 211 105Q212 104 213 102L244 7Q244 7 244.5 6Q245 5 245 4Q245 3 244 1.5Q243 0 241 0H217Q216 0 215 1Q214 2 214 4L208 23H173L167 4Q166 2 165 1Q164 0 163 0H143Q142 0 140.5 1.5Q139 3 139 4Q140 5 140 6Q140 7 140 7Z" glyph-name="EA.alt" horiz-adv-x="0" /><glyph d="M352 949H461Q474 949 479.5 939Q485 929 479 919L391 768Q386 759 380 755.5Q374 752 366 752H308Q294 752 287.5 759.5Q281 767 284 781L326 931Q328 939 335 944Q342 949 352 949ZM86 700H579Q588 700 594 693.5Q600 687 600 678V598Q600 589 594 583Q588 577 579 577H199V412H397Q406 412 412 405.5Q418 399 418 390V314Q418 305 412 298.5Q406 292 397 292H199V123H585Q594 123 600.5 117Q607 111 607 102V22Q607 13 600.5 6.5Q594 0 585 0H86Q77 0 71 6.5Q65 13 65 22V679Q65 688 71 694Q77 700 86 700Z" glyph-name="Eacute" horiz-adv-x="629" unicode="&#201;" /><glyph d="M86 700H579Q588 700 594 693.5Q600 687 600 678V598Q600 589 594 583Q588 577 579 577H199V412H397Q406 412 412 405.5Q418 399 418 390V314Q418 305 412 298.5Q406 292 397 292H199V123H585Q594 123 600.5 117Q607 111 607 102V22Q607 13 600.5 6.5Q594 0 585 0H86Q77 0 71 6.5Q65 13 65 22V679Q65 688 71 694Q77 700 86 700ZM274 917V906Q274 880 290 865Q306 850 332 850Q358 850 374.5 865.5Q391 881 391 906V917Q391 924 395.5 928.5Q400 933 406 933H483Q490 933 494.5 928.5Q499 924 499 917V897Q499 827 454.5 787Q410 747 332 747Q254 747 210 787Q166 827 166 897V917Q166 924 170.5 928.5Q175 933 181 933H259Q265 933 269.5 928.5Q274 924 274 917Z" glyph-name="Ebreve" horiz-adv-x="629" unicode="&#276;" /><glyph d="M387 752H280Q270 752 263 757Q256 762 250 772L158 920Q151 931 156 940Q161 949 172 949H245Q254 949 259.5 946Q265 943 274 933L333 852L393 933Q400 943 406 946Q412 949 421 949H495Q505 949 510 940Q515 931 508 920L416 772Q410 762 403 757Q396 752 387 752ZM86 700H579Q588 700 594 693.5Q600 687 600 678V598Q600 589 594 583Q588 577 579 577H199V412H397Q406 412 412 405.5Q418 399 418 390V314Q418 305 412 298.5Q406 292 397 292H199V123H585Q594 123 600.5 117Q607 111 607 102V22Q607 13 600.5 6.5Q594 0 585 0H86Q77 0 71 6.5Q65 13 65 22V679Q65 688 71 694Q77 700 86 700Z" glyph-name="Ecaron" horiz-adv-x="629" unicode="&#282;" /><glyph d="M279 949H386Q395 949 402 944Q409 939 415 929L507 781Q514 771 509 761.5Q504 752 494 752H420Q411 752 405 755Q399 758 392 768L332 849L273 768Q264 758 258.5 755Q253 752 244 752H171Q161 752 155.5 761Q150 770 157 781L249 929Q255 940 262 944.5Q269 949 279 949ZM86 700H579Q588 700 594 693.5Q600 687 600 678V598Q600 589 594 583Q588 577 579 577H199V412H397Q406 412 412 405.5Q418 399 418 390V314Q418 305 412 298.5Q406 292 397 292H199V123H585Q594 123 600.5 117Q607 111 607 102V22Q607 13 600.5 6.5Q594 0 585 0H86Q77 0 71 6.5Q65 13 65 22V679Q65 688 71 694Q77 700 86 700Z" glyph-name="Ecircumflex" horiz-adv-x="629" unicode="&#202;" /><glyph d="M435 748Q402 748 377.5 772.5Q353 797 353 830Q353 863 377.5 887.5Q402 912 435 912Q469 912 493 888Q517 864 517 830Q517 796 493 772Q469 748 435 748ZM228 748Q194 748 170 772Q146 796 146 830Q146 864 170 888Q194 912 228 912Q262 912 286 888Q310 864 310 830Q310 796 286 772Q262 748 228 748ZM86 700H579Q588 700 594 693.5Q600 687 600 678V598Q600 589 594 583Q588 577 579 577H199V412H397Q406 412 412 405.5Q418 399 418 390V314Q418 305 412 298.5Q406 292 397 292H199V123H585Q594 123 600.5 117Q607 111 607 102V22Q607 13 600.5 6.5Q594 0 585 0H86Q77 0 71 6.5Q65 13 65 22V679Q65 688 71 694Q77 700 86 700Z" glyph-name="Edieresis" horiz-adv-x="629" unicode="&#203;" /><glyph d="M86 700H579Q588 700 594 693.5Q600 687 600 678V598Q600 589 594 583Q588 577 579 577H199V412H397Q406 412 412 405.5Q418 399 418 390V314Q418 305 412 298.5Q406 292 397 292H199V123H585Q594 123 600.5 117Q607 111 607 102V22Q607 13 600.5 6.5Q594 0 585 0H86Q77 0 71 6.5Q65 13 65 22V679Q65 688 71 694Q77 700 86 700ZM421 846Q421 809 395 782.5Q369 756 332 756Q295 756 268.5 782.5Q242 809 242 846Q242 883 268.5 909.5Q295 936 332 936Q369 936 395 909.5Q421 883 421 846Z" glyph-name="Edotaccent" horiz-adv-x="629" unicode="&#278;" /><glyph d="M86 700H579Q588 700 594 693.5Q600 687 600 678V598Q600 589 594 583Q588 577 579 577H199V412H397Q406 412 412 405.5Q418 399 418 390V314Q418 305 412 298.5Q406 292 397 292H199V123H585Q594 123 600.5 117Q607 111 607 102V22Q607 13 600.5 6.5Q594 0 585 0H86Q77 0 71 6.5Q65 13 65 22V679Q65 688 71 694Q77 700 86 700ZM206 949H315Q325 949 331.5 944Q338 939 340 931L383 781Q386 767 379.5 759.5Q373 752 359 752H301Q293 752 287.5 755.5Q282 759 276 768L188 919Q182 929 187.5 939Q193 949 206 949Z" glyph-name="Egrave" horiz-adv-x="629" unicode="&#200;" /><glyph d="M86 700H579Q588 700 594 693.5Q600 687 600 678V598Q600 589 594 583Q588 577 579 577H199V412H397Q406 412 412 405.5Q418 399 418 390V314Q418 305 412 298.5Q406 292 397 292H199V123H585Q594 123 600.5 117Q607 111 607 102V22Q607 13 600.5 6.5Q594 0 585 0H86Q77 0 71 6.5Q65 13 65 22V679Q65 688 71 694Q77 700 86 700ZM480 770H183Q174 770 168 776.5Q162 783 162 792V857Q162 866 168 872Q174 878 183 878H480Q489 878 495.5 872Q502 866 502 857V792Q502 783 495.5 776.5Q489 770 480 770Z" glyph-name="Emacron" horiz-adv-x="629" unicode="&#274;" /><glyph d="M491 -246Q452 -246 416 -234Q380 -222 360 -201Q352 -194 351.5 -185Q351 -176 358 -167L394 -116Q400 -107 410 -105.5Q420 -104 432 -111Q444 -118 456.5 -122Q469 -126 479 -126Q503 -126 518 -109.5Q533 -93 533 -63V0Q522 1 514.5 5Q507 9 501 18L199 488V21Q199 12 193 6Q187 0 178 0H86Q77 0 71 6Q65 12 65 21V679Q65 688 71 694Q77 700 86 700H205Q215 700 223 696Q231 692 236 683L529 223V679Q529 687 535 693.5Q541 700 549 700H641Q649 700 656 693.5Q663 687 663 679V-68Q663 -151 615 -198.5Q567 -246 491 -246Z" glyph-name="Eng" horiz-adv-x="728" unicode="&#330;" /><glyph d="M561 -166 557 -202Q555 -218 532.5 -226.5Q510 -235 471 -235Q416 -235 383.5 -210Q351 -185 351 -142Q351 -105 376.5 -67.5Q402 -30 447 0H86Q77 0 71 6.5Q65 13 65 22V679Q65 688 71 694Q77 700 86 700H579Q588 700 594 693.5Q600 687 600 678V598Q600 589 594 583Q588 577 579 577H199V412H397Q406 412 412 405.5Q418 399 418 390V314Q418 305 412 298.5Q406 292 397 292H199V123H585Q594 123 600.5 117Q607 111 607 102V22Q607 13 600.5 6.5Q594 0 585 0H523Q496 -37 482.5 -64.5Q469 -92 469 -108Q469 -127 480 -136.5Q491 -146 513 -146Q516 -146 524 -145.5Q532 -145 545 -143Q554 -142 558.5 -148Q563 -154 561 -166Z" glyph-name="Eogonek" horiz-adv-x="629" unicode="&#280;" /><glyph d="M726 351Q726 193 627 96.5Q528 0 365 0H103Q94 0 88 6.5Q82 13 82 22V299H21Q12 299 5.5 305.5Q-1 312 -1 321V383Q-1 392 5.5 398.5Q12 405 21 405H82V679Q82 688 88 694Q94 700 103 700H365Q529 700 627.5 604.5Q726 509 726 351ZM216 299V123H367Q464 123 525 187Q586 251 586 351Q586 452 525 514.5Q464 577 367 577H216V405H381Q390 405 396 398.5Q402 392 402 383V321Q402 312 396 305.5Q390 299 381 299Z" glyph-name="Eth" horiz-adv-x="754" unicode="&#208;" /><glyph d="M652 81Q621 39 556 12.5Q491 -14 418 -14Q298 -14 212 53Q126 120 101 234H53Q44 234 37.5 240Q31 246 31 255V292Q31 301 37.5 307.5Q44 314 53 314H86Q85 327 84.5 335Q84 343 84 350Q84 356 84.5 363.5Q85 371 86 386H53Q44 386 37.5 392.5Q31 399 31 407V445Q31 454 37.5 460Q44 466 53 466H101Q127 582 211.5 648Q296 714 419 714Q492 714 557 687.5Q622 661 653 619Q658 610 658 601Q658 592 652 586L603 537Q592 526 580 526.5Q568 527 556 539Q528 566 494 579Q460 592 419 592Q358 592 314 559.5Q270 527 250 466H459Q468 466 474.5 460Q481 454 481 445V407Q481 399 474.5 392.5Q468 386 459 386H226Q225 371 224.5 363.5Q224 356 224 350Q224 343 224.5 335Q225 327 226 314H459Q468 314 474.5 307.5Q481 301 481 292V255Q481 246 474.5 240Q468 234 459 234H250Q270 175 315 141.5Q360 108 419 108Q459 108 492.5 121Q526 134 555 161Q567 173 579 173.5Q591 174 602 163L651 114Q657 108 657 99Q657 90 652 81Z" glyph-name="Euro" horiz-adv-x="694" unicode="&#8364;" /><glyph d="M488 358V281Q488 272 482 265.5Q476 259 467 259H199V22Q199 13 192.5 6.5Q186 0 177 0H86Q77 0 71 6.5Q65 13 65 22V679Q65 688 71 694Q77 700 86 700H558Q567 700 573.5 693.5Q580 687 580 678V598Q580 589 573.5 583Q567 577 558 577H199V379H467Q476 379 482 373Q488 367 488 358Z" glyph-name="F" horiz-adv-x="596" unicode="F" /><glyph d="M399 590Q300 590 233.5 520Q167 450 167 348Q167 244 233 176Q299 108 401 108Q470 108 525.5 144Q581 180 608 242H416Q407 242 400.5 248.5Q394 255 394 263V329Q394 338 400.5 344Q407 350 416 350H717Q726 350 732.5 344Q739 338 739 329V22Q739 13 732.5 6.5Q726 0 717 0H638Q629 0 622.5 6.5Q616 13 616 22V94Q577 40 518.5 13Q460 -14 383 -14Q231 -14 129 90.5Q27 195 27 350Q27 504 134.5 609Q242 714 399 714Q518 714 611.5 655Q705 596 742 497Q745 489 742.5 483Q740 477 731 475L632 450Q624 448 619 451Q614 454 610 464Q578 525 524 557.5Q470 590 399 590Z" glyph-name="G" horiz-adv-x="781" unicode="G" /><glyph d="M399 590Q300 590 233.5 520Q167 450 167 348Q167 244 233 176Q299 108 401 108Q470 108 525.5 144Q581 180 608 242H416Q407 242 400.5 248.5Q394 255 394 263V329Q394 338 400.5 344Q407 350 416 350H717Q726 350 732.5 344Q739 338 739 329V22Q739 13 732.5 6.5Q726 0 717 0H638Q629 0 622.5 6.5Q616 13 616 22V94Q577 40 518.5 13Q460 -14 383 -14Q231 -14 129 90.5Q27 195 27 350Q27 504 134.5 609Q242 714 399 714Q518 714 611.5 655Q705 596 742 497Q745 489 742.5 483Q740 477 731 475L632 450Q624 448 619 451Q614 454 610 464Q578 525 524 557.5Q470 590 399 590ZM334 917V906Q334 880 350 865Q366 850 392 850Q418 850 434.5 865.5Q451 881 451 906V917Q451 924 455.5 928.5Q460 933 466 933H543Q550 933 554.5 928.5Q559 924 559 917V897Q559 827 514.5 787Q470 747 392 747Q314 747 270 787Q226 827 226 897V917Q226 924 230.5 928.5Q235 933 241 933H319Q325 933 329.5 928.5Q334 924 334 917Z" glyph-name="Gbreve" horiz-adv-x="781" unicode="&#286;" /><glyph d="M339 949H446Q455 949 462 944Q469 939 475 929L567 781Q574 771 569 761.5Q564 752 554 752H480Q471 752 465 755Q459 758 452 768L392 849L333 768Q324 758 318.5 755Q313 752 304 752H231Q221 752 215.5 761Q210 770 217 781L309 929Q315 940 322 944.5Q329 949 339 949ZM399 590Q300 590 233.5 520Q167 450 167 348Q167 244 233 176Q299 108 401 108Q470 108 525.5 144Q581 180 608 242H416Q407 242 400.5 248.5Q394 255 394 263V329Q394 338 400.5 344Q407 350 416 350H717Q726 350 732.5 344Q739 338 739 329V22Q739 13 732.5 6.5Q726 0 717 0H638Q629 0 622.5 6.5Q616 13 616 22V94Q577 40 518.5 13Q460 -14 383 -14Q231 -14 129 90.5Q27 195 27 350Q27 504 134.5 609Q242 714 399 714Q518 714 611.5 655Q705 596 742 497Q745 489 742.5 483Q740 477 731 475L632 450Q624 448 619 451Q614 454 610 464Q578 525 524 557.5Q470 590 399 590Z" glyph-name="Gcircumflex" horiz-adv-x="781" unicode="&#284;" /><glyph d="M319 -263 359 -202Q338 -193 325.5 -174Q313 -155 313 -132Q313 -98 336 -75Q359 -52 393 -52Q427 -52 451 -76Q475 -100 475 -136Q475 -174 453 -212Q431 -250 383 -291Q370 -302 358.5 -304Q347 -306 338 -299L326 -292Q317 -285 315.5 -278Q314 -271 319 -263ZM399 590Q300 590 233.5 520Q167 450 167 348Q167 244 233 176Q299 108 401 108Q470 108 525.5 144Q581 180 608 242H416Q407 242 400.5 248.5Q394 255 394 263V329Q394 338 400.5 344Q407 350 416 350H717Q726 350 732.5 344Q739 338 739 329V22Q739 13 732.5 6.5Q726 0 717 0H638Q629 0 622.5 6.5Q616 13 616 22V94Q577 40 518.5 13Q460 -14 383 -14Q231 -14 129 90.5Q27 195 27 350Q27 504 134.5 609Q242 714 399 714Q518 714 611.5 655Q705 596 742 497Q745 489 742.5 483Q740 477 731 475L632 450Q624 448 619 451Q614 454 610 464Q578 525 524 557.5Q470 590 399 590Z" glyph-name="Gcommaaccent" horiz-adv-x="781" unicode="&#290;" /><glyph d="M399 590Q300 590 233.5 520Q167 450 167 348Q167 244 233 176Q299 108 401 108Q470 108 525.5 144Q581 180 608 242H416Q407 242 400.5 248.5Q394 255 394 263V329Q394 338 400.5 344Q407 350 416 350H717Q726 350 732.5 344Q739 338 739 329V22Q739 13 732.5 6.5Q726 0 717 0H638Q629 0 622.5 6.5Q616 13 616 22V94Q577 40 518.5 13Q460 -14 383 -14Q231 -14 129 90.5Q27 195 27 350Q27 504 134.5 609Q242 714 399 714Q518 714 611.5 655Q705 596 742 497Q745 489 742.5 483Q740 477 731 475L632 450Q624 448 619 451Q614 454 610 464Q578 525 524 557.5Q470 590 399 590ZM482 846Q482 809 456 782.5Q430 756 393 756Q356 756 329.5 782.5Q303 809 303 846Q303 883 329.5 909.5Q356 936 393 936Q430 936 456 909.5Q482 883 482 846Z" glyph-name="Gdotaccent" horiz-adv-x="781" unicode="&#288;" /><glyph d="M178 0H86Q77 0 71 6.5Q65 13 65 22V679Q65 688 71 694Q77 700 86 700H178Q187 700 193 694Q199 688 199 679V412H547V679Q547 688 553 694Q559 700 568 700H660Q669 700 675 694Q681 688 681 679V22Q681 13 675 6.5Q669 0 660 0H568Q559 0 553 6.5Q547 13 547 22V292H199V22Q199 13 193 6.5Q187 0 178 0Z" glyph-name="H" horiz-adv-x="746" unicode="H" /><glyph d="M201 505V412H549V505ZM201 292V22Q201 13 195 6.5Q189 0 180 0H88Q79 0 73 6.5Q67 13 67 22V505H33Q24 505 18 511.5Q12 518 12 527V579Q12 588 18 594.5Q24 601 33 601H67V679Q67 688 73 694Q79 700 88 700H180Q189 700 195 694Q201 688 201 679V601H549V679Q549 688 555 694Q561 700 570 700H662Q671 700 677 694Q683 688 683 679V601H717Q726 601 732.5 594.5Q739 588 739 579V527Q739 518 732.5 511.5Q726 505 717 505H683V22Q683 13 677 6.5Q671 0 662 0H570Q561 0 555 6.5Q549 13 549 22V292Z" glyph-name="Hbar" horiz-adv-x="750" unicode="&#294;" /><glyph d="M320 949H427Q436 949 443 944Q450 939 456 929L548 781Q555 771 550 761.5Q545 752 535 752H461Q452 752 446 755Q440 758 433 768L373 849L314 768Q305 758 299.5 755Q294 752 285 752H212Q202 752 196.5 761Q191 770 198 781L290 929Q296 940 303 944.5Q310 949 320 949ZM178 0H86Q77 0 71 6.5Q65 13 65 22V679Q65 688 71 694Q77 700 86 700H178Q187 700 193 694Q199 688 199 679V412H547V679Q547 688 553 694Q559 700 568 700H660Q669 700 675 694Q681 688 681 679V22Q681 13 675 6.5Q669 0 660 0H568Q559 0 553 6.5Q547 13 547 22V292H199V22Q199 13 193 6.5Q187 0 178 0Z" glyph-name="Hcircumflex" horiz-adv-x="746" unicode="&#292;" /><glyph d="M178 0H86Q77 0 71 6.5Q65 13 65 22V679Q65 688 71 694Q77 700 86 700H178Q187 700 193 694Q199 688 199 679V22Q199 13 193 6.5Q187 0 178 0Z" glyph-name="I" horiz-adv-x="264" unicode="I" /><glyph d="M178 0H86Q77 0 71 6.5Q65 13 65 22V679Q65 688 71 694Q77 700 86 700H178Q187 700 193 694Q199 688 199 679V22Q199 13 193 6.5Q187 0 178 0ZM547 107Q609 107 644 142Q679 177 679 239V679Q679 687 685.5 693.5Q692 700 701 700H792Q801 700 807 694Q813 688 813 679V236Q813 122 739 54Q665 -14 546 -14Q427 -14 354 51Q281 116 281 226V273Q281 282 287 288Q293 294 302 294H393Q402 294 408.5 288Q415 282 415 273V239Q415 177 450 142Q485 107 547 107Z" glyph-name="IJ" horiz-adv-x="872" unicode="&#306;" /><glyph d="M178 0H86Q77 0 71 6.5Q65 13 65 22V679Q65 688 71 694Q77 700 86 700H178Q187 700 193 694Q199 688 199 679V22Q199 13 193 6.5Q187 0 178 0ZM152 949H261Q274 949 279.5 939Q285 929 279 919L191 768Q186 759 180 755.5Q174 752 166 752H108Q94 752 87.5 759.5Q81 767 84 781L126 931Q128 939 135 944Q142 949 152 949Z" glyph-name="Iacute" horiz-adv-x="264" unicode="&#205;" /><glyph d="M178 0H86Q77 0 71 6.5Q65 13 65 22V679Q65 688 71 694Q77 700 86 700H178Q187 700 193 694Q199 688 199 679V22Q199 13 193 6.5Q187 0 178 0ZM73 917V906Q73 880 89 865Q105 850 131 850Q157 850 173.5 865.5Q190 881 190 906V917Q190 924 194.5 928.5Q199 933 205 933H282Q289 933 293.5 928.5Q298 924 298 917V897Q298 827 253.5 787Q209 747 131 747Q53 747 9 787Q-35 827 -35 897V917Q-35 924 -30.5 928.5Q-26 933 -20 933H58Q64 933 68.5 928.5Q73 924 73 917Z" glyph-name="Ibreve" horiz-adv-x="264" unicode="&#300;" /><glyph d="M178 0H86Q77 0 71 6.5Q65 13 65 22V679Q65 688 71 694Q77 700 86 700H178Q187 700 193 694Q199 688 199 679V22Q199 13 193 6.5Q187 0 178 0ZM78 949H185Q194 949 201 944Q208 939 214 929L306 781Q313 771 308 761.5Q303 752 293 752H219Q210 752 204 755Q198 758 191 768L131 849L72 768Q63 758 57.5 755Q52 752 43 752H-30Q-40 752 -45.5 761Q-51 770 -44 781L48 929Q54 940 61 944.5Q68 949 78 949Z" glyph-name="Icircumflex" horiz-adv-x="264" unicode="&#206;" /><glyph d="M178 0H86Q77 0 71 6.5Q65 13 65 22V679Q65 688 71 694Q77 700 86 700H178Q187 700 193 694Q199 688 199 679V22Q199 13 193 6.5Q187 0 178 0ZM235 748Q202 748 177.5 772.5Q153 797 153 830Q153 863 177.5 887.5Q202 912 235 912Q269 912 293 888Q317 864 317 830Q317 796 293 772Q269 748 235 748ZM28 748Q-6 748 -30 772Q-54 796 -54 830Q-54 864 -30 888Q-6 912 28 912Q62 912 86 888Q110 864 110 830Q110 796 86 772Q62 748 28 748Z" glyph-name="Idieresis" horiz-adv-x="264" unicode="&#207;" /><glyph d="M178 0H86Q77 0 71 6.5Q65 13 65 22V679Q65 688 71 694Q77 700 86 700H178Q187 700 193 694Q199 688 199 679V22Q199 13 193 6.5Q187 0 178 0ZM221 846Q221 809 195 782.5Q169 756 132 756Q95 756 68.5 782.5Q42 809 42 846Q42 883 68.5 909.5Q95 936 132 936Q169 936 195 909.5Q221 883 221 846Z" glyph-name="Idotaccent" horiz-adv-x="264" unicode="&#304;" /><glyph d="M178 0H86Q77 0 71 6.5Q65 13 65 22V679Q65 688 71 694Q77 700 86 700H178Q187 700 193 694Q199 688 199 679V22Q199 13 193 6.5Q187 0 178 0ZM6 949H115Q125 949 131.5 944Q138 939 140 931L183 781Q186 767 179.5 759.5Q173 752 159 752H101Q93 752 87.5 755.5Q82 759 76 768L-12 919Q-18 929 -12.5 939Q-7 949 6 949Z" glyph-name="Igrave" horiz-adv-x="264" unicode="&#204;" /><glyph d="M178 0H86Q77 0 71 6.5Q65 13 65 22V679Q65 688 71 694Q77 700 86 700H178Q187 700 193 694Q199 688 199 679V22Q199 13 193 6.5Q187 0 178 0ZM280 770H-17Q-26 770 -32 776.5Q-38 783 -38 792V857Q-38 866 -32 872Q-26 878 -17 878H280Q289 878 295.5 872Q302 866 302 857V792Q302 783 295.5 776.5Q289 770 280 770Z" glyph-name="Imacron" horiz-adv-x="264" unicode="&#298;" /><glyph d="M130 -235Q75 -235 42.5 -210Q10 -185 10 -142Q10 -105 35.5 -67.5Q61 -30 106 0H86Q77 0 71 6.5Q65 13 65 22V679Q65 688 71 694Q77 700 86 700H178Q187 700 193 694Q199 688 199 679V22Q199 13 193.5 6.5Q188 0 182 1Q155 -38 141.5 -65Q128 -92 128 -108Q128 -127 139 -136.5Q150 -146 172 -146Q175 -146 183 -145.5Q191 -145 204 -143Q213 -142 217.5 -148Q222 -154 220 -166L216 -202Q214 -218 191.5 -226.5Q169 -235 130 -235Z" glyph-name="Iogonek" horiz-adv-x="264" unicode="&#302;" /><glyph d="M178 0H86Q77 0 71 6.5Q65 13 65 22V679Q65 688 71 694Q77 700 86 700H178Q187 700 193 694Q199 688 199 679V22Q199 13 193 6.5Q187 0 178 0ZM120 784Q91 792 79.5 794.5Q68 797 61 797Q50 797 40 793Q30 789 15 777Q6 769 2 767Q-2 765 -6 765Q-11 765 -15.5 767.5Q-20 770 -24 776L-50 814Q-54 819 -56 825.5Q-58 832 -58 839Q-58 866 -26.5 890.5Q5 915 47 915Q60 915 78.5 911.5Q97 908 136 897Q167 888 179.5 885.5Q192 883 200 883Q211 883 221 887Q231 891 246 903Q255 911 259 913Q263 915 267 915Q273 915 277 912.5Q281 910 286 903L311 866Q315 860 317 853.5Q319 847 319 841Q319 814 287.5 789.5Q256 765 214 765Q200 765 180 769Q160 773 120 784Z" glyph-name="Itilde" horiz-adv-x="264" unicode="&#296;" /><glyph d="M285 107Q347 107 382 142Q417 177 417 239V679Q417 687 423.5 693.5Q430 700 439 700H530Q539 700 545 694Q551 688 551 679V236Q551 122 477 54Q403 -14 284 -14Q165 -14 92 51Q19 116 19 226V273Q19 282 25 288Q31 294 40 294H131Q140 294 146.5 288Q153 282 153 273V239Q153 177 188 142Q223 107 285 107Z" glyph-name="J" horiz-adv-x="610" unicode="J" /><glyph d="M432 949H539Q548 949 555 944Q562 939 568 929L660 781Q667 771 662 761.5Q657 752 647 752H573Q564 752 558 755Q552 758 545 768L485 849L426 768Q417 758 411.5 755Q406 752 397 752H324Q314 752 308.5 761Q303 770 310 781L402 929Q408 940 415 944.5Q422 949 432 949ZM285 107Q347 107 382 142Q417 177 417 239V679Q417 687 423.5 693.5Q430 700 439 700H530Q539 700 545 694Q551 688 551 679V236Q551 122 477 54Q403 -14 284 -14Q165 -14 92 51Q19 116 19 226V273Q19 282 25 288Q31 294 40 294H131Q140 294 146.5 288Q153 282 153 273V239Q153 177 188 142Q223 107 285 107Z" glyph-name="Jcircumflex" horiz-adv-x="610" unicode="&#308;" /><glyph d="M650 671 398 366 652 26Q659 16 655 8Q651 0 642 0H530Q516 0 508.5 3.5Q501 7 494 17L288 297H199V22Q199 13 192.5 6.5Q186 0 177 0H86Q77 0 71 6.5Q65 13 65 22V679Q65 688 71 694Q77 700 86 700H177Q186 700 192.5 693.5Q199 687 199 679V415H287L496 681Q504 691 513 695.5Q522 700 535 700H638Q650 700 654 690Q658 680 650 671Z" glyph-name="K" horiz-adv-x="657" unicode="K" /><glyph d="M101 105H122Q124 105 124.5 103.5Q125 102 124 100L90 54L124 5Q125 3 124 1Q123 -1 121 -1H99Q96 -1 95 -0.5Q94 0 93 2L68 39H57V3Q57 1 56 0Q55 -1 53 -1H34Q33 -1 31.5 0.5Q30 2 30 3V101Q30 103 31.5 104Q33 105 34 105H53Q55 105 56 104Q57 103 57 101V63H67L94 101Q97 104 98 104.5Q99 105 101 105ZM201 78Q196 81 192 82Q188 83 183 83Q171 83 163 74.5Q155 66 155 53Q155 39 163 30.5Q171 22 185 22Q191 22 198 26Q205 30 207 34H183Q182 34 181 35Q180 36 180 38V53Q180 55 181 56Q182 57 183 57H230Q232 57 233 56Q234 55 234 53V4Q234 1 233 0Q232 -1 230 -1H215Q213 -1 212 0.5Q211 2 211 4V13Q207 7 198 2.5Q189 -2 177 -2Q155 -2 140.5 13.5Q126 29 126 53Q126 76 142.5 92Q159 108 182 108Q200 108 213 100.5Q226 93 233 79Q233 76 232 75Q231 74 230 74L211 68Q209 68 208 68.5Q207 69 207 70Q205 74 203.5 75.5Q202 77 201 78Z" glyph-name="KG.alt" horiz-adv-x="0" /><glyph d="M263 -263 303 -202Q282 -193 269.5 -174Q257 -155 257 -132Q257 -98 280 -75Q303 -52 337 -52Q371 -52 395 -76Q419 -100 419 -136Q419 -174 397 -212Q375 -250 327 -291Q314 -302 302.5 -304Q291 -306 282 -299L270 -292Q261 -285 259.5 -278Q258 -271 263 -263ZM650 671 398 366 652 26Q659 16 655 8Q651 0 642 0H530Q516 0 508.5 3.5Q501 7 494 17L288 297H199V22Q199 13 192.5 6.5Q186 0 177 0H86Q77 0 71 6.5Q65 13 65 22V679Q65 688 71 694Q77 700 86 700H177Q186 700 192.5 693.5Q199 687 199 679V415H287L496 681Q504 691 513 695.5Q522 700 535 700H638Q650 700 654 690Q658 680 650 671Z" glyph-name="Kcommaaccent" horiz-adv-x="657" unicode="&#310;" /><glyph d="M554 102V22Q554 13 547.5 6.5Q541 0 532 0H86Q77 0 71 6Q65 12 65 21V678Q65 687 71 693.5Q77 700 86 700H177Q186 700 192.5 693.5Q199 687 199 678V123H532Q541 123 547.5 117Q554 111 554 102Z" glyph-name="L" horiz-adv-x="562" unicode="L" /><glyph d="M153 949H262Q275 949 280.5 939Q286 929 280 919L192 768Q187 759 181 755.5Q175 752 167 752H109Q95 752 88.5 759.5Q82 767 85 781L127 931Q129 939 136 944Q143 949 153 949ZM554 102V22Q554 13 547.5 6.5Q541 0 532 0H86Q77 0 71 6Q65 12 65 21V678Q65 687 71 693.5Q77 700 86 700H177Q186 700 192.5 693.5Q199 687 199 678V123H532Q541 123 547.5 117Q554 111 554 102Z" glyph-name="Lacute" horiz-adv-x="562" unicode="&#313;" /><glyph d="M343 496 384 557Q362 567 349.5 586Q337 605 337 628Q337 661 360.5 684.5Q384 708 417 708Q451 708 475 683.5Q499 659 499 623Q499 584 476 545.5Q453 507 406 469Q394 458 383 456Q372 454 362 461L351 468Q342 474 340 481.5Q338 489 343 496ZM554 102V22Q554 13 547.5 6.5Q541 0 532 0H86Q77 0 71 6Q65 12 65 21V678Q65 687 71 693.5Q77 700 86 700H177Q186 700 192.5 693.5Q199 687 199 678V123H532Q541 123 547.5 117Q554 111 554 102Z" glyph-name="Lcaron" horiz-adv-x="580" unicode="&#317;" /><glyph d="M231 -263 271 -202Q250 -193 237.5 -174Q225 -155 225 -132Q225 -98 248 -75Q271 -52 305 -52Q339 -52 363 -76Q387 -100 387 -136Q387 -174 365 -212Q343 -250 295 -291Q282 -302 270.5 -304Q259 -306 250 -299L238 -292Q229 -285 227.5 -278Q226 -271 231 -263ZM554 102V22Q554 13 547.5 6.5Q541 0 532 0H86Q77 0 71 6Q65 12 65 21V678Q65 687 71 693.5Q77 700 86 700H177Q186 700 192.5 693.5Q199 687 199 678V123H532Q541 123 547.5 117Q554 111 554 102Z" glyph-name="Lcommaaccent" horiz-adv-x="562" unicode="&#315;" /><glyph d="M554 102V22Q554 13 547.5 6.5Q541 0 532 0H86Q77 0 71 6Q65 12 65 21V678Q65 687 71 693.5Q77 700 86 700H177Q186 700 192.5 693.5Q199 687 199 678V123H532Q541 123 547.5 117Q554 111 554 102ZM482 374Q482 336 455 308.5Q428 281 390 281Q352 281 324.5 308.5Q297 336 297 374Q297 412 324.5 439Q352 466 390 466Q428 466 455 439Q482 412 482 374Z" glyph-name="Ldot" horiz-adv-x="575" unicode="&#319;" /><glyph d="M536 0H91Q82 0 75.5 6.5Q69 13 69 21V248L32 238Q23 235 16 240.5Q9 246 9 255V319Q9 329 13.5 335.5Q18 342 26 344L69 355V678Q69 687 75.5 693.5Q82 700 91 700H181Q190 700 196.5 693.5Q203 687 203 678V390L374 435Q384 437 390.5 432Q397 427 397 417V353Q397 344 392.5 337Q388 330 380 328L203 282V123H536Q545 123 551.5 117Q558 111 558 102V22Q558 13 551.5 6.5Q545 0 536 0Z" glyph-name="Lslash" horiz-adv-x="566" unicode="&#321;" /><glyph d="M273 681 441 311 610 681Q614 691 622 695.5Q630 700 641 700H793Q802 700 808 694Q814 688 814 679V21Q814 12 808 6Q802 0 793 0H703Q694 0 688 6Q682 12 682 21V533L507 157Q501 145 494.5 140.5Q488 136 476 136H402Q390 136 383 141Q376 146 371 157L197 533V21Q197 12 191 6Q185 0 177 0H86Q77 0 71 6Q65 12 65 21V679Q65 688 71 694Q77 700 86 700H242Q254 700 261 695.5Q268 691 273 681Z" glyph-name="M" horiz-adv-x="879" unicode="M" /><glyph d="M499 21 199 488V21Q199 12 193 6Q187 0 178 0H86Q77 0 71 6Q65 12 65 21V679Q65 688 71 694Q77 700 86 700H205Q215 700 223 696Q231 692 236 683L529 223V679Q529 687 535 693.5Q541 700 549 700H641Q649 700 656 693.5Q663 687 663 679V21Q663 12 656.5 6Q650 0 641 0H542Q526 0 516 5Q506 10 499 21Z" glyph-name="N" horiz-adv-x="728" unicode="N" /><glyph d="M384 949H493Q506 949 511.5 939Q517 929 511 919L423 768Q418 759 412 755.5Q406 752 398 752H340Q326 752 319.5 759.5Q313 767 316 781L358 931Q360 939 367 944Q374 949 384 949ZM499 21 199 488V21Q199 12 193 6Q187 0 178 0H86Q77 0 71 6Q65 12 65 21V679Q65 688 71 694Q77 700 86 700H205Q215 700 223 696Q231 692 236 683L529 223V679Q529 687 535 693.5Q541 700 549 700H641Q649 700 656 693.5Q663 687 663 679V21Q663 12 656.5 6Q650 0 641 0H542Q526 0 516 5Q506 10 499 21Z" glyph-name="Nacute" horiz-adv-x="728" unicode="&#323;" /><glyph d="M419 752H312Q302 752 295 757Q288 762 282 772L190 920Q183 931 188 940Q193 949 204 949H277Q286 949 291.5 946Q297 943 306 933L365 852L425 933Q432 943 438 946Q444 949 453 949H527Q537 949 542 940Q547 931 540 920L448 772Q442 762 435 757Q428 752 419 752ZM499 21 199 488V21Q199 12 193 6Q187 0 178 0H86Q77 0 71 6Q65 12 65 21V679Q65 688 71 694Q77 700 86 700H205Q215 700 223 696Q231 692 236 683L529 223V679Q529 687 535 693.5Q541 700 549 700H641Q649 700 656 693.5Q663 687 663 679V21Q663 12 656.5 6Q650 0 641 0H542Q526 0 516 5Q506 10 499 21Z" glyph-name="Ncaron" horiz-adv-x="728" unicode="&#327;" /><glyph d="M290 -263 330 -202Q309 -193 296.5 -174Q284 -155 284 -132Q284 -98 307 -75Q330 -52 364 -52Q398 -52 422 -76Q446 -100 446 -136Q446 -174 424 -212Q402 -250 354 -291Q341 -302 329.5 -304Q318 -306 309 -299L297 -292Q288 -285 286.5 -278Q285 -271 290 -263ZM499 21 199 488V21Q199 12 193 6Q187 0 178 0H86Q77 0 71 6Q65 12 65 21V679Q65 688 71 694Q77 700 86 700H205Q215 700 223 696Q231 692 236 683L529 223V679Q529 687 535 693.5Q541 700 549 700H641Q649 700 656 693.5Q663 687 663 679V21Q663 12 656.5 6Q650 0 641 0H542Q526 0 516 5Q506 10 499 21Z" glyph-name="Ncommaaccent" horiz-adv-x="728" unicode="&#325;" /><glyph d="M499 21 199 488V21Q199 12 193 6Q187 0 178 0H86Q77 0 71 6Q65 12 65 21V679Q65 688 71 694Q77 700 86 700H205Q215 700 223 696Q231 692 236 683L529 223V679Q529 687 535 693.5Q541 700 549 700H641Q649 700 656 693.5Q663 687 663 679V21Q663 12 656.5 6Q650 0 641 0H542Q526 0 516 5Q506 10 499 21ZM352 784Q323 792 311.5 794.5Q300 797 293 797Q282 797 272 793Q262 789 247 777Q238 769 234 767Q230 765 226 765Q221 765 216.5 767.5Q212 770 208 776L182 814Q178 819 176 825.5Q174 832 174 839Q174 866 205.5 890.5Q237 915 279 915Q292 915 310.5 911.5Q329 908 368 897Q399 888 411.5 885.5Q424 883 432 883Q443 883 453 887Q463 891 478 903Q487 911 491 913Q495 915 499 915Q505 915 509 912.5Q513 910 518 903L543 866Q547 860 549 853.5Q551 847 551 841Q551 814 519.5 789.5Q488 765 446 765Q432 765 412 769Q392 773 352 784Z" glyph-name="Ntilde" horiz-adv-x="728" unicode="&#209;" /><glyph d="M395 714Q550 714 656.5 609Q763 504 763 350Q763 196 656.5 91Q550 -14 395 -14Q240 -14 133.5 91Q27 196 27 350Q27 504 133.5 609Q240 714 395 714ZM395 110Q494 110 559 178.5Q624 247 624 350Q624 453 559 521.5Q494 590 395 590Q297 590 232 521.5Q167 453 167 350Q167 247 232 178.5Q297 110 395 110Z" glyph-name="O" horiz-adv-x="790" unicode="O" /><glyph d="M396 109Q494 109 558.5 178Q623 247 623 350Q623 453 558.5 522Q494 591 396 591Q298 591 232.5 522Q167 453 167 350Q167 247 232.5 178Q298 109 396 109ZM616 22V95Q584 44 523 15Q462 -14 387 -14Q234 -14 130.5 91Q27 196 27 350Q27 504 130 609Q233 714 384 714Q459 714 521 685Q583 656 616 605V679Q616 687 622.5 693.5Q629 700 638 700H1137Q1146 700 1152 693.5Q1158 687 1158 678V598Q1158 589 1152 583Q1146 577 1137 577H750V412H948Q957 412 963.5 405.5Q970 399 970 390V314Q970 305 963.5 298.5Q957 292 948 292H750V123H1137Q1146 123 1152 117Q1158 111 1158 102V22Q1158 13 1152 6.5Q1146 0 1137 0H638Q629 0 622.5 6.5Q616 13 616 22Z" glyph-name="OE" horiz-adv-x="1184" unicode="&#338;" /><glyph d="M415 949H524Q537 949 542.5 939Q548 929 542 919L454 768Q449 759 443 755.5Q437 752 429 752H371Q357 752 350.5 759.5Q344 767 347 781L389 931Q391 939 398 944Q405 949 415 949ZM395 714Q550 714 656.5 609Q763 504 763 350Q763 196 656.5 91Q550 -14 395 -14Q240 -14 133.5 91Q27 196 27 350Q27 504 133.5 609Q240 714 395 714ZM395 110Q494 110 559 178.5Q624 247 624 350Q624 453 559 521.5Q494 590 395 590Q297 590 232 521.5Q167 453 167 350Q167 247 232 178.5Q297 110 395 110Z" glyph-name="Oacute" horiz-adv-x="790" unicode="&#211;" /><glyph d="M395 714Q550 714 656.5 609Q763 504 763 350Q763 196 656.5 91Q550 -14 395 -14Q240 -14 133.5 91Q27 196 27 350Q27 504 133.5 609Q240 714 395 714ZM395 110Q494 110 559 178.5Q624 247 624 350Q624 453 559 521.5Q494 590 395 590Q297 590 232 521.5Q167 453 167 350Q167 247 232 178.5Q297 110 395 110ZM337 917V906Q337 880 353 865Q369 850 395 850Q421 850 437.5 865.5Q454 881 454 906V917Q454 924 458.5 928.5Q463 933 469 933H546Q553 933 557.5 928.5Q562 924 562 917V897Q562 827 517.5 787Q473 747 395 747Q317 747 273 787Q229 827 229 897V917Q229 924 233.5 928.5Q238 933 244 933H322Q328 933 332.5 928.5Q337 924 337 917Z" glyph-name="Obreve" horiz-adv-x="790" unicode="&#334;" /><glyph d="M342 949H449Q458 949 465 944Q472 939 478 929L570 781Q577 771 572 761.5Q567 752 557 752H483Q474 752 468 755Q462 758 455 768L395 849L336 768Q327 758 321.5 755Q316 752 307 752H234Q224 752 218.5 761Q213 770 220 781L312 929Q318 940 325 944.5Q332 949 342 949ZM395 714Q550 714 656.5 609Q763 504 763 350Q763 196 656.5 91Q550 -14 395 -14Q240 -14 133.5 91Q27 196 27 350Q27 504 133.5 609Q240 714 395 714ZM395 110Q494 110 559 178.5Q624 247 624 350Q624 453 559 521.5Q494 590 395 590Q297 590 232 521.5Q167 453 167 350Q167 247 232 178.5Q297 110 395 110Z" glyph-name="Ocircumflex" horiz-adv-x="790" unicode="&#212;" /><glyph d="M498 748Q465 748 440.5 772.5Q416 797 416 830Q416 863 440.5 887.5Q465 912 498 912Q532 912 556 888Q580 864 580 830Q580 796 556 772Q532 748 498 748ZM291 748Q257 748 233 772Q209 796 209 830Q209 864 233 888Q257 912 291 912Q325 912 349 888Q373 864 373 830Q373 796 349 772Q325 748 291 748ZM395 714Q550 714 656.5 609Q763 504 763 350Q763 196 656.5 91Q550 -14 395 -14Q240 -14 133.5 91Q27 196 27 350Q27 504 133.5 609Q240 714 395 714ZM395 110Q494 110 559 178.5Q624 247 624 350Q624 453 559 521.5Q494 590 395 590Q297 590 232 521.5Q167 453 167 350Q167 247 232 178.5Q297 110 395 110Z" glyph-name="Odieresis" horiz-adv-x="790" unicode="&#214;" /><glyph d="M395 714Q550 714 656.5 609Q763 504 763 350Q763 196 656.5 91Q550 -14 395 -14Q240 -14 133.5 91Q27 196 27 350Q27 504 133.5 609Q240 714 395 714ZM395 110Q494 110 559 178.5Q624 247 624 350Q624 453 559 521.5Q494 590 395 590Q297 590 232 521.5Q167 453 167 350Q167 247 232 178.5Q297 110 395 110ZM269 949H378Q388 949 394.5 944Q401 939 403 931L446 781Q449 767 442.5 759.5Q436 752 422 752H364Q356 752 350.5 755.5Q345 759 339 768L251 919Q245 929 250.5 939Q256 949 269 949Z" glyph-name="Ograve" horiz-adv-x="790" unicode="&#210;" /><glyph d="M514 949H623Q636 949 641.5 939Q647 929 641 919L553 768Q547 759 541.5 755.5Q536 752 528 752H470Q456 752 449.5 760Q443 768 447 781L489 931Q491 939 497.5 944Q504 949 514 949ZM313 949H422Q435 949 440.5 939Q446 929 440 919L352 768Q346 759 340.5 755.5Q335 752 327 752H269Q255 752 248.5 760Q242 768 246 781L288 931Q290 939 296.5 944Q303 949 313 949ZM395 714Q550 714 656.5 609Q763 504 763 350Q763 196 656.5 91Q550 -14 395 -14Q240 -14 133.5 91Q27 196 27 350Q27 504 133.5 609Q240 714 395 714ZM395 110Q494 110 559 178.5Q624 247 624 350Q624 453 559 521.5Q494 590 395 590Q297 590 232 521.5Q167 453 167 350Q167 247 232 178.5Q297 110 395 110Z" glyph-name="Ohungarumlaut" horiz-adv-x="790" unicode="&#336;" /><glyph d="M543 770H246Q237 770 231 776.5Q225 783 225 792V857Q225 866 231 872Q237 878 246 878H543Q552 878 558.5 872Q565 866 565 857V792Q565 783 558.5 776.5Q552 770 543 770ZM395 714Q550 714 656.5 609Q763 504 763 350Q763 196 656.5 91Q550 -14 395 -14Q240 -14 133.5 91Q27 196 27 350Q27 504 133.5 609Q240 714 395 714ZM395 110Q494 110 559 178.5Q624 247 624 350Q624 453 559 521.5Q494 590 395 590Q297 590 232 521.5Q167 453 167 350Q167 247 232 178.5Q297 110 395 110Z" glyph-name="Omacron" horiz-adv-x="790" unicode="&#332;" /><glyph d="M35 423Q35 550 127 632Q219 714 370 714Q521 714 613 632Q705 550 705 423Q705 334 655.5 268Q606 202 523 171V114H648Q657 114 663.5 107.5Q670 101 670 92V22Q670 13 663.5 6.5Q657 0 648 0H435Q426 0 419.5 6.5Q413 13 413 22V197Q413 213 417.5 220.5Q422 228 433 234Q510 274 538.5 315Q567 356 567 416Q567 493 510.5 542Q454 591 370 591Q286 591 230 542Q174 493 174 416Q174 356 202 315Q230 274 307 234Q318 229 322.5 221.5Q327 214 327 197V22Q327 13 321 6.5Q315 0 306 0H92Q83 0 77 6.5Q71 13 71 22V92Q71 101 77 107.5Q83 114 92 114H218V171Q134 202 84.5 268Q35 334 35 423Z" glyph-name="Omega" horiz-adv-x="741" unicode="&#8486;" /><glyph d="M395 714Q550 714 656.5 609Q763 504 763 350Q763 196 656.5 91Q550 -14 395 -14Q240 -14 133.5 91Q27 196 27 350Q27 504 133.5 609Q240 714 395 714ZM624 350Q624 434 578.5 497.5Q533 561 458 582V118Q533 139 578.5 202.5Q624 266 624 350ZM167 350Q167 266 212 202.5Q257 139 332 118V582Q257 561 212 497.5Q167 434 167 350Z" glyph-name="Oslash" horiz-adv-x="790" unicode="&#216;" /><glyph d="M395 714Q550 714 656.5 609Q763 504 763 350Q763 196 656.5 91Q550 -14 395 -14Q240 -14 133.5 91Q27 196 27 350Q27 504 133.5 609Q240 714 395 714ZM395 110Q494 110 559 178.5Q624 247 624 350Q624 453 559 521.5Q494 590 395 590Q297 590 232 521.5Q167 453 167 350Q167 247 232 178.5Q297 110 395 110ZM383 784Q354 792 342.5 794.5Q331 797 324 797Q313 797 303 793Q293 789 278 777Q269 769 265 767Q261 765 257 765Q252 765 247.5 767.5Q243 770 239 776L213 814Q209 819 207 825.5Q205 832 205 839Q205 866 236.5 890.5Q268 915 310 915Q323 915 341.5 911.5Q360 908 399 897Q430 888 442.5 885.5Q455 883 463 883Q474 883 484 887Q494 891 509 903Q518 911 522 913Q526 915 530 915Q536 915 540 912.5Q544 910 549 903L574 866Q578 860 580 853.5Q582 847 582 841Q582 814 550.5 789.5Q519 765 477 765Q463 765 443 769Q423 773 383 784Z" glyph-name="Otilde" horiz-adv-x="790" unicode="&#213;" /><glyph d="M199 238V22Q199 13 193 6.5Q187 0 178 0H86Q77 0 71 6.5Q65 13 65 22V679Q65 688 71 694Q77 700 86 700H349Q463 700 531 636Q599 572 599 469Q599 366 531 302Q463 238 349 238ZM199 582V356H340Q393 356 426.5 387.5Q460 419 460 469Q460 519 426.5 550.5Q393 582 340 582Z" glyph-name="P" horiz-adv-x="614" unicode="P" /><glyph d="M167 350Q167 247 232 178.5Q297 110 395 110Q429 110 461 119Q493 128 520 146L387 265Q380 270 380 279Q380 288 386 295L430 343Q437 350 445.5 350.5Q454 351 461 345L593 226Q608 254 616 285Q624 316 624 350Q624 453 559 521.5Q494 590 395 590Q297 590 232 521.5Q167 453 167 350ZM689 -4 619 59Q571 23 514 4.5Q457 -14 395 -14Q240 -14 133.5 91Q27 196 27 350Q27 504 133.5 609Q240 714 395 714Q550 714 656.5 609Q763 504 763 350Q763 291 745.5 236Q728 181 695 135L763 74Q770 67 770 58.5Q770 50 763 43L720 -4Q714 -10 704.5 -10Q695 -10 689 -4Z" glyph-name="Q" horiz-adv-x="790" unicode="Q" /><glyph d="M199 377H379Q431 377 463 406Q495 435 495 482Q495 527 463.5 554.5Q432 582 381 582H199ZM199 268V22Q199 13 193 6.5Q187 0 178 0H86Q77 0 71 6.5Q65 13 65 22V679Q65 688 71 694Q77 700 86 700H394Q502 700 569 641Q636 582 636 489Q636 421 597.5 366.5Q559 312 491 291L654 28Q660 19 655.5 9.5Q651 0 639 0H537Q524 0 516.5 5Q509 10 502 22L354 268Z" glyph-name="R" horiz-adv-x="676" unicode="R" /><glyph d="M362 949H471Q484 949 489.5 939Q495 929 489 919L401 768Q396 759 390 755.5Q384 752 376 752H318Q304 752 297.5 759.5Q291 767 294 781L336 931Q338 939 345 944Q352 949 362 949ZM199 377H379Q431 377 463 406Q495 435 495 482Q495 527 463.5 554.5Q432 582 381 582H199ZM199 268V22Q199 13 193 6.5Q187 0 178 0H86Q77 0 71 6.5Q65 13 65 22V679Q65 688 71 694Q77 700 86 700H394Q502 700 569 641Q636 582 636 489Q636 421 597.5 366.5Q559 312 491 291L654 28Q660 19 655.5 9.5Q651 0 639 0H537Q524 0 516.5 5Q509 10 502 22L354 268Z" glyph-name="Racute" horiz-adv-x="676" unicode="&#340;" /><glyph d="M397 752H290Q280 752 273 757Q266 762 260 772L168 920Q161 931 166 940Q171 949 182 949H255Q264 949 269.5 946Q275 943 284 933L343 852L403 933Q410 943 416 946Q422 949 431 949H505Q515 949 520 940Q525 931 518 920L426 772Q420 762 413 757Q406 752 397 752ZM199 377H379Q431 377 463 406Q495 435 495 482Q495 527 463.5 554.5Q432 582 381 582H199ZM199 268V22Q199 13 193 6.5Q187 0 178 0H86Q77 0 71 6.5Q65 13 65 22V679Q65 688 71 694Q77 700 86 700H394Q502 700 569 641Q636 582 636 489Q636 421 597.5 366.5Q559 312 491 291L654 28Q660 19 655.5 9.5Q651 0 639 0H537Q524 0 516.5 5Q509 10 502 22L354 268Z" glyph-name="Rcaron" horiz-adv-x="676" unicode="&#344;" /><glyph d="M268 -263 308 -202Q287 -193 274.5 -174Q262 -155 262 -132Q262 -98 285 -75Q308 -52 342 -52Q376 -52 400 -76Q424 -100 424 -136Q424 -174 402 -212Q380 -250 332 -291Q319 -302 307.5 -304Q296 -306 287 -299L275 -292Q266 -285 264.5 -278Q263 -271 268 -263ZM199 377H379Q431 377 463 406Q495 435 495 482Q495 527 463.5 554.5Q432 582 381 582H199ZM199 268V22Q199 13 193 6.5Q187 0 178 0H86Q77 0 71 6.5Q65 13 65 22V679Q65 688 71 694Q77 700 86 700H394Q502 700 569 641Q636 582 636 489Q636 421 597.5 366.5Q559 312 491 291L654 28Q660 19 655.5 9.5Q651 0 639 0H537Q524 0 516.5 5Q509 10 502 22L354 268Z" glyph-name="Rcommaaccent" horiz-adv-x="676" unicode="&#342;" /><glyph d="M38 504Q38 596 113.5 655Q189 714 305 714Q377 714 441.5 691Q506 668 547 629Q561 616 562 603.5Q563 591 551 579L509 536Q497 524 484 524Q471 524 456 535Q414 567 376.5 581.5Q339 596 301 596Q248 596 215 573.5Q182 551 182 513Q182 485 201.5 467Q221 449 262 438L399 402Q494 377 540 327.5Q586 278 586 203Q586 110 509 48Q432 -14 306 -14Q220 -14 148.5 14Q77 42 34 91Q21 104 20.5 120Q20 136 33 146L89 189Q101 198 112 196.5Q123 195 136 182Q177 142 220.5 123.5Q264 105 314 105Q371 105 405.5 129Q440 153 440 190Q440 223 415.5 244.5Q391 266 335 281L208 314Q125 335 81.5 383.5Q38 432 38 504Z" glyph-name="S" horiz-adv-x="608" unicode="S" /><glyph d="M325 949H434Q447 949 452.5 939Q458 929 452 919L364 768Q359 759 353 755.5Q347 752 339 752H281Q267 752 260.5 759.5Q254 767 257 781L299 931Q301 939 308 944Q315 949 325 949ZM38 504Q38 596 113.5 655Q189 714 305 714Q377 714 441.5 691Q506 668 547 629Q561 616 562 603.5Q563 591 551 579L509 536Q497 524 484 524Q471 524 456 535Q414 567 376.5 581.5Q339 596 301 596Q248 596 215 573.5Q182 551 182 513Q182 485 201.5 467Q221 449 262 438L399 402Q494 377 540 327.5Q586 278 586 203Q586 110 509 48Q432 -14 306 -14Q220 -14 148.5 14Q77 42 34 91Q21 104 20.5 120Q20 136 33 146L89 189Q101 198 112 196.5Q123 195 136 182Q177 142 220.5 123.5Q264 105 314 105Q371 105 405.5 129Q440 153 440 190Q440 223 415.5 244.5Q391 266 335 281L208 314Q125 335 81.5 383.5Q38 432 38 504Z" glyph-name="Sacute" horiz-adv-x="608" unicode="&#346;" /><glyph d="M360 752H253Q243 752 236 757Q229 762 223 772L131 920Q124 931 129 940Q134 949 145 949H218Q227 949 232.5 946Q238 943 247 933L306 852L366 933Q373 943 379 946Q385 949 394 949H468Q478 949 483 940Q488 931 481 920L389 772Q383 762 376 757Q369 752 360 752ZM38 504Q38 596 113.5 655Q189 714 305 714Q377 714 441.5 691Q506 668 547 629Q561 616 562 603.5Q563 591 551 579L509 536Q497 524 484 524Q471 524 456 535Q414 567 376.5 581.5Q339 596 301 596Q248 596 215 573.5Q182 551 182 513Q182 485 201.5 467Q221 449 262 438L399 402Q494 377 540 327.5Q586 278 586 203Q586 110 509 48Q432 -14 306 -14Q220 -14 148.5 14Q77 42 34 91Q21 104 20.5 120Q20 136 33 146L89 189Q101 198 112 196.5Q123 195 136 182Q177 142 220.5 123.5Q264 105 314 105Q371 105 405.5 129Q440 153 440 190Q440 223 415.5 244.5Q391 266 335 281L208 314Q125 335 81.5 383.5Q38 432 38 504Z" glyph-name="Scaron" horiz-adv-x="608" unicode="&#352;" /><glyph d="M274 -160H206Q194 -160 189 -153Q184 -146 188 -134L231 -8Q169 2 118 28Q67 54 34 91Q21 104 20.5 120Q20 136 33 146L89 189Q101 198 112 196.5Q123 195 136 182Q177 142 220.5 123.5Q264 105 314 105Q371 105 405.5 129Q440 153 440 190Q440 223 415.5 244.5Q391 266 335 281L208 314Q125 335 81.5 383.5Q38 432 38 504Q38 596 113.5 655Q189 714 305 714Q377 714 441.5 691Q506 668 547 629Q561 616 562 603.5Q563 591 551 579L509 536Q497 524 484 524Q471 524 456 535Q414 567 376.5 581.5Q339 596 301 596Q248 596 215 573.5Q182 551 182 513Q182 485 201.5 467Q221 449 262 438L399 402Q494 377 540 327.5Q586 278 586 203Q586 123 526.5 63.5Q467 4 367 -10L300 -146Q297 -153 291 -156.5Q285 -160 274 -160Z" glyph-name="Scedilla" horiz-adv-x="608" unicode="&#350;" /><glyph d="M252 949H359Q368 949 375 944Q382 939 388 929L480 781Q487 771 482 761.5Q477 752 467 752H393Q384 752 378 755Q372 758 365 768L305 849L246 768Q237 758 231.5 755Q226 752 217 752H144Q134 752 128.5 761Q123 770 130 781L222 929Q228 940 235 944.5Q242 949 252 949ZM38 504Q38 596 113.5 655Q189 714 305 714Q377 714 441.5 691Q506 668 547 629Q561 616 562 603.5Q563 591 551 579L509 536Q497 524 484 524Q471 524 456 535Q414 567 376.5 581.5Q339 596 301 596Q248 596 215 573.5Q182 551 182 513Q182 485 201.5 467Q221 449 262 438L399 402Q494 377 540 327.5Q586 278 586 203Q586 110 509 48Q432 -14 306 -14Q220 -14 148.5 14Q77 42 34 91Q21 104 20.5 120Q20 136 33 146L89 189Q101 198 112 196.5Q123 195 136 182Q177 142 220.5 123.5Q264 105 314 105Q371 105 405.5 129Q440 153 440 190Q440 223 415.5 244.5Q391 266 335 281L208 314Q125 335 81.5 383.5Q38 432 38 504Z" glyph-name="Scircumflex" horiz-adv-x="608" unicode="&#348;" /><glyph d="M222 -263 262 -202Q241 -193 228.5 -174Q216 -155 216 -132Q216 -98 239 -75Q262 -52 296 -52Q330 -52 354 -76Q378 -100 378 -136Q378 -174 356 -212Q334 -250 286 -291Q273 -302 261.5 -304Q250 -306 241 -299L229 -292Q220 -285 218.5 -278Q217 -271 222 -263ZM38 504Q38 596 113.5 655Q189 714 305 714Q377 714 441.5 691Q506 668 547 629Q561 616 562 603.5Q563 591 551 579L509 536Q497 524 484 524Q471 524 456 535Q414 567 376.5 581.5Q339 596 301 596Q248 596 215 573.5Q182 551 182 513Q182 485 201.5 467Q221 449 262 438L399 402Q494 377 540 327.5Q586 278 586 203Q586 110 509 48Q432 -14 306 -14Q220 -14 148.5 14Q77 42 34 91Q21 104 20.5 120Q20 136 33 146L89 189Q101 198 112 196.5Q123 195 136 182Q177 142 220.5 123.5Q264 105 314 105Q371 105 405.5 129Q440 153 440 190Q440 223 415.5 244.5Q391 266 335 281L208 314Q125 335 81.5 383.5Q38 432 38 504Z" glyph-name="Scommaaccent" horiz-adv-x="608" unicode="&#536;" /><glyph d="M11 598V678Q11 687 17 693.5Q23 700 32 700H586Q595 700 601 693.5Q607 687 607 678V598Q607 589 601 583Q595 577 586 577H378V22Q378 13 371.5 6.5Q365 0 356 0H261Q252 0 246 6.5Q240 13 240 22V577H32Q23 577 17 583Q11 589 11 598Z" glyph-name="T" horiz-adv-x="618" unicode="T" /><glyph d="M378 287V22Q378 13 371.5 6.5Q365 0 356 0H261Q252 0 246 6.5Q240 13 240 22V287H138Q129 287 122.5 293Q116 299 116 308V369Q116 377 122.5 383.5Q129 390 138 390H240V577H32Q23 577 17 583Q11 589 11 598V678Q11 687 17 693.5Q23 700 32 700H586Q595 700 601 693.5Q607 687 607 678V598Q607 589 601 583Q595 577 586 577H378V390H481Q490 390 496 384Q502 378 502 369V308Q502 299 496 293Q490 287 481 287Z" glyph-name="Tbar" horiz-adv-x="618" unicode="&#358;" /><glyph d="M364 752H257Q247 752 240 757Q233 762 227 772L135 920Q128 931 133 940Q138 949 149 949H222Q231 949 236.5 946Q242 943 251 933L310 852L370 933Q377 943 383 946Q389 949 398 949H472Q482 949 487 940Q492 931 485 920L393 772Q387 762 380 757Q373 752 364 752ZM11 598V678Q11 687 17 693.5Q23 700 32 700H586Q595 700 601 693.5Q607 687 607 678V598Q607 589 601 583Q595 577 586 577H378V22Q378 13 371.5 6.5Q365 0 356 0H261Q252 0 246 6.5Q240 13 240 22V577H32Q23 577 17 583Q11 589 11 598Z" glyph-name="Tcaron" horiz-adv-x="618" unicode="&#356;" /><glyph d="M233 -263 273 -202Q252 -193 239.5 -174Q227 -155 227 -132Q227 -98 250 -75Q273 -52 307 -52Q341 -52 365 -76Q389 -100 389 -136Q389 -174 367 -212Q345 -250 297 -291Q284 -302 272.5 -304Q261 -306 252 -299L240 -292Q231 -285 229.5 -278Q228 -271 233 -263ZM11 598V678Q11 687 17 693.5Q23 700 32 700H586Q595 700 601 693.5Q607 687 607 678V598Q607 589 601 583Q595 577 586 577H378V22Q378 13 371.5 6.5Q365 0 356 0H261Q252 0 246 6.5Q240 13 240 22V577H32Q23 577 17 583Q11 589 11 598Z" glyph-name="Tcommaaccent" horiz-adv-x="618" unicode="&#354;" /><glyph d="M178 0H86Q77 0 71 6.5Q65 13 65 22V678Q65 687 71 693.5Q77 700 86 700H178Q187 700 193 693.5Q199 687 199 678V593H349Q463 593 531 529Q599 465 599 362Q599 259 531 195Q463 131 349 131H199V22Q199 13 193 6.5Q187 0 178 0ZM199 475V249H340Q393 249 426.5 280.5Q460 312 460 362Q460 412 426.5 443.5Q393 475 340 475Z" glyph-name="Thorn" horiz-adv-x="614" unicode="&#222;" /><glyph d="M638 679V250Q638 127 558.5 56.5Q479 -14 348 -14Q218 -14 138.5 56.5Q59 127 59 249V679Q59 688 65 694Q71 700 80 700H171Q180 700 186.5 693.5Q193 687 193 679V258Q193 188 234 148Q275 108 348 108Q421 108 462.5 148Q504 188 504 258V679Q504 687 510.5 693.5Q517 700 526 700H617Q625 700 631.5 693.5Q638 687 638 679Z" glyph-name="U" horiz-adv-x="697" unicode="U" /><glyph d="M368 949H477Q490 949 495.5 939Q501 929 495 919L407 768Q402 759 396 755.5Q390 752 382 752H324Q310 752 303.5 759.5Q297 767 300 781L342 931Q344 939 351 944Q358 949 368 949ZM638 679V250Q638 127 558.5 56.5Q479 -14 348 -14Q218 -14 138.5 56.5Q59 127 59 249V679Q59 688 65 694Q71 700 80 700H171Q180 700 186.5 693.5Q193 687 193 679V258Q193 188 234 148Q275 108 348 108Q421 108 462.5 148Q504 188 504 258V679Q504 687 510.5 693.5Q517 700 526 700H617Q625 700 631.5 693.5Q638 687 638 679Z" glyph-name="Uacute" horiz-adv-x="697" unicode="&#218;" /><glyph d="M638 679V250Q638 127 558.5 56.5Q479 -14 348 -14Q218 -14 138.5 56.5Q59 127 59 249V679Q59 688 65 694Q71 700 80 700H171Q180 700 186.5 693.5Q193 687 193 679V258Q193 188 234 148Q275 108 348 108Q421 108 462.5 148Q504 188 504 258V679Q504 687 510.5 693.5Q517 700 526 700H617Q625 700 631.5 693.5Q638 687 638 679ZM290 917V906Q290 880 306 865Q322 850 348 850Q374 850 390.5 865.5Q407 881 407 906V917Q407 924 411.5 928.5Q416 933 422 933H499Q506 933 510.5 928.5Q515 924 515 917V897Q515 827 470.5 787Q426 747 348 747Q270 747 226 787Q182 827 182 897V917Q182 924 186.5 928.5Q191 933 197 933H275Q281 933 285.5 928.5Q290 924 290 917Z" glyph-name="Ubreve" horiz-adv-x="697" unicode="&#364;" /><glyph d="M295 949H402Q411 949 418 944Q425 939 431 929L523 781Q530 771 525 761.5Q520 752 510 752H436Q427 752 421 755Q415 758 408 768L348 849L289 768Q280 758 274.5 755Q269 752 260 752H187Q177 752 171.5 761Q166 770 173 781L265 929Q271 940 278 944.5Q285 949 295 949ZM638 679V250Q638 127 558.5 56.5Q479 -14 348 -14Q218 -14 138.5 56.5Q59 127 59 249V679Q59 688 65 694Q71 700 80 700H171Q180 700 186.5 693.5Q193 687 193 679V258Q193 188 234 148Q275 108 348 108Q421 108 462.5 148Q504 188 504 258V679Q504 687 510.5 693.5Q517 700 526 700H617Q625 700 631.5 693.5Q638 687 638 679Z" glyph-name="Ucircumflex" horiz-adv-x="697" unicode="&#219;" /><glyph d="M451 748Q418 748 393.5 772.5Q369 797 369 830Q369 863 393.5 887.5Q418 912 451 912Q485 912 509 888Q533 864 533 830Q533 796 509 772Q485 748 451 748ZM244 748Q210 748 186 772Q162 796 162 830Q162 864 186 888Q210 912 244 912Q278 912 302 888Q326 864 326 830Q326 796 302 772Q278 748 244 748ZM638 679V250Q638 127 558.5 56.5Q479 -14 348 -14Q218 -14 138.5 56.5Q59 127 59 249V679Q59 688 65 694Q71 700 80 700H171Q180 700 186.5 693.5Q193 687 193 679V258Q193 188 234 148Q275 108 348 108Q421 108 462.5 148Q504 188 504 258V679Q504 687 510.5 693.5Q517 700 526 700H617Q625 700 631.5 693.5Q638 687 638 679Z" glyph-name="Udieresis" horiz-adv-x="697" unicode="&#220;" /><glyph d="M638 679V250Q638 127 558.5 56.5Q479 -14 348 -14Q218 -14 138.5 56.5Q59 127 59 249V679Q59 688 65 694Q71 700 80 700H171Q180 700 186.5 693.5Q193 687 193 679V258Q193 188 234 148Q275 108 348 108Q421 108 462.5 148Q504 188 504 258V679Q504 687 510.5 693.5Q517 700 526 700H617Q625 700 631.5 693.5Q638 687 638 679ZM222 949H331Q341 949 347.5 944Q354 939 356 931L399 781Q402 767 395.5 759.5Q389 752 375 752H317Q309 752 303.5 755.5Q298 759 292 768L204 919Q198 929 203.5 939Q209 949 222 949Z" glyph-name="Ugrave" horiz-adv-x="697" unicode="&#217;" /><glyph d="M638 679V250Q638 127 558.5 56.5Q479 -14 348 -14Q218 -14 138.5 56.5Q59 127 59 249V679Q59 688 65 694Q71 700 80 700H171Q180 700 186.5 693.5Q193 687 193 679V258Q193 188 234 148Q275 108 348 108Q421 108 462.5 148Q504 188 504 258V679Q504 687 510.5 693.5Q517 700 526 700H617Q625 700 631.5 693.5Q638 687 638 679ZM468 949H577Q590 949 595.5 939Q601 929 595 919L507 768Q501 759 495.5 755.5Q490 752 482 752H424Q410 752 403.5 760Q397 768 401 781L443 931Q445 939 451.5 944Q458 949 468 949ZM267 949H376Q389 949 394.5 939Q400 929 394 919L306 768Q300 759 294.5 755.5Q289 752 281 752H223Q209 752 202.5 760Q196 768 200 781L242 931Q244 939 250.5 944Q257 949 267 949Z" glyph-name="Uhungarumlaut" horiz-adv-x="697" unicode="&#368;" /><glyph d="M638 679V250Q638 127 558.5 56.5Q479 -14 348 -14Q218 -14 138.5 56.5Q59 127 59 249V679Q59 688 65 694Q71 700 80 700H171Q180 700 186.5 693.5Q193 687 193 679V258Q193 188 234 148Q275 108 348 108Q421 108 462.5 148Q504 188 504 258V679Q504 687 510.5 693.5Q517 700 526 700H617Q625 700 631.5 693.5Q638 687 638 679ZM497 770H200Q191 770 185 776.5Q179 783 179 792V857Q179 866 185 872Q191 878 200 878H497Q506 878 512.5 872Q519 866 519 857V792Q519 783 512.5 776.5Q506 770 497 770Z" glyph-name="Umacron" horiz-adv-x="697" unicode="&#362;" /><glyph d="M437 -208Q382 -208 349.5 -183Q317 -158 317 -115Q317 -89 329 -63.5Q341 -38 364 -14Q360 -14 356 -14Q352 -14 348 -14Q218 -14 138.5 56.5Q59 127 59 249V679Q59 688 65 694Q71 700 80 700H171Q180 700 186.5 693.5Q193 687 193 679V258Q193 188 234 148Q275 108 348 108Q421 108 462.5 148Q504 188 504 258V679Q504 687 510.5 693.5Q517 700 526 700H617Q625 700 631.5 693.5Q638 687 638 679V250Q638 162 596 99.5Q554 37 476 8Q456 -22 445.5 -44.5Q435 -67 435 -81Q435 -100 446 -109.5Q457 -119 479 -119Q482 -119 490 -118.5Q498 -118 511 -116Q520 -115 524.5 -121Q529 -127 527 -139L523 -175Q521 -191 498.5 -199.5Q476 -208 437 -208Z" glyph-name="Uogonek" horiz-adv-x="697" unicode="&#370;" /><glyph d="M348 1024Q410 1024 452 984Q494 944 495 884Q494 825 452 785Q410 745 348 745Q286 745 244 785Q202 825 202 884Q202 944 244 984Q286 1024 348 1024ZM348 822Q374 822 391 840Q408 858 408 884Q408 911 391 929Q374 947 348 947Q322 947 305 929Q288 911 288 884Q288 858 305 840Q322 822 348 822ZM638 679V250Q638 127 558.5 56.5Q479 -14 348 -14Q218 -14 138.5 56.5Q59 127 59 249V679Q59 688 65 694Q71 700 80 700H171Q180 700 186.5 693.5Q193 687 193 679V258Q193 188 234 148Q275 108 348 108Q421 108 462.5 148Q504 188 504 258V679Q504 687 510.5 693.5Q517 700 526 700H617Q625 700 631.5 693.5Q638 687 638 679Z" glyph-name="Uring" horiz-adv-x="697" unicode="&#366;" /><glyph d="M638 679V250Q638 127 558.5 56.5Q479 -14 348 -14Q218 -14 138.5 56.5Q59 127 59 249V679Q59 688 65 694Q71 700 80 700H171Q180 700 186.5 693.5Q193 687 193 679V258Q193 188 234 148Q275 108 348 108Q421 108 462.5 148Q504 188 504 258V679Q504 687 510.5 693.5Q517 700 526 700H617Q625 700 631.5 693.5Q638 687 638 679ZM337 784Q308 792 296.5 794.5Q285 797 278 797Q267 797 257 793Q247 789 232 777Q223 769 219 767Q215 765 211 765Q206 765 201.5 767.5Q197 770 193 776L167 814Q163 819 161 825.5Q159 832 159 839Q159 866 190.5 890.5Q222 915 264 915Q277 915 295.5 911.5Q314 908 353 897Q384 888 396.5 885.5Q409 883 417 883Q428 883 438 887Q448 891 463 903Q472 911 476 913Q480 915 484 915Q490 915 494 912.5Q498 910 503 903L528 866Q532 860 534 853.5Q536 847 536 841Q536 814 504.5 789.5Q473 765 431 765Q417 765 397 769Q377 773 337 784Z" glyph-name="Utilde" horiz-adv-x="697" unicode="&#360;" /><glyph d="M405 0H271Q262 0 254 5.5Q246 11 243 21L10 668Q5 682 10.5 691Q16 700 29 700H134Q142 700 147.5 695.5Q153 691 156 681L341 144H346L527 681Q530 690 536 695Q542 700 549 700H648Q660 700 665 691Q670 682 665 669L433 21Q430 11 422 5.5Q414 0 405 0Z" glyph-name="V" horiz-adv-x="673" unicode="V" /><glyph d="M632 21 507 499 381 21Q378 12 370.5 6Q363 0 354 0H209Q200 0 192.5 5.5Q185 11 182 21L13 668Q10 682 16 691Q22 700 35 700H139Q146 700 152 694Q158 688 161 679L286 160L423 681Q426 691 431.5 695.5Q437 700 446 700H566Q574 700 580.5 694.5Q587 689 589 681L726 164L851 679Q853 688 859 694Q865 700 873 700H971Q985 700 990.5 692Q996 684 992 668L824 21Q822 12 813 6Q804 0 797 0H659Q650 0 642.5 5.5Q635 11 632 21Z" glyph-name="W" horiz-adv-x="1006" unicode="W" /><glyph d="M526 949H635Q648 949 653.5 939Q659 929 653 919L565 768Q560 759 554 755.5Q548 752 540 752H482Q468 752 461.5 759.5Q455 767 458 781L500 931Q502 939 509 944Q516 949 526 949ZM632 21 507 499 381 21Q378 12 370.5 6Q363 0 354 0H209Q200 0 192.5 5.5Q185 11 182 21L13 668Q10 682 16 691Q22 700 35 700H139Q146 700 152 694Q158 688 161 679L286 160L423 681Q426 691 431.5 695.5Q437 700 446 700H566Q574 700 580.5 694.5Q587 689 589 681L726 164L851 679Q853 688 859 694Q865 700 873 700H971Q985 700 990.5 692Q996 684 992 668L824 21Q822 12 813 6Q804 0 797 0H659Q650 0 642.5 5.5Q635 11 632 21Z" glyph-name="Wacute" horiz-adv-x="1006" unicode="&#7810;" /><glyph d="M453 949H560Q569 949 576 944Q583 939 589 929L681 781Q688 771 683 761.5Q678 752 668 752H594Q585 752 579 755Q573 758 566 768L506 849L447 768Q438 758 432.5 755Q427 752 418 752H345Q335 752 329.5 761Q324 770 331 781L423 929Q429 940 436 944.5Q443 949 453 949ZM632 21 507 499 381 21Q378 12 370.5 6Q363 0 354 0H209Q200 0 192.5 5.5Q185 11 182 21L13 668Q10 682 16 691Q22 700 35 700H139Q146 700 152 694Q158 688 161 679L286 160L423 681Q426 691 431.5 695.5Q437 700 446 700H566Q574 700 580.5 694.5Q587 689 589 681L726 164L851 679Q853 688 859 694Q865 700 873 700H971Q985 700 990.5 692Q996 684 992 668L824 21Q822 12 813 6Q804 0 797 0H659Q650 0 642.5 5.5Q635 11 632 21Z" glyph-name="Wcircumflex" horiz-adv-x="1006" unicode="&#372;" /><glyph d="M609 748Q576 748 551.5 772.5Q527 797 527 830Q527 863 551.5 887.5Q576 912 609 912Q643 912 667 888Q691 864 691 830Q691 796 667 772Q643 748 609 748ZM402 748Q368 748 344 772Q320 796 320 830Q320 864 344 888Q368 912 402 912Q436 912 460 888Q484 864 484 830Q484 796 460 772Q436 748 402 748ZM632 21 507 499 381 21Q378 12 370.5 6Q363 0 354 0H209Q200 0 192.5 5.5Q185 11 182 21L13 668Q10 682 16 691Q22 700 35 700H139Q146 700 152 694Q158 688 161 679L286 160L423 681Q426 691 431.5 695.5Q437 700 446 700H566Q574 700 580.5 694.5Q587 689 589 681L726 164L851 679Q853 688 859 694Q865 700 873 700H971Q985 700 990.5 692Q996 684 992 668L824 21Q822 12 813 6Q804 0 797 0H659Q650 0 642.5 5.5Q635 11 632 21Z" glyph-name="Wdieresis" horiz-adv-x="1006" unicode="&#7812;" /><glyph d="M632 21 507 499 381 21Q378 12 370.5 6Q363 0 354 0H209Q200 0 192.5 5.5Q185 11 182 21L13 668Q10 682 16 691Q22 700 35 700H139Q146 700 152 694Q158 688 161 679L286 160L423 681Q426 691 431.5 695.5Q437 700 446 700H566Q574 700 580.5 694.5Q587 689 589 681L726 164L851 679Q853 688 859 694Q865 700 873 700H971Q985 700 990.5 692Q996 684 992 668L824 21Q822 12 813 6Q804 0 797 0H659Q650 0 642.5 5.5Q635 11 632 21ZM380 949H489Q499 949 505.5 944Q512 939 514 931L557 781Q560 767 553.5 759.5Q547 752 533 752H475Q467 752 461.5 755.5Q456 759 450 768L362 919Q356 929 361.5 939Q367 949 380 949Z" glyph-name="Wgrave" horiz-adv-x="1006" unicode="&#7808;" /><glyph d="M315 256 159 17Q154 8 146.5 4Q139 0 128 0H18Q5 0 0.5 9.5Q-4 19 3 29L228 356L14 671Q7 681 12.5 690.5Q18 700 30 700H140Q150 700 156.5 696Q163 692 169 683L322 450L472 683Q479 693 485.5 696.5Q492 700 501 700H606Q618 700 622.5 691Q627 682 620 672L408 357L631 29Q638 19 633.5 9.5Q629 0 616 0H504Q495 0 489 3.5Q483 7 475 18Z" glyph-name="X" horiz-adv-x="635" unicode="X" /><glyph d="M257 22V271L12 669Q5 680 9.5 690Q14 700 26 700H141Q149 700 155.5 696Q162 692 167 684L325 420H328L485 684Q490 692 496 696Q502 700 510 700H621Q633 700 638 690.5Q643 681 636 669L391 271V22Q391 13 384.5 6.5Q378 0 370 0H278Q269 0 263 6.5Q257 13 257 22Z" glyph-name="Y" horiz-adv-x="646" unicode="Y" /><glyph d="M257 22V271L12 669Q5 680 9.5 690Q14 700 26 700H141Q149 700 155.5 696Q162 692 167 684L325 420H328L485 684Q490 692 496 696Q502 700 510 700H621Q633 700 638 690.5Q643 681 636 669L391 271V22Q391 13 384.5 6.5Q378 0 370 0H278Q269 0 263 6.5Q257 13 257 22ZM343 949H452Q465 949 470.5 939Q476 929 470 919L382 768Q377 759 371 755.5Q365 752 357 752H299Q285 752 278.5 759.5Q272 767 275 781L317 931Q319 939 326 944Q333 949 343 949Z" glyph-name="Yacute" horiz-adv-x="646" unicode="&#221;" /><glyph d="M257 22V271L12 669Q5 680 9.5 690Q14 700 26 700H141Q149 700 155.5 696Q162 692 167 684L325 420H328L485 684Q490 692 496 696Q502 700 510 700H621Q633 700 638 690.5Q643 681 636 669L391 271V22Q391 13 384.5 6.5Q378 0 370 0H278Q269 0 263 6.5Q257 13 257 22ZM269 949H376Q385 949 392 944Q399 939 405 929L497 781Q504 771 499 761.5Q494 752 484 752H410Q401 752 395 755Q389 758 382 768L322 849L263 768Q254 758 248.5 755Q243 752 234 752H161Q151 752 145.5 761Q140 770 147 781L239 929Q245 940 252 944.5Q259 949 269 949Z" glyph-name="Ycircumflex" horiz-adv-x="646" unicode="&#374;" /><glyph d="M257 22V271L12 669Q5 680 9.5 690Q14 700 26 700H141Q149 700 155.5 696Q162 692 167 684L325 420H328L485 684Q490 692 496 696Q502 700 510 700H621Q633 700 638 690.5Q643 681 636 669L391 271V22Q391 13 384.5 6.5Q378 0 370 0H278Q269 0 263 6.5Q257 13 257 22ZM426 748Q393 748 368.5 772.5Q344 797 344 830Q344 863 368.5 887.5Q393 912 426 912Q460 912 484 888Q508 864 508 830Q508 796 484 772Q460 748 426 748ZM219 748Q185 748 161 772Q137 796 137 830Q137 864 161 888Q185 912 219 912Q253 912 277 888Q301 864 301 830Q301 796 277 772Q253 748 219 748Z" glyph-name="Ydieresis" horiz-adv-x="646" unicode="&#376;" /><glyph d="M257 22V271L12 669Q5 680 9.5 690Q14 700 26 700H141Q149 700 155.5 696Q162 692 167 684L325 420H328L485 684Q490 692 496 696Q502 700 510 700H621Q633 700 638 690.5Q643 681 636 669L391 271V22Q391 13 384.5 6.5Q378 0 370 0H278Q269 0 263 6.5Q257 13 257 22ZM197 949H306Q316 949 322.5 944Q329 939 331 931L374 781Q377 767 370.5 759.5Q364 752 350 752H292Q284 752 278.5 755.5Q273 759 267 768L179 919Q173 929 178.5 939Q184 949 197 949Z" glyph-name="Ygrave" horiz-adv-x="646" unicode="&#7922;" /><glyph d="M571 0H38Q29 0 22.5 6.5Q16 13 16 22V82Q16 90 19.5 97.5Q23 105 30 113L394 581H60Q51 581 45 587Q39 593 39 602V678Q39 687 45 693.5Q51 700 60 700H548Q556 700 562.5 693.5Q569 687 569 678V608Q569 600 566 592Q563 584 557 578L204 119H571Q580 119 586 113Q592 107 592 98V22Q592 13 585.5 6.5Q579 0 571 0Z" glyph-name="Z" horiz-adv-x="609" unicode="Z" /><glyph d="M325 949H434Q447 949 452.5 939Q458 929 452 919L364 768Q359 759 353 755.5Q347 752 339 752H281Q267 752 260.5 759.5Q254 767 257 781L299 931Q301 939 308 944Q315 949 325 949ZM571 0H38Q29 0 22.5 6.5Q16 13 16 22V82Q16 90 19.5 97.5Q23 105 30 113L394 581H60Q51 581 45 587Q39 593 39 602V678Q39 687 45 693.5Q51 700 60 700H548Q556 700 562.5 693.5Q569 687 569 678V608Q569 600 566 592Q563 584 557 578L204 119H571Q580 119 586 113Q592 107 592 98V22Q592 13 585.5 6.5Q579 0 571 0Z" glyph-name="Zacute" horiz-adv-x="609" unicode="&#377;" /><glyph d="M360 752H253Q243 752 236 757Q229 762 223 772L131 920Q124 931 129 940Q134 949 145 949H218Q227 949 232.5 946Q238 943 247 933L306 852L366 933Q373 943 379 946Q385 949 394 949H468Q478 949 483 940Q488 931 481 920L389 772Q383 762 376 757Q369 752 360 752ZM571 0H38Q29 0 22.5 6.5Q16 13 16 22V82Q16 90 19.5 97.5Q23 105 30 113L394 581H60Q51 581 45 587Q39 593 39 602V678Q39 687 45 693.5Q51 700 60 700H548Q556 700 562.5 693.5Q569 687 569 678V608Q569 600 566 592Q563 584 557 578L204 119H571Q580 119 586 113Q592 107 592 98V22Q592 13 585.5 6.5Q579 0 571 0Z" glyph-name="Zcaron" horiz-adv-x="609" unicode="&#381;" /><glyph d="M571 0H38Q29 0 22.5 6.5Q16 13 16 22V82Q16 90 19.5 97.5Q23 105 30 113L394 581H60Q51 581 45 587Q39 593 39 602V678Q39 687 45 693.5Q51 700 60 700H548Q556 700 562.5 693.5Q569 687 569 678V608Q569 600 566 592Q563 584 557 578L204 119H571Q580 119 586 113Q592 107 592 98V22Q592 13 585.5 6.5Q579 0 571 0ZM394 846Q394 809 368 782.5Q342 756 305 756Q268 756 241.5 782.5Q215 809 215 846Q215 883 241.5 909.5Q268 936 305 936Q342 936 368 909.5Q394 883 394 846Z" glyph-name="Zdotaccent" horiz-adv-x="609" unicode="&#379;" /><glyph d="M284 376Q229 376 191.5 337Q154 298 154 241Q154 184 191.5 144.5Q229 105 284 105Q339 105 376 144.5Q413 184 413 241Q413 298 376 337Q339 376 284 376ZM265 -14Q164 -14 94 59Q24 132 24 242Q24 352 94 424Q164 496 266 496Q315 496 354.5 476Q394 456 413 423V461Q413 470 419 476Q425 482 433 482H521Q529 482 535 476Q541 470 541 461V20Q541 12 535 6Q529 0 521 0H433Q425 0 419 6Q413 12 413 20V59Q393 26 353 6Q313 -14 265 -14Z" glyph-name="a" horiz-adv-x="589" unicode="a" /><glyph d="M284 376Q229 376 191.5 337Q154 298 154 241Q154 184 191.5 144.5Q229 105 284 105Q339 105 376 144.5Q413 184 413 241Q413 298 376 337Q339 376 284 376ZM265 -14Q164 -14 94 59Q24 132 24 242Q24 352 94 424Q164 496 266 496Q315 496 354.5 476Q394 456 413 423V461Q413 470 419 476Q425 482 433 482H521Q529 482 535 476Q541 470 541 461V20Q541 12 535 6Q529 0 521 0H433Q425 0 419 6Q413 12 413 20V59Q393 26 353 6Q313 -14 265 -14ZM308 731H417Q430 731 435.5 721Q441 711 435 701L347 550Q342 541 336 537.5Q330 534 322 534H264Q250 534 243.5 541.5Q237 549 240 563L282 713Q284 721 291 726Q298 731 308 731Z" glyph-name="aacute" horiz-adv-x="589" unicode="&#225;" /><glyph d="M284 376Q229 376 191.5 337Q154 298 154 241Q154 184 191.5 144.5Q229 105 284 105Q339 105 376 144.5Q413 184 413 241Q413 298 376 337Q339 376 284 376ZM265 -14Q164 -14 94 59Q24 132 24 242Q24 352 94 424Q164 496 266 496Q315 496 354.5 476Q394 456 413 423V461Q413 470 419 476Q425 482 433 482H521Q529 482 535 476Q541 470 541 461V20Q541 12 535 6Q529 0 521 0H433Q425 0 419 6Q413 12 413 20V59Q393 26 353 6Q313 -14 265 -14ZM230 699V688Q230 662 246 647Q262 632 288 632Q314 632 330.5 647.5Q347 663 347 688V699Q347 706 351.5 710.5Q356 715 362 715H439Q446 715 450.5 710.5Q455 706 455 699V679Q455 609 410.5 569Q366 529 288 529Q210 529 166 569Q122 609 122 679V699Q122 706 126.5 710.5Q131 715 137 715H215Q221 715 225.5 710.5Q230 706 230 699Z" glyph-name="abreve" horiz-adv-x="589" unicode="&#259;" /><glyph d="M284 376Q229 376 191.5 337Q154 298 154 241Q154 184 191.5 144.5Q229 105 284 105Q339 105 376 144.5Q413 184 413 241Q413 298 376 337Q339 376 284 376ZM265 -14Q164 -14 94 59Q24 132 24 242Q24 352 94 424Q164 496 266 496Q315 496 354.5 476Q394 456 413 423V461Q413 470 419 476Q425 482 433 482H521Q529 482 535 476Q541 470 541 461V20Q541 12 535 6Q529 0 521 0H433Q425 0 419 6Q413 12 413 20V59Q393 26 353 6Q313 -14 265 -14ZM235 731H342Q351 731 358 726Q365 721 371 711L463 563Q470 553 465 543.5Q460 534 450 534H376Q367 534 361 537Q355 540 348 550L288 631L229 550Q220 540 214.5 537Q209 534 200 534H127Q117 534 111.5 543Q106 552 113 563L205 711Q211 722 218 726.5Q225 731 235 731Z" glyph-name="acircumflex" horiz-adv-x="589" unicode="&#226;" /><glyph d="M102 731H211Q224 731 229.5 721Q235 711 229 701L141 550Q136 541 130 537.5Q124 534 116 534H58Q44 534 37.5 541.5Q31 549 34 563L76 713Q78 721 85 726Q92 731 102 731Z" glyph-name="acute" horiz-adv-x="263" unicode="&#180;" /><glyph d="M284 376Q229 376 191.5 337Q154 298 154 241Q154 184 191.5 144.5Q229 105 284 105Q339 105 376 144.5Q413 184 413 241Q413 298 376 337Q339 376 284 376ZM265 -14Q164 -14 94 59Q24 132 24 242Q24 352 94 424Q164 496 266 496Q315 496 354.5 476Q394 456 413 423V461Q413 470 419 476Q425 482 433 482H521Q529 482 535 476Q541 470 541 461V20Q541 12 535 6Q529 0 521 0H433Q425 0 419 6Q413 12 413 20V59Q393 26 353 6Q313 -14 265 -14ZM391 530Q358 530 333.5 554.5Q309 579 309 612Q309 645 333.5 669.5Q358 694 391 694Q425 694 449 670Q473 646 473 612Q473 578 449 554Q425 530 391 530ZM184 530Q150 530 126 554Q102 578 102 612Q102 646 126 670Q150 694 184 694Q218 694 242 670Q266 646 266 612Q266 578 242 554Q218 530 184 530Z" glyph-name="adieresis" horiz-adv-x="589" unicode="&#228;" /><glyph d="M752 12Q723 -1 692 -7.5Q661 -14 627 -14Q576 -14 531 2.5Q486 19 451 50Q418 19 374.5 2.5Q331 -14 282 -14Q173 -14 98 59.5Q23 133 23 240Q23 347 98 421.5Q173 496 282 496Q331 496 374.5 479Q418 462 452 431Q486 463 530 479.5Q574 496 624 496Q730 496 800 426.5Q870 357 870 255V231Q870 220 864.5 214.5Q859 209 847 209H503Q508 159 543.5 127.5Q579 96 629 96Q647 96 663 99.5Q679 103 694 111Q706 117 716.5 125.5Q727 134 738 147Q744 154 750.5 155Q757 156 764 152L835 108Q843 103 844 96Q845 89 840 82Q824 61 801.5 43Q779 25 752 12ZM506 291H743Q735 337 702.5 364.5Q670 392 625 392Q581 392 548.5 364Q516 336 506 291ZM153 241Q153 184 190.5 145Q228 106 283 106Q314 106 340.5 117.5Q367 129 385 150Q378 171 374 193.5Q370 216 370 239Q370 265 374 288Q378 311 386 331Q368 353 341.5 364.5Q315 376 283 376Q228 376 190.5 337Q153 298 153 241Z" glyph-name="ae" horiz-adv-x="886" unicode="&#230;" /><glyph d="M284 376Q229 376 191.5 337Q154 298 154 241Q154 184 191.5 144.5Q229 105 284 105Q339 105 376 144.5Q413 184 413 241Q413 298 376 337Q339 376 284 376ZM265 -14Q164 -14 94 59Q24 132 24 242Q24 352 94 424Q164 496 266 496Q315 496 354.5 476Q394 456 413 423V461Q413 470 419 476Q425 482 433 482H521Q529 482 535 476Q541 470 541 461V20Q541 12 535 6Q529 0 521 0H433Q425 0 419 6Q413 12 413 20V59Q393 26 353 6Q313 -14 265 -14ZM162 731H271Q281 731 287.5 726Q294 721 296 713L339 563Q342 549 335.5 541.5Q329 534 315 534H257Q249 534 243.5 537.5Q238 541 232 550L144 701Q138 711 143.5 721Q149 731 162 731Z" glyph-name="agrave" horiz-adv-x="589" unicode="&#224;" /><glyph d="M284 376Q229 376 191.5 337Q154 298 154 241Q154 184 191.5 144.5Q229 105 284 105Q339 105 376 144.5Q413 184 413 241Q413 298 376 337Q339 376 284 376ZM265 -14Q164 -14 94 59Q24 132 24 242Q24 352 94 424Q164 496 266 496Q315 496 354.5 476Q394 456 413 423V461Q413 470 419 476Q425 482 433 482H521Q529 482 535 476Q541 470 541 461V20Q541 12 535 6Q529 0 521 0H433Q425 0 419 6Q413 12 413 20V59Q393 26 353 6Q313 -14 265 -14ZM436 552H139Q130 552 124 558.5Q118 565 118 574V639Q118 648 124 654Q130 660 139 660H436Q445 660 451.5 654Q458 648 458 639V574Q458 565 451.5 558.5Q445 552 436 552Z" glyph-name="amacron" horiz-adv-x="589" unicode="&#257;" /><glyph d="M230 542Q230 522 241 500.5Q252 479 274 458L280 452L302 466Q333 485 348.5 506Q364 527 364 550Q364 577 345.5 594.5Q327 612 300 612Q272 612 251 591.5Q230 571 230 542ZM164 196Q164 154 198 125.5Q232 97 284 97Q316 97 348 110Q380 123 406 146L244 313L231 304Q197 280 180.5 253Q164 226 164 196ZM537 12 484 67Q436 26 383 6Q330 -14 268 -14Q166 -14 98 44Q30 102 30 189Q30 245 58.5 291Q87 337 146 376L168 391Q138 422 121.5 460Q105 498 105 537Q105 611 161 663Q217 715 301 715Q383 715 434.5 669Q486 623 486 553Q486 505 457.5 463.5Q429 422 374 390L353 378L481 248Q496 281 504.5 316Q513 351 517 391Q518 400 523.5 404.5Q529 409 540 409H626Q635 409 641 403Q647 397 647 388Q645 348 623 279.5Q601 211 571 157L699 27Q707 18 703.5 9Q700 0 690 0H567Q556 0 549.5 2.5Q543 5 537 12Z" glyph-name="ampersand" horiz-adv-x="705" unicode="&amp;" /><glyph d="M284 376Q229 376 191.5 337Q154 298 154 241Q154 184 191.5 144.5Q229 105 284 105Q339 105 376 144.5Q413 184 413 241Q413 298 376 337Q339 376 284 376ZM559 -143 555 -179Q553 -195 530.5 -203.5Q508 -212 469 -212Q414 -212 381.5 -187Q349 -162 349 -119Q349 -87 367 -55.5Q385 -24 420 5Q417 7 415 11.5Q413 16 413 20V59Q393 26 353 6Q313 -14 265 -14Q164 -14 94 59Q24 132 24 242Q24 352 94 424Q164 496 266 496Q315 496 354.5 476Q394 456 413 423V461Q413 470 419 476Q425 482 433 482H521Q529 482 535 476Q541 470 541 461V20Q541 12 535 6Q529 0 521 0H505Q486 -30 476.5 -51Q467 -72 467 -85Q467 -104 478 -113.5Q489 -123 511 -123Q514 -123 522 -122.5Q530 -122 543 -120Q552 -119 556.5 -125Q561 -131 559 -143Z" glyph-name="aogonek" horiz-adv-x="589" unicode="&#261;" /><glyph d="M45 450 100 538Q76 550 62 572Q48 594 48 620Q48 659 75 685.5Q102 712 141 712Q181 712 208.5 684Q236 656 236 614Q236 567 203.5 514Q171 461 119 418Q104 406 91 403.5Q78 401 67 408L53 417Q43 424 40.5 432.5Q38 441 45 450Z" glyph-name="apostrophe" horiz-adv-x="273" unicode="&#700;" /><glyph d="M114 496 155 557Q133 567 120.5 586Q108 605 108 628Q108 661 131.5 684.5Q155 708 188 708Q222 708 246 683.5Q270 659 270 623Q270 584 247 545.5Q224 507 177 469Q165 458 154 456Q143 454 133 461L122 468Q113 474 111 481.5Q109 489 114 496Z" glyph-name="apostrophemod" horiz-adv-x="364" /><glyph d="M568 462Q565 439 529 413.5Q493 388 455 387Q439 387 406.5 390.5Q374 394 296 407Q240 416 219.5 418.5Q199 421 191 421Q179 421 169 417.5Q159 414 145 402Q137 396 132.5 393Q128 390 123 389Q117 387 111.5 389Q106 391 99 398L67 440Q61 446 58.5 453.5Q56 461 57 469Q60 492 97 518Q134 544 172 544Q186 544 215.5 540.5Q245 537 318 526Q380 517 403 514Q426 511 436 511Q449 511 459 514.5Q469 518 484 530Q492 536 496.5 539Q501 542 505 543Q511 545 517.5 542.5Q524 540 530 533L558 492Q564 484 566.5 476.5Q569 469 568 462ZM568 230Q565 207 529 181.5Q493 156 455 155Q439 155 406.5 158.5Q374 162 296 175Q240 184 219.5 186.5Q199 189 191 189Q179 189 169 185.5Q159 182 145 170Q137 164 132.5 161Q128 158 123 157Q117 155 111.5 157Q106 159 99 166L67 208Q61 214 58.5 221.5Q56 229 57 237Q60 260 97 286Q134 312 172 312Q186 312 215.5 308.5Q245 305 318 294Q380 285 403 282Q426 279 436 279Q449 279 459 282.5Q469 286 484 298Q492 304 496.5 307Q501 310 505 311Q511 313 517 311Q523 309 530 302L558 260Q564 252 566.5 244.5Q569 237 568 230Z" glyph-name="approxequal" horiz-adv-x="623" unicode="&#8776;" /><glyph d="M284 376Q229 376 191.5 337Q154 298 154 241Q154 184 191.5 144.5Q229 105 284 105Q339 105 376 144.5Q413 184 413 241Q413 298 376 337Q339 376 284 376ZM265 -14Q164 -14 94 59Q24 132 24 242Q24 352 94 424Q164 496 266 496Q315 496 354.5 476Q394 456 413 423V461Q413 470 419 476Q425 482 433 482H521Q529 482 535 476Q541 470 541 461V20Q541 12 535 6Q529 0 521 0H433Q425 0 419 6Q413 12 413 20V59Q393 26 353 6Q313 -14 265 -14ZM288 806Q350 806 392 766Q434 726 435 666Q434 607 392 567Q350 527 288 527Q226 527 184 567Q142 607 142 666Q142 726 184 766Q226 806 288 806ZM288 604Q314 604 331 622Q348 640 348 666Q348 693 331 711Q314 729 288 729Q262 729 245 711Q228 693 228 666Q228 640 245 622Q262 604 288 604Z" glyph-name="aring" horiz-adv-x="589" unicode="&#229;" /><glyph d="M382 -55 132 142Q124 146 120 155Q116 164 116 175V274Q116 284 125 287Q134 290 146 282L337 130V737Q337 746 343 753Q349 760 358 760H442Q451 760 457 753.5Q463 747 463 738V130L654 282Q666 290 675 287.5Q684 285 684 275V175Q684 163 680.5 155Q677 147 669 142L417 -55Q410 -60 399.5 -60Q389 -60 382 -55Z" glyph-name="arrowdown" horiz-adv-x="800" unicode="&#8595;" /><glyph d="M498 36 181 74Q173 76 165.5 83Q158 90 157 99L118 417Q116 425 119 433.5Q122 442 130 450L201 521Q208 528 216.5 524Q225 520 228 505L255 263L695 702Q702 709 710.5 709Q719 709 726 702L784 643Q790 637 790 628Q790 619 784 612L345 173L587 145Q602 142 606 134Q610 126 603 119L532 48Q525 41 516 38Q507 35 498 36Z" glyph-name="arrowdownleft" horiz-adv-x="880" unicode="&#8601;" /><glyph d="M698 74 382 36Q373 35 364 38Q355 41 348 48L277 119Q270 126 274 134Q278 142 293 145L535 173L96 612Q89 619 89 628Q89 637 95 643L154 702Q161 709 169.5 709Q178 709 185 702L625 263L652 505Q655 520 663.5 524Q672 528 679 521L749 450Q756 443 759.5 434.5Q763 426 762 417L723 99Q722 90 714.5 83Q707 76 698 74Z" glyph-name="arrowdownright" horiz-adv-x="880" unicode="&#8600;" /><glyph d="M132 557 382 754Q389 759 399.5 759Q410 759 417 754L669 557Q676 552 680 544Q684 536 684 525V425Q684 414 675.5 411Q667 408 654 417L463 569V-39Q463 -48 457 -54.5Q451 -61 442 -61H358Q349 -61 343 -54Q337 -47 337 -38V569L146 417Q134 409 125 412Q116 415 116 425V525Q116 535 120 544Q124 553 132 557Z" glyph-name="arrowup" horiz-adv-x="800" unicode="&#8593;" /><glyph d="M181 670 497 708Q506 710 515.5 707Q525 704 532 697L602 626Q609 619 605 610.5Q601 602 586 600L344 572L783 133Q790 126 790.5 117Q791 108 784 102L725 43Q719 36 710 36Q701 36 695 43L255 482L228 240Q225 225 216.5 221Q208 217 201 224L130 295Q122 303 119 311.5Q116 320 118 328L156 646Q158 655 165.5 662Q173 669 181 670Z" glyph-name="arrowupleft" horiz-adv-x="880" unicode="&#8598;" /><glyph d="M383 708 700 670Q708 669 715.5 662Q723 655 724 646L763 328Q765 320 762 311.5Q759 303 751 295L680 224Q673 217 664.5 221Q656 225 653 240L626 482L186 43Q179 36 170.5 36Q162 36 156 43L97 102Q91 108 91 117Q91 126 97 133L536 572L294 600Q279 602 275 610.5Q271 619 278 626L349 697Q356 704 365 707Q374 710 383 708Z" glyph-name="arrowupright" horiz-adv-x="880" unicode="&#8599;" /><glyph d="M150 212H55Q41 212 36 220.5Q31 229 36 242L201 679Q205 690 212 695Q219 700 228 700H336Q345 700 352 694.5Q359 689 362 679L525 242Q530 229 524.5 220.5Q519 212 505 212H411Q400 212 392.5 217Q385 222 382 232L282 538L178 232Q175 222 168 217Q161 212 150 212Z" glyph-name="asciicircum" horiz-adv-x="559" unicode="^" /><glyph d="M557 347Q553 324 517 298Q481 272 444 272Q429 272 396.5 275.5Q364 279 286 291Q229 300 208.5 302.5Q188 305 179 305Q167 305 157 301.5Q147 298 134 287Q126 280 121.5 277Q117 274 112 273Q106 271 100.5 273Q95 275 87 283L56 325Q50 332 47 339.5Q44 347 45 354Q49 377 85.5 403Q122 429 160 429Q174 429 203.5 425.5Q233 422 307 411Q369 402 392 399Q415 396 425 396Q437 396 447 399.5Q457 403 471 414Q480 421 484.5 423.5Q489 426 494 427Q500 430 506 427.5Q512 425 519 418L546 376Q552 369 555 361.5Q558 354 557 347Z" glyph-name="asciitilde" horiz-adv-x="599" unicode="~" /><glyph d="M271 454Q291 364 297 334.5Q303 305 303 297Q303 276 289 262Q275 248 254 248Q233 248 219 262Q205 276 205 297Q205 306 213.5 349.5Q222 393 236 454Q231 450 221 442Q211 434 186 414Q145 380 129.5 368Q114 356 108 353Q90 343 71 349Q52 355 42 373Q33 392 39 410.5Q45 429 62 440Q68 443 84.5 448Q101 453 145 464Q183 474 197.5 478Q212 482 219 485Q211 489 192.5 494.5Q174 500 129 512Q93 522 80 526Q67 530 62 532Q45 543 39 562Q33 581 42 600Q52 618 71 623.5Q90 629 108 620Q113 617 126.5 606.5Q140 596 176 566Q206 542 218 532.5Q230 523 236 518Q222 579 213.5 622.5Q205 666 205 675Q205 695 219.5 709.5Q234 724 254 724Q274 724 288.5 709.5Q303 695 303 675Q303 668 298.5 644.5Q294 621 281 562Q277 540 275 531.5Q273 523 272 518Q278 522 288.5 530.5Q299 539 326 562Q365 594 379.5 605.5Q394 617 400 620Q418 629 437 623.5Q456 618 466 600Q474 581 468.5 562Q463 543 445 532Q440 530 427 526Q414 522 378 512Q334 500 315.5 494.5Q297 489 289 485Q296 482 310 478Q324 474 360 465Q406 453 422.5 448Q439 443 445 440Q463 429 468.5 410.5Q474 392 466 373Q456 355 437 349Q418 343 400 353Q394 356 378 368.5Q362 381 320 415Q296 435 286 442.5Q276 450 271 454Z" glyph-name="asterisk" horiz-adv-x="506" unicode="*" /><glyph d="M798 -122Q748 -168 671.5 -192.5Q595 -217 501 -217Q406 -217 321 -183Q236 -149 171 -86Q104 -22 68.5 63Q33 148 33 241Q33 339 68 424Q103 509 168 572Q233 635 319.5 669Q406 703 502 703Q591 703 671.5 673Q752 643 812 588Q874 530 907 452.5Q940 375 940 285Q940 159 885.5 81Q831 3 744 3Q698 3 666.5 24.5Q635 46 622 85Q600 47 559 25Q518 3 469 3Q375 3 310.5 70Q246 137 246 237Q246 336 310.5 402Q375 468 469 468Q512 468 550 450Q588 432 613 399V430Q613 439 619 445Q625 451 634 451H700Q710 451 716 445Q722 439 722 430V166Q722 133 732 118.5Q742 104 764 104Q798 104 819 153.5Q840 203 840 290Q840 431 743.5 521.5Q647 612 502 612Q428 612 360 584.5Q292 557 241 506Q191 455 165 388Q139 321 139 243Q139 168 167.5 100.5Q196 33 248 -19Q301 -70 369 -98Q437 -126 511 -126Q550 -126 587 -119.5Q624 -113 656 -101Q670 -95 684 -88Q698 -81 711 -73Q721 -66 728.5 -65Q736 -64 743 -69L795 -104Q801 -107 801.5 -113Q802 -119 798 -122ZM597 239Q597 292 564.5 326.5Q532 361 483 361Q433 361 401 326.5Q369 292 369 239Q369 187 401.5 152Q434 117 483 117Q532 117 564.5 152Q597 187 597 239Z" glyph-name="at" horiz-adv-x="977" unicode="@" /><glyph d="M284 376Q229 376 191.5 337Q154 298 154 241Q154 184 191.5 144.5Q229 105 284 105Q339 105 376 144.5Q413 184 413 241Q413 298 376 337Q339 376 284 376ZM265 -14Q164 -14 94 59Q24 132 24 242Q24 352 94 424Q164 496 266 496Q315 496 354.5 476Q394 456 413 423V461Q413 470 419 476Q425 482 433 482H521Q529 482 535 476Q541 470 541 461V20Q541 12 535 6Q529 0 521 0H433Q425 0 419 6Q413 12 413 20V59Q393 26 353 6Q313 -14 265 -14ZM276 566Q247 574 235.5 576.5Q224 579 217 579Q206 579 196 575Q186 571 171 559Q162 551 158 549Q154 547 150 547Q145 547 140.5 549.5Q136 552 132 558L106 596Q102 601 100 607.5Q98 614 98 621Q98 648 129.5 672.5Q161 697 203 697Q216 697 234.5 693.5Q253 690 292 679Q323 670 335.5 667.5Q348 665 356 665Q367 665 377 669Q387 673 402 685Q411 693 415 695Q419 697 423 697Q429 697 433 694.5Q437 692 442 685L467 648Q471 642 473 635.5Q475 629 475 623Q475 596 443.5 571.5Q412 547 370 547Q356 547 336 551Q316 555 276 566Z" glyph-name="atilde" horiz-adv-x="589" unicode="&#227;" /><glyph d="M326 496Q426 496 495.5 423.5Q565 351 565 242Q565 132 495 59Q425 -14 324 -14Q277 -14 238 5.5Q199 25 176 59V20Q176 12 170 6Q164 0 156 0H69Q60 0 54 6Q48 12 48 20V680Q48 688 54 694Q60 700 69 700H156Q164 700 170.5 694Q177 688 177 680V425Q196 457 236.5 476.5Q277 496 326 496ZM305 105Q360 105 397.5 144.5Q435 184 435 241Q435 298 397.5 337Q360 376 305 376Q250 376 213 337Q176 298 176 241Q176 184 213 144.5Q250 105 305 105Z" glyph-name="b" horiz-adv-x="589" unicode="b" /><glyph d="M124 684 442 29Q447 17 443 8.5Q439 0 426 0H373Q363 0 356.5 3.5Q350 7 345 17L31 672Q25 683 29.5 691.5Q34 700 47 700H99Q109 700 114 696.5Q119 693 124 684Z" glyph-name="backslash" horiz-adv-x="471" unicode="\" /><glyph d="M126 -125H90Q82 -125 75.5 -118.5Q69 -112 69 -104V805Q69 813 75.5 819Q82 825 90 825H126Q135 825 141 819Q147 813 147 805V-104Q147 -113 141 -119Q135 -125 126 -125Z" glyph-name="bar" horiz-adv-x="217" unicode="|" /><glyph d="M226 230V33Q226 12 235 2.5Q244 -7 263 -7H310Q319 -7 325 -13Q331 -19 331 -28V-82Q331 -91 325 -97Q319 -103 310 -103H216Q156 -103 125 -71.5Q94 -40 94 22V247Q94 266 86.5 274.5Q79 283 60 283H45Q35 283 28.5 289.5Q22 296 22 308V355Q22 367 28.5 373.5Q35 380 45 380H60Q79 380 86.5 388.5Q94 397 94 416V625Q94 687 125 718.5Q156 750 216 750H310Q318 750 324.5 743.5Q331 737 331 729V674Q331 666 324.5 659.5Q318 653 310 653H263Q243 653 234.5 643.5Q226 634 226 613V433Q226 392 205 365Q184 338 152 331Q180 328 203 300.5Q226 273 226 230Z" glyph-name="braceleft" horiz-adv-x="351" unicode="{" /><glyph d="M126 33V230Q126 273 149 300.5Q172 328 200 331Q168 338 147 365Q126 392 126 433V613Q126 634 117.5 643.5Q109 653 89 653H42Q34 653 27.5 659.5Q21 666 21 674V729Q21 737 27.5 743.5Q34 750 42 750H136Q196 750 227 718.5Q258 687 258 625V416Q258 397 265.5 388.5Q273 380 292 380H307Q317 380 323.5 373.5Q330 367 330 355V308Q330 296 323.5 289.5Q317 283 307 283H292Q273 283 265.5 274.5Q258 266 258 247V22Q258 -40 227 -71.5Q196 -103 136 -103H42Q33 -103 27 -97Q21 -91 21 -82V-28Q21 -19 27 -13Q33 -7 42 -7H89Q108 -7 117 2.5Q126 12 126 33Z" glyph-name="braceright" horiz-adv-x="352" unicode="}" /><glyph d="M327 729V674Q327 665 321 659Q315 653 306 653H193V-8H306Q315 -8 321 -14Q327 -20 327 -28V-83Q327 -92 321 -98Q315 -104 306 -104H91Q83 -104 76.5 -98Q70 -92 70 -84V730Q70 738 76.5 744Q83 750 91 750H306Q315 750 321 744Q327 738 327 729Z" glyph-name="bracketleft" horiz-adv-x="346" unicode="[" /><glyph d="M19 674V729Q19 738 25 744Q31 750 40 750H255Q263 750 269.5 744Q276 738 276 730V-84Q276 -92 269.5 -98Q263 -104 255 -104H40Q31 -104 25 -98Q19 -92 19 -83V-28Q19 -20 25 -14Q31 -8 40 -8H153V653H40Q31 653 25 659Q19 665 19 674Z" glyph-name="bracketright" horiz-adv-x="346" unicode="]" /><glyph d="M135 699V688Q135 662 151 647Q167 632 193 632Q219 632 235.5 647.5Q252 663 252 688V699Q252 706 256.5 710.5Q261 715 267 715H344Q351 715 355.5 710.5Q360 706 360 699V679Q360 609 315.5 569Q271 529 193 529Q115 529 71 569Q27 609 27 679V699Q27 706 31.5 710.5Q36 715 42 715H120Q126 715 130.5 710.5Q135 706 135 699Z" glyph-name="breve" horiz-adv-x="386" unicode="&#728;" /><glyph d="M146 805V447Q146 439 140 433Q134 427 126 427H89Q81 427 74.5 433Q68 439 68 447V805Q68 813 74.5 819Q81 825 89 825H126Q134 825 140 819Q146 813 146 805ZM146 253V-104Q146 -112 140 -118.5Q134 -125 126 -125H89Q81 -125 74.5 -118.5Q68 -112 68 -104V253Q68 262 74 268Q80 274 89 274H126Q134 274 140 268Q146 262 146 253Z" glyph-name="brokenbar" horiz-adv-x="215" unicode="&#166;" /><glyph d="M311 353Q311 301 274 264Q237 227 184 227Q132 227 95 264Q58 301 58 353Q58 405 95 442Q132 479 184 479Q236 479 273.5 442Q311 405 311 353Z" glyph-name="bullet" horiz-adv-x="369" unicode="&#8226;" /><glyph d="M281 -14Q172 -14 98 59.5Q24 133 24 241Q24 349 98 422.5Q172 496 281 496Q351 496 408.5 465.5Q466 435 498 382Q504 373 501 363Q498 353 489 346L440 308Q429 299 418 301Q407 303 398 314Q370 348 343.5 362Q317 376 283 376Q228 376 191 337Q154 298 154 241Q154 184 191 145Q228 106 283 106Q317 106 343.5 120Q370 134 398 168Q407 179 418 181Q429 183 440 174L489 136Q498 129 501 119Q504 109 498 100Q466 47 408.5 16.5Q351 -14 281 -14Z" glyph-name="c" horiz-adv-x="518" unicode="c" /><glyph d="M288 731H397Q410 731 415.5 721Q421 711 415 701L327 550Q322 541 316 537.5Q310 534 302 534H244Q230 534 223.5 541.5Q217 549 220 563L262 713Q264 721 271 726Q278 731 288 731ZM281 -14Q172 -14 98 59.5Q24 133 24 241Q24 349 98 422.5Q172 496 281 496Q351 496 408.5 465.5Q466 435 498 382Q504 373 501 363Q498 353 489 346L440 308Q429 299 418 301Q407 303 398 314Q370 348 343.5 362Q317 376 283 376Q228 376 191 337Q154 298 154 241Q154 184 191 145Q228 106 283 106Q317 106 343.5 120Q370 134 398 168Q407 179 418 181Q429 183 440 174L489 136Q498 129 501 119Q504 109 498 100Q466 47 408.5 16.5Q351 -14 281 -14Z" glyph-name="cacute" horiz-adv-x="518" unicode="&#263;" /><glyph d="M262 534H155Q145 534 138 539Q131 544 125 554L33 702Q26 713 31 722Q36 731 47 731H120Q129 731 134.5 728Q140 725 149 715L208 634L268 715Q275 725 281 728Q287 731 296 731H370Q380 731 385 722Q390 713 383 702L291 554Q285 544 278 539Q271 534 262 534Z" glyph-name="caron" horiz-adv-x="414" unicode="&#711;" /><glyph d="M323 534H216Q206 534 199 539Q192 544 186 554L94 702Q87 713 92 722Q97 731 108 731H181Q190 731 195.5 728Q201 725 210 715L269 634L329 715Q336 725 342 728Q348 731 357 731H431Q441 731 446 722Q451 713 444 702L352 554Q346 544 339 539Q332 534 323 534ZM281 -14Q172 -14 98 59.5Q24 133 24 241Q24 349 98 422.5Q172 496 281 496Q351 496 408.5 465.5Q466 435 498 382Q504 373 501 363Q498 353 489 346L440 308Q429 299 418 301Q407 303 398 314Q370 348 343.5 362Q317 376 283 376Q228 376 191 337Q154 298 154 241Q154 184 191 145Q228 106 283 106Q317 106 343.5 120Q370 134 398 168Q407 179 418 181Q429 183 440 174L489 136Q498 129 501 119Q504 109 498 100Q466 47 408.5 16.5Q351 -14 281 -14Z" glyph-name="ccaron" horiz-adv-x="518" unicode="&#269;" /><glyph d="M341 -8 273 -146Q270 -153 264 -156.5Q258 -160 247 -160H179Q167 -160 162 -153Q157 -146 161 -134L206 -4Q124 20 74 87Q24 154 24 241Q24 349 98 422.5Q172 496 281 496Q351 496 408.5 465.5Q466 435 498 382Q504 373 501 363Q498 353 489 346L440 308Q429 299 418 301Q407 303 398 314Q370 348 343.5 362Q317 376 283 376Q228 376 191 337Q154 298 154 241Q154 184 191 145Q228 106 283 106Q317 106 343.5 120Q370 134 398 168Q407 179 418 181Q429 183 440 174L489 136Q498 129 501 119Q504 109 498 100Q473 59 432 31Q391 3 341 -8Z" glyph-name="ccedilla" horiz-adv-x="518" unicode="&#231;" /><glyph d="M215 731H322Q331 731 338 726Q345 721 351 711L443 563Q450 553 445 543.5Q440 534 430 534H356Q347 534 341 537Q335 540 328 550L268 631L209 550Q200 540 194.5 537Q189 534 180 534H107Q97 534 91.5 543Q86 552 93 563L185 711Q191 722 198 726.5Q205 731 215 731ZM281 -14Q172 -14 98 59.5Q24 133 24 241Q24 349 98 422.5Q172 496 281 496Q351 496 408.5 465.5Q466 435 498 382Q504 373 501 363Q498 353 489 346L440 308Q429 299 418 301Q407 303 398 314Q370 348 343.5 362Q317 376 283 376Q228 376 191 337Q154 298 154 241Q154 184 191 145Q228 106 283 106Q317 106 343.5 120Q370 134 398 168Q407 179 418 181Q429 183 440 174L489 136Q498 129 501 119Q504 109 498 100Q466 47 408.5 16.5Q351 -14 281 -14Z" glyph-name="ccircumflex" horiz-adv-x="518" unicode="&#265;" /><glyph d="M281 -14Q172 -14 98 59.5Q24 133 24 241Q24 349 98 422.5Q172 496 281 496Q351 496 408.5 465.5Q466 435 498 382Q504 373 501 363Q498 353 489 346L440 308Q429 299 418 301Q407 303 398 314Q370 348 343.5 362Q317 376 283 376Q228 376 191 337Q154 298 154 241Q154 184 191 145Q228 106 283 106Q317 106 343.5 120Q370 134 398 168Q407 179 418 181Q429 183 440 174L489 136Q498 129 501 119Q504 109 498 100Q466 47 408.5 16.5Q351 -14 281 -14ZM366 625Q366 588 340 561.5Q314 535 277 535Q240 535 213.5 561.5Q187 588 187 625Q187 662 213.5 688.5Q240 715 277 715Q314 715 340 688.5Q366 662 366 625Z" glyph-name="cdotaccent" horiz-adv-x="518" unicode="&#267;" /><glyph d="M47 -134 100 20 232 3 159 -146Q156 -153 150 -156.5Q144 -160 133 -160H65Q53 -160 48 -153Q43 -146 47 -134Z" glyph-name="cedilla" horiz-adv-x="255" unicode="&#184;" /><glyph d="M339 199V123Q339 114 333 108Q327 102 318 102H259Q250 102 244 108Q238 114 238 123V202Q148 220 92 289Q36 358 36 451Q36 544 92 613Q148 682 238 700V783Q238 791 244 797Q250 803 259 803H318Q327 803 333 797Q339 791 339 783V703Q394 694 439 665Q484 636 511 592Q516 583 512.5 572Q509 561 500 556L446 516Q437 509 427 511Q417 513 408 524Q388 555 359.5 570.5Q331 586 296 586Q240 586 203.5 547.5Q167 509 167 451Q167 393 203.5 354.5Q240 316 296 316Q331 316 359.5 331.5Q388 347 408 378Q417 389 427 391Q437 393 446 386L500 347Q509 341 512.5 330Q516 319 511 310Q484 266 439 237Q394 208 339 199Z" glyph-name="cent" horiz-adv-x="546" unicode="&#162;" /><glyph d="M154 731H261Q270 731 277 726Q284 721 290 711L382 563Q389 553 384 543.5Q379 534 369 534H295Q286 534 280 537Q274 540 267 550L207 631L148 550Q139 540 133.5 537Q128 534 119 534H46Q36 534 30.5 543Q25 552 32 563L124 711Q130 722 137 726.5Q144 731 154 731Z" glyph-name="circumflex" horiz-adv-x="414" unicode="&#710;" /><glyph d="M225 390Q225 353 199 327.5Q173 302 136 302Q100 302 74 328Q48 354 48 390Q48 427 74 453Q100 479 136 479Q173 479 199 453Q225 427 225 390ZM225 74Q225 38 199 12Q173 -14 136 -14Q100 -14 74 12Q48 38 48 74Q48 111 74 137Q100 163 136 163Q173 163 199 137Q225 111 225 74Z" glyph-name="colon" horiz-adv-x="273" unicode=":" /><glyph d="M35 -89 88 -4Q65 7 51 28Q37 49 37 74Q37 112 62.5 137.5Q88 163 126 163Q164 163 190.5 136Q217 109 217 69Q217 23 184.5 -29Q152 -81 104 -120Q88 -132 76.5 -134Q65 -136 54 -129L42 -121Q32 -115 30.5 -106.5Q29 -98 35 -89Z" glyph-name="comma" horiz-adv-x="255" unicode="," /><glyph d="M58 -263 98 -202Q77 -193 64.5 -174Q52 -155 52 -132Q52 -98 75 -75Q98 -52 132 -52Q166 -52 190 -76Q214 -100 214 -136Q214 -174 192 -212Q170 -250 122 -291Q109 -302 97.5 -304Q86 -306 77 -299L65 -292Q56 -285 54.5 -278Q53 -271 58 -263Z" glyph-name="commaaccent" horiz-adv-x="255" unicode="&#63171;" /><glyph d="M156 59Q97 116 65 191Q33 266 33 350Q33 434 65 509.5Q97 585 156 642Q214 698 290.5 728Q367 758 451 758Q535 758 611.5 728Q688 698 746 641Q805 584 836.5 509Q868 434 868 350Q868 266 836.5 191Q805 116 746 59Q688 3 611.5 -27Q535 -57 451 -57Q366 -57 290 -27Q214 3 156 59ZM451 12Q594 12 691.5 109.5Q789 207 789 350Q789 493 691.5 591Q594 689 451 689Q307 689 209.5 591.5Q112 494 112 350Q112 207 209.5 109.5Q307 12 451 12ZM451 108Q345 108 274 177.5Q203 247 203 351Q203 455 274 524.5Q345 594 451 594Q519 594 574.5 563.5Q630 533 660 480Q665 471 661.5 461Q658 451 648 445L593 412Q582 405 571 407Q560 409 552 418Q525 450 503 462Q481 474 453 474Q401 474 367.5 439Q334 404 334 351Q334 298 367.5 263Q401 228 453 228Q481 228 503 240Q525 252 552 284Q560 293 571 295Q582 297 593 290L648 257Q658 251 661.5 241Q665 231 660 222Q630 169 574.5 138.5Q519 108 451 108Z" glyph-name="copyright" horiz-adv-x="902" unicode="&#169;" /><glyph d="M380 566Q349 566 320 557.5Q291 549 266 532L380 417L493 532Q468 549 439 557.5Q410 566 380 566ZM591 350Q591 382 582.5 411.5Q574 441 557 466L443 350L557 234Q574 259 582.5 288.5Q591 318 591 350ZM203 234 316 350 203 466Q186 440 177 410.5Q168 381 168 350Q168 319 177 289.5Q186 260 203 234ZM380 134Q410 134 439 142.5Q468 151 493 168L380 283L266 168Q291 151 320 142.5Q349 134 380 134ZM190 92 119 21Q112 14 103.5 14Q95 14 88 21L53 55Q46 62 46 70Q46 78 53 85L122 154Q89 197 71.5 246.5Q54 296 54 350Q54 404 71.5 453.5Q89 503 122 546L53 615Q46 622 46 630Q46 638 53 645L88 679Q95 686 103.5 686Q112 686 119 679L190 608Q231 637 279.5 652Q328 667 380 667Q432 667 480.5 652Q529 637 569 608L641 679Q647 685 656 685Q665 685 671 679L707 645Q713 639 713 630.5Q713 622 706 615L636 545Q670 503 687.5 453Q705 403 705 350Q704 295 686.5 245Q669 195 636 155L706 85Q713 78 713 69.5Q713 61 707 55L671 21Q665 15 656 15Q647 15 641 21L569 92Q529 63 480.5 48Q432 33 380 33Q328 33 279.5 48Q231 63 190 92Z" glyph-name="currency" horiz-adv-x="759" unicode="&#164;" /><glyph d="M284 376Q229 376 191.5 337Q154 298 154 241Q154 184 191.5 144.5Q229 105 284 105Q339 105 376 144.5Q413 184 413 241Q413 298 376 337Q339 376 284 376ZM265 -14Q164 -14 94 59Q24 132 24 242Q24 351 93.5 423.5Q163 496 263 496Q312 496 352.5 476.5Q393 457 412 425V680Q412 688 418.5 694Q425 700 433 700H520Q529 700 535 694Q541 688 541 680V20Q541 12 535 6Q529 0 520 0H433Q425 0 419 6Q413 12 413 20V59Q390 25 351 5.5Q312 -14 265 -14Z" glyph-name="d" horiz-adv-x="589" unicode="d" /><glyph d="M406 432H285V162Q285 154 279.5 148.5Q274 143 267 143H194Q187 143 181 149Q175 155 175 162V432H55Q48 432 42.5 437.5Q37 443 37 450V517Q37 525 42.5 530Q48 535 55 535H175V682Q175 689 180.5 694.5Q186 700 194 700H267Q275 700 280 695Q285 690 285 682V535H406Q414 535 419 530Q424 525 424 517V450Q424 443 419 437.5Q414 432 406 432Z" glyph-name="dagger" horiz-adv-x="460" unicode="&#8224;" /><glyph d="M406 182H284V18Q284 10 279 5Q274 0 266 0H193Q186 0 180.5 5.5Q175 11 175 18V182H55Q47 182 41.5 187.5Q36 193 36 200V267Q36 274 41.5 279.5Q47 285 55 285H175V415H55Q47 415 41.5 420.5Q36 426 36 433V500Q36 507 41.5 512.5Q47 518 55 518H175V682Q175 690 180.5 695Q186 700 193 700H266Q274 700 279 695Q284 690 284 682V518H406Q414 518 419 513Q424 508 424 500V433Q424 426 419 420.5Q414 415 406 415H284V285H406Q414 285 419 280Q424 275 424 267V200Q424 193 419 187.5Q414 182 406 182Z" glyph-name="daggerdbl" horiz-adv-x="460" unicode="&#8225;" /><glyph d="M589 496 630 557Q608 567 595.5 586Q583 605 583 628Q583 661 606.5 684.5Q630 708 663 708Q697 708 721 683.5Q745 659 745 623Q745 584 722 545.5Q699 507 652 469Q640 458 629 456Q618 454 608 461L597 468Q588 474 586 481.5Q584 489 589 496ZM284 376Q229 376 191.5 337Q154 298 154 241Q154 184 191.5 144.5Q229 105 284 105Q339 105 376 144.5Q413 184 413 241Q413 298 376 337Q339 376 284 376ZM265 -14Q164 -14 94 59Q24 132 24 242Q24 351 93.5 423.5Q163 496 263 496Q312 496 352.5 476.5Q393 457 412 425V680Q412 688 418.5 694Q425 700 433 700H520Q529 700 535 694Q541 688 541 680V20Q541 12 535 6Q529 0 520 0H433Q425 0 419 6Q413 12 413 20V59Q390 25 351 5.5Q312 -14 265 -14Z" glyph-name="dcaron" horiz-adv-x="645" unicode="&#271;" /><glyph d="M284 376Q229 376 191.5 337Q154 298 154 241Q154 184 191.5 144.5Q229 105 284 105Q339 105 376 144.5Q413 184 413 241Q413 298 376 337Q339 376 284 376ZM413 20V59Q390 25 351 5.5Q312 -14 265 -14Q164 -14 94 59Q24 132 24 242Q24 351 93.5 423.5Q163 496 263 496Q312 496 352.5 476.5Q393 457 412 425V541H299Q290 541 284 547.5Q278 554 278 563V604Q278 613 284 619.5Q290 626 299 626H412V680Q412 688 418.5 694Q425 700 433 700H520Q529 700 535 694Q541 688 541 680V626H586Q595 626 601 619.5Q607 613 607 604V563Q607 554 601 547.5Q595 541 586 541H541V20Q541 12 535 6Q529 0 520 0H433Q425 0 419 6Q413 12 413 20Z" glyph-name="dcroat" horiz-adv-x="589" unicode="&#273;" /><glyph d="M354 555Q354 489 306.5 442.5Q259 396 191 396Q124 396 76 442.5Q28 489 28 555Q28 621 76 667.5Q124 714 191 714Q259 714 306.5 667.5Q354 621 354 555ZM271 555Q271 590 248 614Q225 638 191 638Q157 638 134 614Q111 590 111 555Q111 520 134 496Q157 472 191 472Q225 472 248 496Q271 520 271 555Z" glyph-name="degree" horiz-adv-x="382" unicode="&#176;" /><glyph d="M314 530Q281 530 256.5 554.5Q232 579 232 612Q232 645 256.5 669.5Q281 694 314 694Q348 694 372 670Q396 646 396 612Q396 578 372 554Q348 530 314 530ZM107 530Q73 530 49 554Q25 578 25 612Q25 646 49 670Q73 694 107 694Q141 694 165 670Q189 646 189 612Q189 578 165 554Q141 530 107 530Z" glyph-name="dieresis" horiz-adv-x="422" unicode="&#168;" /><glyph d="M377 555Q377 518 351.5 492.5Q326 467 289 467Q252 467 226 492.5Q200 518 200 555Q200 592 226 617.5Q252 643 289 643Q326 643 351.5 617.5Q377 592 377 555ZM546 394V310Q546 301 539.5 294.5Q533 288 524 288H55Q46 288 39.5 294.5Q33 301 33 310V394Q33 403 39.5 409.5Q46 416 55 416H524Q533 416 539.5 409.5Q546 403 546 394ZM377 145Q377 108 351.5 82.5Q326 57 289 57Q252 57 226 82.5Q200 108 200 145Q200 182 226 207.5Q252 233 289 233Q326 233 351.5 207.5Q377 182 377 145Z" glyph-name="divide" horiz-adv-x="579" unicode="&#247;" /><glyph d="M337 -74H270Q262 -74 256 -68Q250 -62 250 -54V13Q185 20 131.5 45Q78 70 45 108Q32 120 31.5 134.5Q31 149 44 159L96 199Q107 208 117.5 206.5Q128 205 139 193Q170 158 212.5 139.5Q255 121 306 121Q359 121 391.5 143.5Q424 166 424 200Q424 231 401 251Q378 271 325 285L207 316Q129 336 88.5 381Q48 426 48 493Q48 568 103.5 621Q159 674 250 686V746Q250 754 256 760Q262 766 270 766H337Q345 766 351 760Q357 754 357 746V685Q408 678 450.5 658.5Q493 639 523 610Q536 598 537 585.5Q538 573 528 563L483 519Q474 511 462.5 512Q451 513 440 523Q409 550 371.5 564.5Q334 579 295 579Q245 579 213.5 558Q182 537 182 502Q182 476 200.5 458.5Q219 441 257 431L385 397Q474 373 517 328Q560 283 560 212Q560 138 505 83Q450 28 357 14V-54Q357 -62 351 -68Q345 -74 337 -74Z" glyph-name="dollar" horiz-adv-x="592" unicode="$" /><glyph d="M208 625Q208 588 182 561.5Q156 535 119 535Q82 535 55.5 561.5Q29 588 29 625Q29 662 55.5 688.5Q82 715 119 715Q156 715 182 688.5Q208 662 208 625Z" glyph-name="dotaccent" horiz-adv-x="238" unicode="&#729;" /><glyph d="M156 0H69Q60 0 54 6Q48 12 48 21V461Q48 470 54 476Q60 482 69 482H156Q165 482 171 476Q177 470 177 461V21Q177 12 171 6Q165 0 156 0Z" glyph-name="dotlessi" horiz-adv-x="225" unicode="&#305;" /><glyph d="M68 482H155Q164 482 170 476Q176 470 176 461V-52Q176 -135 128.5 -182.5Q81 -230 5 -230Q-35 -230 -70.5 -218Q-106 -206 -127 -185Q-134 -178 -134.5 -169Q-135 -160 -129 -151L-93 -103Q-86 -94 -76 -92.5Q-66 -91 -55 -98Q-42 -105 -29.5 -109Q-17 -113 -7 -113Q17 -113 32 -96.5Q47 -80 47 -50V461Q47 470 53 476Q59 482 68 482Z" glyph-name="dotlessj" horiz-adv-x="225" unicode="&#567;" /><glyph d="M24 239Q24 348 96.5 422Q169 496 278 496Q384 496 454 426.5Q524 357 524 255V231Q524 220 518.5 214.5Q513 209 501 209H157Q162 159 197.5 127.5Q233 96 283 96Q301 96 317 99.5Q333 103 348 111Q360 117 370.5 125.5Q381 134 392 147Q398 154 404.5 155Q411 156 418 152L489 108Q497 103 498 96Q499 89 494 82Q478 61 455.5 43Q433 25 406 12Q377 -1 346 -7.5Q315 -14 281 -14Q170 -14 97 58Q24 130 24 239ZM160 291H397Q389 337 356.5 364.5Q324 392 279 392Q235 392 202.5 364Q170 336 160 291Z" glyph-name="e" horiz-adv-x="540" unicode="e" /><glyph d="M290 731H399Q412 731 417.5 721Q423 711 417 701L329 550Q324 541 318 537.5Q312 534 304 534H246Q232 534 225.5 541.5Q219 549 222 563L264 713Q266 721 273 726Q280 731 290 731ZM24 239Q24 348 96.5 422Q169 496 278 496Q384 496 454 426.5Q524 357 524 255V231Q524 220 518.5 214.5Q513 209 501 209H157Q162 159 197.5 127.5Q233 96 283 96Q301 96 317 99.5Q333 103 348 111Q360 117 370.5 125.5Q381 134 392 147Q398 154 404.5 155Q411 156 418 152L489 108Q497 103 498 96Q499 89 494 82Q478 61 455.5 43Q433 25 406 12Q377 -1 346 -7.5Q315 -14 281 -14Q170 -14 97 58Q24 130 24 239ZM160 291H397Q389 337 356.5 364.5Q324 392 279 392Q235 392 202.5 364Q170 336 160 291Z" glyph-name="eacute" horiz-adv-x="540" unicode="&#233;" /><glyph d="M24 239Q24 348 96.5 422Q169 496 278 496Q384 496 454 426.5Q524 357 524 255V231Q524 220 518.5 214.5Q513 209 501 209H157Q162 159 197.5 127.5Q233 96 283 96Q301 96 317 99.5Q333 103 348 111Q360 117 370.5 125.5Q381 134 392 147Q398 154 404.5 155Q411 156 418 152L489 108Q497 103 498 96Q499 89 494 82Q478 61 455.5 43Q433 25 406 12Q377 -1 346 -7.5Q315 -14 281 -14Q170 -14 97 58Q24 130 24 239ZM160 291H397Q389 337 356.5 364.5Q324 392 279 392Q235 392 202.5 364Q170 336 160 291ZM212 699V688Q212 662 228 647Q244 632 270 632Q296 632 312.5 647.5Q329 663 329 688V699Q329 706 333.5 710.5Q338 715 344 715H421Q428 715 432.5 710.5Q437 706 437 699V679Q437 609 392.5 569Q348 529 270 529Q192 529 148 569Q104 609 104 679V699Q104 706 108.5 710.5Q113 715 119 715H197Q203 715 207.5 710.5Q212 706 212 699Z" glyph-name="ebreve" horiz-adv-x="540" unicode="&#277;" /><glyph d="M325 534H218Q208 534 201 539Q194 544 188 554L96 702Q89 713 94 722Q99 731 110 731H183Q192 731 197.5 728Q203 725 212 715L271 634L331 715Q338 725 344 728Q350 731 359 731H433Q443 731 448 722Q453 713 446 702L354 554Q348 544 341 539Q334 534 325 534ZM24 239Q24 348 96.5 422Q169 496 278 496Q384 496 454 426.5Q524 357 524 255V231Q524 220 518.5 214.5Q513 209 501 209H157Q162 159 197.5 127.5Q233 96 283 96Q301 96 317 99.5Q333 103 348 111Q360 117 370.5 125.5Q381 134 392 147Q398 154 404.5 155Q411 156 418 152L489 108Q497 103 498 96Q499 89 494 82Q478 61 455.5 43Q433 25 406 12Q377 -1 346 -7.5Q315 -14 281 -14Q170 -14 97 58Q24 130 24 239ZM160 291H397Q389 337 356.5 364.5Q324 392 279 392Q235 392 202.5 364Q170 336 160 291Z" glyph-name="ecaron" horiz-adv-x="540" unicode="&#283;" /><glyph d="M217 731H324Q333 731 340 726Q347 721 353 711L445 563Q452 553 447 543.5Q442 534 432 534H358Q349 534 343 537Q337 540 330 550L270 631L211 550Q202 540 196.5 537Q191 534 182 534H109Q99 534 93.5 543Q88 552 95 563L187 711Q193 722 200 726.5Q207 731 217 731ZM24 239Q24 348 96.5 422Q169 496 278 496Q384 496 454 426.5Q524 357 524 255V231Q524 220 518.5 214.5Q513 209 501 209H157Q162 159 197.5 127.5Q233 96 283 96Q301 96 317 99.5Q333 103 348 111Q360 117 370.5 125.5Q381 134 392 147Q398 154 404.5 155Q411 156 418 152L489 108Q497 103 498 96Q499 89 494 82Q478 61 455.5 43Q433 25 406 12Q377 -1 346 -7.5Q315 -14 281 -14Q170 -14 97 58Q24 130 24 239ZM160 291H397Q389 337 356.5 364.5Q324 392 279 392Q235 392 202.5 364Q170 336 160 291Z" glyph-name="ecircumflex" horiz-adv-x="540" unicode="&#234;" /><glyph d="M373 530Q340 530 315.5 554.5Q291 579 291 612Q291 645 315.5 669.5Q340 694 373 694Q407 694 431 670Q455 646 455 612Q455 578 431 554Q407 530 373 530ZM166 530Q132 530 108 554Q84 578 84 612Q84 646 108 670Q132 694 166 694Q200 694 224 670Q248 646 248 612Q248 578 224 554Q200 530 166 530ZM24 239Q24 348 96.5 422Q169 496 278 496Q384 496 454 426.5Q524 357 524 255V231Q524 220 518.5 214.5Q513 209 501 209H157Q162 159 197.5 127.5Q233 96 283 96Q301 96 317 99.5Q333 103 348 111Q360 117 370.5 125.5Q381 134 392 147Q398 154 404.5 155Q411 156 418 152L489 108Q497 103 498 96Q499 89 494 82Q478 61 455.5 43Q433 25 406 12Q377 -1 346 -7.5Q315 -14 281 -14Q170 -14 97 58Q24 130 24 239ZM160 291H397Q389 337 356.5 364.5Q324 392 279 392Q235 392 202.5 364Q170 336 160 291Z" glyph-name="edieresis" horiz-adv-x="540" unicode="&#235;" /><glyph d="M24 239Q24 348 96.5 422Q169 496 278 496Q384 496 454 426.5Q524 357 524 255V231Q524 220 518.5 214.5Q513 209 501 209H157Q162 159 197.5 127.5Q233 96 283 96Q301 96 317 99.5Q333 103 348 111Q360 117 370.5 125.5Q381 134 392 147Q398 154 404.5 155Q411 156 418 152L489 108Q497 103 498 96Q499 89 494 82Q478 61 455.5 43Q433 25 406 12Q377 -1 346 -7.5Q315 -14 281 -14Q170 -14 97 58Q24 130 24 239ZM160 291H397Q389 337 356.5 364.5Q324 392 279 392Q235 392 202.5 364Q170 336 160 291ZM368 625Q368 588 342 561.5Q316 535 279 535Q242 535 215.5 561.5Q189 588 189 625Q189 662 215.5 688.5Q242 715 279 715Q316 715 342 688.5Q368 662 368 625Z" glyph-name="edotaccent" horiz-adv-x="540" unicode="&#279;" /><glyph d="M24 239Q24 348 96.5 422Q169 496 278 496Q384 496 454 426.5Q524 357 524 255V231Q524 220 518.5 214.5Q513 209 501 209H157Q162 159 197.5 127.5Q233 96 283 96Q301 96 317 99.5Q333 103 348 111Q360 117 370.5 125.5Q381 134 392 147Q398 154 404.5 155Q411 156 418 152L489 108Q497 103 498 96Q499 89 494 82Q478 61 455.5 43Q433 25 406 12Q377 -1 346 -7.5Q315 -14 281 -14Q170 -14 97 58Q24 130 24 239ZM160 291H397Q389 337 356.5 364.5Q324 392 279 392Q235 392 202.5 364Q170 336 160 291ZM144 731H253Q263 731 269.5 726Q276 721 278 713L321 563Q324 549 317.5 541.5Q311 534 297 534H239Q231 534 225.5 537.5Q220 541 214 550L126 701Q120 711 125.5 721Q131 731 144 731Z" glyph-name="egrave" horiz-adv-x="540" unicode="&#232;" /><glyph d="M592 202Q592 107 515 46.5Q438 -14 313 -14Q188 -14 111 46.5Q34 107 34 202Q34 261 69.5 308.5Q105 356 163 377Q119 397 93 437Q67 477 67 525Q67 608 136 661Q205 714 313 714Q421 714 490 661Q559 608 559 525Q559 476 533 436.5Q507 397 463 377Q521 356 556.5 308.5Q592 261 592 202ZM194 518Q194 477 228 450Q262 423 313 423Q365 423 399 450Q433 477 433 518Q433 559 399 585.5Q365 612 313 612Q261 612 227.5 585Q194 558 194 518ZM455 206Q455 255 415 287Q375 319 313 319Q251 319 211 287Q171 255 171 206Q171 158 211 126Q251 94 313 94Q375 94 415 126Q455 158 455 206Z" glyph-name="eight" horiz-adv-x="626" unicode="8" /><glyph d="M304 101Q304 54 264.5 23.5Q225 -7 163 -7Q101 -7 61.5 23.5Q22 54 22 101Q22 130 39 154Q56 178 84 188Q63 198 50.5 217Q38 236 38 260Q38 303 73 330Q108 357 163 357Q218 357 253 330Q288 303 288 260Q288 236 275.5 217Q263 198 242 188Q270 178 287 154Q304 130 304 101ZM219 258Q219 277 203 289Q187 301 163 301Q139 301 123 289Q107 277 107 258Q107 239 123 226.5Q139 214 163 214Q187 214 203 226.5Q219 239 219 258ZM229 105Q229 127 210.5 142Q192 157 163 157Q134 157 115.5 142Q97 127 97 105Q97 82 115.5 67.5Q134 53 163 53Q192 53 210.5 67.5Q229 82 229 105Z" glyph-name="eight.dnom" horiz-adv-x="326" /><glyph d="M304 450Q304 403 264.5 372.5Q225 342 163 342Q101 342 61.5 372.5Q22 403 22 450Q22 479 39 503Q56 527 84 537Q63 547 50.5 566Q38 585 38 609Q38 652 73 679Q108 706 163 706Q218 706 253 679Q288 652 288 609Q288 585 275.5 566Q263 547 242 537Q270 527 287 503Q304 479 304 450ZM219 607Q219 626 203 638Q187 650 163 650Q139 650 123 638Q107 626 107 607Q107 588 123 575.5Q139 563 163 563Q187 563 203 575.5Q219 588 219 607ZM229 454Q229 476 210.5 491Q192 506 163 506Q134 506 115.5 491Q97 476 97 454Q97 431 115.5 416.5Q134 402 163 402Q192 402 210.5 416.5Q229 431 229 454Z" glyph-name="eight.numr" horiz-adv-x="326" /><glyph d="M592 202Q592 107 515 46.5Q438 -14 313 -14Q188 -14 111 46.5Q34 107 34 202Q34 261 69.5 308.5Q105 356 163 377Q119 397 93 437Q67 477 67 525Q67 608 136 661Q205 714 313 714Q421 714 490 661Q559 608 559 525Q559 476 533 436.5Q507 397 463 377Q521 356 556.5 308.5Q592 261 592 202ZM194 518Q194 477 228 450Q262 423 313 423Q365 423 399 450Q433 477 433 518Q433 559 399 585.5Q365 612 313 612Q261 612 227.5 585Q194 558 194 518ZM455 206Q455 255 415 287Q375 319 313 319Q251 319 211 287Q171 255 171 206Q171 158 211 126Q251 94 313 94Q375 94 415 126Q455 158 455 206Z" glyph-name="eight.onum" horiz-adv-x="626" /><glyph d="M576 202Q576 107 499 46.5Q422 -14 297 -14Q172 -14 95 46.5Q18 107 18 202Q18 261 53.5 308.5Q89 356 147 377Q103 397 77 437Q51 477 51 525Q51 608 120 661Q189 714 297 714Q405 714 474 661Q543 608 543 525Q543 476 517 436.5Q491 397 447 377Q505 356 540.5 308.5Q576 261 576 202ZM178 518Q178 477 212 450Q246 423 297 423Q349 423 383 450Q417 477 417 518Q417 559 383 585.5Q349 612 297 612Q245 612 211.5 585Q178 558 178 518ZM439 206Q439 255 399 287Q359 319 297 319Q235 319 195 287Q155 255 155 206Q155 158 195 126Q235 94 297 94Q359 94 399 126Q439 158 439 206Z" glyph-name="eight.tnum" horiz-adv-x="594" /><glyph d="M304 -46Q304 -93 264.5 -123.5Q225 -154 163 -154Q101 -154 61.5 -123.5Q22 -93 22 -46Q22 -17 39 7Q56 31 84 41Q63 51 50.5 70Q38 89 38 113Q38 156 73 183Q108 210 163 210Q218 210 253 183Q288 156 288 113Q288 89 275.5 70Q263 51 242 41Q270 31 287 7Q304 -17 304 -46ZM219 111Q219 130 203 142Q187 154 163 154Q139 154 123 142Q107 130 107 111Q107 92 123 79.5Q139 67 163 67Q187 67 203 79.5Q219 92 219 111ZM229 -42Q229 -20 210.5 -5Q192 10 163 10Q134 10 115.5 -5Q97 -20 97 -42Q97 -65 115.5 -79.5Q134 -94 163 -94Q192 -94 210.5 -79.5Q229 -65 229 -42Z" glyph-name="eightinferior" horiz-adv-x="326" unicode="&#8328;" /><glyph d="M304 600Q304 553 264.5 522.5Q225 492 163 492Q101 492 61.5 522.5Q22 553 22 600Q22 629 39 653Q56 677 84 687Q63 697 50.5 716Q38 735 38 759Q38 802 73 829Q108 856 163 856Q218 856 253 829Q288 802 288 759Q288 735 275.5 716Q263 697 242 687Q270 677 287 653Q304 629 304 600ZM219 757Q219 776 203 788Q187 800 163 800Q139 800 123 788Q107 776 107 757Q107 738 123 725.5Q139 713 163 713Q187 713 203 725.5Q219 738 219 757ZM229 604Q229 626 210.5 641Q192 656 163 656Q134 656 115.5 641Q97 626 97 604Q97 581 115.5 566.5Q134 552 163 552Q192 552 210.5 566.5Q229 581 229 604Z" glyph-name="eightsuperior" horiz-adv-x="326" unicode="&#8312;" /><glyph d="M793 74Q793 38 767 12Q741 -14 705 -14Q669 -14 643 12Q617 38 617 74Q617 111 642.5 137Q668 163 705 163Q742 163 767.5 137Q793 111 793 74ZM503 74Q503 38 477 12Q451 -14 415 -14Q378 -14 352 12Q326 38 326 74Q326 111 352 137Q378 163 415 163Q452 163 477.5 137Q503 111 503 74ZM213 74Q213 38 187 12Q161 -14 124 -14Q88 -14 62 12Q36 38 36 74Q36 111 61.5 137Q87 163 124 163Q161 163 187 137Q213 111 213 74Z" glyph-name="ellipsis" horiz-adv-x="829" unicode="&#8230;" /><glyph d="M24 239Q24 348 96.5 422Q169 496 278 496Q384 496 454 426.5Q524 357 524 255V231Q524 220 518.5 214.5Q513 209 501 209H157Q162 159 197.5 127.5Q233 96 283 96Q301 96 317 99.5Q333 103 348 111Q360 117 370.5 125.5Q381 134 392 147Q398 154 404.5 155Q411 156 418 152L489 108Q497 103 498 96Q499 89 494 82Q478 61 455.5 43Q433 25 406 12Q377 -1 346 -7.5Q315 -14 281 -14Q170 -14 97 58Q24 130 24 239ZM160 291H397Q389 337 356.5 364.5Q324 392 279 392Q235 392 202.5 364Q170 336 160 291ZM418 552H121Q112 552 106 558.5Q100 565 100 574V639Q100 648 106 654Q112 660 121 660H418Q427 660 433.5 654Q440 648 440 639V574Q440 565 433.5 558.5Q427 552 418 552Z" glyph-name="emacron" horiz-adv-x="540" unicode="&#275;" /><glyph d="M921 222H71Q62 222 56 228.5Q50 235 50 244V334Q50 343 56 349.5Q62 356 71 356H921Q930 356 936.5 349.5Q943 343 943 334V244Q943 235 936.5 228.5Q930 222 921 222Z" glyph-name="emdash" horiz-adv-x="993" unicode="&#8212;" /><glyph d="M941 222H91Q82 222 76 228.5Q70 235 70 244V334Q70 343 76 349.5Q82 356 91 356H941Q950 356 956.5 349.5Q963 343 963 334V244Q963 235 956.5 228.5Q950 222 941 222Z" glyph-name="emdash.alt" horiz-adv-x="1033" /><glyph d="M567 222H71Q62 222 56 228.5Q50 235 50 244V334Q50 343 56 349.5Q62 356 71 356H567Q576 356 582.5 349.5Q589 343 589 334V244Q589 235 582.5 228.5Q576 222 567 222Z" glyph-name="endash" horiz-adv-x="639" unicode="&#8211;" /><glyph d="M587 222H91Q82 222 76 228.5Q70 235 70 244V334Q70 343 76 349.5Q82 356 91 356H587Q596 356 602.5 349.5Q609 343 609 334V244Q609 235 602.5 228.5Q596 222 587 222Z" glyph-name="endash.alt" horiz-adv-x="679" /><glyph d="M373 -230Q333 -230 297.5 -218Q262 -206 241 -185Q234 -178 233.5 -169Q233 -160 239 -151L275 -103Q282 -94 292 -92.5Q302 -91 313 -98Q326 -105 338.5 -109Q351 -113 361 -113Q385 -113 400 -96.5Q415 -80 415 -50V252Q415 310 384 343.5Q353 377 298 377Q244 377 210.5 342.5Q177 308 177 252V19Q177 11 170.5 5.5Q164 0 156 0H68Q60 0 54 6Q48 12 48 20V461Q48 470 54 476Q60 482 68 482H156Q164 482 170.5 476Q177 470 177 463V425Q201 459 242 477.5Q283 496 335 496Q434 496 489 434Q544 372 544 264V-52Q544 -135 496.5 -182.5Q449 -230 373 -230Z" glyph-name="eng" horiz-adv-x="586" unicode="&#331;" /><glyph d="M345 -212Q290 -212 257.5 -187Q225 -162 225 -119Q225 -92 238 -65.5Q251 -39 276 -14Q166 -12 95 60Q24 132 24 239Q24 348 96.5 422Q169 496 278 496Q384 496 454 426.5Q524 357 524 255V231Q524 220 518.5 214.5Q513 209 501 209H157Q162 159 197.5 127.5Q233 96 283 96Q301 96 317 99.5Q333 103 348 111Q360 117 370.5 125.5Q381 134 392 147Q398 154 404.5 155Q411 156 418 152L489 108Q497 103 498 96Q499 89 494 82Q478 61 455.5 43Q433 25 406 12Q397 8 391 6Q385 4 383 3Q363 -28 353 -50Q343 -72 343 -85Q343 -104 354 -113.5Q365 -123 387 -123Q390 -123 398 -122.5Q406 -122 419 -120Q428 -119 432.5 -125Q437 -131 435 -143L431 -179Q429 -195 406.5 -203.5Q384 -212 345 -212ZM160 291H397Q389 337 356.5 364.5Q324 392 279 392Q235 392 202.5 364Q170 336 160 291Z" glyph-name="eogonek" horiz-adv-x="540" unicode="&#281;" /><glyph d="M543 403H75Q66 403 59.5 409Q53 415 53 424V507Q53 516 59.5 522.5Q66 529 75 529H543Q552 529 558.5 522.5Q565 516 565 507V424Q565 415 558.5 409Q552 403 543 403ZM543 171H75Q66 171 59.5 177Q53 183 53 192V275Q53 284 59.5 290.5Q66 297 75 297H543Q552 297 558.5 290.5Q565 284 565 275V192Q565 183 558.5 177Q552 171 543 171Z" glyph-name="equal" horiz-adv-x="618" unicode="=" /><glyph d="M818 344H198Q193 344 191 341.5Q189 339 189 332V160Q189 103 267 61.5Q345 20 436 20Q512 20 578 46Q644 72 691 120Q698 127 702 129Q706 131 712 131H733Q738 131 739.5 127Q741 123 738 119Q683 56 605 22.5Q527 -11 436 -11Q268 -11 154.5 94Q41 199 41 353Q41 505 154 608.5Q267 712 436 712Q611 712 719 614.5Q827 517 833 359Q833 353 828.5 348.5Q824 344 818 344ZM189 522V384Q189 379 191 377Q193 375 198 375H675Q680 375 682 377Q684 379 684 384V522Q684 598 617.5 640Q551 682 436 682Q325 682 257 639.5Q189 597 189 522Z" glyph-name="estimated" horiz-adv-x="862" unicode="&#8494;" /><glyph d="M557 266Q557 144 482.5 65Q408 -14 291 -14Q178 -14 101 60.5Q24 135 24 243Q24 346 92.5 417.5Q161 489 262 489Q296 489 329 478Q362 467 384 447Q365 474 341 504Q317 534 288 566L200 533Q190 529 183 531.5Q176 534 173 543L161 577Q157 587 160.5 594.5Q164 602 173 605L229 626Q208 647 188.5 665Q169 683 153 696Q143 706 147.5 717Q152 728 167 728L267 730Q279 730 286 727.5Q293 725 299 720Q318 704 329.5 693.5Q341 683 352 672L443 707Q452 711 459.5 708Q467 705 470 697L482 663Q486 653 482.5 645.5Q479 638 470 635L408 612Q481 526 519 438Q557 350 557 266ZM286 376Q230 376 193 337.5Q156 299 156 241Q156 183 193 144Q230 105 286 105Q342 105 379 144Q416 183 416 241Q416 299 379 337.5Q342 376 286 376Z" glyph-name="eth" horiz-adv-x="583" unicode="&#240;" /><glyph d="M207 679 205 258Q205 250 198.5 243.5Q192 237 183 237H94Q85 237 79 243Q73 249 73 258L70 679Q70 687 76.5 693.5Q83 700 92 700H185Q194 700 200.5 693.5Q207 687 207 679ZM227 74Q227 38 201 12Q175 -14 138 -14Q102 -14 76 12Q50 38 50 74Q50 111 76 137Q102 163 138 163Q175 163 201 137Q227 111 227 74Z" glyph-name="exclam" horiz-adv-x="277" unicode="!" /><glyph d="M198 224 200 -197Q200 -205 193.5 -211.5Q187 -218 178 -218H85Q76 -218 69.5 -211.5Q63 -205 63 -197L66 224Q66 233 72 239Q78 245 87 245H176Q185 245 191.5 238.5Q198 232 198 224ZM43 408Q43 444 69 470Q95 496 131 496Q168 496 194 470Q220 444 220 408Q220 371 194 345Q168 319 131 319Q95 319 69 345Q43 371 43 408Z" glyph-name="exclamdown" horiz-adv-x="263" unicode="&#161;" /><glyph d="M210 442 212 21Q212 13 205.5 6.5Q199 0 190 0H97Q88 0 81.5 6.5Q75 13 75 21L78 442Q78 451 84 457Q90 463 99 463H188Q197 463 203.5 456.5Q210 450 210 442ZM55 626Q55 662 81 688Q107 714 143 714Q180 714 206 688Q232 662 232 626Q232 589 206 563Q180 537 143 537Q107 537 81 563Q55 589 55 626Z" glyph-name="exclamdown.alt" horiz-adv-x="287" /><glyph d="M33 482H98V558Q98 636 145.5 681.5Q193 727 269 727Q305 727 342 714.5Q379 702 402 681Q409 675 409.5 665.5Q410 656 404 647L366 595Q360 585 350 584.5Q340 584 328 593Q316 601 304 605Q292 609 281 609Q257 609 242 592Q227 575 227 547V482H322Q331 482 337 476Q343 470 343 461V395Q343 387 336.5 380.5Q330 374 322 374H227V21Q227 13 221 6.5Q215 0 207 0H119Q111 0 104.5 6.5Q98 13 98 21V374H33Q24 374 18 380Q12 386 12 395V461Q12 470 18 476Q24 482 33 482Z" glyph-name="f" horiz-adv-x="350" unicode="f" /><glyph d="M227 482H344V680Q344 688 350 694Q356 700 365 700H452Q460 700 466 694Q472 688 472 680V425Q494 458 534.5 477Q575 496 623 496Q724 496 792.5 424Q861 352 861 242Q861 131 792.5 58.5Q724 -14 622 -14Q575 -14 534 4.5Q493 23 472 54V20Q472 12 466 6Q460 0 452 0H365Q356 0 350 6Q344 12 344 20V374H227V21Q227 13 221 6.5Q215 0 207 0H119Q111 0 104.5 6.5Q98 13 98 21V374H33Q24 374 18 380Q12 386 12 395V461Q12 470 18 476Q24 482 33 482H98V556Q98 623 134 661.5Q170 700 226 700H267Q282 700 290 692.5Q298 685 298 671V604Q298 593 292.5 587Q287 581 276 581H267Q247 581 237 571Q227 561 227 540ZM602 376Q547 376 510 337Q473 298 473 240Q473 183 510 144Q547 105 602 105Q657 105 694 144Q731 183 731 240Q731 298 694 337Q657 376 602 376Z" glyph-name="f_b" horiz-adv-x="886" /><glyph d="M344 374H227V21Q227 13 221 6.5Q215 0 207 0H119Q111 0 104.5 6.5Q98 13 98 21V374H33Q24 374 18 380Q12 386 12 395V461Q12 470 18 476Q24 482 33 482H98V556Q98 623 134 661.5Q170 700 226 700H267Q282 700 290 692.5Q298 685 298 671V604Q298 593 292.5 587Q287 581 276 581H267Q247 581 237 571Q227 561 227 540V482H344V558Q344 636 391.5 681.5Q439 727 514 727Q551 727 587.5 714.5Q624 702 647 681Q654 675 654.5 665.5Q655 656 649 647L612 595Q605 585 595.5 584.5Q586 584 574 593Q562 601 550 605Q538 609 527 609Q503 609 488 592.5Q473 576 473 547V482H561Q570 482 576 476Q582 470 582 461V395Q582 387 575.5 380.5Q569 374 561 374H473V21Q473 12 467 6Q461 0 452 0H365Q357 0 350.5 6.5Q344 13 344 21Z" glyph-name="f_f" horiz-adv-x="596" /><glyph d="M868 496Q970 496 1038.5 424Q1107 352 1107 242Q1107 131 1038 58.5Q969 -14 867 -14Q820 -14 779 4.5Q738 23 718 54V20Q718 12 712 6Q706 0 697 0H610Q602 0 596 6Q590 12 590 20V374H473V21Q473 12 467 6Q461 0 452 0H365Q357 0 350.5 6.5Q344 13 344 21V374H227V21Q227 13 221 6.5Q215 0 207 0H119Q111 0 104.5 6.5Q98 13 98 21V374H33Q24 374 18 380Q12 386 12 395V461Q12 470 18 476Q24 482 33 482H98V556Q98 623 134 661.5Q170 700 226 700H267Q282 700 290 692.5Q298 685 298 671V604Q298 593 292.5 587Q287 581 276 581H267Q247 581 237 571Q227 561 227 540V482H344V556Q344 623 380 661.5Q416 700 472 700H513Q528 700 535.5 692.5Q543 685 543 671V604Q543 593 537.5 587Q532 581 521 581H512Q492 581 482.5 571Q473 561 473 540V482H590V680Q590 688 596 694Q602 700 610 700H697Q705 700 711.5 694Q718 688 718 680V425Q739 457 779.5 476.5Q820 496 868 496ZM847 376Q792 376 755 337Q718 298 718 240Q718 183 755 144Q792 105 847 105Q902 105 939.5 144Q977 183 977 240Q977 297 939.5 336.5Q902 376 847 376Z" glyph-name="f_f_b" horiz-adv-x="1132" /><glyph d="M344 374H227V21Q227 13 221 6.5Q215 0 207 0H119Q111 0 104.5 6.5Q98 13 98 21V374H33Q24 374 18 380Q12 386 12 395V461Q12 470 18 476Q24 482 33 482H98V556Q98 623 134 661.5Q170 700 226 700H267Q282 700 290 692.5Q298 685 298 671V604Q298 593 292.5 587Q287 581 276 581H267Q247 581 237 571Q227 561 227 540V482H344V556Q344 623 380 661.5Q416 700 472 700H513Q528 700 535.5 692.5Q543 685 543 671V604Q543 593 537.5 587Q532 581 521 581H512Q492 581 482.5 571Q473 561 473 540V482H590V558Q590 636 637.5 681.5Q685 727 761 727Q797 727 834 714.5Q871 702 893 681Q901 675 901.5 665.5Q902 656 895 647L859 595Q852 585 842 584.5Q832 584 820 593Q808 601 796 605Q784 609 773 609Q749 609 734 592.5Q719 576 719 547V482H814Q823 482 829 476Q835 470 835 461V395Q835 387 828.5 380.5Q822 374 814 374H719V21Q719 13 713 6.5Q707 0 699 0H611Q603 0 596.5 6.5Q590 13 590 21V374H473V21Q473 12 467 6Q461 0 452 0H365Q357 0 350.5 6.5Q344 13 344 21Z" glyph-name="f_f_f" horiz-adv-x="842" /><glyph d="M473 540V482H590V680Q590 688 596 694Q602 700 610 700H698Q707 700 713 694.5Q719 689 719 681V425Q744 459 784.5 477.5Q825 496 877 496Q976 496 1031 434Q1086 372 1086 264V19Q1086 11 1080 5.5Q1074 0 1066 0H978Q970 0 963.5 5.5Q957 11 957 19V252Q957 310 926 343.5Q895 377 841 377Q786 377 752.5 342.5Q719 308 719 252V19Q719 11 713 5.5Q707 0 698 0H610Q602 0 596 6Q590 12 590 20V374H473V21Q473 12 467 6Q461 0 452 0H365Q357 0 350.5 6.5Q344 13 344 21V374H227V21Q227 13 221 6.5Q215 0 207 0H119Q111 0 104.5 6.5Q98 13 98 21V374H33Q24 374 18 380Q12 386 12 395V461Q12 470 18 476Q24 482 33 482H98V556Q98 623 134 661.5Q170 700 226 700H267Q282 700 290 692.5Q298 685 298 671V604Q298 593 292.5 587Q287 581 276 581H267Q247 581 237 571Q227 561 227 540V482H344V556Q344 623 380 661.5Q416 700 472 700H513Q528 700 535.5 692.5Q543 685 543 671V604Q543 593 537.5 587Q532 581 521 581H512Q492 581 482.5 571Q473 561 473 540Z" glyph-name="f_f_h" horiz-adv-x="1128" /><glyph d="M207 0H119Q111 0 104.5 6.5Q98 13 98 21V374H33Q24 374 18 380Q12 386 12 395V461Q12 470 18 476Q24 482 33 482H98V556Q98 623 134 661.5Q170 700 226 700H267Q282 700 290 692.5Q298 685 298 671V604Q298 593 292.5 587Q287 581 276 581H267Q247 581 237 571Q227 561 227 540V482H344V558Q344 636 391.5 681.5Q439 727 515 727Q552 727 588.5 714.5Q625 702 648 681Q655 675 655.5 665.5Q656 656 650 647L613 595Q606 586 596.5 585.5Q587 585 575 593Q563 601 551 605Q539 609 528 609Q504 609 489 592.5Q474 576 474 547V482H700Q708 482 714 476Q720 470 720 461V21Q720 13 714 6.5Q708 0 700 0H612Q604 0 597.5 6.5Q591 13 591 21V374H474V21Q474 12 468 6Q462 0 453 0H365Q357 0 350.5 6.5Q344 13 344 21V374H227V21Q227 13 221 6.5Q215 0 207 0Z" glyph-name="f_f_i" horiz-adv-x="768" unicode="&#64259;" /><glyph d="M548 -230Q508 -230 472.5 -218Q437 -206 416 -185Q409 -178 408.5 -169Q408 -160 414 -151L450 -103Q457 -94 467 -92.5Q477 -91 488 -98Q501 -105 513.5 -109Q526 -113 536 -113Q560 -113 575 -96.5Q590 -80 590 -50V374H473V21Q473 12 467 6Q461 0 452 0H365Q357 0 350.5 6.5Q344 13 344 21V374H227V21Q227 13 221 6.5Q215 0 207 0H119Q111 0 104.5 6.5Q98 13 98 21V374H33Q24 374 18 380Q12 386 12 395V461Q12 470 18 476Q24 482 33 482H98V556Q98 625 137 662.5Q176 700 246 700H267Q282 700 290 692.5Q298 685 298 671V604Q298 593 292.5 587Q287 581 276 581H267Q247 581 237 571Q227 561 227 540V482H344V558Q344 636 391.5 681.5Q439 727 515 727Q552 727 588.5 714.5Q625 702 648 681Q655 675 655.5 665.5Q656 656 650 647L613 595Q606 585 596.5 584.5Q587 584 575 593Q563 601 551 605Q539 609 528 609Q503 609 488 592.5Q473 576 473 547V482H699Q707 482 713 476Q719 470 719 461V-52Q719 -135 671.5 -182.5Q624 -230 548 -230Z" glyph-name="f_f_j" horiz-adv-x="767" /><glyph d="M227 374V21Q227 13 221 6.5Q215 0 207 0H119Q111 0 104.5 6.5Q98 13 98 21V374H33Q24 374 18 380Q12 386 12 395V461Q12 470 18 476Q24 482 33 482H98V556Q98 623 134 661.5Q170 700 226 700H267Q282 700 290 692.5Q298 685 298 671V604Q298 593 292.5 587Q287 581 276 581H267Q247 581 237 571Q227 561 227 540V482H344V556Q344 623 380 661.5Q416 700 472 700H513Q528 700 535.5 692.5Q543 685 543 671V604Q543 593 537.5 587Q532 581 521 581H512Q492 581 482.5 571Q473 561 473 540V482H590V680Q590 688 596.5 694Q603 700 611 700H699Q707 700 713 694Q719 688 719 680V308H756L878 467Q884 475 890.5 478.5Q897 482 905 482H1003Q1017 482 1021 472.5Q1025 463 1016 451L867 270L1041 32Q1049 20 1043.5 10Q1038 0 1024 0H923Q914 0 906.5 4Q899 8 893 17L759 208H719V20Q719 12 713 6Q707 0 699 0H611Q603 0 596.5 6Q590 12 590 20V374H473V21Q473 12 467 6Q461 0 452 0H365Q357 0 350.5 6.5Q344 13 344 21V374Z" glyph-name="f_f_k" horiz-adv-x="1042" /><glyph d="M474 482H591V679Q591 687 597.5 693.5Q604 700 612 700H700Q708 700 714 693.5Q720 687 720 679V145Q720 127 729.5 117Q739 107 756 107H786Q795 107 800 102Q805 97 805 88V25Q805 13 798.5 6.5Q792 0 779 0H716Q655 0 623 30.5Q591 61 591 120V374H474V21Q474 12 468 6Q462 0 453 0H365Q357 0 350.5 6.5Q344 13 344 21V374H227V21Q227 13 221 6.5Q215 0 207 0H119Q111 0 104.5 6.5Q98 13 98 21V374H33Q24 374 18 380Q12 386 12 395V461Q12 470 18 476Q24 482 33 482H98V556Q98 623 134 661.5Q170 700 226 700H267Q282 700 290 692.5Q298 685 298 671V604Q298 593 292.5 587Q287 581 276 581H267Q247 581 237 571Q227 561 227 540V482H344V556Q344 623 380 661.5Q416 700 472 700H514Q529 700 536.5 692.5Q544 685 544 671V604Q544 593 538.5 587Q533 581 522 581H513Q493 581 483.5 571Q474 561 474 540Z" glyph-name="f_f_l" horiz-adv-x="812" unicode="&#64260;" /><glyph d="M344 482V556Q344 623 380 661.5Q416 700 472 700H514Q529 700 536.5 692.5Q544 685 544 671V604Q544 593 538.5 587Q533 581 522 581H513Q493 581 483.5 571Q474 561 474 540V482H591V616Q591 625 597 631Q603 637 612 637H700Q708 637 714 631Q720 625 720 616V482H860Q869 482 875 476Q881 470 881 461V395Q881 387 874.5 380.5Q868 374 860 374H720V171Q720 141 735 125Q750 109 775 109Q786 109 798 113Q810 117 822 124Q833 131 843.5 130Q854 129 860 120L890 71Q896 62 895 53.5Q894 45 887 38Q865 15 829.5 2.5Q794 -10 752 -10Q680 -10 635.5 30.5Q591 71 591 142V374H474V21Q474 12 468 6Q462 0 453 0H365Q357 0 350.5 6.5Q344 13 344 21V374H227V21Q227 13 221 6.5Q215 0 207 0H119Q111 0 104.5 6.5Q98 13 98 21V374H33Q24 374 18 380Q12 386 12 395V461Q12 470 18 476Q24 482 33 482H98V556Q98 623 134 661.5Q170 700 226 700H267Q282 700 290 692.5Q298 685 298 671V604Q298 593 292.5 587Q287 581 276 581H267Q247 581 237 571Q227 561 227 540V482Z" glyph-name="f_f_t" horiz-adv-x="898" /><glyph d="M227 540V482H344V680Q344 688 350 694Q356 700 365 700H453Q461 700 467.5 694.5Q474 689 474 681V425Q498 459 538.5 477.5Q579 496 631 496Q730 496 785.5 434Q841 372 841 264V19Q841 11 835 5.5Q829 0 820 0H733Q724 0 718 5.5Q712 11 712 19V252Q712 310 681 343.5Q650 377 595 377Q540 377 507 342.5Q474 308 474 252V19Q474 11 467.5 5.5Q461 0 453 0H365Q356 0 350 6Q344 12 344 20V374H227V21Q227 13 221 6.5Q215 0 207 0H119Q111 0 104.5 6.5Q98 13 98 21V374H33Q24 374 18 380Q12 386 12 395V461Q12 470 18 476Q24 482 33 482H98V556Q98 625 137 662.5Q176 700 246 700H267Q282 700 290 692.5Q298 685 298 671V604Q298 593 292.5 587Q287 581 276 581H267Q247 581 237 571Q227 561 227 540Z" glyph-name="f_h" horiz-adv-x="883" /><glyph d="M303 -230Q263 -230 227.5 -218Q192 -206 171 -185Q164 -178 163.5 -169Q163 -160 169 -151L205 -103Q212 -94 222 -92.5Q232 -91 243 -98Q256 -105 268.5 -109Q281 -113 291 -113Q315 -113 330 -96.5Q345 -80 345 -50V374H227V21Q227 13 221 6.5Q215 0 207 0H119Q111 0 104.5 6.5Q98 13 98 21V374H33Q24 374 18 380Q12 386 12 395V461Q12 470 18 476Q24 482 33 482H98V558Q98 636 145.5 681.5Q193 727 269 727Q305 727 342 714.5Q379 702 402 681Q409 675 409.5 665.5Q410 656 404 647L367 595Q360 585 350 584.5Q340 584 328 593Q316 601 304 605Q292 609 281 609Q257 609 242 592Q227 575 227 547V482H453Q462 482 468 476Q474 470 474 461V-52Q474 -135 426.5 -182.5Q379 -230 303 -230Z" glyph-name="f_j" horiz-adv-x="522" /><glyph d="M227 374V21Q227 13 221 6.5Q215 0 207 0H119Q111 0 104.5 6.5Q98 13 98 21V374H33Q24 374 18 380Q12 386 12 395V461Q12 470 18 476Q24 482 33 482H98V556Q98 623 134 661.5Q170 700 226 700H267Q282 700 290 692.5Q298 685 298 671V604Q298 593 292.5 587Q287 581 276 581H267Q247 581 237 571Q227 561 227 540V482H344V680Q344 688 350.5 694Q357 700 365 700H453Q462 700 468 694Q474 688 474 680V308H510L632 467Q638 475 644.5 478.5Q651 482 659 482H757Q771 482 775 472.5Q779 463 770 451L621 270L795 32Q803 20 797.5 10Q792 0 778 0H677Q668 0 660.5 4Q653 8 647 17L513 208H474V20Q474 12 468 6Q462 0 453 0H365Q357 0 350.5 6Q344 12 344 20V374Z" glyph-name="f_k" horiz-adv-x="796" /><glyph d="M98 21V374H33Q24 374 18 380Q12 386 12 395V461Q12 470 18 476Q24 482 33 482H98V556Q98 625 137 662.5Q176 700 246 700H267Q282 700 290 692.5Q298 685 298 671V604Q298 593 292.5 587Q287 581 276 581H267Q247 581 237 571Q227 561 227 540V482H352V616Q352 625 358 631Q364 637 373 637H461Q469 637 475 631Q481 625 481 616V482H621Q630 482 636 476Q642 470 642 461V395Q642 386 636 380Q630 374 621 374H481V171Q481 141 496 125Q511 109 536 109Q547 109 559 113Q571 117 583 124Q594 131 604.5 130Q615 129 621 120L651 71Q657 62 656 53.5Q655 45 648 38Q626 15 590.5 2.5Q555 -10 513 -10Q441 -10 396.5 30.5Q352 71 352 142V374H227V21Q227 13 221 6.5Q215 0 207 0H119Q111 0 104.5 6.5Q98 13 98 21Z" glyph-name="f_t" horiz-adv-x="659" /><glyph d="M344 374H227V21Q227 13 221 6.5Q215 0 207 0H119Q111 0 104.5 6.5Q98 13 98 21V374H33Q24 374 18 379Q12 384 12 392V461Q12 470 18 476Q24 482 33 482H98V558Q98 636 145.5 681.5Q193 727 269 727Q305 727 342 714.5Q379 702 402 681Q409 675 409.5 665.5Q410 656 404 647L367 595Q360 585 350 584.5Q340 584 328 593Q316 601 304 605Q292 609 281 609Q257 609 242 592Q227 575 227 547V482H453Q462 482 468 476Q474 470 474 461V21Q474 12 468 6Q462 0 453 0H365Q357 0 350.5 6.5Q344 13 344 21Z" glyph-name="fi" horiz-adv-x="522" unicode="&#64257;" /><glyph d="M775 0H105Q99 0 94.5 4.5Q90 9 90 15V685Q90 691 94.5 695.5Q99 700 105 700H775Q781 700 785.5 695.5Q790 691 790 685V15Q790 9 785.5 4.5Q781 0 775 0Z" glyph-name="filledbox" horiz-adv-x="880" unicode="&#9632;" /><glyph d="M551 233Q551 128 474 57Q397 -14 278 -14Q196 -14 130 17.5Q64 49 29 104Q22 113 24.5 123.5Q27 134 37 142L85 181Q96 190 108.5 188.5Q121 187 129 177Q165 136 199 119Q233 102 277 102Q337 102 377.5 138.5Q418 175 418 229Q418 283 380 317Q342 351 284 351Q254 351 226 340.5Q198 330 174 310Q168 305 162 303.5Q156 302 148 304L71 321Q63 323 58.5 328.5Q54 334 55 342L79 678Q80 687 86 693.5Q92 700 101 700H491Q500 700 506.5 693.5Q513 687 513 678V602Q513 593 506.5 586.5Q500 580 491 580H183L170 418Q201 439 237 449.5Q273 460 313 460Q415 460 483 396.5Q551 333 551 233Z" glyph-name="five" horiz-adv-x="577" unicode="5" /><glyph d="M285 117Q285 64 246 28.5Q207 -7 147 -7Q104 -7 70 9Q36 25 18 53Q15 57 17 63Q19 69 24 73L54 95Q60 99 65.5 98.5Q71 98 76 91Q90 74 107.5 65.5Q125 57 146 57Q174 57 192.5 73.5Q211 90 211 115Q211 141 193.5 156.5Q176 172 149 172Q136 172 122 167Q108 162 98 154Q94 152 91 151Q88 150 84 151L43 160Q37 162 35 164.5Q33 167 34 172L46 339Q47 344 50.5 347.5Q54 351 59 351H253Q258 351 261 347.5Q264 344 264 339V297Q264 292 260.5 288.5Q257 285 253 285H102L97 213Q113 223 130 227.5Q147 232 166 232Q217 232 251 200Q285 168 285 117Z" glyph-name="five.dnom" horiz-adv-x="303" /><glyph d="M285 466Q285 413 246 377.5Q207 342 147 342Q104 342 70 358Q36 374 18 402Q15 406 17 412Q19 418 24 422L54 444Q60 448 65.5 447.5Q71 447 76 440Q90 423 107.5 414.5Q125 406 146 406Q174 406 192.5 422.5Q211 439 211 464Q211 490 193.5 505.5Q176 521 149 521Q136 521 122 516Q108 511 98 503Q94 501 91 500Q88 499 84 500L43 509Q37 511 35 513.5Q33 516 34 521L46 688Q47 693 50.5 696.5Q54 700 59 700H253Q258 700 261 696.5Q264 693 264 688V646Q264 641 260.5 637.5Q257 634 253 634H102L97 562Q113 572 130 576.5Q147 581 166 581Q217 581 251 549Q285 517 285 466Z" glyph-name="five.numr" horiz-adv-x="303" /><glyph d="M545 61Q545 -44 468 -115Q391 -186 272 -186Q190 -186 124 -154.5Q58 -123 23 -68Q16 -59 18.5 -48.5Q21 -38 31 -30L79 9Q90 18 102.5 16.5Q115 15 123 5Q159 -36 193 -53Q227 -70 271 -70Q331 -70 371.5 -33.5Q412 3 412 57Q412 111 374 145Q336 179 278 179Q248 179 220 168.5Q192 158 168 138Q162 133 156 131.5Q150 130 142 132L65 149Q57 151 52.5 156.5Q48 162 49 170L73 506Q74 515 80 521.5Q86 528 95 528H485Q494 528 500.5 521.5Q507 515 507 506V430Q507 421 500.5 414.5Q494 408 485 408H177L164 246Q195 267 231 277.5Q267 288 307 288Q409 288 477 224.5Q545 161 545 61Z" glyph-name="five.onum" horiz-adv-x="566" /><glyph d="M559 233Q559 128 482 57Q405 -14 286 -14Q204 -14 138 17.5Q72 49 37 104Q30 113 32.5 123.5Q35 134 45 142L93 181Q104 190 116.5 188.5Q129 187 137 177Q173 136 207 119Q241 102 285 102Q345 102 385.5 138.5Q426 175 426 229Q426 283 388 317Q350 351 292 351Q262 351 234 340.5Q206 330 182 310Q176 305 170 303.5Q164 302 156 304L79 321Q71 323 66.5 328.5Q62 334 63 342L87 678Q88 687 94 693.5Q100 700 109 700H499Q508 700 514.5 693.5Q521 687 521 678V602Q521 593 514.5 586.5Q508 580 499 580H191L178 418Q209 439 245 449.5Q281 460 321 460Q423 460 491 396.5Q559 333 559 233Z" glyph-name="five.tnum" horiz-adv-x="594" /><glyph d="M289 0H271Q260 0 255.5 7.5Q251 15 256 24L477 479Q482 488 488.5 491.5Q495 495 505 495H523Q534 495 538.5 487.5Q543 480 538 471L317 16Q313 8 306.5 4Q300 0 289 0ZM777 101Q777 54 737.5 23.5Q698 -7 636 -7Q574 -7 534.5 23.5Q495 54 495 101Q495 130 512 154Q529 178 557 188Q536 198 523.5 217Q511 236 511 260Q511 303 546 330Q581 357 636 357Q691 357 726 330Q761 303 761 260Q761 236 748.5 217Q736 198 715 188Q743 178 760 154Q777 130 777 101ZM692 258Q692 277 676 289Q660 301 636 301Q612 301 596 289Q580 277 580 258Q580 239 596 226.5Q612 214 636 214Q660 214 676 226.5Q692 239 692 258ZM702 105Q702 127 683.5 142Q665 157 636 157Q607 157 588.5 142Q570 127 570 105Q570 82 588.5 67.5Q607 53 636 53Q665 53 683.5 67.5Q702 82 702 105ZM294 261Q294 208 255 172.5Q216 137 156 137Q113 137 79 153Q45 169 27 197Q24 201 26 207Q28 213 33 217L63 239Q69 243 74.5 242.5Q80 242 85 235Q99 218 116.5 209.5Q134 201 155 201Q183 201 201.5 217.5Q220 234 220 259Q220 285 202.5 300.5Q185 316 158 316Q145 316 131 311Q117 306 107 298Q103 296 100 295Q97 294 93 295L52 304Q46 306 44 308.5Q42 311 43 316L55 483Q56 488 59.5 491.5Q63 495 68 495H262Q267 495 270 491.5Q273 488 273 483V441Q273 436 269.5 432.5Q266 429 262 429H111L106 357Q122 367 139 371.5Q156 376 175 376Q226 376 260 344Q294 312 294 261Z" glyph-name="fiveeights" horiz-adv-x="803" unicode="&#8541;" /><glyph d="M710 101Q710 54 670.5 23.5Q631 -7 569 -7Q507 -7 467.5 23.5Q428 54 428 101Q428 130 445 154Q462 178 490 188Q469 198 456.5 217Q444 236 444 260Q444 303 479 330Q514 357 569 357Q624 357 659 330Q694 303 694 260Q694 236 681.5 217Q669 198 648 188Q676 178 693 154Q710 130 710 101ZM625 258Q625 277 609 289Q593 301 569 301Q545 301 529 289Q513 277 513 258Q513 239 529 226.5Q545 214 569 214Q593 214 609 226.5Q625 239 625 258ZM635 105Q635 127 616.5 142Q598 157 569 157Q540 157 521.5 142Q503 127 503 105Q503 82 521.5 67.5Q540 53 569 53Q598 53 616.5 67.5Q635 82 635 105ZM298 466Q298 413 259 377.5Q220 342 160 342Q117 342 83 358Q49 374 31 402Q28 406 30 412Q32 418 37 422L67 444Q73 448 78.5 447.5Q84 447 89 440Q103 423 120.5 414.5Q138 406 159 406Q187 406 205.5 422.5Q224 439 224 464Q224 490 206.5 505.5Q189 521 162 521Q149 521 135 516Q121 511 111 503Q107 501 104 500Q101 499 97 500L56 509Q50 511 48 513.5Q46 516 47 521L59 688Q60 693 63.5 696.5Q67 700 72 700H266Q271 700 274 696.5Q277 693 277 688V646Q277 641 273.5 637.5Q270 634 266 634H115L110 562Q126 572 143 576.5Q160 581 179 581Q230 581 264 549Q298 517 298 466ZM617 667 167 18Q160 6 153 2.5Q146 -1 136 -1H118Q104 -1 99 9Q94 19 102 31L552 680Q559 692 566 695.5Q573 699 583 699H601Q615 699 620 689Q625 679 617 667Z" glyph-name="fiveeights.alt" horiz-adv-x="740" /><glyph d="M285 -33Q285 -86 246 -121.5Q207 -157 147 -157Q104 -157 70 -141Q36 -125 18 -97Q15 -93 17 -87Q19 -81 24 -77L54 -55Q60 -51 65.5 -51.5Q71 -52 76 -59Q90 -76 107.5 -84.5Q125 -93 146 -93Q174 -93 192.5 -76.5Q211 -60 211 -35Q211 -9 193.5 6.5Q176 22 149 22Q136 22 122 17Q108 12 98 4Q94 2 91 1Q88 0 84 1L43 10Q37 12 35 14.5Q33 17 34 22L46 189Q47 194 50.5 197.5Q54 201 59 201H253Q258 201 261 197.5Q264 194 264 189V147Q264 142 260.5 138.5Q257 135 253 135H102L97 63Q113 73 130 77.5Q147 82 166 82Q217 82 251 50Q285 18 285 -33Z" glyph-name="fiveinferior" horiz-adv-x="303" unicode="&#8325;" /><glyph d="M285 616Q285 563 246 527.5Q207 492 147 492Q104 492 70 508Q36 524 18 552Q15 556 17 562Q19 568 24 572L54 594Q60 598 65.5 597.5Q71 597 76 590Q90 573 107.5 564.5Q125 556 146 556Q174 556 192.5 572.5Q211 589 211 614Q211 640 193.5 655.5Q176 671 149 671Q136 671 122 666Q108 661 98 653Q94 651 91 650Q88 649 84 650L43 659Q37 661 35 663.5Q33 666 34 671L46 838Q47 843 50.5 846.5Q54 850 59 850H253Q258 850 261 846.5Q264 843 264 838V796Q264 791 260.5 787.5Q257 784 253 784H102L97 712Q113 722 130 726.5Q147 731 166 731Q217 731 251 699Q285 667 285 616Z" glyph-name="fivesuperior" horiz-adv-x="303" unicode="&#8309;" /><glyph d="M227 482H344V679Q344 687 350.5 693.5Q357 700 365 700H453Q462 700 468 694Q474 688 474 679V145Q474 127 483.5 117Q493 107 510 107H539Q548 107 553.5 102Q559 97 559 88V25Q559 13 552 6.5Q545 0 533 0H469Q408 0 376 31Q344 62 344 120V374H227V21Q227 13 221 6.5Q215 0 207 0H119Q111 0 104.5 6.5Q98 13 98 21V374H33Q24 374 18 380Q12 386 12 395V461Q12 470 18 476Q24 482 33 482H98V556Q98 623 134 661.5Q170 700 226 700H267Q282 700 290 692.5Q298 685 298 671V604Q298 593 292.5 587Q287 581 276 581H267Q247 581 237 571Q227 561 227 540Z" glyph-name="fl" horiz-adv-x="567" unicode="&#64258;" /><glyph d="M150 359V558Q150 636 197.5 681.5Q245 727 321 727Q357 727 394 714.5Q431 702 454 681Q461 675 461.5 665.5Q462 656 456 647L419 595Q412 586 402 585.5Q392 585 380 593Q368 601 356 605Q344 609 334 609Q309 609 294 592.5Q279 576 279 547V359H374Q383 359 389 353Q395 347 395 338V272Q395 264 388.5 257.5Q382 251 374 251H279V-50Q279 -127 231.5 -172.5Q184 -218 109 -218Q72 -218 35 -205.5Q-2 -193 -24 -173Q-32 -166 -32.5 -156.5Q-33 -147 -26 -139L10 -86Q17 -77 27 -76.5Q37 -76 49 -85Q61 -93 73 -97Q85 -101 96 -101Q120 -101 135 -84Q150 -67 150 -38V251H70Q61 251 55 257Q49 263 49 272V338Q49 347 55 353Q61 359 70 359Z" glyph-name="florin" horiz-adv-x="475" unicode="&#402;" /><glyph d="M343 22V188H36Q27 188 20.5 194.5Q14 201 14 210V277Q14 294 17 305Q20 316 27 327L296 683Q302 691 310 695.5Q318 700 327 700H452Q461 700 467.5 694Q474 688 474 679V294H548Q557 294 563.5 287.5Q570 281 570 272V210Q570 201 563.5 194.5Q557 188 548 188H474V22Q474 13 467.5 6.5Q461 0 452 0H365Q356 0 349.5 6.5Q343 13 343 22ZM343 572 133 294H343Z" glyph-name="four" horiz-adv-x="593" unicode="4" /><glyph d="M241 0H194Q189 0 185 3.5Q181 7 181 12V88H23Q19 88 15 92Q11 96 11 100V136Q11 147 12.5 152.5Q14 158 18 163L151 341Q154 346 158.5 348.5Q163 351 168 351H241Q246 351 250 347Q254 343 254 339V146H301Q306 146 309 142.5Q312 139 312 134V100Q312 95 308.5 91.5Q305 88 301 88H254V12Q254 8 250 4Q246 0 241 0ZM181 278 82 146H181Z" glyph-name="four.dnom" horiz-adv-x="324" /><glyph d="M241 349H194Q189 349 185 352.5Q181 356 181 361V437H23Q19 437 15 441Q11 445 11 449V485Q11 496 12.5 501.5Q14 507 18 512L151 690Q154 695 158.5 697.5Q163 700 168 700H241Q246 700 250 696Q254 692 254 688V495H301Q306 495 309 491.5Q312 488 312 483V449Q312 444 308.5 440.5Q305 437 301 437H254V361Q254 357 250 353Q246 349 241 349ZM181 627 82 495H181Z" glyph-name="four.numr" horiz-adv-x="324" /><glyph d="M351 -150V16H44Q35 16 28.5 22.5Q22 29 22 38V105Q22 122 25 133Q28 144 35 155L304 511Q310 519 318 523.5Q326 528 335 528H460Q469 528 475.5 522Q482 516 482 507V122H556Q565 122 571.5 115.5Q578 109 578 100V38Q578 29 571.5 22.5Q565 16 556 16H482V-150Q482 -159 475.5 -165.5Q469 -172 460 -172H373Q364 -172 357.5 -165.5Q351 -159 351 -150ZM351 400 141 122H351Z" glyph-name="four.onum" horiz-adv-x="596" /><glyph d="M347 22V188H40Q31 188 24.5 194.5Q18 201 18 210V277Q18 294 21 305Q24 316 31 327L300 683Q306 691 314 695.5Q322 700 331 700H456Q465 700 471.5 694Q478 688 478 679V294H552Q561 294 567.5 287.5Q574 281 574 272V210Q574 201 567.5 194.5Q561 188 552 188H478V22Q478 13 471.5 6.5Q465 0 456 0H369Q360 0 353.5 6.5Q347 13 347 22ZM347 572 137 294H347Z" glyph-name="four.tnum" horiz-adv-x="594" /><glyph d="M241 -150H194Q189 -150 185 -146.5Q181 -143 181 -138V-62H23Q19 -62 15 -58Q11 -54 11 -50V-14Q11 -3 12.5 2.5Q14 8 18 13L151 191Q154 196 158.5 198.5Q163 201 168 201H241Q246 201 250 197Q254 193 254 189V-4H301Q306 -4 309 -7.5Q312 -11 312 -16V-50Q312 -55 308.5 -58.5Q305 -62 301 -62H254V-138Q254 -142 250 -146Q246 -150 241 -150ZM181 128 82 -4H181Z" glyph-name="fourinferior" horiz-adv-x="324" unicode="&#8324;" /><glyph d="M241 499H194Q189 499 185 502.5Q181 506 181 511V587H23Q19 587 15 591Q11 595 11 599V635Q11 646 12.5 651.5Q14 657 18 662L151 840Q154 845 158.5 847.5Q163 850 168 850H241Q246 850 250 846Q254 842 254 838V645H301Q306 645 309 641.5Q312 638 312 633V599Q312 594 308.5 590.5Q305 587 301 587H254V511Q254 507 250 503Q246 499 241 499ZM181 777 82 645H181Z" glyph-name="foursuperior" horiz-adv-x="324" unicode="&#8308;" /><glyph d="M319 668 -131 19Q-138 7 -145 3.5Q-152 0 -162 0H-180Q-194 0 -199 10Q-204 20 -196 32L254 681Q261 693 268 696.5Q275 700 285 700H303Q317 700 322 690Q327 680 319 668Z" glyph-name="fraction" horiz-adv-x="126" unicode="&#8260;" /><glyph d="M319 668 -131 19Q-138 7 -145 3.5Q-152 0 -162 0H-180Q-194 0 -199 10Q-204 20 -196 32L254 681Q261 693 268 696.5Q275 700 285 700H303Q317 700 322 690Q327 680 319 668Z" glyph-name="fraction.01" horiz-adv-x="126" unicode="&#57357;" /><glyph d="M-16 0H-34Q-45 0 -49.5 7.5Q-54 15 -49 24L172 479Q177 488 183.5 491.5Q190 495 200 495H218Q229 495 233.5 487.5Q238 480 233 471L12 16Q8 8 1.5 4Q-5 0 -16 0Z" glyph-name="fraction.02" horiz-adv-x="187" /><glyph d="M284 377Q229 377 192 339Q155 301 155 244Q155 187 192 149Q229 111 284 111Q339 111 376 149Q413 187 413 244Q413 301 376 339Q339 377 284 377ZM165 -45Q174 -78 206.5 -98.5Q239 -119 286 -119Q347 -119 380.5 -87Q414 -55 414 1V65Q395 34 355.5 15Q316 -4 268 -4Q163 -4 94 65.5Q25 135 25 245Q25 355 93.5 425.5Q162 496 263 496Q312 496 353 475.5Q394 455 414 422V461Q414 469 420 475Q426 481 434 481H521Q530 481 536 475Q542 469 542 461V-3Q542 -106 471.5 -168Q401 -230 283 -230Q187 -230 121.5 -190Q56 -150 39 -81Q37 -74 40 -68Q43 -62 49 -61L142 -36Q150 -34 156 -36.5Q162 -39 165 -45Z" glyph-name="g" horiz-adv-x="590" unicode="g" /><glyph d="M284 377Q229 377 192 339Q155 301 155 244Q155 187 192 149Q229 111 284 111Q339 111 376 149Q413 187 413 244Q413 301 376 339Q339 377 284 377ZM165 -45Q174 -78 206.5 -98.5Q239 -119 286 -119Q347 -119 380.5 -87Q414 -55 414 1V65Q395 34 355.5 15Q316 -4 268 -4Q163 -4 94 65.5Q25 135 25 245Q25 355 93.5 425.5Q162 496 263 496Q312 496 353 475.5Q394 455 414 422V461Q414 469 420 475Q426 481 434 481H521Q530 481 536 475Q542 469 542 461V-3Q542 -106 471.5 -168Q401 -230 283 -230Q187 -230 121.5 -190Q56 -150 39 -81Q37 -74 40 -68Q43 -62 49 -61L142 -36Q150 -34 156 -36.5Q162 -39 165 -45ZM230 699V688Q230 662 246 647Q262 632 288 632Q314 632 330.5 647.5Q347 663 347 688V699Q347 706 351.5 710.5Q356 715 362 715H439Q446 715 450.5 710.5Q455 706 455 699V679Q455 609 410.5 569Q366 529 288 529Q210 529 166 569Q122 609 122 679V699Q122 706 126.5 710.5Q131 715 137 715H215Q221 715 225.5 710.5Q230 706 230 699Z" glyph-name="gbreve" horiz-adv-x="590" unicode="&#287;" /><glyph d="M235 731H342Q351 731 358 726Q365 721 371 711L463 563Q470 553 465 543.5Q460 534 450 534H376Q367 534 361 537Q355 540 348 550L288 631L229 550Q220 540 214.5 537Q209 534 200 534H127Q117 534 111.5 543Q106 552 113 563L205 711Q211 722 218 726.5Q225 731 235 731ZM284 377Q229 377 192 339Q155 301 155 244Q155 187 192 149Q229 111 284 111Q339 111 376 149Q413 187 413 244Q413 301 376 339Q339 377 284 377ZM165 -45Q174 -78 206.5 -98.5Q239 -119 286 -119Q347 -119 380.5 -87Q414 -55 414 1V65Q395 34 355.5 15Q316 -4 268 -4Q163 -4 94 65.5Q25 135 25 245Q25 355 93.5 425.5Q162 496 263 496Q312 496 353 475.5Q394 455 414 422V461Q414 469 420 475Q426 481 434 481H521Q530 481 536 475Q542 469 542 461V-3Q542 -106 471.5 -168Q401 -230 283 -230Q187 -230 121.5 -190Q56 -150 39 -81Q37 -74 40 -68Q43 -62 49 -61L142 -36Q150 -34 156 -36.5Q162 -39 165 -45Z" glyph-name="gcircumflex" horiz-adv-x="590" unicode="&#285;" /><glyph d="M368 780 318 710Q342 699 356 677.5Q370 656 370 631Q370 594 344 568Q318 542 281 542Q243 542 216.5 569Q190 596 190 637Q190 680 217 723.5Q244 767 298 810Q313 822 325.5 824Q338 826 348 819L361 811Q371 805 372.5 796.5Q374 788 368 780ZM284 377Q229 377 192 339Q155 301 155 244Q155 187 192 149Q229 111 284 111Q339 111 376 149Q413 187 413 244Q413 301 376 339Q339 377 284 377ZM165 -45Q174 -78 206.5 -98.5Q239 -119 286 -119Q347 -119 380.5 -87Q414 -55 414 1V65Q395 34 355.5 15Q316 -4 268 -4Q163 -4 94 65.5Q25 135 25 245Q25 355 93.5 425.5Q162 496 263 496Q312 496 353 475.5Q394 455 414 422V461Q414 469 420 475Q426 481 434 481H521Q530 481 536 475Q542 469 542 461V-3Q542 -106 471.5 -168Q401 -230 283 -230Q187 -230 121.5 -190Q56 -150 39 -81Q37 -74 40 -68Q43 -62 49 -61L142 -36Q150 -34 156 -36.5Q162 -39 165 -45Z" glyph-name="gcommaaccent" horiz-adv-x="590" unicode="&#291;" /><glyph d="M284 377Q229 377 192 339Q155 301 155 244Q155 187 192 149Q229 111 284 111Q339 111 376 149Q413 187 413 244Q413 301 376 339Q339 377 284 377ZM165 -45Q174 -78 206.5 -98.5Q239 -119 286 -119Q347 -119 380.5 -87Q414 -55 414 1V65Q395 34 355.5 15Q316 -4 268 -4Q163 -4 94 65.5Q25 135 25 245Q25 355 93.5 425.5Q162 496 263 496Q312 496 353 475.5Q394 455 414 422V461Q414 469 420 475Q426 481 434 481H521Q530 481 536 475Q542 469 542 461V-3Q542 -106 471.5 -168Q401 -230 283 -230Q187 -230 121.5 -190Q56 -150 39 -81Q37 -74 40 -68Q43 -62 49 -61L142 -36Q150 -34 156 -36.5Q162 -39 165 -45ZM370 629Q370 592 344 565.5Q318 539 281 539Q244 539 217.5 565.5Q191 592 191 629Q191 666 217.5 692.5Q244 719 281 719Q318 719 344 692.5Q370 666 370 629Z" glyph-name="gdotaccent" horiz-adv-x="590" unicode="&#289;" /><glyph d="M48 21V485Q48 597 111.5 662Q175 727 282 727Q376 727 435 676Q494 625 494 549Q494 517 481.5 484Q469 451 433 401Q416 377 411.5 367.5Q407 358 407 352Q407 345 414 335.5Q421 326 445 302Q498 250 517 214Q536 178 536 140Q536 72 485.5 29Q435 -14 351 -14Q334 -14 309.5 -11.5Q285 -9 270 -5Q259 -3 254 4Q249 11 251 20L269 89Q271 96 275.5 99Q280 102 286 100Q304 97 316 95.5Q328 94 333 94Q362 94 379 108.5Q396 123 396 147Q396 160 385.5 175.5Q375 191 341 226Q297 269 283 292Q269 315 269 336Q269 353 278.5 375Q288 397 319 441Q348 482 356.5 501Q365 520 365 534Q365 566 341 589Q317 612 278 612Q232 612 204.5 578Q177 544 177 487V21Q177 13 171 6.5Q165 0 157 0H69Q60 0 54 6Q48 12 48 21Z" glyph-name="germandbls" horiz-adv-x="558" unicode="&#223;" /><glyph d="M56 731H165Q175 731 181.5 726Q188 721 190 713L233 563Q236 549 229.5 541.5Q223 534 209 534H151Q143 534 137.5 537.5Q132 541 126 550L38 701Q32 711 37.5 721Q43 731 56 731Z" glyph-name="grave" horiz-adv-x="263" unicode="`" /><glyph d="M63 104V198Q63 207 68.5 214Q74 221 90 229L355 345L90 462Q75 468 69 475Q63 482 63 492V586Q63 602 74.5 607.5Q86 613 100 606L525 400Q539 393 545.5 379.5Q552 366 552 346Q552 325 545 311.5Q538 298 524 291L100 85Q86 77 74.5 82.5Q63 88 63 104Z" glyph-name="greater" horiz-adv-x="581" unicode="&gt;" /><glyph d="M692 619 889 368Q894 361 894 351Q894 341 889 333L692 81Q687 74 678.5 70Q670 66 660 66H560Q549 66 546 75Q543 84 552 96L704 287H96Q87 287 80.5 293.5Q74 300 74 309V392Q74 401 81 407.5Q88 414 97 414H704L552 605Q543 617 546.5 626Q550 635 560 635H660Q670 635 678.5 630.5Q687 626 692 619Z" glyph-name="greater.alt" horiz-adv-x="960" /><glyph d="M54 211V305Q54 314 59.5 321Q65 328 81 336L346 452L81 568Q66 576 60 583Q54 590 54 599V693Q54 709 65.5 714.5Q77 720 91 712L516 507Q530 500 536.5 487.5Q543 475 543 453Q543 431 536 418Q529 405 515 398L91 192Q77 184 65.5 189.5Q54 195 54 211ZM519 0H76Q67 0 61 6.5Q55 13 55 22V105Q55 114 61 120Q67 126 76 126H519Q528 126 534.5 120Q541 114 541 105V22Q541 13 534.5 6.5Q528 0 519 0Z" glyph-name="greaterequal" horiz-adv-x="581" unicode="&#8805;" /><glyph d="M477 13H391Q380 13 373 17Q366 21 361 30L249 229Q245 236 245 245Q245 254 249 261L361 460Q366 469 373 473Q380 477 391 477H477Q486 477 490 468.5Q494 460 490 451L387 244L490 39Q494 30 490 21.5Q486 13 477 13ZM261 13H175Q164 13 157 17Q150 21 145 30L33 229Q29 236 29 245Q29 254 33 261L145 460Q150 469 157 473Q164 477 175 477H261Q270 477 274 468.5Q278 460 274 451L171 244L274 39Q278 30 274 21.5Q270 13 261 13Z" glyph-name="guillemotleft" horiz-adv-x="527" unicode="&#171;" /><glyph d="M486 113H400Q389 113 382 117Q375 121 370 130L258 329Q254 336 254 345Q254 354 258 361L370 560Q375 569 382 573Q389 577 400 577H486Q495 577 499 568.5Q503 560 499 551L396 344L499 139Q503 130 499 121.5Q495 113 486 113ZM270 113H184Q173 113 166 117Q159 121 154 130L42 329Q38 336 38 345Q38 354 42 361L154 560Q159 569 166 573Q173 577 184 577H270Q279 577 283 568.5Q287 560 283 551L180 344L283 139Q287 130 283 121.5Q279 113 270 113Z" glyph-name="guillemotleft.alt" horiz-adv-x="551" /><glyph d="M278 229 166 30Q161 21 154 17Q147 13 136 13H50Q41 13 37 21.5Q33 30 37 39L139 244L37 451Q32 460 36.5 468.5Q41 477 50 477H136Q147 477 154 473Q161 469 166 460L278 261Q282 254 282 245Q282 236 278 229ZM494 229 382 30Q377 21 370 17Q363 13 352 13H266Q257 13 253 21.5Q249 30 253 39L355 244L253 451Q248 460 252.5 468.5Q257 477 266 477H352Q363 477 370 473Q377 469 382 460L494 261Q498 254 498 245Q498 236 494 229Z" glyph-name="guillemotright" horiz-adv-x="527" unicode="&#187;" /><glyph d="M293 329 181 130Q176 121 169 117Q162 113 151 113H65Q56 113 52 121.5Q48 130 52 139L154 344L52 551Q47 560 51.5 568.5Q56 577 65 577H151Q162 577 169 573Q176 569 181 560L293 361Q297 354 297 345Q297 336 293 329ZM509 329 397 130Q392 121 385 117Q378 113 367 113H281Q272 113 268 121.5Q264 130 268 139L370 344L268 551Q263 560 267.5 568.5Q272 577 281 577H367Q378 577 385 573Q392 569 397 560L509 361Q513 354 513 345Q513 336 509 329Z" glyph-name="guillemotright.alt" horiz-adv-x="551" /><glyph d="M261 13H175Q164 13 157 17Q150 21 145 30L33 229Q29 236 29 245Q29 254 33 261L145 460Q150 469 157 473Q164 477 175 477H261Q270 477 274 468.5Q278 460 274 451L171 244L274 39Q278 30 274 21.5Q270 13 261 13Z" glyph-name="guilsinglleft" horiz-adv-x="311" unicode="&#8249;" /><glyph d="M270 113H184Q173 113 166 117Q159 121 154 130L42 329Q38 336 38 345Q38 354 42 361L154 560Q159 569 166 573Q173 577 184 577H270Q279 577 283 568.5Q287 560 283 551L180 344L283 139Q287 130 283 121.5Q279 113 270 113Z" glyph-name="guilsinglleft.alt" horiz-adv-x="335" /><glyph d="M278 229 166 30Q161 21 154 17Q147 13 136 13H50Q41 13 37 21.5Q33 30 37 39L139 244L37 451Q32 460 36.5 468.5Q41 477 50 477H136Q147 477 154 473Q161 469 166 460L278 261Q282 254 282 245Q282 236 278 229Z" glyph-name="guilsinglright" horiz-adv-x="311" unicode="&#8250;" /><glyph d="M294 329 182 130Q177 121 170 117Q163 113 152 113H66Q57 113 53 121.5Q49 130 53 139L155 344L53 551Q48 560 52.5 568.5Q57 577 66 577H152Q163 577 170 573Q177 569 182 560L294 361Q298 354 298 345Q298 336 294 329Z" glyph-name="guilsinglright.alt" horiz-adv-x="336" /><glyph d="M415 19V252Q415 310 384 343.5Q353 377 298 377Q244 377 210.5 342.5Q177 308 177 252V19Q177 11 170.5 5.5Q164 0 156 0H68Q60 0 54 6Q48 12 48 20V680Q48 688 54 694Q60 700 68 700H156Q164 700 170.5 694.5Q177 689 177 681V425Q201 458 243 477Q285 496 337 496Q430 496 487 438Q544 380 544 287V19Q544 11 538 5.5Q532 0 523 0H436Q427 0 421 5.5Q415 11 415 19Z" glyph-name="h" horiz-adv-x="587" unicode="h" /><glyph d="M177 252V19Q177 11 170.5 5.5Q164 0 156 0H68Q60 0 54 6Q48 12 48 20V541H3Q-6 541 -12 547.5Q-18 554 -18 563V604Q-18 613 -12 619.5Q-6 626 3 626H48V680Q48 688 54 694Q60 700 68 700H156Q164 700 170.5 694.5Q177 689 177 681V626H290Q299 626 305 619.5Q311 613 311 604V563Q311 554 305 547.5Q299 541 290 541H177V425Q201 458 243 477Q285 496 337 496Q430 496 487 438Q544 380 544 287V19Q544 11 538 5.5Q532 0 523 0H436Q427 0 421 5.5Q415 11 415 19V252Q415 310 384 343.5Q353 377 298 377Q244 377 210.5 342.5Q177 308 177 252Z" glyph-name="hbar" horiz-adv-x="587" unicode="&#295;" /><glyph d="M239 949H346Q355 949 362 944Q369 939 375 929L467 781Q474 771 469 761.5Q464 752 454 752H380Q371 752 365 755Q359 758 352 768L292 849L233 768Q224 758 218.5 755Q213 752 204 752H131Q121 752 115.5 761Q110 770 117 781L209 929Q215 940 222 944.5Q229 949 239 949ZM415 19V252Q415 310 384 343.5Q353 377 298 377Q244 377 210.5 342.5Q177 308 177 252V19Q177 11 170.5 5.5Q164 0 156 0H68Q60 0 54 6Q48 12 48 20V680Q48 688 54 694Q60 700 68 700H156Q164 700 170.5 694.5Q177 689 177 681V425Q201 458 243 477Q285 496 337 496Q430 496 487 438Q544 380 544 287V19Q544 11 538 5.5Q532 0 523 0H436Q427 0 421 5.5Q415 11 415 19Z" glyph-name="hcircumflex" horiz-adv-x="587" unicode="&#293;" /><glyph d="M309 731H418Q431 731 436.5 721Q442 711 436 701L348 550Q342 541 336.5 537.5Q331 534 323 534H265Q251 534 244.5 542Q238 550 242 563L284 713Q286 721 292.5 726Q299 731 309 731ZM108 731H217Q230 731 235.5 721Q241 711 235 701L147 550Q141 541 135.5 537.5Q130 534 122 534H64Q50 534 43.5 542Q37 550 41 563L83 713Q85 721 91.5 726Q98 731 108 731Z" glyph-name="hungarumlaut" horiz-adv-x="466" unicode="&#733;" /><glyph d="M303 222H71Q62 222 56 228.5Q50 235 50 244V334Q50 343 56 349.5Q62 356 71 356H303Q312 356 318.5 349.5Q325 343 325 334V244Q325 235 318.5 228.5Q312 222 303 222Z" glyph-name="hyphen" horiz-adv-x="375" unicode="-" /><glyph d="M306 282H74Q65 282 59 288.5Q53 295 53 304V394Q53 403 59 409.5Q65 416 74 416H306Q315 416 321.5 409.5Q328 403 328 394V304Q328 295 321.5 288.5Q315 282 306 282Z" glyph-name="hyphen.alt" horiz-adv-x="381" /><glyph d="M193 626Q193 593 169.5 569Q146 545 113 545Q80 545 56 569Q32 593 32 626Q32 659 56 683Q80 707 113 707Q146 707 169.5 683Q193 659 193 626ZM156 0H69Q60 0 54 6Q48 12 48 21V461Q48 470 54 476Q60 482 69 482H156Q165 482 171 476Q177 470 177 461V21Q177 12 171 6Q165 0 156 0Z" glyph-name="i" horiz-adv-x="225" unicode="i" /><glyph d="M193 626Q193 593 169.5 569Q146 545 113 545Q80 545 56 569Q32 593 32 626Q32 659 56 683Q80 707 113 707Q146 707 169.5 683Q193 659 193 626ZM156 0H69Q60 0 54 6Q48 12 48 21V461Q48 470 54 476Q60 482 69 482H156Q165 482 171 476Q177 470 177 461V21Q177 12 171 6Q165 0 156 0Z" glyph-name="i.TRK" horiz-adv-x="225" /><glyph d="M132 731H241Q254 731 259.5 721Q265 711 259 701L171 550Q166 541 160 537.5Q154 534 146 534H88Q74 534 67.5 541.5Q61 549 64 563L106 713Q108 721 115 726Q122 731 132 731ZM156 0H69Q60 0 54 6Q48 12 48 21V461Q48 470 54 476Q60 482 69 482H156Q165 482 171 476Q177 470 177 461V21Q177 12 171 6Q165 0 156 0Z" glyph-name="iacute" horiz-adv-x="225" unicode="&#237;" /><glyph d="M156 0H69Q60 0 54 6Q48 12 48 21V461Q48 470 54 476Q60 482 69 482H156Q165 482 171 476Q177 470 177 461V21Q177 12 171 6Q165 0 156 0ZM54 699V688Q54 662 70 647Q86 632 112 632Q138 632 154.5 647.5Q171 663 171 688V699Q171 706 175.5 710.5Q180 715 186 715H263Q270 715 274.5 710.5Q279 706 279 699V679Q279 609 234.5 569Q190 529 112 529Q34 529 -10 569Q-54 609 -54 679V699Q-54 706 -49.5 710.5Q-45 715 -39 715H39Q45 715 49.5 710.5Q54 706 54 699Z" glyph-name="ibreve" horiz-adv-x="225" unicode="&#301;" /><glyph d="M59 731H166Q175 731 182 726Q189 721 195 711L287 563Q294 553 289 543.5Q284 534 274 534H200Q191 534 185 537Q179 540 172 550L112 631L53 550Q44 540 38.5 537Q33 534 24 534H-49Q-59 534 -64.5 543Q-70 552 -63 563L29 711Q35 722 42 726.5Q49 731 59 731ZM156 0H69Q60 0 54 6Q48 12 48 21V461Q48 470 54 476Q60 482 69 482H156Q165 482 171 476Q177 470 177 461V21Q177 12 171 6Q165 0 156 0Z" glyph-name="icircumflex" horiz-adv-x="225" unicode="&#238;" /><glyph d="M216 530Q183 530 158.5 554.5Q134 579 134 612Q134 645 158.5 669.5Q183 694 216 694Q250 694 274 670Q298 646 298 612Q298 578 274 554Q250 530 216 530ZM9 530Q-25 530 -49 554Q-73 578 -73 612Q-73 646 -49 670Q-25 694 9 694Q43 694 67 670Q91 646 91 612Q91 578 67 554Q43 530 9 530ZM156 0H69Q60 0 54 6Q48 12 48 21V461Q48 470 54 476Q60 482 69 482H156Q165 482 171 476Q177 470 177 461V21Q177 12 171 6Q165 0 156 0Z" glyph-name="idieresis" horiz-adv-x="225" unicode="&#239;" /><glyph d="M156 0H69Q60 0 54 6Q48 12 48 21V461Q48 470 54 476Q60 482 69 482H156Q165 482 171 476Q177 470 177 461V21Q177 12 171 6Q165 0 156 0ZM-13 731H96Q106 731 112.5 726Q119 721 121 713L164 563Q167 549 160.5 541.5Q154 534 140 534H82Q74 534 68.5 537.5Q63 541 57 550L-31 701Q-37 711 -31.5 721Q-26 731 -13 731Z" glyph-name="igrave" horiz-adv-x="225" unicode="&#236;" /><glyph d="M193 626Q193 593 169.5 569Q146 545 113 545Q80 545 56 569Q32 593 32 626Q32 659 56 683Q80 707 113 707Q146 707 169.5 683Q193 659 193 626ZM156 0H69Q60 0 54 6Q48 12 48 21V461Q48 470 54 476Q60 482 69 482H156Q165 482 171 476Q177 470 177 461V21Q177 12 171 6Q165 0 156 0ZM415 626Q415 593 391 569Q367 545 334 545Q301 545 277 569Q253 593 253 626Q253 659 277 683Q301 707 334 707Q367 707 391 683Q415 659 415 626ZM291 482H378Q387 482 393 476Q399 470 399 461V-52Q399 -135 351.5 -182.5Q304 -230 228 -230Q188 -230 152.5 -218Q117 -206 96 -185Q89 -178 88.5 -169Q88 -160 94 -151L130 -103Q137 -94 147 -92.5Q157 -91 168 -98Q181 -105 193.5 -109Q206 -113 216 -113Q240 -113 255 -96.5Q270 -80 270 -50V461Q270 470 276 476Q282 482 291 482Z" glyph-name="ij" horiz-adv-x="448" unicode="&#307;" /><glyph d="M156 0H69Q60 0 54 6Q48 12 48 21V461Q48 470 54 476Q60 482 69 482H156Q165 482 171 476Q177 470 177 461V21Q177 12 171 6Q165 0 156 0ZM260 552H-37Q-46 552 -52 558.5Q-58 565 -58 574V639Q-58 648 -52 654Q-46 660 -37 660H260Q269 660 275.5 654Q282 648 282 639V574Q282 565 275.5 558.5Q269 552 260 552Z" glyph-name="imacron" horiz-adv-x="225" unicode="&#299;" /><glyph d="M105 536Q139 575 186.5 597Q234 619 281 619Q354 619 412.5 579Q471 539 521 458Q570 539 628.5 579Q687 619 760 619Q807 619 854.5 597Q902 575 936 536Q968 500 984.5 453Q1001 406 1001 351Q1001 296 984.5 249Q968 202 936 166Q902 127 854.5 105Q807 83 760 83Q687 83 628.5 123Q570 163 521 244Q471 163 412.5 123Q354 83 281 83Q234 83 186.5 105Q139 127 105 166Q73 202 56.5 249Q40 296 40 351Q40 406 56.5 453Q73 500 105 536ZM596 351Q634 281 671 248.5Q708 216 753 216Q798 216 830.5 253.5Q863 291 863 351Q863 411 830.5 449Q798 487 753 487Q709 487 672 454.5Q635 422 596 351ZM445 351Q406 422 369 454.5Q332 487 288 487Q243 487 210.5 449Q178 411 178 351Q178 291 211 253.5Q244 216 289 216Q334 216 370.5 248.5Q407 281 445 351Z" glyph-name="infinity" horiz-adv-x="1041" unicode="&#8734;" /><glyph d="M171 -38V558Q171 636 218.5 681.5Q266 727 341 727Q378 727 415 714.5Q452 702 474 681Q481 675 481.5 665.5Q482 656 476 647L439 595Q433 585 423 584.5Q413 584 401 593Q389 601 377 605Q365 609 354 609Q330 609 315 592.5Q300 576 300 547V-50Q300 -127 252 -172.5Q204 -218 129 -218Q93 -218 56 -205.5Q19 -193 -4 -173Q-11 -166 -11.5 -157Q-12 -148 -6 -139L31 -86Q38 -77 47.5 -76.5Q57 -76 70 -85Q82 -93 94 -97Q106 -101 116 -101Q141 -101 156 -84Q171 -67 171 -38Z" glyph-name="integral" horiz-adv-x="472" unicode="&#8747;" /><glyph d="M193 626Q193 593 169.5 569Q146 545 113 545Q80 545 56 569Q32 593 32 626Q32 659 56 683Q80 707 113 707Q146 707 169.5 683Q193 659 193 626ZM188 -166 184 -202Q182 -218 159.5 -226.5Q137 -235 98 -235Q43 -235 10.5 -210Q-22 -185 -22 -142Q-22 -105 3.5 -67.5Q29 -30 74 0H69Q60 0 54 6Q48 12 48 21V461Q48 470 54 476Q60 482 69 482H156Q165 482 171 476Q177 470 177 461V21Q177 12 171 6Q165 0 156 0H150Q123 -37 109.5 -64.5Q96 -92 96 -108Q96 -127 107 -136.5Q118 -146 140 -146Q143 -146 151 -145.5Q159 -145 172 -143Q181 -142 185.5 -148Q190 -154 188 -166Z" glyph-name="iogonek" horiz-adv-x="225" unicode="&#303;" /><glyph d="M156 0H69Q60 0 54 6Q48 12 48 21V461Q48 470 54 476Q60 482 69 482H156Q165 482 171 476Q177 470 177 461V21Q177 12 171 6Q165 0 156 0ZM99 568Q70 576 58.5 578.5Q47 581 40 581Q29 581 19 577Q9 573 -6 561Q-15 553 -19 551Q-23 549 -27 549Q-32 549 -36.5 551.5Q-41 554 -45 560L-71 598Q-75 603 -77 609.5Q-79 616 -79 623Q-79 650 -47.5 674.5Q-16 699 26 699Q39 699 57.5 695.5Q76 692 115 681Q146 672 158.5 669.5Q171 667 179 667Q190 667 200 671Q210 675 225 687Q234 695 238 697Q242 699 246 699Q252 699 256 696.5Q260 694 265 687L290 650Q294 644 296 637.5Q298 631 298 625Q298 598 266.5 573.5Q235 549 193 549Q179 549 159 553Q139 557 99 568Z" glyph-name="itilde" horiz-adv-x="225" unicode="&#297;" /><glyph d="M192 626Q192 593 168 569Q144 545 111 545Q78 545 54 569Q30 593 30 626Q30 659 54 683Q78 707 111 707Q144 707 168 683Q192 659 192 626ZM68 482H155Q164 482 170 476Q176 470 176 461V-52Q176 -135 128.5 -182.5Q81 -230 5 -230Q-35 -230 -70.5 -218Q-106 -206 -127 -185Q-134 -178 -134.5 -169Q-135 -160 -129 -151L-93 -103Q-86 -94 -76 -92.5Q-66 -91 -55 -98Q-42 -105 -29.5 -109Q-17 -113 -7 -113Q17 -113 32 -96.5Q47 -80 47 -50V461Q47 470 53 476Q59 482 68 482Z" glyph-name="j" horiz-adv-x="225" unicode="j" /><glyph d="M68 482H155Q164 482 170 476Q176 470 176 461V-52Q176 -135 128.5 -182.5Q81 -230 5 -230Q-35 -230 -70.5 -218Q-106 -206 -127 -185Q-134 -178 -134.5 -169Q-135 -160 -129 -151L-93 -103Q-86 -94 -76 -92.5Q-66 -91 -55 -98Q-42 -105 -29.5 -109Q-17 -113 -7 -113Q17 -113 32 -96.5Q47 -80 47 -50V461Q47 470 53 476Q59 482 68 482ZM60 731H167Q176 731 183 726Q190 721 196 711L288 563Q295 553 290 543.5Q285 534 275 534H201Q192 534 186 537Q180 540 173 550L113 631L54 550Q45 540 39.5 537Q34 534 25 534H-48Q-58 534 -63.5 543Q-69 552 -62 563L30 711Q36 722 43 726.5Q50 731 60 731Z" glyph-name="jcircumflex" horiz-adv-x="225" unicode="&#309;" /><glyph d="M177 208V20Q177 12 171 6Q165 0 156 0H69Q60 0 54 6Q48 12 48 20V680Q48 688 54 694Q60 700 69 700H156Q165 700 171 694Q177 688 177 680V308H214L336 467Q342 475 348.5 478.5Q355 482 363 482H461Q475 482 479 472.5Q483 463 474 451L325 270L499 32Q507 20 501.5 10Q496 0 482 0H381Q372 0 364.5 4Q357 8 351 17L217 208Z" glyph-name="k" horiz-adv-x="500" unicode="k" /><glyph d="M177 208V20Q177 12 171 6Q165 0 156 0H69Q60 0 54 6Q48 12 48 20V680Q48 688 54 694Q60 700 69 700H156Q165 700 171 694Q177 688 177 680V308H214L336 467Q342 475 348.5 478.5Q355 482 363 482H461Q475 482 479 472.5Q483 463 474 451L325 270L499 32Q507 20 501.5 10Q496 0 482 0H381Q372 0 364.5 4Q357 8 351 17L217 208ZM187 -263 227 -202Q206 -193 193.5 -174Q181 -155 181 -132Q181 -98 204 -75Q227 -52 261 -52Q295 -52 319 -76Q343 -100 343 -136Q343 -174 321 -212Q299 -250 251 -291Q238 -302 226.5 -304Q215 -306 206 -299L194 -292Q185 -285 183.5 -278Q182 -271 187 -263Z" glyph-name="kcommaaccent" horiz-adv-x="500" unicode="&#311;" /><glyph d="M177 203V20Q177 12 171 6Q165 0 156 0H69Q60 0 54 6Q48 12 48 20V461Q48 470 54 476Q60 482 69 482H156Q165 482 171 476Q177 470 177 461V303H213L336 467Q342 475 348.5 478.5Q355 482 363 482H461Q475 482 479 472Q483 462 474 451L323 265L499 32Q507 21 502 10.5Q497 0 482 0H381Q372 0 365 4Q358 8 351 17L215 203Z" glyph-name="kgreenlandic" horiz-adv-x="500" unicode="&#312;" /><glyph d="M235 0H171Q110 0 78.5 30.5Q47 61 47 120V679Q47 688 53 694Q59 700 68 700H155Q164 700 170 694Q176 688 176 679V145Q176 127 185.5 117Q195 107 212 107H241Q250 107 255.5 102Q261 97 261 88V25Q261 13 254 6.5Q247 0 235 0Z" glyph-name="l" horiz-adv-x="268" unicode="l" /><glyph d="M131 949H240Q253 949 258.5 939Q264 929 258 919L170 768Q165 759 159 755.5Q153 752 145 752H87Q73 752 66.5 759.5Q60 767 63 781L105 931Q107 939 114 944Q121 949 131 949ZM235 0H171Q110 0 78.5 30.5Q47 61 47 120V679Q47 688 53 694Q59 700 68 700H155Q164 700 170 694Q176 688 176 679V145Q176 127 185.5 117Q195 107 212 107H241Q250 107 255.5 102Q261 97 261 88V25Q261 13 254 6.5Q247 0 235 0Z" glyph-name="lacute" horiz-adv-x="268" unicode="&#314;" /><glyph d="M226 496 267 557Q245 567 232.5 586Q220 605 220 628Q220 661 243.5 684.5Q267 708 300 708Q334 708 358 683.5Q382 659 382 623Q382 584 359 545.5Q336 507 289 469Q277 458 266 456Q255 454 245 461L234 468Q225 474 223 481.5Q221 489 226 496ZM235 0H171Q110 0 78.5 30.5Q47 61 47 120V679Q47 688 53 694Q59 700 68 700H155Q164 700 170 694Q176 688 176 679V145Q176 127 185.5 117Q195 107 212 107H241Q250 107 255.5 102Q261 97 261 88V25Q261 13 254 6.5Q247 0 235 0Z" glyph-name="lcaron" horiz-adv-x="297" unicode="&#318;" /><glyph d="M61 -263 101 -202Q80 -193 67.5 -174Q55 -155 55 -132Q55 -98 78 -75Q101 -52 135 -52Q169 -52 193 -76Q217 -100 217 -136Q217 -174 195 -212Q173 -250 125 -291Q112 -302 100.5 -304Q89 -306 80 -299L68 -292Q59 -285 57.5 -278Q56 -271 61 -263ZM235 0H171Q110 0 78.5 30.5Q47 61 47 120V679Q47 688 53 694Q59 700 68 700H155Q164 700 170 694Q176 688 176 679V145Q176 127 185.5 117Q195 107 212 107H241Q250 107 255.5 102Q261 97 261 88V25Q261 13 254 6.5Q247 0 235 0Z" glyph-name="lcommaaccent" horiz-adv-x="268" unicode="&#316;" /><glyph d="M382 286Q382 253 358 229Q334 205 301 205Q267 205 243 228.5Q219 252 219 286Q219 320 243 344Q267 368 301 368Q334 368 358 344Q382 320 382 286ZM235 0H171Q110 0 78.5 30.5Q47 61 47 120V679Q47 688 53 694Q59 700 68 700H155Q164 700 170 694Q176 688 176 679V145Q176 127 185.5 117Q195 107 212 107H241Q250 107 255.5 102Q261 97 261 88V25Q261 13 254 6.5Q247 0 235 0Z" glyph-name="ldot" horiz-adv-x="379" unicode="&#320;" /><glyph d="M518 198V104Q518 88 507 82.5Q496 77 481 85L57 291Q43 298 36 311.5Q29 325 29 346Q29 367 36 380Q43 393 57 400L481 606Q496 613 507 607.5Q518 602 518 586V492Q518 482 511.5 475Q505 468 491 462L227 345L491 229Q507 222 512.5 215Q518 208 518 198Z" glyph-name="less" horiz-adv-x="581" unicode="&lt;" /><glyph d="M71 368 268 619Q273 626 281.5 630.5Q290 635 300 635H400Q410 635 413.5 626Q417 617 408 605L256 414H863Q872 414 879 407.5Q886 401 886 392V309Q886 300 879.5 293.5Q873 287 864 287H256L408 96Q417 84 414 75Q411 66 400 66H300Q290 66 281.5 70Q273 74 268 81L71 333Q66 341 66 351Q66 361 71 368Z" glyph-name="less.alt" horiz-adv-x="960" /><glyph d="M526 305V211Q526 195 515 189.5Q504 184 489 192L65 398Q51 405 44 418.5Q37 432 37 453Q37 473 43.5 486.5Q50 500 64 507L489 712Q504 720 515 714.5Q526 709 526 693V599Q526 589 520 582Q514 575 499 568L234 452L499 336Q515 329 520.5 322Q526 315 526 305ZM526 105V22Q526 13 519.5 6.5Q513 0 504 0H61Q52 0 46 6.5Q40 13 40 22V105Q40 114 46 120Q52 126 61 126H504Q513 126 519.5 120Q526 114 526 105Z" glyph-name="lessequal" horiz-adv-x="580" unicode="&#8804;" /><glyph d="M412 86Q392 41 352 16Q312 -9 260 -9Q189 -9 146 32.5Q103 74 103 140V226Q101 225 96.5 222Q92 219 81 213Q73 209 71 207.5Q69 206 68 206Q61 203 54.5 205Q48 207 45 215L23 254Q19 262 21 269Q23 276 31 282Q33 283 45 290Q57 297 86 314Q95 319 98 320.5Q101 322 102 323V549Q102 625 144 669.5Q186 714 258 714Q321 714 362.5 671Q404 628 404 560Q404 479 359 414Q314 349 207 277V159Q207 128 223 109.5Q239 91 265 91Q285 91 301 102Q317 113 325 132Q330 142 336.5 145Q343 148 351 144L403 114Q411 110 413.5 102Q416 94 412 86ZM309 554Q309 585 295.5 603Q282 621 258 621Q235 621 221 601.5Q207 582 207 551V384Q258 424 283.5 466.5Q309 509 309 554Z" glyph-name="litre" horiz-adv-x="433" unicode="&#8467;" /><glyph d="M542 501V198Q542 189 536 183Q530 177 521 177H430Q421 177 415 183Q409 189 409 198V396H51Q42 396 36 402Q30 408 30 417V501Q30 510 36 516.5Q42 523 51 523H521Q530 523 536 516.5Q542 510 542 501Z" glyph-name="logicalnot" horiz-adv-x="604" unicode="&#172;" /><glyph d="M732 799Q658 799 603.5 760Q549 721 534 658Q515 677 502.5 705.5Q490 734 490 763Q490 828 539 873.5Q588 919 670 919Q742 919 788 878.5Q834 838 834 779Q812 789 786.5 794Q761 799 732 799ZM306 217Q324 206 344.5 199Q365 192 377 192Q353 232 340 274Q327 316 327 355Q327 455 386 520.5Q445 586 529 586Q624 586 680 526Q736 466 736 369Q736 327 723.5 283Q711 239 686 192Q702 194 718 200.5Q734 207 750 217Q801 249 828 300.5Q855 352 855 418Q855 513 790 576.5Q725 640 628 649Q639 662 655.5 673Q672 684 695 692Q713 699 733 702.5Q753 706 774 706Q827 706 879.5 681.5Q932 657 969 613Q1004 573 1021.5 520.5Q1039 468 1039 405Q1039 327 1013.5 253.5Q988 180 941 123Q890 61 822 28Q754 -5 676 -5Q638 -5 599 5Q560 15 528 33Q496 15 457 5Q418 -5 380 -5Q302 -5 234 28Q166 61 115 123Q68 180 42.5 253.5Q17 327 17 405Q17 468 34.5 520.5Q52 573 87 613Q124 657 176.5 681.5Q229 706 282 706Q303 706 323 702.5Q343 699 361 692Q384 684 400.5 673Q417 662 428 649Q331 640 266 576.5Q201 513 201 418Q201 352 228 300.5Q255 249 306 217ZM502 465Q490 451 483.5 427.5Q477 404 477 377Q477 337 491 297Q505 257 531 226Q557 258 571 296.5Q585 335 585 374Q585 438 550 476Q515 514 465 514Q453 514 441.5 511Q430 508 418 503Q406 497 396.5 489.5Q387 482 380 474Q389 482 402.5 485.5Q416 489 434 489Q454 489 470.5 483.5Q487 478 502 465Z" glyph-name="logo" horiz-adv-x="1056" /></font>
</defs>
</svg>
