<svg width="160" height="160" xmlns="http://www.w3.org/2000/svg">

 <g>
  <title>background</title>
  <rect fill="none" id="canvas_background" height="402" width="582" y="-1" x="-1"/>
 </g>
 <g>
  <title>Layer 1</title>
  <path fill="white" d="m21,135c0,2.209 1.791,4 4,4l50,0c2.209,0 4,-1.791 4,-4l0,-20.699c9.117,8.667 21.18,19.04 29.898,22.498c3.523,1.461 7.258,2.201 11.102,2.201c3.84,0 7.574,-0.74 11.102,-2.203c3.53,-1.464 6.694,-3.58 9.405,-6.291c2.71,-2.709 4.827,-5.873 6.292,-9.404c1.459,-3.521 2.2,-7.256 2.201,-11.102c0,-3.842 -0.741,-7.578 -2.18,-11.045c-8.488,-21.403 -59.01,-77.144 -80.719,-85.753c-3.522,-1.461 -7.257,-2.202 -11.101,-2.202c-3.84,0 -7.574,0.741 -11.102,2.203c-3.531,1.465 -6.695,3.582 -9.405,6.292c-2.712,2.712 -4.828,5.876 -6.292,9.405c-1.461,3.523 -2.201,7.258 -2.201,11.1s0.741,7.578 2.18,11.045c1.995,5.032 6.031,11.337 10.032,16.95c-7.407,0.719 -13.882,2.116 -18.577,4.072c-1.706,0.71 -3.231,1.731 -4.534,3.035c-1.31,1.31 -2.331,2.837 -3.037,4.541c-0.706,1.705 -1.064,3.505 -1.064,5.357c0,1.854 0.357,3.656 1.063,5.359c0.707,1.705 1.729,3.232 3.038,4.541c1.308,1.308 2.835,2.328 4.539,3.035c0.446,0.186 0.9,0.348 1.359,0.483l0.001,36.582l0,0zm14.593,-86.962c-1.057,-2.548 -1.593,-5.253 -1.593,-8.038s0.535,-5.489 1.591,-8.037c1.06,-2.554 2.594,-4.846 4.561,-6.813c1.963,-1.964 4.255,-3.498 6.811,-4.558c2.55,-1.056 5.254,-1.592 8.037,-1.592c2.786,0 5.49,0.536 8.095,1.615c4.668,1.852 11.05,6.389 18.157,12.477l-9.08,9.08c-1.563,1.563 -1.563,4.095 0,5.657c0.78,0.78 1.805,1.171 2.828,1.171s2.048,-0.391 2.828,-1.171l9.406,-9.407c4.713,4.346 9.605,9.191 14.436,14.252l-9.498,9.498c-1.563,1.563 -1.563,4.095 0,5.657c0.78,0.78 1.805,1.171 2.828,1.171s2.048,-0.391 2.828,-1.171l9.307,-9.307c4.68,5.113 9.195,10.327 13.317,15.369l-8.28,8.281c-1.563,1.563 -1.563,4.094 0,5.656c0.78,0.781 1.805,1.172 2.828,1.172s2.048,-0.391 2.828,-1.172l7.637,-7.636c6.746,8.74 11.867,16.537 13.942,21.77c1.057,2.548 1.593,5.253 1.593,8.037c-0.001,2.788 -0.536,5.493 -1.591,8.038c-1.062,2.557 -2.595,4.848 -4.56,6.813c-1.966,1.965 -4.258,3.498 -6.813,4.559c-2.55,1.056 -5.253,1.591 -8.036,1.591c-2.786,0 -5.49,-0.535 -8.096,-1.615c-7.014,-2.781 -18.961,-12.32 -32.904,-26.256l0,-4.709c0.46,-0.137 0.913,-0.299 1.36,-0.484c1.703,-0.705 3.23,-1.728 4.537,-3.033c1.311,-1.31 2.332,-2.838 3.039,-4.543c0.707,-1.704 1.064,-3.506 1.064,-5.36c0,-1.852 -0.357,-3.654 -1.063,-5.359c-0.707,-1.702 -1.729,-3.229 -3.037,-4.539c-1.303,-1.303 -2.828,-2.324 -4.534,-3.035c-7.06,-2.941 -18.128,-4.627 -30.366,-4.627c-0.761,0 -1.517,0.006 -2.268,0.02c-6.074,-8.085 -10.354,-14.921 -12.139,-19.422zm-14.836,41.203c-0.563,-0.562 -1.001,-1.216 -1.303,-1.944c-0.301,-0.727 -0.454,-1.5 -0.454,-2.297c0,-0.796 0.153,-1.568 0.454,-2.295c0.302,-0.729 0.741,-1.385 1.305,-1.948c0.56,-0.56 1.216,-0.999 1.952,-1.305c5.277,-2.198 13.748,-3.621 23.191,-3.942c0.006,0 0.013,0 0.019,0c1.349,-0.046 2.721,-0.069 4.081,-0.069c11.057,0 21.257,1.5 27.287,4.011c0.736,0.307 1.393,0.746 1.952,1.305c0.563,0.563 1.003,1.22 1.305,1.946c0.302,0.729 0.454,1.501 0.454,2.297c0,0.797 -0.152,1.57 -0.454,2.297c-0.302,0.729 -0.74,1.383 -1.304,1.945c-0.563,0.563 -1.218,1.002 -1.947,1.305c-0.726,0.301 -1.497,0.453 -2.295,0.453c-2.209,0 -4,1.791 -4,4l0,9.781l0,26.219l-42,0l0,-36c0,-2.209 -1.791,-4 -4,-4c-0.798,0 -1.569,-0.152 -2.294,-0.453c-0.73,-0.303 -1.386,-0.74 -1.949,-1.306z" id="bread"/>
 </g>
</svg>