<svg width="160" height="160" xmlns="http://www.w3.org/2000/svg">

 <g>
  <title>background</title>
  <rect fill="none" id="canvas_background" height="402" width="582" y="-1" x="-1"/>
 </g>
 <g>
  <title>Layer 1</title>
  <path fill="white" d="m105,19c2.209,0 4,-1.791 4,-4s-1.791,-4 -4,-4c-9.76,0 -18.402,4.851 -23.66,12.263c-0.432,-1.324 -0.901,-2.639 -1.438,-3.934c-2.725,-6.568 -6.667,-12.459 -11.717,-17.512c-1.562,-1.563 -4.094,-1.563 -5.657,-0.001s-1.563,4.095 -0.001,5.657c2.049,2.05 3.876,4.266 5.487,6.624c-3.917,-1.977 -8.336,-3.097 -13.014,-3.097c-2.209,0 -4,1.791 -4,4s1.791,4 4,4c11.58,0 21,9.42 21,21l0,1l-1,0c-2.519,0 -4.966,0.485 -7.274,1.443c-2.313,0.959 -4.385,2.346 -6.161,4.121c-1.776,1.776 -3.163,3.849 -4.122,6.162c-0.957,2.311 -1.443,4.758 -1.443,7.274c0,0.309 0.036,0.616 0.106,0.916l1.218,5.176c0.013,0.066 0.03,0.13 0.046,0.195l18.736,79.629c0.425,1.807 2.038,3.084 3.894,3.084c1.855,0 3.469,-1.277 3.895,-3.084l20,-85c0.07,-0.3 0.105,-0.607 0.105,-0.916c0,-2.516 -0.486,-4.963 -1.443,-7.274c-0.959,-2.313 -2.346,-4.386 -4.121,-6.162c-1.775,-1.775 -3.85,-3.162 -6.162,-4.122c-2.307,-0.957 -4.754,-1.442 -7.274,-1.442l-1,0l0,-1c0,-11.58 9.42,-21 21,-21zm-15.791,30.833c1.338,0.555 2.539,1.359 3.568,2.39c1.031,1.029 1.834,2.229 2.389,3.567c0.499,1.203 0.775,2.473 0.826,3.781l-5.127,21.785l-5.865,0c-2.209,0 -4,1.791 -4,4s1.791,4 4,4l3.982,0l-8.982,38.179l-13.689,-58.18l8.689,0c2.209,0 4,-1.791 4,-4s-1.791,-4 -4,-4l-10.572,0l-0.42,-1.785c0.05,-1.308 0.327,-2.578 0.826,-3.781c0.554,-1.338 1.357,-2.538 2.388,-3.568c1.03,-1.03 2.231,-1.834 3.569,-2.389c1.332,-0.552 2.748,-0.832 4.209,-0.832l10,0c1.461,0 2.877,0.28 4.209,0.833z" id="carrot"/>
 </g>
</svg>