<svg width="160" height="160" xmlns="http://www.w3.org/2000/svg">

 <g>
  <title>background</title>
  <rect fill="none" id="canvas_background" height="402" width="582" y="-1" x="-1"/>
 </g>
 <g>
  <title>Layer 1</title>
  <path fill="white" d="m80,139c5.568,0 11.083,-0.787 16.425,-2.336c0.009,-0.003 0.015,-0.004 0.022,-0.006c0.005,0 0.01,-0.002 0.015,-0.004c0.001,0 0.004,-0.002 0.004,-0.002c0.024,-0.006 0.05,-0.014 0.075,-0.021c0.5,-0.145 0.998,-0.297 1.494,-0.456c0.146,-0.047 0.293,-0.095 0.439,-0.142l0,-0.001c0.002,-0.001 0.006,-0.001 0.008,-0.003c0.006,-0.002 0.01,-0.004 0.015,-0.006c24.226,-7.994 40.503,-30.505 40.503,-56.023c0,-6.288 -1,-12.506 -2.971,-18.484c-0.397,-1.204 -1.342,-2.149 -2.547,-2.546c-4.723,-1.557 -9.596,-2.498 -14.533,-2.828c0.018,-0.492 0.051,-0.991 0.051,-1.475c0,-4.726 -0.751,-9.399 -2.232,-13.889c-0.396,-1.204 -1.342,-2.148 -2.545,-2.546c-4.49,-1.481 -9.164,-2.232 -13.89,-2.232c-7.095,0 -14.079,1.722 -20.353,4.97c-6.18,-3.198 -13.124,-4.97 -20.313,-4.97c-4.726,0 -9.398,0.751 -13.889,2.232c-1.204,0.397 -2.148,1.342 -2.546,2.546c-1.481,4.491 -2.232,9.163 -2.232,13.889c0,0.483 0.034,0.983 0.051,1.475c-4.938,0.331 -9.812,1.271 -14.534,2.828c-1.205,0.397 -2.149,1.342 -2.546,2.546c-1.971,5.978 -2.971,12.196 -2.971,18.484c0,32.533 26.467,59 59,59zm51,-59c0,19.473 -10.963,36.92 -27.939,45.496c0.03,-0.172 0.051,-0.344 0.08,-0.516c0.084,-0.484 0.159,-0.97 0.23,-1.455c0.049,-0.342 0.1,-0.684 0.145,-1.025c0.063,-0.506 0.118,-1.014 0.17,-1.523c0.032,-0.32 0.069,-0.643 0.098,-0.966c0.048,-0.561 0.08,-1.122 0.113,-1.685c0.015,-0.273 0.037,-0.545 0.049,-0.818c0.035,-0.834 0.056,-1.67 0.056,-2.508c0,-1.006 -0.026,-2.009 -0.076,-3.007c-0.019,-0.368 -0.058,-0.729 -0.082,-1.097c-0.044,-0.629 -0.081,-1.26 -0.145,-1.886c-0.034,-0.34 -0.087,-0.676 -0.128,-1.015c-0.076,-0.648 -0.148,-1.298 -0.247,-1.941c-0.031,-0.207 -0.075,-0.41 -0.108,-0.617c-2.018,-12.359 -7.902,-23.758 -16.928,-32.588c6.209,-4.228 13.296,-7.026 20.701,-8.208c0.207,-0.032 0.412,-0.067 0.619,-0.097c0.371,-0.055 0.744,-0.102 1.117,-0.148c0.375,-0.046 0.752,-0.089 1.129,-0.127c0.248,-0.025 0.496,-0.049 0.746,-0.071c0.545,-0.046 1.094,-0.085 1.644,-0.115c0.108,-0.006 0.217,-0.013 0.325,-0.019c0.695,-0.032 1.396,-0.053 2.096,-0.058c0.006,0 0.012,-0.002 0.018,-0.002c0.106,0 0.213,-0.006 0.319,-0.006c4.755,0 9.466,0.662 14.03,1.969c1.307,4.567 1.968,9.277 1.968,14.033zm-21.244,-34.757c0.826,3.073 1.244,6.234 1.244,9.424c0,0.486 -0.012,0.978 -0.032,1.475c-0.116,0.008 -0.231,0.024 -0.348,0.033c-0.744,0.056 -1.485,0.127 -2.226,0.211c-0.301,0.033 -0.602,0.06 -0.899,0.098c-0.882,0.113 -1.761,0.244 -2.634,0.397c-0.608,0.105 -1.213,0.234 -1.817,0.358c-0.301,0.063 -0.603,0.121 -0.901,0.188c-0.654,0.145 -1.305,0.306 -1.953,0.473c-0.213,0.056 -0.426,0.113 -0.639,0.17c-0.447,0.121 -0.896,0.226 -1.342,0.357c-0.098,-0.17 -0.202,-0.334 -0.301,-0.502c-0.161,-0.273 -0.322,-0.546 -0.488,-0.815c-0.18,-0.292 -0.363,-0.582 -0.55,-0.87c-0.108,-0.168 -0.222,-0.335 -0.333,-0.502c-2.393,-3.585 -5.285,-6.801 -8.618,-9.551c6.935,-2.522 14.672,-2.87 21.837,-0.944zm-59.512,0c3.072,-0.826 6.233,-1.243 9.423,-1.243c6.865,0 13.453,1.979 19.099,5.476c0.327,0.203 0.652,0.407 0.972,0.619c0.387,0.257 0.769,0.521 1.146,0.792c0.296,0.214 0.587,0.434 0.878,0.655c0.385,0.295 0.768,0.591 1.143,0.901c0.238,0.199 0.468,0.408 0.701,0.612c1.342,1.174 2.599,2.448 3.762,3.815c0.215,0.253 0.436,0.502 0.645,0.762c0.284,0.353 0.553,0.719 0.824,1.083c0.245,0.33 0.488,0.66 0.723,0.998c0.232,0.336 0.457,0.679 0.68,1.023c0.115,0.18 0.224,0.364 0.336,0.546c-1.463,0.665 -2.889,1.406 -4.288,2.188c-0.193,0.107 -0.39,0.211 -0.58,0.321c-0.505,0.289 -1.002,0.59 -1.498,0.894c-0.332,0.203 -0.663,0.408 -0.991,0.618c-0.418,0.268 -0.834,0.54 -1.244,0.818c-0.427,0.288 -0.847,0.584 -1.265,0.883c-0.235,0.168 -0.477,0.324 -0.709,0.495c-2.893,-2.13 -5.97,-3.98 -9.184,-5.541c-0.297,-0.145 -0.598,-0.282 -0.897,-0.422c-0.407,-0.189 -0.815,-0.375 -1.226,-0.555c-0.438,-0.193 -0.877,-0.383 -1.321,-0.565c-0.158,-0.065 -0.318,-0.125 -0.478,-0.188c-3.672,-1.474 -7.524,-2.585 -11.516,-3.296c-0.065,-0.012 -0.13,-0.024 -0.195,-0.035c-1.806,-0.315 -3.639,-0.548 -5.497,-0.694c-0.218,-0.018 -0.435,-0.042 -0.652,-0.057c-0.024,-0.499 -0.035,-0.993 -0.035,-1.479c0,-3.19 0.418,-6.351 1.244,-9.424zm-19.275,20.726c4.566,-1.307 9.276,-1.969 14.031,-1.969c0.11,0 0.218,0.008 0.328,0.008c0.003,0 0.006,0.001 0.01,0.001c2.162,0.014 4.313,0.168 6.441,0.455c0.049,0.007 0.098,0.012 0.146,0.019c0.693,0.096 1.384,0.205 2.072,0.328c0.024,0.004 0.049,0.009 0.074,0.013c3.559,0.645 7.037,1.664 10.372,3.036c0.002,0.001 0.004,0.002 0.006,0.002c0.467,0.192 0.927,0.4 1.388,0.606c0.291,0.131 0.583,0.259 0.872,0.395c0.315,0.148 0.626,0.304 0.939,0.458c0.457,0.228 0.913,0.458 1.362,0.698c0.177,0.094 0.353,0.19 0.529,0.287c0.627,0.346 1.249,0.7 1.859,1.07c0.015,0.009 0.03,0.018 0.045,0.027c9.7,5.905 17.278,14.958 21.321,25.727c0.068,0.187 0.141,0.371 0.207,0.558c0.202,0.56 0.391,1.125 0.574,1.692c0.098,0.302 0.191,0.603 0.283,0.903c0.148,0.496 0.292,0.999 0.427,1.502c0.104,0.386 0.2,0.771 0.295,1.16c0.108,0.447 0.216,0.896 0.313,1.351c0.097,0.457 0.184,0.916 0.269,1.375c0.075,0.406 0.152,0.812 0.218,1.22c0.084,0.521 0.151,1.047 0.219,1.571c0.048,0.362 0.101,0.724 0.14,1.087c0.063,0.605 0.108,1.217 0.151,1.825c0.021,0.295 0.052,0.586 0.066,0.883c0.047,0.911 0.074,1.825 0.074,2.743c0,3.568 -0.372,7.109 -1.109,10.585c-0.029,0.138 -0.064,0.272 -0.096,0.409c-19.63,-0.11 -35.566,-16.109 -35.566,-35.766c0,-2.209 -1.791,-4 -4,-4s-4,1.791 -4,4c0,18.506 11.55,34.354 27.815,40.746c-27.681,-0.511 -50.044,-23.173 -50.044,-50.974c0,-4.756 0.662,-9.466 1.969,-14.031z" id="lettuce"/>
 </g>
</svg>