<svg width="160" height="160" xmlns="http://www.w3.org/2000/svg">

 <g>
  <title>background</title>
  <rect fill="none" id="canvas_background" height="402" width="582" y="-1" x="-1"/>
 </g>
 <g>
  <title>Layer 1</title>
  <path fill="white" d="m129,135l0,-90c0,-0.075 -0.018,-0.145 -0.021,-0.219c-0.008,-0.141 -0.02,-0.28 -0.043,-0.421c-0.021,-0.139 -0.055,-0.273 -0.092,-0.407c-0.02,-0.072 -0.023,-0.146 -0.049,-0.218l-10,-30c-0.016,-0.047 -0.043,-0.088 -0.061,-0.134c-0.035,-0.094 -0.071,-0.186 -0.113,-0.276c-0.033,-0.073 -0.068,-0.144 -0.107,-0.215c-0.041,-0.078 -0.086,-0.152 -0.132,-0.227c-0.047,-0.074 -0.095,-0.146 -0.146,-0.217c-0.051,-0.069 -0.103,-0.135 -0.155,-0.201c-0.056,-0.068 -0.113,-0.133 -0.173,-0.197c-0.057,-0.061 -0.114,-0.118 -0.174,-0.175c-0.066,-0.063 -0.135,-0.122 -0.207,-0.18c-0.063,-0.051 -0.123,-0.1 -0.188,-0.146c-0.071,-0.053 -0.146,-0.102 -0.223,-0.15c-0.077,-0.048 -0.153,-0.093 -0.233,-0.136c-0.064,-0.035 -0.131,-0.067 -0.197,-0.099c-0.095,-0.043 -0.188,-0.082 -0.287,-0.118c-0.047,-0.018 -0.086,-0.044 -0.133,-0.06c-0.035,-0.012 -0.07,-0.013 -0.104,-0.023c-0.07,-0.021 -0.142,-0.039 -0.214,-0.056c-0.102,-0.025 -0.206,-0.044 -0.313,-0.061c-0.083,-0.014 -0.164,-0.03 -0.246,-0.038c-0.078,-0.008 -0.158,-0.008 -0.238,-0.011c-0.049,-0.001 -0.098,-0.015 -0.151,-0.015l-45,0c-0.08,0 -0.154,0.019 -0.232,0.023c-0.146,0.009 -0.289,0.02 -0.432,0.043c-0.127,0.021 -0.248,0.052 -0.37,0.085c-0.125,0.034 -0.248,0.069 -0.37,0.115c-0.123,0.046 -0.239,0.101 -0.356,0.158c-0.115,0.057 -0.228,0.115 -0.337,0.183c-0.107,0.067 -0.209,0.14 -0.309,0.216c-0.106,0.08 -0.209,0.162 -0.307,0.253c-0.094,0.086 -0.178,0.178 -0.262,0.272c-0.087,0.097 -0.171,0.195 -0.249,0.301c-0.083,0.113 -0.153,0.233 -0.225,0.355c-0.041,0.07 -0.093,0.131 -0.13,0.205l-15,30c-0.019,0.037 -0.025,0.076 -0.043,0.113c-0.06,0.129 -0.105,0.263 -0.151,0.398c-0.041,0.121 -0.083,0.24 -0.112,0.362c-0.027,0.118 -0.043,0.24 -0.06,0.362c-0.021,0.146 -0.04,0.291 -0.044,0.436c0,0.043 -0.011,0.08 -0.011,0.12l0,36l-16,0c-2.209,0 -4,1.791 -4,4l-0.001,20c0,0.3 0.039,0.59 0.102,0.87c0.018,0.079 0.049,0.153 0.071,0.231c0.059,0.201 0.125,0.397 0.212,0.584c0.016,0.033 0.021,0.069 0.037,0.104l15.001,30c0.678,1.356 2.063,2.211 3.578,2.211l10,0l10,0l35,0l20,0c2.209,0 4,-1.791 4,-4zm-56.527,-116l36.978,0l-7.333,22l-40.645,0l11,-22zm46.977,22l-8.9,0l4.45,-13.35l4.45,13.35zm-10.45,8l12,0l0,82l-12,0l0,-82zm-50,0l42,0l0,82l-24.527,0l12.105,-24.211c0.018,-0.033 0.021,-0.068 0.037,-0.104c0.088,-0.187 0.152,-0.384 0.212,-0.584c0.022,-0.078 0.054,-0.152 0.071,-0.23c0.063,-0.281 0.102,-0.571 0.102,-0.871l0,-20c0,-2.209 -1.791,-4 -4,-4l-26,0l0,-32zm22,40l0,12l-42.001,0l0.001,-12l42,0zm-21,42l-7.528,0l-11.001,-22l37.057,0l-10.999,22l-7.529,0zm20,-101c0,-1.32 0.529,-2.61 1.46,-3.54c0.938,-0.93 2.22,-1.46 3.54,-1.46c1.311,0 2.6,0.53 3.529,1.46c0.942,0.94 1.471,2.22 1.471,3.54s-0.529,2.6 -1.471,3.54c-0.92,0.93 -2.211,1.46 -3.529,1.46c-1.32,0 -2.609,-0.53 -3.54,-1.46c-0.931,-0.94 -1.46,-2.22 -1.46,-3.54z" id="milk"/>
 </g>
</svg>