<?xml version="1.0" standalone="no"?><!DOCTYPE svg PUBLIC "-//W3C//DTD SVG 1.1//EN" "http://www.w3.org/Graphics/SVG/1.1/DTD/svg11.dtd" ><svg version="1.1" xmlns="http://www.w3.org/2000/svg"><defs><font horiz-adv-x="0" id="font"><font-face ascent="750" bbox="-210 -303 1159 951" cap-height="700" descent="-250" font-family="Fresh Stencil" font-stretch="normal" font-style="normal" font-weight="300" units-per-em="1000" x-height="473" /><missing-glyph d="M602 0H102V700H602ZM533 661H170L352 385ZM146 73 328 350 146 627ZM556 624 375 350 556 76ZM534 38 352 314 170 38Z" horiz-adv-x="704" /><glyph glyph-name=".null" horiz-adv-x="0" /><glyph d="M387 719 528 338H451L321 699V700H336Q353 700 364 703.5Q375 707 385 719ZM325 606 236 338H190L307 655ZM540 306 618 95Q628 68 643 54Q658 40 684 32L716 23V0H451V23L506 32Q532 36 539 52.5Q546 69 536 99L475 270H214L157 99Q148 73 157 56.5Q166 40 196 34L251 23V0H2V23L31 32Q58 40 74 54.5Q90 69 100 95L178 306Z" glyph-name="A" horiz-adv-x="719" unicode="A" /><glyph d="M798 664 583 667V700H685Q748 700 802.5 702Q857 704 904 708L902 546H871L847 619Q838 647 827.5 655.5Q817 664 798 664ZM240 23V0H-17V23L9 32Q40 43 60 58.5Q80 74 96 100L218 306H475V605Q475 621 471.5 631.5Q468 642 461 650L289 338H236L429 667L384 677V700H549V381L659 384Q688 385 701.5 394.5Q715 404 722 426L738 480H760V246H738L722 300Q715 321 701.5 330Q688 339 659 342L549 345V0H384V23L425 32Q451 38 463 52.5Q475 67 475 95V270H253L158 100Q143 73 151 56Q159 39 190 33ZM924 0H583V34L773 36Q819 37 841 54.5Q863 72 893 145L913 194H943Z" glyph-name="AE" horiz-adv-x="983" unicode="&#198;" /><glyph d="M387 719 528 338H451L321 699V700H336Q353 700 364 703.5Q375 707 385 719ZM325 606 236 338H190L307 655ZM540 306 618 95Q628 68 643 54Q658 40 684 32L716 23V0H451V23L506 32Q532 36 539 52.5Q546 69 536 99L475 270H214L157 99Q148 73 157 56.5Q166 40 196 34L251 23V0H2V23L31 32Q58 40 74 54.5Q90 69 100 95L178 306ZM360 765H341L356 912H451Z" glyph-name="Aacute" horiz-adv-x="719" unicode="&#193;" /><glyph d="M387 719 528 338H451L321 699V700H336Q353 700 364 703.5Q375 707 385 719ZM325 606 236 338H190L307 655ZM540 306 618 95Q628 68 643 54Q658 40 684 32L716 23V0H451V23L506 32Q532 36 539 52.5Q546 69 536 99L475 270H214L157 99Q148 73 157 56.5Q166 40 196 34L251 23V0H2V23L31 32Q58 40 74 54.5Q90 69 100 95L178 306ZM353 764Q296 764 263 795.5Q230 827 230 876V898H264V892Q264 862 288 842.5Q312 823 353 823Q394 823 418 842.5Q442 862 442 892V898H476V876Q476 827 443 795.5Q410 764 353 764Z" glyph-name="Abreve" horiz-adv-x="719" unicode="&#258;" /><glyph d="M387 719 528 338H451L321 699V700H336Q353 700 364 703.5Q375 707 385 719ZM325 606 236 338H190L307 655ZM540 306 618 95Q628 68 643 54Q658 40 684 32L716 23V0H451V23L506 32Q532 36 539 52.5Q546 69 536 99L475 270H214L157 99Q148 73 157 56.5Q166 40 196 34L251 23V0H2V23L31 32Q58 40 74 54.5Q90 69 100 95L178 306ZM267 765H238L330 912H376L468 765H439L353 848Z" glyph-name="Acircumflex" horiz-adv-x="719" unicode="&#194;" /><glyph d="M387 719 528 338H451L321 699V700H336Q353 700 364 703.5Q375 707 385 719ZM325 606 236 338H190L307 655ZM540 306 618 95Q628 68 643 54Q658 40 684 32L716 23V0H451V23L506 32Q532 36 539 52.5Q546 69 536 99L475 270H214L157 99Q148 73 157 56.5Q166 40 196 34L251 23V0H2V23L31 32Q58 40 74 54.5Q90 69 100 95L178 306ZM482 838Q482 816 467 801Q452 786 430 786Q408 786 393 801Q378 816 378 838Q378 860 393 875Q408 890 430 890Q452 890 467 875Q482 860 482 838ZM326 838Q326 816 311 801Q296 786 274 786Q252 786 237 801Q222 816 222 838Q222 860 237 875Q252 890 274 890Q296 890 311 875Q326 860 326 838Z" glyph-name="Adieresis" horiz-adv-x="719" unicode="&#196;" /><glyph d="M387 719 528 338H451L321 699V700H336Q353 700 364 703.5Q375 707 385 719ZM325 606 236 338H190L307 655ZM540 306 618 95Q628 68 643 54Q658 40 684 32L716 23V0H451V23L506 32Q532 36 539 52.5Q546 69 536 99L475 270H214L157 99Q148 73 157 56.5Q166 40 196 34L251 23V0H2V23L31 32Q58 40 74 54.5Q90 69 100 95L178 306ZM364 765H345L254 912H349Z" glyph-name="Agrave" horiz-adv-x="719" unicode="&#192;" /><glyph d="M387 719 528 338H451L321 699V700H336Q353 700 364 703.5Q375 707 385 719ZM325 606 236 338H190L307 655ZM540 306 618 95Q628 68 643 54Q658 40 684 32L716 23V0H451V23L506 32Q532 36 539 52.5Q546 69 536 99L475 270H214L157 99Q148 73 157 56.5Q166 40 196 34L251 23V0H2V23L31 32Q58 40 74 54.5Q90 69 100 95L178 306ZM489 791H218V848H489Z" glyph-name="Amacron" horiz-adv-x="719" unicode="&#256;" /><glyph d="M387 719 528 338H451L321 699V700H336Q353 700 364 703.5Q375 707 385 719ZM325 606 236 338H190L307 655ZM696 -152 693 -173Q680 -180 662.5 -184Q645 -188 627 -188Q591 -188 567.5 -169Q544 -150 544 -116Q544 -85 570 -53.5Q596 -22 640 0H451V23L506 32Q532 36 539 52.5Q546 69 536 99L475 270H214L157 99Q148 73 157 56.5Q166 40 196 34L251 23V0H2V23L31 32Q58 40 74 54.5Q90 69 100 95L178 306H540L618 95Q628 68 643 54Q658 40 684 32L716 23V0H671Q640 -32 624.5 -58Q609 -84 609 -104Q609 -126 627.5 -140Q646 -154 674 -154Q678 -154 684.5 -153.5Q691 -153 696 -152Z" glyph-name="Aogonek" horiz-adv-x="718" unicode="&#260;" /><glyph d="M387 719 528 338H451L321 699V700H336Q353 700 364 703.5Q375 707 385 719ZM325 606 236 338H190L307 655ZM540 306 618 95Q628 68 643 54Q658 40 684 32L716 23V0H451V23L506 32Q532 36 539 52.5Q546 69 536 99L475 270H214L157 99Q148 73 157 56.5Q166 40 196 34L251 23V0H2V23L31 32Q58 40 74 54.5Q90 69 100 95L178 306ZM353 921Q331 921 313.5 907Q296 893 291 871H258Q264 905 291 928Q318 951 353 951Q388 951 415 928Q442 905 448 871H415Q410 893 392.5 907Q375 921 353 921ZM353 760Q318 760 291 782.5Q264 805 258 839H291Q296 817 313.5 803.5Q331 790 353 790Q375 790 392.5 803.5Q410 817 415 839H448Q442 805 415 782.5Q388 760 353 760Z" glyph-name="Aring" horiz-adv-x="719" unicode="&#197;" /><glyph d="M387 719 528 338H451L321 699V700H336Q353 700 364 703.5Q375 707 385 719ZM325 606 236 338H190L307 655ZM540 306 618 95Q628 68 643 54Q658 40 684 32L716 23V0H451V23L506 32Q532 36 539 52.5Q546 69 536 99L475 270H214L157 99Q148 73 157 56.5Q166 40 196 34L251 23V0H2V23L31 32Q58 40 74 54.5Q90 69 100 95L178 306ZM282 816Q264 816 253.5 804Q243 792 241 772L220 776Q220 823 239.5 849.5Q259 876 293 876Q304 876 318 872Q332 868 362 856Q390 844 402.5 840.5Q415 837 424 837Q442 837 452.5 849Q463 861 465 881L486 877Q486 830 466.5 803.5Q447 777 413 777Q402 777 388 781Q374 785 344 797Q316 809 303.5 812.5Q291 816 282 816Z" glyph-name="Atilde" horiz-adv-x="719" unicode="&#195;" /><glyph d="M397 406Q428 428 445 460.5Q462 493 462 533Q462 598 415.5 633Q369 668 282 668H249V700H328Q422 700 480 658.5Q538 617 538 551Q538 502 506.5 459.5Q475 417 429 399Q417 402 410 403.5Q403 405 397 406ZM215 0H50V23L91 32Q117 38 129 52.5Q141 67 141 95V605Q141 633 129 647.5Q117 662 91 668L50 677V700H215ZM310 0H249V32H295Q391 32 443.5 75Q496 118 496 193Q496 270 440.5 312.5Q385 355 282 355H249V387H300Q430 387 503 335Q576 283 576 195Q576 111 504 55.5Q432 0 310 0Z" glyph-name="B" horiz-adv-x="624" unicode="B" /><glyph d="M405 680V715Q463 716 526.5 706Q590 696 657 677L654 516H623L607 559Q584 621 534.5 650.5Q485 680 405 680ZM54 350Q54 490 142 592.5Q230 695 371 712V676Q270 657 204.5 567Q139 477 139 350Q139 228 203.5 138Q268 48 371 26V-12Q227 3 140.5 103.5Q54 204 54 350ZM405 -15V21Q492 23 540 52Q588 81 615 145L635 194H665L648 24Q598 6 532.5 -4.5Q467 -15 405 -15Z" glyph-name="C" horiz-adv-x="717" unicode="C" /><glyph glyph-name="CR" horiz-adv-x="0" /><glyph d="M405 680V715Q463 716 526.5 706Q590 696 657 677L654 516H623L607 559Q584 621 534.5 650.5Q485 680 405 680ZM54 350Q54 490 142 592.5Q230 695 371 712V676Q270 657 204.5 567Q139 477 139 350Q139 228 203.5 138Q268 48 371 26V-12Q227 3 140.5 103.5Q54 204 54 350ZM405 -15V21Q492 23 540 52Q588 81 615 145L635 194H665L648 24Q598 6 532.5 -4.5Q467 -15 405 -15ZM408 765H389L404 912H499Z" glyph-name="Cacute" horiz-adv-x="717" unicode="&#262;" /><glyph d="M405 680V715Q463 716 526.5 706Q590 696 657 677L654 516H623L607 559Q584 621 534.5 650.5Q485 680 405 680ZM54 350Q54 490 142 592.5Q230 695 371 712V676Q270 657 204.5 567Q139 477 139 350Q139 228 203.5 138Q268 48 371 26V-12Q227 3 140.5 103.5Q54 204 54 350ZM405 -15V21Q492 23 540 52Q588 81 615 145L635 194H665L648 24Q598 6 532.5 -4.5Q467 -15 405 -15ZM378 765 286 912H315L401 829L487 912H516L424 765Z" glyph-name="Ccaron" horiz-adv-x="717" unicode="&#268;" /><glyph d="M405 680V715Q463 716 526.5 706Q590 696 657 677L654 516H623L607 559Q584 621 534.5 650.5Q485 680 405 680ZM405 -15V21Q492 23 540 52Q588 81 615 145L635 194H665L648 24Q598 6 532.5 -4.5Q467 -15 405 -15ZM459 -145Q459 -179 431 -201.5Q403 -224 362 -224Q335 -224 309.5 -217Q284 -210 263 -197L276 -177Q293 -184 308 -187.5Q323 -191 335 -191Q363 -191 379.5 -178Q396 -165 396 -142Q396 -121 373.5 -105Q351 -89 318 -83L317 -80L354 -10Q217 10 135.5 109.5Q54 209 54 350Q54 490 142 592.5Q230 695 371 712V676Q270 657 204.5 567Q139 477 139 350Q139 228 203.5 138Q268 48 371 26V-64Q407 -69 433 -91Q459 -113 459 -145Z" glyph-name="Ccedilla" horiz-adv-x="717" unicode="&#199;" /><glyph d="M405 680V715Q463 716 526.5 706Q590 696 657 677L654 516H623L607 559Q584 621 534.5 650.5Q485 680 405 680ZM54 350Q54 490 142 592.5Q230 695 371 712V676Q270 657 204.5 567Q139 477 139 350Q139 228 203.5 138Q268 48 371 26V-12Q227 3 140.5 103.5Q54 204 54 350ZM405 -15V21Q492 23 540 52Q588 81 615 145L635 194H665L648 24Q598 6 532.5 -4.5Q467 -15 405 -15ZM315 765H286L378 912H424L516 765H487L401 848Z" glyph-name="Ccircumflex" horiz-adv-x="717" unicode="&#264;" /><glyph d="M405 680V715Q463 716 526.5 706Q590 696 657 677L654 516H623L607 559Q584 621 534.5 650.5Q485 680 405 680ZM54 350Q54 490 142 592.5Q230 695 371 712V676Q270 657 204.5 567Q139 477 139 350Q139 228 203.5 138Q268 48 371 26V-12Q227 3 140.5 103.5Q54 204 54 350ZM405 -15V21Q492 23 540 52Q588 81 615 145L635 194H665L648 24Q598 6 532.5 -4.5Q467 -15 405 -15ZM464 834Q464 808 445.5 789.5Q427 771 401 771Q375 771 356.5 789.5Q338 808 338 834Q338 860 356.5 878Q375 896 401 896Q427 896 445.5 878Q464 860 464 834Z" glyph-name="Cdotaccent" horiz-adv-x="717" unicode="&#266;" /><glyph d="M646 350Q646 496 552.5 581.5Q459 667 309 667H249V700H324Q501 700 615.5 604.5Q730 509 730 350Q730 191 615.5 95.5Q501 0 324 0H249V33H309Q459 33 552.5 118.5Q646 204 646 350ZM215 700V0H50V23L91 32Q117 38 129 52.5Q141 67 141 95V605Q141 633 129 647.5Q117 662 91 668L50 677V700Z" glyph-name="D" horiz-adv-x="784" unicode="D" /><glyph d="M646 350Q646 496 552.5 581.5Q459 667 309 667H249V700H324Q501 700 615.5 604.5Q730 509 730 350Q730 191 615.5 95.5Q501 0 324 0H249V33H309Q459 33 552.5 118.5Q646 204 646 350ZM215 700V0H50V23L91 32Q117 38 129 52.5Q141 67 141 95V605Q141 633 129 647.5Q117 662 91 668L50 677V700ZM364 765 272 912H301L387 829L473 912H502L410 765Z" glyph-name="Dcaron" horiz-adv-x="784" unicode="&#270;" /><glyph d="M646 350Q646 496 552.5 581.5Q459 667 309 667H249V700H324Q501 700 615.5 604.5Q730 509 730 350Q730 191 615.5 95.5Q501 0 324 0H249V33H309Q459 33 552.5 118.5Q646 204 646 350ZM383 366V333H215V0H50V23L91 32Q117 38 129 52.5Q141 67 141 95V333H43V366H141V605Q141 633 129 647.5Q117 662 91 668L50 677V700H215V366Z" glyph-name="Dcroat" horiz-adv-x="784" unicode="&#272;" /><glyph d="M249 667V700H351Q414 700 468.5 702Q523 704 570 708L568 546H537L513 619Q504 647 493.5 655.5Q483 664 464 664Q464 664 464 664Q464 664 464 664ZM215 345V0H50V23L91 32Q117 38 129 52.5Q141 67 141 95V605Q141 633 129 647.5Q117 662 91 668L50 677V700H215V381L325 384Q354 385 367.5 394.5Q381 404 388 426L404 480H426V246H404L388 300Q381 321 367.5 330Q354 339 325 342ZM590 0H249V34L439 36Q485 37 507 54.5Q529 72 559 145L579 194H609Z" glyph-name="E" horiz-adv-x="651" unicode="E" /><glyph d="M249 667V700H351Q414 700 468.5 702Q523 704 570 708L568 546H537L513 619Q504 647 493.5 655.5Q483 664 464 664Q464 664 464 664Q464 664 464 664ZM215 345V0H50V23L91 32Q117 38 129 52.5Q141 67 141 95V605Q141 633 129 647.5Q117 662 91 668L50 677V700H215V381L325 384Q354 385 367.5 394.5Q381 404 388 426L404 480H426V246H404L388 300Q381 321 367.5 330Q354 339 325 342ZM590 0H249V34L439 36Q485 37 507 54.5Q529 72 559 145L579 194H609ZM339 765H320L335 912H430Z" glyph-name="Eacute" horiz-adv-x="651" unicode="&#201;" /><glyph d="M249 667V700H351Q414 700 468.5 702Q523 704 570 708L568 546H537L513 619Q504 647 493.5 655.5Q483 664 464 664Q464 664 464 664Q464 664 464 664ZM215 345V0H50V23L91 32Q117 38 129 52.5Q141 67 141 95V605Q141 633 129 647.5Q117 662 91 668L50 677V700H215V381L325 384Q354 385 367.5 394.5Q381 404 388 426L404 480H426V246H404L388 300Q381 321 367.5 330Q354 339 325 342ZM590 0H249V34L439 36Q485 37 507 54.5Q529 72 559 145L579 194H609ZM332 764Q275 764 242 795.5Q209 827 209 876V898H243V892Q243 862 267 842.5Q291 823 332 823Q373 823 397 842.5Q421 862 421 892V898H455V876Q455 827 422 795.5Q389 764 332 764Z" glyph-name="Ebreve" horiz-adv-x="651" unicode="&#276;" /><glyph d="M249 667V700H351Q414 700 468.5 702Q523 704 570 708L568 546H537L513 619Q504 647 493.5 655.5Q483 664 464 664Q464 664 464 664Q464 664 464 664ZM215 345V0H50V23L91 32Q117 38 129 52.5Q141 67 141 95V605Q141 633 129 647.5Q117 662 91 668L50 677V700H215V381L325 384Q354 385 367.5 394.5Q381 404 388 426L404 480H426V246H404L388 300Q381 321 367.5 330Q354 339 325 342ZM590 0H249V34L439 36Q485 37 507 54.5Q529 72 559 145L579 194H609ZM309 765 217 912H246L332 829L418 912H447L355 765Z" glyph-name="Ecaron" horiz-adv-x="651" unicode="&#282;" /><glyph d="M249 667V700H351Q414 700 468.5 702Q523 704 570 708L568 546H537L513 619Q504 647 493.5 655.5Q483 664 464 664Q464 664 464 664Q464 664 464 664ZM215 345V0H50V23L91 32Q117 38 129 52.5Q141 67 141 95V605Q141 633 129 647.5Q117 662 91 668L50 677V700H215V381L325 384Q354 385 367.5 394.5Q381 404 388 426L404 480H426V246H404L388 300Q381 321 367.5 330Q354 339 325 342ZM590 0H249V34L439 36Q485 37 507 54.5Q529 72 559 145L579 194H609ZM246 765H217L309 912H355L447 765H418L332 848Z" glyph-name="Ecircumflex" horiz-adv-x="651" unicode="&#202;" /><glyph d="M249 667V700H351Q414 700 468.5 702Q523 704 570 708L568 546H537L513 619Q504 647 493.5 655.5Q483 664 464 664Q464 664 464 664Q464 664 464 664ZM215 345V0H50V23L91 32Q117 38 129 52.5Q141 67 141 95V605Q141 633 129 647.5Q117 662 91 668L50 677V700H215V381L325 384Q354 385 367.5 394.5Q381 404 388 426L404 480H426V246H404L388 300Q381 321 367.5 330Q354 339 325 342ZM590 0H249V34L439 36Q485 37 507 54.5Q529 72 559 145L579 194H609ZM461 838Q461 816 446 801Q431 786 409 786Q387 786 372 801Q357 816 357 838Q357 860 372 875Q387 890 409 890Q431 890 446 875Q461 860 461 838ZM305 838Q305 816 290 801Q275 786 253 786Q231 786 216 801Q201 816 201 838Q201 860 216 875Q231 890 253 890Q275 890 290 875Q305 860 305 838Z" glyph-name="Edieresis" horiz-adv-x="651" unicode="&#203;" /><glyph d="M249 667V700H351Q414 700 468.5 702Q523 704 570 708L568 546H537L513 619Q504 647 493.5 655.5Q483 664 464 664Q464 664 464 664Q464 664 464 664ZM215 345V0H50V23L91 32Q117 38 129 52.5Q141 67 141 95V605Q141 633 129 647.5Q117 662 91 668L50 677V700H215V381L325 384Q354 385 367.5 394.5Q381 404 388 426L404 480H426V246H404L388 300Q381 321 367.5 330Q354 339 325 342ZM590 0H249V34L439 36Q485 37 507 54.5Q529 72 559 145L579 194H609ZM395 834Q395 808 376.5 789.5Q358 771 332 771Q306 771 287.5 789.5Q269 808 269 834Q269 860 287.5 878Q306 896 332 896Q358 896 376.5 878Q395 860 395 834Z" glyph-name="Edotaccent" horiz-adv-x="651" unicode="&#278;" /><glyph d="M249 667V700H351Q414 700 468.5 702Q523 704 570 708L568 546H537L513 619Q504 647 493.5 655.5Q483 664 464 664Q464 664 464 664Q464 664 464 664ZM215 345V0H50V23L91 32Q117 38 129 52.5Q141 67 141 95V605Q141 633 129 647.5Q117 662 91 668L50 677V700H215V381L325 384Q354 385 367.5 394.5Q381 404 388 426L404 480H426V246H404L388 300Q381 321 367.5 330Q354 339 325 342ZM590 0H249V34L439 36Q485 37 507 54.5Q529 72 559 145L579 194H609ZM343 765H324L233 912H328Z" glyph-name="Egrave" horiz-adv-x="651" unicode="&#200;" /><glyph d="M249 667V700H351Q414 700 468.5 702Q523 704 570 708L568 546H537L513 619Q504 647 493.5 655.5Q483 664 464 664Q464 664 464 664Q464 664 464 664ZM215 345V0H50V23L91 32Q117 38 129 52.5Q141 67 141 95V605Q141 633 129 647.5Q117 662 91 668L50 677V700H215V381L325 384Q354 385 367.5 394.5Q381 404 388 426L404 480H426V246H404L388 300Q381 321 367.5 330Q354 339 325 342ZM590 0H249V34L439 36Q485 37 507 54.5Q529 72 559 145L579 194H609ZM468 791H197V848H468Z" glyph-name="Emacron" horiz-adv-x="651" unicode="&#274;" /><glyph d="M698 605V132L658 183L646 605Q645 631 632 646Q619 661 592 667L544 677V700H789V677L748 668Q722 662 710 647.5Q698 633 698 605ZM136 95 146 574 187 522 188 95Q188 68 200.5 53.5Q213 39 242 33L290 23V0H45V23L86 32Q111 38 123 52Q135 66 136 95ZM552 -217Q510 -217 480 -194Q450 -171 450 -135Q450 -113 466.5 -97Q483 -81 505 -81Q527 -81 542.5 -97Q558 -113 558 -135Q558 -147 552.5 -160Q547 -173 539 -180Q543 -181 549.5 -182Q556 -183 560 -183Q604 -183 632 -147.5Q660 -112 660 -62V0L151 634Q138 650 122 659.5Q106 669 83 673L57 678V700H213Q250 646 282.5 601.5Q315 557 343 521L698 77V-56Q698 -128 657.5 -172.5Q617 -217 552 -217Z" glyph-name="Eng" horiz-adv-x="830" unicode="&#330;" /><glyph d="M464 664 249 667V700H351Q414 700 468.5 702Q523 704 570 708L568 546H537L513 619Q504 647 493.5 655.5Q483 664 464 664ZM325 342 215 345V0H50V23L91 32Q117 38 129 52.5Q141 67 141 95V605Q141 633 129 647.5Q117 662 91 668L50 677V700H215V381L325 384Q354 385 367.5 394.5Q381 404 388 426L404 480H426V246H404L388 300Q381 321 367.5 330Q354 339 325 342ZM546 -152 543 -173Q530 -180 512.5 -184Q495 -188 477 -188Q441 -188 417.5 -169Q394 -150 394 -116Q394 -85 420 -53.5Q446 -22 490 0H249V34L439 36Q485 37 507 54.5Q529 72 559 145L579 194H609L590 0H521Q490 -32 474.5 -58Q459 -84 459 -104Q459 -126 477.5 -140Q496 -154 524 -154Q528 -154 534.5 -153.5Q541 -153 546 -152Z" glyph-name="Eogonek" horiz-adv-x="651" unicode="&#280;" /><glyph d="M646 350Q646 496 552.5 581.5Q459 667 309 667H249V700H324Q501 700 615.5 604.5Q730 509 730 350Q730 191 615.5 95.5Q501 0 324 0H249V33H309Q459 33 552.5 118.5Q646 204 646 350ZM383 366V333H215V0H50V23L91 32Q117 38 129 52.5Q141 67 141 95V333H43V366H141V605Q141 633 129 647.5Q117 662 91 668L50 677V700H215V366Z" glyph-name="Eth" horiz-adv-x="784" unicode="&#208;" /><glyph d="M430 682V715Q477 714 530 704.5Q583 695 612 684V525H586L575 565Q560 620 522.5 651Q485 682 430 682ZM396 33V-15Q295 -12 226.5 55.5Q158 123 134 239H49V280H127Q125 295 124 312.5Q123 330 123 350Q123 366 124 382.5Q125 399 128 419H49V460H135Q160 570 228.5 637Q297 704 396 714V680Q325 670 279.5 614Q234 558 217 460H458V419H211Q210 402 209 384.5Q208 367 208 350Q208 330 209 312.5Q210 295 212 280H458V239H218Q236 148 281 95Q326 42 396 33ZM430 -14V31Q501 33 547.5 79Q594 125 604 205H636Q636 113 577 51.5Q518 -10 430 -14Z" glyph-name="Euro" horiz-adv-x="691" unicode="&#8364;" /><glyph d="M464 664 249 667V700H351Q414 700 468.5 702Q523 704 570 708L568 546H537L513 619Q504 647 493.5 655.5Q483 664 464 664ZM50 700H215V371L365 374Q394 375 407.5 384.5Q421 394 428 416L444 470H466V236H444L428 290Q421 312 406.5 321.5Q392 331 365 332L215 335V95Q215 67 227 53Q239 39 268 33L316 23V0H50V23L91 32Q117 38 129 52.5Q141 67 141 95V605Q141 633 129 647.5Q117 662 91 668L50 677Z" glyph-name="F" horiz-adv-x="603" unicode="F" /><glyph d="M405 679V714Q459 719 532.5 708.5Q606 698 671 677L668 516H637L619 562Q592 629 541 657Q490 685 405 679ZM138 350Q138 230 201 144.5Q264 59 371 33V-12Q226 6 139.5 105Q53 204 53 350Q53 487 140 588.5Q227 690 371 710V674Q265 653 201.5 565.5Q138 478 138 350ZM405 -14V27Q482 17 541.5 37.5Q601 58 601 98V225Q601 253 589 267.5Q577 282 551 287L500 297V320H746V297L722 291Q698 285 686.5 269.5Q675 254 675 225V74H720V49Q651 16 563 -2Q475 -20 405 -14Z" glyph-name="G" horiz-adv-x="786" unicode="G" /><glyph d="M405 679V714Q459 719 532.5 708.5Q606 698 671 677L668 516H637L619 562Q592 629 541 657Q490 685 405 679ZM138 350Q138 230 201 144.5Q264 59 371 33V-12Q226 6 139.5 105Q53 204 53 350Q53 487 140 588.5Q227 690 371 710V674Q265 653 201.5 565.5Q138 478 138 350ZM405 -14V27Q482 17 541.5 37.5Q601 58 601 98V225Q601 253 589 267.5Q577 282 551 287L500 297V320H746V297L722 291Q698 285 686.5 269.5Q675 254 675 225V74H720V49Q651 16 563 -2Q475 -20 405 -14ZM401 764Q344 764 311 795.5Q278 827 278 876V898H312V892Q312 862 336 842.5Q360 823 401 823Q442 823 466 842.5Q490 862 490 892V898H524V876Q524 827 491 795.5Q458 764 401 764Z" glyph-name="Gbreve" horiz-adv-x="786" unicode="&#286;" /><glyph d="M405 679V714Q459 719 532.5 708.5Q606 698 671 677L668 516H637L619 562Q592 629 541 657Q490 685 405 679ZM138 350Q138 230 201 144.5Q264 59 371 33V-12Q226 6 139.5 105Q53 204 53 350Q53 487 140 588.5Q227 690 371 710V674Q265 653 201.5 565.5Q138 478 138 350ZM405 -14V27Q482 17 541.5 37.5Q601 58 601 98V225Q601 253 589 267.5Q577 282 551 287L500 297V320H746V297L722 291Q698 285 686.5 269.5Q675 254 675 225V74H720V49Q651 16 563 -2Q475 -20 405 -14ZM315 765H286L378 912H424L516 765H487L401 848Z" glyph-name="Gcircumflex" horiz-adv-x="786" unicode="&#284;" /><glyph d="M405 679V714Q459 719 532.5 708.5Q606 698 671 677L668 516H637L619 562Q592 629 541 657Q490 685 405 679ZM138 350Q138 230 201 144.5Q264 59 371 33V-12Q226 6 139.5 105Q53 204 53 350Q53 487 140 588.5Q227 690 371 710V674Q265 653 201.5 565.5Q138 478 138 350ZM405 -14V27Q482 17 541.5 37.5Q601 58 601 98V225Q601 253 589 267.5Q577 282 551 287L500 297V320H746V297L722 291Q698 285 686.5 269.5Q675 254 675 225V74H720V49Q651 16 563 -2Q475 -20 405 -14ZM395 -180Q370 -180 353 -162Q336 -144 336 -118Q336 -93 354.5 -74Q373 -55 400 -55Q432 -55 454 -81Q476 -107 476 -143Q476 -192 445 -233Q414 -274 355 -303L344 -291Q389 -259 413 -227Q437 -195 442 -161L440 -160Q434 -169 421.5 -174.5Q409 -180 395 -180Z" glyph-name="Gcommaaccent" horiz-adv-x="786" unicode="&#290;" /><glyph d="M405 679V714Q459 719 532.5 708.5Q606 698 671 677L668 516H637L619 562Q592 629 541 657Q490 685 405 679ZM138 350Q138 230 201 144.5Q264 59 371 33V-12Q226 6 139.5 105Q53 204 53 350Q53 487 140 588.5Q227 690 371 710V674Q265 653 201.5 565.5Q138 478 138 350ZM405 -14V27Q482 17 541.5 37.5Q601 58 601 98V225Q601 253 589 267.5Q577 282 551 287L500 297V320H746V297L722 291Q698 285 686.5 269.5Q675 254 675 225V74H720V49Q651 16 563 -2Q475 -20 405 -14ZM464 834Q464 808 445.5 789.5Q427 771 401 771Q375 771 356.5 789.5Q338 808 338 834Q338 860 356.5 878Q375 896 401 896Q427 896 445.5 878Q464 860 464 834Z" glyph-name="Gdotaccent" horiz-adv-x="786" unicode="&#288;" /><glyph d="M692 605V414H618V605Q618 633 606 647.5Q594 662 568 668L527 677V700H783V677L742 668Q716 662 704 647.5Q692 633 692 605ZM306 23V0H50V23L91 32Q117 38 129 52.5Q141 67 141 95V605Q141 633 129 647.5Q117 662 91 668L50 677V700H306V677L265 668Q239 662 227 647.5Q215 633 215 605V95Q215 67 227 52.5Q239 38 265 32ZM249 344V382H692V95Q692 67 704 52.5Q716 38 742 32L783 23V0H527V23L568 32Q594 38 606 52.5Q618 67 618 95V344Z" glyph-name="H" horiz-adv-x="833" unicode="H" /><glyph d="M266 32 307 23V0H51V23L92 32Q118 38 130 52.5Q142 67 142 95V494H33V532H142V605Q142 633 130 647.5Q118 662 92 668L51 677V700H307V677L266 668Q240 662 228 647.5Q216 633 216 605V532H619V605Q619 633 607 647.5Q595 662 569 668L528 677V700H784V677L743 668Q717 662 705 647.5Q693 633 693 605V532H802V494H693V414H619V494H216V95Q216 67 228 52.5Q240 38 266 32ZM250 344V382H693V95Q693 67 705 52.5Q717 38 743 32L784 23V0H528V23L569 32Q595 38 607 52.5Q619 67 619 95V344Z" glyph-name="Hbar" horiz-adv-x="835" unicode="&#294;" /><glyph d="M692 605V414H618V605Q618 633 606 647.5Q594 662 568 668L527 677V700H783V677L742 668Q716 662 704 647.5Q692 633 692 605ZM306 23V0H50V23L91 32Q117 38 129 52.5Q141 67 141 95V605Q141 633 129 647.5Q117 662 91 668L50 677V700H306V677L265 668Q239 662 227 647.5Q215 633 215 605V95Q215 67 227 52.5Q239 38 265 32ZM249 344V382H692V95Q692 67 704 52.5Q716 38 742 32L783 23V0H527V23L568 32Q594 38 606 52.5Q618 67 618 95V344ZM330 765H301L393 912H439L531 765H502L416 848Z" glyph-name="Hcircumflex" horiz-adv-x="833" unicode="&#292;" /><glyph d="M215 605V95Q215 67 227 52.5Q239 38 265 32L306 23V0H50V23L91 32Q117 38 129 52.5Q141 67 141 95V605Q141 633 129 647.5Q117 662 91 668L50 677V700H306V677L265 668Q239 662 227 647.5Q215 633 215 605Z" glyph-name="I" horiz-adv-x="356" unicode="I" /><glyph d="M215 605V95Q215 67 227 52.5Q239 38 265 32L306 23V0H50V23L91 32Q117 38 129 52.5Q141 67 141 95V605Q141 633 129 647.5Q117 662 91 668L50 677V700H306V677L265 668Q239 662 227 647.5Q215 633 215 605ZM564 605V22Q564 -53 523 -95.5Q482 -138 414 -138Q391 -138 369 -132.5Q347 -127 329 -116L337 -96Q350 -99 363 -100.5Q376 -102 387 -102Q438 -102 464 -72Q490 -42 490 18V605Q490 633 478 647.5Q466 662 440 668L399 677V700H645V677L614 668Q588 661 576 646Q564 631 564 605Z" glyph-name="IJ" horiz-adv-x="694" unicode="&#306;" /><glyph d="M215 605V95Q215 67 227 52.5Q239 38 265 32L306 23V0H50V23L91 32Q117 38 129 52.5Q141 67 141 95V605Q141 633 129 647.5Q117 662 91 668L50 677V700H306V677L265 668Q239 662 227 647.5Q215 633 215 605ZM185 765H166L181 912H276Z" glyph-name="Iacute" horiz-adv-x="356" unicode="&#205;" /><glyph d="M215 605V95Q215 67 227 52.5Q239 38 265 32L306 23V0H50V23L91 32Q117 38 129 52.5Q141 67 141 95V605Q141 633 129 647.5Q117 662 91 668L50 677V700H306V677L265 668Q239 662 227 647.5Q215 633 215 605ZM178 764Q121 764 88 795.5Q55 827 55 876V898H89V892Q89 862 113 842.5Q137 823 178 823Q219 823 243 842.5Q267 862 267 892V898H301V876Q301 827 268 795.5Q235 764 178 764Z" glyph-name="Ibreve" horiz-adv-x="356" unicode="&#300;" /><glyph d="M215 605V95Q215 67 227 52.5Q239 38 265 32L306 23V0H50V23L91 32Q117 38 129 52.5Q141 67 141 95V605Q141 633 129 647.5Q117 662 91 668L50 677V700H306V677L265 668Q239 662 227 647.5Q215 633 215 605ZM92 765H63L155 912H201L293 765H264L178 848Z" glyph-name="Icircumflex" horiz-adv-x="356" unicode="&#206;" /><glyph d="M215 605V95Q215 67 227 52.5Q239 38 265 32L306 23V0H50V23L91 32Q117 38 129 52.5Q141 67 141 95V605Q141 633 129 647.5Q117 662 91 668L50 677V700H306V677L265 668Q239 662 227 647.5Q215 633 215 605ZM307 838Q307 816 292 801Q277 786 255 786Q233 786 218 801Q203 816 203 838Q203 860 218 875Q233 890 255 890Q277 890 292 875Q307 860 307 838ZM151 838Q151 816 136 801Q121 786 99 786Q77 786 62 801Q47 816 47 838Q47 860 62 875Q77 890 99 890Q121 890 136 875Q151 860 151 838Z" glyph-name="Idieresis" horiz-adv-x="356" unicode="&#207;" /><glyph d="M215 605V95Q215 67 227 52.5Q239 38 265 32L306 23V0H50V23L91 32Q117 38 129 52.5Q141 67 141 95V605Q141 633 129 647.5Q117 662 91 668L50 677V700H306V677L265 668Q239 662 227 647.5Q215 633 215 605ZM241 834Q241 808 222.5 789.5Q204 771 178 771Q152 771 133.5 789.5Q115 808 115 834Q115 860 133.5 878Q152 896 178 896Q204 896 222.5 878Q241 860 241 834Z" glyph-name="Idotaccent" horiz-adv-x="356" unicode="&#304;" /><glyph d="M215 605V95Q215 67 227 52.5Q239 38 265 32L306 23V0H50V23L91 32Q117 38 129 52.5Q141 67 141 95V605Q141 633 129 647.5Q117 662 91 668L50 677V700H306V677L265 668Q239 662 227 647.5Q215 633 215 605ZM189 765H170L79 912H174Z" glyph-name="Igrave" horiz-adv-x="356" unicode="&#204;" /><glyph d="M215 605V95Q215 67 227 52.5Q239 38 265 32L306 23V0H50V23L91 32Q117 38 129 52.5Q141 67 141 95V605Q141 633 129 647.5Q117 662 91 668L50 677V700H306V677L265 668Q239 662 227 647.5Q215 633 215 605ZM314 791H43V848H314Z" glyph-name="Imacron" horiz-adv-x="356" unicode="&#298;" /><glyph d="M280 -152 277 -173Q264 -180 246.5 -184Q229 -188 211 -188Q175 -188 151.5 -169Q128 -150 128 -116Q128 -85 154 -53.5Q180 -22 224 0H50V23L91 32Q117 38 129 52.5Q141 67 141 95V605Q141 633 129 647.5Q117 662 91 668L50 677V700H306V677L265 668Q239 662 227 647.5Q215 633 215 605V95Q215 67 227 52.5Q239 38 265 32L306 23V0H255Q224 -32 208.5 -58Q193 -84 193 -104Q193 -126 211.5 -140Q230 -154 258 -154Q262 -154 268.5 -153.5Q275 -153 280 -152Z" glyph-name="Iogonek" horiz-adv-x="356" unicode="&#302;" /><glyph d="M215 605V95Q215 67 227 52.5Q239 38 265 32L306 23V0H50V23L91 32Q117 38 129 52.5Q141 67 141 95V605Q141 633 129 647.5Q117 662 91 668L50 677V700H306V677L265 668Q239 662 227 647.5Q215 633 215 605ZM107 816Q89 816 78.5 804Q68 792 66 772L45 776Q45 823 64.5 849.5Q84 876 118 876Q129 876 143 872Q157 868 187 856Q215 844 227.5 840.5Q240 837 249 837Q267 837 277.5 849Q288 861 290 881L311 877Q311 830 291.5 803.5Q272 777 238 777Q227 777 213 781Q199 785 169 797Q141 809 128.5 812.5Q116 816 107 816Z" glyph-name="Itilde" horiz-adv-x="356" unicode="&#296;" /><glyph d="M208 605V22Q208 -53 167 -95.5Q126 -138 58 -138Q35 -138 13 -132.5Q-9 -127 -27 -116L-19 -96Q-6 -99 7 -100.5Q20 -102 31 -102Q82 -102 108 -72Q134 -42 134 18V605Q134 633 122 647.5Q110 662 84 668L43 677V700H289V677L258 668Q232 661 220 646Q208 631 208 605Z" glyph-name="J" horiz-adv-x="338" unicode="J" /><glyph d="M208 605V22Q208 -53 167 -95.5Q126 -138 58 -138Q35 -138 13 -132.5Q-9 -127 -27 -116L-19 -96Q-6 -99 7 -100.5Q20 -102 31 -102Q82 -102 108 -72Q134 -42 134 18V605Q134 633 122 647.5Q110 662 84 668L43 677V700H289V677L258 668Q232 661 220 646Q208 631 208 605ZM84 765H55L147 912H193L285 765H256L170 848Z" glyph-name="Jcircumflex" horiz-adv-x="338" unicode="&#308;" /><glyph d="M555 600 248 292V341L494 603Q515 625 512.5 643Q510 661 483 667L435 677V700H674V677L652 671Q632 666 610 650Q588 634 555 600ZM214 605V95Q214 67 226 53Q238 39 267 33L315 23V0H49V23L90 32Q116 38 128 52.5Q140 67 140 95V605Q140 633 128 647.5Q116 662 90 668L49 677V700H305V677L264 668Q238 662 226 647.5Q214 633 214 605ZM497 100 337 335 385 383 539 163Q580 104 612 72.5Q644 41 683 28L698 23V0H651Q605 0 570 21.5Q535 43 497 100Z" glyph-name="K" horiz-adv-x="698" unicode="K" /><glyph d="M555 600 248 292V341L494 603Q515 625 512.5 643Q510 661 483 667L435 677V700H674V677L652 671Q632 666 610 650Q588 634 555 600ZM214 605V95Q214 67 226 53Q238 39 267 33L315 23V0H49V23L90 32Q116 38 128 52.5Q140 67 140 95V605Q140 633 128 647.5Q116 662 90 668L49 677V700H305V677L264 668Q238 662 226 647.5Q214 633 214 605ZM497 100 337 335 385 383 539 163Q580 104 612 72.5Q644 41 683 28L698 23V0H651Q605 0 570 21.5Q535 43 497 100ZM357 -180Q332 -180 315 -162Q298 -144 298 -118Q298 -93 316.5 -74Q335 -55 362 -55Q394 -55 416 -81Q438 -107 438 -143Q438 -192 407 -233Q376 -274 317 -303L306 -291Q351 -259 375 -227Q399 -195 404 -161L402 -160Q396 -169 383.5 -174.5Q371 -180 357 -180Z" glyph-name="Kcommaaccent" horiz-adv-x="698" unicode="&#310;" /><glyph d="M215 605V0H50V23L91 32Q117 38 129 52.5Q141 67 141 95V605Q141 633 129 647.5Q117 662 91 668L50 677V700H316V677L267 667Q240 662 227.5 647Q215 632 215 605ZM600 194 581 0H249V32L431 34Q478 35 500.5 53.5Q523 72 550 142L570 194Z" glyph-name="L" horiz-adv-x="631" unicode="L" /><glyph d="M215 605V0H50V23L91 32Q117 38 129 52.5Q141 67 141 95V605Q141 633 129 647.5Q117 662 91 668L50 677V700H316V677L267 667Q240 662 227.5 647Q215 632 215 605ZM600 194 581 0H249V32L431 34Q478 35 500.5 53.5Q523 72 550 142L570 194ZM185 765H166L181 912H276Z" glyph-name="Lacute" horiz-adv-x="631" unicode="&#313;" /><glyph d="M489 575Q464 575 447 593Q430 611 430 637Q430 662 448.5 681Q467 700 494 700Q526 700 548 674Q570 648 570 612Q570 563 539 522Q508 481 449 452L438 464Q483 496 507 528Q531 560 536 594L534 595Q528 586 515.5 580.5Q503 575 489 575ZM215 605V0H50V23L91 32Q117 38 129 52.5Q141 67 141 95V605Q141 633 129 647.5Q117 662 91 668L50 677V700H316V677L267 667Q240 662 227.5 647Q215 632 215 605ZM600 194 581 0H249V32L431 34Q478 35 500.5 53.5Q523 72 550 142L570 194Z" glyph-name="Lcaron" horiz-adv-x="655" unicode="&#317;" /><glyph d="M215 605V0H50V23L91 32Q117 38 129 52.5Q141 67 141 95V605Q141 633 129 647.5Q117 662 91 668L50 677V700H316V677L267 667Q240 662 227.5 647Q215 632 215 605ZM600 194 581 0H249V32L431 34Q478 35 500.5 53.5Q523 72 550 142L570 194ZM331 -180Q306 -180 289 -162Q272 -144 272 -118Q272 -93 290.5 -74Q309 -55 336 -55Q368 -55 390 -81Q412 -107 412 -143Q412 -192 381 -233Q350 -274 291 -303L280 -291Q325 -259 349 -227Q373 -195 378 -161L376 -160Q370 -169 357.5 -174.5Q345 -180 331 -180Z" glyph-name="Lcommaaccent" horiz-adv-x="631" unicode="&#315;" /><glyph d="M215 605V0H50V23L91 32Q117 38 129 52.5Q141 67 141 95V605Q141 633 129 647.5Q117 662 91 668L50 677V700H316V677L267 667Q240 662 227.5 647Q215 632 215 605ZM600 194 581 0H249V32L431 34Q478 35 500.5 53.5Q523 72 550 142L570 194ZM533 355Q533 328 514 309Q495 290 468 290Q441 290 422 309Q403 328 403 355Q403 382 422 401Q441 420 468 420Q495 420 514 401Q533 382 533 355Z" glyph-name="Ldot" horiz-adv-x="631" unicode="&#319;" /><glyph d="M217 315V0H52V23L93 32Q119 38 131 52.5Q143 67 143 95V288L31 247V282L143 323V605Q143 633 131 647.5Q119 662 93 668L52 677V700H318V677L269 667Q242 662 229.5 647Q217 632 217 605V350L471 442V407ZM602 194 583 0H251V32L433 34Q480 35 502.5 53.5Q525 72 552 142L572 194Z" glyph-name="Lslash" horiz-adv-x="633" unicode="&#321;" /><glyph d="M763 640 533 99 515 147 709 614Q719 638 712.5 654Q706 670 684 673L653 677V700H919V677L880 668Q858 663 847.5 648Q837 633 838 605L856 95Q857 66 869 52Q881 38 906 32L948 23V0H681V23L728 33Q758 39 771 53.5Q784 68 783 95L765 640ZM291 614 516 58 491 0H460L195 637H193L181 95Q180 68 193 53.5Q206 39 235 33L283 23V0H38V23L79 32Q104 38 116 52Q128 66 129 95L150 605Q151 633 140.5 648Q130 663 108 668L69 677V700H347V677L316 673Q294 670 287.5 654Q281 638 291 614Z" glyph-name="M" horiz-adv-x="987" unicode="M" /><glyph d="M698 -10H668L151 634Q138 650 122 659.5Q106 669 83 673L57 678V700H213Q250 646 282.5 601.5Q315 557 343 521L698 77ZM698 605V132L658 183L646 605Q645 631 632 646Q619 661 592 667L544 677V700H789V677L748 668Q722 662 710 647.5Q698 633 698 605ZM136 95 146 574 187 522 188 95Q188 68 200.5 53.5Q213 39 242 33L290 23V0H45V23L86 32Q111 38 123 52Q135 66 136 95Z" glyph-name="N" horiz-adv-x="830" unicode="N" /><glyph d="M698 -10H668L151 634Q138 650 122 659.5Q106 669 83 673L57 678V700H213Q250 646 282.5 601.5Q315 557 343 521L698 77ZM698 605V132L658 183L646 605Q645 631 632 646Q619 661 592 667L544 677V700H789V677L748 668Q722 662 710 647.5Q698 633 698 605ZM136 95 146 574 187 522 188 95Q188 68 200.5 53.5Q213 39 242 33L290 23V0H45V23L86 32Q111 38 123 52Q135 66 136 95ZM441 765H422L437 912H532Z" glyph-name="Nacute" horiz-adv-x="830" unicode="&#323;" /><glyph d="M698 -10H668L151 634Q138 650 122 659.5Q106 669 83 673L57 678V700H213Q250 646 282.5 601.5Q315 557 343 521L698 77ZM698 605V132L658 183L646 605Q645 631 632 646Q619 661 592 667L544 677V700H789V677L748 668Q722 662 710 647.5Q698 633 698 605ZM136 95 146 574 187 522 188 95Q188 68 200.5 53.5Q213 39 242 33L290 23V0H45V23L86 32Q111 38 123 52Q135 66 136 95ZM401 765 309 912H338L424 829L510 912H539L447 765Z" glyph-name="Ncaron" horiz-adv-x="830" unicode="&#327;" /><glyph d="M698 -10H668L151 634Q138 650 122 659.5Q106 669 83 673L57 678V700H213Q250 646 282.5 601.5Q315 557 343 521L698 77ZM698 605V132L658 183L646 605Q645 631 632 646Q619 661 592 667L544 677V700H789V677L748 668Q722 662 710 647.5Q698 633 698 605ZM136 95 146 574 187 522 188 95Q188 68 200.5 53.5Q213 39 242 33L290 23V0H45V23L86 32Q111 38 123 52Q135 66 136 95ZM388 -180Q363 -180 346 -162Q329 -144 329 -118Q329 -93 347.5 -74Q366 -55 393 -55Q425 -55 447 -81Q469 -107 469 -143Q469 -192 438 -233Q407 -274 348 -303L337 -291Q382 -259 406 -227Q430 -195 435 -161L433 -160Q427 -169 414.5 -174.5Q402 -180 388 -180Z" glyph-name="Ncommaaccent" horiz-adv-x="830" unicode="&#325;" /><glyph d="M698 -10H668L151 634Q138 650 122 659.5Q106 669 83 673L57 678V700H213Q250 646 282.5 601.5Q315 557 343 521L698 77ZM698 605V132L658 183L646 605Q645 631 632 646Q619 661 592 667L544 677V700H789V677L748 668Q722 662 710 647.5Q698 633 698 605ZM136 95 146 574 187 522 188 95Q188 68 200.5 53.5Q213 39 242 33L290 23V0H45V23L86 32Q111 38 123 52Q135 66 136 95ZM353 816Q335 816 324.5 804Q314 792 312 772L291 776Q291 823 310.5 849.5Q330 876 364 876Q375 876 389 872Q403 868 433 856Q461 844 473.5 840.5Q486 837 495 837Q513 837 523.5 849Q534 861 536 881L557 877Q557 830 537.5 803.5Q518 777 484 777Q473 777 459 781Q445 785 415 797Q387 809 374.5 812.5Q362 816 353 816Z" glyph-name="Ntilde" horiz-adv-x="830" unicode="&#209;" /><glyph d="M653 350Q653 492 585.5 581.5Q518 671 413 679V715Q551 707 644.5 602.5Q738 498 738 350Q738 202 644.5 97.5Q551 -7 413 -15V21Q518 29 585.5 118.5Q653 208 653 350ZM54 350Q54 498 147.5 602.5Q241 707 379 715V679Q274 671 206.5 581.5Q139 492 139 350Q139 208 206.5 118.5Q274 29 379 21V-15Q241 -7 147.5 97.5Q54 202 54 350Z" glyph-name="O" horiz-adv-x="792" unicode="O" /><glyph d="M893 664 678 667V700H780Q843 700 897.5 702Q952 704 999 708L997 546H966L942 619Q933 647 922.5 655.5Q912 664 893 664ZM536 33V0H461Q384 0 311 23.5Q238 47 182 90Q120 138 87 203.5Q54 269 54 347V355Q54 511 167 605.5Q280 700 461 700H536V667H486Q318 667 228.5 586.5Q139 506 139 354V348Q139 195 229 114Q319 33 486 33ZM644 700V381L754 384Q783 385 796.5 394.5Q810 404 817 426L833 480H855V246H833L817 300Q810 321 796.5 330Q783 339 754 342L644 345V0H570V700ZM1019 0H678V34L868 36Q914 37 936 54.5Q958 72 988 145L1008 194H1038Z" glyph-name="OE" horiz-adv-x="1080" unicode="&#338;" /><glyph d="M653 350Q653 492 585.5 581.5Q518 671 413 679V715Q551 707 644.5 602.5Q738 498 738 350Q738 202 644.5 97.5Q551 -7 413 -15V21Q518 29 585.5 118.5Q653 208 653 350ZM54 350Q54 498 147.5 602.5Q241 707 379 715V679Q274 671 206.5 581.5Q139 492 139 350Q139 208 206.5 118.5Q274 29 379 21V-15Q241 -7 147.5 97.5Q54 202 54 350ZM403 765H384L399 912H494Z" glyph-name="Oacute" horiz-adv-x="792" unicode="&#211;" /><glyph d="M653 350Q653 492 585.5 581.5Q518 671 413 679V715Q551 707 644.5 602.5Q738 498 738 350Q738 202 644.5 97.5Q551 -7 413 -15V21Q518 29 585.5 118.5Q653 208 653 350ZM54 350Q54 498 147.5 602.5Q241 707 379 715V679Q274 671 206.5 581.5Q139 492 139 350Q139 208 206.5 118.5Q274 29 379 21V-15Q241 -7 147.5 97.5Q54 202 54 350ZM396 764Q339 764 306 795.5Q273 827 273 876V898H307V892Q307 862 331 842.5Q355 823 396 823Q437 823 461 842.5Q485 862 485 892V898H519V876Q519 827 486 795.5Q453 764 396 764Z" glyph-name="Obreve" horiz-adv-x="792" unicode="&#334;" /><glyph d="M653 350Q653 492 585.5 581.5Q518 671 413 679V715Q551 707 644.5 602.5Q738 498 738 350Q738 202 644.5 97.5Q551 -7 413 -15V21Q518 29 585.5 118.5Q653 208 653 350ZM54 350Q54 498 147.5 602.5Q241 707 379 715V679Q274 671 206.5 581.5Q139 492 139 350Q139 208 206.5 118.5Q274 29 379 21V-15Q241 -7 147.5 97.5Q54 202 54 350ZM310 765H281L373 912H419L511 765H482L396 848Z" glyph-name="Ocircumflex" horiz-adv-x="792" unicode="&#212;" /><glyph d="M653 350Q653 492 585.5 581.5Q518 671 413 679V715Q551 707 644.5 602.5Q738 498 738 350Q738 202 644.5 97.5Q551 -7 413 -15V21Q518 29 585.5 118.5Q653 208 653 350ZM54 350Q54 498 147.5 602.5Q241 707 379 715V679Q274 671 206.5 581.5Q139 492 139 350Q139 208 206.5 118.5Q274 29 379 21V-15Q241 -7 147.5 97.5Q54 202 54 350ZM525 838Q525 816 510 801Q495 786 473 786Q451 786 436 801Q421 816 421 838Q421 860 436 875Q451 890 473 890Q495 890 510 875Q525 860 525 838ZM369 838Q369 816 354 801Q339 786 317 786Q295 786 280 801Q265 816 265 838Q265 860 280 875Q295 890 317 890Q339 890 354 875Q369 860 369 838Z" glyph-name="Odieresis" horiz-adv-x="792" unicode="&#214;" /><glyph d="M653 350Q653 492 585.5 581.5Q518 671 413 679V715Q551 707 644.5 602.5Q738 498 738 350Q738 202 644.5 97.5Q551 -7 413 -15V21Q518 29 585.5 118.5Q653 208 653 350ZM54 350Q54 498 147.5 602.5Q241 707 379 715V679Q274 671 206.5 581.5Q139 492 139 350Q139 208 206.5 118.5Q274 29 379 21V-15Q241 -7 147.5 97.5Q54 202 54 350ZM407 765H388L297 912H392Z" glyph-name="Ograve" horiz-adv-x="792" unicode="&#210;" /><glyph d="M653 350Q653 492 585.5 581.5Q518 671 413 679V715Q551 707 644.5 602.5Q738 498 738 350Q738 202 644.5 97.5Q551 -7 413 -15V21Q518 29 585.5 118.5Q653 208 653 350ZM54 350Q54 498 147.5 602.5Q241 707 379 715V679Q274 671 206.5 581.5Q139 492 139 350Q139 208 206.5 118.5Q274 29 379 21V-15Q241 -7 147.5 97.5Q54 202 54 350ZM477 765H458L473 912H568ZM331 765H312L327 912H422Z" glyph-name="Ohungarumlaut" horiz-adv-x="792" unicode="&#336;" /><glyph d="M653 350Q653 492 585.5 581.5Q518 671 413 679V715Q551 707 644.5 602.5Q738 498 738 350Q738 202 644.5 97.5Q551 -7 413 -15V21Q518 29 585.5 118.5Q653 208 653 350ZM54 350Q54 498 147.5 602.5Q241 707 379 715V679Q274 671 206.5 581.5Q139 492 139 350Q139 208 206.5 118.5Q274 29 379 21V-15Q241 -7 147.5 97.5Q54 202 54 350ZM532 791H261V848H532Z" glyph-name="Omacron" horiz-adv-x="792" unicode="&#332;" /><glyph d="M303 351Q303 296 265.5 257.5Q228 219 174 219Q120 219 82.5 257.5Q45 296 45 351Q45 406 82.5 444.5Q120 483 174 483Q228 483 265.5 444.5Q303 406 303 351Z" glyph-name="Omega" horiz-adv-x="348" unicode="&#8486;" /><glyph d="M379 21V-15Q328 -12 282 5Q236 22 196 53L121 -48L95 -29L171 73Q115 125 84.5 197Q54 269 54 350Q54 498 147.5 602.5Q241 707 379 715V679Q274 671 206.5 581.5Q139 492 139 350Q139 280 155.5 222Q172 164 205 120L566 605Q535 638 496 657Q457 676 413 679V715Q464 712 510.5 694.5Q557 677 597 647L671 747L697 728L621 626Q677 575 707.5 503Q738 431 738 350Q738 202 644.5 97.5Q551 -7 413 -15V21Q518 29 585.5 118.5Q653 208 653 350Q653 419 636 477.5Q619 536 587 580L227 94Q258 62 297 43Q336 24 379 21Z" glyph-name="Oslash" horiz-adv-x="792" unicode="&#216;" /><glyph d="M653 350Q653 492 585.5 581.5Q518 671 413 679V715Q551 707 644.5 602.5Q738 498 738 350Q738 202 644.5 97.5Q551 -7 413 -15V21Q518 29 585.5 118.5Q653 208 653 350ZM54 350Q54 498 147.5 602.5Q241 707 379 715V679Q274 671 206.5 581.5Q139 492 139 350Q139 208 206.5 118.5Q274 29 379 21V-15Q241 -7 147.5 97.5Q54 202 54 350ZM325 816Q307 816 296.5 804Q286 792 284 772L263 776Q263 823 282.5 849.5Q302 876 336 876Q347 876 361 872Q375 868 405 856Q433 844 445.5 840.5Q458 837 467 837Q485 837 495.5 849Q506 861 508 881L529 877Q529 830 509.5 803.5Q490 777 456 777Q445 777 431 781Q417 785 387 797Q359 809 346.5 812.5Q334 816 325 816Z" glyph-name="Otilde" horiz-adv-x="792" unicode="&#213;" /><glyph d="M565 506Q565 420 496.5 366Q428 312 313 312H249V344H286Q378 344 431.5 387.5Q485 431 485 506Q485 581 431.5 624.5Q378 668 286 668H249V700H313Q428 700 496.5 646Q565 592 565 506ZM215 700V95Q215 67 227 53Q239 39 268 33L316 23V0H50V23L91 32Q117 38 129 52.5Q141 67 141 95V605Q141 633 129 647.5Q117 662 91 668L50 677V700Z" glyph-name="P" horiz-adv-x="601" unicode="P" /><glyph d="M770 -153Q731 -153 685.5 -135.5Q640 -118 539 -59L456 -10Q439 -12 430 -13Q421 -14 413 -15V21Q518 29 585.5 118.5Q653 208 653 350Q653 492 585.5 581.5Q518 671 413 679V715Q551 707 644.5 602.5Q738 498 738 350Q738 240 683.5 150Q629 60 537 17L719 -68Q741 -78 768.5 -85Q796 -92 816 -92Q838 -92 857 -89Q876 -86 895 -78V-111Q861 -133 830.5 -143Q800 -153 770 -153ZM54 350Q54 498 147.5 602.5Q241 707 379 715V679Q274 671 206.5 581.5Q139 492 139 350Q139 208 206.5 118.5Q274 29 379 21V-15Q241 -7 147.5 97.5Q54 202 54 350Z" glyph-name="Q" horiz-adv-x="792" unicode="Q" /><glyph d="M573 521Q573 434 500 382Q427 330 305 330H254V363H304Q392 363 441 403.5Q490 444 490 520Q490 594 439 630.5Q388 667 284 667H254V700H315Q435 700 504 652Q573 604 573 521ZM220 95Q220 67 232 53Q244 39 273 33L321 23V0H55V23L96 32Q122 38 134 52.5Q146 67 146 95V605Q146 633 134 647.5Q122 662 96 668L55 677V700H220ZM499 100 361 301Q376 301 396 305Q416 309 431 315L541 163Q585 103 617 71.5Q649 40 685 28L700 23V0H653Q608 0 573.5 21Q539 42 499 100Z" glyph-name="R" horiz-adv-x="694" unicode="R" /><glyph d="M573 521Q573 434 500 382Q427 330 305 330H254V363H304Q392 363 441 403.5Q490 444 490 520Q490 594 439 630.5Q388 667 284 667H254V700H315Q435 700 504 652Q573 604 573 521ZM220 95Q220 67 232 53Q244 39 273 33L321 23V0H55V23L96 32Q122 38 134 52.5Q146 67 146 95V605Q146 633 134 647.5Q122 662 96 668L55 677V700H220ZM499 100 361 301Q376 301 396 305Q416 309 431 315L541 163Q585 103 617 71.5Q649 40 685 28L700 23V0H653Q608 0 573.5 21Q539 42 499 100ZM333 765H314L329 912H424Z" glyph-name="Racute" horiz-adv-x="694" unicode="&#340;" /><glyph d="M573 521Q573 434 500 382Q427 330 305 330H254V363H304Q392 363 441 403.5Q490 444 490 520Q490 594 439 630.5Q388 667 284 667H254V700H315Q435 700 504 652Q573 604 573 521ZM220 95Q220 67 232 53Q244 39 273 33L321 23V0H55V23L96 32Q122 38 134 52.5Q146 67 146 95V605Q146 633 134 647.5Q122 662 96 668L55 677V700H220ZM499 100 361 301Q376 301 396 305Q416 309 431 315L541 163Q585 103 617 71.5Q649 40 685 28L700 23V0H653Q608 0 573.5 21Q539 42 499 100ZM323 765 231 912H260L346 829L432 912H461L369 765Z" glyph-name="Rcaron" horiz-adv-x="694" unicode="&#344;" /><glyph d="M573 521Q573 434 500 382Q427 330 305 330H254V363H304Q392 363 441 403.5Q490 444 490 520Q490 594 439 630.5Q388 667 284 667H254V700H315Q435 700 504 652Q573 604 573 521ZM220 95Q220 67 232 53Q244 39 273 33L321 23V0H55V23L96 32Q122 38 134 52.5Q146 67 146 95V605Q146 633 134 647.5Q122 662 96 668L55 677V700H220ZM499 100 361 301Q376 301 396 305Q416 309 431 315L541 163Q585 103 617 71.5Q649 40 685 28L700 23V0H653Q608 0 573.5 21Q539 42 499 100ZM348 -180Q323 -180 306 -162Q289 -144 289 -118Q289 -93 307.5 -74Q326 -55 353 -55Q385 -55 407 -81Q429 -107 429 -143Q429 -192 398 -233Q367 -274 308 -303L297 -291Q342 -259 366 -227Q390 -195 395 -161L393 -160Q387 -169 374.5 -174.5Q362 -180 348 -180Z" glyph-name="Rcommaaccent" horiz-adv-x="694" unicode="&#342;" /><glyph d="M301 681V715Q342 714 390.5 707.5Q439 701 470 693L465 543H435Q425 609 392.5 643Q360 677 301 681ZM501 189Q501 111 445 53.5Q389 -4 301 -13V21Q359 28 394 67Q429 106 429 161Q429 185 422 205.5Q415 226 400 243Q388 257 371 270Q354 283 329 297Q313 306 283.5 319Q254 332 249 335Q146 385 109.5 429.5Q73 474 73 534Q73 605 126.5 656Q180 707 267 714V680Q216 673 182.5 639Q149 605 149 557Q149 512 179 477.5Q209 443 295 403Q376 365 397 352.5Q418 340 434 327Q468 299 484.5 265Q501 231 501 189ZM267 20V-15Q216 -14 159 -1.5Q102 11 69 27V217H98Q105 120 146.5 71.5Q188 23 267 20Z" glyph-name="S" horiz-adv-x="554" unicode="S" /><glyph d="M301 681V715Q342 714 390.5 707.5Q439 701 470 693L465 543H435Q425 609 392.5 643Q360 677 301 681ZM501 189Q501 111 445 53.5Q389 -4 301 -13V21Q359 28 394 67Q429 106 429 161Q429 185 422 205.5Q415 226 400 243Q388 257 371 270Q354 283 329 297Q313 306 283.5 319Q254 332 249 335Q146 385 109.5 429.5Q73 474 73 534Q73 605 126.5 656Q180 707 267 714V680Q216 673 182.5 639Q149 605 149 557Q149 512 179 477.5Q209 443 295 403Q376 365 397 352.5Q418 340 434 327Q468 299 484.5 265Q501 231 501 189ZM267 20V-15Q216 -14 159 -1.5Q102 11 69 27V217H98Q105 120 146.5 71.5Q188 23 267 20ZM285 765H266L281 912H376Z" glyph-name="Sacute" horiz-adv-x="554" unicode="&#346;" /><glyph d="M301 681V715Q342 714 390.5 707.5Q439 701 470 693L465 543H435Q425 609 392.5 643Q360 677 301 681ZM501 189Q501 111 445 53.5Q389 -4 301 -13V21Q359 28 394 67Q429 106 429 161Q429 185 422 205.5Q415 226 400 243Q388 257 371 270Q354 283 329 297Q313 306 283.5 319Q254 332 249 335Q146 385 109.5 429.5Q73 474 73 534Q73 605 126.5 656Q180 707 267 714V680Q216 673 182.5 639Q149 605 149 557Q149 512 179 477.5Q209 443 295 403Q376 365 397 352.5Q418 340 434 327Q468 299 484.5 265Q501 231 501 189ZM267 20V-15Q216 -14 159 -1.5Q102 11 69 27V217H98Q105 120 146.5 71.5Q188 23 267 20ZM255 765 163 912H192L278 829L364 912H393L301 765Z" glyph-name="Scaron" horiz-adv-x="554" unicode="&#352;" /><glyph d="M301 681V715Q342 714 390.5 707.5Q439 701 470 693L465 543H435Q425 609 392.5 643Q360 677 301 681ZM267 20V-15Q216 -14 159 -1.5Q102 11 69 27V217H98Q105 120 146.5 71.5Q188 23 267 20ZM385 -145Q385 -179 357 -201.5Q329 -224 288 -224Q261 -224 235.5 -217Q210 -210 189 -197L202 -177Q219 -184 234 -187.5Q249 -191 261 -191Q289 -191 305.5 -178Q322 -165 322 -142Q322 -121 299.5 -105Q277 -89 244 -83L243 -80L301 21Q359 28 394 67Q429 106 429 161Q429 185 422 205.5Q415 226 400 243Q388 257 371 270Q354 283 329 297Q313 306 283.5 319Q254 332 249 335Q146 385 109.5 429.5Q73 474 73 534Q73 605 126.5 656Q180 707 267 714V680Q216 673 182.5 639Q149 605 149 557Q149 512 179 477.5Q209 443 295 403Q376 365 397 352.5Q418 340 434 327Q468 299 484.5 265Q501 231 501 189Q501 114 449 57.5Q397 1 314 -11L297 -64Q333 -69 359 -91Q385 -113 385 -145Z" glyph-name="Scedilla" horiz-adv-x="554" unicode="&#350;" /><glyph d="M301 681V715Q342 714 390.5 707.5Q439 701 470 693L465 543H435Q425 609 392.5 643Q360 677 301 681ZM501 189Q501 111 445 53.5Q389 -4 301 -13V21Q359 28 394 67Q429 106 429 161Q429 185 422 205.5Q415 226 400 243Q388 257 371 270Q354 283 329 297Q313 306 283.5 319Q254 332 249 335Q146 385 109.5 429.5Q73 474 73 534Q73 605 126.5 656Q180 707 267 714V680Q216 673 182.5 639Q149 605 149 557Q149 512 179 477.5Q209 443 295 403Q376 365 397 352.5Q418 340 434 327Q468 299 484.5 265Q501 231 501 189ZM267 20V-15Q216 -14 159 -1.5Q102 11 69 27V217H98Q105 120 146.5 71.5Q188 23 267 20ZM192 765H163L255 912H301L393 765H364L278 848Z" glyph-name="Scircumflex" horiz-adv-x="554" unicode="&#348;" /><glyph d="M301 681V715Q342 714 390.5 707.5Q439 701 470 693L465 543H435Q425 609 392.5 643Q360 677 301 681ZM501 189Q501 111 445 53.5Q389 -4 301 -13V21Q359 28 394 67Q429 106 429 161Q429 185 422 205.5Q415 226 400 243Q388 257 371 270Q354 283 329 297Q313 306 283.5 319Q254 332 249 335Q146 385 109.5 429.5Q73 474 73 534Q73 605 126.5 656Q180 707 267 714V680Q216 673 182.5 639Q149 605 149 557Q149 512 179 477.5Q209 443 295 403Q376 365 397 352.5Q418 340 434 327Q468 299 484.5 265Q501 231 501 189ZM267 20V-15Q216 -14 159 -1.5Q102 11 69 27V217H98Q105 120 146.5 71.5Q188 23 267 20ZM272 -180Q247 -180 230 -162Q213 -144 213 -118Q213 -93 231.5 -74Q250 -55 277 -55Q309 -55 331 -81Q353 -107 353 -143Q353 -192 322 -233Q291 -274 232 -303L221 -291Q266 -259 290 -227Q314 -195 319 -161L317 -160Q311 -169 298.5 -174.5Q286 -180 272 -180Z" glyph-name="Scommaaccent" horiz-adv-x="554" unicode="&#536;" /><glyph d="M532 664H405V700H634V526H604L582 619Q576 644 564.5 654Q553 664 532 664ZM86 619 64 526H34V700H263V664H136Q115 664 103.5 654Q92 644 86 619ZM297 95V700H371V95Q371 67 383 53Q395 39 424 33L472 23V0H196V23L244 33Q273 39 285 53Q297 67 297 95Z" glyph-name="T" horiz-adv-x="668" unicode="T" /><glyph d="M533 664H406V700H635V526H605L583 619Q577 644 565.5 654Q554 664 533 664ZM87 619 65 526H35V700H264V664H137Q116 664 104.5 654Q93 644 87 619ZM425 33 473 23V0H197V23L245 33Q274 39 286 53Q298 67 298 95V344H165V382H298V700H372V382H506V344H372V95Q372 67 384 53Q396 39 425 33Z" glyph-name="Tbar" horiz-adv-x="670" unicode="&#358;" /><glyph d="M532 664H405V700H634V526H604L582 619Q576 644 564.5 654Q553 664 532 664ZM86 619 64 526H34V700H263V664H136Q115 664 103.5 654Q92 644 86 619ZM297 95V700H371V95Q371 67 383 53Q395 39 424 33L472 23V0H196V23L244 33Q273 39 285 53Q297 67 297 95ZM311 765 219 912H248L334 829L420 912H449L357 765Z" glyph-name="Tcaron" horiz-adv-x="668" unicode="&#356;" /><glyph d="M532 664H405V700H634V526H604L582 619Q576 644 564.5 654Q553 664 532 664ZM86 619 64 526H34V700H263V664H136Q115 664 103.5 654Q92 644 86 619ZM421 -145Q421 -179 393 -201.5Q365 -224 324 -224Q297 -224 271.5 -217Q246 -210 225 -197L238 -177Q255 -184 270 -187.5Q285 -191 297 -191Q325 -191 341.5 -178Q358 -165 358 -142Q358 -121 335.5 -105Q313 -89 280 -83L279 -80L331 0H196V23L244 33Q273 39 285 53Q297 67 297 95V700H371V95Q371 67 383 53Q395 39 424 33L472 23V0H352L333 -64Q369 -69 395 -91Q421 -113 421 -145Z" glyph-name="Tcedilla" horiz-adv-x="668" /><glyph d="M532 664H405V700H634V526H604L582 619Q576 644 564.5 654Q553 664 532 664ZM86 619 64 526H34V700H263V664H136Q115 664 103.5 654Q92 644 86 619ZM297 95V700H371V95Q371 67 383 53Q395 39 424 33L472 23V0H196V23L244 33Q273 39 285 53Q297 67 297 95ZM328 -180Q303 -180 286 -162Q269 -144 269 -118Q269 -93 287.5 -74Q306 -55 333 -55Q365 -55 387 -81Q409 -107 409 -143Q409 -192 378 -233Q347 -274 288 -303L277 -291Q322 -259 346 -227Q370 -195 375 -161L373 -160Q367 -169 354.5 -174.5Q342 -180 328 -180Z" glyph-name="Tcommaaccent" horiz-adv-x="668" unicode="&#354;" /><glyph d="M316 0H50V23L91 32Q117 38 129 52.5Q141 67 141 95V605Q141 633 129 647.5Q117 662 91 668L50 677V700H306V677L265 668Q239 662 227 647.5Q215 633 215 605V95Q215 67 227 53Q239 39 268 33L316 23ZM557 350Q557 264 488.5 210Q420 156 305 156H261V188H278Q370 188 423.5 231.5Q477 275 477 350Q477 425 423.5 468.5Q370 512 278 512H261V544H305Q420 544 488.5 490Q557 436 557 350Z" glyph-name="Thorn" horiz-adv-x="595" unicode="&#222;" /><glyph d="M374 39Q421 39 468 60.5Q515 82 539 113V73Q508 35 455.5 10Q403 -15 349 -15Q244 -15 184.5 46.5Q125 108 125 213V605Q125 633 113 647.5Q101 662 75 668L34 677V700H290V677L249 668Q223 662 211 647.5Q199 633 199 605V230Q199 141 245.5 90Q292 39 374 39ZM738 0H573V605Q573 633 561 647.5Q549 662 523 668L482 677V700H738V677L697 668Q671 662 659 647.5Q647 633 647 605V95Q647 67 659 52.5Q671 38 697 32L738 23Z" glyph-name="U" horiz-adv-x="788" unicode="U" /><glyph d="M384 20V-15Q262 -13 193.5 50Q125 113 125 224V605Q125 633 113 647.5Q101 662 75 668L34 677V700H290V677L249 668Q223 662 211 647.5Q199 633 199 605V231Q199 135 248 79.5Q297 24 384 20ZM425 -13V21Q512 30 561.5 88.5Q611 147 611 236V605Q611 633 599 647.5Q587 662 561 668L520 677V700H746V677L705 668Q679 662 667 647.5Q655 633 655 605V232Q655 131 592 64Q529 -3 425 -13Z" glyph-name="U.alt" horiz-adv-x="780" /><glyph d="M374 39Q421 39 468 60.5Q515 82 539 113V73Q508 35 455.5 10Q403 -15 349 -15Q244 -15 184.5 46.5Q125 108 125 213V605Q125 633 113 647.5Q101 662 75 668L34 677V700H290V677L249 668Q223 662 211 647.5Q199 633 199 605V230Q199 141 245.5 90Q292 39 374 39ZM738 0H573V605Q573 633 561 647.5Q549 662 523 668L482 677V700H738V677L697 668Q671 662 659 647.5Q647 633 647 605V95Q647 67 659 52.5Q671 38 697 32L738 23ZM394 765H375L390 912H485Z" glyph-name="Uacute" horiz-adv-x="788" unicode="&#218;" /><glyph d="M393 765H374L389 912H484ZM384 20V-15Q262 -13 193.5 50Q125 113 125 224V605Q125 633 113 647.5Q101 662 75 668L34 677V700H290V677L249 668Q223 662 211 647.5Q199 633 199 605V231Q199 135 248 79.5Q297 24 384 20ZM425 -13V21Q512 30 561.5 88.5Q611 147 611 236V605Q611 633 599 647.5Q587 662 561 668L520 677V700H746V677L705 668Q679 662 667 647.5Q655 633 655 605V232Q655 131 592 64Q529 -3 425 -13Z" glyph-name="Uacute.alt" horiz-adv-x="780" /><glyph d="M374 39Q421 39 468 60.5Q515 82 539 113V73Q508 35 455.5 10Q403 -15 349 -15Q244 -15 184.5 46.5Q125 108 125 213V605Q125 633 113 647.5Q101 662 75 668L34 677V700H290V677L249 668Q223 662 211 647.5Q199 633 199 605V230Q199 141 245.5 90Q292 39 374 39ZM738 0H573V605Q573 633 561 647.5Q549 662 523 668L482 677V700H738V677L697 668Q671 662 659 647.5Q647 633 647 605V95Q647 67 659 52.5Q671 38 697 32L738 23ZM387 764Q330 764 297 795.5Q264 827 264 876V898H298V892Q298 862 322 842.5Q346 823 387 823Q428 823 452 842.5Q476 862 476 892V898H510V876Q510 827 477 795.5Q444 764 387 764Z" glyph-name="Ubreve" horiz-adv-x="788" unicode="&#364;" /><glyph d="M390 764Q333 764 300 795.5Q267 827 267 876V898H301V892Q301 862 325 842.5Q349 823 390 823Q431 823 455 842.5Q479 862 479 892V898H513V876Q513 827 480 795.5Q447 764 390 764ZM384 20V-15Q262 -13 193.5 50Q125 113 125 224V605Q125 633 113 647.5Q101 662 75 668L34 677V700H290V677L249 668Q223 662 211 647.5Q199 633 199 605V231Q199 135 248 79.5Q297 24 384 20ZM425 -13V21Q512 30 561.5 88.5Q611 147 611 236V605Q611 633 599 647.5Q587 662 561 668L520 677V700H746V677L705 668Q679 662 667 647.5Q655 633 655 605V232Q655 131 592 64Q529 -3 425 -13Z" glyph-name="Ubreve.alt" horiz-adv-x="780" /><glyph d="M374 39Q421 39 468 60.5Q515 82 539 113V73Q508 35 455.5 10Q403 -15 349 -15Q244 -15 184.5 46.5Q125 108 125 213V605Q125 633 113 647.5Q101 662 75 668L34 677V700H290V677L249 668Q223 662 211 647.5Q199 633 199 605V230Q199 141 245.5 90Q292 39 374 39ZM738 0H573V605Q573 633 561 647.5Q549 662 523 668L482 677V700H738V677L697 668Q671 662 659 647.5Q647 633 647 605V95Q647 67 659 52.5Q671 38 697 32L738 23ZM301 765H272L364 912H410L502 765H473L387 848Z" glyph-name="Ucircumflex" horiz-adv-x="788" unicode="&#219;" /><glyph d="M304 765H275L367 912H413L505 765H476L390 848ZM384 20V-15Q262 -13 193.5 50Q125 113 125 224V605Q125 633 113 647.5Q101 662 75 668L34 677V700H290V677L249 668Q223 662 211 647.5Q199 633 199 605V231Q199 135 248 79.5Q297 24 384 20ZM425 -13V21Q512 30 561.5 88.5Q611 147 611 236V605Q611 633 599 647.5Q587 662 561 668L520 677V700H746V677L705 668Q679 662 667 647.5Q655 633 655 605V232Q655 131 592 64Q529 -3 425 -13Z" glyph-name="Ucircumflex.alt" horiz-adv-x="780" /><glyph d="M374 39Q421 39 468 60.5Q515 82 539 113V73Q508 35 455.5 10Q403 -15 349 -15Q244 -15 184.5 46.5Q125 108 125 213V605Q125 633 113 647.5Q101 662 75 668L34 677V700H290V677L249 668Q223 662 211 647.5Q199 633 199 605V230Q199 141 245.5 90Q292 39 374 39ZM738 0H573V605Q573 633 561 647.5Q549 662 523 668L482 677V700H738V677L697 668Q671 662 659 647.5Q647 633 647 605V95Q647 67 659 52.5Q671 38 697 32L738 23ZM515 838Q515 816 500 801Q485 786 463 786Q441 786 426 801Q411 816 411 838Q411 860 426 875Q441 890 463 890Q485 890 500 875Q515 860 515 838ZM359 838Q359 816 344 801Q329 786 307 786Q285 786 270 801Q255 816 255 838Q255 860 270 875Q285 890 307 890Q329 890 344 875Q359 860 359 838Z" glyph-name="Udieresis" horiz-adv-x="788" unicode="&#220;" /><glyph d="M520 838Q520 816 505 801Q490 786 468 786Q446 786 431 801Q416 816 416 838Q416 860 431 875Q446 890 468 890Q490 890 505 875Q520 860 520 838ZM364 838Q364 816 349 801Q334 786 312 786Q290 786 275 801Q260 816 260 838Q260 860 275 875Q290 890 312 890Q334 890 349 875Q364 860 364 838ZM384 20V-15Q262 -13 193.5 50Q125 113 125 224V605Q125 633 113 647.5Q101 662 75 668L34 677V700H290V677L249 668Q223 662 211 647.5Q199 633 199 605V231Q199 135 248 79.5Q297 24 384 20ZM425 -13V21Q512 30 561.5 88.5Q611 147 611 236V605Q611 633 599 647.5Q587 662 561 668L520 677V700H746V677L705 668Q679 662 667 647.5Q655 633 655 605V232Q655 131 592 64Q529 -3 425 -13Z" glyph-name="Udieresis.alt" horiz-adv-x="780" /><glyph d="M374 39Q421 39 468 60.5Q515 82 539 113V73Q508 35 455.5 10Q403 -15 349 -15Q244 -15 184.5 46.5Q125 108 125 213V605Q125 633 113 647.5Q101 662 75 668L34 677V700H290V677L249 668Q223 662 211 647.5Q199 633 199 605V230Q199 141 245.5 90Q292 39 374 39ZM738 0H573V605Q573 633 561 647.5Q549 662 523 668L482 677V700H738V677L697 668Q671 662 659 647.5Q647 633 647 605V95Q647 67 659 52.5Q671 38 697 32L738 23ZM397 765H378L287 912H382Z" glyph-name="Ugrave" horiz-adv-x="788" unicode="&#217;" /><glyph d="M384 20V-15Q262 -13 193.5 50Q125 113 125 224V605Q125 633 113 647.5Q101 662 75 668L34 677V700H290V677L249 668Q223 662 211 647.5Q199 633 199 605V231Q199 135 248 79.5Q297 24 384 20ZM425 -13V21Q512 30 561.5 88.5Q611 147 611 236V605Q611 633 599 647.5Q587 662 561 668L520 677V700H746V677L705 668Q679 662 667 647.5Q655 633 655 605V232Q655 131 592 64Q529 -3 425 -13ZM407 765H388L297 912H392Z" glyph-name="Ugrave.alt" horiz-adv-x="780" /><glyph d="M374 39Q421 39 468 60.5Q515 82 539 113V73Q508 35 455.5 10Q403 -15 349 -15Q244 -15 184.5 46.5Q125 108 125 213V605Q125 633 113 647.5Q101 662 75 668L34 677V700H290V677L249 668Q223 662 211 647.5Q199 633 199 605V230Q199 141 245.5 90Q292 39 374 39ZM738 0H573V605Q573 633 561 647.5Q549 662 523 668L482 677V700H738V677L697 668Q671 662 659 647.5Q647 633 647 605V95Q647 67 659 52.5Q671 38 697 32L738 23ZM467 765H448L463 912H558ZM321 765H302L317 912H412Z" glyph-name="Uhungarumlaut" horiz-adv-x="788" unicode="&#368;" /><glyph d="M467 765H448L463 912H558ZM321 765H302L317 912H412ZM384 20V-15Q262 -13 193.5 50Q125 113 125 224V605Q125 633 113 647.5Q101 662 75 668L34 677V700H290V677L249 668Q223 662 211 647.5Q199 633 199 605V231Q199 135 248 79.5Q297 24 384 20ZM425 -13V21Q512 30 561.5 88.5Q611 147 611 236V605Q611 633 599 647.5Q587 662 561 668L520 677V700H746V677L705 668Q679 662 667 647.5Q655 633 655 605V232Q655 131 592 64Q529 -3 425 -13Z" glyph-name="Uhungarumlaut.alt" horiz-adv-x="780" /><glyph d="M374 39Q421 39 468 60.5Q515 82 539 113V73Q508 35 455.5 10Q403 -15 349 -15Q244 -15 184.5 46.5Q125 108 125 213V605Q125 633 113 647.5Q101 662 75 668L34 677V700H290V677L249 668Q223 662 211 647.5Q199 633 199 605V230Q199 141 245.5 90Q292 39 374 39ZM738 0H573V605Q573 633 561 647.5Q549 662 523 668L482 677V700H738V677L697 668Q671 662 659 647.5Q647 633 647 605V95Q647 67 659 52.5Q671 38 697 32L738 23ZM523 791H252V848H523Z" glyph-name="Umacron" horiz-adv-x="788" unicode="&#362;" /><glyph d="M526 791H255V848H526ZM384 20V-15Q262 -13 193.5 50Q125 113 125 224V605Q125 633 113 647.5Q101 662 75 668L34 677V700H290V677L249 668Q223 662 211 647.5Q199 633 199 605V231Q199 135 248 79.5Q297 24 384 20ZM425 -13V21Q512 30 561.5 88.5Q611 147 611 236V605Q611 633 599 647.5Q587 662 561 668L520 677V700H746V677L705 668Q679 662 667 647.5Q655 633 655 605V232Q655 131 592 64Q529 -3 425 -13Z" glyph-name="Umacron.alt" horiz-adv-x="780" /><glyph d="M374 39Q421 39 468 60.5Q515 82 539 113V73Q508 35 455.5 10Q403 -15 349 -15Q244 -15 184.5 46.5Q125 108 125 213V605Q125 633 113 647.5Q101 662 75 668L34 677V700H290V677L249 668Q223 662 211 647.5Q199 633 199 605V230Q199 141 245.5 90Q292 39 374 39ZM712 -152 709 -173Q696 -180 678.5 -184Q661 -188 643 -188Q607 -188 583.5 -169Q560 -150 560 -116Q560 -85 586 -53.5Q612 -22 656 0H573V605Q573 633 561 647.5Q549 662 523 668L482 677V700H738V677L697 668Q671 662 659 647.5Q647 633 647 605V95Q647 67 659 52.5Q671 38 697 32L738 23V0H687Q656 -32 640.5 -58Q625 -84 625 -104Q625 -126 643.5 -140Q662 -154 690 -154Q694 -154 700.5 -153.5Q707 -153 712 -152Z" glyph-name="Uogonek" horiz-adv-x="788" unicode="&#370;" /><glyph d="M435 -188Q399 -188 375.5 -169Q352 -150 352 -116Q352 -89 371.5 -61.5Q391 -34 425 -13V21Q512 30 561.5 88.5Q611 147 611 236V605Q611 633 599 647.5Q587 662 561 668L520 677V700H746V677L705 668Q679 662 667 647.5Q655 633 655 605V232Q655 145 607 82Q559 19 475 -4Q447 -33 432 -58.5Q417 -84 417 -104Q417 -126 435.5 -140Q454 -154 482 -154Q486 -154 492.5 -153.5Q499 -153 504 -152L501 -173Q488 -180 470.5 -184Q453 -188 435 -188ZM384 20V-15Q262 -13 193.5 50Q125 113 125 224V605Q125 633 113 647.5Q101 662 75 668L34 677V700H290V677L249 668Q223 662 211 647.5Q199 633 199 605V231Q199 135 248 79.5Q297 24 384 20Z" glyph-name="Uogonek.alt" horiz-adv-x="780" /><glyph d="M374 39Q421 39 468 60.5Q515 82 539 113V73Q508 35 455.5 10Q403 -15 349 -15Q244 -15 184.5 46.5Q125 108 125 213V605Q125 633 113 647.5Q101 662 75 668L34 677V700H290V677L249 668Q223 662 211 647.5Q199 633 199 605V230Q199 141 245.5 90Q292 39 374 39ZM738 0H573V605Q573 633 561 647.5Q549 662 523 668L482 677V700H738V677L697 668Q671 662 659 647.5Q647 633 647 605V95Q647 67 659 52.5Q671 38 697 32L738 23ZM386 921Q364 921 346.5 907Q329 893 324 871H291Q297 905 324 928Q351 951 386 951Q421 951 448 928Q475 905 481 871H448Q443 893 425.5 907Q408 921 386 921ZM386 760Q351 760 324 782.5Q297 805 291 839H324Q329 817 346.5 803.5Q364 790 386 790Q408 790 425.5 803.5Q443 817 448 839H481Q475 805 448 782.5Q421 760 386 760Z" glyph-name="Uring" horiz-adv-x="788" unicode="&#366;" /><glyph d="M389 921Q367 921 349.5 907Q332 893 327 871H294Q300 905 327 928Q354 951 389 951Q424 951 451 928Q478 905 484 871H451Q446 893 428.5 907Q411 921 389 921ZM389 760Q354 760 327 782.5Q300 805 294 839H327Q332 817 349.5 803.5Q367 790 389 790Q411 790 428.5 803.5Q446 817 451 839H484Q478 805 451 782.5Q424 760 389 760ZM384 20V-15Q262 -13 193.5 50Q125 113 125 224V605Q125 633 113 647.5Q101 662 75 668L34 677V700H290V677L249 668Q223 662 211 647.5Q199 633 199 605V231Q199 135 248 79.5Q297 24 384 20ZM425 -13V21Q512 30 561.5 88.5Q611 147 611 236V605Q611 633 599 647.5Q587 662 561 668L520 677V700H746V677L705 668Q679 662 667 647.5Q655 633 655 605V232Q655 131 592 64Q529 -3 425 -13Z" glyph-name="Uring.alt" horiz-adv-x="780" /><glyph d="M374 39Q421 39 468 60.5Q515 82 539 113V73Q508 35 455.5 10Q403 -15 349 -15Q244 -15 184.5 46.5Q125 108 125 213V605Q125 633 113 647.5Q101 662 75 668L34 677V700H290V677L249 668Q223 662 211 647.5Q199 633 199 605V230Q199 141 245.5 90Q292 39 374 39ZM738 0H573V605Q573 633 561 647.5Q549 662 523 668L482 677V700H738V677L697 668Q671 662 659 647.5Q647 633 647 605V95Q647 67 659 52.5Q671 38 697 32L738 23ZM316 816Q298 816 287.5 804Q277 792 275 772L254 776Q254 823 273.5 849.5Q293 876 327 876Q338 876 352 872Q366 868 396 856Q424 844 436.5 840.5Q449 837 458 837Q476 837 486.5 849Q497 861 499 881L520 877Q520 830 500.5 803.5Q481 777 447 777Q436 777 422 781Q408 785 378 797Q350 809 337.5 812.5Q325 816 316 816Z" glyph-name="Utilde" horiz-adv-x="788" unicode="&#360;" /><glyph d="M319 816Q301 816 290.5 804Q280 792 278 772L257 776Q257 823 276.5 849.5Q296 876 330 876Q341 876 355 872Q369 868 399 856Q427 844 439.5 840.5Q452 837 461 837Q479 837 489.5 849Q500 861 502 881L523 877Q523 830 503.5 803.5Q484 777 450 777Q439 777 425 781Q411 785 381 797Q353 809 340.5 812.5Q328 816 319 816ZM384 20V-15Q262 -13 193.5 50Q125 113 125 224V605Q125 633 113 647.5Q101 662 75 668L34 677V700H290V677L249 668Q223 662 211 647.5Q199 633 199 605V231Q199 135 248 79.5Q297 24 384 20ZM425 -13V21Q512 30 561.5 88.5Q611 147 611 236V605Q611 633 599 647.5Q587 662 561 668L520 677V700H746V677L705 668Q679 662 667 647.5Q655 633 655 605V232Q655 131 592 64Q529 -3 425 -13Z" glyph-name="Utilde.alt" horiz-adv-x="780" /><glyph d="M185 601 393 0H320L103 605Q94 629 78 644Q62 659 32 668L3 677V700H270V677L215 668Q189 664 182 647.5Q175 631 185 601ZM607 605 409 54 392 103 562 601Q572 631 565 647.5Q558 664 532 668L477 677V700H707V677L678 668Q651 662 634 647Q617 632 607 605Z" glyph-name="V" horiz-adv-x="710" unicode="V" /><glyph d="M376 59 504 429 522 377 390 0H320L103 605Q94 629 78 644Q62 659 32 668L3 677V700H270V677L215 668Q189 664 182 647.5Q175 631 185 601L374 59ZM750 0H680L450 700H532L734 59H736L922 601Q932 631 925 647.5Q918 664 892 668L837 677V700H1067V677L1038 668Q1011 662 994 647Q977 632 967 605Z" glyph-name="W" horiz-adv-x="1070" unicode="W" /><glyph d="M376 59 504 429 522 377 390 0H320L103 605Q94 629 78 644Q62 659 32 668L3 677V700H270V677L215 668Q189 664 182 647.5Q175 631 185 601L374 59ZM750 0H680L450 700H532L734 59H736L922 601Q932 631 925 647.5Q918 664 892 668L837 677V700H1067V677L1038 668Q1011 662 994 647Q977 632 967 605ZM522 765H503L518 912H613Z" glyph-name="Wacute" horiz-adv-x="1070" unicode="&#7810;" /><glyph d="M376 59 504 429 522 377 390 0H320L103 605Q94 629 78 644Q62 659 32 668L3 677V700H270V677L215 668Q189 664 182 647.5Q175 631 185 601L374 59ZM750 0H680L450 700H532L734 59H736L922 601Q932 631 925 647.5Q918 664 892 668L837 677V700H1067V677L1038 668Q1011 662 994 647Q977 632 967 605ZM429 765H400L492 912H538L630 765H601L515 848Z" glyph-name="Wcircumflex" horiz-adv-x="1070" unicode="&#372;" /><glyph d="M376 59 504 429 522 377 390 0H320L103 605Q94 629 78 644Q62 659 32 668L3 677V700H270V677L215 668Q189 664 182 647.5Q175 631 185 601L374 59ZM750 0H680L450 700H532L734 59H736L922 601Q932 631 925 647.5Q918 664 892 668L837 677V700H1067V677L1038 668Q1011 662 994 647Q977 632 967 605ZM644 838Q644 816 629 801Q614 786 592 786Q570 786 555 801Q540 816 540 838Q540 860 555 875Q570 890 592 890Q614 890 629 875Q644 860 644 838ZM488 838Q488 816 473 801Q458 786 436 786Q414 786 399 801Q384 816 384 838Q384 860 399 875Q414 890 436 890Q458 890 473 875Q488 860 488 838Z" glyph-name="Wdieresis" horiz-adv-x="1070" unicode="&#7812;" /><glyph d="M376 59 504 429 522 377 390 0H320L103 605Q94 629 78 644Q62 659 32 668L3 677V700H270V677L215 668Q189 664 182 647.5Q175 631 185 601L374 59ZM750 0H680L450 700H532L734 59H736L922 601Q932 631 925 647.5Q918 664 892 668L837 677V700H1067V677L1038 668Q1011 662 994 647Q977 632 967 605ZM526 765H507L416 912H511Z" glyph-name="Wgrave" horiz-adv-x="1070" unicode="&#7808;" /><glyph d="M531 605 383 410 366 435 476 601Q494 628 486 645Q478 662 445 668L390 677V700H629V677L608 670Q585 662 570.5 650Q556 638 531 605ZM659 0H523L125 605Q103 637 87 650Q71 663 53 668L18 677V700H154L551 95Q568 69 586.5 54Q605 39 629 32L659 23ZM107 95 271 323 291 293 161 99Q143 71 151 54Q159 37 194 32L248 23V0H6V23L28 31Q54 40 70.5 53.5Q87 67 107 95Z" glyph-name="X" horiz-adv-x="657" unicode="X" /><glyph d="M194 603 374 323V95Q374 67 386 53Q398 39 427 33L475 23V0H199V23L247 33Q276 39 288 53Q300 67 300 95V311L105 605Q82 640 68.5 651.5Q55 663 38 668L7 677V700H270V677L217 668Q188 663 182.5 646.5Q177 630 194 603ZM378 379 510 601Q527 629 519.5 646Q512 663 479 668L423 677V700H667V677L636 668Q619 663 604.5 650.5Q590 638 568 605L398 347Z" glyph-name="Y" horiz-adv-x="673" unicode="Y" /><glyph d="M194 603 374 323V95Q374 67 386 53Q398 39 427 33L475 23V0H199V23L247 33Q276 39 288 53Q300 67 300 95V311L105 605Q82 640 68.5 651.5Q55 663 38 668L7 677V700H270V677L217 668Q188 663 182.5 646.5Q177 630 194 603ZM378 379 510 601Q527 629 519.5 646Q512 663 479 668L423 677V700H667V677L636 668Q619 663 604.5 650.5Q590 638 568 605L398 347ZM344 765H325L340 912H435Z" glyph-name="Yacute" horiz-adv-x="673" unicode="&#221;" /><glyph d="M194 603 374 323V95Q374 67 386 53Q398 39 427 33L475 23V0H199V23L247 33Q276 39 288 53Q300 67 300 95V311L105 605Q82 640 68.5 651.5Q55 663 38 668L7 677V700H270V677L217 668Q188 663 182.5 646.5Q177 630 194 603ZM378 379 510 601Q527 629 519.5 646Q512 663 479 668L423 677V700H667V677L636 668Q619 663 604.5 650.5Q590 638 568 605L398 347ZM251 765H222L314 912H360L452 765H423L337 848Z" glyph-name="Ycircumflex" horiz-adv-x="673" unicode="&#374;" /><glyph d="M194 603 374 323V95Q374 67 386 53Q398 39 427 33L475 23V0H199V23L247 33Q276 39 288 53Q300 67 300 95V311L105 605Q82 640 68.5 651.5Q55 663 38 668L7 677V700H270V677L217 668Q188 663 182.5 646.5Q177 630 194 603ZM378 379 510 601Q527 629 519.5 646Q512 663 479 668L423 677V700H667V677L636 668Q619 663 604.5 650.5Q590 638 568 605L398 347ZM466 838Q466 816 451 801Q436 786 414 786Q392 786 377 801Q362 816 362 838Q362 860 377 875Q392 890 414 890Q436 890 451 875Q466 860 466 838ZM310 838Q310 816 295 801Q280 786 258 786Q236 786 221 801Q206 816 206 838Q206 860 221 875Q236 890 258 890Q280 890 295 875Q310 860 310 838Z" glyph-name="Ydieresis" horiz-adv-x="673" unicode="&#376;" /><glyph d="M194 603 374 323V95Q374 67 386 53Q398 39 427 33L475 23V0H199V23L247 33Q276 39 288 53Q300 67 300 95V311L105 605Q82 640 68.5 651.5Q55 663 38 668L7 677V700H270V677L217 668Q188 663 182.5 646.5Q177 630 194 603ZM378 379 510 601Q527 629 519.5 646Q512 663 479 668L423 677V700H667V677L636 668Q619 663 604.5 650.5Q590 638 568 605L398 347ZM348 765H329L238 912H333Z" glyph-name="Ygrave" horiz-adv-x="673" unicode="&#7922;" /><glyph d="M277 700H473L449 664H163Q144 664 133.5 655.5Q123 647 114 619L91 546H60L58 708Q105 704 160 702Q215 700 277 700ZM575 700V678L105 0H38V22L508 700ZM580 0H140L162 33L430 35Q476 36 499 55Q522 74 548 142L568 194H599Z" glyph-name="Z" horiz-adv-x="640" unicode="Z" /><glyph d="M277 700H473L449 664H163Q144 664 133.5 655.5Q123 647 114 619L91 546H60L58 708Q105 704 160 702Q215 700 277 700ZM575 700V678L105 0H38V22L508 700ZM580 0H140L162 33L430 35Q476 36 499 55Q522 74 548 142L568 194H599ZM320 765H301L316 912H411Z" glyph-name="Zacute" horiz-adv-x="640" unicode="&#377;" /><glyph d="M277 700H473L449 664H163Q144 664 133.5 655.5Q123 647 114 619L91 546H60L58 708Q105 704 160 702Q215 700 277 700ZM575 700V678L105 0H38V22L508 700ZM580 0H140L162 33L430 35Q476 36 499 55Q522 74 548 142L568 194H599ZM290 765 198 912H227L313 829L399 912H428L336 765Z" glyph-name="Zcaron" horiz-adv-x="640" unicode="&#381;" /><glyph d="M277 700H473L449 664H163Q144 664 133.5 655.5Q123 647 114 619L91 546H60L58 708Q105 704 160 702Q215 700 277 700ZM575 700V678L105 0H38V22L508 700ZM580 0H140L162 33L430 35Q476 36 499 55Q522 74 548 142L568 194H599ZM376 834Q376 808 357.5 789.5Q339 771 313 771Q287 771 268.5 789.5Q250 808 250 834Q250 860 268.5 878Q287 896 313 896Q339 896 357.5 878Q376 860 376 834Z" glyph-name="Zdotaccent" horiz-adv-x="640" unicode="&#379;" /><glyph d="M368 -15Q335 -15 316 7Q297 29 297 67V332Q297 390 271 419Q245 448 193 448Q157 448 132 435Q107 422 107 406Q107 402 109.5 399Q112 396 121 390Q135 380 139.5 372.5Q144 365 144 356Q144 338 132.5 326.5Q121 315 102 315Q84 315 71 329.5Q58 344 58 365Q58 414 108.5 451Q159 488 222 488Q289 488 327.5 449.5Q366 411 366 343V76Q366 55 376 44.5Q386 34 404 34Q414 34 424 37.5Q434 41 442 47L450 35Q438 14 415.5 -0.5Q393 -15 368 -15ZM268 22Q248 5 220 -5Q192 -15 164 -15Q113 -15 78.5 18.5Q44 52 44 101Q44 137 65.5 166.5Q87 196 126 211L263 265V235L175 194Q148 182 132.5 160.5Q117 139 117 114Q117 80 140 57.5Q163 35 198 35Q216 35 233 39Q250 43 264 51Q264 38 265 33Q266 28 268 22Z" glyph-name="a" horiz-adv-x="463" unicode="a" /><glyph d="M217 488Q288 488 327.5 450Q367 412 367 343V76Q367 55 377 44.5Q387 34 405 34Q415 34 425 37.5Q435 41 443 47L451 35Q439 14 416.5 -0.5Q394 -15 369 -15Q336 -15 317 7Q298 29 298 67V332Q298 385 271.5 413Q245 441 196 441Q161 441 130 425.5Q99 410 72 378L51 391Q73 431 119.5 459.5Q166 488 217 488ZM269 22Q249 5 221 -5Q193 -15 165 -15Q114 -15 79.5 18.5Q45 52 45 101Q45 137 66.5 166.5Q88 196 127 211L264 265V235L176 194Q149 182 133.5 160.5Q118 139 118 114Q118 80 141 57.5Q164 35 199 35Q217 35 234 39Q251 43 265 51Q265 38 266 33Q267 28 269 22Z" glyph-name="a.alt" horiz-adv-x="464" /><glyph d="M368 -15Q335 -15 316 7Q297 29 297 67V332Q297 390 271 419Q245 448 193 448Q157 448 132 435Q107 422 107 406Q107 402 109.5 399Q112 396 121 390Q135 380 139.5 372.5Q144 365 144 356Q144 338 132.5 326.5Q121 315 102 315Q84 315 71 329.5Q58 344 58 365Q58 414 108.5 451Q159 488 222 488Q289 488 327.5 449.5Q366 411 366 343V76Q366 55 376 44.5Q386 34 404 34Q414 34 424 37.5Q434 41 442 47L450 35Q438 14 415.5 -0.5Q393 -15 368 -15ZM268 22Q248 5 220 -5Q192 -15 164 -15Q113 -15 78.5 18.5Q44 52 44 101Q44 137 65.5 166.5Q87 196 126 211L263 265V235L175 194Q148 182 132.5 160.5Q117 139 117 114Q117 80 140 57.5Q163 35 198 35Q216 35 233 39Q250 43 264 51Q264 38 265 33Q266 28 268 22ZM218 549H199L214 696H309Z" glyph-name="aacute" horiz-adv-x="463" unicode="&#225;" /><glyph d="M217 488Q288 488 327.5 450Q367 412 367 343V76Q367 55 377 44.5Q387 34 405 34Q415 34 425 37.5Q435 41 443 47L451 35Q439 14 416.5 -0.5Q394 -15 369 -15Q336 -15 317 7Q298 29 298 67V332Q298 385 271.5 413Q245 441 196 441Q161 441 130 425.5Q99 410 72 378L51 391Q73 431 119.5 459.5Q166 488 217 488ZM269 22Q249 5 221 -5Q193 -15 165 -15Q114 -15 79.5 18.5Q45 52 45 101Q45 137 66.5 166.5Q88 196 127 211L264 265V235L176 194Q149 182 133.5 160.5Q118 139 118 114Q118 80 141 57.5Q164 35 199 35Q217 35 234 39Q251 43 265 51Q265 38 266 33Q267 28 269 22ZM219 549H200L215 696H310Z" glyph-name="aacute.alt" horiz-adv-x="464" /><glyph d="M368 -15Q335 -15 316 7Q297 29 297 67V332Q297 390 271 419Q245 448 193 448Q157 448 132 435Q107 422 107 406Q107 402 109.5 399Q112 396 121 390Q135 380 139.5 372.5Q144 365 144 356Q144 338 132.5 326.5Q121 315 102 315Q84 315 71 329.5Q58 344 58 365Q58 414 108.5 451Q159 488 222 488Q289 488 327.5 449.5Q366 411 366 343V76Q366 55 376 44.5Q386 34 404 34Q414 34 424 37.5Q434 41 442 47L450 35Q438 14 415.5 -0.5Q393 -15 368 -15ZM268 22Q248 5 220 -5Q192 -15 164 -15Q113 -15 78.5 18.5Q44 52 44 101Q44 137 65.5 166.5Q87 196 126 211L263 265V235L175 194Q148 182 132.5 160.5Q117 139 117 114Q117 80 140 57.5Q163 35 198 35Q216 35 233 39Q250 43 264 51Q264 38 265 33Q266 28 268 22ZM211 548Q154 548 121 579.5Q88 611 88 660V682H122V676Q122 646 146 626.5Q170 607 211 607Q252 607 276 626.5Q300 646 300 676V682H334V660Q334 611 301 579.5Q268 548 211 548Z" glyph-name="abreve" horiz-adv-x="463" unicode="&#259;" /><glyph d="M217 488Q288 488 327.5 450Q367 412 367 343V76Q367 55 377 44.5Q387 34 405 34Q415 34 425 37.5Q435 41 443 47L451 35Q439 14 416.5 -0.5Q394 -15 369 -15Q336 -15 317 7Q298 29 298 67V332Q298 385 271.5 413Q245 441 196 441Q161 441 130 425.5Q99 410 72 378L51 391Q73 431 119.5 459.5Q166 488 217 488ZM269 22Q249 5 221 -5Q193 -15 165 -15Q114 -15 79.5 18.5Q45 52 45 101Q45 137 66.5 166.5Q88 196 127 211L264 265V235L176 194Q149 182 133.5 160.5Q118 139 118 114Q118 80 141 57.5Q164 35 199 35Q217 35 234 39Q251 43 265 51Q265 38 266 33Q267 28 269 22ZM212 548Q155 548 122 579.5Q89 611 89 660V682H123V676Q123 646 147 626.5Q171 607 212 607Q253 607 277 626.5Q301 646 301 676V682H335V660Q335 611 302 579.5Q269 548 212 548Z" glyph-name="abreve.alt" horiz-adv-x="464" /><glyph d="M368 -15Q335 -15 316 7Q297 29 297 67V332Q297 390 271 419Q245 448 193 448Q157 448 132 435Q107 422 107 406Q107 402 109.5 399Q112 396 121 390Q135 380 139.5 372.5Q144 365 144 356Q144 338 132.5 326.5Q121 315 102 315Q84 315 71 329.5Q58 344 58 365Q58 414 108.5 451Q159 488 222 488Q289 488 327.5 449.5Q366 411 366 343V76Q366 55 376 44.5Q386 34 404 34Q414 34 424 37.5Q434 41 442 47L450 35Q438 14 415.5 -0.5Q393 -15 368 -15ZM268 22Q248 5 220 -5Q192 -15 164 -15Q113 -15 78.5 18.5Q44 52 44 101Q44 137 65.5 166.5Q87 196 126 211L263 265V235L175 194Q148 182 132.5 160.5Q117 139 117 114Q117 80 140 57.5Q163 35 198 35Q216 35 233 39Q250 43 264 51Q264 38 265 33Q266 28 268 22ZM125 549H96L188 696H234L326 549H297L211 632Z" glyph-name="acircumflex" horiz-adv-x="463" unicode="&#226;" /><glyph d="M217 488Q288 488 327.5 450Q367 412 367 343V76Q367 55 377 44.5Q387 34 405 34Q415 34 425 37.5Q435 41 443 47L451 35Q439 14 416.5 -0.5Q394 -15 369 -15Q336 -15 317 7Q298 29 298 67V332Q298 385 271.5 413Q245 441 196 441Q161 441 130 425.5Q99 410 72 378L51 391Q73 431 119.5 459.5Q166 488 217 488ZM269 22Q249 5 221 -5Q193 -15 165 -15Q114 -15 79.5 18.5Q45 52 45 101Q45 137 66.5 166.5Q88 196 127 211L264 265V235L176 194Q149 182 133.5 160.5Q118 139 118 114Q118 80 141 57.5Q164 35 199 35Q217 35 234 39Q251 43 265 51Q265 38 266 33Q267 28 269 22ZM126 549H97L189 696H235L327 549H298L212 632Z" glyph-name="acircumflex.alt" horiz-adv-x="464" /><glyph d="M69 547H50L65 694H160Z" glyph-name="acute" horiz-adv-x="210" unicode="&#180;" /><glyph d="M368 -15Q335 -15 316 7Q297 29 297 67V332Q297 390 271 419Q245 448 193 448Q157 448 132 435Q107 422 107 406Q107 402 109.5 399Q112 396 121 390Q135 380 139.5 372.5Q144 365 144 356Q144 338 132.5 326.5Q121 315 102 315Q84 315 71 329.5Q58 344 58 365Q58 414 108.5 451Q159 488 222 488Q289 488 327.5 449.5Q366 411 366 343V76Q366 55 376 44.5Q386 34 404 34Q414 34 424 37.5Q434 41 442 47L450 35Q438 14 415.5 -0.5Q393 -15 368 -15ZM268 22Q248 5 220 -5Q192 -15 164 -15Q113 -15 78.5 18.5Q44 52 44 101Q44 137 65.5 166.5Q87 196 126 211L263 265V235L175 194Q148 182 132.5 160.5Q117 139 117 114Q117 80 140 57.5Q163 35 198 35Q216 35 233 39Q250 43 264 51Q264 38 265 33Q266 28 268 22ZM340 622Q340 600 325 585Q310 570 288 570Q266 570 251 585Q236 600 236 622Q236 644 251 659Q266 674 288 674Q310 674 325 659Q340 644 340 622ZM184 622Q184 600 169 585Q154 570 132 570Q110 570 95 585Q80 600 80 622Q80 644 95 659Q110 674 132 674Q154 674 169 659Q184 644 184 622Z" glyph-name="adieresis" horiz-adv-x="463" unicode="&#228;" /><glyph d="M217 488Q288 488 327.5 450Q367 412 367 343V76Q367 55 377 44.5Q387 34 405 34Q415 34 425 37.5Q435 41 443 47L451 35Q439 14 416.5 -0.5Q394 -15 369 -15Q336 -15 317 7Q298 29 298 67V332Q298 385 271.5 413Q245 441 196 441Q161 441 130 425.5Q99 410 72 378L51 391Q73 431 119.5 459.5Q166 488 217 488ZM269 22Q249 5 221 -5Q193 -15 165 -15Q114 -15 79.5 18.5Q45 52 45 101Q45 137 66.5 166.5Q88 196 127 211L264 265V235L176 194Q149 182 133.5 160.5Q118 139 118 114Q118 80 141 57.5Q164 35 199 35Q217 35 234 39Q251 43 265 51Q265 38 266 33Q267 28 269 22ZM341 622Q341 600 326 585Q311 570 289 570Q267 570 252 585Q237 600 237 622Q237 644 252 659Q267 674 289 674Q311 674 326 659Q341 644 341 622ZM185 622Q185 600 170 585Q155 570 133 570Q111 570 96 585Q81 600 81 622Q81 644 96 659Q111 674 133 674Q155 674 170 659Q185 644 185 622Z" glyph-name="adieresis.alt" horiz-adv-x="464" /><glyph d="M488 52V-14Q399 -7 345 65Q291 137 291 231V332Q291 390 265 419Q239 448 187 448Q151 448 126 435Q101 422 101 406Q101 402 103.5 399Q106 396 115 390Q129 380 133.5 372.5Q138 365 138 356Q138 338 126.5 326.5Q115 315 96 315Q78 315 65 329.5Q52 344 52 365Q52 413 103 450.5Q154 488 216 488Q265 488 300 466.5Q335 445 346 408Q373 443 409 463Q445 483 488 487V455Q438 452 401 408Q364 364 355 303L616 307Q616 313 616 315.5Q616 318 615 321Q611 375 586.5 409.5Q562 444 522 452V487Q599 482 646 423.5Q693 365 693 282V275H352Q352 270 351.5 266Q351 262 351 260Q351 182 389 125.5Q427 69 488 52ZM120 115Q120 80 144 57.5Q168 35 206 35Q232 35 255.5 43Q279 51 302 67Q304 62 307 57Q310 52 314 48Q283 16 247 0.5Q211 -15 169 -15Q116 -15 81.5 18Q47 51 47 98Q47 134 67.5 162Q88 190 127 205L257 254V225L172 190Q148 180 134 160Q120 140 120 115ZM680 139 698 130Q682 69 634.5 29.5Q587 -10 522 -14V47H529Q577 47 619.5 73.5Q662 100 680 139Z" glyph-name="ae" horiz-adv-x="742" unicode="&#230;" /><glyph d="M368 -15Q335 -15 316 7Q297 29 297 67V332Q297 390 271 419Q245 448 193 448Q157 448 132 435Q107 422 107 406Q107 402 109.5 399Q112 396 121 390Q135 380 139.5 372.5Q144 365 144 356Q144 338 132.5 326.5Q121 315 102 315Q84 315 71 329.5Q58 344 58 365Q58 414 108.5 451Q159 488 222 488Q289 488 327.5 449.5Q366 411 366 343V76Q366 55 376 44.5Q386 34 404 34Q414 34 424 37.5Q434 41 442 47L450 35Q438 14 415.5 -0.5Q393 -15 368 -15ZM268 22Q248 5 220 -5Q192 -15 164 -15Q113 -15 78.5 18.5Q44 52 44 101Q44 137 65.5 166.5Q87 196 126 211L263 265V235L175 194Q148 182 132.5 160.5Q117 139 117 114Q117 80 140 57.5Q163 35 198 35Q216 35 233 39Q250 43 264 51Q264 38 265 33Q266 28 268 22ZM222 549H203L112 696H207Z" glyph-name="agrave" horiz-adv-x="463" unicode="&#224;" /><glyph d="M217 488Q288 488 327.5 450Q367 412 367 343V76Q367 55 377 44.5Q387 34 405 34Q415 34 425 37.5Q435 41 443 47L451 35Q439 14 416.5 -0.5Q394 -15 369 -15Q336 -15 317 7Q298 29 298 67V332Q298 385 271.5 413Q245 441 196 441Q161 441 130 425.5Q99 410 72 378L51 391Q73 431 119.5 459.5Q166 488 217 488ZM269 22Q249 5 221 -5Q193 -15 165 -15Q114 -15 79.5 18.5Q45 52 45 101Q45 137 66.5 166.5Q88 196 127 211L264 265V235L176 194Q149 182 133.5 160.5Q118 139 118 114Q118 80 141 57.5Q164 35 199 35Q217 35 234 39Q251 43 265 51Q265 38 266 33Q267 28 269 22ZM223 549H204L113 696H208Z" glyph-name="agrave.alt" horiz-adv-x="464" /><glyph d="M368 -15Q335 -15 316 7Q297 29 297 67V332Q297 390 271 419Q245 448 193 448Q157 448 132 435Q107 422 107 406Q107 402 109.5 399Q112 396 121 390Q135 380 139.5 372.5Q144 365 144 356Q144 338 132.5 326.5Q121 315 102 315Q84 315 71 329.5Q58 344 58 365Q58 414 108.5 451Q159 488 222 488Q289 488 327.5 449.5Q366 411 366 343V76Q366 55 376 44.5Q386 34 404 34Q414 34 424 37.5Q434 41 442 47L450 35Q438 14 415.5 -0.5Q393 -15 368 -15ZM268 22Q248 5 220 -5Q192 -15 164 -15Q113 -15 78.5 18.5Q44 52 44 101Q44 137 65.5 166.5Q87 196 126 211L263 265V235L175 194Q148 182 132.5 160.5Q117 139 117 114Q117 80 140 57.5Q163 35 198 35Q216 35 233 39Q250 43 264 51Q264 38 265 33Q266 28 268 22ZM347 575H76V632H347Z" glyph-name="amacron" horiz-adv-x="463" unicode="&#257;" /><glyph d="M217 488Q288 488 327.5 450Q367 412 367 343V76Q367 55 377 44.5Q387 34 405 34Q415 34 425 37.5Q435 41 443 47L451 35Q439 14 416.5 -0.5Q394 -15 369 -15Q336 -15 317 7Q298 29 298 67V332Q298 385 271.5 413Q245 441 196 441Q161 441 130 425.5Q99 410 72 378L51 391Q73 431 119.5 459.5Q166 488 217 488ZM269 22Q249 5 221 -5Q193 -15 165 -15Q114 -15 79.5 18.5Q45 52 45 101Q45 137 66.5 166.5Q88 196 127 211L264 265V235L176 194Q149 182 133.5 160.5Q118 139 118 114Q118 80 141 57.5Q164 35 199 35Q217 35 234 39Q251 43 265 51Q265 38 266 33Q267 28 269 22ZM348 575H77V632H348Z" glyph-name="amacron.alt" horiz-adv-x="464" /><glyph d="M579 268Q550 223 535 201Q520 179 506 162Q570 96 606 71.5Q642 47 670 47Q691 47 707 53.5Q723 60 749 81L758 64Q737 25 706.5 5Q676 -15 638 -15Q616 -15 594 -5.5Q572 4 545 25Q508 55 452 114Q396 173 329 251Q278 310 249 349.5Q220 389 203 421Q186 452 177.5 483.5Q169 515 169 546Q169 619 214.5 667Q260 715 331 715Q394 715 434.5 679Q475 643 475 586Q475 534 438 488.5Q401 443 331 411L317 431Q362 462 386.5 503.5Q411 545 411 584Q411 628 386.5 655.5Q362 683 324 683Q282 683 256 652.5Q230 622 230 573Q230 543 240.5 510Q251 477 270 447Q291 413 321.5 372.5Q352 332 388 289Q417 255 442.5 227Q468 199 485 182Q513 226 545 285Q577 344 580 361Q581 363 581 364.5Q581 366 581 370Q581 383 573 391Q565 399 549 401L501 408L503 431H726V406L700 399Q683 395 668 384.5Q653 374 640 358Q630 345 617.5 327Q605 309 579 268ZM276 38Q315 38 353 54.5Q391 71 420 101L441 79Q399 32 352 8.5Q305 -15 252 -15Q164 -15 108.5 38.5Q53 92 53 172Q53 231 91.5 284Q130 337 197 370L213 348Q176 320 154 277Q132 234 132 190Q133 127 173.5 82.5Q214 38 276 38Z" glyph-name="ampersand" horiz-adv-x="789" unicode="&amp;" /><glyph d="M366 -188Q330 -188 306.5 -169Q283 -150 283 -116Q283 -90 302 -62.5Q321 -35 354 -14Q327 -9 312 12Q297 33 297 67V332Q297 390 271 419Q245 448 193 448Q157 448 132 435Q107 422 107 406Q107 402 109.5 399Q112 396 121 390Q135 380 139.5 372.5Q144 365 144 356Q144 338 132.5 326.5Q121 315 102 315Q84 315 71 329.5Q58 344 58 365Q58 414 108.5 451Q159 488 222 488Q289 488 327.5 449.5Q366 411 366 343V76Q366 55 376 44.5Q386 34 404 34Q414 34 424 37.5Q434 41 442 47L450 35Q442 22 430 10.5Q418 -1 403 -7Q375 -37 361.5 -61Q348 -85 348 -104Q348 -126 366.5 -140Q385 -154 413 -154Q417 -154 423.5 -153.5Q430 -153 435 -152L432 -173Q419 -180 401.5 -184Q384 -188 366 -188ZM268 22Q248 5 220 -5Q192 -15 164 -15Q113 -15 78.5 18.5Q44 52 44 101Q44 137 65.5 166.5Q87 196 126 211L263 265V235L175 194Q148 182 132.5 160.5Q117 139 117 114Q117 80 140 57.5Q163 35 198 35Q216 35 233 39Q250 43 264 51Q264 38 265 33Q266 28 268 22Z" glyph-name="aogonek" horiz-adv-x="463" unicode="&#261;" /><glyph d="M367 -188Q331 -188 307.5 -169Q284 -150 284 -116Q284 -90 303 -62.5Q322 -35 355 -14Q328 -9 313 12Q298 33 298 67V332Q298 385 271.5 413Q245 441 196 441Q161 441 130 425.5Q99 410 72 378L51 391Q73 431 119.5 459.5Q166 488 217 488Q288 488 327.5 450Q367 412 367 343V76Q367 55 377 44.5Q387 34 405 34Q415 34 425 37.5Q435 41 443 47L451 35Q443 22 431 10.5Q419 -1 404 -7Q376 -37 362.5 -61Q349 -85 349 -104Q349 -126 367.5 -140Q386 -154 414 -154Q418 -154 424.5 -153.5Q431 -153 436 -152L433 -173Q420 -180 402.5 -184Q385 -188 367 -188ZM269 22Q249 5 221 -5Q193 -15 165 -15Q114 -15 79.5 18.5Q45 52 45 101Q45 137 66.5 166.5Q88 196 127 211L264 265V235L176 194Q149 182 133.5 160.5Q118 139 118 114Q118 80 141 57.5Q164 35 199 35Q217 35 234 39Q251 43 265 51Q265 38 266 33Q267 28 269 22Z" glyph-name="aogonek.alt" horiz-adv-x="464" /><glyph d="M156 609 154 610Q148 601 135.5 595.5Q123 590 109 590Q84 590 67 608Q50 626 50 652Q50 677 68.5 696Q87 715 114 715Q146 715 168 689Q190 663 190 627Q190 578 159 537Q128 496 69 467L58 479Q103 511 127 543Q151 575 156 609Z" glyph-name="apostrophemod" horiz-adv-x="241" unicode="&#700;" /><glyph d="M380 394Q368 394 343.5 398Q319 402 258 416Q202 428 180.5 432Q159 436 149 436Q126 436 112 426Q98 416 90 395L75 399Q84 443 106.5 465Q129 487 166 487Q178 487 202.5 483Q227 479 288 465Q343 453 365 449Q387 445 397 445Q420 445 433.5 455Q447 465 456 486L471 482Q462 438 439 416Q416 394 380 394ZM380 232Q368 232 343.5 236Q319 240 258 254Q202 266 180.5 270Q159 274 149 274Q126 274 112 264Q98 254 90 233L75 237Q84 281 106.5 303Q129 325 166 325Q178 325 202.5 321Q227 317 288 303Q343 291 365 287Q387 283 397 283Q420 283 433.5 293Q447 303 456 324L471 320Q462 276 439 254Q416 232 380 232Z" glyph-name="approxequal" horiz-adv-x="540" unicode="&#8776;" /><glyph d="M368 -15Q335 -15 316 7Q297 29 297 67V332Q297 390 271 419Q245 448 193 448Q157 448 132 435Q107 422 107 406Q107 402 109.5 399Q112 396 121 390Q135 380 139.5 372.5Q144 365 144 356Q144 338 132.5 326.5Q121 315 102 315Q84 315 71 329.5Q58 344 58 365Q58 414 108.5 451Q159 488 222 488Q289 488 327.5 449.5Q366 411 366 343V76Q366 55 376 44.5Q386 34 404 34Q414 34 424 37.5Q434 41 442 47L450 35Q438 14 415.5 -0.5Q393 -15 368 -15ZM268 22Q248 5 220 -5Q192 -15 164 -15Q113 -15 78.5 18.5Q44 52 44 101Q44 137 65.5 166.5Q87 196 126 211L263 265V235L175 194Q148 182 132.5 160.5Q117 139 117 114Q117 80 140 57.5Q163 35 198 35Q216 35 233 39Q250 43 264 51Q264 38 265 33Q266 28 268 22ZM211 705Q189 705 171.5 691Q154 677 149 655H116Q122 689 149 712Q176 735 211 735Q246 735 273 712Q300 689 306 655H273Q268 677 250.5 691Q233 705 211 705ZM211 544Q176 544 149 566.5Q122 589 116 623H149Q154 601 171.5 587.5Q189 574 211 574Q233 574 250.5 587.5Q268 601 273 623H306Q300 589 273 566.5Q246 544 211 544Z" glyph-name="aring" horiz-adv-x="463" unicode="&#229;" /><glyph d="M217 488Q288 488 327.5 450Q367 412 367 343V76Q367 55 377 44.5Q387 34 405 34Q415 34 425 37.5Q435 41 443 47L451 35Q439 14 416.5 -0.5Q394 -15 369 -15Q336 -15 317 7Q298 29 298 67V332Q298 385 271.5 413Q245 441 196 441Q161 441 130 425.5Q99 410 72 378L51 391Q73 431 119.5 459.5Q166 488 217 488ZM269 22Q249 5 221 -5Q193 -15 165 -15Q114 -15 79.5 18.5Q45 52 45 101Q45 137 66.5 166.5Q88 196 127 211L264 265V235L176 194Q149 182 133.5 160.5Q118 139 118 114Q118 80 141 57.5Q164 35 199 35Q217 35 234 39Q251 43 265 51Q265 38 266 33Q267 28 269 22ZM211 705Q189 705 171.5 691Q154 677 149 655H116Q122 689 149 712Q176 735 211 735Q246 735 273 712Q300 689 306 655H273Q268 677 250.5 691Q233 705 211 705ZM211 544Q176 544 149 566.5Q122 589 116 623H149Q154 601 171.5 587.5Q189 574 211 574Q233 574 250.5 587.5Q268 601 273 623H306Q300 589 273 566.5Q246 544 211 544Z" glyph-name="aring.alt" horiz-adv-x="464" /><glyph d="M653 323 367 29 82 323 119 359 339 154 335 699H400L396 154L616 359Z" glyph-name="arrowdown" horiz-adv-x="735" unicode="&#8595;" /><glyph d="M543 105 133 99 139 509 190 508 201 208 584 596 630 550 242 167 542 156Z" glyph-name="arrowdownleft" horiz-adv-x="735" unicode="&#8601;" /><glyph d="M545 508 596 509 602 99 192 105 193 156 493 167 105 550 151 596 534 208Z" glyph-name="arrowdownright" horiz-adv-x="735" unicode="&#8600;" /><glyph d="M119 369 82 405 367 699 653 405 616 369 396 574 400 29H335L339 574Z" glyph-name="arrowup" horiz-adv-x="735" unicode="&#8593;" /><glyph d="M200 487 189 187 138 186 132 596 542 590 541 539 241 528 629 145 583 99Z" glyph-name="arrowupleft" horiz-adv-x="735" unicode="&#8598;" /><glyph d="M193 590 603 596 597 186 546 187 535 487 152 99 106 145 494 528 194 539Z" glyph-name="arrowupright" horiz-adv-x="735" unicode="&#8599;" /><glyph d="M81 358H50L251 715H289L490 358H459L270 630Z" glyph-name="asciicircum" horiz-adv-x="540" unicode="^" /><glyph d="M380 313Q368 313 343.5 317Q319 321 258 335Q202 347 180.5 351Q159 355 149 355Q126 355 112 345Q98 335 90 314L75 318Q84 362 106.5 384Q129 406 166 406Q178 406 202.5 402Q227 398 288 384Q343 372 365 368Q387 364 397 364Q420 364 433.5 374Q447 384 456 405L471 401Q462 357 439 335Q416 313 380 313Z" glyph-name="asciitilde" horiz-adv-x="540" unicode="~" /><glyph d="M249 489 154 338 88 400 223 508 52 547 86 630 233 536 204 708H293L264 535L411 630L445 547L275 508L409 400L344 338Z" glyph-name="asterisk" horiz-adv-x="497" unicode="*" /><glyph d="M574 122Q574 87 586 70Q598 53 623 53Q653 53 686 79.5Q719 106 742 150Q760 184 769 223.5Q778 263 778 306Q778 434 697 515Q616 596 492 596Q414 596 345.5 564Q277 532 225 473Q176 416 149.5 343.5Q123 271 123 194Q122 36 211.5 -57Q301 -150 442 -150Q494 -150 545.5 -135Q597 -120 642 -92L663 -105Q632 -133 563 -158Q494 -183 436 -183Q352 -183 283 -158Q214 -133 163 -84Q110 -34 81.5 36Q53 106 53 184Q53 270 86 351.5Q119 433 179 496Q240 560 319 594Q398 628 487 628Q628 628 720 538Q812 448 812 317Q812 199 752.5 112Q693 25 607 25Q552 25 528.5 68Q505 111 519 187L565 428L612 446H631L602 302Q583 210 578.5 178.5Q574 147 574 122ZM493 410Q463 410 429 377Q395 344 367 288Q346 245 334 199Q322 153 322 112Q322 94 330 83Q338 72 353 72Q380 72 417.5 105.5Q455 139 491 199L481 139Q442 84 401 54.5Q360 25 325 25Q293 25 273.5 48.5Q254 72 254 112Q254 159 273 215.5Q292 272 324 320Q361 375 407 404.5Q453 434 503 434Q509 434 516 433.5Q523 433 538 432L531 401Q520 406 510.5 408Q501 410 493 410Z" glyph-name="at" horiz-adv-x="871" unicode="@" /><glyph d="M574 232Q574 197 586 180Q598 163 623 163Q653 163 686 189.5Q719 216 742 260Q760 294 769 333.5Q778 373 778 416Q778 544 697 625Q616 706 492 706Q414 706 345.5 674Q277 642 225 583Q176 526 149.5 453.5Q123 381 123 304Q122 146 211.5 53Q301 -40 442 -40Q494 -40 545.5 -25Q597 -10 642 18L663 5Q632 -23 563 -48Q494 -73 436 -73Q352 -73 283 -48Q214 -23 163 26Q110 76 81.5 146Q53 216 53 294Q53 380 86 461.5Q119 543 179 606Q240 670 319 704Q398 738 487 738Q628 738 720 648Q812 558 812 427Q812 309 752.5 222Q693 135 607 135Q552 135 528.5 178Q505 221 519 297L565 538L612 556H631L602 412Q583 320 578.5 288.5Q574 257 574 232ZM493 520Q463 520 429 487Q395 454 367 398Q346 355 334 309Q322 263 322 222Q322 204 330 193Q338 182 353 182Q380 182 417.5 215.5Q455 249 491 309L481 249Q442 194 401 164.5Q360 135 325 135Q293 135 273.5 158.5Q254 182 254 222Q254 269 273 325.5Q292 382 324 430Q361 485 407 514.5Q453 544 503 544Q509 544 516 543.5Q523 543 538 542L531 511Q520 516 510.5 518Q501 520 493 520Z" glyph-name="at.case" horiz-adv-x="850" /><glyph d="M368 -15Q335 -15 316 7Q297 29 297 67V332Q297 390 271 419Q245 448 193 448Q157 448 132 435Q107 422 107 406Q107 402 109.5 399Q112 396 121 390Q135 380 139.5 372.5Q144 365 144 356Q144 338 132.5 326.5Q121 315 102 315Q84 315 71 329.5Q58 344 58 365Q58 414 108.5 451Q159 488 222 488Q289 488 327.5 449.5Q366 411 366 343V76Q366 55 376 44.5Q386 34 404 34Q414 34 424 37.5Q434 41 442 47L450 35Q438 14 415.5 -0.5Q393 -15 368 -15ZM268 22Q248 5 220 -5Q192 -15 164 -15Q113 -15 78.5 18.5Q44 52 44 101Q44 137 65.5 166.5Q87 196 126 211L263 265V235L175 194Q148 182 132.5 160.5Q117 139 117 114Q117 80 140 57.5Q163 35 198 35Q216 35 233 39Q250 43 264 51Q264 38 265 33Q266 28 268 22ZM140 600Q122 600 111.5 588Q101 576 99 556L78 560Q78 607 97.5 633.5Q117 660 151 660Q162 660 176 656Q190 652 220 640Q248 628 260.5 624.5Q273 621 282 621Q300 621 310.5 633Q321 645 323 665L344 661Q344 614 324.5 587.5Q305 561 271 561Q260 561 246 565Q232 569 202 581Q174 593 161.5 596.5Q149 600 140 600Z" glyph-name="atilde" horiz-adv-x="463" unicode="&#227;" /><glyph d="M217 488Q288 488 327.5 450Q367 412 367 343V76Q367 55 377 44.5Q387 34 405 34Q415 34 425 37.5Q435 41 443 47L451 35Q439 14 416.5 -0.5Q394 -15 369 -15Q336 -15 317 7Q298 29 298 67V332Q298 385 271.5 413Q245 441 196 441Q161 441 130 425.5Q99 410 72 378L51 391Q73 431 119.5 459.5Q166 488 217 488ZM269 22Q249 5 221 -5Q193 -15 165 -15Q114 -15 79.5 18.5Q45 52 45 101Q45 137 66.5 166.5Q88 196 127 211L264 265V235L176 194Q149 182 133.5 160.5Q118 139 118 114Q118 80 141 57.5Q164 35 199 35Q217 35 234 39Q251 43 265 51Q265 38 266 33Q267 28 269 22ZM141 600Q123 600 112.5 588Q102 576 100 556L79 560Q79 607 98.5 633.5Q118 660 152 660Q163 660 177 656Q191 652 221 640Q249 628 261.5 624.5Q274 621 283 621Q301 621 311.5 633Q322 645 324 665L345 661Q345 614 325.5 587.5Q306 561 272 561Q261 561 247 565Q233 569 203 581Q175 593 162.5 596.5Q150 600 141 600Z" glyph-name="atilde.alt" horiz-adv-x="464" /><glyph d="M102 -6H82V656L-1 687V704Q39 711 82 722.5Q125 734 149 744H151V49ZM259 18Q342 18 388.5 74.5Q435 131 435 230Q435 325 387.5 379.5Q340 434 262 434Q244 434 225 429.5Q206 425 185 416V444Q210 465 240.5 476.5Q271 488 303 488Q388 488 447 420.5Q506 353 506 249Q506 133 442 59Q378 -15 274 -15Q243 -15 213 -8.5Q183 -2 160 10L181 34Q202 26 221 22Q240 18 259 18Z" glyph-name="b" horiz-adv-x="552" unicode="b" /><glyph d="M414 -57 379 -72 34 753 71 766Z" glyph-name="backslash" horiz-adv-x="449" unicode="\" /><glyph d="M147 -66H102V789H147Z" glyph-name="bar" horiz-adv-x="249" unicode="|" /><glyph d="M290 -161 282 -183Q196 -183 153 -152Q110 -121 110 -58Q110 -40 116 -12.5Q122 15 142 77Q159 130 164 151.5Q169 173 169 186Q169 227 146.5 247.5Q124 268 74 270L23 272V293H74Q121 293 145 314Q169 335 169 377Q169 390 164 411.5Q159 433 142 486Q122 549 116 576.5Q110 604 110 622Q110 685 153 716Q196 747 282 747L290 725L284 724Q235 716 211 693Q187 670 187 631Q187 620 190 604Q193 588 203 549Q219 492 224 461Q229 430 229 403Q229 356 203.5 323.5Q178 291 133 283V281Q178 271 203.5 238.5Q229 206 229 160Q229 134 224 102.5Q219 71 203 14Q193 -24 190 -40Q187 -56 187 -67Q187 -106 211 -129Q235 -152 284 -160Z" glyph-name="braceleft" horiz-adv-x="330" unicode="{" /><glyph d="M293 -93 285 -115Q199 -115 156 -84Q113 -53 113 10Q113 28 119 55.5Q125 83 145 145Q162 198 167 219.5Q172 241 172 254Q172 295 149.5 315.5Q127 336 77 338L26 340V361H77Q124 361 148 382Q172 403 172 445Q172 458 167 479.5Q162 501 145 554Q125 617 119 644.5Q113 672 113 690Q113 753 156 784Q199 815 285 815L293 793L287 792Q238 784 214 761Q190 738 190 699Q190 688 193 672Q196 656 206 617Q222 560 227 529Q232 498 232 471Q232 424 206.5 391.5Q181 359 136 351V349Q181 339 206.5 306.5Q232 274 232 228Q232 202 227 170.5Q222 139 206 82Q196 44 193 28Q190 12 190 1Q190 -38 214 -61Q238 -84 287 -92Z" glyph-name="braceleft.case" horiz-adv-x="338" /><glyph d="M220 -58Q220 -121 177 -152Q134 -183 48 -183L40 -161L46 -160Q95 -152 119 -129Q143 -106 143 -67Q143 -56 140 -40Q137 -24 127 14Q111 71 106 102.5Q101 134 101 160Q101 206 126.5 238.5Q152 271 197 281V283Q152 291 126.5 323.5Q101 356 101 403Q101 430 106 461Q111 492 127 549Q137 588 140 604Q143 620 143 631Q143 670 119 693Q95 716 46 724L40 725L48 747Q134 747 177 716Q220 685 220 622Q220 604 214 576.5Q208 549 188 486Q171 433 166 411.5Q161 390 161 377Q161 335 185 314Q209 293 256 293H307V272L256 270Q206 268 183.5 247.5Q161 227 161 186Q161 173 166 151.5Q171 130 188 77Q208 15 214 -12.5Q220 -40 220 -58Z" glyph-name="braceright" horiz-adv-x="330" unicode="}" /><glyph d="M225 10Q225 -53 182 -84Q139 -115 53 -115L45 -93L51 -92Q100 -84 124 -61Q148 -38 148 1Q148 12 145 28Q142 44 132 82Q116 139 111 170.5Q106 202 106 228Q106 274 131.5 306.5Q157 339 202 349V351Q157 359 131.5 391.5Q106 424 106 471Q106 498 111 529Q116 560 132 617Q142 656 145 672Q148 688 148 699Q148 738 124 761Q100 784 51 792L45 793L53 815Q139 815 182 784Q225 753 225 690Q225 672 219 644.5Q213 617 193 554Q176 501 171 479.5Q166 458 166 445Q166 403 190 382Q214 361 261 361H312V340L261 338Q211 336 188.5 315.5Q166 295 166 254Q166 241 171 219.5Q176 198 193 145Q213 83 219 55.5Q225 28 225 10Z" glyph-name="braceright.case" horiz-adv-x="338" /><glyph d="M305 738V703H102V738ZM102 -121V668H134Q158 568 172 463.5Q186 359 186 273Q186 187 172 82.5Q158 -22 134 -121ZM305 -156V-191H102V-156Z" glyph-name="bracketleft" horiz-adv-x="339" unicode="[" /><glyph d="M312 808V773H109V808ZM109 -51V738H141Q165 638 179 533.5Q193 429 193 343Q193 257 179 152.5Q165 48 141 -51ZM312 -86V-121H109V-86Z" glyph-name="bracketleft.case" horiz-adv-x="349" /><glyph d="M237 703H34V738H237ZM205 668H237V-121H205Q181 -22 167 82.5Q153 187 153 273Q153 359 167 463.5Q181 568 205 668ZM237 -191H34V-156H237Z" glyph-name="bracketright" horiz-adv-x="339" unicode="]" /><glyph d="M240 773H37V808H240ZM208 738H240V-51H208Q184 48 170 152.5Q156 257 156 343Q156 429 170 533.5Q184 638 208 738ZM240 -121H37V-86H240Z" glyph-name="bracketright.case" horiz-adv-x="349" /><glyph d="M173 556Q116 556 83 587.5Q50 619 50 668V690H84V684Q84 654 108 634.5Q132 615 173 615Q214 615 238 634.5Q262 654 262 684V690H296V668Q296 619 263 587.5Q230 556 173 556Z" glyph-name="breve" horiz-adv-x="346" unicode="&#728;" /><glyph d="M146 420H101V789H146ZM146 -66H101V303H146Z" glyph-name="brokenbar" horiz-adv-x="247" unicode="&#166;" /><glyph d="M266 364Q266 329 240.5 303.5Q215 278 179 278Q144 278 118.5 303.5Q93 329 93 364Q93 399 118.5 425Q144 451 179 451Q215 451 240.5 425.5Q266 400 266 364Z" glyph-name="bullet" horiz-adv-x="359" unicode="&#8226;" /><glyph d="M344 417Q331 436 316.5 445Q302 454 282 456V488Q342 488 388.5 461Q435 434 435 399Q435 384 423.5 372.5Q412 361 398 361Q375 361 360.5 387.5Q346 414 344 417ZM111 256Q111 179 149 123.5Q187 68 248 52V-14Q158 -7 102 60Q46 127 46 227Q46 326 103.5 399Q161 472 248 485V455Q190 445 150.5 388Q111 331 111 256ZM282 -14V47Q337 47 379.5 72Q422 97 441 139L459 130Q443 69 395 29.5Q347 -10 282 -14Z" glyph-name="c" horiz-adv-x="485" unicode="c" /><glyph d="M360 474Q395 461 415 441Q435 421 435 399Q435 384 423.5 372.5Q412 361 398 361Q375 361 360.5 387.5Q346 414 344 417Q331 436 316.5 445Q302 454 282 456V488Q297 488 311 486.5Q325 485 338 481Q330 496 326 514.5Q322 533 322 557Q322 618 365 660.5Q408 703 475 703Q547 703 590 654.5Q633 606 633 526V473H766V435H494V451Q527 458 549.5 490.5Q572 523 572 562Q572 612 540.5 643.5Q509 675 462 675Q411 675 377 639.5Q343 604 343 551Q343 530 347.5 510.5Q352 491 360 474ZM111 256Q111 179 149 123.5Q187 68 248 52V-14Q158 -7 102 60Q46 127 46 227Q46 326 103.5 399Q161 472 248 485V455Q190 445 150.5 388Q111 331 111 256ZM564 98V403H633V120Q633 71 649 49.5Q665 28 703 28Q717 28 732.5 31Q748 34 775 42L782 20Q765 7 730.5 -4Q696 -15 670 -15Q616 -15 590 13Q564 41 564 98ZM282 -14V47Q337 47 379.5 72Q422 97 441 139L459 130Q443 69 395 29.5Q347 -10 282 -14Z" glyph-name="c_t" horiz-adv-x="793" unicode="&#57345;" /><glyph d="M344 417Q331 436 316.5 445Q302 454 282 456V488Q342 488 388.5 461Q435 434 435 399Q435 384 423.5 372.5Q412 361 398 361Q375 361 360.5 387.5Q346 414 344 417ZM111 256Q111 179 149 123.5Q187 68 248 52V-14Q158 -7 102 60Q46 127 46 227Q46 326 103.5 399Q161 472 248 485V455Q190 445 150.5 388Q111 331 111 256ZM282 -14V47Q337 47 379.5 72Q422 97 441 139L459 130Q443 69 395 29.5Q347 -10 282 -14ZM268 549H249L264 696H359Z" glyph-name="cacute" horiz-adv-x="485" unicode="&#263;" /><glyph d="M142 547 50 694H79L165 611L251 694H280L188 547Z" glyph-name="caron" horiz-adv-x="330" unicode="&#711;" /><glyph d="M344 417Q331 436 316.5 445Q302 454 282 456V488Q342 488 388.5 461Q435 434 435 399Q435 384 423.5 372.5Q412 361 398 361Q375 361 360.5 387.5Q346 414 344 417ZM111 256Q111 179 149 123.5Q187 68 248 52V-14Q158 -7 102 60Q46 127 46 227Q46 326 103.5 399Q161 472 248 485V455Q190 445 150.5 388Q111 331 111 256ZM282 -14V47Q337 47 379.5 72Q422 97 441 139L459 130Q443 69 395 29.5Q347 -10 282 -14ZM238 549 146 696H175L261 613L347 696H376L284 549Z" glyph-name="ccaron" horiz-adv-x="485" unicode="&#269;" /><glyph d="M344 417Q331 436 316.5 445Q302 454 282 456V488Q342 488 388.5 461Q435 434 435 399Q435 384 423.5 372.5Q412 361 398 361Q375 361 360.5 387.5Q346 414 344 417ZM282 -14V47Q337 47 379.5 72Q422 97 441 139L459 130Q443 69 395 29.5Q347 -10 282 -14ZM336 -145Q336 -179 308 -201.5Q280 -224 239 -224Q212 -224 186.5 -217Q161 -210 140 -197L153 -177Q170 -184 185 -187.5Q200 -191 212 -191Q240 -191 256.5 -178Q273 -165 273 -142Q273 -121 250.5 -105Q228 -89 195 -83L194 -80L237 -13Q151 -3 98.5 64Q46 131 46 227Q46 326 103.5 399Q161 472 248 485V455Q190 445 150.5 388Q111 331 111 256Q111 179 149 123.5Q187 68 248 52V-64Q284 -69 310 -91Q336 -113 336 -145Z" glyph-name="ccedilla" horiz-adv-x="485" unicode="&#231;" /><glyph d="M344 417Q331 436 316.5 445Q302 454 282 456V488Q342 488 388.5 461Q435 434 435 399Q435 384 423.5 372.5Q412 361 398 361Q375 361 360.5 387.5Q346 414 344 417ZM111 256Q111 179 149 123.5Q187 68 248 52V-14Q158 -7 102 60Q46 127 46 227Q46 326 103.5 399Q161 472 248 485V455Q190 445 150.5 388Q111 331 111 256ZM282 -14V47Q337 47 379.5 72Q422 97 441 139L459 130Q443 69 395 29.5Q347 -10 282 -14ZM175 549H146L238 696H284L376 549H347L261 632Z" glyph-name="ccircumflex" horiz-adv-x="485" unicode="&#265;" /><glyph d="M344 417Q331 436 316.5 445Q302 454 282 456V488Q342 488 388.5 461Q435 434 435 399Q435 384 423.5 372.5Q412 361 398 361Q375 361 360.5 387.5Q346 414 344 417ZM111 256Q111 179 149 123.5Q187 68 248 52V-14Q158 -7 102 60Q46 127 46 227Q46 326 103.5 399Q161 472 248 485V455Q190 445 150.5 388Q111 331 111 256ZM282 -14V47Q337 47 379.5 72Q422 97 441 139L459 130Q443 69 395 29.5Q347 -10 282 -14ZM324 618Q324 592 305.5 573.5Q287 555 261 555Q235 555 216.5 573.5Q198 592 198 618Q198 644 216.5 662Q235 680 261 680Q287 680 305.5 662Q324 644 324 618Z" glyph-name="cdotaccent" horiz-adv-x="485" unicode="&#267;" /><glyph d="M246 -145Q246 -179 218 -201.5Q190 -224 149 -224Q122 -224 96.5 -217Q71 -210 50 -197L63 -177Q80 -184 95 -187.5Q110 -191 122 -191Q150 -191 166.5 -178Q183 -165 183 -142Q183 -121 160.5 -105Q138 -89 105 -83L104 -80L162 9L179 7L158 -64Q194 -69 220 -91Q246 -113 246 -145Z" glyph-name="cedilla" horiz-adv-x="296" unicode="&#184;" /><glyph d="M438 399Q438 384 426.5 372.5Q415 361 401 361Q378 361 363.5 387.5Q349 414 347 417Q334 436 319.5 445Q305 454 285 456V585H321V485Q371 477 404.5 452.5Q438 428 438 399ZM285 -14V47Q340 47 382.5 72Q425 97 444 139L462 130Q446 69 398 29.5Q350 -10 285 -14ZM251 52V-117H215V-8Q142 11 98 75.5Q54 140 54 227Q54 327 109.5 399.5Q165 472 251 485V455Q193 445 153.5 388Q114 331 114 256Q114 179 152 123.5Q190 68 251 52Z" glyph-name="cent" horiz-adv-x="512" unicode="&#162;" /><glyph d="M79 547H50L142 694H188L280 547H251L165 630Z" glyph-name="circumflex" horiz-adv-x="330" unicode="&#710;" /><glyph d="M201 408Q201 381 182 362Q163 343 136 343Q109 343 90 362Q71 381 71 408Q71 435 90 454Q109 473 136 473Q163 473 182 454Q201 435 201 408ZM201 50Q201 23 182 4Q163 -15 136 -15Q109 -15 90 4Q71 23 71 50Q71 77 90 96Q109 115 136 115Q163 115 182 96Q201 77 201 50Z" glyph-name="colon" horiz-adv-x="272" unicode=":" /><glyph d="M175 9 173 10Q167 1 154.5 -4.5Q142 -10 128 -10Q103 -10 86 8Q69 26 69 52Q69 77 87.5 96Q106 115 133 115Q165 115 187 89Q209 63 209 27Q209 -22 178 -63Q147 -104 88 -133L77 -121Q122 -89 146 -57Q170 -25 175 9Z" glyph-name="comma" horiz-adv-x="277" unicode="," /><glyph d="M109 -163Q84 -163 67 -145Q50 -127 50 -101Q50 -76 68.5 -57Q87 -38 114 -38Q146 -38 168 -64Q190 -90 190 -126Q190 -175 159 -216Q128 -257 69 -286L58 -274Q103 -242 127 -210Q151 -178 156 -144L154 -143Q148 -152 135.5 -157.5Q123 -163 109 -163Z" glyph-name="commaaccent" horiz-adv-x="240" unicode="&#63171;" /><glyph d="M87 366H54Q61 524 172 636Q283 748 439 755V727Q296 720 195 616.5Q94 513 87 366ZM858 366H825Q818 513 717 616.5Q616 720 473 727V755Q629 748 740 636Q851 524 858 366ZM304 372Q304 283 352.5 226.5Q401 170 476 170Q522 170 563.5 196.5Q605 223 624 262L642 254Q626 191 574 151Q522 111 454 111Q357 111 298.5 177Q240 243 240 344Q240 447 304 519.5Q368 592 464 592Q526 592 571.5 566Q617 540 617 505Q617 490 607.5 480.5Q598 471 584 471Q570 471 560.5 478Q551 485 538 510Q521 541 504 551.5Q487 562 463 562Q395 562 349.5 506Q304 450 304 372ZM54 332H87Q94 185 195 81.5Q296 -22 439 -29V-57Q283 -50 172 62Q61 174 54 332ZM825 332H858Q851 174 740 62Q629 -50 473 -57V-29Q616 -22 717 81.5Q818 185 825 332Z" glyph-name="copyright" horiz-adv-x="912" unicode="&#169;" /><glyph d="M138 365H95Q98 407 114 449.5Q130 492 158 527L68 613L99 644L185 558Q216 585 258.5 602Q301 619 344 621V581Q258 575 200.5 514.5Q143 454 138 365ZM627 365H584Q579 454 521.5 514.5Q464 575 378 581V621Q421 619 463.5 602Q506 585 537 558L623 644L654 613L564 527Q592 492 608 449.5Q624 407 627 365ZM584 333H627Q624 291 608 248.5Q592 206 564 171L654 85L623 54L537 140Q506 113 463.5 96Q421 79 378 77V117Q464 123 521.5 183.5Q579 244 584 333ZM95 333H138Q143 244 200.5 183.5Q258 123 344 117V77Q301 79 258.5 96Q216 113 185 140L99 54L68 85L158 171Q130 206 114 248.5Q98 291 95 333Z" glyph-name="currency" horiz-adv-x="722" unicode="&#164;" /><glyph d="M401 -15V656L318 687V704Q358 711 401 722.5Q444 734 468 744H470V46L545 25V8Q496 4 466.5 -0.5Q437 -5 401 -15ZM295 488Q312 488 330.5 485.5Q349 483 367 478V430Q352 443 331.5 450Q311 457 287 457Q210 457 163.5 399.5Q117 342 117 248Q117 150 162.5 95Q208 40 285 40Q305 40 326.5 44.5Q348 49 367 58V33Q343 9 312.5 -3Q282 -15 246 -15Q161 -15 103.5 52Q46 119 46 225Q46 334 118 411Q190 488 295 488Z" glyph-name="d" horiz-adv-x="566" unicode="d" /><glyph d="M218 190H167V498H49V541H167V700H218V541H337V498H218Z" glyph-name="dagger" horiz-adv-x="387" unicode="&#8224;" /><glyph d="M231 190H180V349H62V392H180V498H62V541H180V700H231V541H350V498H231V392H350V349H231Z" glyph-name="daggerdbl" horiz-adv-x="413" unicode="&#8225;" /><glyph d="M401 -15V656L318 687V704Q358 711 401 722.5Q444 734 468 744H470V46L545 25V8Q496 4 466.5 -0.5Q437 -5 401 -15ZM295 488Q312 488 330.5 485.5Q349 483 367 478V430Q352 443 331.5 450Q311 457 287 457Q210 457 163.5 399.5Q117 342 117 248Q117 150 162.5 95Q208 40 285 40Q305 40 326.5 44.5Q348 49 367 58V33Q343 9 312.5 -3Q282 -15 246 -15Q161 -15 103.5 52Q46 119 46 225Q46 334 118 411Q190 488 295 488ZM585 576Q560 576 543 594Q526 612 526 638Q526 663 544.5 682Q563 701 590 701Q622 701 644 675Q666 649 666 613Q666 564 635 523Q604 482 545 453L534 465Q579 497 603 529Q627 561 632 595L630 596Q624 587 611.5 581.5Q599 576 585 576Z" glyph-name="dcaron" horiz-adv-x="592" unicode="&#271;" /><glyph d="M545 25V8Q496 4 466.5 -0.5Q437 -5 401 -15V565H255V598H401V656L318 687V704Q358 711 401 722.5Q444 734 468 744H470V598H522V565H470V46ZM295 488Q312 488 330.5 485.5Q349 483 367 478V430Q352 443 331.5 450Q311 457 287 457Q210 457 163.5 399.5Q117 342 117 248Q117 150 162.5 95Q208 40 285 40Q305 40 326.5 44.5Q348 49 367 58V33Q343 9 312.5 -3Q282 -15 246 -15Q161 -15 103.5 52Q46 119 46 225Q46 334 118 411Q190 488 295 488Z" glyph-name="dcroat" horiz-adv-x="566" unicode="&#273;" /><glyph d="M328 560Q328 606 299.5 640.5Q271 675 227 681V714Q286 708 326 663.5Q366 619 366 560Q366 501 326 456.5Q286 412 227 406V439Q271 445 299.5 479.5Q328 514 328 560ZM92 560Q92 514 120.5 479.5Q149 445 193 439V406Q134 412 94 456.5Q54 501 54 560Q54 619 94 663.5Q134 708 193 714V681Q149 675 120.5 640.5Q92 606 92 560Z" glyph-name="degree" horiz-adv-x="420" unicode="&#176;" /><glyph d="M310 638Q310 616 295 601Q280 586 258 586Q236 586 221 601Q206 616 206 638Q206 660 221 675Q236 690 258 690Q280 690 295 675Q310 660 310 638ZM154 638Q154 616 139 601Q124 586 102 586Q80 586 65 601Q50 616 50 638Q50 660 65 675Q80 690 102 690Q124 690 139 675Q154 660 154 638Z" glyph-name="dieresis" horiz-adv-x="360" unicode="&#168;" /><glyph d="M337 523Q337 495 317 475.5Q297 456 268 456Q240 456 220.5 475.5Q201 495 201 523Q201 551 220.5 571Q240 591 268 591Q296 591 316.5 571Q337 551 337 523ZM478 338H61V378H478ZM337 192Q337 164 317 144.5Q297 125 268 125Q240 125 220.5 144.5Q201 164 201 192Q201 221 220.5 241Q240 261 268 261Q297 261 317 241Q337 221 337 192Z" glyph-name="divide" horiz-adv-x="540" unicode="&#247;" /><glyph d="M263 20 262 11 251 -97H218L226 -13Q182 -9 136.5 2.5Q91 14 65 27V217H94Q101 130 134 82.5Q167 35 230 23L261 327Q259 329 253.5 331.5Q248 334 245 335Q142 385 105.5 429.5Q69 474 69 534Q69 605 122.5 656Q176 707 263 714V680Q212 673 178.5 639Q145 605 145 557Q145 514 172.5 480.5Q200 447 270 413L308 789H341L333 714Q367 712 403.5 706Q440 700 466 693L461 543H431Q423 600 398 633Q373 666 330 676L301 398Q365 368 390 353.5Q415 339 434 323Q466 296 481.5 262.5Q497 229 497 189Q497 111 441 53.5Q385 -4 297 -13V21Q355 28 390 67Q425 106 425 161Q425 208 397 242.5Q369 277 293 313Z" glyph-name="dollar" horiz-adv-x="547" unicode="$" /><glyph d="M176 637Q176 611 157.5 592.5Q139 574 113 574Q87 574 68.5 592.5Q50 611 50 637Q50 663 68.5 681Q87 699 113 699Q139 699 157.5 681Q176 663 176 637Z" glyph-name="dotaccent" horiz-adv-x="226" unicode="&#729;" /><glyph d="M114 79V402L31 433V450Q71 457 114 468.5Q157 480 181 490H183V79Q183 53 193 41.5Q203 30 226 25L255 19V0H42V19L71 25Q94 30 104 41.5Q114 53 114 79Z" glyph-name="dotlessi" horiz-adv-x="280" unicode="&#305;" /><glyph d="M35 -237 19 -225Q52 -210 77.5 -163Q103 -116 103 -62V402L20 433V450Q60 457 103 468.5Q146 480 170 490H172V-44Q172 -123 133 -176Q94 -229 35 -237Z" glyph-name="dotlessj" horiz-adv-x="254" unicode="&#567;" /><glyph d="M46 231Q46 332 103 405.5Q160 479 248 487V455Q198 452 161 408Q124 364 115 303L376 307Q374 367 349.5 405Q325 443 282 452V487Q359 482 406 423.5Q453 365 453 282V275H112Q112 270 111.5 266Q111 262 111 260Q111 182 149 125.5Q187 69 248 52V-14Q158 -7 102 63Q46 133 46 231ZM282 -14V47H289Q337 47 379.5 73.5Q422 100 440 139L458 130Q442 69 394.5 29.5Q347 -10 282 -14Z" glyph-name="e" horiz-adv-x="502" unicode="e" /><glyph d="M46 231Q46 332 103 405.5Q160 479 248 487V455Q198 452 161 408Q124 364 115 303L376 307Q374 367 349.5 405Q325 443 282 452V487Q359 482 406 423.5Q453 365 453 282V275H112Q112 270 111.5 266Q111 262 111 260Q111 182 149 125.5Q187 69 248 52V-14Q158 -7 102 63Q46 133 46 231ZM282 -14V47H289Q337 47 379.5 73.5Q422 100 440 139L458 130Q442 69 394.5 29.5Q347 -10 282 -14ZM263 549H244L259 696H354Z" glyph-name="eacute" horiz-adv-x="502" unicode="&#233;" /><glyph d="M46 231Q46 332 103 405.5Q160 479 248 487V455Q198 452 161 408Q124 364 115 303L376 307Q374 367 349.5 405Q325 443 282 452V487Q359 482 406 423.5Q453 365 453 282V275H112Q112 270 111.5 266Q111 262 111 260Q111 182 149 125.5Q187 69 248 52V-14Q158 -7 102 63Q46 133 46 231ZM282 -14V47H289Q337 47 379.5 73.5Q422 100 440 139L458 130Q442 69 394.5 29.5Q347 -10 282 -14ZM256 548Q199 548 166 579.5Q133 611 133 660V682H167V676Q167 646 191 626.5Q215 607 256 607Q297 607 321 626.5Q345 646 345 676V682H379V660Q379 611 346 579.5Q313 548 256 548Z" glyph-name="ebreve" horiz-adv-x="502" unicode="&#277;" /><glyph d="M46 231Q46 332 103 405.5Q160 479 248 487V455Q198 452 161 408Q124 364 115 303L376 307Q374 367 349.5 405Q325 443 282 452V487Q359 482 406 423.5Q453 365 453 282V275H112Q112 270 111.5 266Q111 262 111 260Q111 182 149 125.5Q187 69 248 52V-14Q158 -7 102 63Q46 133 46 231ZM282 -14V47H289Q337 47 379.5 73.5Q422 100 440 139L458 130Q442 69 394.5 29.5Q347 -10 282 -14ZM233 549 141 696H170L256 613L342 696H371L279 549Z" glyph-name="ecaron" horiz-adv-x="502" unicode="&#283;" /><glyph d="M46 231Q46 332 103 405.5Q160 479 248 487V455Q198 452 161 408Q124 364 115 303L376 307Q374 367 349.5 405Q325 443 282 452V487Q359 482 406 423.5Q453 365 453 282V275H112Q112 270 111.5 266Q111 262 111 260Q111 182 149 125.5Q187 69 248 52V-14Q158 -7 102 63Q46 133 46 231ZM282 -14V47H289Q337 47 379.5 73.5Q422 100 440 139L458 130Q442 69 394.5 29.5Q347 -10 282 -14ZM170 549H141L233 696H279L371 549H342L256 632Z" glyph-name="ecircumflex" horiz-adv-x="502" unicode="&#234;" /><glyph d="M46 231Q46 332 103 405.5Q160 479 248 487V455Q198 452 161 408Q124 364 115 303L376 307Q374 367 349.5 405Q325 443 282 452V487Q359 482 406 423.5Q453 365 453 282V275H112Q112 270 111.5 266Q111 262 111 260Q111 182 149 125.5Q187 69 248 52V-14Q158 -7 102 63Q46 133 46 231ZM282 -14V47H289Q337 47 379.5 73.5Q422 100 440 139L458 130Q442 69 394.5 29.5Q347 -10 282 -14ZM385 622Q385 600 370 585Q355 570 333 570Q311 570 296 585Q281 600 281 622Q281 644 296 659Q311 674 333 674Q355 674 370 659Q385 644 385 622ZM229 622Q229 600 214 585Q199 570 177 570Q155 570 140 585Q125 600 125 622Q125 644 140 659Q155 674 177 674Q199 674 214 659Q229 644 229 622Z" glyph-name="edieresis" horiz-adv-x="502" unicode="&#235;" /><glyph d="M46 231Q46 332 103 405.5Q160 479 248 487V455Q198 452 161 408Q124 364 115 303L376 307Q374 367 349.5 405Q325 443 282 452V487Q359 482 406 423.5Q453 365 453 282V275H112Q112 270 111.5 266Q111 262 111 260Q111 182 149 125.5Q187 69 248 52V-14Q158 -7 102 63Q46 133 46 231ZM282 -14V47H289Q337 47 379.5 73.5Q422 100 440 139L458 130Q442 69 394.5 29.5Q347 -10 282 -14ZM319 618Q319 592 300.5 573.5Q282 555 256 555Q230 555 211.5 573.5Q193 592 193 618Q193 644 211.5 662Q230 680 256 680Q282 680 300.5 662Q319 644 319 618Z" glyph-name="edotaccent" horiz-adv-x="502" unicode="&#279;" /><glyph d="M46 231Q46 332 103 405.5Q160 479 248 487V455Q198 452 161 408Q124 364 115 303L376 307Q374 367 349.5 405Q325 443 282 452V487Q359 482 406 423.5Q453 365 453 282V275H112Q112 270 111.5 266Q111 262 111 260Q111 182 149 125.5Q187 69 248 52V-14Q158 -7 102 63Q46 133 46 231ZM282 -14V47H289Q337 47 379.5 73.5Q422 100 440 139L458 130Q442 69 394.5 29.5Q347 -10 282 -14ZM267 549H248L157 696H252Z" glyph-name="egrave" horiz-adv-x="502" unicode="&#232;" /><glyph d="M382 398 353 412Q389 444 407 480.5Q425 517 425 555Q425 604 391.5 640Q358 676 305 682V714Q385 709 435.5 662.5Q486 616 486 556Q486 509 459 468Q432 427 382 398ZM317 316 212 372Q146 408 114.5 450.5Q83 493 83 547Q83 610 137 659.5Q191 709 271 714V682Q221 677 188 643.5Q155 610 155 563Q155 517 185 483Q215 449 289 409L350 378Q434 336 471 289Q508 242 508 177Q508 102 450.5 48.5Q393 -5 305 -14V19Q362 24 398.5 63Q435 102 435 157Q435 205 406 244.5Q377 284 317 316ZM185 350 212 335Q175 299 155 257.5Q135 216 135 174Q135 112 173.5 68.5Q212 25 271 19V-15Q180 -13 118.5 39.5Q57 92 57 173Q57 225 91 271.5Q125 318 185 350Z" glyph-name="eight" horiz-adv-x="566" unicode="8" /><glyph d="M335 106Q335 57 295 24Q255 -9 198 -9Q140 -9 102 22.5Q64 54 64 104Q64 140 89.5 171.5Q115 203 159 223Q118 245 99 270.5Q80 296 80 328Q80 368 115.5 398.5Q151 429 203 429Q255 429 288.5 400.5Q322 372 322 334Q322 300 299.5 271.5Q277 243 240 227Q291 200 313 172.5Q335 145 335 106ZM285 333Q285 366 262 388Q239 410 202 410Q169 410 146 389Q123 368 123 338Q123 311 141 290.5Q159 270 205 245L225 234Q255 254 270 279.5Q285 305 285 333ZM111 104Q111 64 137.5 37.5Q164 11 203 11Q240 11 265.5 35.5Q291 60 291 95Q291 123 273.5 146.5Q256 170 219 190L173 215Q145 193 128 163.5Q111 134 111 104Z" glyph-name="eight.dnom" horiz-adv-x="400" /><glyph d="M335 392Q335 343 295 310Q255 277 198 277Q140 277 102 308.5Q64 340 64 390Q64 426 89.5 457.5Q115 489 159 509Q118 531 99 556.5Q80 582 80 614Q80 654 115.5 684.5Q151 715 203 715Q255 715 288.5 686.5Q322 658 322 620Q322 586 299.5 557.5Q277 529 240 513Q291 486 313 458.5Q335 431 335 392ZM285 619Q285 652 262 674Q239 696 202 696Q169 696 146 675Q123 654 123 624Q123 597 141 576.5Q159 556 205 531L225 520Q255 540 270 565.5Q285 591 285 619ZM111 390Q111 350 137.5 323.5Q164 297 203 297Q240 297 265.5 321.5Q291 346 291 381Q291 409 273.5 432.5Q256 456 219 476L173 501Q145 479 128 449.5Q111 420 111 390Z" glyph-name="eight.numr" horiz-adv-x="400" /><glyph d="M361 366 333 381Q365 409 381.5 441.5Q398 474 398 510Q398 555 367.5 587.5Q337 620 289 626V656Q362 651 408 608.5Q454 566 454 511Q454 468 429.5 430.5Q405 393 361 366ZM295 290 202 342Q140 377 111.5 415.5Q83 454 83 502Q83 560 132.5 605.5Q182 651 255 656V626Q210 621 179.5 590Q149 559 149 517Q149 481 170.5 454Q192 427 244 397L329 348Q410 301 442 260Q474 219 474 164Q474 92 422.5 42.5Q371 -7 289 -14V17Q341 23 374.5 58.5Q408 94 408 147Q408 188 382 221.5Q356 255 295 290ZM176 321 202 307Q164 270 147.5 234.5Q131 199 131 157Q131 98 165 60Q199 22 255 17V-15Q171 -11 115 37.5Q59 86 59 158Q59 209 89 250.5Q119 292 176 321Z" glyph-name="eight.pnum" horiz-adv-x="534" /><glyph d="M399 398 370 412Q406 444 424 480.5Q442 517 442 555Q442 604 408.5 640Q375 676 322 682V714Q402 709 452.5 662.5Q503 616 503 556Q503 509 476 468Q449 427 399 398ZM334 316 229 372Q163 408 131.5 450.5Q100 493 100 547Q100 610 154 659.5Q208 709 288 714V682Q238 677 205 643.5Q172 610 172 563Q172 517 202 483Q232 449 306 409L367 378Q451 336 488 289Q525 242 525 177Q525 102 467.5 48.5Q410 -5 322 -14V19Q379 24 415.5 63Q452 102 452 157Q452 205 423 244.5Q394 284 334 316ZM202 350 229 335Q192 299 172 257.5Q152 216 152 174Q152 112 190.5 68.5Q229 25 288 19V-15Q197 -13 135.5 39.5Q74 92 74 173Q74 225 108 271.5Q142 318 202 350Z" glyph-name="eight.tnum" horiz-adv-x="600" /><glyph d="M335 6Q335 -43 295 -76Q255 -109 198 -109Q140 -109 102 -77.5Q64 -46 64 4Q64 40 89.5 71.5Q115 103 159 123Q118 145 99 170.5Q80 196 80 228Q80 268 115.5 298.5Q151 329 203 329Q255 329 288.5 300.5Q322 272 322 234Q322 200 299.5 171.5Q277 143 240 127Q291 100 313 72.5Q335 45 335 6ZM285 233Q285 266 262 288Q239 310 202 310Q169 310 146 289Q123 268 123 238Q123 211 141 190.5Q159 170 205 145L225 134Q255 154 270 179.5Q285 205 285 233ZM111 4Q111 -36 137.5 -62.5Q164 -89 203 -89Q240 -89 265.5 -64.5Q291 -40 291 -5Q291 23 273.5 46.5Q256 70 219 90L173 115Q145 93 128 63.5Q111 34 111 4Z" glyph-name="eightinferior" horiz-adv-x="400" unicode="&#8328;" /><glyph d="M335 492Q335 443 295 410Q255 377 198 377Q140 377 102 408.5Q64 440 64 490Q64 526 89.5 557.5Q115 589 159 609Q118 631 99 656.5Q80 682 80 714Q80 754 115.5 784.5Q151 815 203 815Q255 815 288.5 786.5Q322 758 322 720Q322 686 299.5 657.5Q277 629 240 613Q291 586 313 558.5Q335 531 335 492ZM285 719Q285 752 262 774Q239 796 202 796Q169 796 146 775Q123 754 123 724Q123 697 141 676.5Q159 656 205 631L225 620Q255 640 270 665.5Q285 691 285 719ZM111 490Q111 450 137.5 423.5Q164 397 203 397Q240 397 265.5 421.5Q291 446 291 481Q291 509 273.5 532.5Q256 556 219 576L173 601Q145 579 128 549.5Q111 520 111 490Z" glyph-name="eightsuperior" horiz-adv-x="400" unicode="&#8312;" /><glyph d="M888 49Q888 22 869 3.5Q850 -15 823 -15Q796 -15 777.5 3.5Q759 22 759 49Q759 76 777.5 95Q796 114 823 114Q850 114 869 95Q888 76 888 49ZM543 49Q543 22 524 3.5Q505 -15 478 -15Q451 -15 432.5 3.5Q414 22 414 49Q414 76 432.5 95Q451 114 478 114Q505 114 524 95Q543 76 543 49ZM197 49Q197 22 178 3.5Q159 -15 132 -15Q105 -15 86.5 3.5Q68 22 68 49Q68 76 86.5 95Q105 114 132 114Q159 114 178 95Q197 76 197 49Z" glyph-name="ellipsis" horiz-adv-x="955" unicode="&#8230;" /><glyph d="M46 231Q46 332 103 405.5Q160 479 248 487V455Q198 452 161 408Q124 364 115 303L376 307Q374 367 349.5 405Q325 443 282 452V487Q359 482 406 423.5Q453 365 453 282V275H112Q112 270 111.5 266Q111 262 111 260Q111 182 149 125.5Q187 69 248 52V-14Q158 -7 102 63Q46 133 46 231ZM282 -14V47H289Q337 47 379.5 73.5Q422 100 440 139L458 130Q442 69 394.5 29.5Q347 -10 282 -14ZM392 575H121V632H392Z" glyph-name="emacron" horiz-adv-x="502" unicode="&#275;" /><glyph d="M984 237H64V272H984Z" glyph-name="emdash" horiz-adv-x="1048" unicode="&#8212;" /><glyph d="M989 303H69V338H989Z" glyph-name="emdash.case" horiz-adv-x="1058" /><glyph d="M484 237H64V272H484Z" glyph-name="endash" horiz-adv-x="548" unicode="&#8211;" /><glyph d="M489 303H69V338H489Z" glyph-name="endash.case" horiz-adv-x="558" /><glyph d="M179 490H181V79Q181 54 190.5 43Q200 32 224 27L263 19V0H40V19L69 25Q92 30 102 41.5Q112 53 112 79V402L29 433V450Q69 457 112 468.5Q155 480 179 490ZM317 -217Q275 -217 245.5 -194Q216 -171 216 -136Q216 -114 232 -97.5Q248 -81 270 -81Q292 -81 307.5 -97Q323 -113 323 -135Q323 -147 317.5 -160Q312 -173 304 -180Q308 -181 314.5 -182Q321 -183 325 -183Q367 -183 392.5 -148.5Q418 -114 418 -64V311Q418 372 388.5 404Q359 436 304 436Q283 436 260 431Q237 426 215 416V437Q238 459 271.5 473.5Q305 488 336 488Q405 488 446 445.5Q487 403 487 325V79Q487 53 497 41.5Q507 30 530 25L559 19V0H456V-58Q456 -131 418.5 -174Q381 -217 317 -217Z" glyph-name="eng" horiz-adv-x="578" unicode="&#331;" /><glyph d="M46 231Q46 332 103 405.5Q160 479 248 487V455Q198 452 161 408Q124 364 115 303L376 307Q374 367 349.5 405Q325 443 282 452V487Q359 482 406 423.5Q453 365 453 282V275H112Q112 270 111.5 266Q111 262 111 260Q111 182 149 125.5Q187 69 248 52V-14Q158 -7 102 63Q46 133 46 231ZM294 -188Q258 -188 234.5 -169Q211 -150 211 -116Q211 -90 230 -62.5Q249 -35 282 -14V47H289Q337 47 379.5 73.5Q422 100 440 139L458 130Q446 83 413.5 47.5Q381 12 334 -4Q305 -35 290.5 -60Q276 -85 276 -104Q276 -126 294.5 -140Q313 -154 341 -154Q345 -154 351.5 -153.5Q358 -153 363 -152L360 -173Q347 -180 329.5 -184Q312 -188 294 -188Z" glyph-name="eogonek" horiz-adv-x="502" unicode="&#281;" /><glyph d="M478 427H61V468H478ZM478 247H61V288H478Z" glyph-name="equal" horiz-adv-x="540" unicode="=" /><glyph d="M433 21V-11Q275 -5 164.5 100.5Q54 206 54 353Q54 498 164 602Q274 706 433 712V682Q345 677 273.5 640Q202 603 202 552V384Q202 379 204 377Q206 375 211 375H688Q693 375 695 377Q697 379 697 384V552Q697 603 627.5 639.5Q558 676 467 681V712Q635 706 740.5 602.5Q846 499 846 344H211Q206 344 204 341.5Q202 339 202 332V160Q202 108 275.5 67.5Q349 27 433 21ZM467 -11V20Q543 24 607 52.5Q671 81 714 131H761Q709 66 633 29.5Q557 -7 467 -11Z" glyph-name="estimated" horiz-adv-x="884" unicode="&#8494;" /><glyph d="M488 239Q488 134 430.5 63.5Q373 -7 283 -13V18Q343 24 375.5 80Q408 136 408 235Q408 321 367 412.5Q326 504 246 595L147 538L130 567L224 621Q195 652 162.5 682Q130 712 93 742L113 756Q147 739 187.5 710Q228 681 267 646L370 705L387 676L293 622Q387 530 437.5 432Q488 334 488 239ZM300 461Q306 452 311.5 443Q317 434 321 425Q310 427 298.5 428.5Q287 430 277 430Q212 430 169 374.5Q126 319 126 225Q126 133 158 79Q190 25 249 18V-13Q163 -5 104.5 63Q46 131 46 225Q46 326 108 395Q170 464 261 464Q270 464 280.5 463Q291 462 300 461Z" glyph-name="eth" horiz-adv-x="535" unicode="&#240;" /><glyph d="M158 193H128L127 228Q126 278 119.5 354Q113 430 99 571Q93 624 91.5 640.5Q90 657 90 662Q90 687 104.5 701Q119 715 140 715H146Q167 715 181.5 701Q196 687 196 662Q196 657 194.5 640.5Q193 624 187 571Q173 430 166.5 354Q160 278 159 228ZM208 50Q208 23 189 4Q170 -15 143 -15Q116 -15 97 4Q78 23 78 50Q78 77 97 96Q116 115 143 115Q170 115 189 96Q208 77 208 50Z" glyph-name="exclam" horiz-adv-x="286" unicode="!" /><glyph d="M117 230 118 265H148L149 230Q150 180 156.5 104Q163 28 177 -113Q183 -166 184.5 -182.5Q186 -199 186 -204Q186 -229 171.5 -243Q157 -257 136 -257H130Q109 -257 94.5 -243Q80 -229 80 -204Q80 -199 81.5 -182.5Q83 -166 89 -113Q103 28 109.5 104Q116 180 117 230ZM68 408Q68 435 87 454Q106 473 133 473Q160 473 179 454Q198 435 198 408Q198 381 179 362Q160 343 133 343Q106 343 87 362Q68 381 68 408Z" glyph-name="exclamdown" horiz-adv-x="266" unicode="&#161;" /><glyph d="M134 472 135 507H165L166 472Q167 422 173.5 346Q180 270 194 129Q200 76 201.5 59.5Q203 43 203 38Q203 13 188.5 -1Q174 -15 153 -15H147Q126 -15 111.5 -1Q97 13 97 38Q97 43 98.5 59.5Q100 76 106 129Q120 270 126.5 346Q133 422 134 472ZM85 650Q85 677 104 696Q123 715 150 715Q177 715 196 696Q215 677 215 650Q215 623 196 604Q177 585 150 585Q123 585 104 604Q85 623 85 650Z" glyph-name="exclamdown.case" horiz-adv-x="300" /><glyph d="M31 473H112V565Q112 645 158 692.5Q204 740 274 740Q307 740 340.5 724Q374 708 388 684L365 669Q350 681 332 688Q314 695 295 695Q244 695 212.5 658Q181 621 181 556V473H312V435H31ZM112 79V403H181V79Q181 54 190.5 43Q200 32 224 27L263 19V0H40V19L69 25Q92 30 102 41.5Q112 53 112 79Z" glyph-name="f" horiz-adv-x="333" unicode="f" /><glyph d="M181 473H312V435H31V473H112V564Q112 644 156 692Q200 740 267 740Q319 740 355.5 712Q392 684 392 643Q392 622 379 608.5Q366 595 348 595Q329 595 317.5 607Q306 619 306 637Q306 644 309.5 651.5Q313 659 322 669Q327 675 328.5 677.5Q330 680 330 682Q330 693 314.5 701Q299 709 278 709Q236 709 208.5 676Q181 643 181 586ZM112 79V403H181V79Q181 54 190.5 43Q200 32 224 27L263 19V0H40V19L69 25Q92 30 102 41.5Q112 53 112 79Z" glyph-name="f.alt" horiz-adv-x="333" /><glyph d="M479 586V473H610V435H31V473H112V540Q112 620 158 667.5Q204 715 274 715Q301 715 330 703.5Q359 692 377 673L360 651Q346 660 329 665Q312 670 295 670Q244 670 212.5 633Q181 596 181 531V473H410V564Q410 644 454 692Q498 740 565 740Q617 740 653.5 712Q690 684 690 643Q690 622 677 608.5Q664 595 646 595Q627 595 615.5 607Q604 619 604 637Q604 644 607.5 651.5Q611 659 620 669Q625 675 626.5 677.5Q628 680 628 682Q628 693 612.5 701Q597 709 576 709Q534 709 506.5 676Q479 643 479 586ZM410 79V403H479V79Q479 54 488.5 43Q498 32 522 27L561 19V0H338V19L367 25Q390 30 400 41.5Q410 53 410 79ZM112 79V403H181V79Q181 53 191 42Q201 31 224 27L263 19V0H40V19L69 25Q92 30 102 41.5Q112 53 112 79Z" glyph-name="f_f" horiz-adv-x="631" unicode="&#64256;" /><glyph d="M479 586V473H695Q721 473 741.5 477.5Q762 482 775 490H777V79Q777 53 787 41.5Q797 30 820 25L849 19V0H636V19L665 25Q688 30 698 41.5Q708 53 708 79V435H31V473H112V540Q112 620 158 667.5Q204 715 274 715Q301 715 330 703.5Q359 692 377 673L360 651Q346 660 329 665Q312 670 295 670Q244 670 212.5 633Q181 596 181 531V473H410V564Q410 644 454 692Q498 740 565 740Q617 740 653.5 712Q690 684 690 643Q690 622 677 608.5Q664 595 646 595Q627 595 615.5 607Q604 619 604 637Q604 644 607.5 651.5Q611 659 620 669Q625 675 626.5 677.5Q628 680 628 682Q628 693 612.5 701Q597 709 576 709Q534 709 506.5 676Q479 643 479 586ZM112 79V403H181V79Q181 53 191 42Q201 31 224 27L263 19V0H40V19L69 25Q92 30 102 41.5Q112 53 112 79ZM410 79V403H479V79Q479 54 488.5 43Q498 32 522 27L561 19V0H338V19L367 25Q390 30 400 41.5Q410 53 410 79Z" glyph-name="f_f_i" horiz-adv-x="874" unicode="&#64259;" /><glyph d="M820 25 849 19V0H636V19L665 25Q688 30 698 41.5Q708 53 708 79V656L687 664Q689 659 689.5 653.5Q690 648 690 643Q690 622 677 608.5Q664 595 646 595Q627 595 615.5 607Q604 619 604 637Q604 644 607.5 651.5Q611 659 620 669Q625 675 626.5 677.5Q628 680 628 682Q628 693 612.5 701Q597 709 576 709Q534 709 506.5 676Q479 643 479 586V473H610V435H31V473H112V540Q112 620 158 667.5Q204 715 274 715Q301 715 330 703.5Q359 692 377 673L360 651Q346 660 329 665Q312 670 295 670Q244 670 212.5 633Q181 596 181 531V473H410V564Q410 644 454 692Q498 740 565 740Q590 740 614 732Q638 724 656 710Q692 718 725.5 727.5Q759 737 775 744H777V79Q777 53 787 41.5Q797 30 820 25ZM410 79V403H479V79Q479 54 488.5 43Q498 32 522 27L561 19V0H338V19L367 25Q390 30 400 41.5Q410 53 410 79ZM112 79V403H181V79Q181 54 190.5 43Q200 32 224 27L263 19V0H40V19L69 25Q92 30 102 41.5Q112 53 112 79Z" glyph-name="f_f_l" horiz-adv-x="875" unicode="&#64260;" /><glyph d="M112 79V403H181V79Q181 54 190.5 43Q200 32 224 27L263 19V0H40V19L69 25Q92 30 102 41.5Q112 53 112 79ZM154 -147Q154 -129 166.5 -116.5Q179 -104 197 -104Q215 -104 227.5 -116.5Q240 -129 240 -147Q240 -165 227.5 -178Q215 -191 197 -191Q179 -191 166.5 -178Q154 -165 154 -147ZM181 586V473H352Q378 473 398.5 477.5Q419 482 432 490H434V-64Q434 -145 391.5 -192.5Q349 -240 282 -240Q258 -240 236 -234.5Q214 -229 197 -218V-215Q208 -216 213.5 -216.5Q219 -217 224 -217Q294 -217 329.5 -176.5Q365 -136 365 -56V435H31V473H112V564Q112 644 156 692Q200 740 267 740Q319 740 355.5 712Q392 684 392 643Q392 622 379 608.5Q366 595 348 595Q329 595 317.5 607Q306 619 306 637Q306 644 309.5 651.5Q313 659 322 669Q327 675 328.5 677.5Q330 680 330 682Q330 693 314.5 701Q299 709 278 709Q236 709 208.5 676Q181 643 181 586Z" glyph-name="f_j" horiz-adv-x="516" /><glyph d="M31 473H112V564Q112 644 156 692Q200 740 267 740Q319 740 355.5 712Q392 684 392 643Q392 622 379 608.5Q366 595 348 595Q329 595 317.5 607Q306 619 306 637Q306 644 309.5 651.5Q313 659 322 669Q327 675 328.5 677.5Q330 680 330 682Q330 693 314.5 701Q299 709 278 709Q236 709 208.5 676Q181 643 181 586V473H397Q423 473 443.5 477.5Q464 482 477 490H479V79Q479 53 489 41.5Q499 30 522 25L551 19V0H338V19L367 25Q390 30 400 41.5Q410 53 410 79V435H31ZM112 79V403H181V79Q181 54 190.5 43Q200 32 224 27L263 19V0H40V19L69 25Q92 30 102 41.5Q112 53 112 79Z" glyph-name="fi" horiz-adv-x="576" unicode="&#64257;" /><glyph d="M451 627H113L121 700H482L469 643Q468 636 462.5 631.5Q457 627 451 627ZM485 209Q485 124 428 60Q371 -4 277 -15V21Q336 29 372 74.5Q408 120 408 178Q408 254 363.5 304Q319 354 229 379Q196 387 161.5 391.5Q127 396 89 397L110 595H145L132 469Q145 468 159 467Q173 466 196 464Q332 446 408.5 376Q485 306 485 209ZM147 87Q178 51 199 37.5Q220 24 243 21V-15H233Q152 -15 97.5 13.5Q43 42 43 80Q43 100 57.5 113.5Q72 127 93 127Q103 127 113.5 119.5Q124 112 147 87Z" glyph-name="five" horiz-adv-x="541" unicode="5" /><glyph d="M157 277Q239 264 283.5 223.5Q328 183 328 125Q328 71 285 31Q242 -9 176 -9Q128 -9 95 8Q62 25 62 48Q62 60 71 68Q80 76 92 76Q98 76 104.5 71.5Q111 67 125 52Q146 28 160.5 20Q175 12 191 12Q231 12 256 40.5Q281 69 281 107Q281 158 241.5 190.5Q202 223 125 234Q117 235 109 236Q101 237 90 238L109 420H326L318 386Q317 381 314 378.5Q311 376 307 376H125L116 281Q133 280 141.5 279Q150 278 157 277Z" glyph-name="five.dnom" horiz-adv-x="400" /><glyph d="M159 563Q241 550 285.5 509.5Q330 469 330 411Q330 357 287 317Q244 277 178 277Q130 277 97 294Q64 311 64 334Q64 346 73 354Q82 362 94 362Q100 362 106.5 357.5Q113 353 127 338Q148 314 162.5 306Q177 298 193 298Q233 298 258 326.5Q283 355 283 393Q283 444 243.5 476.5Q204 509 127 520Q119 521 111 522Q103 523 92 524L111 706H328L320 672Q319 667 316 664.5Q313 662 309 662H127L118 567Q135 566 143.5 565Q152 564 159 563Z" glyph-name="five.numr" horiz-adv-x="400" /><glyph d="M410 446H100L107 513H439L427 461Q426 455 420.5 450.5Q415 446 410 446ZM441 60Q441 -14 390.5 -72.5Q340 -131 259 -144V-111Q310 -101 340 -62Q370 -23 370 32Q370 110 316 161.5Q262 213 160 228Q148 230 135.5 231Q123 232 77 234L97 414H128L117 300Q129 300 141.5 299Q154 298 175 296Q301 279 371 215Q441 151 441 60ZM131 -52Q161 -87 181.5 -99.5Q202 -112 225 -114V-146H209Q135 -146 85 -120Q35 -94 35 -58Q35 -40 48 -27.5Q61 -15 81 -15Q90 -15 100 -22Q110 -29 131 -52Z" glyph-name="five.pnum" horiz-adv-x="491" /><glyph d="M481 627H143L151 700H512L499 643Q498 636 492.5 631.5Q487 627 481 627ZM515 209Q515 124 458 60Q401 -4 307 -15V21Q366 29 402 74.5Q438 120 438 178Q438 254 393.5 304Q349 354 259 379Q226 387 191.5 391.5Q157 396 119 397L140 595H175L162 469Q175 468 189 467Q203 466 226 464Q362 446 438.5 376Q515 306 515 209ZM177 87Q208 51 229 37.5Q250 24 273 21V-15H263Q182 -15 127.5 13.5Q73 42 73 80Q73 100 87.5 113.5Q102 127 123 127Q133 127 143.5 119.5Q154 112 177 87Z" glyph-name="five.tnum" horiz-adv-x="600" /><glyph d="M187 563Q269 550 313.5 509.5Q358 469 358 411Q358 357 315 317Q272 277 206 277Q158 277 125 294Q92 311 92 334Q92 346 101 354Q110 362 122 362Q128 362 134.5 357.5Q141 353 155 338Q176 314 190.5 306Q205 298 221 298Q261 298 286 326.5Q311 355 311 393Q311 444 271.5 476.5Q232 509 155 520Q147 521 139 522Q131 523 120 524L139 706H356L348 672Q347 667 344 664.5Q341 662 337 662H155L146 567Q163 566 171.5 565Q180 564 187 563ZM908 106Q908 57 868 24Q828 -9 771 -9Q713 -9 675 22.5Q637 54 637 104Q637 140 662.5 171.5Q688 203 732 223Q691 245 672 270.5Q653 296 653 328Q653 368 688.5 398.5Q724 429 776 429Q828 429 861.5 400.5Q895 372 895 334Q895 300 872.5 271.5Q850 243 813 227Q864 200 886 172.5Q908 145 908 106ZM858 333Q858 366 835 388Q812 410 775 410Q742 410 719 389Q696 368 696 338Q696 311 714 290.5Q732 270 778 245L798 234Q828 254 843 279.5Q858 305 858 333ZM684 104Q684 64 710.5 37.5Q737 11 776 11Q813 11 838.5 35.5Q864 60 864 95Q864 123 846.5 146.5Q829 170 792 190L746 215Q718 193 701 163.5Q684 134 684 104ZM810 700 224 0H194L780 700Z" glyph-name="fiveeights" horiz-adv-x="1000" unicode="&#8541;" /><glyph d="M157 177Q239 164 283.5 123.5Q328 83 328 25Q328 -29 285 -69Q242 -109 176 -109Q128 -109 95 -92Q62 -75 62 -52Q62 -40 71 -32Q80 -24 92 -24Q98 -24 104.5 -28.5Q111 -33 125 -48Q146 -72 160.5 -80Q175 -88 191 -88Q231 -88 256 -59.5Q281 -31 281 7Q281 58 241.5 90.5Q202 123 125 134Q117 135 109 136Q101 137 90 138L109 320H326L318 286Q317 281 314 278.5Q311 276 307 276H125L116 181Q133 180 141.5 179Q150 178 157 177Z" glyph-name="fiveinferior" horiz-adv-x="400" unicode="&#8325;" /><glyph d="M158 663Q240 650 284.5 609.5Q329 569 329 511Q329 457 286 417Q243 377 177 377Q129 377 96 394Q63 411 63 434Q63 446 72 454Q81 462 93 462Q99 462 105.5 457.5Q112 453 126 438Q147 414 161.5 406Q176 398 192 398Q232 398 257 426.5Q282 455 282 493Q282 544 242.5 576.5Q203 609 126 620Q118 621 110 622Q102 623 91 624L110 806H327L319 772Q318 767 315 764.5Q312 762 308 762H126L117 667Q134 666 142.5 665Q151 664 158 663Z" glyph-name="fivesuperior" horiz-adv-x="400" unicode="&#8309;" /><glyph d="M551 19V0H338V19L367 25Q390 30 400 41.5Q410 53 410 79V656L389 664Q391 659 391.5 653.5Q392 648 392 643Q392 622 379 608.5Q366 595 348 595Q329 595 317.5 607Q306 619 306 637Q306 644 309.5 651.5Q313 659 322 669Q327 675 328.5 677.5Q330 680 330 682Q330 693 314.5 701Q299 709 278 709Q236 709 208.5 676Q181 643 181 586V473H312V435H31V473H112V564Q112 644 156 692Q200 740 267 740Q292 740 316 732Q340 724 358 710Q394 718 427.5 727.5Q461 737 477 744H479V79Q479 53 489 41.5Q499 30 522 25ZM112 79V403H181V79Q181 54 190.5 43Q200 32 224 27L263 19V0H40V19L69 25Q92 30 102 41.5Q112 53 112 79Z" glyph-name="fl" horiz-adv-x="577" unicode="&#64258;" /><glyph d="M350 339H461L450 301H170L179 339H283L330 496Q372 635 428 700.5Q484 766 562 766Q599 766 627 744Q655 722 655 695Q655 674 643 660Q631 646 612 646Q596 646 584.5 657Q573 668 573 684Q573 701 583 712Q593 723 611 727V731Q602 737 592 740Q582 743 570 743Q517 743 474.5 685.5Q432 628 399 512ZM183 -20 265 269H331L252 -4Q213 -140 154.5 -207Q96 -274 18 -274Q-21 -274 -47.5 -252Q-74 -230 -74 -201Q-74 -181 -61.5 -167.5Q-49 -154 -30 -154Q-14 -154 -2.5 -165Q9 -176 9 -192Q9 -209 -1 -220Q-11 -231 -29 -235V-239Q-20 -245 -10 -248Q0 -251 12 -251Q65 -251 107.5 -193.5Q150 -136 183 -20Z" glyph-name="florin" horiz-adv-x="676" unicode="&#402;" /><glyph d="M376 700 112 284H69L285 700ZM514 24V0H255V24L305 33Q330 37 339 45Q348 53 348 72V425L421 450V253H541V186H421V72Q421 54 430.5 45.5Q440 37 465 33ZM314 252V186H17L53 252Z" glyph-name="four" horiz-adv-x="571" unicode="4" /><glyph d="M232 152V256L275 271V152H347V118H275V44Q275 32 281 27Q287 22 302 20L331 15V1H176V15L206 20Q221 22 226.5 27Q232 32 232 44V118H47L43 134L206 429H260L76 153V152Z" glyph-name="four.dnom" horiz-adv-x="400" /><glyph d="M232 438V542L275 557V438H347V404H275V330Q275 318 281 313Q287 308 302 306L331 301V287H176V301L206 306Q221 308 226.5 313Q232 318 232 330V404H47L43 420L206 715H260L76 439V438Z" glyph-name="four.numr" horiz-adv-x="400" /><glyph d="M368 516 98 119H69L282 516ZM392 36V-136H316V256L392 279V87H503V36ZM25 36 53 87H282V36Z" glyph-name="four.pnum" horiz-adv-x="539" /><glyph d="M391 700 127 284H84L300 700ZM529 24V0H270V24L320 33Q345 37 354 45Q363 53 363 72V425L436 450V253H556V186H436V72Q436 54 445.5 45.5Q455 37 480 33ZM329 252V186H32L68 252Z" glyph-name="four.tnum" horiz-adv-x="600" /><glyph d="M232 52V156L275 171V52H347V18H275V-56Q275 -68 281 -73Q287 -78 302 -80L331 -85V-99H176V-85L206 -80Q221 -78 226.5 -73Q232 -68 232 -56V18H47L43 34L206 329H260L76 53V52Z" glyph-name="fourinferior" horiz-adv-x="400" unicode="&#8324;" /><glyph d="M232 538V642L275 657V538H347V504H275V430Q275 418 281 413Q287 408 302 406L331 401V387H176V401L206 406Q221 408 226.5 413Q232 418 232 430V504H47L43 520L206 815H260L76 539V538Z" glyph-name="foursuperior" horiz-adv-x="400" unicode="&#8308;" /><glyph d="M406 700 -180 0H-210L376 700Z" glyph-name="fraction" horiz-adv-x="200" unicode="&#8260;" /><glyph d="M139 327Q139 271 160.5 237Q182 203 222 196V166Q155 170 108 214.5Q61 259 61 327Q61 390 107 436.5Q153 483 222 489V460Q182 453 160.5 418.5Q139 384 139 327ZM342 327Q342 385 319.5 419.5Q297 454 256 460V489Q272 488 288.5 484Q305 480 320 473L514 487L504 422L371 441L370 439Q393 416 406 387Q419 358 419 327Q419 264 372 217.5Q325 171 256 166V196Q297 202 319.5 236Q342 270 342 327ZM485 -52Q485 -122 422 -172Q359 -222 256 -230V-196Q333 -194 377 -162.5Q421 -131 421 -79Q421 -34 394 -14Q367 6 308 10L179 18Q145 20 120 28Q95 36 80 50Q67 61 60 76.5Q53 92 53 110Q53 131 62 150.5Q71 170 88 186L109 171Q107 163 106 158Q105 153 105 149Q105 122 122 106Q139 90 171 88L341 77Q415 73 450 41.5Q485 10 485 -52ZM97 -95Q98 -138 131.5 -164Q165 -190 222 -195V-231Q130 -231 77 -199Q24 -167 22 -112Q21 -78 41 -50.5Q61 -23 100 -3L128 -11Q115 -28 107 -49.5Q99 -71 97 -95Z" glyph-name="g" horiz-adv-x="516" unicode="g" /><glyph d="M139 327Q139 271 160.5 237Q182 203 222 196V166Q155 170 108 214.5Q61 259 61 327Q61 390 107 436.5Q153 483 222 489V460Q182 453 160.5 418.5Q139 384 139 327ZM342 327Q342 385 319.5 419.5Q297 454 256 460V489Q272 488 288.5 484Q305 480 320 473L514 487L504 422L371 441L370 439Q393 416 406 387Q419 358 419 327Q419 264 372 217.5Q325 171 256 166V196Q297 202 319.5 236Q342 270 342 327ZM485 -52Q485 -122 422 -172Q359 -222 256 -230V-196Q333 -194 377 -162.5Q421 -131 421 -79Q421 -34 394 -14Q367 6 308 10L179 18Q145 20 120 28Q95 36 80 50Q67 61 60 76.5Q53 92 53 110Q53 131 62 150.5Q71 170 88 186L109 171Q107 163 106 158Q105 153 105 149Q105 122 122 106Q139 90 171 88L341 77Q415 73 450 41.5Q485 10 485 -52ZM97 -95Q98 -138 131.5 -164Q165 -190 222 -195V-231Q130 -231 77 -199Q24 -167 22 -112Q21 -78 41 -50.5Q61 -23 100 -3L128 -11Q115 -28 107 -49.5Q99 -71 97 -95ZM238 548Q181 548 148 579.5Q115 611 115 660V682H149V676Q149 646 173 626.5Q197 607 238 607Q279 607 303 626.5Q327 646 327 676V682H361V660Q361 611 328 579.5Q295 548 238 548Z" glyph-name="gbreve" horiz-adv-x="516" unicode="&#287;" /><glyph d="M139 327Q139 271 160.5 237Q182 203 222 196V166Q155 170 108 214.5Q61 259 61 327Q61 390 107 436.5Q153 483 222 489V460Q182 453 160.5 418.5Q139 384 139 327ZM342 327Q342 385 319.5 419.5Q297 454 256 460V489Q272 488 288.5 484Q305 480 320 473L514 487L504 422L371 441L370 439Q393 416 406 387Q419 358 419 327Q419 264 372 217.5Q325 171 256 166V196Q297 202 319.5 236Q342 270 342 327ZM485 -52Q485 -122 422 -172Q359 -222 256 -230V-196Q333 -194 377 -162.5Q421 -131 421 -79Q421 -34 394 -14Q367 6 308 10L179 18Q145 20 120 28Q95 36 80 50Q67 61 60 76.5Q53 92 53 110Q53 131 62 150.5Q71 170 88 186L109 171Q107 163 106 158Q105 153 105 149Q105 122 122 106Q139 90 171 88L341 77Q415 73 450 41.5Q485 10 485 -52ZM97 -95Q98 -138 131.5 -164Q165 -190 222 -195V-231Q130 -231 77 -199Q24 -167 22 -112Q21 -78 41 -50.5Q61 -23 100 -3L128 -11Q115 -28 107 -49.5Q99 -71 97 -95ZM152 549H123L215 696H261L353 549H324L238 632Z" glyph-name="gcircumflex" horiz-adv-x="516" unicode="&#285;" /><glyph d="M139 327Q139 271 160.5 237Q182 203 222 196V166Q155 170 108 214.5Q61 259 61 327Q61 390 107 436.5Q153 483 222 489V460Q182 453 160.5 418.5Q139 384 139 327ZM342 327Q342 385 319.5 419.5Q297 454 256 460V489Q272 488 288.5 484Q305 480 320 473L514 487L504 422L371 441L370 439Q393 416 406 387Q419 358 419 327Q419 264 372 217.5Q325 171 256 166V196Q297 202 319.5 236Q342 270 342 327ZM485 -52Q485 -122 422 -172Q359 -222 256 -230V-196Q333 -194 377 -162.5Q421 -131 421 -79Q421 -34 394 -14Q367 6 308 10L179 18Q145 20 120 28Q95 36 80 50Q67 61 60 76.5Q53 92 53 110Q53 131 62 150.5Q71 170 88 186L109 171Q107 163 106 158Q105 153 105 149Q105 122 122 106Q139 90 171 88L341 77Q415 73 450 41.5Q485 10 485 -52ZM97 -95Q98 -138 131.5 -164Q165 -190 222 -195V-231Q130 -231 77 -199Q24 -167 22 -112Q21 -78 41 -50.5Q61 -23 100 -3L128 -11Q115 -28 107 -49.5Q99 -71 97 -95ZM242 671Q267 671 284 653Q301 635 301 609Q301 584 282.5 565Q264 546 237 546Q205 546 183 572Q161 598 161 634Q161 683 192 724Q223 765 282 794L293 782Q248 750 224 718Q200 686 195 652L197 651Q203 660 215.5 665.5Q228 671 242 671Z" glyph-name="gcommaaccent" horiz-adv-x="516" unicode="&#291;" /><glyph d="M139 327Q139 271 160.5 237Q182 203 222 196V166Q155 170 108 214.5Q61 259 61 327Q61 390 107 436.5Q153 483 222 489V460Q182 453 160.5 418.5Q139 384 139 327ZM342 327Q342 385 319.5 419.5Q297 454 256 460V489Q272 488 288.5 484Q305 480 320 473L514 487L504 422L371 441L370 439Q393 416 406 387Q419 358 419 327Q419 264 372 217.5Q325 171 256 166V196Q297 202 319.5 236Q342 270 342 327ZM485 -52Q485 -122 422 -172Q359 -222 256 -230V-196Q333 -194 377 -162.5Q421 -131 421 -79Q421 -34 394 -14Q367 6 308 10L179 18Q145 20 120 28Q95 36 80 50Q67 61 60 76.5Q53 92 53 110Q53 131 62 150.5Q71 170 88 186L109 171Q107 163 106 158Q105 153 105 149Q105 122 122 106Q139 90 171 88L341 77Q415 73 450 41.5Q485 10 485 -52ZM97 -95Q98 -138 131.5 -164Q165 -190 222 -195V-231Q130 -231 77 -199Q24 -167 22 -112Q21 -78 41 -50.5Q61 -23 100 -3L128 -11Q115 -28 107 -49.5Q99 -71 97 -95ZM301 618Q301 592 282.5 573.5Q264 555 238 555Q212 555 193.5 573.5Q175 592 175 618Q175 644 193.5 662Q212 680 238 680Q264 680 282.5 662Q301 644 301 618Z" glyph-name="gdotaccent" horiz-adv-x="516" unicode="&#289;" /><glyph d="M315 749V710Q251 702 216 644Q181 586 181 491V430H31V473H112V485Q112 592 167.5 665Q223 738 315 749ZM112 79V398H181V0H40V19L69 25Q92 30 102 41.5Q112 53 112 79ZM281 365Q281 377 293.5 393Q306 409 349 447Q414 503 435.5 534.5Q457 566 457 594Q457 641 427.5 673.5Q398 706 349 710V751Q421 750 467.5 710Q514 670 514 613Q514 581 490 546.5Q466 512 397 454Q362 424 352 412.5Q342 401 342 393Q342 378 358 355.5Q374 333 469 236Q501 204 516 177Q531 150 531 124Q531 64 488.5 24.5Q446 -15 378 -15Q339 -15 306.5 3Q274 21 274 46Q274 63 285 73.5Q296 84 313 84Q320 84 325.5 79.5Q331 75 340 58Q355 31 369.5 22Q384 13 404 13Q429 13 451 36Q473 59 473 93Q473 116 458.5 140.5Q444 165 388 221L349 260Q311 298 296 322Q281 346 281 365Z" glyph-name="germandbls" horiz-adv-x="565" unicode="&#223;" /><glyph d="M160 547H141L50 694H145Z" glyph-name="grave" horiz-adv-x="210" unicode="`" /><glyph d="M499 338 82 169V214L451 358L82 502V547L499 378Z" glyph-name="greater" horiz-adv-x="540" unicode="&gt;" /><glyph d="M710 359 416 74 381 110 585 330 40 327V391L585 388L381 608L416 644Z" glyph-name="greater.alt" horiz-adv-x="735" unicode="&#8594;" /><glyph d="M487 338 70 169V214L439 358L70 502V547L487 378ZM487 0H70V41H487Z" glyph-name="greaterequal" horiz-adv-x="540" unicode="&#8805;" /><glyph d="M385 94 368 86 218 278 368 470 385 462 298 278ZM219 94 202 86 52 278 202 470 219 462 132 278Z" glyph-name="guillemotleft" horiz-adv-x="447" unicode="&#171;" /><glyph d="M396 166 379 158 229 350 379 542 396 534 309 350ZM230 166 213 158 63 350 213 542 230 534 143 350Z" glyph-name="guillemotleft.case" horiz-adv-x="479" /><glyph d="M396 278 246 86 228 94 316 278 228 462 246 470ZM230 278 80 86 62 94 150 278 62 462 80 470Z" glyph-name="guillemotright" horiz-adv-x="448" unicode="&#187;" /><glyph d="M417 350 267 158 249 166 337 350 249 534 267 542ZM251 350 101 158 83 166 171 350 83 534 101 542Z" glyph-name="guillemotright.case" horiz-adv-x="480" /><glyph d="M210 94 194 86 52 278 194 470 210 462 127 278Z" glyph-name="guilsinglleft" horiz-adv-x="272" unicode="&#8249;" /><glyph d="M222 166 206 158 64 350 206 542 222 534 139 350Z" glyph-name="guilsinglleft.case" horiz-adv-x="305" /><glyph d="M220 278 78 86 62 94 145 278 62 462 78 470Z" glyph-name="guilsinglright" horiz-adv-x="272" unicode="&#8250;" /><glyph d="M241 350 99 158 83 166 166 350 83 534 99 542Z" glyph-name="guilsinglright.case" horiz-adv-x="305" /><glyph d="M163 744H165V79Q165 54 174.5 43Q184 32 208 27L247 19V0H24V19L53 25Q76 30 86 41.5Q96 53 96 79V656L13 687V704Q53 711 96 722.5Q139 734 163 744ZM471 325V79Q471 53 481 41.5Q491 30 514 25L543 19V0H330V19L359 25Q382 30 392 41.5Q402 53 402 79V311Q402 372 372.5 404Q343 436 288 436Q267 436 244 431Q221 426 199 416V437Q222 459 255.5 473.5Q289 488 320 488Q389 488 430 445.5Q471 403 471 325Z" glyph-name="h" horiz-adv-x="562" unicode="h" /><glyph d="M208 27 247 19V0H24V19L53 25Q76 30 86 41.5Q96 53 96 79V565H21V598H96V656L13 687V704Q53 711 96 722.5Q139 734 163 744H165V598H288V565H165V79Q165 54 174.5 43Q184 32 208 27ZM471 325V79Q471 53 481 41.5Q491 30 514 25L543 19V0H330V19L359 25Q382 30 392 41.5Q402 53 402 79V311Q402 372 372.5 404Q343 436 288 436Q267 436 244 431Q221 426 199 416V437Q222 459 255.5 473.5Q289 488 320 488Q389 488 430 445.5Q471 403 471 325Z" glyph-name="hbar" horiz-adv-x="562" unicode="&#295;" /><glyph d="M163 744H165V79Q165 54 174.5 43Q184 32 208 27L247 19V0H24V19L53 25Q76 30 86 41.5Q96 53 96 79V656L13 687V704Q53 711 96 722.5Q139 734 163 744ZM471 325V79Q471 53 481 41.5Q491 30 514 25L543 19V0H330V19L359 25Q382 30 392 41.5Q402 53 402 79V311Q402 372 372.5 404Q343 436 288 436Q267 436 244 431Q221 426 199 416V437Q222 459 255.5 473.5Q289 488 320 488Q389 488 430 445.5Q471 403 471 325ZM185 772H156L248 919H294L386 772H357L271 855Z" glyph-name="hcircumflex" horiz-adv-x="562" unicode="&#293;" /><glyph d="M215 547H196L211 694H306ZM69 547H50L65 694H160Z" glyph-name="hungarumlaut" horiz-adv-x="356" unicode="&#733;" /><glyph d="M281 225H71V283H281Z" glyph-name="hyphen" horiz-adv-x="352" unicode="-" /><glyph d="M285 291H75V349H285Z" glyph-name="hyphen.case" horiz-adv-x="360" /><glyph d="M195 660Q195 638 179 621.5Q163 605 140 605Q118 605 101.5 621.5Q85 638 85 660Q85 682 101.5 698.5Q118 715 140 715Q162 715 178.5 698.5Q195 682 195 660ZM114 79V402L31 433V450Q71 457 114 468.5Q157 480 181 490H183V79Q183 53 193 41.5Q203 30 226 25L255 19V0H42V19L71 25Q94 30 104 41.5Q114 53 114 79Z" glyph-name="i" horiz-adv-x="280" unicode="i" /><glyph d="M195 660Q195 638 179 621.5Q163 605 140 605Q118 605 101.5 621.5Q85 638 85 660Q85 682 101.5 698.5Q118 715 140 715Q162 715 178.5 698.5Q195 682 195 660ZM114 79V402L31 433V450Q71 457 114 468.5Q157 480 181 490H183V79Q183 53 193 41.5Q203 30 226 25L255 19V0H42V19L71 25Q94 30 104 41.5Q114 53 114 79Z" glyph-name="i.TRK" horiz-adv-x="280" /><glyph d="M114 79V402L31 433V450Q71 457 114 468.5Q157 480 181 490H183V79Q183 53 193 41.5Q203 30 226 25L255 19V0H42V19L71 25Q94 30 104 41.5Q114 53 114 79ZM140 549H121L136 696H231Z" glyph-name="iacute" horiz-adv-x="280" unicode="&#237;" /><glyph d="M114 79V402L31 433V450Q71 457 114 468.5Q157 480 181 490H183V79Q183 53 193 41.5Q203 30 226 25L255 19V0H42V19L71 25Q94 30 104 41.5Q114 53 114 79ZM133 548Q76 548 43 579.5Q10 611 10 660V682H44V676Q44 646 68 626.5Q92 607 133 607Q174 607 198 626.5Q222 646 222 676V682H256V660Q256 611 223 579.5Q190 548 133 548Z" glyph-name="ibreve" horiz-adv-x="280" unicode="&#301;" /><glyph d="M114 79V402L31 433V450Q71 457 114 468.5Q157 480 181 490H183V79Q183 53 193 41.5Q203 30 226 25L255 19V0H42V19L71 25Q94 30 104 41.5Q114 53 114 79ZM47 549H18L110 696H156L248 549H219L133 632Z" glyph-name="icircumflex" horiz-adv-x="280" unicode="&#238;" /><glyph d="M114 79V402L31 433V450Q71 457 114 468.5Q157 480 181 490H183V79Q183 53 193 41.5Q203 30 226 25L255 19V0H42V19L71 25Q94 30 104 41.5Q114 53 114 79ZM262 622Q262 600 247 585Q232 570 210 570Q188 570 173 585Q158 600 158 622Q158 644 173 659Q188 674 210 674Q232 674 247 659Q262 644 262 622ZM106 622Q106 600 91 585Q76 570 54 570Q32 570 17 585Q2 600 2 622Q2 644 17 659Q32 674 54 674Q76 674 91 659Q106 644 106 622Z" glyph-name="idieresis" horiz-adv-x="280" unicode="&#239;" /><glyph d="M114 79V402L31 433V450Q71 457 114 468.5Q157 480 181 490H183V79Q183 53 193 41.5Q203 30 226 25L255 19V0H42V19L71 25Q94 30 104 41.5Q114 53 114 79ZM144 549H125L34 696H129Z" glyph-name="igrave" horiz-adv-x="280" unicode="&#236;" /><glyph d="M195 660Q195 638 179 621.5Q163 605 140 605Q118 605 101.5 621.5Q85 638 85 660Q85 682 101.5 698.5Q118 715 140 715Q162 715 178.5 698.5Q195 682 195 660ZM114 79V402L31 433V450Q71 457 114 468.5Q157 480 181 490H183V79Q183 53 193 41.5Q203 30 226 25L255 19V0H42V19L71 25Q94 30 104 41.5Q114 53 114 79ZM464 660Q464 638 448 621.5Q432 605 409 605Q387 605 370.5 621.5Q354 638 354 660Q354 683 370.5 699Q387 715 409 715Q432 715 448 699Q464 683 464 660ZM172 -147Q172 -129 184.5 -116.5Q197 -104 215 -104Q233 -104 245.5 -116.5Q258 -129 258 -147Q258 -165 245.5 -178Q233 -191 215 -191Q197 -191 184.5 -178Q172 -165 172 -147ZM242 -217Q312 -217 347.5 -176.5Q383 -136 383 -56V402L300 433V450Q340 457 383 468.5Q426 480 450 490H452V-64Q452 -145 409.5 -192.5Q367 -240 300 -240Q276 -240 254 -234.5Q232 -229 215 -218V-215Q226 -216 231.5 -216.5Q237 -217 242 -217Z" glyph-name="ij" horiz-adv-x="534" unicode="&#307;" /><glyph d="M114 79V402L31 433V450Q71 457 114 468.5Q157 480 181 490H183V79Q183 53 193 41.5Q203 30 226 25L255 19V0H42V19L71 25Q94 30 104 41.5Q114 53 114 79ZM269 575H-2V632H269Z" glyph-name="imacron" horiz-adv-x="280" unicode="&#299;" /><glyph d="M392 656 242 355 197 376 360 700H425L587 376L542 354ZM91 51H372V0H32V47L179 339L224 318ZM693 51 561 317 606 338 752 47V0H413V51Z" glyph-name="increment" horiz-adv-x="784" unicode="&#8710;" /><glyph d="M761 361Q761 419 723.5 459Q686 499 634 499Q597 499 563 469.5Q529 440 470 342Q435 287 416.5 261Q398 235 381 216Q349 182 316 166Q283 150 247 150Q166 150 117.5 213.5Q69 277 69 365Q69 453 118.5 514Q168 575 246 575Q295 575 335.5 548Q376 521 414 460L396 434Q369 465 328 482.5Q287 500 240 500Q181 500 144.5 461Q108 422 108 364Q108 306 145.5 266Q183 226 235 226Q272 226 307 256Q342 286 405 386Q479 502 525 538.5Q571 575 622 575Q703 575 751.5 511.5Q800 448 800 360Q800 272 750.5 211Q701 150 623 150Q574 150 533.5 177Q493 204 455 265L473 291Q500 260 541 242.5Q582 225 629 225Q688 225 724.5 264Q761 303 761 361Z" glyph-name="infinity" horiz-adv-x="869" unicode="&#8734;" /><glyph d="M303 351Q303 296 265.5 257.5Q228 219 174 219Q120 219 82.5 257.5Q45 296 45 351Q45 406 82.5 444.5Q120 483 174 483Q228 483 265.5 444.5Q303 406 303 351Z" glyph-name="integral" horiz-adv-x="348" unicode="&#8747;" /><glyph d="M195 660Q195 638 179 621.5Q163 605 140 605Q118 605 101.5 621.5Q85 638 85 660Q85 682 101.5 698.5Q118 715 140 715Q162 715 178.5 698.5Q195 682 195 660ZM239 -152 236 -173Q223 -180 205.5 -184Q188 -188 170 -188Q134 -188 110.5 -169Q87 -150 87 -116Q87 -85 113 -53.5Q139 -22 183 0H42V19L71 25Q94 30 104 41.5Q114 53 114 79V402L31 433V450Q71 457 114 468.5Q157 480 181 490H183V79Q183 53 193 41.5Q203 30 226 25L255 19V0H214Q183 -32 167.5 -58Q152 -84 152 -104Q152 -126 170.5 -140Q189 -154 217 -154Q221 -154 227.5 -153.5Q234 -153 239 -152Z" glyph-name="iogonek" horiz-adv-x="280" unicode="&#303;" /><glyph d="M114 79V402L31 433V450Q71 457 114 468.5Q157 480 181 490H183V79Q183 53 193 41.5Q203 30 226 25L255 19V0H42V19L71 25Q94 30 104 41.5Q114 53 114 79ZM62 600Q44 600 33.5 588Q23 576 21 556L0 560Q0 607 19.5 633.5Q39 660 73 660Q84 660 98 656Q112 652 142 640Q170 628 182.5 624.5Q195 621 204 621Q222 621 232.5 633Q243 645 245 665L266 661Q266 614 246.5 587.5Q227 561 193 561Q182 561 168 565Q154 569 124 581Q96 593 83.5 596.5Q71 600 62 600Z" glyph-name="itilde" horiz-adv-x="280" unicode="&#297;" /><glyph d="M184 660Q184 638 168 621.5Q152 605 129 605Q107 605 90.5 621.5Q74 638 74 660Q74 683 90.5 699Q107 715 129 715Q152 715 168 699Q184 683 184 660ZM35 -237 19 -225Q52 -210 77.5 -163Q103 -116 103 -62V402L20 433V450Q60 457 103 468.5Q146 480 170 490H172V-44Q172 -123 133 -176Q94 -229 35 -237Z" glyph-name="j" horiz-adv-x="254" unicode="j" /><glyph d="M184 660Q184 638 168 621.5Q152 605 129 605Q107 605 90.5 621.5Q74 638 74 660Q74 683 90.5 699Q107 715 129 715Q152 715 168 699Q184 683 184 660ZM-108 -147Q-108 -129 -95.5 -116.5Q-83 -104 -65 -104Q-47 -104 -34.5 -116.5Q-22 -129 -22 -147Q-22 -165 -34.5 -178Q-47 -191 -65 -191Q-83 -191 -95.5 -178Q-108 -165 -108 -147ZM-38 -217Q32 -217 67.5 -176.5Q103 -136 103 -56V402L20 433V450Q60 457 103 468.5Q146 480 170 490H172V-64Q172 -145 129.5 -192.5Q87 -240 20 -240Q-4 -240 -26 -234.5Q-48 -229 -65 -218V-215Q-54 -216 -48.5 -216.5Q-43 -217 -38 -217Z" glyph-name="j.alt" horiz-adv-x="254" /><glyph d="M35 -237 19 -225Q52 -210 77.5 -163Q103 -116 103 -62V402L20 433V450Q60 457 103 468.5Q146 480 170 490H172V-44Q172 -123 133 -176Q94 -229 35 -237ZM26 549H-3L89 696H135L227 549H198L112 632Z" glyph-name="jcircumflex" horiz-adv-x="254" unicode="&#309;" /><glyph d="M159 744H161V79Q161 54 170.5 43Q180 32 204 27L243 19V0H20V19L49 25Q72 30 82 41.5Q92 53 92 79V656L9 687V704Q49 711 92 722.5Q135 734 159 744ZM404 402 195 218V254L346 401Q362 416 359.5 429Q357 442 336 447L306 454V473H495V454Q482 450 473 446.5Q464 443 460 441Q446 434 432.5 424.5Q419 415 404 402ZM387 20 246 219 297 264 425 87Q446 57 460.5 44Q475 31 489 26L510 19V0H424Q413 0 403 5.5Q393 11 387 20Z" glyph-name="k" horiz-adv-x="515" unicode="k" /><glyph d="M159 744H161V79Q161 54 170.5 43Q180 32 204 27L243 19V0H20V19L49 25Q72 30 82 41.5Q92 53 92 79V656L9 687V704Q49 711 92 722.5Q135 734 159 744ZM404 402 195 218V254L346 401Q362 416 359.5 429Q357 442 336 447L306 454V473H495V454Q482 450 473 446.5Q464 443 460 441Q446 434 432.5 424.5Q419 415 404 402ZM387 20 246 219 297 264 425 87Q446 57 460.5 44Q475 31 489 26L510 19V0H424Q413 0 403 5.5Q393 11 387 20ZM253 -180Q228 -180 211 -162Q194 -144 194 -118Q194 -93 212.5 -74Q231 -55 258 -55Q290 -55 312 -81Q334 -107 334 -143Q334 -192 303 -233Q272 -274 213 -303L202 -291Q247 -259 271 -227Q295 -195 300 -161L298 -160Q292 -169 279.5 -174.5Q267 -180 253 -180Z" glyph-name="kcommaaccent" horiz-adv-x="515" unicode="&#311;" /><glyph d="M292 161 231 243 367 398Q381 415 377.5 429.5Q374 444 355 448L322 454V473H515V454Q489 447 465 432.5Q441 418 420 397L293 272L433 90Q455 61 471.5 46.5Q488 32 502 27L522 19V0H431Q422 0 412.5 5.5Q403 11 397 19ZM175 394V79Q175 56 184 43Q193 30 210 27L249 19V0H34V19L71 27Q89 31 97.5 44Q106 57 106 79V394Q106 416 97.5 429Q89 442 71 446L34 454V473H249V454L210 446Q193 443 184 430Q175 417 175 394Z" glyph-name="kgreenlandic" horiz-adv-x="533" unicode="&#312;" /><glyph d="M167 744V79Q167 53 177 41.5Q187 30 210 25L239 19V0H26V19L55 25Q78 30 88 41.5Q98 53 98 79V656L15 687V704Q55 711 98 722.5Q141 734 165 744Z" glyph-name="l" horiz-adv-x="265" unicode="l" /><glyph d="M167 744V79Q167 53 177 41.5Q187 30 210 25L239 19V0H26V19L55 25Q78 30 88 41.5Q98 53 98 79V656L15 687V704Q55 711 98 722.5Q141 734 165 744ZM116 774H97L112 921H207Z" glyph-name="lacute" horiz-adv-x="265" unicode="&#314;" /><glyph d="M286 576Q261 576 244 594Q227 612 227 638Q227 663 245.5 682Q264 701 291 701Q323 701 345 675Q367 649 367 613Q367 564 336 523Q305 482 246 453L235 465Q280 497 304 529Q328 561 333 595L331 596Q325 587 312.5 581.5Q300 576 286 576ZM167 744V79Q167 53 177 41.5Q187 30 210 25L239 19V0H26V19L55 25Q78 30 88 41.5Q98 53 98 79V656L15 687V704Q55 711 98 722.5Q141 734 165 744Z" glyph-name="lcaron" horiz-adv-x="292" unicode="&#318;" /><glyph d="M167 744V79Q167 53 177 41.5Q187 30 210 25L239 19V0H26V19L55 25Q78 30 88 41.5Q98 53 98 79V656L15 687V704Q55 711 98 722.5Q141 734 165 744ZM127 -180Q102 -180 85 -162Q68 -144 68 -118Q68 -93 86.5 -74Q105 -55 132 -55Q164 -55 186 -81Q208 -107 208 -143Q208 -192 177 -233Q146 -274 87 -303L76 -291Q121 -259 145 -227Q169 -195 174 -161L172 -160Q166 -169 153.5 -174.5Q141 -180 127 -180Z" glyph-name="lcommaaccent" horiz-adv-x="265" unicode="&#316;" /><glyph d="M167 744V79Q167 53 177 41.5Q187 30 210 25L239 19V0H26V19L55 25Q78 30 88 41.5Q98 53 98 79V656L15 687V704Q55 711 98 722.5Q141 734 165 744ZM375 305Q375 278 356 259Q337 240 310 240Q283 240 264 259Q245 278 245 305Q245 332 264 351Q283 370 310 370Q337 370 356 351Q375 332 375 305Z" glyph-name="ldot" horiz-adv-x="353" unicode="&#320;" /><glyph d="M458 214V169L41 338V378L458 547V502L89 358Z" glyph-name="less" horiz-adv-x="540" unicode="&lt;" /><glyph d="M354 110 319 74 25 359 319 644 354 608 150 388 695 391V327L150 330Z" glyph-name="less.alt" horiz-adv-x="735" unicode="&#8592;" /><glyph d="M470 214V169L53 338V378L470 547V502L101 358ZM470 0H53V41H470Z" glyph-name="lessequal" horiz-adv-x="540" unicode="&#8804;" /><glyph d="M472 247H427V427H55V468H472Z" glyph-name="logicalnot" horiz-adv-x="540" unicode="&#172;" /><glyph d="M634 -162Q616 -170 603 -170Q590 -170 572 -162Q343 -59 196.5 115.5Q50 290 50 475Q50 549 77 618Q104 687 152 737Q196 782 256.5 806Q317 830 387 830Q448 830 504.5 808Q561 786 609 744Q656 786 710.5 807Q765 828 826 828Q894 828 954 804Q1014 780 1058 734Q1106 685 1132.5 616Q1159 547 1159 473Q1159 288 1011.5 114.5Q864 -59 634 -162ZM355 25Q416 -24 486 -66.5Q556 -109 594 -124Q599 -126 603 -126Q607 -126 612 -124Q651 -108 721.5 -66Q792 -24 853 24Q906 66 948.5 110.5Q991 155 1024 203Q1068 268 1091.5 337Q1115 406 1115 474Q1115 541 1090.5 602.5Q1066 664 1021 708Q980 747 930.5 767Q881 787 823 787Q764 787 708.5 765Q653 743 605 700Q554 744 498.5 766Q443 788 384 788Q328 788 278.5 768Q229 748 189 710Q144 666 119 603.5Q94 541 94 473Q94 406 117 337Q140 268 184 205Q217 156 260 111Q303 66 355 25ZM373 522Q373 512 381 504Q389 496 399 496Q404 496 408.5 498Q413 500 416 504Q422 510 423 519Q424 528 420 538L357 697Q354 704 347 707Q340 710 333 707Q326 704 323 697Q320 690 323 683L357 597L259 575Q252 574 247.5 567.5Q243 561 245 553Q246 546 252.5 541.5Q259 537 267 539L371 562L380 540Q376 536 374.5 531.5Q373 527 373 522ZM857 515Q871 511 885.5 513Q900 515 912 522Q937 535 946.5 561.5Q956 588 944 611L911 678Q908 685 900.5 687Q893 689 886 686L751 612Q744 608 742 601Q740 594 744 587Q748 580 755 578Q762 576 769 580L796 595L822 545Q827 535 836.5 527Q846 519 857 515ZM426 655Q426 641 435.5 631.5Q445 622 458 622Q471 622 480.5 631.5Q490 641 490 654Q490 668 481 677.5Q472 687 458 687Q444 687 435 677.5Q426 668 426 655ZM698 521Q677 514 652.5 510Q628 506 603 506Q579 506 555.5 509.5Q532 513 511 520Q535 561 558 593.5Q581 626 605 650Q627 628 649.5 596Q672 564 698 521ZM895 553Q883 547 871.5 549Q860 551 854 561L828 613L887 645L912 595Q918 584 912.5 572Q907 560 895 553ZM904 301Q911 304 914 311Q917 318 914 324L874 414L907 429L922 396Q925 389 932 386.5Q939 384 946 387Q953 390 955.5 397Q958 404 955 411L940 445L971 460L1003 388Q1006 381 1013 378.5Q1020 376 1027 379Q1034 382 1036.5 389Q1039 396 1036 403L996 492Q995 496 992.5 498.5Q990 501 986 502Q983 503 979 502.5Q975 502 972 501L843 439Q836 435 833.5 428.5Q831 422 834 415L881 310Q884 303 890.5 300.5Q897 298 904 301ZM475 90Q477 85 481.5 82Q486 79 492 79H733Q741 79 746.5 84Q752 89 752 97Q752 105 747 110Q742 115 734 115H555Q650 165 689 210Q728 255 728 304Q728 356 694 392Q660 428 605 428Q549 428 511.5 395Q474 362 474 312Q474 275 499 247Q524 219 561 219Q594 219 616.5 239Q639 259 639 292Q639 313 628.5 324.5Q618 336 603 336Q589 336 579.5 326.5Q570 317 570 304Q570 296 574 289Q578 282 585 277Q589 273 582 264Q575 255 559 255Q539 255 525.5 272.5Q512 290 512 313Q512 349 537 371Q562 393 603 393Q641 393 664.5 368Q688 343 688 305Q688 270 662.5 237Q637 204 579 166Q563 156 544.5 145.5Q526 135 498 121Q487 115 483.5 113Q480 111 479 110Q475 105 474 100Q473 95 475 90ZM191 350Q199 348 205.5 351.5Q212 355 214 362L231 412L345 372Q352 369 359 372Q366 375 368 383Q371 390 367.5 397Q364 404 357 406L242 447L257 494Q259 502 255.5 508.5Q252 515 245 517Q238 519 231 515.5Q224 512 222 505L179 373Q177 366 180.5 359Q184 352 191 350ZM830 53Q778 11 717.5 -26.5Q657 -64 603 -90Q552 -66 491 -27Q430 12 377 54Q326 95 285 138Q244 181 214 226Q174 284 152.5 348Q131 412 131 474Q131 535 153 590Q175 645 215 684Q250 718 293.5 735Q337 752 387 752Q437 752 485.5 732.5Q534 713 579 675Q552 646 527 612.5Q502 579 480 540Q442 474 410.5 392Q379 310 357 221L307 231Q300 233 293.5 229Q287 225 286 218Q284 211 288.5 205Q293 199 300 198L435 169Q442 168 447.5 171.5Q453 175 455 182Q456 189 452.5 195Q449 201 442 203L394 213Q413 289 438.5 358.5Q464 428 494 487Q520 478 547.5 473Q575 468 603 468Q632 468 660.5 473Q689 478 715 488Q745 428 770.5 356Q796 284 813 212L765 202Q758 201 754 195Q750 189 751 182Q752 175 758.5 170.5Q765 166 772 168L907 196Q914 198 917.5 203.5Q921 209 920 216Q919 223 913 227.5Q907 232 900 230L851 220Q851 221 850.5 222Q850 223 850 223Q827 314 796 395.5Q765 477 727 543Q705 582 681.5 615Q658 648 632 674Q676 712 724.5 731.5Q773 751 823 751Q874 751 917.5 733.5Q961 716 995 682Q1034 643 1056 588.5Q1078 534 1078 473Q1078 411 1056.5 348Q1035 285 994 223Q963 179 922 136.5Q881 94 830 53ZM571 3Q571 -11 580.5 -20.5Q590 -30 603 -30Q616 -30 625.5 -20.5Q635 -11 635 2Q635 16 626 25.5Q617 35 603 35Q589 35 580 25.5Q571 16 571 3Z" glyph-name="logo" horiz-adv-x="1209" /><glyph d="M181 586V435H31V473H112V564Q112 644 156 692Q200 740 267 740Q319 740 355.5 712Q392 684 392 643Q392 622 379 608.5Q366 595 348 595Q329 595 317.5 607Q306 619 306 637Q306 644 309.5 651.5Q313 659 322 669Q327 675 328.5 677.5Q330 680 330 682Q330 693 314.5 701Q299 709 278 709Q236 709 208.5 676Q181 643 181 586ZM112 79V403H181V79Q181 54 190.5 43Q200 32 224 27L263 19V0H40V19L69 25Q92 30 102 41.5Q112 53 112 79Z" glyph-name="longs" horiz-adv-x="302" unicode="&#383;" /><glyph d="M820 350 411 -66 3 350 411 767Z" glyph-name="lozenge" horiz-adv-x="823" unicode="&#9674;" /><glyph d="M244 19V0H31V19L60 25Q83 30 93 41.5Q103 53 103 79V312L27 268V303L103 347V656L20 687V704Q60 711 103 722.5Q146 734 170 744H172V387L251 433V398L172 352V79Q172 53 182 41.5Q192 30 215 25Z" glyph-name="lslash" horiz-adv-x="274" unicode="&#322;" /><glyph d="M263 19V0H40V19L69 25Q92 30 102 41.5Q112 53 112 79V402L29 433V450Q69 457 112 468.5Q155 480 179 490H181V79Q181 54 190.5 43Q200 32 224 27ZM587 436Q566 436 540.5 429Q515 422 495 411Q494 417 491.5 422.5Q489 428 486 432Q517 459 551.5 473.5Q586 488 619 488Q687 488 727 442Q767 396 767 315V79Q767 53 777 41.5Q787 30 810 25L839 19V0H626V19L655 25Q678 30 688 41.5Q698 53 698 79V302Q698 368 669.5 402Q641 436 587 436ZM334 488Q399 488 436.5 444Q474 400 474 325V79Q474 53 484 41.5Q494 30 517 25L546 19V0H333V19L362 25Q385 30 395 41.5Q405 53 405 79V302Q405 367 378.5 401.5Q352 436 304 436Q283 436 260.5 431Q238 426 215 416V437Q237 458 271.5 473Q306 488 334 488Z" glyph-name="m" horiz-adv-x="857" unicode="m" /><glyph d="M328 595H57V652H328Z" glyph-name="macron" horiz-adv-x="385" unicode="&#175;" /><glyph d="M478 338H61V378H478Z" glyph-name="minus" horiz-adv-x="540" unicode="&#8722;" /><glyph d="M409 -15V402L326 433V450Q366 457 409 468.5Q452 480 476 490H478V46L553 25V8Q504 4 474.5 -0.5Q445 -5 409 -15ZM257 -15Q227 -15 200 -2.5Q173 10 154 34V-166H119V402L36 433V450Q76 457 119 468.5Q162 480 186 490H188V172Q188 104 213.5 71.5Q239 39 292 39Q316 39 337 43.5Q358 48 375 57V36Q352 12 321 -1.5Q290 -15 257 -15Z" glyph-name="mu" horiz-adv-x="595" unicode="&#181;" /><glyph d="M270 329 102 161 73 190 241 358 73 526 102 555 270 387 439 555 468 526 299 358 468 190 439 161Z" glyph-name="multiply" horiz-adv-x="540" unicode="&#215;" /><glyph d="M179 490H181V79Q181 54 190.5 43Q200 32 224 27L263 19V0H40V19L69 25Q92 30 102 41.5Q112 53 112 79V402L29 433V450Q69 457 112 468.5Q155 480 179 490ZM304 436Q283 436 260 431Q237 426 215 416V437Q238 459 271.5 473.5Q305 488 336 488Q405 488 446 445.5Q487 403 487 325V79Q487 53 497 41.5Q507 30 530 25L559 19V0H346V19L375 25Q398 30 408 41.5Q418 53 418 79V311Q418 372 388.5 404Q359 436 304 436Z" glyph-name="n" horiz-adv-x="578" unicode="n" /><glyph d="M179 490H181V79Q181 54 190.5 43Q200 32 224 27L263 19V0H40V19L69 25Q92 30 102 41.5Q112 53 112 79V402L29 433V450Q69 457 112 468.5Q155 480 179 490ZM304 436Q283 436 260 431Q237 426 215 416V437Q238 459 271.5 473.5Q305 488 336 488Q405 488 446 445.5Q487 403 487 325V79Q487 53 497 41.5Q507 30 530 25L559 19V0H346V19L375 25Q398 30 408 41.5Q418 53 418 79V311Q418 372 388.5 404Q359 436 304 436ZM301 559H282L297 706H392Z" glyph-name="nacute" horiz-adv-x="578" unicode="&#324;" /><glyph d="M316 490H318V79Q318 54 327.5 43Q337 32 361 27L400 19V0H177V19L206 25Q229 30 239 41.5Q249 53 249 79V402L166 433V450Q206 457 249 468.5Q292 480 316 490ZM441 436Q420 436 397 431Q374 426 352 416V437Q375 459 408.5 473.5Q442 488 473 488Q542 488 583 445.5Q624 403 624 325V79Q624 53 634 41.5Q644 30 667 25L696 19V0H483V19L512 25Q535 30 545 41.5Q555 53 555 79V311Q555 372 525.5 404Q496 436 441 436ZM101 575Q76 575 59 593Q42 611 42 637Q42 662 60.5 681Q79 700 106 700Q138 700 160 674Q182 648 182 612Q182 563 151 522Q120 481 61 452L50 464Q95 496 119 528Q143 560 148 594L146 595Q140 586 127.5 580.5Q115 575 101 575Z" glyph-name="napostrophe" horiz-adv-x="716" unicode="&#329;" /><glyph d="M179 490H181V79Q181 54 190.5 43Q200 32 224 27L263 19V0H40V19L69 25Q92 30 102 41.5Q112 53 112 79V402L29 433V450Q69 457 112 468.5Q155 480 179 490ZM304 436Q283 436 260 431Q237 426 215 416V437Q238 459 271.5 473.5Q305 488 336 488Q405 488 446 445.5Q487 403 487 325V79Q487 53 497 41.5Q507 30 530 25L559 19V0H346V19L375 25Q398 30 408 41.5Q418 53 418 79V311Q418 372 388.5 404Q359 436 304 436ZM271 559 179 706H208L294 623L380 706H409L317 559Z" glyph-name="ncaron" horiz-adv-x="578" unicode="&#328;" /><glyph d="M179 490H181V79Q181 54 190.5 43Q200 32 224 27L263 19V0H40V19L69 25Q92 30 102 41.5Q112 53 112 79V402L29 433V450Q69 457 112 468.5Q155 480 179 490ZM304 436Q283 436 260 431Q237 426 215 416V437Q238 459 271.5 473.5Q305 488 336 488Q405 488 446 445.5Q487 403 487 325V79Q487 53 497 41.5Q507 30 530 25L559 19V0H346V19L375 25Q398 30 408 41.5Q418 53 418 79V311Q418 372 388.5 404Q359 436 304 436ZM288 -170Q263 -170 246 -152Q229 -134 229 -108Q229 -83 247.5 -64Q266 -45 293 -45Q325 -45 347 -71Q369 -97 369 -133Q369 -182 338 -223Q307 -264 248 -293L237 -281Q282 -249 306 -217Q330 -185 335 -151L333 -150Q327 -159 314.5 -164.5Q302 -170 288 -170Z" glyph-name="ncommaaccent" horiz-adv-x="578" unicode="&#326;" /><glyph d="M425 469Q425 561 389 615.5Q353 670 290 679V715Q388 709 449 636Q510 563 510 450Q510 374 477 298.5Q444 223 381 152Q325 88 252 36.5Q179 -15 113 -39L102 -18Q266 94 345.5 215Q425 336 425 469ZM41 486Q41 576 103 641.5Q165 707 256 714V680Q198 675 160 623Q122 571 122 492Q122 412 166.5 364.5Q211 317 277 317Q303 317 326 321Q349 325 369 333Q365 322 361 312.5Q357 303 352 293Q331 283 306.5 277.5Q282 272 257 272Q162 272 101.5 331Q41 390 41 486Z" glyph-name="nine" horiz-adv-x="564" unicode="9" /><glyph d="M260 91Q226 52 182.5 21Q139 -10 99 -24L92 -11Q162 36 206.5 87.5Q251 139 271 194Q255 179 232.5 171Q210 163 185 163Q128 163 92 198.5Q56 234 56 291Q56 348 96.5 388.5Q137 429 195 429Q258 429 297.5 385Q337 341 337 270Q337 225 317.5 179.5Q298 134 260 91ZM104 296Q104 248 131 219.5Q158 191 200 191Q221 191 242 198.5Q263 206 279 219Q283 238 284.5 252.5Q286 267 286 281Q286 341 260.5 374.5Q235 408 191 408Q154 408 129 377Q104 346 104 296Z" glyph-name="nine.dnom" horiz-adv-x="400" /><glyph d="M260 377Q226 338 182.5 307Q139 276 99 262L92 275Q162 322 206.5 373.5Q251 425 271 480Q255 465 232.5 457Q210 449 185 449Q128 449 92 484.5Q56 520 56 577Q56 634 96.5 674.5Q137 715 195 715Q258 715 297.5 671Q337 627 337 556Q337 511 317.5 465.5Q298 420 260 377ZM104 582Q104 534 131 505.5Q158 477 200 477Q221 477 242 484.5Q263 492 279 505Q283 524 284.5 538.5Q286 553 286 567Q286 627 260.5 660.5Q235 694 191 694Q154 694 129 663Q104 632 104 582Z" glyph-name="nine.numr" horiz-adv-x="400" /><glyph d="M390 299Q390 385 356 435.5Q322 486 262 493V526Q354 521 411 454.5Q468 388 468 282Q468 212 438 142.5Q408 73 350 7Q298 -51 231 -98.5Q164 -146 103 -168L93 -149Q245 -45 317.5 66Q390 177 390 299ZM37 315Q37 396 91.5 456Q146 516 228 525V493Q176 485 143.5 439Q111 393 111 322Q111 246 155 202Q199 158 268 158Q286 158 303 161Q320 164 334 170Q331 159 327.5 151Q324 143 320 136Q299 127 278 122.5Q257 118 235 118Q148 118 92.5 172.5Q37 227 37 315Z" glyph-name="nine.pnum" horiz-adv-x="517" /><glyph d="M443 469Q443 561 407 615.5Q371 670 308 679V715Q406 709 467 636Q528 563 528 450Q528 374 495 298.5Q462 223 399 152Q343 88 270 36.5Q197 -15 131 -39L120 -18Q284 94 363.5 215Q443 336 443 469ZM59 486Q59 576 121 641.5Q183 707 274 714V680Q216 675 178 623Q140 571 140 492Q140 412 184.5 364.5Q229 317 295 317Q321 317 344 321Q367 325 387 333Q383 322 379 312.5Q375 303 370 293Q349 283 324.5 277.5Q300 272 275 272Q180 272 119.5 331Q59 390 59 486Z" glyph-name="nine.tnum" horiz-adv-x="600" /><glyph d="M260 -9Q226 -48 182.5 -79Q139 -110 99 -124L92 -111Q162 -64 206.5 -12.5Q251 39 271 94Q255 79 232.5 71Q210 63 185 63Q128 63 92 98.5Q56 134 56 191Q56 248 96.5 288.5Q137 329 195 329Q258 329 297.5 285Q337 241 337 170Q337 125 317.5 79.5Q298 34 260 -9ZM104 196Q104 148 131 119.5Q158 91 200 91Q221 91 242 98.5Q263 106 279 119Q283 138 284.5 152.5Q286 167 286 181Q286 241 260.5 274.5Q235 308 191 308Q154 308 129 277Q104 246 104 196Z" glyph-name="nineinferior" horiz-adv-x="400" unicode="&#8329;" /><glyph d="M260 477Q226 438 182.5 407Q139 376 99 362L92 375Q162 422 206.5 473.5Q251 525 271 580Q255 565 232.5 557Q210 549 185 549Q128 549 92 584.5Q56 620 56 677Q56 734 96.5 774.5Q137 815 195 815Q258 815 297.5 771Q337 727 337 656Q337 611 317.5 565.5Q298 520 260 477ZM104 682Q104 634 131 605.5Q158 577 200 577Q221 577 242 584.5Q263 592 279 605Q283 624 284.5 638.5Q286 653 286 667Q286 727 260.5 760.5Q235 794 191 794Q154 794 129 763Q104 732 104 682Z" glyph-name="ninesuperior" horiz-adv-x="400" unicode="&#8313;" /><glyph d="M238 247 199 161 161 178 194 247H61V288H213L278 427H61V468H297L338 556L376 539L342 468H478V427H323L258 288H478V247Z" glyph-name="notequal" horiz-adv-x="540" unicode="&#8800;" /><glyph d="M179 490H181V79Q181 54 190.5 43Q200 32 224 27L263 19V0H40V19L69 25Q92 30 102 41.5Q112 53 112 79V402L29 433V450Q69 457 112 468.5Q155 480 179 490ZM304 436Q283 436 260 431Q237 426 215 416V437Q238 459 271.5 473.5Q305 488 336 488Q405 488 446 445.5Q487 403 487 325V79Q487 53 497 41.5Q507 30 530 25L559 19V0H346V19L375 25Q398 30 408 41.5Q418 53 418 79V311Q418 372 388.5 404Q359 436 304 436ZM223 610Q205 610 194.5 598Q184 586 182 566L161 570Q161 617 180.5 643.5Q200 670 234 670Q245 670 259 666Q273 662 303 650Q331 638 343.5 634.5Q356 631 365 631Q383 631 393.5 643Q404 655 406 675L427 671Q427 624 407.5 597.5Q388 571 354 571Q343 571 329 575Q315 579 285 591Q257 603 244.5 606.5Q232 610 223 610Z" glyph-name="ntilde" horiz-adv-x="578" unicode="&#241;" /><glyph d="M422 227H264V268H422V447H264V488H422V700H467V488H595V447H467V268H595V227H467V0H422ZM230 700V0H186V227H57V268H186V447H57V488H186V700Z" glyph-name="numbersign" horiz-adv-x="652" unicode="#" /><glyph d="M122 237Q122 137 155 79.5Q188 22 249 15V-14Q162 -6 103.5 66Q45 138 45 237Q45 336 103.5 408Q162 480 249 488V459Q188 452 155 394.5Q122 337 122 237ZM410 237Q410 337 377 394.5Q344 452 283 459V488Q370 480 428.5 408Q487 336 487 237Q487 138 428.5 66Q370 -6 283 -14V15Q344 22 377 79.5Q410 137 410 237Z" glyph-name="o" horiz-adv-x="532" unicode="o" /><glyph d="M122 237Q122 137 155 79.5Q188 22 249 15V-14Q162 -6 103.5 66Q45 138 45 237Q45 336 103.5 408Q162 480 249 488V459Q188 452 155 394.5Q122 337 122 237ZM410 237Q410 337 377 394.5Q344 452 283 459V488Q370 480 428.5 408Q487 336 487 237Q487 138 428.5 66Q370 -6 283 -14V15Q344 22 377 79.5Q410 137 410 237ZM273 549H254L269 696H364Z" glyph-name="oacute" horiz-adv-x="532" unicode="&#243;" /><glyph d="M122 237Q122 137 155 79.5Q188 22 249 15V-14Q162 -6 103.5 66Q45 138 45 237Q45 336 103.5 408Q162 480 249 488V459Q188 452 155 394.5Q122 337 122 237ZM410 237Q410 337 377 394.5Q344 452 283 459V488Q370 480 428.5 408Q487 336 487 237Q487 138 428.5 66Q370 -6 283 -14V15Q344 22 377 79.5Q410 137 410 237ZM266 548Q209 548 176 579.5Q143 611 143 660V682H177V676Q177 646 201 626.5Q225 607 266 607Q307 607 331 626.5Q355 646 355 676V682H389V660Q389 611 356 579.5Q323 548 266 548Z" glyph-name="obreve" horiz-adv-x="532" unicode="&#335;" /><glyph d="M122 237Q122 137 155 79.5Q188 22 249 15V-14Q162 -6 103.5 66Q45 138 45 237Q45 336 103.5 408Q162 480 249 488V459Q188 452 155 394.5Q122 337 122 237ZM410 237Q410 337 377 394.5Q344 452 283 459V488Q370 480 428.5 408Q487 336 487 237Q487 138 428.5 66Q370 -6 283 -14V15Q344 22 377 79.5Q410 137 410 237ZM180 549H151L243 696H289L381 549H352L266 632Z" glyph-name="ocircumflex" horiz-adv-x="532" unicode="&#244;" /><glyph d="M122 237Q122 137 155 79.5Q188 22 249 15V-14Q162 -6 103.5 66Q45 138 45 237Q45 336 103.5 408Q162 480 249 488V459Q188 452 155 394.5Q122 337 122 237ZM410 237Q410 337 377 394.5Q344 452 283 459V488Q370 480 428.5 408Q487 336 487 237Q487 138 428.5 66Q370 -6 283 -14V15Q344 22 377 79.5Q410 137 410 237ZM395 622Q395 600 380 585Q365 570 343 570Q321 570 306 585Q291 600 291 622Q291 644 306 659Q321 674 343 674Q365 674 380 659Q395 644 395 622ZM239 622Q239 600 224 585Q209 570 187 570Q165 570 150 585Q135 600 135 622Q135 644 150 659Q165 674 187 674Q209 674 224 659Q239 644 239 622Z" glyph-name="odieresis" horiz-adv-x="532" unicode="&#246;" /><glyph d="M608 52V-14Q556 -10 514.5 17.5Q473 45 447 91Q418 45 375 17.5Q332 -10 283 -14V15Q344 22 377 79.5Q410 137 410 237Q410 337 377 394.5Q344 452 283 459V488Q332 484 375.5 455.5Q419 427 449 380Q476 427 517 455Q558 483 608 487V455Q558 452 521 408Q484 364 475 303L736 307Q734 367 709.5 405Q685 443 642 452V487Q719 482 766 423.5Q813 365 813 282V275H472Q472 270 471.5 266Q471 262 471 260Q471 182 509 125.5Q547 69 608 52ZM45 237Q45 336 103.5 408Q162 480 249 488V459Q188 452 154.5 394.5Q121 337 121 237Q121 137 154.5 79.5Q188 22 249 15V-14Q162 -6 103.5 66Q45 138 45 237ZM642 -14V47H649Q697 47 739.5 73.5Q782 100 800 139L818 130Q802 69 754.5 29.5Q707 -10 642 -14Z" glyph-name="oe" horiz-adv-x="863" unicode="&#339;" /><glyph d="M190 -154Q194 -154 200.5 -153.5Q207 -153 212 -152L209 -173Q196 -180 178.5 -184Q161 -188 143 -188Q107 -188 83.5 -169Q60 -150 60 -116Q60 -80 93.5 -45Q127 -10 181 11L193 6Q159 -28 142 -55.5Q125 -83 125 -104Q125 -126 143.5 -140Q162 -154 190 -154Z" glyph-name="ogonek" horiz-adv-x="252" unicode="&#731;" /><glyph d="M122 237Q122 137 155 79.5Q188 22 249 15V-14Q162 -6 103.5 66Q45 138 45 237Q45 336 103.5 408Q162 480 249 488V459Q188 452 155 394.5Q122 337 122 237ZM410 237Q410 337 377 394.5Q344 452 283 459V488Q370 480 428.5 408Q487 336 487 237Q487 138 428.5 66Q370 -6 283 -14V15Q344 22 377 79.5Q410 137 410 237ZM277 549H258L167 696H262Z" glyph-name="ograve" horiz-adv-x="532" unicode="&#242;" /><glyph d="M122 237Q122 137 155 79.5Q188 22 249 15V-14Q162 -6 103.5 66Q45 138 45 237Q45 336 103.5 408Q162 480 249 488V459Q188 452 155 394.5Q122 337 122 237ZM410 237Q410 337 377 394.5Q344 452 283 459V488Q370 480 428.5 408Q487 336 487 237Q487 138 428.5 66Q370 -6 283 -14V15Q344 22 377 79.5Q410 137 410 237ZM347 549H328L343 696H438ZM201 549H182L197 696H292Z" glyph-name="ohungarumlaut" horiz-adv-x="532" unicode="&#337;" /><glyph d="M122 237Q122 137 155 79.5Q188 22 249 15V-14Q162 -6 103.5 66Q45 138 45 237Q45 336 103.5 408Q162 480 249 488V459Q188 452 155 394.5Q122 337 122 237ZM410 237Q410 337 377 394.5Q344 452 283 459V488Q370 480 428.5 408Q487 336 487 237Q487 138 428.5 66Q370 -6 283 -14V15Q344 22 377 79.5Q410 137 410 237ZM402 575H131V632H402Z" glyph-name="omacron" horiz-adv-x="532" unicode="&#333;" /><glyph d="M279 715V677L42 595V631ZM202 84V620L279 647V84Q279 66 288.5 55.5Q298 45 318 42L418 27V0H61V27L163 42Q183 45 192.5 55.5Q202 66 202 84Z" glyph-name="one" horiz-adv-x="433" unicode="1" /><glyph d="M317 17V0H107V17L166 26Q177 27 183 33.5Q189 40 189 51V384L101 359V379L215 429H235V51Q235 40 241 33.5Q247 27 259 26Z" glyph-name="one.dnom" horiz-adv-x="400" /><glyph d="M315 303V286H105V303L164 312Q175 313 181 319.5Q187 326 187 337V670L99 645V665L213 715H233V337Q233 326 239 319.5Q245 313 257 312Z" glyph-name="one.numr" horiz-adv-x="400" /><glyph d="M236 528V493L54 430V464ZM166 78V435L236 460V78Q236 61 245 51Q254 41 271 38L347 25V0H55V25L130 38Q148 41 157 51Q166 61 166 78Z" glyph-name="one.pnum" horiz-adv-x="374" /><glyph d="M363 715V677L126 595V631ZM286 84V620L363 647V84Q363 66 372.5 55.5Q382 45 402 42L502 27V0H145V27L247 42Q267 45 276.5 55.5Q286 66 286 84Z" glyph-name="one.tnum" horiz-adv-x="600" /><glyph d="M909 106Q909 57 869 24Q829 -9 772 -9Q714 -9 676 22.5Q638 54 638 104Q638 140 663.5 171.5Q689 203 733 223Q692 245 673 270.5Q654 296 654 328Q654 368 689.5 398.5Q725 429 777 429Q829 429 862.5 400.5Q896 372 896 334Q896 300 873.5 271.5Q851 243 814 227Q865 200 887 172.5Q909 145 909 106ZM859 333Q859 366 836 388Q813 410 776 410Q743 410 720 389Q697 368 697 338Q697 311 715 290.5Q733 270 779 245L799 234Q829 254 844 279.5Q859 305 859 333ZM685 104Q685 64 711.5 37.5Q738 11 777 11Q814 11 839.5 35.5Q865 60 865 95Q865 123 847.5 146.5Q830 170 793 190L747 215Q719 193 702 163.5Q685 134 685 104ZM811 700 225 0H195L781 700ZM306 303V286H96V303L155 312Q166 313 172 319.5Q178 326 178 337V670L90 645V665L204 715H224V337Q224 326 230 319.5Q236 313 248 312Z" glyph-name="oneeight" horiz-adv-x="999" unicode="&#8539;" /><glyph d="M902 40 894 0H630V23L747 151Q798 209 816 243.5Q834 278 834 308Q834 348 811.5 371Q789 394 751 394Q722 394 698.5 377.5Q675 361 656 326L641 333Q655 376 689.5 402.5Q724 429 767 429Q817 429 849 399.5Q881 370 881 325Q881 289 862 254.5Q843 220 794 169L670 40ZM819 700 233 0H203L789 700ZM314 303V286H104V303L163 312Q174 313 180 319.5Q186 326 186 337V670L98 645V665L212 715H232V337Q232 326 238 319.5Q244 313 256 312Z" glyph-name="onehalf" horiz-adv-x="1000" unicode="&#189;" /><glyph d="M316 -83V-100H106V-83L165 -74Q176 -73 182 -66.5Q188 -60 188 -49V284L100 259V279L214 329H234V-49Q234 -60 240 -66.5Q246 -73 258 -74Z" glyph-name="oneinferior" horiz-adv-x="400" unicode="&#8321;" /><glyph d="M794 152V256L837 271V152H909V118H837V44Q837 32 843 27Q849 22 864 20L893 15V1H738V15L768 20Q783 22 788.5 27Q794 32 794 44V118H609L605 134L768 429H822L638 153V152ZM306 303V286H96V303L155 312Q166 313 172 319.5Q178 326 178 337V670L90 645V665L204 715H224V337Q224 326 230 319.5Q236 313 248 312ZM811 700 225 0H195L781 700Z" glyph-name="onequarter" horiz-adv-x="999" unicode="&#188;" /><glyph d="M316 403V386H106V403L165 412Q176 413 182 419.5Q188 426 188 437V770L100 745V765L214 815H234V437Q234 426 240 419.5Q246 413 258 412Z" glyph-name="onesuperior" horiz-adv-x="400" unicode="&#185;" /><glyph d="M910 116Q910 64 869 27.5Q828 -9 761 -9Q710 -9 674.5 8Q639 25 639 48Q639 60 647.5 68Q656 76 669 76Q675 76 682 71.5Q689 67 703 52Q727 28 742 20Q757 12 773 12Q812 12 836.5 37Q861 62 861 98Q861 140 827.5 170.5Q794 201 739 212L737 222L747 227Q799 253 821 275.5Q843 298 843 323Q843 355 822 373.5Q801 392 768 392Q743 392 718.5 380.5Q694 369 674 349L660 357Q676 386 713 407.5Q750 429 791 429Q835 429 863.5 404.5Q892 380 892 345Q892 316 871.5 291.5Q851 267 804 243L796 239Q849 226 879.5 193.5Q910 161 910 116ZM810 700 224 0H194L780 700ZM305 303V286H95V303L154 312Q165 313 171 319.5Q177 326 177 337V670L89 645V665L203 715H223V337Q223 326 229 319.5Q235 313 247 312Z" glyph-name="onethird" horiz-adv-x="999" unicode="&#8531;" /><glyph d="M383 212Q350 212 331 234Q312 256 312 294V559Q312 617 286 646Q260 675 208 675Q172 675 147 662Q122 649 122 633Q122 629 124.5 626Q127 623 136 617Q150 607 154.5 599.5Q159 592 159 583Q159 565 147.5 553.5Q136 542 117 542Q99 542 86 556.5Q73 571 73 592Q73 641 123.5 678Q174 715 237 715Q304 715 342.5 676.5Q381 638 381 570V303Q381 282 391 271.5Q401 261 419 261Q429 261 439 264.5Q449 268 457 274L465 262Q453 241 430.5 226.5Q408 212 383 212ZM283 249Q263 232 235 222Q207 212 179 212Q128 212 93.5 245.5Q59 279 59 328Q59 364 80.5 393.5Q102 423 141 438L278 492V462L190 421Q163 409 147.5 387.5Q132 366 132 341Q132 307 155 284.5Q178 262 213 262Q231 262 248 266Q265 270 279 278Q279 265 280 260Q281 255 283 249Z" glyph-name="ordfeminine" horiz-adv-x="507" unicode="&#170;" /><glyph d="M135 462Q135 362 168 304.5Q201 247 262 240V211Q175 219 116.5 291Q58 363 58 462Q58 561 116.5 633Q175 705 262 713V684Q201 677 168 619.5Q135 562 135 462ZM423 462Q423 562 390 619.5Q357 677 296 684V713Q383 705 441.5 633Q500 561 500 462Q500 363 441.5 291Q383 219 296 211V240Q357 247 390 304.5Q423 362 423 462Z" glyph-name="ordmasculine" horiz-adv-x="558" unicode="&#186;" /><glyph d="M638 251Q638 142 559.5 63.5Q481 -15 371 -15Q229 -15 135.5 83Q42 181 42 336Q42 493 152.5 604Q263 715 420 715Q470 715 518.5 703Q567 691 609 668L600 653Q561 675 515 686.5Q469 698 421 698Q273 698 167.5 591.5Q62 485 62 336Q62 264 86.5 199.5Q111 135 156 86L158 88Q132 124 118 166Q104 208 104 251Q104 361 182.5 439Q261 517 372 517Q482 517 560 439Q638 361 638 251Z" glyph-name="orn.1" horiz-adv-x="675" /><glyph d="M632 364Q632 207 521.5 96Q411 -15 254 -15Q204 -15 155.5 -3Q107 9 65 32L74 47Q113 25 159 13.5Q205 2 253 2Q401 2 506.5 108.5Q612 215 612 364Q612 436 587.5 500.5Q563 565 518 614L516 612Q542 576 556 534Q570 492 570 449Q570 339 491.5 261Q413 183 302 183Q192 183 114 261Q36 339 36 449Q36 558 114.5 636.5Q193 715 303 715Q445 715 538.5 617Q632 519 632 364Z" glyph-name="orn.2" horiz-adv-x="675" /><glyph d="M866 501Q866 390 766 262Q666 134 468 -6V521Q468 612 521 666.5Q574 721 662 721Q752 721 809 659.5Q866 598 866 501ZM240 721Q328 721 381 666.5Q434 612 434 521V-6Q236 134 136 262Q36 390 36 501Q36 598 93 659.5Q150 721 240 721Z" glyph-name="orn.3" horiz-adv-x="900" /><glyph d="M743 726 808 661 613 494H576V531ZM288 531V494H252L53 661L120 726ZM432 258Q469 258 496.5 285.5Q524 313 524 350Q524 387 496.5 414.5Q469 442 432 442Q393 442 366 415Q339 388 339 350Q339 312 366 285Q393 258 432 258ZM479 350Q479 369 465 383Q451 397 432 397Q413 397 398.5 383Q384 369 384 350Q384 331 398 317Q412 303 432 303Q451 303 465 317Q479 331 479 350ZM127 281Q100 296 78 313Q56 330 38 350Q56 370 78 387Q100 404 127 419Q155 434 182.5 441.5Q210 449 236 449Q268 449 300 442Q332 435 357 423Q344 453 338 484Q332 515 332 546Q332 572 340 599Q348 626 363 654Q378 681 395 703Q412 725 432 743Q452 725 469 703Q486 681 500 654Q516 626 523.5 599Q531 572 531 546Q531 515 525 484Q519 453 506 423Q534 436 565 442.5Q596 449 628 449Q654 449 681 441.5Q708 434 736 419Q762 404 784.5 387Q807 370 825 350Q807 330 785 313Q763 296 736 282Q708 266 681 258.5Q654 251 628 251Q596 251 565.5 257.5Q535 264 506 276Q518 247 524.5 216.5Q531 186 531 154Q531 128 523.5 101Q516 74 501 46Q486 20 469 -2.5Q452 -25 432 -43Q412 -25 395 -3Q378 19 363 46Q348 74 340 101Q332 128 332 154Q332 186 338.5 216.5Q345 247 357 276Q331 264 299 257.5Q267 251 236 251Q210 251 182.5 258.5Q155 266 127 281ZM576 206H613L808 39L743 -26L576 169ZM53 39 252 206H288V169L120 -26Z" glyph-name="orn.4" horiz-adv-x="862" /><glyph d="M381 366H40Q46 508 144 608.5Q242 709 381 716ZM757 366H415V716Q554 709 652.5 608.5Q751 508 757 366ZM381 334V-15Q242 -8 144 92Q46 192 40 334ZM415 334H757Q751 193 652.5 92.5Q554 -8 415 -15Z" glyph-name="orn.5" horiz-adv-x="797" /><glyph d="M757 350Q757 199 652.5 92Q548 -15 399 -15Q250 -15 145 92Q40 199 40 350Q40 501 145 608.5Q250 716 399 716Q547 716 652 609Q757 502 757 350ZM349 143 381 175 247 323 652 321V378L247 377L381 525L349 557L134 350Z" glyph-name="orn.6" horiz-adv-x="797" /><glyph d="M757 350Q757 199 652 92Q547 -15 398 -15Q249 -15 144.5 92Q40 199 40 350Q40 502 145 609Q250 716 398 716Q547 716 652 608.5Q757 501 757 350ZM550 323 416 175 448 143 663 350 448 557 416 525 550 377 145 378V321Z" glyph-name="orn.7" horiz-adv-x="797" /><glyph d="M249 15V-14Q217 -11 187.5 1.5Q158 14 134 35L87 -27L64 -11L113 55Q80 90 62.5 137.5Q45 185 45 237Q45 336 103.5 408Q162 480 249 488V459Q188 452 155 394.5Q122 337 122 237Q122 194 128 159Q134 124 146 98L373 402Q357 427 334 441.5Q311 456 283 459V488Q315 485 344.5 472.5Q374 460 400 438L446 500L469 484L420 418Q452 383 469.5 336Q487 289 487 237Q487 138 428.5 66Q370 -6 283 -14V15Q344 22 377 79.5Q410 137 410 237Q410 279 404 313.5Q398 348 387 374L160 71Q176 47 199 32.5Q222 18 249 15Z" glyph-name="oslash" horiz-adv-x="532" unicode="&#248;" /><glyph d="M122 237Q122 137 155 79.5Q188 22 249 15V-14Q162 -6 103.5 66Q45 138 45 237Q45 336 103.5 408Q162 480 249 488V459Q188 452 155 394.5Q122 337 122 237ZM410 237Q410 337 377 394.5Q344 452 283 459V488Q370 480 428.5 408Q487 336 487 237Q487 138 428.5 66Q370 -6 283 -14V15Q344 22 377 79.5Q410 137 410 237ZM195 600Q177 600 166.5 588Q156 576 154 556L133 560Q133 607 152.5 633.5Q172 660 206 660Q217 660 231 656Q245 652 275 640Q303 628 315.5 624.5Q328 621 337 621Q355 621 365.5 633Q376 645 378 665L399 661Q399 614 379.5 587.5Q360 561 326 561Q315 561 301 565Q287 569 257 581Q229 593 216.5 596.5Q204 600 195 600Z" glyph-name="otilde" horiz-adv-x="532" unicode="&#245;" /><glyph d="M215 -193 254 -201V-220H31V-201L60 -195Q83 -190 93 -178.5Q103 -167 103 -141V402L20 433V450Q60 457 103 468.5Q146 480 170 490H172V-141Q172 -166 181.5 -177Q191 -188 215 -193ZM298 -15Q274 -15 250 -11Q226 -7 206 0V26Q224 22 243.5 20Q263 18 280 18Q363 18 409.5 74.5Q456 131 456 230Q456 325 408.5 379.5Q361 434 283 434Q265 434 246 429.5Q227 425 206 416V444Q231 465 261.5 476.5Q292 488 324 488Q409 488 468 420.5Q527 353 527 249Q527 133 464 59Q401 -15 298 -15Z" glyph-name="p" horiz-adv-x="573" unicode="p" /><glyph d="M490 -186H460V700H490ZM281 -105V297H238Q154 297 95 355.5Q36 414 36 498Q36 582 95 641Q154 700 238 700H311V-100Q311 -154 280.5 -186.5Q250 -219 201 -219Q166 -219 141.5 -202Q117 -185 117 -157Q117 -140 129.5 -127.5Q142 -115 159 -115Q176 -115 188 -128Q200 -141 200 -158Q200 -169 196.5 -177.5Q193 -186 187 -192Q189 -193 194.5 -193.5Q200 -194 203 -194Q238 -194 259.5 -168Q281 -142 281 -105Z" glyph-name="paragraph" horiz-adv-x="597" unicode="&#182;" /><glyph d="M297 -172 278 -191Q177 -110 112.5 21.5Q48 153 48 276Q48 398 112.5 529.5Q177 661 278 742L297 723Q205 639 150.5 518Q96 397 97 276Q98 153 152 32Q206 -89 297 -172Z" glyph-name="parenleft" horiz-adv-x="320" unicode="(" /><glyph d="M301 -102 282 -121Q181 -40 116.5 91.5Q52 223 52 346Q52 468 116.5 599.5Q181 731 282 812L301 793Q209 709 154.5 588Q100 467 101 346Q102 223 156 102Q210 -19 301 -102Z" glyph-name="parenleft.case" horiz-adv-x="326" /><glyph d="M272 276Q272 153 207.5 21.5Q143 -110 42 -191L23 -172Q114 -89 168 32Q222 153 223 276Q224 397 169.5 518Q115 639 23 723L42 742Q143 661 207.5 529.5Q272 398 272 276Z" glyph-name="parenright" horiz-adv-x="321" unicode=")" /><glyph d="M274 346Q274 223 209.5 91.5Q145 -40 44 -121L25 -102Q116 -19 170 102Q224 223 225 346Q226 467 171.5 588Q117 709 25 793L44 812Q145 731 209.5 599.5Q274 468 274 346Z" glyph-name="parenright.case" horiz-adv-x="326" /><glyph d="M408 235Q408 358 324.5 490.5Q241 623 93 742L113 756Q173 726 242.5 667.5Q312 609 365 542Q426 467 457 390Q488 313 488 239Q488 134 430.5 63.5Q373 -7 283 -13V18Q343 24 375.5 80Q408 136 408 235ZM300 461Q306 452 311.5 443Q317 434 321 425Q310 427 298.5 428.5Q287 430 277 430Q212 430 169 374.5Q126 319 126 225Q126 133 158 79Q190 25 249 18V-13Q163 -5 104.5 63Q46 131 46 225Q46 326 108 395Q170 464 261 464Q270 464 280.5 463Q291 462 300 461Z" glyph-name="partialdiff" horiz-adv-x="535" unicode="&#8706;" /><glyph d="M283 544Q283 611 265 647.5Q247 684 211 691V714Q269 707 307 657Q345 607 345 544Q345 480 307 429Q269 378 211 371V394Q247 401 265 438Q283 475 283 544ZM105 544Q105 474 123 437Q141 400 177 393V371Q119 378 81 429Q43 480 43 544Q43 607 81 657Q119 707 177 714V692Q141 685 123 648.5Q105 612 105 544ZM677 700 124 0H85L638 700ZM481 159Q481 89 499 52Q517 15 553 8V-14Q495 -7 457 44Q419 95 419 159Q419 222 457 272Q495 322 553 329V307Q517 300 499 263.5Q481 227 481 159ZM659 159Q659 226 641 262.5Q623 299 587 306V329Q645 322 683 272Q721 222 721 159Q721 95 683 44Q645 -7 587 -14V9Q623 16 641 53Q659 90 659 159Z" glyph-name="percent" horiz-adv-x="763" unicode="%" /><glyph d="M197 50Q197 23 178 4Q159 -15 132 -15Q105 -15 86 4Q67 23 67 50Q67 77 86 96Q105 115 132 115Q159 115 178 96Q197 77 197 50Z" glyph-name="period" horiz-adv-x="264" unicode="." /><glyph d="M201 355Q201 328 182 309Q163 290 136 290Q109 290 90 309Q71 328 71 355Q71 382 90 401Q109 420 136 420Q163 420 182 401Q201 382 201 355Z" glyph-name="periodcentered" horiz-adv-x="272" unicode="&#183;" /><glyph d="M283 544Q283 611 265 647.5Q247 684 211 691V714Q269 707 307 657Q345 607 345 544Q345 480 307 429Q269 378 211 371V394Q247 401 265 438Q283 475 283 544ZM105 544Q105 474 123 437Q141 400 177 393V371Q119 378 81 429Q43 480 43 544Q43 607 81 657Q119 707 177 714V692Q141 685 123 648.5Q105 612 105 544ZM677 700 124 0H85L638 700ZM481 159Q481 89 499 52Q517 15 553 8V-14Q495 -7 457 44Q419 95 419 159Q419 222 457 272Q495 322 553 329V307Q517 300 499 263.5Q481 227 481 159ZM659 159Q659 226 641 262.5Q623 299 587 306V329Q645 322 683 272Q721 222 721 159Q721 95 683 44Q645 -7 587 -14V9Q623 16 641 53Q659 90 659 159ZM848 159Q848 89 866 52Q884 15 920 8V-14Q862 -7 824 44Q786 95 786 159Q786 222 824 272Q862 322 920 329V307Q884 300 866 263.5Q848 227 848 159ZM1026 159Q1026 226 1008 262.5Q990 299 954 306V329Q1012 322 1050 272Q1088 222 1088 159Q1088 95 1050 44Q1012 -7 954 -14V9Q990 16 1008 53Q1026 90 1026 159Z" glyph-name="perthousand" horiz-adv-x="1125" unicode="&#8240;" /><glyph d="M602 42 609 20Q592 7 557.5 -4Q523 -15 497 -15Q443 -15 417 13Q391 41 391 98V435H30V473H593V435H460V120Q460 71 476 49.5Q492 28 530 28Q544 28 559.5 31Q575 34 602 42ZM113 79V403H182V79Q182 53 192 41.5Q202 30 225 25L254 19V0H41V19L70 25Q93 30 103 41.5Q113 53 113 79Z" glyph-name="pi" horiz-adv-x="642" unicode="&#960;" /><glyph d="M291 149H246V338H61V378H246V566H291V378H478V338H291Z" glyph-name="plus" horiz-adv-x="540" unicode="+" /><glyph d="M291 149H246V338H61V378H246V566H291V378H478V338H291ZM478 0H61V41H478Z" glyph-name="plusminus" horiz-adv-x="540" unicode="&#177;" /><glyph d="M456 755Q617 755 734 641.5Q851 528 858 365H825Q818 517 711.5 622Q605 727 456 727Q307 727 200.5 622Q94 517 87 365H54Q61 528 178 641.5Q295 755 456 755ZM503 120H291V142L327 148Q341 151 348 161Q355 171 355 190V513Q355 532 348 542Q341 552 327 555L291 561V583H477Q554 583 605.5 545.5Q657 508 657 450Q657 388 605.5 349Q554 310 483 310H459V334Q517 339 550.5 369Q584 399 584 446Q584 496 546.5 525Q509 554 445 554H426V190Q426 173 433.5 163Q441 153 456 150L503 142ZM456 -57Q295 -57 178 56.5Q61 170 54 333H87Q94 181 200.5 76Q307 -29 456 -29Q605 -29 711.5 76Q818 181 825 333H858Q851 170 734 56.5Q617 -57 456 -57Z" glyph-name="product" horiz-adv-x="912" unicode="&#8719;" /><glyph d="M542 -201V-220H319V-201L358 -193Q382 -188 391.5 -177Q401 -166 401 -141V443L460 490H470V-141Q470 -167 480 -178.5Q490 -190 513 -195ZM246 -15Q161 -15 103.5 52Q46 119 46 225Q46 343 112.5 415Q179 487 279 487Q305 487 330.5 481.5Q356 476 379 465L360 446Q342 452 324.5 455Q307 458 290 458Q214 458 165.5 399.5Q117 341 117 248Q117 152 163 96Q209 40 285 40Q305 40 326.5 44.5Q348 49 367 58V33Q343 9 312.5 -3Q282 -15 246 -15Z" glyph-name="q" horiz-adv-x="552" unicode="q" /><glyph d="M311 546Q311 596 284.5 630Q258 664 214 671V715H217Q291 715 341 670.5Q391 626 391 557Q391 528 381.5 499Q372 470 351 437Q337 415 309.5 379.5Q282 344 274 334Q248 298 236 268.5Q224 239 224 213V193H193V213Q193 254 205.5 294Q218 334 258 402Q291 459 301 488.5Q311 518 311 546ZM38 553Q38 609 78 654.5Q118 700 180 712V673Q134 666 101.5 634Q69 602 69 563Q69 543 74.5 533.5Q80 524 92 523Q99 522 117 525Q135 528 144 528Q164 528 177.5 515Q191 502 191 482Q191 462 175 448Q159 434 137 434Q97 434 67.5 469Q38 504 38 553ZM275 50Q275 23 256 4Q237 -15 210 -15Q183 -15 164 4Q145 23 145 50Q145 77 164 96Q183 115 210 115Q237 115 256 96Q275 77 275 50Z" glyph-name="question" horiz-adv-x="437" unicode="?" /><glyph d="M118 -88Q118 -138 144.5 -172Q171 -206 215 -213V-257H212Q138 -257 88 -212.5Q38 -168 38 -99Q38 -70 47.5 -41Q57 -12 78 21Q92 43 119.5 78.5Q147 114 155 124Q181 160 193 189.5Q205 219 205 245V265H236V245Q236 204 223.5 164Q211 124 171 56Q138 -1 128 -30.5Q118 -60 118 -88ZM391 -95Q391 -151 351 -196.5Q311 -242 249 -254V-215Q295 -208 327.5 -176Q360 -144 360 -105Q360 -85 354.5 -75.5Q349 -66 337 -65Q330 -64 312 -67Q294 -70 285 -70Q265 -70 251.5 -57Q238 -44 238 -24Q238 -4 254 10Q270 24 292 24Q332 24 361.5 -11Q391 -46 391 -95ZM154 408Q154 435 173 454Q192 473 219 473Q246 473 265 454Q284 435 284 408Q284 381 265 362Q246 343 219 343Q192 343 173 362Q154 381 154 408Z" glyph-name="questiondown" horiz-adv-x="425" unicode="&#191;" /><glyph d="M127 154Q127 104 153.5 70Q180 36 224 29V-15H221Q147 -15 97 29.5Q47 74 47 143Q47 172 56.5 201Q66 230 87 263Q101 285 128.5 320.5Q156 356 164 366Q190 402 202 431.5Q214 461 214 487V507H245V487Q245 446 232.5 406Q220 366 180 298Q147 241 137 211.5Q127 182 127 154ZM400 147Q400 91 360 45.5Q320 0 258 -12V27Q304 34 336.5 66Q369 98 369 137Q369 157 363.5 166.5Q358 176 346 177Q339 178 321 175Q303 172 294 172Q274 172 260.5 185Q247 198 247 218Q247 238 263 252Q279 266 301 266Q341 266 370.5 231Q400 196 400 147ZM163 650Q163 677 182 696Q201 715 228 715Q255 715 274 696Q293 677 293 650Q293 623 274 604Q255 585 228 585Q201 585 182 604Q163 623 163 650Z" glyph-name="questiondown.case" horiz-adv-x="437" /><glyph d="M300 441H264V700H353ZM115 441H78V700H168Z" glyph-name="quotedbl" horiz-adv-x="407" unicode="&quot;" /><glyph d="M175 9 173 10Q167 1 154.5 -4.5Q142 -10 128 -10Q103 -10 86 8Q69 26 69 52Q69 77 87.5 96Q106 115 133 115Q165 115 187 89Q209 63 209 27Q209 -22 178 -63Q147 -104 88 -133L77 -121Q122 -89 146 -57Q170 -25 175 9ZM357 9 355 10Q349 1 336.5 -4.5Q324 -10 310 -10Q285 -10 268 8Q251 26 251 52Q251 77 269.5 96Q288 115 315 115Q347 115 369 89Q391 63 391 27Q391 -22 360 -63Q329 -104 270 -133L259 -121Q304 -89 328 -57Q352 -25 357 9Z" glyph-name="quotedblbase" horiz-adv-x="459" unicode="&#8222;" /><glyph d="M92 573 94 572Q100 581 112.5 586.5Q125 592 139 592Q164 592 181 574Q198 556 198 530Q198 505 179.5 486Q161 467 134 467Q102 467 80 493Q58 519 58 555Q58 604 89 645Q120 686 179 715L190 703Q145 671 121 639Q97 607 92 573ZM274 573 276 572Q282 581 294.5 586.5Q307 592 321 592Q346 592 363 574Q380 556 380 530Q380 505 361.5 486Q343 467 316 467Q284 467 262 493Q240 519 240 555Q240 604 271 645Q302 686 361 715L372 703Q327 671 303 639Q279 607 274 573Z" glyph-name="quotedblleft" horiz-adv-x="442" unicode="&#8220;" /><glyph d="M174 609 172 610Q166 601 153.5 595.5Q141 590 127 590Q102 590 85 608Q68 626 68 652Q68 677 86.5 696Q105 715 132 715Q164 715 186 689Q208 663 208 627Q208 578 177 537Q146 496 87 467L76 479Q121 511 145 543Q169 575 174 609ZM356 609 354 610Q348 601 335.5 595.5Q323 590 309 590Q284 590 267 608Q250 626 250 652Q250 677 268.5 696Q287 715 314 715Q346 715 368 689Q390 663 390 627Q390 578 359 537Q328 496 269 467L258 479Q303 511 327 543Q351 575 356 609Z" glyph-name="quotedblright" horiz-adv-x="443" unicode="&#8221;" /><glyph d="M92 573 94 572Q100 581 112.5 586.5Q125 592 139 592Q164 592 181 574Q198 556 198 530Q198 505 179.5 486Q161 467 134 467Q102 467 80 493Q58 519 58 555Q58 604 89 645Q120 686 179 715L190 703Q145 671 121 639Q97 607 92 573Z" glyph-name="quoteleft" horiz-adv-x="260" unicode="&#8216;" /><glyph d="M174 609 172 610Q166 601 153.5 595.5Q141 590 127 590Q102 590 85 608Q68 626 68 652Q68 677 86.5 696Q105 715 132 715Q164 715 186 689Q208 663 208 627Q208 578 177 537Q146 496 87 467L76 479Q121 511 145 543Q169 575 174 609Z" glyph-name="quoteright" horiz-adv-x="261" unicode="&#8217;" /><glyph d="M175 9 173 10Q167 1 154.5 -4.5Q142 -10 128 -10Q103 -10 86 8Q69 26 69 52Q69 77 87.5 96Q106 115 133 115Q165 115 187 89Q209 63 209 27Q209 -22 178 -63Q147 -104 88 -133L77 -121Q122 -89 146 -57Q170 -25 175 9Z" glyph-name="quotesinglbase" horiz-adv-x="277" unicode="&#8218;" /><glyph d="M115 441H78V700H168Z" glyph-name="quotesingle" horiz-adv-x="222" unicode="'" /><glyph d="M179 490H181V79Q181 54 190.5 43Q200 32 224 27L263 19V0H40V19L69 25Q92 30 102 41.5Q112 53 112 79V402L29 433V450Q69 457 112 468.5Q155 480 179 490ZM284 410Q266 410 249 406Q232 402 215 393V415Q244 448 271.5 465Q299 482 325 482Q334 482 342.5 480.5Q351 479 369 474Q368 456 361 433Q354 410 346 394Q330 402 315 406Q300 410 284 410Z" glyph-name="r" horiz-adv-x="381" unicode="r" /><glyph d="M179 490H181V79Q181 54 190.5 43Q200 32 224 27L263 19V0H40V19L69 25Q92 30 102 41.5Q112 53 112 79V402L29 433V450Q69 457 112 468.5Q155 480 179 490ZM284 410Q266 410 249 406Q232 402 215 393V415Q244 448 271.5 465Q299 482 325 482Q334 482 342.5 480.5Q351 479 369 474Q368 456 361 433Q354 410 346 394Q330 402 315 406Q300 410 284 410ZM230 549H211L226 696H321Z" glyph-name="racute" horiz-adv-x="381" unicode="&#341;" /><glyph d="M538 743 254 47 235 95 489 743ZM26 417H71L236 0H194Z" glyph-name="radical" horiz-adv-x="542" unicode="&#8730;" /><glyph d="M179 490H181V79Q181 54 190.5 43Q200 32 224 27L263 19V0H40V19L69 25Q92 30 102 41.5Q112 53 112 79V402L29 433V450Q69 457 112 468.5Q155 480 179 490ZM284 410Q266 410 249 406Q232 402 215 393V415Q244 448 271.5 465Q299 482 325 482Q334 482 342.5 480.5Q351 479 369 474Q368 456 361 433Q354 410 346 394Q330 402 315 406Q300 410 284 410ZM200 549 108 696H137L223 613L309 696H338L246 549Z" glyph-name="rcaron" horiz-adv-x="381" unicode="&#345;" /><glyph d="M179 490H181V79Q181 54 190.5 43Q200 32 224 27L263 19V0H40V19L69 25Q92 30 102 41.5Q112 53 112 79V402L29 433V450Q69 457 112 468.5Q155 480 179 490ZM284 410Q266 410 249 406Q232 402 215 393V415Q244 448 271.5 465Q299 482 325 482Q334 482 342.5 480.5Q351 479 369 474Q368 456 361 433Q354 410 346 394Q330 402 315 406Q300 410 284 410ZM141 -180Q116 -180 99 -162Q82 -144 82 -118Q82 -93 100.5 -74Q119 -55 146 -55Q178 -55 200 -81Q222 -107 222 -143Q222 -192 191 -233Q160 -274 101 -303L90 -291Q135 -259 159 -227Q183 -195 188 -161L186 -160Q180 -169 167.5 -174.5Q155 -180 141 -180Z" glyph-name="rcommaaccent" horiz-adv-x="381" unicode="&#343;" /><glyph d="M633 473Q633 357 548.5 274Q464 191 346 191Q228 191 143.5 274Q59 357 59 473Q59 589 143.5 672Q228 755 346 755Q464 755 548.5 672Q633 589 633 473ZM346 727Q241 727 167 652.5Q93 578 93 473Q93 368 167 293.5Q241 219 346 219Q451 219 525 293.5Q599 368 599 473Q599 578 525 652.5Q451 727 346 727ZM412 557Q412 589 390.5 608Q369 627 330 630V647H356Q403 647 432.5 622Q462 597 462 562Q462 535 445.5 514.5Q429 494 397 481L446 405Q462 380 474.5 366Q487 352 508 344L519 341V325H485Q456 325 438.5 340Q421 355 371 438L349 474H330V491H333Q371 493 391.5 510Q412 527 412 557ZM339 341V325H210V341L232 345Q241 347 245.5 353.5Q250 360 250 369V605Q250 614 245.5 619Q241 624 232 626L210 630V647H296V369Q296 360 301 354Q306 348 315 346Z" glyph-name="registered" horiz-adv-x="692" unicode="&#174;" /><glyph d="M132 592Q157 592 174 574Q191 556 191 530Q191 505 172.5 486Q154 467 127 467Q95 467 73 493Q51 519 51 555Q51 604 82 645Q113 686 172 715L183 703Q138 671 114 639Q90 607 85 573L87 572Q93 581 105.5 586.5Q118 592 132 592Z" glyph-name="revcommaaccent" horiz-adv-x="241" /><glyph d="M146 687Q124 687 106.5 673Q89 659 84 637H51Q57 671 84 694Q111 717 146 717Q181 717 208 694Q235 671 241 637H208Q203 659 185.5 673Q168 687 146 687ZM146 526Q111 526 84 548.5Q57 571 51 605H84Q89 583 106.5 569.5Q124 556 146 556Q168 556 185.5 569.5Q203 583 208 605H241Q235 571 208 548.5Q181 526 146 526Z" glyph-name="ring" horiz-adv-x="292" unicode="&#730;" /><glyph d="M233 457V488Q255 487 287 482Q319 477 356 468L347 351H323Q317 400 294.5 426Q272 452 233 457ZM375 130Q375 75 333 34Q291 -7 225 -14V16Q263 22 287 46Q311 70 311 105Q311 130 300 149.5Q289 169 265 185Q254 193 240 200Q226 207 177 228Q113 255 87 286.5Q61 318 61 361Q61 410 98.5 445Q136 480 199 487V456Q168 450 147.5 429.5Q127 409 127 381Q127 350 145 329.5Q163 309 216 285Q278 257 294 248.5Q310 240 322 231Q349 211 362 186Q375 161 375 130ZM191 16V-15Q156 -14 116 -4Q76 6 52 17V150H76Q87 88 116 54.5Q145 21 191 16Z" glyph-name="s" horiz-adv-x="421" unicode="s" /><glyph d="M356 468 347 351H323Q317 400 294.5 426Q272 452 233 457V488Q239 488 242 488Q245 488 248 487Q241 501 238 518.5Q235 536 235 557Q235 618 278 660.5Q321 703 388 703Q460 703 503 654.5Q546 606 546 526V473H679V435H407V451Q440 458 462.5 490.5Q485 523 485 562Q485 612 453.5 643.5Q422 675 375 675Q324 675 290 639.5Q256 604 256 551Q256 534 259 517Q262 500 268 485Q285 483 306 479Q327 475 356 468ZM127 381Q127 350 145 329.5Q163 309 216 285Q278 257 294 248.5Q310 240 322 231Q349 211 362 186Q375 161 375 130Q375 75 333 34Q291 -7 225 -14V16Q263 22 287 46Q311 70 311 105Q311 130 300 149.5Q289 169 265 185Q254 193 240 200Q226 207 177 228Q113 255 87 286.5Q61 318 61 361Q61 410 98.5 445Q136 480 199 487V456Q168 450 147.5 429.5Q127 409 127 381ZM477 98V403H546V120Q546 71 562 49.5Q578 28 616 28Q630 28 645.5 31Q661 34 688 42L695 20Q678 7 643.5 -4Q609 -15 583 -15Q529 -15 503 13Q477 41 477 98ZM191 16V-15Q156 -14 116 -4Q76 6 52 17V150H76Q87 88 116 54.5Q145 21 191 16Z" glyph-name="s_t" horiz-adv-x="708" unicode="&#64262;" /><glyph d="M233 457V488Q255 487 287 482Q319 477 356 468L347 351H323Q317 400 294.5 426Q272 452 233 457ZM375 130Q375 75 333 34Q291 -7 225 -14V16Q263 22 287 46Q311 70 311 105Q311 130 300 149.5Q289 169 265 185Q254 193 240 200Q226 207 177 228Q113 255 87 286.5Q61 318 61 361Q61 410 98.5 445Q136 480 199 487V456Q168 450 147.5 429.5Q127 409 127 381Q127 350 145 329.5Q163 309 216 285Q278 257 294 248.5Q310 240 322 231Q349 211 362 186Q375 161 375 130ZM191 16V-15Q156 -14 116 -4Q76 6 52 17V150H76Q87 88 116 54.5Q145 21 191 16ZM214 549H195L210 696H305Z" glyph-name="sacute" horiz-adv-x="421" unicode="&#347;" /><glyph d="M233 457V488Q255 487 287 482Q319 477 356 468L347 351H323Q317 400 294.5 426Q272 452 233 457ZM375 130Q375 75 333 34Q291 -7 225 -14V16Q263 22 287 46Q311 70 311 105Q311 130 300 149.5Q289 169 265 185Q254 193 240 200Q226 207 177 228Q113 255 87 286.5Q61 318 61 361Q61 410 98.5 445Q136 480 199 487V456Q168 450 147.5 429.5Q127 409 127 381Q127 350 145 329.5Q163 309 216 285Q278 257 294 248.5Q310 240 322 231Q349 211 362 186Q375 161 375 130ZM191 16V-15Q156 -14 116 -4Q76 6 52 17V150H76Q87 88 116 54.5Q145 21 191 16ZM184 549 92 696H121L207 613L293 696H322L230 549Z" glyph-name="scaron" horiz-adv-x="421" unicode="&#353;" /><glyph d="M233 457V488Q255 487 287 482Q319 477 356 468L347 351H323Q317 400 294.5 426Q272 452 233 457ZM191 16V-15Q156 -14 116 -4Q76 6 52 17V150H76Q87 88 116 54.5Q145 21 191 16ZM310 -145Q310 -179 282 -201.5Q254 -224 213 -224Q186 -224 160.5 -217Q135 -210 114 -197L127 -177Q144 -184 159 -187.5Q174 -191 186 -191Q214 -191 230.5 -178Q247 -165 247 -142Q247 -121 224.5 -105Q202 -89 169 -83L168 -80L225 16Q263 22 287 46Q311 70 311 105Q311 130 300 149.5Q289 169 265 185Q254 193 240 200Q226 207 177 228Q113 255 87 286.5Q61 318 61 361Q61 410 98.5 445Q136 480 199 487V456Q168 450 147.5 429.5Q127 409 127 381Q127 350 145 329.5Q163 309 216 285Q278 257 294 248.5Q310 240 322 231Q349 211 362 186Q375 161 375 130Q375 78 337.5 38.5Q300 -1 240 -12L222 -64Q258 -69 284 -91Q310 -113 310 -145Z" glyph-name="scedilla" horiz-adv-x="421" unicode="&#351;" /></font>
</defs>
</svg>
